<svg xmlns="http://www.w3.org/2000/svg" xmlns:xlink="http://www.w3.org/1999/xlink" class="hidden lg:block"><defs><path id="a" d="M0 .555h4.218v7.938H0z"></path></defs><g fill="none" fill-rule="evenodd"><g fill="#000"><path d="M123.065 85.977c-.028.105-.098.127-.149.226-.044.08-.055.219-.087.299-.064.155-.089.329-.163.48-.204.43-.43.849-.674 1.258-.08.135-.162.268-.25.398l-.022.03-.006.01-.345.547c-.063.104-.215.362-.24.378-.04.028-.148.279-.173.318-.017.03-.18.343-.223.424a2.122 2.122 0 01-.214.23c-.139.135-.398.408-.473.597l-.002-.002-.138.185-.026.02a.443.443 0 00-.092.14l-1.22 1.539c-.123.17-.305.4-.421.486a.71.71 0 00-.138.08c-.035.052-.077-.052-.111-.068-.032-.035-.05.04-.256-.214-.082-.083-.215-.264-.306-.333-.167-.127-.266-.175-.438-.3-.38-.277-.748-.57-1.115-.864a1.828 1.828 0 01-.256-.271c-.131-.157-.241-.298-.429-.373-.173-.07-.318-.133-.446-.286-.206-.247-.476-.416-.719-.622a12.735 12.735 0 01-1.078-.987c-.102-.107-.17-.256-.294-.33-.311-.186-.489-.473-.757-.747-.109-.112-.518-.21-.699-.066-.105.084-.18.235-.284.323-.241.203-.408.766-.245.899.173.14.368.254.543.39.183.144.342.318.534.45.152.105.373.129.498.259.134.14.319.207.437.386.171.257.462.4.693.602.51.446 1.04.884 1.531 1.356.312.299.695.525 1.024.789l1.527 1.258.591.486c.048.026.099.11.145.089l.133-.14.266-.277.523-.554.323-.371.588-.674c.266-.306.419-.574.741-.822l.046-.041h.001l.007-.006c.142-.127.27-.301.373-.46l.722-.906c.281-.343.474-.755.701-1.122a31.37 31.37 0 001.223-2.12c.243-.381.626-.697.828-1.09a.476.476 0 00.029-.357c-.043-.131-.006-.15-.053-.21-.055-.072-.183-.15-.341-.216-.433-.183-1.091-.308-1.144-.103" fill="#eee"></path><path d="M110.04 18.762c.743-1.336 1.517-2.42 2.377-3.51l2.166-2.75c.12-.17.929-.124 1.222.08.297.203.562.99.372 1.243-.677.954-1.475 1.766-2.265 2.514-.73.685-1.5 1.352-2.22 2.081-.246.26-.44.564-.732.776-.131.091-.554.032-.747-.07-.164-.086-.163-.34-.173-.364" fill="#eee"></path><g transform="translate(107 23.748)"><mask id="b" fill="#fff"><use xlink:href="#a"></use></mask><path d="M1.528.557c.808.303.718.885.848 1.388.207 1.062.375 2.139.753 3.162.24.7.382 1.467.85 2.072.353.442.32.774-.132 1.263-.053.06-.29.07-.342.016C2.097 7.01 1.24 5.318.52 3.396.38 3.01.178 2.636.065 2.235A1.196 1.196 0 01.29 1.062C.574.734.943.53 1.528.557" fill="#eee" mask="url(#b)"></path></g><path d="M119.393 6.365c.541-.977 1.4-2.575 1.544-3.285.185-.682.208-1.444.235-2.134.05-.343.3-.658.55-.902.072-.076.49.227.765.376 1.197.617.72 1.628.472 2.461-.114.442-.537 1.268-1.024 1.964-.484.706-1.009 1.344-1.244 1.726-.559.887-.818.847-1.319.02-.07-.117.04-.356.021-.226M135.49 45.038c-1.414-1.015-2.934-1.395-4.22-1.79-1.22-.35-2.353-.688-3.358-1.075-.194-.075.177-.697.562-.938.383-.238 1.474-.488 1.749-.374 1.052.389 2.026.843 2.977 1.312.94.479 1.853 1.01 2.645 1.73.276.249.622.519.749.818.053.134-.22.334-.434.378a.553.553 0 01-.16.002 2.113 2.113 0 01-.231-.016l-.28-.047M137.189 50.51c.655.252.408.907.191 1.417-.425 1.114-1.282 2.127-2.234 2.953-.655.567-1.581 1.007-2.183 1.477-.452.356-.961.436-1.822.29-.118-.024-.266-.16-.222-.2 1.227-1.043 2.709-2.057 3.299-3.6.123-.298.122-.614.153-.923.029-.31.369-.639.92-.91.279-.134.591-.259.957-.349.174-.045.386-.083.556-.11.125-.026.254-.042.385-.045M121.376 39.464c-1.09-.206-2.8-.78-3.605-1.04-.76-.236-1.546-.414-2.26-.84-.348-.22-.549-.734-.625-1.143-.023-.126.423-.302.653-.47.962-.684 1.472.057 2.215.416.382.178 1.044.588 1.735.962.721.384 1.48.75 1.928.88 1.061.313 1.042.54.201 1.198-.117.092-.38.053-.242.037M116.37 78.83c-.152-1.557-.233-2.882-.177-4.216.073-1.24.245-2.5.619-3.694.067-.244.868-.456 1.202-.324.336.133.819.754.755 1.019-.523 2.019-.994 4.076-1.281 6.176-.047.366-.014.759-.14 1.09-.056.147-.426.257-.634.232-.176-.02-.323-.263-.344-.282M116.98 84.752c.726.229.748.858.826 1.392.193 1.131.216 2.3.342 3.451.076.787.002 1.618.24 2.362.187.552.03.895-.525 1.245-.07.044-.292-.011-.319-.078-.774-1.8-1.054-3.596-1.567-5.492-.098-.379-.249-.745-.373-1.12-.232-.763.347-1.698 1.376-1.76M120.43 63.797a11.54 11.54 0 011.072-1.784c.41-.606.913-1.137 1.16-1.44.506-.588.944-1.132 1.556-1.472.302-.17.93-.122 1.43-.076.155.015.271.38.412.61.556.936-.712 1.213-1.426 1.715-.175.14-.437.323-.743.527-.312.203-.556.442-.862.678-.563.496-1.089 1.06-1.3 1.422-.5.83-.736.852-1.308.053-.079-.113.021-.369.008-.233" fill="#eee"></path></g></svg>