<svg version="1.2" xmlns="http://www.w3.org/2000/svg" viewBox="0 0 1000 601" width="1000" height="601">
	<style>
		.s0 { fill: #ffffff } 
	</style>
	<g id="Layer 2">
		<path id="Path 0" class="s0" d="m653.09 283.41c-3.09 1-8.14 3.2-11.23 4.91-3.29 1.82-7.79 5.32-10.83 8.44-2.87 2.93-6.39 7.29-7.82 9.69-1.43 2.41-3.56 7.08-4.73 10.39-1.57 4.42-2.23 8.14-2.5 14.04-0.28 5.94-0.02 9.48 1.01 13.64 0.76 3.09 2.69 8.28 4.3 11.55 1.76 3.58 4.98 8.16 8.13 11.57 2.87 3.11 7.38 7.04 10.03 8.74 2.65 1.71 7.7 4.23 11.23 5.61 5.95 2.33 7.15 2.51 16.45 2.53 8.92 0.03 10.7-0.21 16.05-2.14 3.31-1.19 8-3.34 10.43-4.77 2.42-1.43 6.97-5.13 10.09-8.22 3.25-3.22 6.9-7.85 8.53-10.83 1.57-2.87 3.69-7.74 4.71-10.83 1.49-4.51 1.86-7.36 1.85-14.45-0.01-6.14-0.45-10.28-1.45-13.63-0.79-2.65-2.44-6.8-3.67-9.23-1.23-2.43-3.63-6.26-5.33-8.51-1.71-2.25-5.12-5.86-7.59-8.02-2.47-2.16-6.8-5.11-9.63-6.55-2.82-1.43-7.66-3.33-10.75-4.21-3.98-1.13-7.96-1.58-13.64-1.56-6.05 0.03-9.41 0.48-13.64 1.84z"/>
		<path id="Path 1" class="s0" d="m634.23 143.65c-1.98 0.4-5.37 1.72-7.52 2.92-2.16 1.2-4.84 3.26-5.95 4.59-1.11 1.32-2.84 4.21-3.83 6.42-0.99 2.2-2.25 6.72-2.78 10.03-0.57 3.48-0.77 8.55-0.48 12.03 0.27 3.31 1.08 8 1.79 10.43 0.71 2.43 2.13 5.86 3.14 7.62 1.01 1.77 3.14 4.39 4.73 5.82 1.58 1.43 5.05 3.69 7.7 5.01 2.83 1.42 10.83 3.86 19.45 5.94 8.05 1.94 18.25 4.86 22.67 6.48 4.41 1.63 12.35 5.06 17.65 7.64 5.29 2.59 14.5 7.94 20.46 11.91 5.95 3.96 13.54 9.68 16.86 12.69 3.31 3.02 9.64 9.28 14.05 13.91 4.42 4.64 10.07 11.14 12.57 14.45 2.49 3.3 6.57 9.26 9.05 13.23 2.49 3.98 6.48 11.2 8.87 16.05 2.39 4.85 6.1 14.24 8.26 20.86 2.15 6.62 4.54 15.1 5.31 18.85 0.76 3.76 2.17 9.35 3.11 12.44 0.95 3.09 2.81 7.41 4.14 9.59 1.33 2.19 4.23 5.45 6.43 7.25 2.47 2.01 6.18 3.98 9.63 5.12 4.39 1.44 7.64 1.87 14.84 1.98 7.48 0.11 10.3-0.2 14.85-1.61 4-1.25 6.76-2.76 9.63-5.28 2.2-1.94 4.87-5.31 5.93-7.48 1.52-3.11 2.01-5.68 2.31-11.98 0.27-5.45-0.04-10.59-0.96-16.04-0.75-4.42-2.27-11.64-3.38-16.05-1.11-4.41-3.3-11.99-4.85-16.85-1.56-4.85-4.37-12.61-6.26-17.25-1.88-4.63-5.41-12.39-7.84-17.25-2.43-4.85-6.49-12.25-9.03-16.45-2.54-4.19-6.33-10.14-8.41-13.23-2.08-3.09-6.82-9.41-10.52-14.04-3.7-4.64-12.15-13.86-18.77-20.51-6.62-6.64-16.01-15.17-20.86-18.96-4.86-3.79-12.98-9.65-18.06-13.02-5.07-3.38-16.8-9.91-26.07-14.51-12.58-6.25-20.51-9.58-31.29-13.14-7.95-2.62-18.69-5.7-23.87-6.85-5.19-1.14-12.77-2.43-16.85-2.86-4.08-0.43-8.5-0.76-9.83-0.71-1.32 0.04-4.03 0.4-6.02 0.81z"/>
		<path id="Path 2" class="s0" d="m636.24 0.71c-1.76 0.34-4.83 1.32-6.82 2.17-1.99 0.85-5.05 2.83-6.82 4.4-1.79 1.59-4.17 4.93-5.39 7.57-1.21 2.6-2.63 7.62-3.17 11.15-0.74 4.81-0.77 8.22-0.13 13.64 0.56 4.73 1.65 8.98 3.17 12.36 1.64 3.65 3.59 6.28 6.72 9.08 2.43 2.17 6.22 4.6 8.43 5.4 2.2 0.8 7.08 2.04 10.83 2.75 3.75 0.7 10.61 1.84 15.24 2.51 4.64 0.67 11.14 1.75 14.45 2.39 3.31 0.63 9.26 1.85 13.23 2.7 3.98 0.85 9.21 2.1 11.64 2.78 2.42 0.69 9.83 3.04 16.45 5.24 6.61 2.19 16.18 5.7 21.26 7.79 5.07 2.08 15.45 6.99 23.06 10.9 7.62 3.9 15.92 8.42 18.46 10.03 2.53 1.61 9.12 5.91 14.64 9.57 5.52 3.65 14.9 10.5 20.86 15.23 6.1 4.84 17.51 15.3 26.12 23.93 8.4 8.43 18.88 19.85 23.29 25.36 4.4 5.52 10.39 13.46 13.31 17.65 2.92 4.2 7.08 10.52 9.24 14.05 2.16 3.53 5.41 9.12 7.22 12.43 1.8 3.31 4.82 8.91 6.69 12.44 1.88 3.53 5.58 11.47 8.21 17.65 2.63 6.18 6.88 17.55 9.43 25.27 2.56 7.72 5.39 17.11 6.3 20.86 0.91 3.75 2.17 9.17 2.82 12.04 0.64 2.86 1.75 8.64 2.47 12.83 0.72 4.2 1.85 11.6 2.52 16.45 0.67 4.86 1.77 10.99 2.45 13.64 0.68 2.65 2.11 6.53 3.17 8.63 1.06 2.09 3.28 5.14 4.93 6.76 1.65 1.63 4.99 3.9 7.42 5.06 2.43 1.16 7.3 2.56 10.83 3.12 4.75 0.75 8.4 0.81 14.04 0.22 4.2-0.43 9.25-1.5 11.24-2.37 1.98-0.87 5.14-2.71 7.02-4.08 2.41-1.77 4.17-4.07 6.01-7.89 2.42-5.01 2.63-6.09 2.88-15.05 0.17-5.75-0.23-13.52-0.98-19.27-0.69-5.3-2.17-14.68-3.3-20.86-1.13-6.18-3.53-17.19-5.33-24.47-1.81-7.28-5.26-19.2-7.67-26.48-2.42-7.28-6.2-17.75-8.42-23.27-2.22-5.51-7.17-16.52-11.01-24.47-3.84-7.94-9.47-18.77-12.51-24.07-3.03-5.29-8.57-14.32-12.3-20.05-3.73-5.74-10.06-14.77-14.06-20.06-4.01-5.3-10.78-13.78-15.05-18.86-4.27-5.07-14.75-16.11-23.29-24.53-8.54-8.42-18.95-18.14-23.14-21.6-4.2-3.46-11.78-9.42-16.85-13.24-5.08-3.83-13.02-9.48-17.65-12.55-4.64-3.07-10.23-6.69-12.44-8.03-2.21-1.34-6.9-4.07-10.43-6.06-3.53-1.99-8.49-4.75-11.03-6.14-2.54-1.39-10.03-5.05-16.65-8.14-6.62-3.09-16.64-7.46-22.26-9.71-5.63-2.25-15.47-5.82-21.87-7.93-6.4-2.11-17.41-5.3-24.47-7.1-7.06-1.79-18.61-4.33-25.67-5.65-7.06-1.31-18.08-2.95-24.47-3.65-6.4-0.7-13.44-1.23-15.65-1.18-2.21 0.05-5.45 0.37-7.22 0.71z"/>
		<path id="Path 3" class="s0" d="m382.31 174.04c-1.99 0.34-5.6 1.37-8.03 2.27-2.42 0.9-6.73 3.2-9.57 5.09-2.84 1.9-6.78 5.44-8.75 7.87-1.97 2.43-4.6 6.58-5.84 9.23-1.24 2.64-2.9 6.98-3.69 9.62-1.35 4.55-1.44 14.33-1.64 177.32-0.19 146.51-0.05 173.4 0.92 178.51 0.63 3.31 1.97 8.19 2.98 10.83 1.01 2.65 3.48 6.94 5.49 9.54 2.01 2.59 5.82 6.21 8.47 8.03 2.65 1.83 7.16 4.1 10.03 5.05 2.87 0.95 8.46 2.16 12.43 2.7 4.13 0.55 10.49 0.77 14.85 0.5 4.19-0.25 9.6-0.89 12.03-1.4 2.43-0.52 7.12-2.22 10.43-3.79 4-1.89 7.52-4.34 10.49-7.32 2.57-2.58 5.56-6.7 7.03-9.7 1.42-2.86 3.19-7.2 3.94-9.62 1.24-4.03 1.4-13.45 1.79-107.64l0.42-103.22c127.47 159.2 168.12 209.8 172.57 215.16 4.45 5.35 10.77 12.01 14.04 14.79 3.27 2.79 8.11 6.13 10.76 7.43 2.65 1.3 7.34 2.93 10.43 3.61 3.09 0.69 9.59 1.45 14.44 1.69 5.19 0.27 10.81 0.08 13.64-0.45 2.65-0.5 7.52-2.2 10.83-3.78 4.1-1.96 7.43-4.33 10.43-7.42 2.68-2.76 5.57-6.91 7.35-10.55 1.62-3.31 3.51-8.63 4.21-11.83 1.13-5.11 1.28-16.04 1.28-90.46v-84.65c-4.66 3.51-7.82 5.6-10.03 6.91-2.2 1.31-6.54 3.51-9.63 4.88-3.08 1.37-7.78 3.07-10.43 3.79-2.64 0.71-8.96 1.53-14.04 1.8-5.8 0.32-11.75 0.14-16.04-0.48-3.75-0.54-10.07-2.25-14.04-3.78-3.98-1.53-9.21-3.91-11.64-5.27-2.42-1.37-6.03-3.77-8.02-5.35-1.99-1.58-4.06-3.32-4.61-3.88-0.56-0.57-1.37-1.02-1.81-1.02-0.49 0-0.88 5.08-1 13.23l-0.2 13.23c-153.93-192.23-176.83-220.29-182.93-226.18-6.01-5.81-9.53-8.5-14.04-10.74-3.88-1.92-8.45-3.41-12.84-4.18-3.75-0.65-9.53-1.14-12.84-1.09-3.31 0.05-7.64 0.37-9.62 0.72z"/>
		<path id="Path 4" class="s0" d="m42.12 178.86c-2.43 0.35-7.12 1.57-10.43 2.72-3.31 1.14-7.95 3.25-10.31 4.68-2.36 1.44-6.33 4.79-8.82 7.45-2.5 2.66-5.67 7.17-7.06 10.03-1.39 2.85-3.2 7.53-4.01 10.4-1.43 5-1.49 12.11-1.49 172.5 0 160.03 0.06 167.51 1.48 172.5 0.81 2.87 2.32 7.02 3.35 9.22 1.03 2.21 3.34 6 5.14 8.43 1.79 2.43 5.52 6.13 8.28 8.23 2.76 2.1 7.73 4.86 11.03 6.14 3.31 1.27 8.73 2.74 12.04 3.25 4.4 0.68 35.47 0.86 115.53 0.68l109.52-0.25c7.46-2.86 11.39-4.67 13.55-5.86 2.16-1.19 5.77-4.16 8.02-6.61 2.26-2.45 5.07-6.42 6.26-8.83 1.18-2.4 2.77-6.72 3.53-9.59 0.9-3.39 1.39-8.3 1.4-14.04 0.02-5.92-0.44-10.54-1.38-14.04-0.77-2.87-2.37-7.19-3.55-9.6-1.19-2.41-4.14-6.44-6.57-8.95-3-3.1-6.34-5.49-10.43-7.46-3.46-1.67-8.74-3.39-12.43-4.06-5.3-0.96-19.54-1.17-81.24-1.19l-74.82-0.03c-0.4-283.35-0.42-284.46-2.07-290.04-0.91-3.09-2.79-7.96-4.17-10.83-1.38-2.87-4.24-7.16-6.35-9.53-2.12-2.37-6.38-5.85-9.47-7.73-3.09-1.88-7.96-4.17-10.83-5.09-2.87-0.91-7.56-2.04-10.43-2.49-2.87-0.45-8.28-0.78-12.04-0.73-3.75 0.05-8.8 0.38-11.23 0.72z"/>
	</g>
</svg>