<svg width="15" height="15" viewBox="0 0 15 15" fill="none" xmlns="http://www.w3.org/2000/svg">
<path d="M1.5 15V6M1.5 6.5C1.5 3.18629 4.18629 0.5 7.5 0.5C10.8137 0.5 13.5 3.18629 13.5 6.5V15M10.5 4.5L9.00746 4.4005C6.33275 4.22218 3.93974 5.79104 2.95478 8.13786C2.46617 9.30207 2.7688 10.6048 3.28158 11.7586V11.7586C4.0225 13.4256 5.6757 14.5 7.5 14.5C9.3243 14.5 10.9775 13.4256 11.7184 11.7586V11.7586C12.2299 10.6078 12.5658 9.33686 12.3261 8.10063C11.943 6.12496 11.0193 5.01926 10.5 4.5ZM10.5 4.5V3M6.5 12.5H8C8.82843 12.5 9.5 11.8284 9.5 11M12.5 9.5H10.5C9.39543 9.5 8.5 8.60457 8.5 7.5M8.5 7.5H12M8.5 7.5H6.5M3.5 7.5H6.5M6.5 7.5C6.5 8.60457 5.60457 9.5 4.5 9.5H2.5" stroke="#EBEBED"/>
</svg>
