<svg width="15" height="15" viewBox="0 0 15 15" fill="none" xmlns="http://www.w3.org/2000/svg">
<path d="M7.5 0.499992L7.72361 0.052779C7.58284 -0.0176032 7.41716 -0.0176032 7.27639 0.052779L7.5 0.499992ZM4.5 8.5V8H4V8.5H4.5ZM8.5 8.5H9V8H8.5V8.5ZM0 15H15V14H0V15ZM7.27639 0.052779L1.27639 3.05279L1.72361 3.94721L7.72361 0.947206L7.27639 0.052779ZM0 6H15V5H0V6ZM13.7236 3.05279L7.72361 0.052779L7.27639 0.947206L13.2764 3.94721L13.7236 3.05279ZM1 5.5V14.5H2V5.5H1ZM13 5.5V14.5H14V5.5H13ZM5 14.5V8.5H4V14.5H5ZM4.5 9H8.5V8H4.5V9ZM8 8.5V14.5H9V8.5H8Z" fill="#EBEBED"/>
</svg>
