<svg width="15" height="15" viewBox="0 0 15 15" fill="none" xmlns="http://www.w3.org/2000/svg">
<path d="M10.5 6V11M10.5 6.5H12.5V8M10.5 10.5H12.5V9M1.5 5V1.5C1.5 0.947715 1.94772 0.5 2.5 0.5H10.5L13.5 3.5V5M1.5 12V13.5C1.5 14.0523 1.94772 14.5 2.5 14.5H12.5C13.0523 14.5 13.5 14.0523 13.5 13.5V12M2.5 6.5V10.5H3.5C4.05228 10.5 4.5 10.0523 4.5 9.5V7.5C4.5 6.94772 4.05228 6.5 3.5 6.5H2.5ZM6.5 7.5V9.5C6.5 10.0523 6.94772 10.5 7.5 10.5C8.05228 10.5 8.5 10.0523 8.5 9.5V7.5C8.5 6.94772 8.05228 6.5 7.5 6.5C6.94772 6.5 6.5 6.94772 6.5 7.5Z" stroke="#EBEBED"/>
</svg>
