<svg width="15" height="15" viewBox="0 0 15 15" fill="none" xmlns="http://www.w3.org/2000/svg">
<path d="M5 5.5H6M9 5.5H10M4.5 8C6 10 9 10 10.5 8M1.5 13.0858C1.5 13.8668 2.13317 14.5 2.91421 14.5C3.28929 14.5 3.649 14.351 3.91421 14.0858L4 14C4.32014 13.6799 4.75435 13.5 5.20711 13.5H5.29289C5.74565 13.5 6.17986 13.6799 6.5 14L6.64645 14.1464C6.87282 14.3728 7.17986 14.5 7.5 14.5C7.82014 14.5 8.12718 14.3728 8.35355 14.1464L8.5 14C8.82014 13.6799 9.25435 13.5 9.70711 13.5H9.79289C10.2456 13.5 10.6799 13.6799 11 14L11.0858 14.0858C11.351 14.351 11.7107 14.5 12.0858 14.5C12.8668 14.5 13.5 13.8668 13.5 13.0858V6.5C13.5 3.18629 10.8137 0.5 7.5 0.5C4.18629 0.5 1.5 3.18629 1.5 6.5V13.0858Z" stroke="#EBEBED"/>
</svg>
