<svg width="15" height="15" viewBox="0 0 15 15" fill="none" xmlns="http://www.w3.org/2000/svg">
<path d="M5.49997 2.49997L6.49997 3.49997M7.49997 5.49997C6.94769 5.49997 6.49997 5.05226 6.49997 4.49997C6.49997 3.94769 6.94769 3.49997 7.49997 3.49997C8.05226 3.49997 8.49997 3.94769 8.49997 4.49997C8.49997 5.05226 8.05226 5.49997 7.49997 5.49997ZM7.49997 5.49997V9.49997M8.49997 5.49997L9.99997 6.99997M7.49997 9.49997C8.05226 9.49997 8.49997 9.94769 8.49997 10.5C8.49997 11.0523 8.05226 11.5 7.49997 11.5C6.94769 11.5 6.49997 11.0523 6.49997 10.5C6.49997 9.94769 6.94769 9.49997 7.49997 9.49997ZM6.79286 1.20708L1.20708 6.79287C0.816553 7.18339 0.816554 7.81655 1.20708 8.20708L6.79287 13.7929C7.18339 14.1834 7.81655 14.1834 8.20708 13.7929L13.7929 8.20708C14.1834 7.81655 14.1834 7.18339 13.7929 6.79286L8.20708 1.20708C7.81655 0.816553 7.18339 0.816554 6.79286 1.20708ZM10.5 8.49997C9.94769 8.49997 9.49997 8.05226 9.49997 7.49997C9.49997 6.94769 9.94769 6.49997 10.5 6.49997C11.0523 6.49997 11.5 6.94769 11.5 7.49997C11.5 8.05226 11.0523 8.49997 10.5 8.49997Z" stroke="#EBEBED"/>
</svg>
