<svg width="15" height="15" viewBox="0 0 15 15" fill="none" xmlns="http://www.w3.org/2000/svg">
<path d="M7.27551 8.6225L4.35714 2.78577L2 3.57148L3.57143 9.85719L7.27551 8.6225ZM7.27551 8.6225L9.07143 12.2143L13 9.85719L11.35 7.26434M7.27551 8.6225L11.35 7.26434M11.35 7.26434L10.25 5.53577L11.8214 5.14291L13 6.71434L11.35 7.26434ZM2.5 0.5H12.5C13.6046 0.5 14.5 1.39543 14.5 2.5V12.5C14.5 13.6046 13.6046 14.5 12.5 14.5H2.5C1.39543 14.5 0.5 13.6046 0.5 12.5V2.5C0.5 1.39543 1.39543 0.5 2.5 0.5Z" stroke="#EBEBED" stroke-linejoin="round"/>
</svg>
