<svg width="15" height="15" viewBox="0 0 15 15" fill="none" xmlns="http://www.w3.org/2000/svg">
<path d="M7.5 6.5V7.5M7.5 6.5C7.5 5.39543 6.60457 4.5 5.5 4.5C4.39543 4.5 3.5 5.39543 3.5 6.5V7.5C3.5 8.60457 4.39543 9.5 5.5 9.5C6.60457 9.5 7.5 8.60457 7.5 7.5M7.5 6.5C7.5 5.39543 8.39543 4.5 9.5 4.5C10.6046 4.5 11.5 5.39543 11.5 6.5V7.5C11.5 8.60457 10.6046 9.5 9.5 9.5C8.39543 9.5 7.5 8.60457 7.5 7.5M5.5 7V8M9.5 7V8M0.5 14.5L1.15638 13.8436C1.3764 13.6236 1.5 13.3252 1.5 13.014V6.5C1.5 3.18629 4.18629 0.5 7.5 0.5C10.8137 0.5 13.5 3.18629 13.5 6.5V13.014C13.5 13.3252 13.6236 13.6236 13.8436 13.8436L14.5 14.5H0.5ZM3.5 10.5L4.36951 10.0652C6.3402 9.0799 8.6598 9.0799 10.6305 10.0652L11.5 10.5L10.9142 11.0858C10.0087 11.9913 8.78058 12.5 7.5 12.5C6.21942 12.5 4.99129 11.9913 4.08579 11.0858L3.5 10.5Z" stroke="#EBEBED" stroke-linejoin="round"/>
</svg>
