<svg width="15" height="15" viewBox="0 0 15 15" fill="none" xmlns="http://www.w3.org/2000/svg">
<path d="M11.5 2.5C13.1569 2.50001 14.5 3.84315 14.5 5.5V11.5C14.5 13.1569 13.1569 14.5 11.5 14.5H8.5L8.5 2.5L11.5 2.5Z" stroke="#EBEBED" stroke-linejoin="round"/>
<path d="M6.5 0.500002L6.5 12.5H3.5C1.84315 12.5 0.5 11.1569 0.5 9.5L0.5 3.5C0.5 1.84315 1.84315 0.499999 3.5 0.5L6.5 0.500002Z" stroke="#EBEBED" stroke-linejoin="round"/>
<path d="M11.5 9.5C12.0523 9.5 12.5 9.94772 12.5 10.5C12.5 11.0523 12.0523 11.5 11.5 11.5C10.9477 11.5 10.5 11.0523 10.5 10.5C10.5 9.94772 10.9477 9.5 11.5 9.5Z" stroke="#EBEBED" stroke-linejoin="round"/>
<path d="M2.5 4.5C2.5 5.05229 2.94771 5.5 3.5 5.5C4.05228 5.5 4.5 5.05229 4.5 4.5C4.5 3.94772 4.05228 3.5 3.5 3.5C2.94771 3.5 2.5 3.94772 2.5 4.5Z" stroke="#EBEBED" stroke-linejoin="round"/>
</svg>
