<svg width="15" height="15" viewBox="0 0 15 15" fill="none" xmlns="http://www.w3.org/2000/svg">
<path d="M6.5 7V2.5C6.5 1.39543 5.60457 0.5 4.5 0.5C3.39543 0.5 2.5 1.39543 2.5 2.5V6.5M1.5 9.5H11.5M6.08579 2.91421L1.91422 7.08579C1.13317 7.86684 1.13317 9.13316 1.91422 9.91421L5.08579 13.0858C5.86684 13.8668 7.13317 13.8668 7.91422 13.0858L12.0858 8.91421C12.8668 8.13316 12.8668 6.86684 12.0858 6.08579L8.91422 2.91421C8.13317 2.13317 6.86684 2.13317 6.08579 2.91421ZM12.6808 10.5L13.8615 11.6808C14.5653 12.3845 14.5011 13.3783 13.7239 14C13.1141 14.4879 12.2475 14.4879 11.6376 14C10.8605 13.3783 10.7963 12.3845 11.5 11.6808L12.6808 10.5Z" stroke="#EBEBED"/>
</svg>
