<svg width="15" height="15" viewBox="0 0 15 15" fill="none" xmlns="http://www.w3.org/2000/svg">
<path d="M7.5 11.5V10.2543C7.5 9.80782 7.79598 9.41544 8.22528 9.29278L13.0494 7.91444C13.908 7.66913 14.5 6.88436 14.5 5.9914V4.5C14.5 3.39543 13.6046 2.5 12.5 2.5M1.5 0.5H11.5C12.0523 0.5 12.5 0.947715 12.5 1.5V3.5C12.5 4.05228 12.0523 4.5 11.5 4.5H1.5C0.947715 4.5 0.5 4.05228 0.5 3.5V1.5C0.5 0.947715 0.947715 0.5 1.5 0.5ZM5.5 11.5H9.5V14.5H5.5V11.5Z" stroke="#EBEBED" stroke-linejoin="round"/>
</svg>
