<svg width="15" height="15" viewBox="0 0 15 15" fill="none" xmlns="http://www.w3.org/2000/svg">
<path d="M2 13.5L7.35983 2.78035C7.94866 1.60268 9.16324 0.897192 10.4462 0.936485C10.5129 0.938528 10.5087 1 10.442 1V1C9.85347 1 9.30393 1.29411 8.9775 1.78376C8.67622 2.23567 8.60046 2.80138 8.77221 3.31664L9.22941 4.68824C9.39674 5.19021 9.8202 5.56404 10.339 5.66781C11.0791 5.81583 11.703 5.1091 11.4644 4.39308L11 3M4.5 14.5L4.76542 14.0576C6.58484 11.0253 8.67132 8.16135 11 5.5M1.5 0.5V12.5C1.5 13.6046 2.39543 14.5 3.5 14.5H13.5L11.0119 9.02628C12.4872 8.28766 13.5 6.76211 13.5 5C13.5 2.51472 11.4853 0.5 9 0.5H1.5Z" stroke="#EBEBED" stroke-linejoin="round"/>
</svg>
