<svg width="15" height="15" viewBox="0 0 15 15" fill="none" xmlns="http://www.w3.org/2000/svg">
<path d="M3.5 5.50002L3.07817 5.23159L3 5.35442V5.50002H3.5ZM6.19761 1.26093L6.61944 1.52937L6.19761 1.26093ZM8.86455 2.77093L8.41734 2.54732V2.54732L8.86455 2.77093ZM7.5 5.50002L7.05279 5.27642C6.97529 5.43141 6.98357 5.61548 7.07467 5.76289C7.16578 5.9103 7.32671 6.00002 7.5 6.00002V5.50002ZM14.5 10.5L14.9 10.8L15 10.6667V10.5H14.5ZM12.1 13.7L12.5 14L12.1 13.7ZM8.28158 0.768971L8.53883 0.340225L8.53883 0.340225L8.28158 0.768971ZM0 5.00002V15H1V5.00002H0ZM3.92183 5.76846L6.61944 1.52937L5.77577 0.992493L3.07817 5.23159L3.92183 5.76846ZM8.41734 2.54732L7.05279 5.27642L7.94721 5.72363L9.31176 2.99453L8.41734 2.54732ZM7.5 6.00002H12.5V5.00002H7.5V6.00002ZM14 7.50002V10.5H15V7.50002H14ZM14.1 10.2L11.7 13.4L12.5 14L14.9 10.8L14.1 10.2ZM10.5 14H5.5V15H10.5V14ZM4 12.5V5.50002H3V12.5H4ZM12.5 6.00002C13.3284 6.00002 14 6.6716 14 7.50002H15C15 6.11931 13.8807 5.00002 12.5 5.00002V6.00002ZM5.5 14C4.67157 14 4 13.3285 4 12.5H3C3 13.8807 4.11929 15 5.5 15V14ZM8.02433 1.19772C8.48782 1.47581 8.65906 2.06387 8.41734 2.54732L9.31176 2.99453C9.78718 2.04371 9.45039 0.887161 8.53883 0.340225L8.02433 1.19772ZM11.7 13.4C11.4167 13.7777 10.9721 14 10.5 14V15C11.2869 15 12.0279 14.6295 12.5 14L11.7 13.4ZM6.61944 1.52937C6.92046 1.05634 7.54354 0.909245 8.02433 1.19772L8.53883 0.340225C7.59324 -0.227124 6.3678 0.0621647 5.77577 0.992493L6.61944 1.52937Z" fill="#EBEBED"/>
</svg>
