<svg width="15" height="15" viewBox="0 0 15 15" fill="none" xmlns="http://www.w3.org/2000/svg">
<path d="M3 6.5V7H4V6.5H3ZM11 6.5V7H12V6.5H11ZM3.5 3.50008H3H3.5ZM1.5 8.5V8H1V8.5H1.5ZM13.5 8.5H14V8H13.5V8.5ZM6.5 1H8.5V0H6.5V1ZM4 6.5C4 6.06151 4 4.84026 4 3.50008H3C3 4.84026 3 6.06151 3 6.5H4ZM11 3.50008C11 3.5027 11 3.50532 11 3.50793C11 3.51055 11 3.51317 11 3.51578C11 3.5184 11 3.52101 11 3.52363C11 3.52624 11 3.52886 11 3.53147C11 3.53409 11 3.5367 11 3.53931C11 3.54192 11 3.54454 11 3.54715C11 3.54976 11 3.55237 11 3.55498C11 3.55759 11 3.5602 11 3.56281C11 3.56542 11 3.56803 11 3.57064C11 3.57325 11 3.57586 11 3.57847C11 3.58108 11 3.58368 11 3.58629C11 3.5889 11 3.5915 11 3.59411C11 3.59672 11 3.59932 11 3.60193C11 3.60453 11 3.60714 11 3.60974C11 3.61234 11 3.61495 11 3.61755C11 3.62015 11 3.62276 11 3.62536C11 3.62796 11 3.63056 11 3.63316C11 3.63576 11 3.63836 11 3.64096C11 3.64356 11 3.64616 11 3.64876C11 3.65136 11 3.65395 11 3.65655C11 3.65915 11 3.66175 11 3.66434C11 3.66694 11 3.66953 11 3.67213C11 3.67473 11 3.67732 11 3.67991C11 3.68251 11 3.6851 11 3.68769C11 3.69029 11 3.69288 11 3.69547C11 3.69806 11 3.70065 11 3.70324C11 3.70584 11 3.70843 11 3.71101C11 3.7136 11 3.71619 11 3.71878C11 3.72137 11 3.72396 11 3.72654C11 3.72913 11 3.73172 11 3.7343C11 3.73689 11 3.73947 11 3.74206C11 3.74464 11 3.74723 11 3.74981C11 3.7524 11 3.75498 11 3.75756C11 3.76014 11 3.76272 11 3.76531C11 3.76789 11 3.77047 11 3.77305C11 3.77563 11 3.7782 11 3.78078C11 3.78336 11 3.78594 11 3.78852C11 3.79109 11 3.79367 11 3.79625C11 3.79882 11 3.8014 11 3.80397C11 3.80655 11 3.80912 11 3.81169C11 3.81427 11 3.81684 11 3.81941C11 3.82198 11 3.82456 11 3.82713C11 3.8297 11 3.83227 11 3.83484C11 3.83741 11 3.83997 11 3.84254C11 3.84511 11 3.84768 11 3.85024C11 3.85281 11 3.85538 11 3.85794C11 3.86051 11 3.86307 11 3.86564C11 3.8682 11 3.87076 11 3.87333C11 3.87589 11 3.87845 11 3.88101C11 3.88357 11 3.88613 11 3.88869C11 3.89125 11 3.89381 11 3.89637C11 3.89893 11 3.90149 11 3.90404C11 3.9066 11 3.90916 11 3.91171C11 3.91427 11 3.91682 11 3.91938C11 3.92193 11 3.92448 11 3.92704C11 3.92959 11 3.93214 11 3.93469C11 3.93724 11 3.9398 11 3.94235C11 3.94489 11 3.94744 11 3.94999C11 3.95254 11 3.95509 11 3.95763C11 3.96018 11 3.96273 11 3.96527C11 3.96782 11 3.97036 11 3.97291C11 3.97545 11 3.97799 11 3.98054C11 3.98308 11 3.98562 11 3.98816C11 3.9907 11 3.99324 11 3.99578C11 3.99832 11 4.00086 11 4.0034C11 4.00593 11 4.00847 11 4.01101C11 4.01354 11 4.01608 11 4.01861C11 4.02115 11 4.02368 11 4.02621C11 4.02875 11 4.03128 11 4.03381C11 4.03634 11 4.03887 11 4.0414C11 4.04393 11 4.04646 11 4.04899C11 4.05152 11 4.05404 11 4.05657C11 4.0591 11 4.06162 11 4.06415C11 4.06667 11 4.0692 11 4.07172C11 4.07424 11 4.07677 11 4.07929C11 4.08181 11 4.08433 11 4.08685C11 4.08937 11 4.09189 11 4.09441C11 4.09693 11 4.09944 11 4.10196C11 4.10448 11 4.10699 11 4.10951C11 4.11202 11 4.11454 11 4.11705C11 4.11956 11 4.12208 11 4.12459C11 4.1271 11 4.12961 11 4.13212C11 4.13463 11 4.13714 11 4.13965C11 4.14215 11 4.14466 11 4.14717C11 4.14968 11 4.15218 11 4.15469C11 4.15719 11 4.15969 11 4.1622C11 4.1647 11 4.1672 11 4.1697C11 4.1722 11 4.1747 11 4.1772C11 4.1797 11 4.1822 11 4.1847C11 4.1872 11 4.18969 11 4.19219C11 4.19469 11 4.19718 11 4.19967C11 4.20217 11 4.20466 11 4.20715C11 4.20965 11 4.21214 11 4.21463C11 4.21712 11 4.21961 11 4.2221C11 4.22458 11 4.22707 11 4.22956C11 4.23205 11 4.23453 11 4.23702C11 4.2395 11 4.24198 11 4.24447C11 4.24695 11 4.24943 11 4.25191C11 4.2544 11 4.25688 11 4.25935C11 4.26183 11 4.26431 11 4.26679C11 4.26927 11 4.27174 11 4.27422C11 4.27669 11 4.27917 11 4.28164C11 4.28412 11 4.28659 11 4.28906C11 4.29153 11 4.294 11 4.29647C11 4.29894 11 4.30141 11 4.30388C11 4.30635 11 4.30881 11 4.31128C11 4.31374 11 4.31621 11 4.31867C11 4.32114 11 4.3236 11 4.32606C11 4.32852 11 4.33098 11 4.33344C11 4.3359 11 4.33836 11 4.34082C11 4.34328 11 4.34573 11 4.34819C11 4.35065 11 4.3531 11 4.35556C11 4.35801 11 4.36046 11 4.36291C11 4.36537 11 4.36782 11 4.37027C11 4.37272 11 4.37517 11 4.37761C11 4.38006 11 4.38251 11 4.38495C11 4.3874 11 4.38984 11 4.39229C11 4.39473 11 4.39717 11 4.39962C11 4.40206 11 4.4045 11 4.40694C11 4.40938 11 4.41181 11 4.41425C11 4.41669 11 4.41913 11 4.42156C11 4.424 11 4.42643 11 4.42886C11 4.4313 11 4.43373 11 4.43616C11 4.43859 11 4.44102 11 4.44345C11 4.44588 11 4.44831 11 4.45073C11 4.45316 11 4.45559 11 4.45801C11 4.46044 11 4.46286 11 4.46528C11 4.46771 11 4.47013 11 4.47255C11 4.47497 11 4.47739 11 4.4798C11 4.48222 11 4.48464 11 4.48706C11 4.48947 11 4.49189 11 4.4943C11 4.49671 11 4.49913 11 4.50154C11 4.50395 11 4.50636 11 4.50877C11 4.51118 11 4.51359 11 4.516C11 4.5184 11 4.52081 11 4.52321C11 4.52562 11 4.52802 11 4.53042C11 4.53283 11 4.53523 11 4.53763C11 4.54003 11 4.54243 11 4.54483C11 4.54722 11 4.54962 11 4.55202C11 4.55441 11 4.55681 11 4.5592C11 4.5616 11 4.56399 11 4.56638C11 4.56877 11 4.57116 11 4.57355C11 4.57594 11 4.57833 11 4.58071C11 4.5831 11 4.58549 11 4.58787C11 4.59025 11 4.59264 11 4.59502C11 4.5974 11 4.59978 11 4.60216C11 4.60454 11 4.60692 11 4.6093C11 4.61167 11 4.61405 11 4.61643C11 4.6188 11 4.62117 11 4.62355C11 4.62592 11 4.62829 11 4.63066C11 4.63303 11 4.6354 11 4.63777C11 4.64013 11 4.6425 11 4.64487C11 4.64723 11 4.6496 11 4.65196C11 4.65432 11 4.65668 11 4.65904C11 4.66141 11 4.66376 11 4.66612C11 4.66848 11 4.67084 11 4.67319C11 4.67555 11 4.6779 11 4.68026C11 4.68261 11 4.68496 11 4.68731C11 4.68966 11 4.69201 11 4.69436C11 4.69671 11 4.69906 11 4.7014C11 4.70375 11 4.70609 11 4.70843C11 4.71078 11 4.71312 11 4.71546C11 4.7178 11 4.72014 11 4.72248C11 4.72482 11 4.72715 11 4.72949C11 4.73183 11 4.73416 11 4.73649C11 4.73883 11 4.74116 11 4.74349C11 4.74582 11 4.74815 11 4.75048C11 4.75281 11 4.75513 11 4.75746C11 4.75978 11 4.76211 11 4.76443C11 4.76675 11 4.76907 11 4.7714C11 4.77372 11 4.77603 11 4.77835C11 4.78067 11 4.78299 11 4.7853C11 4.78762 11 4.78993 11 4.79224C11 4.79456 11 4.79687 11 4.79918C11 4.80149 11 4.8038 11 4.8061C11 4.80841 11 4.81072 11 4.81302C11 4.81533 11 4.81763 11 4.81993C11 4.82223 11 4.82453 11 4.82683C11 4.82913 11 4.83143 11 4.83373C11 4.83602 11 4.83832 11 4.84061C11 4.84291 11 4.8452 11 4.84749C11 4.84978 11 4.85207 11 4.85436C11 4.85665 11 4.85894 11 4.86122C11 4.86351 11 4.86579 11 4.86807C11 4.87036 11 4.87264 11 4.87492C11 4.8772 11 4.87948 11 4.88176C11 4.88404 11 4.88631 11 4.88859C11 4.89086 11 4.89313 11 4.89541C11 4.89768 11 4.89995 11 4.90222C11 4.90449 11 4.90676 11 4.90902C11 4.91129 11 4.91355 11 4.91582C11 4.91808 11 4.92034 11 4.92261C11 4.92487 11 4.92713 11 4.92938C11 4.93164 11 4.9339 11 4.93615C11 4.93841 11 4.94066 11 4.94292C11 4.94517 11 4.94742 11 4.94967C11 4.95192 11 4.95417 11 4.95641C11 4.95866 11 4.96091 11 4.96315C11 4.96539 11 4.96764 11 4.96988C11 4.97212 11 4.97436 11 4.9766C11 4.97884 11 4.98107 11 4.98331C11 4.98554 11 4.98778 11 4.99001C11 4.99224 11 4.99447 11 4.9967C11 4.99893 11 5.00116 11 5.00339C11 5.00561 11 5.00784 11 5.01006C11 5.01229 11 5.01451 11 5.01673C11 5.01895 11 5.02117 11 5.02339C11 5.0256 11 5.02782 11 5.03004C11 5.03225 11 5.03446 11 5.03668C11 5.03889 11 5.0411 11 5.04331C11 5.04552 11 5.04772 11 5.04993C11 5.05213 11 5.05434 11 5.05654C11 5.05874 11 5.06095 11 5.06315C11 5.06535 11 5.06754 11 5.06974C11 5.07194 11 5.07413 11 5.07633C11 5.07852 11 5.08071 11 5.0829C11 5.08509 11 5.08728 11 5.08947C11 5.09166 11 5.09385 11 5.09603C11 5.09822 11 5.1004 11 5.10258C11 5.10476 11 5.10694 11 5.10912C11 5.1113 11 5.11348 11 5.11565C11 5.11783 11 5.12 11 5.12217C11 5.12435 11 5.12652 11 5.12869C11 5.13085 11 5.13302 11 5.13519C11 5.13735 11 5.13952 11 5.14168C11 5.14385 11 5.14601 11 5.14817C11 5.15033 11 5.15248 11 5.15464C11 5.1568 11 5.15895 11 5.16111C11 5.16326 11 5.16541 11 5.16756C11 5.16971 11 5.17186 11 5.17401C11 5.17616 11 5.1783 11 5.18045C11 5.18259 11 5.18473 11 5.18687C11 5.18901 11 5.19115 11 5.19329C11 5.19543 11 5.19756 11 5.1997C11 5.20183 11 5.20397 11 5.2061C11 5.20823 11 5.21036 11 5.21249C11 5.21461 11 5.21674 11 5.21886C11 5.22099 11 5.22311 11 5.22523C11 5.22736 11 5.22948 11 5.23159C11 5.23371 11 5.23583 11 5.23794C11 5.24006 11 5.24217 11 5.24428C11 5.24639 11 5.2485 11 5.25061C11 5.25272 11 5.25483 11 5.25693C11 5.25904 11 5.26114 11 5.26324C11 5.26534 11 5.26744 11 5.26954C11 5.27164 11 5.27374 11 5.27583C11 5.27793 11 5.28002 11 5.28211C11 5.2842 11 5.28629 11 5.28838C11 5.29047 11 5.29256 11 5.29464C11 5.29673 11 5.29881 11 5.30089C11 5.30297 11 5.30505 11 5.30713C11 5.30921 11 5.31129 11 5.31336C11 5.31544 11 5.31751 11 5.31958C11 5.32165 11 5.32372 11 5.32579C11 5.32786 11 5.32992 11 5.33199C11 5.33405 11 5.33612 11 5.33818C11 5.34024 11 5.3423 11 5.34435C11 5.34641 11 5.34847 11 5.35052C11 5.35258 11 5.35463 11 5.35668C11 5.35873 11 5.36078 11 5.36283C11 5.36487 11 5.36692 11 5.36896C11 5.37101 11 5.37305 11 5.37509C11 5.37713 11 5.37917 11 5.38121C11 5.38324 11 5.38528 11 5.38731C11 5.38934 11 5.39138 11 5.39341C11 5.39543 11 5.39746 11 5.39949C11 5.40152 11 5.40354 11 5.40556C11 5.40759 11 5.40961 11 5.41163C11 5.41364 11 5.41566 11 5.41768C11 5.41969 11 5.42171 11 5.42372C11 5.42573 11 5.42774 11 5.42975C11 5.43176 11 5.43376 11 5.43577C11 5.43777 11 5.43978 11 5.44178C11 5.44378 11 5.44578 11 5.44778C11 5.44977 11 5.45177 11 5.45376C11 5.45576 11 5.45775 11 5.45974C11 5.46173 11 5.46372 11 5.46571C11 5.46769 11 5.46968 11 5.47166C11 5.47364 11 5.47562 11 5.4776C11 5.47958 11 5.48156 11 5.48354C11 5.48551 11 5.48749 11 5.48946C11 5.49143 11 5.4934 11 5.49537C11 5.49734 11 5.4993 11 5.50127C11 5.50323 11 5.5052 11 5.50716C11 5.50912 11 5.51108 11 5.51303C11 5.51499 11 5.51695 11 5.5189C11 5.52085 11 5.5228 11 5.52475C11 5.5267 11 5.52865 11 5.5306C11 5.53254 11 5.53449 11 5.53643C11 5.53837 11 5.54031 11 5.54225C11 5.54419 11 5.54613 11 5.54806C11 5.55 11 5.55193 11 5.55386C11 5.55579 11 5.55772 11 5.55965C11 5.56157 11 5.5635 11 5.56542C11 5.56735 11 5.56927 11 5.57119C11 5.57311 11 5.57502 11 5.57694C11 5.57885 11 5.58077 11 5.58268C11 5.58459 11 5.5865 11 5.58841C11 5.59032 11 5.59222 11 5.59413C11 5.59603 11 5.59793 11 5.59983C11 5.60173 11 5.60363 11 5.60553C11 5.60742 11 5.60932 11 5.61121C11 5.6131 11 5.61499 11 5.61688C11 5.61877 11 5.62066 11 5.62254C11 5.62443 11 5.62631 11 5.62819C11 5.63007 11 5.63195 11 5.63383C11 5.6357 11 5.63758 11 5.63945C11 5.64132 11 5.64319 11 5.64506C11 5.64693 11 5.6488 11 5.65066C11 5.65253 11 5.65439 11 5.65625C11 5.65811 11 5.65997 11 5.66183C11 5.66369 11 5.66554 11 5.6674C11 5.66925 11 5.6711 11 5.67295C11 5.6748 11 5.67664 11 5.67849C11 5.68033 11 5.68218 11 5.68402C11 5.68586 11 5.6877 11 5.68953C11 5.69137 11 5.69321 11 5.69504C11 5.69687 11 5.6987 11 5.70053C11 5.70236 11 5.70419 11 5.70601C11 5.70784 11 5.70966 11 5.71148C11 5.7133 11 5.71512 11 5.71694C11 5.71875 11 5.72057 11 5.72238C11 5.72419 11 5.726 11 5.72781C11 5.72962 11 5.73143 11 5.73323C11 5.73504 11 5.73684 11 5.73864C11 5.74044 11 5.74224 11 5.74403C11 5.74583 11 5.74762 11 5.74941C11 5.75121 11 5.753 11 5.75478C11 5.75657 11 5.75836 11 5.76014C11 5.76193 11 5.76371 11 5.76549C11 5.76727 11 5.76904 11 5.77082C11 5.77259 11 5.77437 11 5.77614C11 5.77791 11 5.77968 11 5.78145C11 5.78321 11 5.78498 11 5.78674C11 5.7885 11 5.79026 11 5.79202C11 5.79378 11 5.79554 11 5.79729C11 5.79905 11 5.8008 11 5.80255C11 5.8043 11 5.80605 11 5.80779C11 5.80954 11 5.81128 11 5.81302C11 5.81476 11 5.8165 11 5.81824C11 5.81998 11 5.82171 11 5.82345C11 5.82518 11 5.82691 11 5.82864C11 5.83037 11 5.83209 11 5.83382C11 5.83554 11 5.83727 11 5.83898C11 5.84071 11 5.84242 11 5.84414C11 5.84585 11 5.84757 11 5.84928C11 5.85099 11 5.8527 11 5.85441C11 5.85611 11 5.85782 11 5.85952C11 5.86123 11 5.86293 11 5.86462C11 5.86632 11 5.86802 11 5.86971C11 5.87141 11 5.8731 11 5.87479C11 5.87648 11 5.87817 11 5.87985C11 5.88154 11 5.88322 11 5.8849C11 5.88658 11 5.88826 11 5.88994C11 5.89161 11 5.89329 11 5.89496C11 5.89663 11 5.8983 11 5.89997C11 5.90164 11 5.9033 11 5.90497C11 5.90663 11 5.90829 11 5.90995C11 5.91161 11 5.91326 11 5.91492C11 5.91657 11 5.91823 11 5.91988C11 5.92153 11 5.92317 11 5.92482C11 5.92646 11 5.92811 11 5.92975C11 5.93139 11 5.93303 11 5.93466C11 5.9363 11 5.93793 11 5.93957C11 5.9412 11 5.94283 11 5.94446C11 5.94608 11 5.94771 11 5.94933C11 5.95095 11 5.95257 11 5.95419C11 5.95581 11 5.95743 11 5.95904C11 5.96066 11 5.96227 11 5.96388C11 5.96549 11 5.96709 11 5.9687C11 5.9703 11 5.9719 11 5.9735C11 5.9751 11 5.9767 11 5.9783C11 5.97989 11 5.98149 11 5.98308C11 5.98467 11 5.98626 11 5.98784C11 5.98943 11 5.99101 11 5.9926C11 5.99418 11 5.99576 11 5.99733C11 5.99891 11 6.00049 11 6.00206C11 6.00363 11 6.0052 11 6.00677C11 6.00834 11 6.0099 11 6.01147C11 6.01303 11 6.01459 11 6.01615C11 6.01771 11 6.01926 11 6.02082C11 6.02237 11 6.02392 11 6.02547C11 6.02702 11 6.02857 11 6.03011C11 6.03166 11 6.0332 11 6.03474C11 6.03628 11 6.03782 11 6.03935C11 6.04089 11 6.04242 11 6.04395C11 6.04548 11 6.04701 11 6.04853C11 6.05006 11 6.05158 11 6.0531C11 6.05462 11 6.05614 11 6.05766C11 6.05918 11 6.06069 11 6.0622C11 6.06371 11 6.06522 11 6.06673C11 6.06823 11 6.06974 11 6.07124C11 6.07274 11 6.07424 11 6.07574C11 6.07724 11 6.07873 11 6.08022C11 6.08171 11 6.0832 11 6.08469C11 6.08618 11 6.08766 11 6.08915C11 6.09063 11 6.09211 11 6.09359C11 6.09507 11 6.09654 11 6.09801C11 6.09949 11 6.10096 11 6.10243C11 6.10389 11 6.10536 11 6.10682C11 6.10828 11 6.10975 11 6.1112C11 6.11266 11 6.11412 11 6.11557C11 6.11703 11 6.11848 11 6.11993C11 6.12137 11 6.12282 11 6.12426C11 6.12571 11 6.12715 11 6.12859C11 6.13003 11 6.13146 11 6.1329C11 6.13433 11 6.13576 11 6.13719C11 6.13862 11 6.14005 11 6.14147C11 6.14289 11 6.14432 11 6.14573C11 6.14715 11 6.14857 11 6.14998C11 6.1514 11 6.15281 11 6.15422C11 6.15563 11 6.15704 11 6.15844C11 6.15984 11 6.16125 11 6.16264C11 6.16404 11 6.16544 11 6.16683C11 6.16823 11 6.16962 11 6.17101C11 6.1724 11 6.17379 11 6.17517C11 6.17655 11 6.17794 11 6.17931C11 6.18069 11 6.18207 11 6.18344C11 6.18482 11 6.18619 11 6.18756C11 6.18893 11 6.19029 11 6.19166C11 6.19302 11 6.19438 11 6.19574C11 6.1971 11 6.19846 11 6.19981C11 6.20117 11 6.20252 11 6.20387C11 6.20521 11 6.20656 11 6.2079C11 6.20925 11 6.21059 11 6.21193C11 6.21327 11 6.2146 11 6.21594C11 6.21727 11 6.2186 11 6.21993C11 6.22126 11 6.22258 11 6.22391C11 6.22523 11 6.22655 11 6.22787C11 6.22919 11 6.2305 11 6.23181C11 6.23313 11 6.23444 11 6.23574C11 6.23705 11 6.23836 11 6.23966C11 6.24096 11 6.24226 11 6.24356C11 6.24486 11 6.24615 11 6.24744C11 6.24874 11 6.25003 11 6.25131C11 6.2526 11 6.25388 11 6.25517C11 6.25645 11 6.25773 11 6.259C11 6.26028 11 6.26155 11 6.26282C11 6.2641 11 6.26536 11 6.26663C11 6.2679 11 6.26916 11 6.27042C11 6.27168 11 6.27294 11 6.2742C11 6.27545 11 6.2767 11 6.27795C11 6.2792 11 6.28045 11 6.2817C11 6.28294 11 6.28418 11 6.28542C11 6.28666 11 6.2879 11 6.28913C11 6.29037 11 6.2916 11 6.29283C11 6.29406 11 6.29528 11 6.29651C11 6.29773 11 6.29895 11 6.30017C11 6.30139 11 6.30261 11 6.30382C11 6.30503 11 6.30624 11 6.30745C11 6.30866 11 6.30986 11 6.31106C11 6.31227 11 6.31347 11 6.31466C11 6.31586 11 6.31705 11 6.31825C11 6.31944 11 6.32063 11 6.32181C11 6.323 11 6.32418 11 6.32536C11 6.32654 11 6.32772 11 6.3289C11 6.33007 11 6.33125 11 6.33242C11 6.33359 11 6.33475 11 6.33592C11 6.33708 11 6.33824 11 6.3394C11 6.34056 11 6.34172 11 6.34287C11 6.34402 11 6.34518 11 6.34632C11 6.34747 11 6.34862 11 6.34976C11 6.3509 11 6.35204 11 6.35318C11 6.35432 11 6.35545 11 6.35658C11 6.35771 11 6.35884 11 6.35997C11 6.3611 11 6.36222 11 6.36334C11 6.36446 11 6.36558 11 6.36669C11 6.36781 11 6.36892 11 6.37003C11 6.37114 11 6.37225 11 6.37335C11 6.37446 11 6.37556 11 6.37666C11 6.37775 11 6.37885 11 6.37994C11 6.38104 11 6.38213 11 6.38321C11 6.3843 11 6.38539 11 6.38647C11 6.38755 11 6.38863 11 6.3897C11 6.39078 11 6.39185 11 6.39292C11 6.39399 11 6.39506 11 6.39613C11 6.39719 11 6.39825 11 6.39931C11 6.40037 11 6.40143 11 6.40248C11 6.40354 11 6.40459 11 6.40564C11 6.40668 11 6.40773 11 6.40877C11 6.40981 11 6.41085 11 6.41189C11 6.41293 11 6.41396 11 6.41499C11 6.41602 11 6.41705 11 6.41808C11 6.4191 11 6.42013 11 6.42115C11 6.42217 11 6.42318 11 6.4242C11 6.42521 11 6.42622 11 6.42723C11 6.42824 11 6.42924 11 6.43025C11 6.43125 11 6.43225 11 6.43325C11 6.43424 11 6.43524 11 6.43623C11 6.43722 11 6.43821 11 6.43919C11 6.44018 11 6.44116 11 6.44214C11 6.44312 11 6.4441 11 6.44507C11 6.44604 11 6.44702 11 6.44798C11 6.44895 11 6.44992 11 6.45088C11 6.45184 11 6.4528 11 6.45376C11 6.45471 11 6.45567 11 6.45662C11 6.45757 11 6.45852 11 6.45946C11 6.46041 11 6.46135 11 6.46229C11 6.46323 11 6.46416 11 6.4651C11 6.46603 11 6.46696 11 6.46789C11 6.46881 11 6.46974 11 6.47066C11 6.47158 11 6.4725 11 6.47342C11 6.47433 11 6.47524 11 6.47615C11 6.47706 11 6.47797 11 6.47888C11 6.47978 11 6.48068 11 6.48158C11 6.48248 11 6.48337 11 6.48426C11 6.48516 11 6.48604 11 6.48693C11 6.48782 11 6.4887 11 6.48958C11 6.49046 11 6.49134 11 6.49221C11 6.49309 11 6.49396 11 6.49483C11 6.49569 11 6.49656 11 6.49742C11 6.49828 11 6.49914 11 6.5H12C12 6.49914 12 6.49828 12 6.49742C12 6.49656 12 6.49569 12 6.49483C12 6.49396 12 6.49309 12 6.49221C12 6.49134 12 6.49046 12 6.48958C12 6.4887 12 6.48782 12 6.48693C12 6.48604 12 6.48516 12 6.48426C12 6.48337 12 6.48248 12 6.48158C12 6.48068 12 6.47978 12 6.47888C12 6.47797 12 6.47706 12 6.47615C12 6.47524 12 6.47433 12 6.47342C12 6.4725 12 6.47158 12 6.47066C12 6.46974 12 6.46881 12 6.46789C12 6.46696 12 6.46603 12 6.4651C12 6.46416 12 6.46323 12 6.46229C12 6.46135 12 6.46041 12 6.45946C12 6.45852 12 6.45757 12 6.45662C12 6.45567 12 6.45471 12 6.45376C12 6.4528 12 6.45184 12 6.45088C12 6.44992 12 6.44895 12 6.44798C12 6.44702 12 6.44604 12 6.44507C12 6.4441 12 6.44312 12 6.44214C12 6.44116 12 6.44018 12 6.43919C12 6.43821 12 6.43722 12 6.43623C12 6.43524 12 6.43424 12 6.43325C12 6.43225 12 6.43125 12 6.43025C12 6.42924 12 6.42824 12 6.42723C12 6.42622 12 6.42521 12 6.4242C12 6.42318 12 6.42217 12 6.42115C12 6.42013 12 6.4191 12 6.41808C12 6.41705 12 6.41602 12 6.41499C12 6.41396 12 6.41293 12 6.41189C12 6.41085 12 6.40981 12 6.40877C12 6.40773 12 6.40668 12 6.40564C12 6.40459 12 6.40354 12 6.40248C12 6.40143 12 6.40037 12 6.39931C12 6.39825 12 6.39719 12 6.39613C12 6.39506 12 6.39399 12 6.39292C12 6.39185 12 6.39078 12 6.3897C12 6.38863 12 6.38755 12 6.38647C12 6.38539 12 6.3843 12 6.38321C12 6.38213 12 6.38104 12 6.37994C12 6.37885 12 6.37775 12 6.37666C12 6.37556 12 6.37446 12 6.37335C12 6.37225 12 6.37114 12 6.37003C12 6.36892 12 6.36781 12 6.36669C12 6.36558 12 6.36446 12 6.36334C12 6.36222 12 6.3611 12 6.35997C12 6.35884 12 6.35771 12 6.35658C12 6.35545 12 6.35432 12 6.35318C12 6.35204 12 6.3509 12 6.34976C12 6.34862 12 6.34747 12 6.34632C12 6.34518 12 6.34402 12 6.34287C12 6.34172 12 6.34056 12 6.3394C12 6.33824 12 6.33708 12 6.33592C12 6.33475 12 6.33359 12 6.33242C12 6.33125 12 6.33007 12 6.3289C12 6.32772 12 6.32654 12 6.32536C12 6.32418 12 6.323 12 6.32181C12 6.32063 12 6.31944 12 6.31825C12 6.31705 12 6.31586 12 6.31466C12 6.31347 12 6.31227 12 6.31106C12 6.30986 12 6.30866 12 6.30745C12 6.30624 12 6.30503 12 6.30382C12 6.30261 12 6.30139 12 6.30017C12 6.29895 12 6.29773 12 6.29651C12 6.29528 12 6.29406 12 6.29283C12 6.2916 12 6.29037 12 6.28913C12 6.2879 12 6.28666 12 6.28542C12 6.28418 12 6.28294 12 6.2817C12 6.28045 12 6.2792 12 6.27795C12 6.2767 12 6.27545 12 6.2742C12 6.27294 12 6.27168 12 6.27042C12 6.26916 12 6.2679 12 6.26663C12 6.26536 12 6.2641 12 6.26282C12 6.26155 12 6.26028 12 6.259C12 6.25773 12 6.25645 12 6.25517C12 6.25388 12 6.2526 12 6.25131C12 6.25003 12 6.24874 12 6.24744C12 6.24615 12 6.24486 12 6.24356C12 6.24226 12 6.24096 12 6.23966C12 6.23836 12 6.23705 12 6.23574C12 6.23444 12 6.23313 12 6.23181C12 6.2305 12 6.22919 12 6.22787C12 6.22655 12 6.22523 12 6.22391C12 6.22258 12 6.22126 12 6.21993C12 6.2186 12 6.21727 12 6.21594C12 6.2146 12 6.21327 12 6.21193C12 6.21059 12 6.20925 12 6.2079C12 6.20656 12 6.20521 12 6.20387C12 6.20252 12 6.20117 12 6.19981C12 6.19846 12 6.1971 12 6.19574C12 6.19438 12 6.19302 12 6.19166C12 6.19029 12 6.18893 12 6.18756C12 6.18619 12 6.18482 12 6.18344C12 6.18207 12 6.18069 12 6.17931C12 6.17794 12 6.17655 12 6.17517C12 6.17379 12 6.1724 12 6.17101C12 6.16962 12 6.16823 12 6.16683C12 6.16544 12 6.16404 12 6.16264C12 6.16125 12 6.15984 12 6.15844C12 6.15704 12 6.15563 12 6.15422C12 6.15281 12 6.1514 12 6.14998C12 6.14857 12 6.14715 12 6.14573C12 6.14432 12 6.14289 12 6.14147C12 6.14005 12 6.13862 12 6.13719C12 6.13576 12 6.13433 12 6.1329C12 6.13146 12 6.13003 12 6.12859C12 6.12715 12 6.12571 12 6.12426C12 6.12282 12 6.12137 12 6.11993C12 6.11848 12 6.11703 12 6.11557C12 6.11412 12 6.11266 12 6.1112C12 6.10975 12 6.10828 12 6.10682C12 6.10536 12 6.10389 12 6.10243C12 6.10096 12 6.09949 12 6.09801C12 6.09654 12 6.09507 12 6.09359C12 6.09211 12 6.09063 12 6.08915C12 6.08766 12 6.08618 12 6.08469C12 6.0832 12 6.08171 12 6.08022C12 6.07873 12 6.07724 12 6.07574C12 6.07424 12 6.07274 12 6.07124C12 6.06974 12 6.06823 12 6.06673C12 6.06522 12 6.06371 12 6.0622C12 6.06069 12 6.05918 12 6.05766C12 6.05614 12 6.05462 12 6.0531C12 6.05158 12 6.05006 12 6.04853C12 6.04701 12 6.04548 12 6.04395C12 6.04242 12 6.04089 12 6.03935C12 6.03782 12 6.03628 12 6.03474C12 6.0332 12 6.03166 12 6.03011C12 6.02857 12 6.02702 12 6.02547C12 6.02392 12 6.02237 12 6.02082C12 6.01926 12 6.01771 12 6.01615C12 6.01459 12 6.01303 12 6.01147C12 6.0099 12 6.00834 12 6.00677C12 6.0052 12 6.00363 12 6.00206C12 6.00049 12 5.99891 12 5.99733C12 5.99576 12 5.99418 12 5.9926C12 5.99101 12 5.98943 12 5.98784C12 5.98626 12 5.98467 12 5.98308C12 5.98149 12 5.97989 12 5.9783C12 5.9767 12 5.9751 12 5.9735C12 5.9719 12 5.9703 12 5.9687C12 5.96709 12 5.96549 12 5.96388C12 5.96227 12 5.96066 12 5.95904C12 5.95743 12 5.95581 12 5.95419C12 5.95257 12 5.95095 12 5.94933C12 5.94771 12 5.94608 12 5.94446C12 5.94283 12 5.9412 12 5.93957C12 5.93793 12 5.9363 12 5.93466C12 5.93303 12 5.93139 12 5.92975C12 5.92811 12 5.92646 12 5.92482C12 5.92317 12 5.92153 12 5.91988C12 5.91823 12 5.91657 12 5.91492C12 5.91326 12 5.91161 12 5.90995C12 5.90829 12 5.90663 12 5.90497C12 5.9033 12 5.90164 12 5.89997C12 5.8983 12 5.89663 12 5.89496C12 5.89329 12 5.89161 12 5.88994C12 5.88826 12 5.88658 12 5.8849C12 5.88322 12 5.88154 12 5.87985C12 5.87817 12 5.87648 12 5.87479C12 5.8731 12 5.87141 12 5.86971C12 5.86802 12 5.86632 12 5.86462C12 5.86293 12 5.86123 12 5.85952C12 5.85782 12 5.85611 12 5.85441C12 5.8527 12 5.85099 12 5.84928C12 5.84757 12 5.84585 12 5.84414C12 5.84242 12 5.84071 12 5.83898C12 5.83727 12 5.83554 12 5.83382C12 5.83209 12 5.83037 12 5.82864C12 5.82691 12 5.82518 12 5.82345C12 5.82171 12 5.81998 12 5.81824C12 5.8165 12 5.81476 12 5.81302C12 5.81128 12 5.80954 12 5.80779C12 5.80605 12 5.8043 12 5.80255C12 5.8008 12 5.79905 12 5.79729C12 5.79554 12 5.79378 12 5.79202C12 5.79026 12 5.7885 12 5.78674C12 5.78498 12 5.78321 12 5.78145C12 5.77968 12 5.77791 12 5.77614C12 5.77437 12 5.77259 12 5.77082C12 5.76904 12 5.76727 12 5.76549C12 5.76371 12 5.76193 12 5.76014C12 5.75836 12 5.75657 12 5.75478C12 5.753 12 5.75121 12 5.74941C12 5.74762 12 5.74583 12 5.74403C12 5.74224 12 5.74044 12 5.73864C12 5.73684 12 5.73504 12 5.73323C12 5.73143 12 5.72962 12 5.72781C12 5.726 12 5.72419 12 5.72238C12 5.72057 12 5.71875 12 5.71694C12 5.71512 12 5.7133 12 5.71148C12 5.70966 12 5.70784 12 5.70601C12 5.70419 12 5.70236 12 5.70053C12 5.6987 12 5.69687 12 5.69504C12 5.69321 12 5.69137 12 5.68953C12 5.6877 12 5.68586 12 5.68402C12 5.68218 12 5.68033 12 5.67849C12 5.67664 12 5.6748 12 5.67295C12 5.6711 12 5.66925 12 5.6674C12 5.66554 12 5.66369 12 5.66183C12 5.65997 12 5.65811 12 5.65625C12 5.65439 12 5.65253 12 5.65066C12 5.6488 12 5.64693 12 5.64506C12 5.64319 12 5.64132 12 5.63945C12 5.63758 12 5.6357 12 5.63383C12 5.63195 12 5.63007 12 5.62819C12 5.62631 12 5.62443 12 5.62254C12 5.62066 12 5.61877 12 5.61688C12 5.61499 12 5.6131 12 5.61121C12 5.60932 12 5.60742 12 5.60553C12 5.60363 12 5.60173 12 5.59983C12 5.59793 12 5.59603 12 5.59413C12 5.59222 12 5.59032 12 5.58841C12 5.5865 12 5.58459 12 5.58268C12 5.58077 12 5.57885 12 5.57694C12 5.57502 12 5.57311 12 5.57119C12 5.56927 12 5.56735 12 5.56542C12 5.5635 12 5.56157 12 5.55965C12 5.55772 12 5.55579 12 5.55386C12 5.55193 12 5.55 12 5.54806C12 5.54613 12 5.54419 12 5.54225C12 5.54031 12 5.53837 12 5.53643C12 5.53449 12 5.53254 12 5.5306C12 5.52865 12 5.5267 12 5.52475C12 5.5228 12 5.52085 12 5.5189C12 5.51695 12 5.51499 12 5.51303C12 5.51108 12 5.50912 12 5.50716C12 5.5052 12 5.50323 12 5.50127C12 5.4993 12 5.49734 12 5.49537C12 5.4934 12 5.49143 12 5.48946C12 5.48749 12 5.48551 12 5.48354C12 5.48156 12 5.47958 12 5.4776C12 5.47562 12 5.47364 12 5.47166C12 5.46968 12 5.46769 12 5.46571C12 5.46372 12 5.46173 12 5.45974C12 5.45775 12 5.45576 12 5.45376C12 5.45177 12 5.44977 12 5.44778C12 5.44578 12 5.44378 12 5.44178C12 5.43978 12 5.43777 12 5.43577C12 5.43376 12 5.43176 12 5.42975C12 5.42774 12 5.42573 12 5.42372C12 5.42171 12 5.41969 12 5.41768C12 5.41566 12 5.41364 12 5.41163C12 5.40961 12 5.40759 12 5.40556C12 5.40354 12 5.40152 12 5.39949C12 5.39746 12 5.39543 12 5.39341C12 5.39138 12 5.38934 12 5.38731C12 5.38528 12 5.38324 12 5.38121C12 5.37917 12 5.37713 12 5.37509C12 5.37305 12 5.37101 12 5.36896C12 5.36692 12 5.36487 12 5.36283C12 5.36078 12 5.35873 12 5.35668C12 5.35463 12 5.35258 12 5.35052C12 5.34847 12 5.34641 12 5.34435C12 5.3423 12 5.34024 12 5.33818C12 5.33612 12 5.33405 12 5.33199C12 5.32992 12 5.32786 12 5.32579C12 5.32372 12 5.32165 12 5.31958C12 5.31751 12 5.31544 12 5.31336C12 5.31129 12 5.30921 12 5.30713C12 5.30505 12 5.30297 12 5.30089C12 5.29881 12 5.29673 12 5.29464C12 5.29256 12 5.29047 12 5.28838C12 5.28629 12 5.2842 12 5.28211C12 5.28002 12 5.27793 12 5.27583C12 5.27374 12 5.27164 12 5.26954C12 5.26744 12 5.26534 12 5.26324C12 5.26114 12 5.25904 12 5.25693C12 5.25483 12 5.25272 12 5.25061C12 5.2485 12 5.24639 12 5.24428C12 5.24217 12 5.24006 12 5.23794C12 5.23583 12 5.23371 12 5.23159C12 5.22948 12 5.22736 12 5.22523C12 5.22311 12 5.22099 12 5.21886C12 5.21674 12 5.21461 12 5.21249C12 5.21036 12 5.20823 12 5.2061C12 5.20397 12 5.20183 12 5.1997C12 5.19756 12 5.19543 12 5.19329C12 5.19115 12 5.18901 12 5.18687C12 5.18473 12 5.18259 12 5.18045C12 5.1783 12 5.17616 12 5.17401C12 5.17186 12 5.16971 12 5.16756C12 5.16541 12 5.16326 12 5.16111C12 5.15895 12 5.1568 12 5.15464C12 5.15248 12 5.15033 12 5.14817C12 5.14601 12 5.14385 12 5.14168C12 5.13952 12 5.13735 12 5.13519C12 5.13302 12 5.13085 12 5.12869C12 5.12652 12 5.12435 12 5.12217C12 5.12 12 5.11783 12 5.11565C12 5.11348 12 5.1113 12 5.10912C12 5.10694 12 5.10476 12 5.10258C12 5.1004 12 5.09822 12 5.09603C12 5.09385 12 5.09166 12 5.08947C12 5.08728 12 5.08509 12 5.0829C12 5.08071 12 5.07852 12 5.07633C12 5.07413 12 5.07194 12 5.06974C12 5.06754 12 5.06535 12 5.06315C12 5.06095 12 5.05874 12 5.05654C12 5.05434 12 5.05213 12 5.04993C12 5.04772 12 5.04552 12 5.04331C12 5.0411 12 5.03889 12 5.03668C12 5.03446 12 5.03225 12 5.03004C12 5.02782 12 5.0256 12 5.02339C12 5.02117 12 5.01895 12 5.01673C12 5.01451 12 5.01229 12 5.01006C12 5.00784 12 5.00561 12 5.00339C12 5.00116 12 4.99893 12 4.9967C12 4.99447 12 4.99224 12 4.99001C12 4.98778 12 4.98554 12 4.98331C12 4.98107 12 4.97884 12 4.9766C12 4.97436 12 4.97212 12 4.96988C12 4.96764 12 4.96539 12 4.96315C12 4.96091 12 4.95866 12 4.95641C12 4.95417 12 4.95192 12 4.94967C12 4.94742 12 4.94517 12 4.94292C12 4.94066 12 4.93841 12 4.93615C12 4.9339 12 4.93164 12 4.92938C12 4.92713 12 4.92487 12 4.92261C12 4.92034 12 4.91808 12 4.91582C12 4.91355 12 4.91129 12 4.90902C12 4.90676 12 4.90449 12 4.90222C12 4.89995 12 4.89768 12 4.89541C12 4.89313 12 4.89086 12 4.88859C12 4.88631 12 4.88404 12 4.88176C12 4.87948 12 4.8772 12 4.87492C12 4.87264 12 4.87036 12 4.86807C12 4.86579 12 4.86351 12 4.86122C12 4.85894 12 4.85665 12 4.85436C12 4.85207 12 4.84978 12 4.84749C12 4.8452 12 4.84291 12 4.84061C12 4.83832 12 4.83602 12 4.83373C12 4.83143 12 4.82913 12 4.82683C12 4.82453 12 4.82223 12 4.81993C12 4.81763 12 4.81533 12 4.81302C12 4.81072 12 4.80841 12 4.8061C12 4.8038 12 4.80149 12 4.79918C12 4.79687 12 4.79456 12 4.79224C12 4.78993 12 4.78762 12 4.7853C12 4.78299 12 4.78067 12 4.77835C12 4.77603 12 4.77372 12 4.7714C12 4.76907 12 4.76675 12 4.76443C12 4.76211 12 4.75978 12 4.75746C12 4.75513 12 4.75281 12 4.75048C12 4.74815 12 4.74582 12 4.74349C12 4.74116 12 4.73883 12 4.73649C12 4.73416 12 4.73183 12 4.72949C12 4.72715 12 4.72482 12 4.72248C12 4.72014 12 4.7178 12 4.71546C12 4.71312 12 4.71078 12 4.70843C12 4.70609 12 4.70375 12 4.7014C12 4.69906 12 4.69671 12 4.69436C12 4.69201 12 4.68966 12 4.68731C12 4.68496 12 4.68261 12 4.68026C12 4.6779 12 4.67555 12 4.67319C12 4.67084 12 4.66848 12 4.66612C12 4.66376 12 4.66141 12 4.65904C12 4.65668 12 4.65432 12 4.65196C12 4.6496 12 4.64723 12 4.64487C12 4.6425 12 4.64013 12 4.63777C12 4.6354 12 4.63303 12 4.63066C12 4.62829 12 4.62592 12 4.62355C12 4.62117 12 4.6188 12 4.61643C12 4.61405 12 4.61167 12 4.6093C12 4.60692 12 4.60454 12 4.60216C12 4.59978 12 4.5974 12 4.59502C12 4.59264 12 4.59025 12 4.58787C12 4.58549 12 4.5831 12 4.58071C12 4.57833 12 4.57594 12 4.57355C12 4.57116 12 4.56877 12 4.56638C12 4.56399 12 4.5616 12 4.5592C12 4.55681 12 4.55441 12 4.55202C12 4.54962 12 4.54722 12 4.54483C12 4.54243 12 4.54003 12 4.53763C12 4.53523 12 4.53283 12 4.53042C12 4.52802 12 4.52562 12 4.52321C12 4.52081 12 4.5184 12 4.516C12 4.51359 12 4.51118 12 4.50877C12 4.50636 12 4.50395 12 4.50154C12 4.49913 12 4.49671 12 4.4943C12 4.49189 12 4.48947 12 4.48706C12 4.48464 12 4.48222 12 4.4798C12 4.47739 12 4.47497 12 4.47255C12 4.47013 12 4.46771 12 4.46528C12 4.46286 12 4.46044 12 4.45801C12 4.45559 12 4.45316 12 4.45073C12 4.44831 12 4.44588 12 4.44345C12 4.44102 12 4.43859 12 4.43616C12 4.43373 12 4.4313 12 4.42886C12 4.42643 12 4.424 12 4.42156C12 4.41913 12 4.41669 12 4.41425C12 4.41181 12 4.40938 12 4.40694C12 4.4045 12 4.40206 12 4.39962C12 4.39717 12 4.39473 12 4.39229C12 4.38984 12 4.3874 12 4.38495C12 4.38251 12 4.38006 12 4.37761C12 4.37517 12 4.37272 12 4.37027C12 4.36782 12 4.36537 12 4.36291C12 4.36046 12 4.35801 12 4.35556C12 4.3531 12 4.35065 12 4.34819C12 4.34573 12 4.34328 12 4.34082C12 4.33836 12 4.3359 12 4.33344C12 4.33098 12 4.32852 12 4.32606C12 4.3236 12 4.32114 12 4.31867C12 4.31621 12 4.31374 12 4.31128C12 4.30881 12 4.30635 12 4.30388C12 4.30141 12 4.29894 12 4.29647C12 4.294 12 4.29153 12 4.28906C12 4.28659 12 4.28412 12 4.28164C12 4.27917 12 4.27669 12 4.27422C12 4.27174 12 4.26927 12 4.26679C12 4.26431 12 4.26183 12 4.25935C12 4.25688 12 4.2544 12 4.25191C12 4.24943 12 4.24695 12 4.24447C12 4.24198 12 4.2395 12 4.23702C12 4.23453 12 4.23205 12 4.22956C12 4.22707 12 4.22458 12 4.2221C12 4.21961 12 4.21712 12 4.21463C12 4.21214 12 4.20965 12 4.20715C12 4.20466 12 4.20217 12 4.19967C12 4.19718 12 4.19469 12 4.19219C12 4.18969 12 4.1872 12 4.1847C12 4.1822 12 4.1797 12 4.1772C12 4.1747 12 4.1722 12 4.1697C12 4.1672 12 4.1647 12 4.1622C12 4.15969 12 4.15719 12 4.15469C12 4.15218 12 4.14968 12 4.14717C12 4.14466 12 4.14215 12 4.13965C12 4.13714 12 4.13463 12 4.13212C12 4.12961 12 4.1271 12 4.12459C12 4.12208 12 4.11956 12 4.11705C12 4.11454 12 4.11202 12 4.10951C12 4.10699 12 4.10448 12 4.10196C12 4.09944 12 4.09693 12 4.09441C12 4.09189 12 4.08937 12 4.08685C12 4.08433 12 4.08181 12 4.07929C12 4.07677 12 4.07424 12 4.07172C12 4.0692 12 4.06667 12 4.06415C12 4.06162 12 4.0591 12 4.05657C12 4.05404 12 4.05152 12 4.04899C12 4.04646 12 4.04393 12 4.0414C12 4.03887 12 4.03634 12 4.03381C12 4.03128 12 4.02875 12 4.02621C12 4.02368 12 4.02115 12 4.01861C12 4.01608 12 4.01354 12 4.01101C12 4.00847 12 4.00593 12 4.0034C12 4.00086 12 3.99832 12 3.99578C12 3.99324 12 3.9907 12 3.98816C12 3.98562 12 3.98308 12 3.98054C12 3.97799 12 3.97545 12 3.97291C12 3.97036 12 3.96782 12 3.96527C12 3.96273 12 3.96018 12 3.95763C12 3.95509 12 3.95254 12 3.94999C12 3.94744 12 3.94489 12 3.94235C12 3.9398 12 3.93724 12 3.93469C12 3.93214 12 3.92959 12 3.92704C12 3.92448 12 3.92193 12 3.91938C12 3.91682 12 3.91427 12 3.91171C12 3.90916 12 3.9066 12 3.90404C12 3.90149 12 3.89893 12 3.89637C12 3.89381 12 3.89125 12 3.88869C12 3.88613 12 3.88357 12 3.88101C12 3.87845 12 3.87589 12 3.87333C12 3.87076 12 3.8682 12 3.86564C12 3.86307 12 3.86051 12 3.85794C12 3.85538 12 3.85281 12 3.85024C12 3.84768 12 3.84511 12 3.84254C12 3.83997 12 3.83741 12 3.83484C12 3.83227 12 3.8297 12 3.82713C12 3.82456 12 3.82198 12 3.81941C12 3.81684 12 3.81427 12 3.81169C12 3.80912 12 3.80655 12 3.80397C12 3.8014 12 3.79882 12 3.79625C12 3.79367 12 3.79109 12 3.78852C12 3.78594 12 3.78336 12 3.78078C12 3.7782 12 3.77563 12 3.77305C12 3.77047 12 3.76789 12 3.76531C12 3.76272 12 3.76014 12 3.75756C12 3.75498 12 3.7524 12 3.74981C12 3.74723 12 3.74464 12 3.74206C12 3.73947 12 3.73689 12 3.7343C12 3.73172 12 3.72913 12 3.72654C12 3.72396 12 3.72137 12 3.71878C12 3.71619 12 3.7136 12 3.71101C12 3.70843 12 3.70584 12 3.70324C12 3.70065 12 3.69806 12 3.69547C12 3.69288 12 3.69029 12 3.68769C12 3.6851 12 3.68251 12 3.67991C12 3.67732 12 3.67473 12 3.67213C12 3.66953 12 3.66694 12 3.66434C12 3.66175 12 3.65915 12 3.65655C12 3.65395 12 3.65136 12 3.64876C12 3.64616 12 3.64356 12 3.64096C12 3.63836 12 3.63576 12 3.63316C12 3.63056 12 3.62796 12 3.62536C12 3.62276 12 3.62015 12 3.61755C12 3.61495 12 3.61234 12 3.60974C12 3.60714 12 3.60453 12 3.60193C12 3.59932 12 3.59672 12 3.59411C12 3.5915 12 3.5889 12 3.58629C12 3.58368 12 3.58108 12 3.57847C12 3.57586 12 3.57325 12 3.57064C12 3.56803 12 3.56542 12 3.56281C12 3.5602 12 3.55759 12 3.55498C12 3.55237 12 3.54976 12 3.54715C12 3.54454 12 3.54192 12 3.53931C12 3.5367 12 3.53409 12 3.53147C12 3.52886 12 3.52624 12 3.52363C12 3.52101 12 3.5184 12 3.51578C12 3.51317 12 3.51055 12 3.50793C12 3.50532 12 3.5027 12 3.50008H11ZM8.5 1C9.88069 1 11 2.11935 11 3.50008H12C12 1.56711 10.433 0 8.5 0V1ZM6.5 0C4.56699 0 3 1.5671 3 3.50008H4C4 2.11935 5.11931 1 6.5 1V0ZM1.5 9H13.5V8H1.5V9ZM13 8.5V9.5H14V8.5H13ZM10.5 12H4.5V13H10.5V12ZM2 9.5V8.5H1V9.5H2ZM4.5 12C3.11929 12 2 10.8807 2 9.5H1C1 11.433 2.567 13 4.5 13V12ZM13 9.5C13 10.8807 11.8807 12 10.5 12V13C12.433 13 14 11.433 14 9.5H13ZM5 15H10V14H5V15Z" fill="#EBEBED"/>
</svg>
