<svg width="15" height="15" viewBox="0 0 15 15" fill="none" xmlns="http://www.w3.org/2000/svg">
<path d="M2.5 5L2.99711 3.75722C3.30084 2.9979 4.03626 2.5 4.85407 2.5H10.1459C10.9637 2.5 11.6992 2.9979 12.0029 3.75722L12.5 5M14.5 5.86512V9.21017C14.5 11.0271 13.0271 12.5 11.2102 12.5H10.668C10.5644 12.5 10.4691 12.4434 10.4195 12.3525C9.15908 10.0416 5.84092 10.0416 4.58046 12.3525C4.53086 12.4434 4.43556 12.5 4.33198 12.5H3.78983C1.97291 12.5 0.5 11.0271 0.5 9.21017V5.86512C0.5 5.649 0.643268 5.45907 0.851071 5.39969C5.19674 4.15807 9.80326 4.15807 14.1489 5.39969C14.3567 5.45907 14.5 5.649 14.5 5.86512Z" stroke="#EBEBED" stroke-linecap="round"/>
</svg>
