<svg width="15" height="15" viewBox="0 0 15 15" fill="none" xmlns="http://www.w3.org/2000/svg">
<path d="M2.5 3.5L5.5 13.5L7.5 7M6.5 3.5L9.5 13.5L13.0307 4.67313C13.3076 3.98099 13.0856 3.18918 12.4892 2.7419L12.3571 2.64286C11.8492 2.2619 11.1508 2.2619 10.6429 2.64286C10.0117 3.11624 9.88376 4.01167 10.3571 4.64286L11 5.5M2 3.5H4M5 3.5H8M7.5 14.5C3.63401 14.5 0.5 11.366 0.5 7.5C0.5 3.63401 3.63401 0.5 7.5 0.5C11.366 0.5 14.5 3.63401 14.5 7.5C14.5 11.366 11.366 14.5 7.5 14.5Z" stroke="#EBEBED" stroke-linejoin="round"/>
</svg>
