<?xml version="1.0" encoding="UTF-8"?>
<svg version="1.1" xmlns="http://www.w3.org/2000/svg" width="1000" height="1000">
<path d="M0 0 C3.9768673 3.58834876 7.78000686 7.33143909 11.55859375 11.125 C12.60145611 12.16328049 13.64468246 13.20119548 14.68824768 14.23876953 C16.85016314 16.39185386 19.00646421 18.55036643 21.15893555 20.71289062 C23.89581894 23.46131946 26.64835782 26.19345428 29.40550137 28.92153931 C31.55492752 31.05249901 33.69483688 33.19282484 35.832201 35.33587646 C36.84286882 36.34669585 37.85657092 37.35449227 38.87356377 38.35894775 C48.4503981 47.83410014 56.2276784 57.20668017 56.375 71.1875 C56.19108251 82.23336784 52.91429658 91.10406606 45 99 C44.01 99.33 43.02 99.66 42 100 C41.31513275 101.32407669 40.65129797 102.65909241 40 104 C38 106.25 38 106.25 36 108 C35.34 108 34.68 108 34 108 C33.7525 108.5775 33.505 109.155 33.25 109.75 C31.81700012 112.32939979 30.21575324 114.06121592 28 116 C27.34 116 26.68 116 26 116 C25.7525 116.5775 25.505 117.155 25.25 117.75 C23.81700012 120.32939979 22.21575324 122.06121592 20 124 C19.34 124 18.68 124 18 124 C17.7525 124.5775 17.505 125.155 17.25 125.75 C15.81700012 128.32939979 14.21575324 130.06121592 12 132 C11.34 132 10.68 132 10 132 C9.7525 132.5775 9.505 133.155 9.25 133.75 C7.81700012 136.32939979 6.21575324 138.06121592 4 140 C3.34 140 2.68 140 2 140 C1.7525 140.5775 1.505 141.155 1.25 141.75 C-0.18299988 144.32939979 -1.78424676 146.06121592 -4 148 C-4.66 148 -5.32 148 -6 148 C-6.2475 148.5775 -6.495 149.155 -6.75 149.75 C-8.18299988 152.32939979 -9.78424676 154.06121592 -12 156 C-12.66 156 -13.32 156 -14 156 C-14.2475 156.5775 -14.495 157.155 -14.75 157.75 C-16.18299988 160.32939979 -17.78424676 162.06121592 -20 164 C-20.66 164 -21.32 164 -22 164 C-22.2475 164.5775 -22.495 165.155 -22.75 165.75 C-24.18299988 168.32939979 -25.78424676 170.06121592 -28 172 C-28.66 172 -29.32 172 -30 172 C-30.25652344 172.58007812 -30.51304687 173.16015625 -30.77734375 173.7578125 C-35.26790808 181.99290491 -44.61162394 188.46053083 -53.1875 191.875 C-63.1445415 194.80456738 -73.56807822 193.73855318 -82.74427795 189.12255859 C-89.65148108 185.11624279 -95.02997003 179.42402417 -100.62109375 173.8125 C-101.73117167 172.70699505 -102.84161682 171.60185875 -103.95240784 170.49707031 C-106.27288352 168.18549362 -108.58764786 165.86837824 -110.89868164 163.54736328 C-113.82939589 160.60521436 -116.77556878 157.67913034 -119.72659206 154.75737 C-122.02373858 152.47877441 -124.31127998 150.1907136 -126.59633064 147.8999939 C-127.67708706 146.81908629 -128.76086076 145.74118521 -129.84795952 144.66665649 C-149.49137489 125.21844199 -161.98080688 100.88773794 -162.3125 72.875 C-162.1861719 46.71734939 -152.79691016 22.55537107 -134.640625 3.52734375 C-96.10294887 -33.35708887 -40.36505903 -33.44680759 0 0 Z M-102 36 C-112.69757736 48.46212621 -117.05057515 61.55486004 -116.1953125 77.87255859 C-115.13093163 89.46632726 -109.48260362 100.16990435 -101 108 C-100.21625 108.969375 -99.4325 109.93875 -98.625 110.9375 C-96.25267718 113.84695251 -93.56856189 116.1716471 -90.69140625 118.5703125 C-86.49512277 122.11728652 -82.9623015 126.17854348 -79.41796875 130.3515625 C-77.70051779 132.34815838 -75.96574204 134.24487318 -74 136 C-73.34 136 -72.68 136 -72 136 C-72 136.66 -72 137.32 -72 138 C-70.04072937 139.7143618 -68.04119788 141.38405168 -66 143 C-63.17615633 141.71403737 -61.12431572 140.37292429 -58.93743896 138.177948 C-58.07094727 137.31558029 -58.07094727 137.31558029 -57.18695068 136.43579102 C-56.25474701 135.49280151 -56.25474701 135.49280151 -55.30371094 134.53076172 C-54.30797058 133.53545944 -54.30797058 133.53545944 -53.29211426 132.52005005 C-51.10142667 130.3279703 -48.91790636 128.12889375 -46.734375 125.9296875 C-45.21595163 124.40753361 -43.69708579 122.88582098 -42.17779541 121.36453247 C-38.1818037 117.36090745 -34.19185471 113.35131241 -30.203125 109.3404541 C-26.13122945 105.24809371 -22.05366074 101.16139471 -17.9765625 97.07421875 C-9.97880529 89.05501695 -1.98741897 81.02949819 6 73 C4.5831591 69.78804246 2.87906373 67.62199031 0.41162109 65.13696289 C-0.32319489 64.3926149 -1.05801086 63.64826691 -1.81509399 62.88136292 C-2.6108786 62.08648972 -3.40666321 61.29161652 -4.2265625 60.47265625 C-5.45903214 59.23375893 -5.45903214 59.23375893 -6.71640015 57.96983337 C-8.45730347 56.22318745 -10.20083333 54.47915609 -11.94677734 52.73754883 C-14.60271281 50.08476078 -17.24508946 47.41897796 -19.88671875 44.75195312 C-21.58252132 43.05387618 -23.27911108 41.35658495 -24.9765625 39.66015625 C-25.76020172 38.86730728 -26.54384094 38.07445831 -27.35122681 37.25758362 C-33.41322831 31.24567829 -39.49670112 26.57931937 -47.625 23.75 C-48.50414062 23.43546875 -49.38328125 23.1209375 -50.2890625 22.796875 C-69.17670376 17.24488823 -87.9880231 22.69974256 -102 36 Z " fill="#FFFFFF" transform="translate(808,62)"/>
<path d="M0 0 C23.82184345 8.75587187 44.36912538 31.03406416 54.99686432 53.65454865 C65.45862287 78.115393 66.48927137 110.69434025 57.05078888 135.62219238 C47.35890185 157.55375567 20.47528034 183.26235983 -1 194 C-12.99516936 195.98420154 -25.18031126 196.79151786 -37.3125 197.375 C-38.20324345 197.41839005 -39.09398689 197.46178009 -40.01172256 197.50648499 C-63.15186397 198.4985581 -81.19139572 196.5873521 -98.80569267 180.60543442 C-110.72979597 169.39751899 -121.27857322 156.60221371 -131.03849792 143.49310303 C-132.89181333 140.9598267 -132.89181333 140.9598267 -135.22076416 139.1489563 C-137.77517142 136.06375003 -137.56796088 133.12773584 -137.53344727 129.29736328 C-137.54206284 128.52613129 -137.55067841 127.75489929 -137.55955505 126.96029663 C-137.5822391 124.41329282 -137.57547104 121.86738737 -137.56640625 119.3203125 C-137.57164161 117.54678012 -137.57791777 115.77325054 -137.58518982 113.99972534 C-137.59559912 110.28239849 -137.59102632 106.56545429 -137.57641602 102.84814453 C-137.55924649 98.09086601 -137.58269738 93.33479734 -137.61790562 88.57765388 C-137.63989998 84.91437823 -137.63843293 81.251391 -137.6301403 77.58806992 C-137.62932152 75.83463084 -137.63617096 74.08117043 -137.65091133 72.32779312 C-137.6683913 69.87158894 -137.65378771 67.41754429 -137.63110352 64.96142578 C-137.64279572 64.24122253 -137.65448792 63.52101929 -137.66653442 62.7789917 C-137.56032966 57.10868018 -135.84283737 54.86414725 -132 51 C-130.35360035 49.64172029 -128.68704193 48.30745749 -127 47 C-124.13833918 44.28509102 -121.52553788 41.46039445 -119 38.4375 C-116.56804854 35.55772117 -113.99445392 33.30342609 -111 31 C-108.13833918 28.28509102 -105.52553788 25.46039445 -103 22.4375 C-100.56804854 19.55772117 -97.99445392 17.30342609 -95 15 C-91.48345408 11.66378977 -88.37344265 8.11911505 -85.33203125 4.35546875 C-84.89246094 3.90816406 -84.45289063 3.46085938 -84 3 C-83.34 3 -82.68 3 -82 3 C-82 2.34 -82 1.68 -82 1 C-61.9919954 -9.0040023 -20.76909311 -6.00330449 0 0 Z M-68 52 C-68 52.66 -68 53.32 -68 54 C-68.61875 54.2475 -69.2375 54.495 -69.875 54.75 C-72.35068687 56.20628639 -72.95125002 57.37812506 -74 60 C-74.66 60 -75.32 60 -76 60 C-76 60.66 -76 61.32 -76 62 C-76.5775 62.2475 -77.155 62.495 -77.75 62.75 C-80.32939979 64.18299988 -82.06121592 65.78424676 -84 68 C-84 68.66 -84 69.32 -84 70 C-84.598125 70.2475 -85.19625 70.495 -85.8125 70.75 C-88.53071976 72.30326844 -89.46579009 73.23766904 -91 76 C-91.47217236 79.11922002 -91.4680283 82.21678019 -91.46875 85.3671875 C-91.47636353 86.27953156 -91.48397705 87.19187561 -91.49182129 88.13186646 C-91.50261594 90.06005114 -91.50547797 91.98829426 -91.50097656 93.91650391 C-91.50000558 96.85809572 -91.54160501 99.79706688 -91.5859375 102.73828125 C-91.59114582 104.61457791 -91.59383267 106.49088361 -91.59375 108.3671875 C-91.61014526 109.2423703 -91.62654053 110.1175531 -91.64343262 111.01925659 C-91.59566344 115.2672492 -91.36937351 118.09800091 -88.63476562 121.46142578 C-86.19240041 123.81462384 -83.67495115 125.91948244 -81 128 C-80.67 128.66 -80.34 129.32 -80 130 C-79.34 130 -78.68 130 -78 130 C-78 130.66 -78 131.32 -78 132 C-77.34 132 -76.68 132 -76 132 C-76 132.66 -76 133.32 -76 134 C-74.35648543 135.36176922 -72.68477344 136.68962066 -71 138 C-68.45326591 140.42250316 -66.26287161 142.58035653 -64.39404297 145.5637207 C-60.98134525 149.03662612 -57.98197612 149.14361895 -53.2578125 149.54296875 C-52.38912033 149.61982407 -51.52042816 149.69667938 -50.62541199 149.77586365 C-33.78350467 150.98443228 -18.66633077 150.6713267 -5.24682617 139.38574219 C5.81108247 129.16731757 12.23300564 119.23489287 13.17695618 103.97052002 C13.36262981 97.50580535 13.12899467 91.0607404 12.54296875 84.62109375 C12.43837341 83.42441826 12.43837341 83.42441826 12.33166504 82.2035675 C11.65929784 76.93475535 10.22746184 74.48498235 6 71 C4.23241884 69.23241884 2.46488394 67.46480776 0.69921875 65.6953125 C-0.75366435 64.24576936 -2.21931441 62.80904173 -3.6875 61.375 C-5.97276122 59.02797496 -7.96318097 56.56244974 -10 54 C-12.02040748 51.72808584 -12.02040748 51.72808584 -14 50 C-14.66 50 -15.32 50 -16 50 C-16 49.34 -16 48.68 -16 48 C-20.70276679 45.61546488 -25.09207269 45.64515591 -30.24609375 45.59375 C-31.57919334 45.57664978 -31.57919334 45.57664978 -32.93922424 45.5592041 C-34.81433385 45.54035909 -36.68950888 45.52725801 -38.56469727 45.51953125 C-41.42516696 45.50008385 -44.2827803 45.43798789 -47.14257812 45.375 C-48.96873302 45.36194123 -50.79490836 45.35143977 -52.62109375 45.34375 C-53.47126572 45.3190564 -54.32143768 45.29436279 -55.19737244 45.2689209 C-61.58895876 45.31662139 -64.05514947 46.95991181 -68 52 Z " fill="#FFFFFF" transform="translate(942,196)"/>
<path d="M0 0 C21.45 0 42.9 0 65 0 C65.495 1.485 65.495 1.485 66 3 C67.31719929 3.69800304 68.65337955 4.36059748 70 5 C71.921875 6.65625 71.921875 6.65625 73.75 8.5 C74.36359375 9.1084375 74.9771875 9.716875 75.609375 10.34375 C77 12 77 12 77 14 C77.639375 14.268125 78.27875 14.53625 78.9375 14.8125 C81 16 81 16 82 19 C83.31719929 19.69800304 84.65337955 20.36059748 86 21 C87.921875 22.65625 87.921875 22.65625 89.75 24.5 C90.36359375 25.1084375 90.9771875 25.716875 91.609375 26.34375 C93 28 93 28 93 30 C93.5775 30.2475 94.155 30.495 94.75 30.75 C97.32939979 32.18299988 99.06121592 33.78424676 101 36 C101 36.66 101 37.32 101 38 C102.32 38.66 103.64 39.32 105 40 C105 40.66 105 41.32 105 42 C107.11100311 43.28168046 108.42046837 44.05668304 110.91810608 43.81239319 C113.68471649 42.73281107 114.73579232 41.27421121 116.56030273 38.93920898 C147.70776828 0.17159752 147.70776828 0.17159752 166.92381287 -2.55830383 C180.97239743 -3.66674543 195.13069419 -2.32950679 209 0 C210.09120239 4.43968178 210.43354867 8.62226276 209 13 C204.96216761 19.55814885 198.81896455 24.76414721 193.3125 30.0625 C191.69236668 31.66597659 190.07489207 33.27214355 188.45996094 34.88085938 C185.07590888 38.23901149 181.67211906 41.5751699 178.25048828 44.89501953 C173.87652414 49.13897027 169.53765476 53.41661889 165.21110535 57.70884705 C161.06821729 61.81690036 156.91047726 65.90977145 152.75 70 C151.5694957 71.1629509 151.5694957 71.1629509 150.36514282 72.34939575 C148.121125 74.55371414 145.86711746 76.74725086 143.609375 78.9375 C142.62861244 79.90380592 142.62861244 79.90380592 141.6280365 80.88963318 C131.74450831 90.41098742 122.14722373 94.53018883 108.37915039 94.41943359 C93.15156427 93.89914794 83.72109742 85.04260265 73.45092773 74.69384766 C72.64982071 73.89463898 71.84871368 73.0954303 71.02333069 72.27200317 C68.40518887 69.65753425 65.79426142 67.03599299 63.18359375 64.4140625 C61.35836187 62.58763745 59.53275899 60.76158307 57.70680237 58.93588257 C53.89704699 55.12456873 50.09053742 51.31005967 46.28686523 47.49267578 C41.8860688 43.07607415 37.47998649 38.66480209 33.07091564 34.25646174 C28.8209964 30.00715154 24.57398951 25.7549468 20.32847786 21.50123215 C18.52325827 19.69282168 16.71742468 17.88502392 14.91097832 16.0778389 C12.39962553 13.56433211 9.89158437 11.04756989 7.38452148 8.52978516 C6.63190033 7.77761719 5.87927917 7.02544922 5.10385132 6.25048828 C4.42689713 5.5692691 3.74994293 4.88804993 3.05247498 4.18618774 C2.45946815 3.59150507 1.86646132 2.9968224 1.25548458 2.38411903 C0 1 0 1 0 0 Z " fill="#FFFFFF" transform="translate(791,0)"/>
<path d="M0 0 C21.45 0 42.9 0 65 0 C63.21398196 3.57203608 61.93313183 5.43350965 59 8 C58.34 8 57.68 8 57 8 C57 8.66 57 9.32 57 10 C55.33333333 11.33333333 53.66666667 12.66666667 52 14 C50.30911778 15.97956942 48.64169528 17.97945196 47 20 C44.8125 22.375 44.8125 22.375 43 24 C42.34 24 41.68 24 41 24 C41 24.66 41 25.32 41 26 C39.33333333 27.33333333 37.66666667 28.66666667 36 30 C34.30911778 31.97956942 32.64169528 33.97945196 31 36 C28.8125 38.375 28.8125 38.375 27 40 C26.34 40 25.68 40 25 40 C25 40.66 25 41.32 25 42 C23.33333333 43.33333333 21.66666667 44.66666667 20 46 C18.30911778 47.97956942 16.64169528 49.97945196 15 52 C12.8125 54.375 12.8125 54.375 11 56 C10.34 56 9.68 56 9 56 C9 56.66 9 57.32 9 58 C7.33333333 59.33333333 5.66666667 60.66666667 4 62 C2.30911778 63.97956942 0.64169528 65.97945196 -1 68 C-3.1875 70.375 -3.1875 70.375 -5 72 C-5.66 72 -6.32 72 -7 72 C-7 72.66 -7 73.32 -7 74 C-8.66666667 75.33333333 -10.33333333 76.66666667 -12 78 C-13.69088222 79.97956942 -15.35830472 81.97945196 -17 84 C-19.1875 86.375 -19.1875 86.375 -21 88 C-21.66 88 -22.32 88 -23 88 C-23 88.66 -23 89.32 -23 90 C-24.64351457 91.36176922 -26.31522656 92.68962066 -28 94 C-28.763125 94.845625 -29.52625 95.69125 -30.3125 96.5625 C-34.59241703 100.44428521 -39.23160391 102.11434556 -45 102.375 C-52.47110781 102.01019981 -57.91431789 98.95457252 -63.30078125 93.875 C-67.9683778 88.72454864 -68.5048456 83.30707307 -68.27734375 76.63671875 C-67.56359005 69.85103214 -64.14081155 65.67354233 -59.6875 60.83984375 C-57.88903594 58.93731399 -57.88903594 58.93731399 -56.0625 56.4375 C-53.63837053 53.57261972 -50.93354215 51.2628799 -48.0859375 48.828125 C-44.90135203 46.03713998 -41.96244135 43.02235589 -39 40 C-37.33471017 38.33195763 -35.66790169 36.66543073 -34 35 C-33.1028125 34.1028125 -32.205625 33.205625 -31.28125 32.28125 C-27.140625 28.140625 -27.140625 28.140625 -23 24 C-22.24203125 23.24074219 -21.4840625 22.48148438 -20.703125 21.69921875 C-18.4162452 19.41564369 -16.12324449 17.13856261 -13.828125 14.86328125 C-12.30202824 13.3464096 -10.77598787 11.8294812 -9.25 10.3125 C-8.47011719 9.54099609 -7.69023438 8.76949219 -6.88671875 7.97460938 C-6.14550781 7.23662109 -5.40429688 6.49863281 -4.640625 5.73828125 C-3.96547852 5.06837158 -3.29033203 4.39846191 -2.59472656 3.70825195 C-0.91986953 2.07595037 -0.91986953 2.07595037 0 0 Z " fill="#FFFFFF" transform="translate(629,0)"/>
<path d="M0 0 C0 35.64 0 71.28 0 108 C-7 102 -7 102 -9.96484375 99.359375 C-22.79125438 88.1004495 -36.74882544 79.41705819 -53 74 C-53 59.15 -53 44.3 -53 29 C-47 27 -47 27 -44.46484375 26.17578125 C-29.71353556 21.13708093 -16.4354255 12.63005184 -4.75 2.375 C-2 0 -2 0 0 0 Z " fill="#FFFFFF" transform="translate(1000,401)"/>
<path d="M0 0 C0 49.17 0 98.34 0 149 C-14.79413649 141.60293176 -25.12616245 122.75750919 -30.38427734 107.60839844 C-38.99662901 81.64076725 -37.501622 55.36768637 -25.6875 30.6875 C-20.5859098 20.97018534 -13.98618946 11.59250406 -6 4 C-5.34 4 -4.68 4 -4 4 C-3.67 3.01 -3.34 2.02 -3 1 C-1 0 -1 0 0 0 Z " fill="#FFFFFF" transform="translate(1000,59)"/>
<path d="M0 0 C21.45 0 42.9 0 65 0 C58.25003306 7.87496143 58.25003306 7.87496143 55.36889648 10.74462891 C54.72480331 11.38864655 54.08071014 12.03266418 53.417099 12.69619751 C52.4043264 13.70122818 52.4043264 13.70122818 51.37109375 14.7265625 C50.65897232 15.43726898 49.94685089 16.14797546 49.21315002 16.88021851 C46.95695854 19.13085984 44.69730601 21.37798854 42.4375 23.625 C40.91708511 25.14039167 39.39690071 26.65601462 37.87695312 28.171875 C34.47870859 31.56021863 31.07936318 34.94743975 27.67428589 38.32891846 C26.18277658 39.81757323 24.70570087 41.32065751 23.23071289 42.82568359 C18.21030252 47.71916885 13.46114652 49.67430446 6.55078125 50.09375 C-0.17286409 49.84663287 -5.63853375 47.33145859 -10.4921875 42.71484375 C-15.58952955 36.91760758 -16.62489914 31.46915198 -16.30859375 23.8203125 C-15.43853725 15.86865689 -10.68401078 10.32197188 -5 5 C-4.34 5 -3.68 5 -3 5 C-2.67 4.01 -2.34 3.02 -2 2 C-1.34 2 -0.68 2 0 2 C0 1.34 0 0.68 0 0 Z " fill="#FFFFFF" transform="translate(525,0)"/>
<path d="" fill="#FFFFFF" transform="translate(0,0)"/>
<path d="" fill="#FFFFFF" transform="translate(0,0)"/>
<path d="" fill="#FFFFFF" transform="translate(0,0)"/>
</svg>
