<?xml version="1.0" encoding="UTF-8"?>
<svg version="1.1" xmlns="http://www.w3.org/2000/svg" width="1000" height="1000">
<path d="M0 0 C0.82371094 0.67804688 1.64742187 1.35609375 2.49609375 2.0546875 C19.79604023 16.79067936 31.30871359 38.35513559 34 61 C35.37996767 89.83940381 30.10486998 114.60748509 11 137 C10.41863281 137.73863281 9.83726562 138.47726562 9.23828125 139.23828125 C-2.76061396 153.89202963 -20.85613141 163.50662409 -39 168 C-39.71510742 168.17732666 -40.43021484 168.35465332 -41.16699219 168.53735352 C-48.04640567 170.09248853 -54.71341794 170.34802269 -61.75 170.3125 C-62.90016602 170.30758545 -64.05033203 170.3026709 -65.23535156 170.29760742 C-73.55814517 170.18283057 -81.02190265 169.51087328 -89 167 C-90.13953125 166.6596875 -91.2790625 166.319375 -92.453125 165.96875 C-106.01437338 161.54790251 -117.39277086 154.52451357 -128 145 C-128.69480469 144.38769531 -129.38960937 143.77539062 -130.10546875 143.14453125 C-148.77822019 125.66445056 -157.40724483 101.431302 -159.1875 76.359375 C-159.93123607 48.28333835 -148.16407028 23.88332607 -129.3125 3.8125 C-94.1016642 -30.12897965 -36.92385917 -31.71589805 0 0 Z M-100.36328125 39.0625 C-111.10335215 51.02773455 -113.6540695 65.35335111 -113.140625 80.859375 C-112.85440943 85.21621194 -111.72334672 89.01615953 -110 93 C-109.73316406 93.66773438 -109.46632813 94.33546875 -109.19140625 95.0234375 C-103.04748493 108.84043389 -91.54582291 117.56750647 -77.82421875 123.08984375 C-64.77103938 127.29647002 -51.22477207 125.39758418 -38.9375 119.875 C-25.19375773 112.58863505 -16.53126998 100.57969295 -12 86 C-8.66146652 70.84819421 -12.29929518 57.09600114 -20 44 C-21.86975087 41.34588653 -23.66561243 39.28009948 -26 37 C-26.66 37 -27.32 37 -28 37 C-28 36.34 -28 35.68 -28 35 C-50.67715034 17.49634404 -80.00187678 18.8643132 -100.36328125 39.0625 Z " fill="#FFFFFF" transform="translate(964,219)"/>
<path d="M0 0 C6.86783733 -0.22855169 13.73469243 -0.38594448 20.60546875 -0.49438477 C22.94145346 -0.53959424 25.27718419 -0.60097605 27.61230469 -0.67895508 C30.97394395 -0.78838716 34.33221486 -0.83921873 37.6953125 -0.87890625 C39.25658371 -0.9485836 39.25658371 -0.9485836 40.84939575 -1.01966858 C43.81041671 -1.02172132 46.17785222 -0.90306508 49 0 C50.9786625 2.00107307 52.1710187 4.00679907 53.52493286 6.4705658 C56.14597877 10.96511591 59.98606976 14.35251517 63.6796875 17.97265625 C64.49245148 18.78117538 65.30521545 19.58969452 66.14260864 20.42271423 C68.71305138 22.97650714 71.29377877 25.51960658 73.875 28.0625 C75.63090177 29.8033373 77.38611707 31.5448673 79.140625 33.28710938 C83.41918144 37.53277845 87.70620773 41.76974299 92 46 C96.87096802 42.14204678 100.55178304 38.19626675 104.25730896 33.22219849 C128.48157906 1.05199323 128.48157906 1.05199323 147.14501953 -1.86816406 C165.51312787 -4.20572576 184.72934894 -2.27621818 203 0 C198.5488203 5.3185789 193.86510428 10.3044341 188.98193359 15.22680664 C187.80984344 16.41357246 187.80984344 16.41357246 186.61407471 17.62431335 C184.04536892 20.22275923 181.47257374 22.81709033 178.8984375 25.41015625 C177.57215269 26.7462988 177.57215269 26.7462988 176.21907425 28.10943413 C172.49973377 31.85460608 168.77922164 35.59860274 165.05454063 39.33846378 C159.75066233 44.66422891 154.4570917 49.99979584 149.17714822 55.34929377 C144.99236192 59.58729293 140.79095456 63.80856121 136.58382034 68.02438164 C134.80781093 69.80891717 133.03691602 71.59855887 131.27143478 73.39351082 C109.07552524 95.9399332 109.07552524 95.9399332 92.9375 96.3125 C76.58830857 96.14754179 67.03309727 86.35283764 56.0703125 75.40625 C55.02966843 74.37205392 53.98888392 73.33799914 52.94796753 72.30407715 C50.77442315 70.14244594 48.60498794 67.97678486 46.43798828 65.80859375 C44.23974307 63.61018644 42.03471356 61.41898203 39.82275391 59.234375 C11.97611756 31.72680187 11.97611756 31.72680187 5 16.1875 C4.46375 15.02605469 3.9275 13.86460938 3.375 12.66796875 C2.30016031 9.80071173 1.54951378 7.23975551 0.9140625 4.27075195 C0.65423584 3.06742973 0.65423584 3.06742973 0.38916016 1.83979797 C0.2607373 1.23266464 0.13231445 0.62553131 0 0 Z " fill="#FFFFFF" transform="translate(491,0)"/>
<path d="M0 0 C9.770675 -0.18576709 19.54092662 -0.32771095 29.31301117 -0.41449738 C33.85123792 -0.45616217 38.38825226 -0.51262584 42.92578125 -0.60351562 C47.30902422 -0.69076049 51.691105 -0.7383396 56.07514954 -0.75901794 C57.74337555 -0.77374362 59.41154143 -0.8025017 61.07926941 -0.84584045 C74.10528544 -1.17072716 74.10528544 -1.17072716 78.85473633 1.76391602 C80.90568915 3.74760243 82.54553971 5.54896218 84 8 C84 8.66 84 9.32 84 10 C84.66 10 85.32 10 86 10 C87.43812673 11.56940801 88.8003005 13.20874035 90.125 14.875 C90.92035156 15.86886719 91.71570313 16.86273437 92.53515625 17.88671875 C93.75525391 19.42779297 93.75525391 19.42779297 95 21 C96.52043135 22.89615573 98.04123156 24.79201579 99.5625 26.6875 C100.70896699 28.12449468 101.8550516 29.56179506 103 31 C106.26617446 27.81903009 109.23489314 24.5740079 112.0625 21 C117.985579 13.6709376 124.33577503 6.66422497 131 0 C133.9359436 -0.24050903 133.9359436 -0.24050903 137.74462891 -0.22705078 C138.43742447 -0.22734283 139.13022003 -0.22763489 139.8440094 -0.22793579 C142.13832034 -0.22654031 144.43230816 -0.21096919 146.7265625 -0.1953125 C148.31553978 -0.19158314 149.90451936 -0.1887358 151.49349976 -0.18673706 C155.67914154 -0.17909453 159.8646449 -0.15944081 164.05023193 -0.1373291 C168.31992724 -0.11688396 172.58964487 -0.1077382 176.859375 -0.09765625 C185.23964691 -0.07619543 193.61980625 -0.04205211 202 0 C201.41866723 3.16767038 201.30403998 3.7822744 198.55078125 5.75390625 C197.48214844 6.35074219 196.41351562 6.94757812 195.3125 7.5625 C164.75457907 25.39078646 137.21159149 55.36522553 126 89 C111.15 89 96.3 89 81 89 C79.35 84.38 77.7 79.76 76 75 C60.37088022 43.62380482 31.17393151 16.39721139 0 1 C0 0.67 0 0.34 0 0 Z " fill="#FFFFFF" transform="translate(798,0)"/>
<path d="M0 0 C5.56984499 5.56984499 7.42567623 10.27326917 7.83984375 18.046875 C7.56684067 26.26070669 3.15439326 30.98451142 -2.25 36.75 C-3.4565625 38.2659375 -3.4565625 38.2659375 -4.6875 39.8125 C-6.7462624 42.1725447 -8.69320737 44.05274983 -11.0625 46.0625 C-14.06139032 48.61127545 -16.67667613 51.27222444 -19.25 54.25 C-22.35338047 57.83828367 -25.63076661 60.88377182 -29.25 63.9375 C-31.43185188 65.91480327 -33.32429675 68.02340561 -35.25 70.25 C-38.35338047 73.83828367 -41.63076661 76.88377182 -45.25 79.9375 C-47.43185188 81.91480327 -49.32429675 84.02340561 -51.25 86.25 C-54.35338047 89.83828367 -57.63076661 92.88377182 -61.25 95.9375 C-63.43185188 97.91480327 -65.32429675 100.02340561 -67.25 102.25 C-70.35338047 105.83828367 -73.63076661 108.88377182 -77.25 111.9375 C-80.17416526 114.58752477 -82.66459525 117.57276705 -85.2421875 120.5546875 C-87.76426506 123.31228981 -90.52897161 125.66229515 -93.3828125 128.06640625 C-95.20513933 129.70955032 -96.70799067 131.4079101 -98.25 133.3125 C-104.1154075 140.3700635 -110.37139888 144.08449799 -119.5625 145.125 C-126.18177737 144.45185315 -132.13628068 142.46421985 -136.6875 137.4375 C-141.56230356 130.91934906 -143.36140506 124.78434242 -142.25 116.75 C-139.32084304 108.08454961 -133.34877058 102.14340585 -126.97119141 95.85595703 C-125.92658704 94.80784443 -124.88306312 93.75865407 -123.8405304 92.70848083 C-121.02743371 89.88123112 -118.19907148 87.06974001 -115.36713839 84.261374 C-112.39543466 81.30989212 -109.43685002 78.34530939 -106.47640991 75.38253784 C-101.50684962 70.41303099 -96.52757271 65.45343175 -91.54199219 60.5 C-85.78769261 54.7826276 -80.04761078 49.05128702 -74.31523192 43.31194222 C-68.78493038 37.7753254 -63.24612323 32.24729924 -57.70292282 26.72359848 C-55.35050156 24.37932665 -53.00080749 22.03237126 -50.65324783 19.68323135 C-47.88750817 16.91660967 -45.11429292 14.15769897 -42.33524132 11.40445137 C-41.31968666 10.39602828 -40.30662101 9.38509109 -39.29631615 8.37140846 C-27.51910351 -3.43764598 -15.2936241 -10.58789361 0 0 Z " fill="#FFFFFF" transform="translate(862.25,116.25)"/>
<path d="M0 0 C6.74072208 4.02201089 10.29992006 9.40734917 12.21875 16.95703125 C13.34019235 23.80429943 11.3456495 29.65821867 7.625 35.4375 C4.41259122 39.22301012 0.90710575 42.70337378 -2.61621094 46.19628906 C-3.66867517 47.25418129 -4.72028828 48.31292085 -5.77111816 49.37243652 C-8.61328443 52.2327583 -11.46786167 55.08037796 -14.3254652 57.92526722 C-17.32261846 60.91225246 -20.30995362 63.90903184 -23.29888916 66.90423584 C-28.31871661 71.93132864 -33.34689155 76.94995611 -38.37988281 81.96386719 C-44.1882079 87.75042578 -49.98198295 93.55125298 -55.7684114 99.3597014 C-60.74803925 104.35751493 -65.73546217 109.34744898 -70.72941422 114.33094954 C-73.7071863 117.30250413 -76.6822342 120.27665088 -79.65026093 123.2579422 C-82.44182776 126.06111303 -85.24309334 128.85422433 -88.05195618 131.64006042 C-89.07765584 132.66049727 -90.10001562 133.68430465 -91.11864471 134.71179962 C-102.87818684 146.56417454 -102.87818684 146.56417454 -111.71875 147.96875 C-118.35434602 147.90305103 -124.07409734 147.77240673 -129.375 143.4375 C-134.38189899 138.07216529 -137.64184955 132.59819633 -137.75 125.125 C-137.77835938 124.24199219 -137.80671875 123.35898438 -137.8359375 122.44921875 C-136.37496223 112.90335489 -129.48113057 106.97070392 -122.93432617 100.47924805 C-121.86053512 99.40002933 -120.78759523 98.31996318 -119.71543884 97.23912048 C-116.81549218 94.32101652 -113.90312974 91.41561363 -110.98774505 88.51294303 C-107.93140201 85.46676445 -104.8848727 82.41079569 -101.83674622 79.35639954 C-96.71856609 74.23095414 -91.59203695 69.11397334 -86.46069336 64.00170898 C-80.53532788 58.09812161 -74.62452542 52.18024693 -68.72105807 46.25476807 C-63.64292626 41.15846425 -58.55701576 36.07002193 -53.46456319 30.98802787 C-50.4270167 27.95670487 -47.39220756 24.92277398 -44.36440086 21.88171959 C-41.51783654 19.02357083 -38.66160756 16.17544118 -35.79773903 13.33463478 C-34.75065109 12.29281954 -33.70692181 11.24761564 -32.66690063 10.19874573 C-23.44718495 0.90786715 -13.48241668 -6.00368651 0 0 Z " fill="#FFFFFF" transform="translate(753.375,8.5625)"/>
<path d="M0 0 C5.38059379 3.16769822 9.39836072 7.8656719 12.125 13.4375 C13.73912728 22.22552631 12.34332947 27.84347449 7.6875 35.5 C5.40500881 38.40656444 2.87509774 40.9788175 0.23852539 43.56420898 C-0.49383835 44.30212173 -1.22620209 45.04003448 -1.98075867 45.80030823 C-4.38005175 48.21131422 -6.7967734 50.60393239 -9.21484375 52.99609375 C-10.89813913 54.67767627 -12.58054414 56.3601505 -14.26210022 58.04347229 C-17.7772467 61.55697044 -21.30071628 65.06182464 -24.83081055 68.56030273 C-29.35148 73.04120539 -33.85418937 77.5396503 -38.351264 82.04421902 C-41.81900389 85.51502949 -45.29429387 88.9781962 -48.77209663 92.43892097 C-50.43537231 94.09517617 -52.09671065 95.7533793 -53.75605583 97.41357231 C-56.07472935 99.73044573 -58.40295313 102.03726995 -60.73413086 104.34155273 C-61.41536011 105.02571259 -62.09658936 105.70987244 -62.79846191 106.4147644 C-68.54231943 112.05683924 -73.99864014 115.46960197 -82.3125 115.5 C-89.2321821 114.9425475 -94.39553033 112.39472094 -99.3125 107.5 C-103.97122482 101.14474534 -104.93485065 95.17957221 -104.3125 87.5 C-101.64535004 78.4003119 -93.75435919 71.79334702 -87.21899414 65.22949219 C-86.54807236 64.55199921 -85.87715057 63.87450623 -85.18589783 63.17648315 C-82.99267739 60.96375293 -80.79563345 58.75487973 -78.59765625 56.546875 C-77.8417816 55.78692482 -77.08590694 55.02697464 -76.307127 54.24399567 C-72.31325749 50.22937064 -68.31619474 46.21795551 -64.31665039 42.20898438 C-60.19821793 38.07944937 -56.09160508 33.93836168 -51.98746586 29.79462814 C-48.81560238 26.59659862 -45.63486473 23.40750733 -42.45168877 20.22074127 C-40.93373865 18.69793315 -39.41915655 17.17175971 -37.90809822 15.64211273 C-35.79321596 13.5028182 -33.66598212 11.3765737 -31.53540039 9.25292969 C-30.92060822 8.62532745 -30.30581604 7.99772522 -29.6723938 7.35110474 C-21.48927966 -0.73567994 -11.24440922 -4.89077217 0 0 Z " fill="#FFFFFF" transform="translate(772.3125,93.5)"/>
<path d="M0 0 C0.23275938 8.17149025 0.40989988 16.34157343 0.51812172 24.51556969 C0.57009262 28.31219765 0.64044273 32.10654196 0.75439453 35.90185547 C0.86388517 39.57198744 0.92300697 43.23993891 0.94877243 46.91157913 C0.96710576 48.30478864 1.00291058 49.69789223 1.05730057 51.09016037 C1.28769769 57.23816843 1.41454698 62.05525679 -2.29278564 67.15216064 C-4.75462965 69.62790019 -7.23737743 71.86887877 -10 74 C-8.56444604 77.45214869 -6.82634799 79.03301538 -3.92382812 81.32617188 C-0.17451196 85.0076808 0.61670032 87.56130051 0.90820312 92.78320312 C0.906941 95.45831362 0.86409582 98.10969248 0.78125 100.78125 C0.76630454 102.20467938 0.7549284 103.62815028 0.74694824 105.05163574 C0.71659197 108.77470148 0.63818487 112.49521785 0.54931641 116.21728516 C0.46705965 120.02471433 0.43085279 123.83256091 0.390625 127.640625 C0.30516316 135.0949047 0.16887077 142.54709341 0 150 C-5.92424905 145.07274281 -11.40917708 139.78348136 -16.87890625 134.359375 C-17.80920151 133.43715149 -18.73949677 132.51492798 -19.69798279 131.5647583 C-21.65740232 129.62026343 -23.61429468 127.67325888 -25.57006836 125.72509766 C-28.0549458 123.25128532 -30.55128887 120.7893871 -33.05038548 118.32995224 C-35.46031366 115.95270084 -37.85602308 113.56127416 -40.25390625 111.171875 C-41.14155167 110.30173767 -42.02919708 109.43160034 -42.94374084 108.53509521 C-52.6594283 98.78548276 -58.9008935 88.46315063 -59.375 74.4375 C-58.83388435 58.5647743 -49.5586163 47.94429719 -38.73046875 37.3046875 C-37.64204275 36.22119579 -36.5544357 35.13688084 -35.46760559 34.05178833 C-33.2068085 31.7985733 -30.93976531 29.55192808 -28.66723633 27.31054688 C-25.74862312 24.43186265 -22.8412066 21.54218945 -19.93767834 18.64829826 C-17.16381052 15.88436444 -14.38499558 13.12542861 -11.60546875 10.3671875 C-10.80924638 9.57605875 -10.80924638 9.57605875 -9.99693871 8.7689476 C-8.50612405 7.2896415 -7.01188059 5.81389938 -5.51635742 4.33935547 C-4.66619553 3.49903778 -3.81603363 2.65872009 -2.94010925 1.79293823 C-1 0 -1 0 0 0 Z " fill="#FFFFFF" transform="translate(1000,59)"/>
<path d="M0 0 C0 49.5 0 99 0 150 C-2.31 148.02 -4.62 146.04 -7 144 C-9.59205617 142.44501183 -9.59205617 142.44501183 -12.21360779 140.94085693 C-23.10192488 134.58914779 -33.03691941 125.48379612 -36.55979156 113.01937866 C-42.27761656 88.65855316 -45.25852468 50.36232267 -32.45361328 27.90332031 C-27.09271 20.03001401 -10.77765418 0 0 0 Z " fill="#FFFFFF" transform="translate(1000,377)"/>
</svg>
