<?xml version="1.0" encoding="UTF-8"?>
<svg version="1.1" xmlns="http://www.w3.org/2000/svg" width="1000" height="1000">
<path d="M0 0 C15.49052338 11.23201585 29.96725421 23.68708855 44.00480652 36.67495728 C44.80831291 37.41733643 45.61181931 38.15971558 46.43967438 38.92459106 C66.46193356 57.60358341 81.58122897 74.39242114 82.82681274 102.69134521 C82.94418262 107.99326595 82.75248906 113.25748362 82.44230652 118.54995728 C82.39414669 119.413964 82.34598686 120.27797073 82.29636765 121.16815948 C80.52641941 150.51248411 80.52641941 150.51248411 75.31886292 156.35122681 C74.4933493 157.07680786 73.66783569 157.80238892 72.81730652 158.54995728 C72.26043152 159.14808228 71.70355652 159.74620728 71.12980652 160.36245728 C69.81730652 161.54995728 69.81730652 161.54995728 67.81730652 161.54995728 C67.81730652 162.20995728 67.81730652 162.86995728 67.81730652 163.54995728 C67.15730652 163.54995728 66.49730652 163.54995728 65.81730652 163.54995728 C65.59043152 164.12745728 65.36355652 164.70495728 65.12980652 165.29995728 C63.47643722 168.13430464 61.38766707 169.51757916 58.81730652 171.54995728 C57.89943771 172.61468509 57.00354998 173.69873031 56.12980652 174.79995728 C54.98511902 176.16120728 54.98511902 176.16120728 53.81730652 177.54995728 C53.15730652 177.54995728 52.49730652 177.54995728 51.81730652 177.54995728 C51.81730652 178.20995728 51.81730652 178.86995728 51.81730652 179.54995728 C51.15730652 179.54995728 50.49730652 179.54995728 49.81730652 179.54995728 C49.59043152 180.12745728 49.36355652 180.70495728 49.12980652 181.29995728 C47.47643722 184.13430464 45.38766707 185.51757916 42.81730652 187.54995728 C41.89943771 188.61468509 41.00354998 189.69873031 40.12980652 190.79995728 C38.98511902 192.16120728 38.98511902 192.16120728 37.81730652 193.54995728 C37.15730652 193.54995728 36.49730652 193.54995728 35.81730652 193.54995728 C35.81730652 194.20995728 35.81730652 194.86995728 35.81730652 195.54995728 C35.15730652 195.54995728 34.49730652 195.54995728 33.81730652 195.54995728 C33.59043152 196.12745728 33.36355652 196.70495728 33.12980652 197.29995728 C31.47643722 200.13430464 29.38766707 201.51757916 26.81730652 203.54995728 C25.89943771 204.61468509 25.00354998 205.69873031 24.12980652 206.79995728 C22.98511902 208.16120728 22.98511902 208.16120728 21.81730652 209.54995728 C21.15730652 209.54995728 20.49730652 209.54995728 19.81730652 209.54995728 C19.81730652 210.20995728 19.81730652 210.86995728 19.81730652 211.54995728 C19.15730652 211.54995728 18.49730652 211.54995728 17.81730652 211.54995728 C17.59043152 212.12745728 17.36355652 212.70495728 17.12980652 213.29995728 C15.47947174 216.12910261 13.38472075 217.53270323 10.81730652 219.54995728 C10.23980652 220.33370728 9.66230652 221.11745728 9.06730652 221.92495728 C2.76541573 229.27716319 -6.63148819 233.55504006 -16.18269348 234.54995728 C-28.33063432 235.3877463 -39.13949872 231.43764422 -48.45179176 223.65312767 C-50.72829366 221.51929891 -52.93853409 219.33506478 -55.13313293 217.11709595 C-55.9653688 216.29186935 -56.79760468 215.46664276 -57.65505981 214.6164093 C-60.37878533 211.91016049 -63.08776631 209.18969641 -65.79597473 206.46792603 C-67.69726471 204.56933363 -69.59913788 202.67133997 -71.50158691 200.77391052 C-75.47680228 196.80594307 -79.44357634 192.82968378 -83.40559387 188.84854126 C-87.96976511 184.26259179 -92.54818689 179.69124934 -97.13424522 175.12719554 C-101.09095368 171.18870499 -105.03973176 167.24239066 -108.98212022 163.28956586 C-111.32827342 160.93721462 -113.6777365 158.58837515 -116.03284645 156.24498558 C-118.65813126 153.62990707 -121.27017399 151.00226272 -123.87922668 148.3710022 C-124.64970337 147.60862244 -125.42018005 146.84624268 -126.21400452 146.0607605 C-135.06690766 137.06840332 -140.16455912 126.90234375 -140.62019348 114.17495728 C-140.17152962 98.28477888 -131.61184416 88.69620858 -120.89924622 77.92837524 C-120.1014122 77.11900513 -119.30357819 76.30963501 -118.48156738 75.47573853 C-115.86543724 72.82556695 -113.24170046 70.18311856 -110.61628723 67.54214478 C-109.71344561 66.63240025 -108.81060398 65.72265572 -107.88040352 64.78534317 C-103.59424599 60.46713265 -99.30433918 56.15272565 -95.00826019 51.84438598 C-90.0853885 46.90727172 -85.17769292 41.95569853 -80.28250927 36.99113357 C-76.01085594 32.66108136 -71.71975747 28.35076943 -67.4216938 24.04693985 C-65.61029994 22.22769491 -63.80473932 20.40262099 -62.00541496 18.57143784 C-45.67012547 1.96607556 -23.83889431 -15.83704517 0 0 Z M-25.93728638 47.05570984 C-26.59399826 47.71961227 -27.25071014 48.38351471 -27.92732239 49.0675354 C-28.62011795 49.76003891 -29.31291351 50.45254242 -30.02670288 51.16603088 C-32.32565668 53.46638299 -34.61743714 55.77374836 -36.90925598 58.08120728 C-38.49779968 59.67347932 -40.08678423 61.26531168 -41.67619324 62.85671997 C-45.86619606 67.05437329 -50.05015938 71.25799727 -54.23292542 75.46286011 C-58.49903319 79.74939585 -62.77078086 84.03030278 -67.04206848 88.31167603 C-75.42783057 96.71891299 -83.80722802 105.13246343 -92.18269348 113.54995728 C-90.88970453 116.39369754 -89.5322945 118.44890026 -87.32267761 120.65048218 C-86.73935165 121.23655746 -86.1560257 121.82263275 -85.55502319 122.4264679 C-84.59800758 123.37269768 -84.59800758 123.37269768 -83.62165833 124.33804321 C-82.9483699 125.01162369 -82.27508148 125.68520416 -81.58139038 126.37919617 C-79.35684545 128.60234881 -77.12530219 130.8183352 -74.89363098 133.03433228 C-73.34905686 134.57517592 -71.80492398 136.116462 -70.26121521 137.65817261 C-66.1984065 141.71334765 -62.12962726 145.76248052 -58.05958557 149.81039429 C-53.90690242 153.94261339 -49.75988005 158.08050485 -45.61238098 162.21792603 C-37.47468951 170.33417226 -29.33068079 178.4440481 -21.18269348 186.54995728 C-16.39795251 184.95504362 -13.81846013 181.32877142 -10.68269348 177.48745728 C-8.34230956 174.73750617 -6.02361 172.75166758 -3.18269348 170.54995728 C-0.32103267 167.8350483 2.29176864 165.01035172 4.81730652 161.98745728 C7.24925797 159.10767844 9.8228526 156.85338337 12.81730652 154.54995728 C15.67896733 151.8350483 18.29176864 149.01035172 20.81730652 145.98745728 C23.24925797 143.10767844 25.8228526 140.85338337 28.81730652 138.54995728 C31.67896733 135.8350483 34.29176864 133.01035172 36.81730652 129.98745728 C38.56722015 127.91249607 40.11397963 126.31414018 42.25480652 124.61245728 C45.91176308 121.66905321 48.80064671 118.13169745 51.81730652 114.54995728 C50.53668167 112.84245748 49.19963095 111.17622131 47.81730652 109.54995728 C47.15730652 109.54995728 46.49730652 109.54995728 45.81730652 109.54995728 C45.47699402 108.71464478 45.47699402 108.71464478 45.12980652 107.86245728 C43.44180616 104.8883614 41.35054135 102.82986863 38.81730652 100.54995728 C38.15730652 100.54995728 37.49730652 100.54995728 36.81730652 100.54995728 C36.54918152 99.95183228 36.28105652 99.35370728 36.00480652 98.73745728 C34.81813246 96.55147874 33.72131539 95.13663134 31.81730652 93.54995728 C31.15730652 93.54995728 30.49730652 93.54995728 29.81730652 93.54995728 C29.59043152 92.99308228 29.36355652 92.43620728 29.12980652 91.86245728 C27.44180616 88.8883614 25.35054135 86.82986863 22.81730652 84.54995728 C22.15730652 84.54995728 21.49730652 84.54995728 20.81730652 84.54995728 C20.54918152 83.95183228 20.28105652 83.35370728 20.00480652 82.73745728 C18.81813246 80.55147874 17.72131539 79.13663134 15.81730652 77.54995728 C15.15730652 77.54995728 14.49730652 77.54995728 13.81730652 77.54995728 C13.59043152 76.99308228 13.36355652 76.43620728 13.12980652 75.86245728 C11.44180616 72.8883614 9.35054135 70.82986863 6.81730652 68.54995728 C6.15730652 68.54995728 5.49730652 68.54995728 4.81730652 68.54995728 C4.41511902 67.65276978 4.41511902 67.65276978 4.00480652 66.73745728 C2.81813246 64.55147874 1.72131539 63.13663134 -0.18269348 61.54995728 C-0.84269348 61.54995728 -1.50269348 61.54995728 -2.18269348 61.54995728 C-2.40956848 60.99308228 -2.63644348 60.43620728 -2.87019348 59.86245728 C-4.55819384 56.8883614 -6.64945865 54.82986863 -9.18269348 52.54995728 C-9.84269348 52.54995728 -10.50269348 52.54995728 -11.18269348 52.54995728 C-11.58488098 51.65276978 -11.58488098 51.65276978 -11.99519348 50.73745728 C-13.18186754 48.55147874 -14.27868461 47.13663134 -16.18269348 45.54995728 C-16.84269348 45.54995728 -17.50269348 45.54995728 -18.18269348 45.54995728 C-18.67769348 44.06495728 -18.67769348 44.06495728 -19.18269348 42.54995728 C-22.41176517 42.54995728 -23.77243856 44.90077927 -25.93728638 47.05570984 Z " fill="#FFFFFF" transform="translate(922.1826934814453,178.45004272460938)"/>
<path d="M0 0 C6.39037231 -0.02527062 12.78073183 -0.04283317 19.17114258 -0.05493164 C21.34692873 -0.05997308 23.52271147 -0.06680607 25.69848633 -0.07543945 C28.81853067 -0.08751338 31.93853038 -0.09323005 35.05859375 -0.09765625 C36.52733192 -0.10539818 36.52733192 -0.10539818 38.02574158 -0.11329651 C38.92659988 -0.11337204 39.82745819 -0.11344757 40.75561523 -0.11352539 C41.95141457 -0.11685631 41.95141457 -0.11685631 43.17137146 -0.12025452 C45 0 45 0 46 1 C46.27615058 2.59987236 46.52007625 4.205333 46.75 5.8125 C51.59548793 33.15236987 76.1188569 57.75771446 97.94921875 73.27734375 C110.05596771 81.57417413 122.8681169 87.96231911 137 92 C137 106.85 137 121.7 137 137 C133.04 138.32 129.08 139.64 125 141 C122.26421519 142.29118816 119.72133099 143.55338906 117.125 145.0625 C116.45283447 145.44897705 115.78066895 145.8354541 115.08813477 146.23364258 C84.28455841 164.44053009 57.54221698 194.55408804 45 228 C30.15 228 15.3 228 0 228 C-1.65 223.38 -3.3 218.76 -5 214 C-6.36134806 211.28972493 -7.64370109 208.8419803 -9.25 206.3125 C-9.63349609 205.69221924 -10.01699219 205.07193848 -10.41210938 204.43286133 C-15.98461172 195.61844439 -22.92305886 187.95083935 -29.95703125 180.2890625 C-31.36773996 178.70842139 -32.72489845 177.07891982 -34.03515625 175.4140625 C-35.79088616 173.25692317 -37.50580626 171.53553345 -39.625 169.75 C-41.85729774 167.85295576 -44.05143662 165.95132879 -46.1796875 163.9375 C-58.93606682 151.91128381 -74.06945933 141.83729734 -91 137 C-91 122.15 -91 107.3 -91 92 C-88.03 91.01 -85.06 90.02 -82 89 C-58.88248321 80.16094946 -37.48228016 64.34415229 -22 45 C-21.29230469 44.11828125 -20.58460938 43.2365625 -19.85546875 42.328125 C-9.7559479 29.32090564 -2.66841645 16.45262009 0 0 Z M22 62 C21.01106033 63.27764973 20.02754363 64.55979039 19.06860352 65.86010742 C4.53624244 85.55576414 -13.3777914 100.61134153 -33 115 C-29.15340042 118.94878629 -25.12048724 122.59891391 -20.9375 126.1875 C-20.32583984 126.72052734 -19.71417969 127.25355469 -19.08398438 127.80273438 C-18.48779297 128.31513672 -17.89160156 128.82753906 -17.27734375 129.35546875 C-16.47671509 130.04612427 -16.47671509 130.04612427 -15.65991211 130.75073242 C-13.86345108 132.10276817 -12.03518547 133.05367889 -10 134 C-10 134.66 -10 135.32 -10 136 C-8.6137221 137.36166096 -8.6137221 137.36166096 -6.75 138.8125 C4.5080198 148.44524229 13.35323493 160.05703903 22 172 C25.2864904 168.7993935 28.27490156 165.52992446 31.125 161.9375 C43.02105918 147.27354587 56.19479405 133.72176878 71 122 C73.35255873 120.0210588 75.67680038 118.01343967 78 116 C74.51400492 112.36580181 70.85770044 109.25371227 66.8125 106.25 C51.09191828 94.3140844 36.28839255 80.25610931 24.6875 64.24609375 C24.130625 63.50488281 23.57375 62.76367188 23 62 C22.67 62 22.34 62 22 62 Z " fill="#FFFFFF" transform="translate(720,20)"/>
<path d="M0 0 C7.13451283 -0.20331468 14.26827573 -0.34313416 21.4050293 -0.43945312 C23.83109451 -0.47961494 26.25696693 -0.53415755 28.68237305 -0.60351562 C32.17545144 -0.70088366 35.66596566 -0.74600092 39.16015625 -0.78125 C40.23959 -0.82254028 41.31902374 -0.86383057 42.4311676 -0.90637207 C49.84961027 -0.91076448 49.84961027 -0.91076448 53.19747925 1.73974609 C54.96028221 3.74904306 56.48221785 5.80306384 58 8 C59.64694485 9.68615782 61.31126121 11.35570171 63 13 C64.175625 14.2065625 64.175625 14.2065625 65.375 15.4375 C66.24125 16.283125 67.1075 17.12875 68 18 C68.71110931 18.76274986 68.71110931 18.76274986 69.43658447 19.54090881 C73.55194296 23.597171 76.52600761 24.68668794 82.27215576 24.70542908 C83.16718811 24.67759842 84.06222046 24.64976776 84.984375 24.62109375 C85.92178528 24.61497574 86.85919556 24.60885773 87.82501221 24.60255432 C90.80112835 24.57574651 93.77459891 24.50664495 96.75 24.4375 C98.76429624 24.41596105 100.77862245 24.39705397 102.79296875 24.38085938 C106.47009871 24.33882878 110.14682422 24.2933635 113.82324219 24.20874023 C114.5593573 24.19286362 115.29547241 24.176987 116.05389404 24.16062927 C118.21650737 24.05956323 118.21650737 24.05956323 121 23 C121.495 21.515 121.495 21.515 122 20 C123.41796875 18.640625 123.41796875 18.640625 125.1875 17.25 C128.47474125 14.55797938 131.10862464 11.64880936 133.73828125 8.3203125 C134.15464844 7.88460938 134.57101562 7.44890625 135 7 C135.66 7 136.32 7 137 7 C137.33 6.01 137.66 5.02 138 4 C140.03166521 1.48115667 141.20181484 0.15883891 144.41717529 -0.48101807 C145.31430237 -0.47213562 146.21142944 -0.46325317 147.13574219 -0.45410156 C148.66687653 -0.45364838 148.66687653 -0.45364838 150.22894287 -0.45318604 C151.32386047 -0.43254089 152.41877808 -0.41189575 153.546875 -0.390625 C154.6732135 -0.38496521 155.799552 -0.37930542 156.96002197 -0.37347412 C160.55711382 -0.35108545 164.15320926 -0.30088213 167.75 -0.25 C170.1887877 -0.22993833 172.62759101 -0.21168698 175.06640625 -0.1953125 C181.04461074 -0.15121244 187.02223419 -0.08427463 193 0 C194.1079683 9.3822099 193.65231889 15.82899661 187.88062954 23.53028202 C186.48697838 25.28973224 185.05138396 27.00476719 183.59765625 28.71484375 C183.09439253 29.32123751 182.59112881 29.92763126 182.07261467 30.55240059 C178.22251384 35.1617114 174.19996471 39.58529467 170.0625 43.9375 C169.45846344 44.57353149 168.85442688 45.20956299 168.23208618 45.86486816 C149.01931468 65.82851278 129.83427935 77.1023381 101.71502686 77.96166992 C72.72400922 78.34725174 51.56670266 71.84829048 30.3984375 51.58007812 C27.86716219 49.07345313 25.39060365 46.52054096 22.9375 43.9375 C22.33346344 43.30211304 21.72942688 42.66672607 21.10708618 42.01208496 C17.05420778 37.70106797 13.18072182 33.26749631 9.40234375 28.71484375 C8.90865232 28.13409529 8.4149609 27.55334682 7.90630913 26.95499992 C1.34451479 19.09916885 -1.01716962 13.0644596 -0.33055115 2.79908752 C-0.22146927 1.87538864 -0.11238739 0.95168976 0 0 Z " fill="#FFFFFF" transform="translate(805,0)"/>
<path d="M0 0 C6.86783733 -0.22855169 13.73469243 -0.38594448 20.60546875 -0.49438477 C22.94145346 -0.53959424 25.27718419 -0.60097605 27.61230469 -0.67895508 C30.97394395 -0.78838716 34.33221486 -0.83921873 37.6953125 -0.87890625 C39.25658371 -0.9485836 39.25658371 -0.9485836 40.84939575 -1.01966858 C43.82281857 -1.02172991 46.17037048 -0.92228101 49 0 C51.06721732 2.09478858 52.3726898 4.11016561 53.74313354 6.70814514 C58.67680837 15.70453977 70.51402845 21.08887931 79.99609375 23.8828125 C82.67520404 24.42243471 85.27718265 24.7765469 88 25 C88.80695313 25.06960937 89.61390625 25.13921875 90.4453125 25.2109375 C105.91071562 25.8574013 118.50855493 19.61346935 129.7109375 9.44140625 C131.96432984 7.25296106 131.96432984 7.25296106 132.92329407 5.25436401 C134.09526578 3.11098014 135.16117498 1.62041409 137 0 C140.73808644 -0.98427014 144.36412664 -0.81632714 148.20703125 -0.68359375 C149.28756271 -0.67368912 150.36809418 -0.66378448 151.48136902 -0.65357971 C154.92647051 -0.61445012 158.36836465 -0.52662424 161.8125 -0.4375 C164.15034455 -0.40238459 166.48823914 -0.37044601 168.82617188 -0.34179688 C174.55187223 -0.26469328 180.27570701 -0.14761787 186 0 C181.09946259 15.41803598 174.98941628 27.79795847 164 40 C163.31421875 40.76828125 162.6284375 41.5365625 161.921875 42.328125 C145.72575413 59.48401599 122.55481898 70.35427688 98.91796875 71.23828125 C69.22329979 71.81371914 44.87951077 62.93910932 23 42.375 C12.97170068 31.98203525 3.9678554 18.53891413 0.9140625 4.27075195 C0.65423584 3.06742973 0.65423584 3.06742973 0.38916016 1.83979797 C0.2607373 1.23266464 0.13231445 0.62553131 0 0 Z " fill="#FFFFFF" transform="translate(491,0)"/>
<path d="M0 0 C0 49.5 0 99 0 150 C-20.61623398 132.3289423 -33.18916548 110.07456456 -35.65625 82.8359375 C-37.5926761 56.21007857 -29.30078315 31.30841531 -12 11 C-1.88611111 0 -1.88611111 0 0 0 Z " fill="#FFFFFF" transform="translate(1000,59)"/>
<path d="M0 0 C5.43554767 59.9849456 5.43554767 59.9849456 -6.46875 74.82421875 C-15.63213953 85.18169746 -29.11370311 97.03057556 -43.41015625 98.0625 C-50.56613922 97.88980659 -56.07545158 95.0390728 -61 90 C-64.17365728 85.38192178 -66.1427139 81.00474956 -66.3125 75.375 C-66.34988281 74.57835937 -66.38726563 73.78171875 -66.42578125 72.9609375 C-65.32695177 65.31953615 -61.38279607 59.63890948 -55.9621582 54.37866211 C-55.36821259 53.78238007 -54.77426697 53.18609802 -54.162323 52.57174683 C-52.22023268 50.62805745 -50.26103256 48.70270103 -48.30078125 46.77734375 C-46.94023805 45.42359687 -45.58073103 44.06880788 -44.22221375 42.71302795 C-41.3859666 39.88741624 -38.54193802 37.06998519 -35.69116211 34.2590332 C-32.0287136 30.64774192 -28.37950276 27.02344079 -24.73511982 23.39392757 C-21.26091254 19.93446229 -17.78148591 16.48027027 -14.30078125 13.02734375 C-13.63406214 12.36553541 -12.96734303 11.70372707 -12.2804203 11.02186394 C-10.40632304 9.16395403 -8.5286837 7.30971102 -6.6496582 5.45678711 C-6.08914261 4.90053146 -5.52862701 4.34427582 -4.9511261 3.77116394 C-1.11512796 0 -1.11512796 0 0 0 Z " fill="#FFFFFF" transform="translate(1000,377)"/>
<path d="M0 0 C0.33 0 0.66 0 1 0 C1 14.52 1 29.04 1 44 C-6.90681818 39.48181818 -6.90681818 39.48181818 -9.375 35.5 C-9.85710938 34.7471875 -10.33921875 33.994375 -10.8359375 33.21875 C-13.89417658 27.38962316 -13.5733996 21.37005167 -12.0625 15.125 C-9.60396266 9.09258887 -4.5352785 4.5352785 0 0 Z " fill="#FFFFFF" transform="translate(999,481)"/>
</svg>
