<svg version="1.2" xmlns="http://www.w3.org/2000/svg" viewBox="0 0 400 267" width="400" height="267">
	<style>
		.s0 { fill: #588157 } 
		.s1 { fill: #3a5a40 } 
	</style>
	<path id="Path 0" class="s0" d="m0.01 85.86l0.01 85.85c1.14-1.55 2.92-3.8 4.69-6 1.77-2.21 4.33-5.2 5.67-6.66 1.35-1.45 3.73-3.71 5.29-5.01 1.55-1.3 3.73-2.91 4.83-3.59 1.1-0.67 3.05-1.62 4.33-2.11 1.29-0.49 3.61-1.17 5.17-1.53 1.56-0.35 4.63-0.73 6.83-0.84 2.84-0.14 5.12-0.04 7.84 0.34 2.1 0.29 5.33 0.92 7.16 1.4 1.84 0.48 4.76 1.39 6.5 2.04 1.74 0.65 4.97 2.03 7.17 3.08 2.2 1.05 5.65 2.85 7.67 4.01 2.01 1.16 5.69 3.47 8.16 5.12 2.48 1.66 6.23 4.32 8.34 5.92 2.1 1.59 5.55 4.31 7.66 6.03 2.11 1.73 7.29 6.13 11.5 9.79 4.22 3.65 8.42 7.21 9.34 7.91 0.91 0.69 2.64 1.63 3.83 2.08 1.19 0.45 3.29 0.98 4.67 1.17 1.65 0.23 3.35 0.24 5 0.03 1.37-0.17 3.25-0.56 4.16-0.86 0.92-0.29 2.79-1.12 4.17-1.83 1.37-0.71 3.77-2.25 5.33-3.43 1.56-1.17 4.72-4.07 7.03-6.42 2.3-2.36 5.62-6.1 7.36-8.3 1.75-2.2 4.8-6.26 6.77-9.01 1.97-2.75 8.02-11.69 13.43-19.86 5.41-8.17 11.35-17.03 13.19-19.69 1.84-2.66 5.24-7.39 7.56-10.51 2.31-3.12 5.92-7.78 8.01-10.35 2.09-2.57 6.66-7.54 10.15-11.05 3.48-3.51 7.76-7.51 9.5-8.9 1.74-1.38 4.67-3.52 6.5-4.75 1.84-1.22 5.29-3.19 7.67-4.37 2.38-1.18 5.68-2.59 7.33-3.13 1.65-0.55 4.28-1.29 5.84-1.66 1.55-0.37 4.71-0.85 7-1.07 3.2-0.31 5.17-0.31 8.5-0.01 2.38 0.22 5.83 0.71 7.66 1.09 1.84 0.38 4.99 1.22 7 1.87 2.02 0.65 5.24 1.82 7.17 2.6 1.92 0.79 4.92 2.14 6.67 3.01 1.74 0.88 4.36 2.28 5.83 3.11 1.47 0.84 4.39 2.64 6.5 4 2.11 1.37 6.08 4.17 8.83 6.24 2.75 2.06 7.25 5.68 10 8.04 2.75 2.36 8.54 7.82 12.86 12.14 4.32 4.32 9.79 10.04 12.15 12.7 2.36 2.66 6.41 7.39 8.99 10.51 2.59 3.12 5.83 7.1 7.21 8.85 1.38 1.74 4.76 6.17 7.51 9.84 2.75 3.67 6.8 9.23 9.01 12.35 2.21 3.12 5.69 8.15 7.74 11.18l3.72 5.51-0.02-182.73h-400z"/>
	<path id="Path 1" class="s1" d="m112.17 102.58c-0.92 0.22-2.57 0.84-3.67 1.37-1.22 0.59-2.85 1.82-4.2 3.16-1.44 1.44-2.55 2.94-3.23 4.36-0.57 1.2-1.22 3.3-1.45 4.67-0.34 2-0.34 3.05-0.01 5.18 0.24 1.58 0.83 3.55 1.45 4.84 0.68 1.4 1.82 2.94 3.24 4.37q2.2 2.19 4.37 3.21c1.19 0.57 2.95 1.19 3.91 1.39 0.97 0.21 2.43 0.37 3.25 0.37 0.83 0 2.29-0.16 3.25-0.37 0.97-0.2 2.69-0.8 3.84-1.33 1.14-0.53 2.94-1.78 4-2.77 1.05-0.99 2.44-2.67 3.08-3.74 0.64-1.07 1.42-2.93 1.73-4.13 0.31-1.2 0.56-3.15 0.56-4.35 0-1.19-0.25-3.14-0.56-4.34-0.31-1.2-1.09-3.06-1.73-4.13-0.64-1.07-2.07-2.77-3.17-3.79-1.1-1.01-2.71-2.2-3.58-2.63-0.87-0.44-2.52-1.01-3.67-1.29-1.14-0.27-2.91-0.48-3.91-0.47-1.01 0.01-2.59 0.2-3.5 0.42z"/>
	<path id="Path 2" class="s1" d="m261.33 69.79c-1.37 0.15-3.62 0.53-5 0.82-1.37 0.3-4.07 1.05-6 1.67-1.92 0.62-5.45 2.09-7.83 3.27-2.38 1.18-5.83 3.16-7.67 4.38-1.83 1.23-4.75 3.37-6.5 4.75-1.74 1.39-6.02 5.39-9.5 8.9-3.49 3.51-8.06 8.48-10.15 11.05-2.09 2.57-5.7 7.23-8.01 10.35-2.32 3.12-5.72 7.85-7.56 10.51-1.84 2.66-7.78 11.52-13.19 19.69-5.41 8.17-11.46 17.11-13.43 19.86-1.97 2.75-5.02 6.81-6.77 9.01-1.74 2.2-5.06 5.94-7.36 8.3-2.31 2.35-5.47 5.25-7.03 6.42-1.56 1.18-3.95 2.72-5.33 3.43-1.37 0.71-3.25 1.54-4.17 1.83-0.91 0.3-2.79 0.69-4.16 0.86-1.65 0.21-3.35 0.2-5-0.03-1.38-0.19-3.48-0.72-4.67-1.17-1.19-0.45-2.92-1.39-3.83-2.08-0.92-0.7-5.12-4.26-9.34-7.91-4.21-3.66-9.39-8.06-11.5-9.79-2.1-1.72-5.55-4.44-7.66-6.03-2.11-1.6-5.86-4.26-8.34-5.92-2.47-1.65-6.15-3.96-8.16-5.12-2.02-1.16-5.47-2.96-7.67-4.01-2.2-1.05-5.42-2.43-7.17-3.08-1.74-0.65-4.66-1.56-6.5-2.04-1.83-0.48-5.05-1.11-7.16-1.4-2.72-0.38-5-0.48-7.84-0.34-2.2 0.11-5.27 0.49-6.83 0.84-1.56 0.36-3.88 1.04-5.17 1.53-1.28 0.48-3.38 1.54-4.66 2.35-1.29 0.8-3.6 2.56-5.15 3.9-1.55 1.34-4.23 4.02-5.95 5.94-1.72 1.93-4.46 5.24-6.1 7.35l-2.97 3.83v95.29h400l0.02-84.27c-5.77-8.54-9.25-13.57-11.46-16.69-2.21-3.12-6.26-8.68-9.01-12.35-2.75-3.67-6.13-8.1-7.51-9.84-1.38-1.75-4.62-5.73-7.21-8.85-2.58-3.12-6.63-7.85-8.99-10.51-2.36-2.66-7.83-8.38-12.15-12.7-4.32-4.32-10.11-9.78-12.86-12.14-2.75-2.36-7.25-5.98-10-8.04-2.75-2.07-6.72-4.87-8.83-6.24-2.11-1.36-5.03-3.16-6.5-4-1.47-0.83-4.09-2.23-5.83-3.11-1.75-0.87-4.75-2.22-6.67-3.01-1.92-0.78-5.15-1.95-7.17-2.6-2.01-0.65-5.16-1.49-7-1.86-1.83-0.38-4.75-0.84-6.5-1.02-1.74-0.19-4.36-0.32-5.83-0.3-1.47 0.02-3.79 0.16-5.17 0.32z"/>
</svg>