<svg xmlns="http://www.w3.org/2000/svg" viewBox="0 0 750 500"><g id="freepik--background-complete--inject-1031"><path d="M98.24,197.7h23.35a4.3,4.3,0,0,1,4.3,4.3v30.53a0,0,0,0,1,0,0h-32a0,0,0,0,1,0,0V202A4.3,4.3,0,0,1,98.24,197.7Z" style="fill:#ebebeb"></path><path d="M131.72,197.7h23.35a4.3,4.3,0,0,1,4.3,4.3v30.53a0,0,0,0,1,0,0h-32a0,0,0,0,1,0,0V202A4.3,4.3,0,0,1,131.72,197.7Z" style="fill:#ebebeb"></path><path d="M165.19,197.7h23.35a4.3,4.3,0,0,1,4.3,4.3v30.53a0,0,0,0,1,0,0h-32a0,0,0,0,1,0,0V202A4.3,4.3,0,0,1,165.19,197.7Z" style="fill:#ebebeb"></path><path d="M198.67,197.7H222a4.3,4.3,0,0,1,4.3,4.3v30.53a0,0,0,0,1,0,0h-32a0,0,0,0,1,0,0V202A4.3,4.3,0,0,1,198.67,197.7Z" style="fill:#ebebeb"></path><path d="M232.15,197.7h23.35a4.3,4.3,0,0,1,4.3,4.3v30.53a0,0,0,0,1,0,0h-32a0,0,0,0,1,0,0V202A4.3,4.3,0,0,1,232.15,197.7Z" style="fill:#ebebeb"></path><path d="M265.63,197.7H289a4.3,4.3,0,0,1,4.3,4.3v30.53a0,0,0,0,1,0,0h-32a0,0,0,0,1,0,0V202A4.3,4.3,0,0,1,265.63,197.7Z" style="fill:#ebebeb"></path><path d="M299.11,197.7h23.35a4.3,4.3,0,0,1,4.3,4.3v30.53a0,0,0,0,1,0,0h-32a0,0,0,0,1,0,0V202A4.3,4.3,0,0,1,299.11,197.7Z" style="fill:#ebebeb"></path><path d="M332.59,197.7h23.35a4.3,4.3,0,0,1,4.3,4.3v30.53a0,0,0,0,1,0,0h-32a0,0,0,0,1,0,0V202A4.3,4.3,0,0,1,332.59,197.7Z" style="fill:#ebebeb"></path><path d="M366.07,197.7h23.35a4.3,4.3,0,0,1,4.3,4.3v30.53a0,0,0,0,1,0,0h-32a0,0,0,0,1,0,0V202A4.3,4.3,0,0,1,366.07,197.7Z" style="fill:#ebebeb"></path><path d="M399.55,197.7H422.9a4.3,4.3,0,0,1,4.3,4.3v30.53a0,0,0,0,1,0,0h-32a0,0,0,0,1,0,0V202A4.3,4.3,0,0,1,399.55,197.7Z" style="fill:#ebebeb"></path><path d="M433,197.7h23.35a4.3,4.3,0,0,1,4.3,4.3v30.53a0,0,0,0,1,0,0h-32a0,0,0,0,1,0,0V202A4.3,4.3,0,0,1,433,197.7Z" style="fill:#ebebeb"></path><path d="M466.5,197.7h23.35a4.3,4.3,0,0,1,4.3,4.3v30.53a0,0,0,0,1,0,0h-32a0,0,0,0,1,0,0V202A4.3,4.3,0,0,1,466.5,197.7Z" style="fill:#ebebeb"></path><path d="M500,197.7h23.35a4.3,4.3,0,0,1,4.3,4.3v30.53a0,0,0,0,1,0,0h-32a0,0,0,0,1,0,0V202A4.3,4.3,0,0,1,500,197.7Z" style="fill:#ebebeb"></path><path d="M533.46,197.7h23.35a4.3,4.3,0,0,1,4.3,4.3v30.53a0,0,0,0,1,0,0h-32a0,0,0,0,1,0,0V202A4.3,4.3,0,0,1,533.46,197.7Z" style="fill:#ebebeb"></path><path d="M566.94,197.7H590.3a4.3,4.3,0,0,1,4.3,4.3v30.53a0,0,0,0,1,0,0h-32a0,0,0,0,1,0,0V202A4.3,4.3,0,0,1,566.94,197.7Z" style="fill:#ebebeb"></path><path d="M600.42,197.7h23.35a4.3,4.3,0,0,1,4.3,4.3v30.53a0,0,0,0,1,0,0h-32a0,0,0,0,1,0,0V202A4.3,4.3,0,0,1,600.42,197.7Z" style="fill:#ebebeb"></path><path d="M633.9,197.7h23.35a4.3,4.3,0,0,1,4.3,4.3v30.53a0,0,0,0,1,0,0h-32a0,0,0,0,1,0,0V202A4.3,4.3,0,0,1,633.9,197.7Z" style="fill:#ebebeb"></path><path d="M81.44,211.68H104.8a4.3,4.3,0,0,1,4.3,4.3v29.16a0,0,0,0,1,0,0h-32a0,0,0,0,1,0,0V216A4.3,4.3,0,0,1,81.44,211.68Z" style="fill:#c7c7c7"></path><path d="M115,211.68h23.35a4.3,4.3,0,0,1,4.3,4.3v29.16a0,0,0,0,1,0,0h-32a0,0,0,0,1,0,0V216A4.3,4.3,0,0,1,115,211.68Z" style="fill:#c7c7c7"></path><path d="M148.5,211.68h23.35a4.3,4.3,0,0,1,4.3,4.3v29.16a0,0,0,0,1,0,0h-32a0,0,0,0,1,0,0V216A4.3,4.3,0,0,1,148.5,211.68Z" style="fill:#c7c7c7"></path><path d="M182,211.68h23.35a4.3,4.3,0,0,1,4.3,4.3v29.16a0,0,0,0,1,0,0h-32a0,0,0,0,1,0,0V216A4.3,4.3,0,0,1,182,211.68Z" style="fill:#c7c7c7"></path><path d="M215.57,211.68h23.35a4.3,4.3,0,0,1,4.3,4.3v29.16a0,0,0,0,1,0,0h-32a0,0,0,0,1,0,0V216A4.3,4.3,0,0,1,215.57,211.68Z" style="fill:#c7c7c7"></path><path d="M249.1,211.68h23.35a4.3,4.3,0,0,1,4.3,4.3v29.16a0,0,0,0,1,0,0h-32a0,0,0,0,1,0,0V216A4.3,4.3,0,0,1,249.1,211.68Z" style="fill:#c7c7c7"></path><path d="M282.63,211.68H306a4.3,4.3,0,0,1,4.3,4.3v29.16a0,0,0,0,1,0,0h-32a0,0,0,0,1,0,0V216A4.3,4.3,0,0,1,282.63,211.68Z" style="fill:#c7c7c7"></path><path d="M316.16,211.68h23.35a4.3,4.3,0,0,1,4.3,4.3v29.16a0,0,0,0,1,0,0h-32a0,0,0,0,1,0,0V216A4.3,4.3,0,0,1,316.16,211.68Z" style="fill:#c7c7c7"></path><path d="M349.69,211.68H373a4.3,4.3,0,0,1,4.3,4.3v29.16a0,0,0,0,1,0,0h-32a0,0,0,0,1,0,0V216A4.3,4.3,0,0,1,349.69,211.68Z" style="fill:#c7c7c7"></path><path d="M383.22,211.68h23.35a4.3,4.3,0,0,1,4.3,4.3v29.16a0,0,0,0,1,0,0h-32a0,0,0,0,1,0,0V216A4.3,4.3,0,0,1,383.22,211.68Z" style="fill:#c7c7c7"></path><path d="M416.75,211.68h23.35a4.3,4.3,0,0,1,4.3,4.3v29.16a0,0,0,0,1,0,0h-32a0,0,0,0,1,0,0V216A4.3,4.3,0,0,1,416.75,211.68Z" style="fill:#c7c7c7"></path><path d="M450.29,211.68h23.35a4.3,4.3,0,0,1,4.3,4.3v29.16a0,0,0,0,1,0,0H446a0,0,0,0,1,0,0V216A4.3,4.3,0,0,1,450.29,211.68Z" style="fill:#c7c7c7"></path><path d="M483.82,211.68h23.35a4.3,4.3,0,0,1,4.3,4.3v29.16a0,0,0,0,1,0,0h-32a0,0,0,0,1,0,0V216A4.3,4.3,0,0,1,483.82,211.68Z" style="fill:#c7c7c7"></path><path d="M517.35,211.68H540.7A4.3,4.3,0,0,1,545,216v29.16a0,0,0,0,1,0,0H513a0,0,0,0,1,0,0V216A4.3,4.3,0,0,1,517.35,211.68Z" style="fill:#c7c7c7"></path><path d="M550.88,211.68h23.35a4.3,4.3,0,0,1,4.3,4.3v29.16a0,0,0,0,1,0,0h-32a0,0,0,0,1,0,0V216A4.3,4.3,0,0,1,550.88,211.68Z" style="fill:#c7c7c7"></path><path d="M584.41,211.68h23.35a4.3,4.3,0,0,1,4.3,4.3v29.16a0,0,0,0,1,0,0h-32a0,0,0,0,1,0,0V216A4.3,4.3,0,0,1,584.41,211.68Z" style="fill:#c7c7c7"></path><path d="M617.94,211.68H641.3a4.3,4.3,0,0,1,4.3,4.3v29.16a0,0,0,0,1,0,0h-32a0,0,0,0,1,0,0V216A4.3,4.3,0,0,1,617.94,211.68Z" style="fill:#c7c7c7"></path><path d="M651.47,211.68h23.35a4.3,4.3,0,0,1,4.3,4.3v29.16a0,0,0,0,1,0,0h-32a0,0,0,0,1,0,0V216A4.3,4.3,0,0,1,651.47,211.68Z" style="fill:#c7c7c7"></path><path d="M98.24,224.89h23.35a4.3,4.3,0,0,1,4.3,4.3v30.53a0,0,0,0,1,0,0h-32a0,0,0,0,1,0,0V229.19A4.3,4.3,0,0,1,98.24,224.89Z" style="fill:#dbdbdb"></path><path d="M131.71,224.89h23.35a4.3,4.3,0,0,1,4.3,4.3v30.53a0,0,0,0,1,0,0h-32a0,0,0,0,1,0,0V229.19A4.3,4.3,0,0,1,131.71,224.89Z" style="fill:#dbdbdb"></path><path d="M165.19,224.89h23.35a4.3,4.3,0,0,1,4.3,4.3v30.53a0,0,0,0,1,0,0h-32a0,0,0,0,1,0,0V229.19A4.3,4.3,0,0,1,165.19,224.89Z" style="fill:#dbdbdb"></path><path d="M198.67,224.89H222a4.3,4.3,0,0,1,4.3,4.3v30.53a0,0,0,0,1,0,0h-32a0,0,0,0,1,0,0V229.19A4.3,4.3,0,0,1,198.67,224.89Z" style="fill:#dbdbdb"></path><path d="M232.15,224.89h23.35a4.3,4.3,0,0,1,4.3,4.3v30.53a0,0,0,0,1,0,0h-32a0,0,0,0,1,0,0V229.19A4.3,4.3,0,0,1,232.15,224.89Z" style="fill:#dbdbdb"></path><path d="M265.63,224.89H289a4.3,4.3,0,0,1,4.3,4.3v30.53a0,0,0,0,1,0,0h-32a0,0,0,0,1,0,0V229.19A4.3,4.3,0,0,1,265.63,224.89Z" style="fill:#dbdbdb"></path><path d="M299.11,224.89h23.35a4.3,4.3,0,0,1,4.3,4.3v30.53a0,0,0,0,1,0,0h-32a0,0,0,0,1,0,0V229.19A4.3,4.3,0,0,1,299.11,224.89Z" style="fill:#dbdbdb"></path><path d="M332.59,224.89h23.35a4.3,4.3,0,0,1,4.3,4.3v30.53a0,0,0,0,1,0,0h-32a0,0,0,0,1,0,0V229.19A4.3,4.3,0,0,1,332.59,224.89Z" style="fill:#dbdbdb"></path><path d="M366.07,224.89h23.35a4.3,4.3,0,0,1,4.3,4.3v30.53a0,0,0,0,1,0,0h-32a0,0,0,0,1,0,0V229.19A4.3,4.3,0,0,1,366.07,224.89Z" style="fill:#dbdbdb"></path><path d="M399.55,224.89H422.9a4.3,4.3,0,0,1,4.3,4.3v30.53a0,0,0,0,1,0,0h-32a0,0,0,0,1,0,0V229.19A4.3,4.3,0,0,1,399.55,224.89Z" style="fill:#dbdbdb"></path><path d="M433,224.89h23.35a4.3,4.3,0,0,1,4.3,4.3v30.53a0,0,0,0,1,0,0h-32a0,0,0,0,1,0,0V229.19A4.3,4.3,0,0,1,433,224.89Z" style="fill:#dbdbdb"></path><path d="M466.5,224.89h23.35a4.3,4.3,0,0,1,4.3,4.3v30.53a0,0,0,0,1,0,0h-32a0,0,0,0,1,0,0V229.19A4.3,4.3,0,0,1,466.5,224.89Z" style="fill:#dbdbdb"></path><path d="M500,224.89h23.35a4.3,4.3,0,0,1,4.3,4.3v30.53a0,0,0,0,1,0,0h-32a0,0,0,0,1,0,0V229.19A4.3,4.3,0,0,1,500,224.89Z" style="fill:#dbdbdb"></path><path d="M533.46,224.89h23.35a4.3,4.3,0,0,1,4.3,4.3v30.53a0,0,0,0,1,0,0h-32a0,0,0,0,1,0,0V229.19A4.3,4.3,0,0,1,533.46,224.89Z" style="fill:#dbdbdb"></path><path d="M566.94,224.89H590.3a4.3,4.3,0,0,1,4.3,4.3v30.53a0,0,0,0,1,0,0h-32a0,0,0,0,1,0,0V229.19A4.3,4.3,0,0,1,566.94,224.89Z" style="fill:#dbdbdb"></path><path d="M600.42,224.89h23.35a4.3,4.3,0,0,1,4.3,4.3v30.53a0,0,0,0,1,0,0h-32a0,0,0,0,1,0,0V229.19A4.3,4.3,0,0,1,600.42,224.89Z" style="fill:#dbdbdb"></path><path d="M633.9,224.89h23.35a4.3,4.3,0,0,1,4.3,4.3v30.53a0,0,0,0,1,0,0h-32a0,0,0,0,1,0,0V229.19A4.3,4.3,0,0,1,633.9,224.89Z" style="fill:#dbdbdb"></path><path d="M81.44,240.53H104.8a4.3,4.3,0,0,1,4.3,4.3v14.89a0,0,0,0,1,0,0h-32a0,0,0,0,1,0,0V244.83A4.3,4.3,0,0,1,81.44,240.53Z" style="fill:#ebebeb"></path><path d="M115,240.53h23.35a4.3,4.3,0,0,1,4.3,4.3v14.89a0,0,0,0,1,0,0h-32a0,0,0,0,1,0,0V244.83a4.3,4.3,0,0,1,4.3-4.3Z" style="fill:#ebebeb"></path><path d="M148.5,240.53h23.35a4.3,4.3,0,0,1,4.3,4.3v14.89a0,0,0,0,1,0,0h-32a0,0,0,0,1,0,0V244.83A4.3,4.3,0,0,1,148.5,240.53Z" style="fill:#ebebeb"></path><path d="M182,240.53h23.35a4.3,4.3,0,0,1,4.3,4.3v14.89a0,0,0,0,1,0,0h-32a0,0,0,0,1,0,0V244.83A4.3,4.3,0,0,1,182,240.53Z" style="fill:#ebebeb"></path><path d="M215.57,240.53h23.35a4.3,4.3,0,0,1,4.3,4.3v14.89a0,0,0,0,1,0,0h-32a0,0,0,0,1,0,0V244.83A4.3,4.3,0,0,1,215.57,240.53Z" style="fill:#ebebeb"></path><path d="M249.1,240.53h23.35a4.3,4.3,0,0,1,4.3,4.3v14.89a0,0,0,0,1,0,0h-32a0,0,0,0,1,0,0V244.83A4.3,4.3,0,0,1,249.1,240.53Z" style="fill:#ebebeb"></path><path d="M282.63,240.53H306a4.3,4.3,0,0,1,4.3,4.3v14.89a0,0,0,0,1,0,0h-32a0,0,0,0,1,0,0V244.83A4.3,4.3,0,0,1,282.63,240.53Z" style="fill:#ebebeb"></path><path d="M316.16,240.53h23.35a4.3,4.3,0,0,1,4.3,4.3v14.89a0,0,0,0,1,0,0h-32a0,0,0,0,1,0,0V244.83A4.3,4.3,0,0,1,316.16,240.53Z" style="fill:#ebebeb"></path><path d="M349.69,240.53H373a4.3,4.3,0,0,1,4.3,4.3v14.89a0,0,0,0,1,0,0h-32a0,0,0,0,1,0,0V244.83A4.3,4.3,0,0,1,349.69,240.53Z" style="fill:#ebebeb"></path><path d="M383.22,240.53h23.35a4.3,4.3,0,0,1,4.3,4.3v14.89a0,0,0,0,1,0,0h-32a0,0,0,0,1,0,0V244.83A4.3,4.3,0,0,1,383.22,240.53Z" style="fill:#ebebeb"></path><path d="M416.75,240.53h23.35a4.3,4.3,0,0,1,4.3,4.3v14.89a0,0,0,0,1,0,0h-32a0,0,0,0,1,0,0V244.83A4.3,4.3,0,0,1,416.75,240.53Z" style="fill:#ebebeb"></path><path d="M450.29,240.53h23.35a4.3,4.3,0,0,1,4.3,4.3v14.89a0,0,0,0,1,0,0H446a0,0,0,0,1,0,0V244.83A4.3,4.3,0,0,1,450.29,240.53Z" style="fill:#ebebeb"></path><path d="M483.82,240.53h23.35a4.3,4.3,0,0,1,4.3,4.3v14.89a0,0,0,0,1,0,0h-32a0,0,0,0,1,0,0V244.83A4.3,4.3,0,0,1,483.82,240.53Z" style="fill:#ebebeb"></path><path d="M517.35,240.53H540.7a4.3,4.3,0,0,1,4.3,4.3v14.89a0,0,0,0,1,0,0H513a0,0,0,0,1,0,0V244.83A4.3,4.3,0,0,1,517.35,240.53Z" style="fill:#ebebeb"></path><path d="M550.88,240.53h23.35a4.3,4.3,0,0,1,4.3,4.3v14.89a0,0,0,0,1,0,0h-32a0,0,0,0,1,0,0V244.83A4.3,4.3,0,0,1,550.88,240.53Z" style="fill:#ebebeb"></path><path d="M584.41,240.53h23.35a4.3,4.3,0,0,1,4.3,4.3v14.89a0,0,0,0,1,0,0h-32a0,0,0,0,1,0,0V244.83A4.3,4.3,0,0,1,584.41,240.53Z" style="fill:#ebebeb"></path><path d="M617.94,240.53H641.3a4.3,4.3,0,0,1,4.3,4.3v14.89a0,0,0,0,1,0,0h-32a0,0,0,0,1,0,0V244.83A4.3,4.3,0,0,1,617.94,240.53Z" style="fill:#ebebeb"></path><path d="M651.47,240.53h23.35a4.3,4.3,0,0,1,4.3,4.3v14.89a0,0,0,0,1,0,0h-32a0,0,0,0,1,0,0V244.83A4.3,4.3,0,0,1,651.47,240.53Z" style="fill:#ebebeb"></path><rect x="221.58" y="259.34" width="153.68" height="59.8" style="fill:#dbdbdb"></rect><rect x="528.42" y="259.34" width="153.68" height="59.8" style="fill:#dbdbdb"></rect><rect x="375.26" y="259.34" width="153.68" height="59.8" style="fill:#ebebeb"></rect><ellipse cx="452.1" cy="289.25" rx="58.75" ry="17.25" transform="translate(-39.02 72.78) rotate(-8.82)" style="fill:#dbdbdb"></ellipse><rect x="67.9" y="259.34" width="153.68" height="59.8" style="fill:#ebebeb"></rect><ellipse cx="144.74" cy="289.25" rx="58.75" ry="17.25" transform="translate(-42.66 25.63) rotate(-8.82)" style="fill:#dbdbdb"></ellipse><path d="M154.24,85l-89.85-.14s4.47-5.81,9.4-6.52c0,0,9.62-28.51,25.66-28.68,14.91-.17,20.86,17.56,20.86,17.56s6.92-7.94,13.51-4.29S144.14,77,144.14,77,151.55,81,154.24,85Z" style="fill:#ebebeb"></path><path d="M572,153.37l113.62.17s0-7.26-15.64-8.71c0,0-14.24-31.75-36.07-27.52-13.59,2.64-20.56,21.28-20.56,21.28s-10.25-14.7-18.46-11.87-13.12,18.45-13.12,18.45S573.28,149.26,572,153.37Z" style="fill:#ebebeb"></path><path d="M275.77,140.24l77.26.12s-7.28-6.8-10.52-6.8-12.67-22.81-24.75-21.85-18.53,17.9-18.53,17.9S284.55,125,275.77,140.24Z" style="fill:#ebebeb"></path><path d="M92.9,183.67l77.26.12s-7.28-6.8-10.52-6.8-12.67-22.8-24.75-21.85S116.36,173,116.36,173,101.68,168.41,92.9,183.67Z" style="fill:#ebebeb"></path><path d="M412.51,101.75l66.07.1s-3.28-4.28-6.9-4.82c0,0-7-21-18.8-21.15-11-.16-15.38,12.87-15.38,12.87s-5.07-5.85-9.92-3.19S420,95.88,420,95.88,414.5,98.81,412.51,101.75Z" style="fill:#ebebeb"></path><path d="M484.94,177.45l66.07.1s-3.28-4.28-6.9-4.82c0,0-7-21-18.8-21.15-11-.16-15.38,12.87-15.38,12.87s-5.07-5.85-9.93-3.19-7.61,10.32-7.61,10.32S486.92,174.51,484.94,177.45Z" style="fill:#ebebeb"></path><polygon points="67.99 446.54 59.73 446.54 170.22 319.3 175.47 319.3 67.99 446.54" style="fill:#ebebeb"></polygon><polygon points="225.61 446.54 217.35 446.54 270.32 319.3 275.56 319.3 225.61 446.54" style="fill:#ebebeb"></polygon><polygon points="383.22 446.54 374.96 446.54 370.42 319.3 375.66 319.3 383.22 446.54" style="fill:#ebebeb"></polygon><polygon points="540.84 446.54 532.58 446.54 470.52 319.3 475.76 319.3 540.84 446.54" style="fill:#ebebeb"></polygon><polygon points="698.45 446.54 690.19 446.54 570.62 319.3 575.86 319.3 698.45 446.54" style="fill:#ebebeb"></polygon></g><g id="freepik--Shadow--inject-1031"><ellipse cx="375" cy="439.02" rx="233.99" ry="18.89" style="fill:#ebebeb"></ellipse></g><g id="freepik--Ball--inject-1031"><path d="M348.32,59.81a1.07,1.07,0,0,1,.4,1.28c-1.48,3.9-8.86,21.12-25.86,26.4S290,82.78,286.59,80.4a1.08,1.08,0,0,1-.39-1.28c1.47-3.9,8.86-21.12,25.85-26.41S344.9,57.43,348.32,59.81Z" style="fill:#ECEFF1"></path><path d="M348.75,60.38a1.12,1.12,0,0,1,0,.63c-.18.49-.47,1.22-.86,2.12l-.45,1c-.29.62-.62,1.29-1,2-.07.13-.15.28-.22.43-.39.71-.81,1.47-1.28,2.26l-.28.48a51.25,51.25,0,0,1-3.06,4.48c-.13.17-.26.35-.39.51s-.27.35-.41.51c-.69.86-1.43,1.72-2.21,2.55l-.47.51c-.81.83-1.66,1.65-2.58,2.44-.17.16-.36.31-.55.48-.37.31-.75.62-1.14.92l-.58.45-.6.43c-.32.23-.64.46-1,.68l-.72.47-.73.45-.66.39c-.73.41-1.49.81-2.27,1.18l-.66.31-.59.25-.6.26-.85.33-.87.31-.9.29c-.29.1-.6.18-.9.27l-.89.23-.9.22-.63.13c-.21,0-.42.09-.63.12s-.48.08-.72.12c-.85.14-1.7.24-2.54.31l-.76.06L314,89l-.86,0h-1.92l-.74,0c-.49,0-1-.07-1.46-.12-.25,0-.49,0-.72-.08-1.2-.13-2.37-.32-3.51-.55l-.68-.15c-1.11-.24-2.21-.53-3.26-.85l-.63-.19-.61-.19a53.62,53.62,0,0,1-5.06-2l-.5-.23c-.84-.39-1.62-.78-2.34-1.15l-.42-.22c-.72-.39-1.37-.76-2-1.1l-.92-.55c-.84-.52-1.48-1-1.91-1.26a1.09,1.09,0,0,1-.36-.52Z" style="opacity:0.1"></path><rect x="301.18" y="69.17" width="32.56" height="1.87" transform="translate(-6.5 97.39) rotate(-17.27)" style="fill:#fff"></rect><rect x="303.24" y="71.85" width="1.13" height="5" transform="translate(-8.38 93.51) rotate(-17.26)" style="fill:#fff"></rect><rect x="305.97" y="71" width="1.13" height="5" transform="translate(-8 94.31) rotate(-17.27)" style="fill:#fff"></rect><rect x="308.7" y="70.15" width="1.13" height="5" transform="translate(-7.63 95.09) rotate(-17.27)" style="fill:#fff"></rect><rect x="311.43" y="69.3" width="1.13" height="5" transform="translate(-7.25 95.85) rotate(-17.27)" style="fill:#fff"></rect><rect x="314.16" y="68.45" width="1.13" height="5" transform="translate(-6.88 96.59) rotate(-17.26)" style="fill:#fff"></rect><rect x="316.9" y="67.6" width="1.13" height="5" transform="translate(-6.5 97.39) rotate(-17.27)" style="fill:#fff"></rect><rect x="319.63" y="66.75" width="1.13" height="5" transform="translate(-6.13 98.17) rotate(-17.27)" style="fill:#fff"></rect><rect x="322.36" y="65.9" width="1.13" height="5" transform="matrix(0.95, -0.3, 0.3, 0.95, -5.75, 98.95)" style="fill:#fff"></rect><rect x="325.09" y="65.06" width="1.13" height="5" transform="translate(-5.38 99.68) rotate(-17.26)" style="fill:#fff"></rect><rect x="327.82" y="64.21" width="1.13" height="5" transform="translate(-5 100.48) rotate(-17.27)" style="fill:#fff"></rect><rect x="330.55" y="63.36" width="1.13" height="5" transform="translate(-4.63 101.26) rotate(-17.27)" style="fill:#fff"></rect><path d="M294.34,65.13l6.89,22.18a49.6,49.6,0,0,1-6-2.18l-4.59-14.79A48.69,48.69,0,0,1,294.34,65.13Z" style="fill:#fff"></path><path d="M339.72,55.08l4.59,14.78a49.18,49.18,0,0,1-3.73,5.22L333.69,52.9A49.6,49.6,0,0,1,339.72,55.08Z" style="fill:#fff"></path></g><g id="freepik--Floor--inject-1031"><polygon points="59.71 319.14 138.53 318.9 217.35 318.81 375 318.65 532.64 318.81 611.47 318.9 690.29 319.14 611.47 319.39 532.64 319.48 375 319.64 217.35 319.48 138.53 319.39 59.71 319.14" style="fill:#263238"></polygon></g><g id="freepik--character-2--inject-1031"><path d="M551.53,440.88c1,0,18,.83,19.4-.48,14.74-13.2,35.47-47.88,35.89-49.63.28-1.09-15.31-13.92-15.39-14-1.61-1.77-32.11-29.21-32.11-29.21l-30.39,30.63L560.53,406l.52.5a109.66,109.66,0,0,1-4.32,18.81c-.42,1.25-5.9,6.62-6.26,7.65C549.25,436.34,550.2,440.88,551.53,440.88Z" style="fill:#ad6359"></path><path d="M551.53,440.88c1,0,18,.83,19.4-.48,14.74-13.2,35.47-47.88,35.89-49.63.28-1.09-15.31-13.92-15.39-14-1.61-1.77-32.11-29.21-32.11-29.21l-30.39,30.63L560.53,406l.52.5a109.66,109.66,0,0,1-4.32,18.81c-.42,1.25-5.9,6.62-6.26,7.65C549.25,436.34,550.2,440.88,551.53,440.88Z" style="fill:#263238"></path><path d="M551.52,440.88c1,0,18,.83,19.42-.48,14.73-13.2,35.46-47.88,35.88-49.63.29-1.09-15.31-13.92-15.38-14-.4-.43-2.56-2.43-5.59-5.2L556,402l4.51,4,.51.5a110.2,110.2,0,0,1-4.31,18.81c-.44,1.25-5.9,6.62-6.27,7.66C549.25,436.33,550.2,440.88,551.52,440.88Z" style="fill:#ebebeb"></path><path d="M550.86,441.14c.55.37,19.25.52,20.49-.6,11.8-10.66,36.25-48,36.51-50.16.14-1.12-8.21-8.68-17.45-15L560.8,406.51s-1.82,12.23-4.2,18.78c-.54,1.49-5.91,6.4-6.4,7.49C548.7,436.12,550.07,440.61,550.86,441.14Z" style="fill:#ECEFF1"></path><path d="M552.28,431.36a11.22,11.22,0,0,1,8.53-1.56,9.61,9.61,0,0,1,6.11,4.22c0,.07-.08.15-.14.09-3.24-3.85-9.63-5.08-14.42-2.62C552.26,431.54,552.19,431.42,552.28,431.36Z" style="fill:#263238"></path><path d="M591.7,387.24c3.13-3.82,9.07,1,5.94,4.87S588.57,391.07,591.7,387.24Z" style="fill:#263238"></path><path d="M559.06,411.52c2.62-3.54,6.94-6.66,11.46-6.66.17,0,.17.25,0,.31a60.51,60.51,0,0,0-11.11,6.74A.28.28,0,0,1,559.06,411.52Z" style="fill:#263238"></path><path d="M558.06,415c2.61-3.54,6.94-6.66,11.46-6.66.17,0,.17.25,0,.31a60,60,0,0,0-11.11,6.74A.28.28,0,0,1,558.06,415Z" style="fill:#263238"></path><path d="M557.06,418.53c2.61-3.54,6.94-6.66,11.46-6.66.17,0,.17.25,0,.31a61.49,61.49,0,0,0-11.12,6.74A.28.28,0,0,1,557.06,418.53Z" style="fill:#263238"></path><path d="M556.06,422c2.61-3.54,6.94-6.66,11.46-6.66.17,0,.17.25,0,.31a60.92,60.92,0,0,0-11.12,6.74A.28.28,0,0,1,556.06,422Z" style="fill:#263238"></path><path d="M550.71,438.58c5.13-.68,10.38-.57,15.53-1.08l1.81-.17a2.74,2.74,0,0,0,1.81-.55,28.35,28.35,0,0,0,2.3-2.94c1.55-2,3.08-4,4.62-6,6.16-8.11,12.19-16.31,18.17-24.55,1.69-2.33,3.39-4.64,5.08-7s3.54-4.55,5.25-6.87a.08.08,0,0,1,.14.08c-1.44,2.19-2.73,4.47-4.21,6.63s-3,4.32-4.46,6.46q-4.5,6.36-9.13,12.63t-9.35,12.48q-2.38,3.12-4.79,6.23c-.78,1-1.55,2-2.34,3a3.13,3.13,0,0,1-2.37,1.39c-6,.57-12,.43-18,.72C550.51,439,550.46,438.61,550.71,438.58Z" style="fill:#263238"></path><path d="M430.45,210.58s2.2,9.72,5.48,14.74c0,0,21.67,70.72,33.6,93.25,12.87,24.29,81,78.6,81,78.6l28.3-32s-64.33-57.91-64.56-59.67c-1.28-10-24-74.7-23.37-76.41,7-19.42-3.77-40.5-3.77-40.5Z" style="fill:#ECEFF1"></path><g style="opacity:0.1"><path d="M430.45,210.58s2.2,9.72,5.48,14.74c0,0,21.67,70.72,33.6,93.25,12.87,24.29,81,78.6,81,78.6l28.3-32s-64.33-57.91-64.56-59.67c-1.28-10-24-74.7-23.37-76.41,7-19.42-3.77-40.5-3.77-40.5Z"></path></g><path d="M512.27,297.22,466.37,312c-12.23-27.26-30.44-86.68-30.44-86.68-3.28-5-5.47-14.74-5.47-14.74l56.69-22s10.78,21.08,3.76,40.5C490.39,230.53,506.46,276.77,512.27,297.22Z" style="fill:#455a64"></path><path d="M495.29,244l-38.47,44c-10.4-28.42-20.89-62.64-20.89-62.64-3.28-5-5.47-14.74-5.47-14.74l56.69-22s10.78,21.08,3.76,40.5C490.73,229.59,492.57,235.55,495.29,244Z" style="fill:#37474f"></path><path d="M540.67,398.12c1.77-1.67,32.67-59.84,32.44-62.81-.07-1.12-55.05-22.46-55.05-22.46l-17.39,37.72,34,11.08s-1.82,26.8-1.23,30S538.92,399.79,540.67,398.12Z" style="fill:#ad6359"></path><path d="M540.67,398.12c1.77-1.67,32.67-59.84,32.44-62.81-.07-1.12-55.05-22.46-55.05-22.46l-17.39,37.72,34,11.08s-1.82,26.8-1.23,30S538.92,399.79,540.67,398.12Z" style="fill:#263238"></path><path d="M540.67,398.11c1.77-1.66,32.68-59.84,32.44-62.79,0-.55-13.23-6-26.3-11.16l-18.07,35.59,5.9,1.9s-1.82,26.8-1.22,30S538.92,399.79,540.67,398.11Z" style="fill:#ebebeb"></path><path d="M540.51,398.35c1.75-1.66,33.34-60.05,33.12-63-.08-1.11-10.22-5-20.51-9.47L534.18,362s-1.48,26.73-.89,29.94S538.75,400,540.51,398.35Z" style="fill:#ECEFF1"></path><path d="M538.63,396.29c4.92-9.84,25.71-49,31.32-58.38,0-.08.1-.05.07,0-4.67,9.86-25.77,48.88-31.23,58.43C538.68,396.57,538.53,396.5,538.63,396.29Z" style="fill:#263238"></path><path d="M533.19,387.1a8.85,8.85,0,0,1,5.46-4.55,8.56,8.56,0,0,1,6.33.59c.06,0,0,.14-.06.12a10.2,10.2,0,0,0-11.61,3.9A.07.07,0,1,1,533.19,387.1Z" style="fill:#263238"></path><path d="M533.54,365.56c2-3.92,5.78-7.69,10.24-8.42.17,0,.21.22.09.3a60.3,60.3,0,0,0-9.89,8.44A.27.27,0,0,1,533.54,365.56Z" style="fill:#263238"></path><path d="M533.11,369.18c2-3.92,5.78-7.69,10.24-8.42.17,0,.21.22.09.3a61.22,61.22,0,0,0-9.89,8.44A.28.28,0,0,1,533.11,369.18Z" style="fill:#263238"></path><path d="M532.69,372.8c2-3.92,5.78-7.69,10.24-8.42.17,0,.21.22.09.31a60.73,60.73,0,0,0-9.89,8.43A.27.27,0,0,1,532.69,372.8Z" style="fill:#263238"></path><path d="M532.26,376.42c2-3.91,5.78-7.69,10.24-8.41.17,0,.21.21.09.3a61.16,61.16,0,0,0-9.89,8.43A.28.28,0,0,1,532.26,376.42Z" style="fill:#263238"></path><path d="M519.33,356.65l17.56-36.43s-76.45-34.29-75.69-37.92c1-4.75,24.95-36.35,31.56-55.73,7.91-23.2-5.62-38-5.62-38H439.63S447.41,206,447,207.81c-1.66,7.35-42.13,63.28-39.67,82.47C411.89,325.87,519.33,356.65,519.33,356.65Z" style="fill:#ECEFF1"></path><path d="M445.77,279.28c0-.08-.06-.15-.09-.21s0-.09,0-.15h0a.22.22,0,0,1,0,.1,1.62,1.62,0,0,1,0,.22v.11l0,.14v0A2.67,2.67,0,0,1,445.77,279.28Z" style="fill:#455a64"></path><path d="M492.76,226.57c-5.83,17.09-25.14,43.67-30.31,53-20.66.34-43.6,2.23-54.5,3.23,5.3-23.34,37.57-68.43,39.05-75,.41-1.83-7.37-19.22-7.37-19.22h47.52S500.67,203.37,492.76,226.57Z" style="fill:#455a64"></path><path d="M484.52,215.56c-2.35,16.28-21.68,48-32.16,64.26l-3.69.15c10-15.46,30.56-48.71,32.88-64.84A36.57,36.57,0,0,0,475,188.59h3.69A39.13,39.13,0,0,1,484.52,215.56Z" style="fill:#ECEFF1"></path><path d="M489.55,215.49c-2.34,16.23-21.71,48-32.17,64.17l-2.45.08c10.15-15.7,30.32-48.49,32.63-64.53a37,37,0,0,0-6.43-26.62h2.45A38.6,38.6,0,0,1,489.55,215.49Z" style="fill:#fff"></path><path d="M478.38,215.49c-2.36,16.38-22.06,48.56-32.44,64.61l-2.47.12c10-15.5,30.59-48.8,32.93-65A37,37,0,0,0,470,188.59h2.47A38.62,38.62,0,0,1,478.38,215.49Z" style="fill:#fff"></path><path d="M406.26,153.59C385.53,173.14,369.61,204.14,374,213c4.88,9.82,28.16-13,28.12-14.69,0-1.26,7-18.32,13.62-39.2C421.87,139.77,411.39,148.76,406.26,153.59Z" style="fill:#ad6359"></path><path d="M406.26,153.59C385.53,173.14,369.61,204.14,374,213c4.88,9.82,28.16-13,28.12-14.69,0-1.26,7-18.32,13.62-39.2C421.87,139.77,411.39,148.76,406.26,153.59Z" style="fill:#455a64"></path><path d="M410.07,144.69c-4.06,1.7-21.24,11.89-21.84,15.44s1.41,9.75,1.23,10.14,16.07,10.28,17.36,10.31a10.36,10.36,0,0,0,5.94-2.94c1.25-1.56,7-9,7.61-9.83,2.64-3.53,3.12-17.21.36-21.47S410.07,144.69,410.07,144.69Z" style="fill:#ECEFF1"></path><path d="M407.79,146.84a4.81,4.81,0,0,0-.69-.63l0,0c-1,.51-2.05,1.13-3.22,1.81l.68.75.17-.15a1.42,1.42,0,0,1,.68-.41.48.48,0,0,1,.49.18.51.51,0,0,1,.14.5,1.51,1.51,0,0,1-.46.64,1.32,1.32,0,0,1-.6.34.56.56,0,0,1-.52-.2l-.43-.48-1.54,1.41.44.48a.52.52,0,0,1,.14.53,1.56,1.56,0,0,1-.46.63,1.86,1.86,0,0,1-.77.5.54.54,0,0,1-.5-.18.53.53,0,0,1-.14-.5,1.5,1.5,0,0,1,.47-.64l.29-.26-1.17-1.28-.46.29-1.74,1.6a3.25,3.25,0,0,0,0,.53,2.87,2.87,0,0,0,.14.6,4.82,4.82,0,0,0,.31.66,3.53,3.53,0,0,0,.53.71,3.2,3.2,0,0,0,1,.77,2.27,2.27,0,0,0,1.08.21,2.88,2.88,0,0,0,1.11-.3,5,5,0,0,0,1.09-.77,3.53,3.53,0,0,0,.59-.68,2.68,2.68,0,0,0,.32-.63,2.4,2.4,0,0,0,.14-.54c0-.17,0-.32,0-.46l.1-.09.45,0a2.94,2.94,0,0,0,.54-.12,3.57,3.57,0,0,0,.61-.28,3.87,3.87,0,0,0,.67-.5,3.46,3.46,0,0,0,1.21-2A2.38,2.38,0,0,0,407.79,146.84Z" style="fill:#fff"></path><path d="M412.64,152.59a2.9,2.9,0,0,0-.67-1.19,3,3,0,0,0-1.13-.78,2.66,2.66,0,0,0-1.39-.09,5.24,5.24,0,0,0-1.7.69,14.08,14.08,0,0,0-3.77,3.45,5.35,5.35,0,0,0-.83,1.63,2.54,2.54,0,0,0,0,1.39,3.11,3.11,0,0,0,1.8,2,2.67,2.67,0,0,0,1.39.09,5.28,5.28,0,0,0,1.69-.68,12.1,12.1,0,0,0,2.05-1.56,13,13,0,0,0,1.73-1.9,5.24,5.24,0,0,0,.83-1.63A2.54,2.54,0,0,0,412.64,152.59Zm-2.34,1a1.56,1.56,0,0,1-.47.64l-3.06,2.8a1.45,1.45,0,0,1-.68.41.52.52,0,0,1-.49-.18.54.54,0,0,1-.14-.51,1.62,1.62,0,0,1,.47-.64l3.06-2.8a1.5,1.5,0,0,1,.68-.41.57.57,0,0,1,.63.69Z" style="fill:#fff"></path><path d="M487.62,189.62c-.08.24-54.94,28.81-55.86,28.41-1.29-.56-20.38-51.85-16.26-71.21,1-4.84,12.58-13.72,22.25-9.22C469.75,152.49,487.87,188.74,487.62,189.62Z" style="fill:#ECEFF1"></path><path d="M430.67,181.86l2.07-1a2,2,0,0,0,1.22-1.54,4.09,4.09,0,0,0-.53-2.28,4.8,4.8,0,0,0-1.66-2.1,2.11,2.11,0,0,0-3,1.48,4.84,4.84,0,0,0,.68,2.62l.36.71-5.84,2.9-4.25-8.54a15.12,15.12,0,0,1,.83-1.53,11.66,11.66,0,0,1,1.31-1.78,13.86,13.86,0,0,1,2-1.83,17.58,17.58,0,0,1,2.86-1.73q4.11-2.06,7.44-.67t5.52,5.81a11.81,11.81,0,0,1,1,2.67,11,11,0,0,1,.31,2.27,8.75,8.75,0,0,1-.14,1.9c-.12.58-.23,1.09-.35,1.53l.2.42c.45.13,1,.3,1.51.51a8.28,8.28,0,0,1,1.72.92,10.41,10.41,0,0,1,1.78,1.62,11.7,11.7,0,0,1,1.68,2.56,15.49,15.49,0,0,1,1.45,4.32,9.47,9.47,0,0,1-.13,4,8.16,8.16,0,0,1-1.84,3.4,11.93,11.93,0,0,1-3.67,2.69,14.75,14.75,0,0,1-3,1.12,15.52,15.52,0,0,1-2.55.44,10.35,10.35,0,0,1-2.18-.07,15.05,15.05,0,0,1-1.81-.38l-4.39-8.84,5.84-2.9.58,1.17a4.82,4.82,0,0,0,1.67,2.12,1.85,1.85,0,0,0,1.85,0,1.87,1.87,0,0,0,1.12-1.5,6,6,0,0,0-.88-3,5,5,0,0,0-1.64-2.08,1.87,1.87,0,0,0-1.94,0l-2.11,1Z" style="fill:#fff"></path><path d="M465.22,169.13a40.47,40.47,0,0,1,3.15,8.17,17.78,17.78,0,0,1,.53,6.24,9.06,9.06,0,0,1-1.77,4.53,10.7,10.7,0,0,1-3.8,3,10.9,10.9,0,0,1-4.72,1.2,9.11,9.11,0,0,1-4.68-1.33,17.78,17.78,0,0,1-4.65-4.19,47,47,0,0,1-7.75-15.6,17.5,17.5,0,0,1-.55-6.26,9.06,9.06,0,0,1,1.77-4.53,11.52,11.52,0,0,1,8.52-4.24,9.11,9.11,0,0,1,4.68,1.33,17.42,17.42,0,0,1,4.66,4.21A40,40,0,0,1,465.22,169.13Zm-5.59,14.53a1.88,1.88,0,0,0,1.12-1.48,4.83,4.83,0,0,0-.68-2.61l-6.29-12.65a4.89,4.89,0,0,0-1.67-2.12,2.11,2.11,0,0,0-3,1.48,4.94,4.94,0,0,0,.68,2.62l6.29,12.64a4.82,4.82,0,0,0,1.67,2.12A1.87,1.87,0,0,0,459.63,183.66Z" style="fill:#fff"></path><rect x="428.4" y="155.59" width="3.16" height="3.16" transform="translate(-20.98 236.05) rotate(-30)" style="fill:#fff"></rect><path d="M436.85,135.87c4-5,29.44-23.67,36.94-24.48,10.76-1.16,34.33,1.56,46.58,6.83,3.59,1.54-8.71,27.92-12.56,26.27-4.65-2-31-10.39-31.53-10.44-1.08-.11-23.29,10-30.1,12.64C434.07,151.45,428.26,146.6,436.85,135.87Z" style="fill:#ad6359"></path><path d="M436.85,135.87c4-5,29.44-23.67,36.94-24.48,10.76-1.16,34.33,1.56,46.58,6.83,3.59,1.54-8.71,27.92-12.56,26.27-4.65-2-31-10.39-31.53-10.44-1.08-.11-23.29,10-30.1,12.64C434.07,151.45,428.26,146.6,436.85,135.87Z" style="fill:#455a64"></path><path d="M527.48,147c-2,.16-1.88,1.18,1,3.11s16,7.13,13.81,11.55-20.58-3.18-25.16-6.76-10.72-11-10.72-11C510.29,144.66,519.87,145.61,527.48,147Z" style="fill:#263238"></path><path d="M514.6,116.22c11.12,2.33,25,5,34.07,13.66a6.2,6.2,0,0,1,2,3.57c4.14,3.81,3.58,6.91,3.58,6.91,2.76,4.74,1.76,7.83,1.76,7.83s4.81,4.53,2.55,7.89c-2.52,3.78-8.78-3.33-14.61-5.13-13.36-4.12-33.51-6.24-37.48-7Z" style="fill:#263238"></path><path d="M532.93,136.79a89.25,89.25,0,0,1,11.5,4.28,89.25,89.25,0,0,1,11.37,7.14.11.11,0,0,0,.14-.17,47.59,47.59,0,0,0-23-11.43C532.79,136.58,532.74,136.73,532.93,136.79Z" style="fill:#455a64"></path><path d="M534.25,128.37c3.73,1.46,10.28,4.09,19.86,12.1,0,0,.09,0,.06-.06a42.69,42.69,0,0,0-19.85-12.22C534.08,128.12,534,128.27,534.25,128.37Z" style="fill:#455a64"></path><path d="M535,123.85c6.26,2.74,9.85,5.26,15.54,9.61,0,0,.08,0,0-.06-6-5.62-8.74-7-15.52-9.78C534.87,123.53,534.8,123.74,535,123.85Z" style="fill:#455a64"></path><path d="M427.87,136.37c1-4.29,11.57-12,15-13.18s9.84-.21,10.19-.46,12.8,14.16,13,15.42a10.32,10.32,0,0,1-1.91,6.34c-1.33,1.49-6.26,6.52-6,7.5s-17.36,2-22,0S427.87,136.37,427.87,136.37Z" style="fill:#ECEFF1"></path><path d="M442.85,135.9l-.37-.53a.57.57,0,0,0-.49-.26,1.2,1.2,0,0,0-.63.27,1.4,1.4,0,0,0-.54.57.52.52,0,0,0,.07.52.57.57,0,0,0,.47.24,1.48,1.48,0,0,0,.72-.33l.19-.13,1.06,1.48L441,139.36a4.38,4.38,0,0,1-.47-.16,2.84,2.84,0,0,1-.56-.27,4.1,4.1,0,0,1-.6-.47,4.41,4.41,0,0,1-.61-.71,2.39,2.39,0,0,1-.47-2.05,3.37,3.37,0,0,1,1.45-1.84,4,4,0,0,1,.73-.42,3.86,3.86,0,0,1,.64-.2,2.72,2.72,0,0,1,.55-.06l.45,0,.11-.08c0-.13.05-.28.09-.44a2.18,2.18,0,0,1,.2-.53,2.68,2.68,0,0,1,.39-.58,3.31,3.31,0,0,1,.67-.6,5,5,0,0,1,1.18-.63,2.91,2.91,0,0,1,1.14-.16,2.25,2.25,0,0,1,1.05.34,3.18,3.18,0,0,1,.91.89,4.05,4.05,0,0,1,.43.77,3.88,3.88,0,0,1,.22.69,2.74,2.74,0,0,1,.07.62,3.93,3.93,0,0,1,0,.52l-2.36,1.68-1.06-1.49.31-.22a1.5,1.5,0,0,0,.55-.57.52.52,0,0,0-.08-.52.51.51,0,0,0-.47-.24,1.93,1.93,0,0,0-.83.4,1.59,1.59,0,0,0-.53.56.53.53,0,0,0,.07.55l.38.53Z" style="fill:#fff"></path><path d="M437.88,126.88a11.77,11.77,0,0,1,2.22-1.3,5.44,5.44,0,0,1,1.77-.47,2.6,2.6,0,0,1,1.36.27,2.85,2.85,0,0,1,1,.91,2.89,2.89,0,0,1,.53,1.26,2.63,2.63,0,0,1-.21,1.38,5.22,5.22,0,0,1-1,1.51,12.06,12.06,0,0,1-2,1.67,11.85,11.85,0,0,1-2.21,1.29,5.08,5.08,0,0,1-1.78.47,2.52,2.52,0,0,1-1.36-.26,3.05,3.05,0,0,1-1.54-2.17,2.52,2.52,0,0,1,.2-1.38,5.3,5.3,0,0,1,1-1.52A11.94,11.94,0,0,1,437.88,126.88Zm4.38.83a.52.52,0,0,0-.47-.24,1.36,1.36,0,0,0-.72.32l-3.39,2.4a1.48,1.48,0,0,0-.54.58.5.5,0,0,0,.07.51.52.52,0,0,0,.47.24,1.36,1.36,0,0,0,.72-.32l3.39-2.4a1.48,1.48,0,0,0,.54-.58A.5.5,0,0,0,442.26,127.71Z" style="fill:#fff"></path><path d="M427.06,153.57c2.83-1.23,6.07-9.23,6.18-14.7,0-.38-2-3.22-4.37-6.79-1.4-2.18-2.91-4.63-4.13-7l-12.81,11.2a42.13,42.13,0,0,1,6.09,8.24,6.41,6.41,0,0,1,.4,1,1.77,1.77,0,0,0,.06.17C419.13,147.71,422.62,155.5,427.06,153.57Z" style="fill:#ad6359"></path><path d="M431,135.32c-.83,6.17-3.26,12.8-9.43,16.09a20.12,20.12,0,0,1-3.11-5.68,1.77,1.77,0,0,1-.06-.17,6.41,6.41,0,0,0-.4-1,42.13,42.13,0,0,0-6.09-8.24l12.82-11.2c1.21,2.34,2.72,4.79,4.13,7C429.65,133.26,430.39,134.36,431,135.32Z" style="fill:#263238"></path><path d="M426.3,112.29c3.38,5.11,5.25,22.23,2.33,27-4.23,7-13.56,10.3-20.1,4.66-6.33-5.46-8.37-27.81-4.88-32.43C408.78,104.76,421.29,104.75,426.3,112.29Z" style="fill:#ad6359"></path><path d="M415.69,127s.1,0,.1.09c.12,1.16.46,2.46,1.55,2.69,0,0,0,.07,0,.07C416.05,129.88,415.62,128.15,415.69,127Z" style="fill:#263238"></path><path d="M416.55,125.69c1.83-.39,2.48,3.29.79,3.66S415,126,416.55,125.69Z" style="fill:#263238"></path><path d="M408.9,128s-.08.07-.07.11c.23,1.14.32,2.48-.65,3,0,0,0,.08,0,.07C409.43,130.81,409.3,129,408.9,128Z" style="fill:#263238"></path><path d="M407.66,127c-1.86.18-1.35,3.89.38,3.72S409.22,126.83,407.66,127Z" style="fill:#263238"></path><path d="M417.85,123.73c-.42.32-.86.54-1.31.82a2.48,2.48,0,0,1-1.49.57.79.79,0,0,1-.66-.7,1.94,1.94,0,0,1,1.08-1.67,2.88,2.88,0,0,1,2-.52A.85.85,0,0,1,417.85,123.73Z" style="fill:#263238"></path><path d="M405.21,125.77c.52.06,1,0,1.53,0a2.54,2.54,0,0,0,1.58-.28.8.8,0,0,0,.21-.94,2,2,0,0,0-1.78-.88,3,3,0,0,0-2,.59A.85.85,0,0,0,405.21,125.77Z" style="fill:#263238"></path><path d="M418.63,137.44c-.23.32-.43.74-.84.84a2.92,2.92,0,0,1-1.28-.07s-.07,0,0,.07a1.54,1.54,0,0,0,1.56.36,1.22,1.22,0,0,0,.72-1.16A.07.07,0,0,0,418.63,137.44Z" style="fill:#263238"></path><path d="M416.82,134.24a4,4,0,0,1-2.29,2.19,4.94,4.94,0,0,1-1.38.31,1.37,1.37,0,0,1-.28,0,2.08,2.08,0,0,1-.25,0,.29.29,0,0,1-.28-.21h0a.49.49,0,0,1,0-.12h0l0-.1c-.18-.87-.33-2.22-.33-2.22-.29.21-1.8,1.24-1.85.78a59.77,59.77,0,0,1-.59-12,.11.11,0,0,1,.22,0c.57,3.68.5,7.43,1,11.14a6.68,6.68,0,0,1,1.74-.89c.13,0,.25,2.62.36,3v0a5.51,5.51,0,0,0,3.81-2C416.77,134.07,416.87,134.13,416.82,134.24Z" style="fill:#263238"></path><path d="M413.59,136.2a4.62,4.62,0,0,0,2.1,1.11,2.09,2.09,0,0,0,1.27-.15c.87-.4.74-1.24.45-1.93a5.19,5.19,0,0,0-.6-1A6.07,6.07,0,0,1,413.59,136.2Z" style="fill:#263238"></path><path d="M415.69,137.31a2.09,2.09,0,0,0,1.27-.15c.87-.4.74-1.24.45-1.93A2.18,2.18,0,0,0,415.69,137.31Z" style="fill:#ff99ba"></path><path d="M430,127.94c-2.68.29-4.92-4.53-5.87-9.2-1-4.93-4.54-7.81-8.1-6.76s-4.14,3.49-6,3.49-3.78-2-5.44-1.49-2.51,4-2.6,6.84c0-4.21-.09-8.85,1.07-10.39,5.13-6.8,18.47-7.49,23.48,0C428.41,113.34,429.62,121.8,430,127.94Z" style="fill:#263238"></path><path d="M426.77,125.84s1.81-6.43,4.6-6,2.7,8.91.31,10.9a3,3,0,0,1-4.28-.19Z" style="fill:#ad6359"></path><path d="M431.29,122.3s.07,0,0,.07c-1.66,1.45-2.05,3.6-2.12,5.7a1.64,1.64,0,0,1,2.17-1.23c.06,0,0,.12,0,.13a1.8,1.8,0,0,0-1.68,1.26,8.92,8.92,0,0,0-.37,1.85c0,.2-.38.22-.38,0V130C428,127.58,428.73,123.47,431.29,122.3Z" style="fill:#263238"></path><path d="M425.25,120s3.42,2.21,3.58,2.39c-.24.57-3.81,10.22-3.75,11.43.18,3.83,3.83,6.78,6.44,3.43,2.07-2.65,3.53-9.42,3.74-11.94.77.14.77.21.88.17a33.75,33.75,0,0,0-.26-10.89c-1-5-9.23-15.6-23.56-12.48s-12.34,21-12.34,21,5.72-2.63,9.21-3.16S425.25,120,425.25,120Z" style="fill:#455a64"></path><path d="M428,118.2c1.46,2.48,3.79,3.11,5.18,1.42s1.34-5.08-.13-7.55-3.79-3.11-5.19-1.42S426.57,115.72,428,118.2Z" style="fill:#fff"></path><path d="M419.29,101.63a26,26,0,0,0-5,5.48c-1.89,2.9-2,9.16-2.07,12.66a25.4,25.4,0,0,0-3,.2,24.83,24.83,0,0,0-4,1.1c.15-3.26.88-10.83,4.24-14.21,2.49-2.52,4.15-4.08,6.38-5.25.36,0,.72,0,1.07,0h.91C418.28,101.57,418.79,101.59,419.29,101.63Z" style="fill:#ECEFF1"></path><path d="M415.51,146.34c-.44,0-2.05-.06-9.2-.74l-.31,0-5.77-11.79,12.21,1.12,10.93-5.11-.15-10,1.12,0,.3,20.48-3.56,4.2-.15.05s-5,1.74-5.24,1.85Zm-8.77-1.8c3.15.3,7.95.73,8.63.72l5-1.78,3.1-3.65-.13-8.84-10.74,5-10.55-1Z" style="fill:#dbdbdb"></path><polygon points="414.95 145.94 412 135.6 413.08 135.31 416.03 145.65 414.95 145.94" style="fill:#dbdbdb"></polygon><polygon points="424.51 135.31 423.46 134.93 428.15 122.66 426.29 121.03 423.71 120.29 409.08 120.66 399.85 124.05 402.75 134.4 401.67 134.69 398.5 123.38 408.87 119.58 423.94 119.22 426.86 120.06 429.46 122.34 424.51 135.31" style="fill:#dbdbdb"></polygon><polygon points="399.95 126.3 399.56 125.28 409.35 121.65 423.93 121.37 426.06 122.14 428.32 123.62 427.69 124.53 425.49 123.08 423.64 122.43 409.57 122.73 399.95 126.3" style="fill:#dbdbdb"></polygon><polygon points="408.11 145.67 403.08 134.54 404.11 134.1 409.13 145.23 408.11 145.67" style="fill:#dbdbdb"></polygon><path d="M376.48,215c4.78,2.38,15.38,2.05,42.72-12.9,3.79-2.07-6.05-32.5-10.2-30.5-5.24,2.52-21.8,12.59-23.09,13.65C376.3,193,371.71,212.57,376.48,215Z" style="fill:#ad6359"></path><path d="M376.48,215c4.78,2.38,15.38,2.05,42.72-12.9,3.79-2.07-6.05-32.5-10.2-30.5-5.24,2.52-21.8,12.59-23.09,13.65C376.3,193,371.71,212.57,376.48,215Z" style="fill:#455a64"></path><path d="M443.63,155.28c2.55,2.34,1,5.58,1,5.58a7.39,7.39,0,0,1,4.32,2.55c1.83,2.43-1.18,6.36-1.18,6.36a9,9,0,0,1,4.12,3.41c1.51,2.5-1,6.9-1,6.9a8,8,0,0,1,1.74,5.28c-.41,5.11-7.35,8.72-11.73,11.06s-19,4.86-21.77,5.63l-13.56-28.79s15-15.33,20.55-17.35C430.86,154.21,440.78,152.66,443.63,155.28Z" style="fill:#263238"></path><path d="M444.23,160.52c-5.41.61-10.34,2.79-15.38,4.69-.11,0,0,.22.07.17,5-1.94,10.31-2.87,15.37-4.61A.13.13,0,0,0,444.23,160.52Z" style="fill:#455a64"></path><path d="M447.51,169.45a14.18,14.18,0,0,0-3.5,1.24c-1.2.52-2.4,1.07-3.59,1.63-2.37,1.13-4.73,2.3-7,3.55-.11.06-.05.23.06.18,2.38-1.12,4.76-2.2,7.18-3.22,1.21-.51,2.42-1,3.64-1.5a17.12,17.12,0,0,0,3.37-1.54C447.78,169.68,447.69,169.42,447.51,169.45Z" style="fill:#455a64"></path><path d="M450.86,180.12a9.92,9.92,0,0,0-3.09,1.28c-1.07.54-2.15,1.07-3.23,1.59-2.15,1-4.31,2.1-6.5,3.07-.11.05,0,.22.07.17,2.23-1,4.47-1.92,6.7-2.91l3.26-1.49a9,9,0,0,0,2.84-1.6A.07.07,0,0,0,450.86,180.12Z" style="fill:#455a64"></path><path d="M405.64,173.26c-2.41,1.51-4.85,3-7.28,4.43s-4.87,2.9-7.25,4.44a35.84,35.84,0,0,0-6.76,5,75.84,75.84,0,0,0-5.77,6.23,44.46,44.46,0,0,1,5.28-6.73,33.12,33.12,0,0,1,6.76-5.28c2.44-1.48,4.89-2.92,7.4-4.26S403.05,174.44,405.64,173.26Z" style="fill:#263238"></path></g><g id="freepik--character-1--inject-1031"><path d="M263.55,440.88c1,0,18,.83,19.41-.48,14.74-13.2,35.47-47.88,35.89-49.63.28-1.09-15.31-13.92-15.39-14-1.61-1.77-32.11-29.21-32.11-29.21L241,378.18,272.56,406l.52.5a109.66,109.66,0,0,1-4.32,18.81c-.42,1.25-5.9,6.62-6.26,7.65C261.28,436.34,262.23,440.88,263.55,440.88Z" style="fill:#eb9481"></path><path d="M263.55,440.88c1,0,18,.83,19.41-.48,14.74-13.2,35.47-47.88,35.89-49.63.28-1.09-15.31-13.92-15.39-14-1.61-1.77-32.11-29.21-32.11-29.21L241,378.18,272.56,406l.52.5a109.66,109.66,0,0,1-4.32,18.81c-.42,1.25-5.9,6.62-6.26,7.65C261.28,436.34,262.23,440.88,263.55,440.88Z" style="fill:#ECEFF1"></path><path d="M263.55,440.88c1,0,18,.83,19.42-.48,14.73-13.2,35.46-47.88,35.88-49.63.28-1.09-15.31-13.92-15.39-14-.39-.43-2.55-2.43-5.58-5.2L268.06,402l4.51,4,.51.5a109.66,109.66,0,0,1-4.32,18.81c-.43,1.25-5.89,6.62-6.26,7.66C261.28,436.33,262.23,440.88,263.55,440.88Z" style="fill:#ebebeb"></path><path d="M262.89,441.14c.55.37,19.25.52,20.49-.6,11.8-10.66,36.25-48,36.51-50.16.14-1.12-8.22-8.68-17.45-15l-29.61,31.17s-1.82,12.23-4.2,18.78c-.54,1.49-5.91,6.4-6.4,7.49C260.73,436.12,262.1,440.61,262.89,441.14Z" style="fill:#ECEFF1"></path><path d="M264.31,431.36a11.22,11.22,0,0,1,8.53-1.56A9.61,9.61,0,0,1,279,434c0,.07-.09.15-.14.09-3.24-3.85-9.63-5.08-14.42-2.62C264.29,431.54,264.21,431.42,264.31,431.36Z" style="fill:#263238"></path><path d="M303.73,387.24c3.13-3.82,9.07,1,5.94,4.87S300.6,391.07,303.73,387.24Z" style="fill:#263238"></path><path d="M271.09,411.52c2.62-3.54,6.94-6.66,11.46-6.66.17,0,.17.25,0,.31a60.51,60.51,0,0,0-11.11,6.74A.28.28,0,0,1,271.09,411.52Z" style="fill:#263238"></path><path d="M270.09,415c2.61-3.54,6.94-6.66,11.46-6.66.17,0,.17.25,0,.31a60.37,60.37,0,0,0-11.12,6.74A.28.28,0,0,1,270.09,415Z" style="fill:#263238"></path><path d="M269.09,418.53c2.61-3.54,6.94-6.66,11.46-6.66.17,0,.17.25,0,.31a61.49,61.49,0,0,0-11.12,6.74A.28.28,0,0,1,269.09,418.53Z" style="fill:#263238"></path><path d="M268.09,422c2.61-3.54,6.93-6.66,11.45-6.66.18,0,.18.25,0,.31a60.84,60.84,0,0,0-11.11,6.74A.28.28,0,0,1,268.09,422Z" style="fill:#263238"></path><path d="M262.74,438.58c5.13-.68,10.38-.57,15.53-1.08l1.81-.17a2.74,2.74,0,0,0,1.81-.55,29.78,29.78,0,0,0,2.3-2.94c1.55-2,3.08-4,4.61-6C295,419.68,301,411.48,307,403.24c1.69-2.33,3.39-4.64,5.08-7s3.54-4.55,5.25-6.87a.08.08,0,0,1,.14.08c-1.44,2.19-2.73,4.47-4.21,6.63s-2.95,4.32-4.46,6.46q-4.5,6.36-9.13,12.63t-9.35,12.48q-2.39,3.12-4.79,6.23c-.78,1-1.55,2-2.34,3a3.15,3.15,0,0,1-2.37,1.39c-6,.57-12,.43-18,.72C262.54,439,262.49,438.61,262.74,438.58Z" style="fill:#263238"></path><path d="M149.77,200.1s.91,15.2,4.19,20.22c0,0,15.67,75.72,27.6,98.25,12.87,24.29,81,78.6,81,78.6l28.3-32s-64.33-57.91-64.56-59.67c-1.28-10-24-74.7-23.37-76.41,7-19.42-3.77-40.5-3.77-40.5Z" style="fill:#37474f"></path><path d="M224.3,297.22,178.4,312C166.17,284.74,154,220.32,154,220.32c-3.28-5-4.19-20.22-4.19-20.22l49.41-11.51s10.78,21.08,3.76,40.5C202.42,230.53,218.49,276.77,224.3,297.22Z" style="fill:#ECEFF1"></path><path d="M224.3,297.22,178.4,312C166.17,284.74,154,220.32,154,220.32c-3.28-5-4.19-20.22-4.19-20.22l49.41-11.51s10.78,21.08,3.76,40.5C202.42,230.53,218.49,276.77,224.3,297.22Z" style="fill:#ECEFF1"></path><path d="M211.73,257.5l-33.56,54C166,283.94,154,220.32,154,220.32c-3.28-5-4.19-20.22-4.19-20.22l49.41-11.51s10.78,21.08,3.76,40.5C202.67,229.83,206.84,242.56,211.73,257.5Z" style="opacity:0.1"></path><path d="M255.28,399c1.92-1.5,38.11-56.54,38.16-59.51,0-1.13-52.72-27.5-52.72-27.5l-20.83,35.94,32.79,14.19s-4.31,26.52-4,29.79S253.38,400.51,255.28,399Z" style="fill:#eb9481"></path><path d="M255.28,399c1.92-1.5,38.11-56.54,38.16-59.51,0-1.13-52.72-27.5-52.72-27.5l-20.83,35.94,32.79,14.19s-4.31,26.52-4,29.79S253.38,400.51,255.28,399Z" style="fill:#ECEFF1"></path><path d="M255.28,399c1.92-1.49,38.12-56.53,38.16-59.5,0-.54-12.63-7.16-25.15-13.56L247,359.69l5.7,2.44s-4.31,26.51-4,29.79S253.39,400.51,255.28,399Z" style="fill:#ebebeb"></path><path d="M255.1,399.22c1.9-1.49,38.8-56.68,38.85-59.64,0-1.12-9.71-5.95-19.54-11.35l-22.22,34.2s-4,26.48-3.68,29.73S253.2,400.71,255.1,399.22Z" style="fill:#ECEFF1"></path><path d="M253.42,397c5.82-9.33,30.17-46.42,36.63-55.2.05-.07.11,0,.06,0-5.57,9.37-30.21,46.26-36.54,55.26C253.44,397.28,253.3,397.19,253.42,397Z" style="fill:#263238"></path><path d="M248.86,387.34a8.82,8.82,0,0,1,5.86-4,8.58,8.58,0,0,1,6.25,1.17c.06,0,0,.14-.07.11A10.21,10.21,0,0,0,249,387.41C248.92,387.48,248.81,387.41,248.86,387.34Z" style="fill:#263238"></path><path d="M251.22,365.92c2.36-3.71,6.47-7.12,11-7.42.17,0,.19.24.06.31a60.37,60.37,0,0,0-10.63,7.47A.28.28,0,0,1,251.22,365.92Z" style="fill:#263238"></path><path d="M250.45,369.49c2.37-3.71,6.48-7.12,11-7.43.18,0,.19.24.07.31a61,61,0,0,0-10.63,7.48A.28.28,0,0,1,250.45,369.49Z" style="fill:#263238"></path><path d="M249.69,373.05c2.37-3.71,6.47-7.11,11-7.42.18,0,.19.24.06.31a60.74,60.74,0,0,0-10.63,7.47A.28.28,0,0,1,249.69,373.05Z" style="fill:#263238"></path><path d="M248.93,376.62c2.37-3.71,6.47-7.12,11-7.42.18,0,.19.23.06.3A61.33,61.33,0,0,0,249.34,377,.28.28,0,0,1,248.93,376.62Z" style="fill:#263238"></path><path d="M239.36,356.65l19.57-35.47s-64.46-35.25-63.7-38.88c1-4.75,11-36.35,17.56-55.73,7.91-23.2-5.62-38-5.62-38l-46.82,3.7S167.44,206,167,207.81c-1.66,7.35-28.13,63.28-25.67,82.47C145.92,325.87,239.36,356.65,239.36,356.65Z" style="fill:#455a64"></path><path d="M179.8,279.28a1.65,1.65,0,0,1-.09-.21c0-.08,0-.09,0-.15h0a.22.22,0,0,1,0,.1,1.62,1.62,0,0,1,0,.22v.11l0,.14v0A2.67,2.67,0,0,1,179.8,279.28Z" style="fill:#455a64"></path><path d="M212.79,226.57c-5.85,17.14-14.31,43.84-16.87,53.06-19.2.61-43.44,3.23-54.53,4.29,2.3-23,24.13-69.46,25.64-76.11.41-1.83-6.68-15.52-6.68-15.52l46.83-3.7S220.7,203.37,212.79,226.57Z" style="fill:#ECEFF1"></path><path d="M206,218c-2.35,16.28-15.2,48.46-19.77,62.08-1.23.05-2.41.18-3.64.23,4.78-13.08,18.12-46.61,20.44-62.74,1.76-12.19-4.41-23.91-8-29h3.69C202.35,194.31,207.71,206,206,218Z" style="fill:#37474f"></path><path d="M211.3,218c-2.34,16.23-14.76,48.86-20,61.86-.81,0-1.67.09-2.49.12,1.33-3.54,18.15-46.22,20.46-62.26,1.75-12.15-4.54-23.89-8.15-29.08h2.45C207.27,194.2,213,205.92,211.3,218Z" style="fill:#fff"></path><path d="M198.82,218.56c-2.58,16.35-14.77,49.3-19,61.92l-3.15.17c4.56-14,17.07-45.84,19.7-62a43.44,43.44,0,0,0-6.36-30h2.47A43.67,43.67,0,0,1,198.82,218.56Z" style="fill:#fff"></path><path d="M179.33,139.09c21,15.8,42.76,27,50.3,24.21,10.14-3.77,27.48-22.58,35.57-33.17C267.58,127,243,109,240.44,112.32c-3.08,4-18.67,25.06-19.08,25.35-.89.62-29.59-8.64-36.6-10.41C173.06,124.3,170,132.08,179.33,139.09Z" style="fill:#eb9481"></path><path d="M261.37,133.41c1.43-1.22,13.1-9.67,17-16.93,2.06-3.85,6.53-15.06,4.34-16.61-2-1.41-4,1.37-4,1.37s1.92-5-.87-7S272,97.2,272,97.2s1.59-5.31-1.33-7-5.23,3.67-5.23,3.67,1.69-4.78-1.32-5.19c-3.62-.49-5.72,8.68-8.72,12.47-.68.86-15,16.46-15,16.46Z" style="fill:#ECEFF1"></path><path d="M265.22,93.86c-1.57,6.74-3.42,9.42-8.26,14.21a.1.1,0,1,0,.13.16c5.17-4.25,8-7.28,8.46-14.31C265.57,93.58,265.29,93.54,265.22,93.86Z" style="fill:#263238"></path><path d="M271.77,97.19c-2.24,6.86-4.22,9.78-8.93,15.17-.07.08.06.2.13.13,5.06-4.9,7.79-8,9.12-15.13C272.15,97,271.87,96.88,271.77,97.19Z" style="fill:#263238"></path><path d="M278.5,101.49c-2.65,6.48-4.68,9.78-9.92,14.43a.13.13,0,1,0,.16.2c5.8-4.22,8.37-8.31,9.95-14.53C278.79,101.17,278.66,101.08,278.5,101.49Z" style="fill:#263238"></path><path d="M236.35,121.54s.42-11,1.85-14.62,11.74-15.18,14.37-13.1c3.38,2.7-1.26,10.54-4,14.09,0,0,7.84,6.22,5.73,12.57S236.35,121.54,236.35,121.54Z" style="fill:#ECEFF1"></path><path d="M253.26,94.87c1.31,4.68-2.63,9.1-5.06,12.74a.4.4,0,0,0,.21.63c3.11,2.82,6.67,7.72,6.1,12.12a.1.1,0,0,0,.2,0c1.26-4.64-1.86-9.73-5.46-12.61,2.55-3.69,6.31-8.3,4.05-12.94A0,0,0,0,0,253.26,94.87Z" style="fill:#263238"></path><polygon points="236.59 117.43 233.62 121.41 257.56 139.36 264.96 130.57 236.59 117.43" style="fill:#ECEFF1"></polygon><path d="M178.6,124.26c4.37-.58,24.34-.44,26.65,2.33s3.91,7.78,4.27,8S201.11,152.32,200,153s-5.25,1.79-7.12,1.08-10.6-4.26-11.53-4.66c-4.06-1.72-11.37-13.29-11.13-18.36S178.6,124.26,178.6,124.26Z" style="fill:#455a64"></path><path d="M187.1,127.38l-.14.71-8.44-1.69L178.2,128l.34,2,1.55.3.21-1.05,6.18,1.24-.16.8,2.26.44.78-3.91Z" style="fill:#fff"></path><path d="M188.55,124.29c-.27-.08-.54-.18-.81-.29,0,0,0,0,0,0-1.75,0-3.41,0-4.86,0l.66.41c.61.37,1.24.73,1.88,1.07a21.38,21.38,0,0,0,2,.91,12.5,12.5,0,0,0,2.12.62l.47-2.36A11.74,11.74,0,0,1,188.55,124.29Zm-6.79-.25c-1.15,0-2.11.1-2.8.18l-.32,1.61,3.93.78.35-1.75-1.27-.25Z" style="fill:#fff"></path><path d="M207.36,139.52c-2.58,5.3-6.62,13-7.35,13.48-1.09.67-5.25,1.79-7.12,1.08s-10.6-4.26-11.53-4.66c-4.06-1.72-11.37-13.29-11.13-18.36a3.47,3.47,0,0,1,.1-.73C179.85,132.65,197.22,137,207.36,139.52Z" style="fill:#37474f"></path><path d="M149.77,212.24c.21.14,59.7-18.88,60.16-19.78.63-1.26-17.92-51.7-33.41-64-3.88-3.08-18.43-2.57-23,7.05C138.28,167.34,149,211.73,149.77,212.24Z" style="fill:#455a64"></path><path d="M179.38,177.61l-2.63.93-10-28.5-6.06,2.13L154.52,157l1.85,5.25,3.95-1.4,7.36,20.89-3,1.06,2.68,7.62,14.71-5.18Z" style="fill:#fff"></path><path d="M192.57,176c-.38-1.76-.7-3.54-.94-5.33s-.42-3.65-.54-5.58-.2-4.1-.25-6.53,0-5.49.22-9.18l-1.18-3.35c-.67-1.18-1.36-2.33-2-3.45l-19,6.68,4.68,13.27,6.59-2.32L178.63,156l4.68-1.64q-.37,3-.56,6.87t-.1,7.68a68.18,68.18,0,0,0,.63,7.76,39.13,39.13,0,0,0,1.82,7.52L194,181A44.55,44.55,0,0,1,192.57,176Z" style="fill:#fff"></path><path d="M171.9,141c-3,.85-10.56-3.26-14.13-7.41-.24-.29-.47-3.78-1-8-.3-2.57-.7-5.43-1.25-8l17,.48a41.81,41.81,0,0,0,.55,10.23,6,6,0,0,0,.34,1s0,.1.06.17C174.28,131.44,176.55,139.67,171.9,141Z" style="fill:#eb9481"></path><path d="M174.18,131.67c-7,.62-12.94-3-17.53-7.51-.28-2.17-.63-4.47-1.07-6.58l17,.48a42.38,42.38,0,0,0,.55,10.23,6,6,0,0,0,.34,1,1.62,1.62,0,0,1,.06.17A16.91,16.91,0,0,1,174.18,131.67Z" style="fill:#263238"></path><path d="M149.08,102.19c-.19,6.13,7.25,21.66,12.27,24.21,7.27,3.69,17,1.6,19.53-6.64,2.5-8-7.55-28.05-12.94-30.13C160,86.55,149.35,93.14,149.08,102.19Z" style="fill:#eb9481"></path><path d="M166.41,107.72s-.06.09,0,.13c.5,1.05.9,2.33.1,3.11,0,0,0,.08,0,.05C167.6,110.33,167.05,108.63,166.41,107.72Z" style="fill:#263238"></path><path d="M165,107c-1.76.63-.38,4.11,1.26,3.52S166.45,106.51,165,107Z" style="fill:#263238"></path><path d="M172.69,105s.1,0,.12.07c.4,1.09,1,2.27,2.15,2.24,0,0,0,0,0,.06C173.72,107.64,172.89,106.06,172.69,105Z" style="fill:#263238"></path><path d="M173.2,103.45c1.68-.82,3.2,2.6,1.65,3.36S171.79,104.14,173.2,103.45Z" style="fill:#263238"></path><path d="M162.83,106.06a13.19,13.19,0,0,0,1.54,0,2.44,2.44,0,0,0,1.57-.3.79.79,0,0,0,.2-.94,2,2,0,0,0-1.8-.85,2.83,2.83,0,0,0-2,.62A.84.84,0,0,0,162.83,106.06Z" style="fill:#263238"></path><path d="M174.65,101.13c-.42.32-.85.55-1.29.83a2.58,2.58,0,0,1-1.48.6.8.8,0,0,1-.68-.69,2,2,0,0,1,1.05-1.69,2.89,2.89,0,0,1,2-.55A.85.85,0,0,1,174.65,101.13Z" style="fill:#263238"></path><path d="M169.4,118.12a1.78,1.78,0,0,0,1.16.27,3.06,3.06,0,0,0,1.05-.73s.08,0,.07,0a1.59,1.59,0,0,1-1.14,1.14,1.24,1.24,0,0,1-1.22-.62C169.27,118.15,169.35,118.1,169.4,118.12Z" style="fill:#263238"></path><path d="M169.25,114.44a3.89,3.89,0,0,0,3.09.66,5,5,0,0,0,1.35-.47,1.12,1.12,0,0,0,.24-.13,1.79,1.79,0,0,0,.22-.13.28.28,0,0,0,.12-.32h0a.6.6,0,0,0-.06-.11h0l0-.09c-.31-.84-.89-2.07-.89-2.07.36,0,2.18.11,2-.31a59.93,59.93,0,0,0-5.85-10.53c-.08-.11-.25,0-.19.1,1.45,3.43,3.49,6.58,5,10a7,7,0,0,0-1.94.16c-.11.09,1.17,2.36,1.28,2.75v0a5.5,5.5,0,0,1-4.26.34C169.2,114.28,169.15,114.38,169.25,114.44Z" style="fill:#263238"></path><path d="M173,114.41a4.7,4.7,0,0,1-1.2,2,2.1,2.1,0,0,1-1.16.55c-.95.12-1.29-.66-1.4-1.4a5.41,5.41,0,0,1,0-1.19A6,6,0,0,0,173,114.41Z" style="fill:#263238"></path><path d="M171.83,116.45a2.1,2.1,0,0,1-1.16.55c-.95.12-1.29-.66-1.4-1.4A2.19,2.19,0,0,1,171.83,116.45Z" style="fill:#ff99ba"></path><path d="M154.19,117.44c2.43-1.17,1.79-6.45.14-10.92-1.76-4.71-.26-9,3.32-10s5.35.78,6.95-.21,2.13-3.74,3.84-4.14,4.26,2.11,5.81,4.45c-2.2-3.59-4.59-7.57-6.39-8.27-8-3.07-19.63,3.38-19.92,12.43C147.84,104.2,151.27,112,154.19,117.44Z" style="fill:#263238"></path><path d="M157.08,113s-4.93-4.52-7.06-2.64,2.41,9,5.49,9.42a3,3,0,0,0,3.54-2.42Z" style="fill:#eb9481"></path><path d="M151.37,112.35c-.05,0,0,.07,0,.08,2.18.36,3.64,2,4.81,3.73a1.64,1.64,0,0,0-2.49.1c-.05,0,0,.12.07.09a1.84,1.84,0,0,1,2.1.19,8.5,8.5,0,0,1,1.3,1.38c.13.15.43,0,.32-.2l0,0C156.93,115.12,154.16,112,151.37,112.35Z" style="fill:#263238"></path><path d="M156.52,105.63s-.92,2.11-1,2.39c.52.39,10.1,8,10.73,9.18,2,3.74-3.26,9.77-7.44,8.16-3.31-1.27-6.71-3.63-8.7-4.68-.84.74-1,1-1.08,1-.59.1-5.55-3.24-7.83-9.4-2-5.29-.77-20.6,13.57-26.22s24.05,11.75,24.05,11.75-6.83.47-9.52,1.69C166,101.06,156.52,105.63,156.52,105.63Z" style="fill:#ECEFF1"></path><ellipse cx="148.21" cy="104.03" rx="5.11" ry="6.19" transform="translate(-6.73 10.32) rotate(-3.9)" style="fill:#fff"></ellipse><path d="M175,98.23a23.56,23.56,0,0,0-5.66,1.3l-1.16.52c-1.68-2.69-5-7.94-8.24-9.56a27.3,27.3,0,0,0-9.3-2.29l.1-.06c.42-.27.88-.54,1.36-.79l.44-.23h0c4.1-1.13,6.46-.7,11.22.47S173.45,95.84,175,98.23Z" style="fill:#455a64"></path><path d="M180.12,122l-8.32.35h-.13l-4.34-2.12-7.28-16.73.89-.39,3.56,8.18,13.54-.92,7.78-3.28,0,12.14-.27.13C180.48,122,180.24,122,180.12,122Zm-8.24-.62L180,121c.4-.15,2.73-1.3,4.88-2.4l0-10.08-6.67,2.78-13.28.9,3.17,7.28Z" style="fill:#dbdbdb"></path><rect x="178.64" y="110.76" width="0.97" height="10.84" transform="translate(-17.85 33.81) rotate(-10.27)" style="fill:#dbdbdb"></rect><polygon points="165.69 116.25 155.14 108.21 156.39 105.33 160.32 102.85 169.7 99.17 180.13 97.22 183.23 108.78 182.29 109.03 179.43 98.34 169.93 100.11 160.72 103.74 157.16 105.99 156.33 107.9 166.28 115.47 165.69 116.25" style="fill:#dbdbdb"></polygon><polygon points="157.56 108.97 156.73 108.46 157.83 106.67 161.14 104.57 170.5 100.9 180.22 98.99 180.41 99.94 170.73 101.84 161.54 105.46 158.54 107.37 157.56 108.97" style="fill:#dbdbdb"></polygon><rect x="183.51" y="108.42" width="0.97" height="11.17" transform="translate(-1.58 2.59) rotate(-0.8)" style="fill:#dbdbdb"></rect><path d="M155.31,156.47c19.22,16.41,34.31,24.86,41.12,21.62,9.78-4.64,22.91-31.44,27-44.86,1.15-3.75-23-10.77-25.4-7.35-2.93,4.14-10.46,26.61-10.87,26.92-.86.66-20-5.15-26.76-7.2C148,141.83,144.85,147.54,155.31,156.47Z" style="fill:#eb9481"></path><path d="M194.07,134.53s.59-1.4,1.49-10.66c.62-6.4,6.23-21.59,23.62-26.51,6.66-1.89,10.89,2,4.32,5.15-4.63,2.25-8,3.41-9.34,4.56,0,0,7.69,1.73,9.45,5.94a83.88,83.88,0,0,1,3.83,11.33,18.92,18.92,0,0,1-2.06.9,9.59,9.59,0,0,1-2.56,9.9l-1.45,4.07Z" style="fill:#ECEFF1"></path><path d="M197.13,117.86c2.45-2.31,7.73-7.12,13.42-9.56,6.31-2.7,19.21-6.21,21.16-1.53,1.43,3.44-3.38,5.21-3.38,5.21s5.64-.33,6.25,3.06c.56,3.08-3.24,4.23-3.24,4.23s3.45.39,3.42,3.47c0,3.7-7.28,2.27-10.55,6C223.47,129.55,197.13,117.86,197.13,117.86Z" style="fill:#ECEFF1"></path><path d="M212.29,115.45a27.45,27.45,0,0,1,15.93-3.56c.14,0,.2.13.07.15a67.24,67.24,0,0,0-16,3.47S212.26,115.47,212.29,115.45Z" style="fill:#263238"></path><path d="M215.21,121.75c2.45-1.31,9.88-3.59,16.11-2.6.14,0,.19.14.06.14a72.22,72.22,0,0,0-16.15,2.52A0,0,0,1,1,215.21,121.75Z" style="fill:#263238"></path><path d="M211.88,159.29c.76-1.7,1.56-3.37,2.35-5l2.4-5,2.39-5,2.35-5a54.47,54.47,0,0,1-1.82,5.26c-.69,1.73-1.45,3.42-2.25,5.1s-1.65,3.32-2.56,4.94S212.91,157.74,211.88,159.29Z" style="fill:#263238"></path><path d="M143,149.7c-.59,4.37,9.61,16.09,13,17.36s11.23-.49,11.54-.48,8.76-15.92,9-17.18-.38-5.64-1.67-7.17-14-13-18.7-11.14S144.37,139.25,143,149.7Z" style="fill:#455a64"></path><path d="M146.67,154.38l.48-2.17.94-1.56,7.37,4.45.41-.69,2,1.19-2.3,3.8-2-1.18.47-.78-5.4-3.26-.62,1Z" style="fill:#fff"></path><path d="M148.43,150.09l3.08-5.09,1.82,1.1c.62.85,1.16,1.53,1.61,2.06l1.24,1.39c.38.4.75.78,1.13,1.13s.77.68,1.17,1a14.8,14.8,0,0,0,1.22.84l-1.39,2.3a11.14,11.14,0,0,1-1.76-1.33A17.76,17.76,0,0,1,155,151.9c-.48-.55-.94-1.12-1.37-1.7s-.81-1.12-1.12-1.62l-.73,1.21,1.1.67-1,1.7Z" style="fill:#fff"></path><path d="M173,140.45a7.65,7.65,0,0,1,2,1.56,4.88,4.88,0,0,1,.76,1.1,7.23,7.23,0,0,1,.37,1.27,20.13,20.13,0,0,1,.35,5c-.48-1.62-.76-3.26-1.09-4.87a4.75,4.75,0,0,0-.85-2.16A20.83,20.83,0,0,0,173,140.45Z" style="fill:#263238"></path><path d="M147,158.21c1.34,1.53,2.69,3,4.1,4.5a21,21,0,0,0,4.57,3.79,7.43,7.43,0,0,0,2.81.6c1,.08,2,0,3,0s2-.12,3-.22,2-.2,3-.31a37.08,37.08,0,0,1-6,1.1,21,21,0,0,1-3.08.13,7.77,7.77,0,0,1-3.11-.64,17.8,17.8,0,0,1-4.67-4.07A42.44,42.44,0,0,1,147,158.21Z" style="fill:#263238"></path></g></svg>