<svg xmlns="http://www.w3.org/2000/svg" viewBox="0 0 500 500"><g id="freepik--background-complete--inject-1009"><path d="M458.27,153H350.6s10.67-29.16,27.1-29.16,21.58,20.12,21.58,20.12S410.36,133,419.47,133s17,14.45,17,14.45S449.36,139.66,458.27,153Z" style="fill:#ebebeb"></path><path d="M327.12,95.28H276.81S288.05,79,296.91,79s11.47,10.86,11.47,10.86,6.26-5.07,12.05-4.16S327.12,95.28,327.12,95.28Z" style="fill:#ebebeb"></path><path d="M247,188.7H196.71s11.24-16.29,20.1-16.29,11.48,10.86,11.48,10.86,6.25-5.07,12-4.16S247,188.7,247,188.7Z" style="fill:#ebebeb"></path><path d="M137.33,124.75h-98s13.43-30,27.78-31.84,21.23,22.27,21.23,22.27,9.26-8.53,16.54-8.53,12.91,11.24,12.91,11.24S132.33,110.19,137.33,124.75Z" style="fill:#ebebeb"></path><path d="M204.85,70.13H138.64s11.37-21.71,23.71-22,18.82,16.43,18.82,16.43S200.37,49.14,204.85,70.13Z" style="fill:#ebebeb"></path><path d="M458.27,297.68s-79.62-49.54-137.78-49.54c-56.92,0-134.13,25-155.11,30.63C110.26,293.5,39.31,297.68,39.31,297.68Z" style="fill:#dbdbdb"></path><path d="M39.31,297.68s43.41-33.21,92.44-33.21c34.22,0,83.34,13.37,129.61,20.89,17.61,2.86,109.31,12.32,109.31,12.32Z" style="fill:#c7c7c7"></path><polygon points="128.79 337.53 129.5 337.53 145.13 283 144.47 282.81 128.79 337.53" style="fill:#ebebeb"></polygon><polygon points="147.6 281.95 147.46 282.01 145.01 283.38 146.65 277.66 149.26 276.19 147.6 281.95" style="fill:#ebebeb"></polygon><path d="M144.64,274.86l1.36,2.61-1.64,5.73a12.61,12.61,0,0,0-1.37-2.59Z" style="fill:#ebebeb"></path><polygon points="63.36 337.51 64.08 337.51 44.72 284.19 44.07 284.42 63.36 337.51" style="fill:#ebebeb"></polygon><polygon points="46.11 281.89 46.03 282.03 44.85 284.57 42.82 278.97 44.06 276.25 46.11 281.89" style="fill:#ebebeb"></polygon><path d="M39.55,277.89l2.63,1.31,2,5.61a12.55,12.55,0,0,0-2.62-1.3Z" style="fill:#ebebeb"></path><path d="M323.35,372.3c.07-.86,1.41-.87,1.35,0-.16,2.11-.33,4.21-.49,6.32-.07.86-1.41.87-1.35,0C323,376.51,323.19,374.41,323.35,372.3Z" style="fill:#ebebeb"></path><path d="M319.58,373a8.68,8.68,0,0,1,2.59,5.67c.06.87-1.29.86-1.35,0a7.15,7.15,0,0,0-2.19-4.71C318,373.3,319,372.35,319.58,373Z" style="fill:#ebebeb"></path><path d="M154,440.87c.07-.86,1.41-.86,1.35,0-.16,2.11-.33,4.22-.49,6.32-.07.86-1.41.87-1.35,0Q153.72,444,154,440.87Z" style="fill:#ebebeb"></path><path d="M150.2,441.53a8.67,8.67,0,0,1,2.58,5.66c.06.87-1.29.86-1.35,0a7.17,7.17,0,0,0-2.19-4.71C148.62,441.87,149.58,440.92,150.2,441.53Z" style="fill:#ebebeb"></path><path d="M44.23,398.27c.07-.85,1.42-.86,1.35,0-.16,2.11-.33,4.22-.49,6.32-.06.86-1.41.87-1.34,0Z" style="fill:#ebebeb"></path><path d="M40.47,398.93a8.67,8.67,0,0,1,2.58,5.67c.06.86-1.28.86-1.34,0a7.26,7.26,0,0,0-2.2-4.72C38.9,399.27,39.85,398.32,40.47,398.93Z" style="fill:#ebebeb"></path><path d="M205.52,368.49c-.07-.86-1.41-.86-1.35,0q.26,3.17.49,6.32c.07.86,1.41.87,1.35,0C205.85,372.71,205.68,370.6,205.52,368.49Z" style="fill:#ebebeb"></path><path d="M209.29,369.15a8.63,8.63,0,0,0-2.59,5.66c-.06.87,1.29.86,1.35,0a7.17,7.17,0,0,1,2.19-4.71C210.86,369.49,209.91,368.54,209.29,369.15Z" style="fill:#ebebeb"></path><path d="M457.2,375.57c.74-.46,1.51.65.77,1.1a4.22,4.22,0,0,0-2.06,3.6c0,.86-1.35,1-1.35.1A5.59,5.59,0,0,1,457.2,375.57Z" style="fill:#ebebeb"></path><path d="M452.49,380.42l.66-8.05c.07-.87,1.39-.61,1.32.25l-.66,8.06C453.74,381.54,452.42,381.28,452.49,380.42Z" style="fill:#ebebeb"></path><path d="M450.57,375.79a6.23,6.23,0,0,1,1.26,4.37c-.07.86-1.4.6-1.33-.26a4.76,4.76,0,0,0-1-3.34C448.93,375.87,450,375.11,450.57,375.79Z" style="fill:#ebebeb"></path><path d="M283.47,409.17c.74-.45,1.51.65.77,1.1a4.22,4.22,0,0,0-2.06,3.6c0,.86-1.35,1-1.35.1A5.59,5.59,0,0,1,283.47,409.17Z" style="fill:#ebebeb"></path><path d="M278.76,414l.66-8c.07-.87,1.4-.61,1.33.25l-.66,8.06C280,415.14,278.69,414.88,278.76,414Z" style="fill:#ebebeb"></path><path d="M276.84,409.39a6.23,6.23,0,0,1,1.26,4.37c-.07.86-1.39.6-1.33-.26a4.76,4.76,0,0,0-1-3.34C275.2,409.47,276.31,408.71,276.84,409.39Z" style="fill:#ebebeb"></path><path d="M402.31,418.23a13.89,13.89,0,0,1,2.29-5.74c.49-.71,1.65,0,1.16.68a13,13,0,0,0-2.15,5.42C403.48,419.44,402.18,419.08,402.31,418.23Z" style="fill:#ebebeb"></path><path d="M400.58,413.05a13.34,13.34,0,0,1,.93,5.86c-.05.86-1.38.63-1.33-.23a11.6,11.6,0,0,0-.86-5.14A.68.68,0,0,1,400.58,413.05Z" style="fill:#ebebeb"></path><path d="M391.7,354.5l.87-6.25c.12-.86,1.42-.49,1.3.36l-.87,6.24C392.88,355.71,391.59,355.34,391.7,354.5Z" style="fill:#ebebeb"></path><path d="M393.82,355.39a6.43,6.43,0,0,1,3-4.55c.73-.46,1.41.7.68,1.16a5.16,5.16,0,0,0-2.38,3.75C395,356.6,393.7,356.24,393.82,355.39Z" style="fill:#ebebeb"></path><path d="M389.45,351.47a6.46,6.46,0,0,1,1.67,5.48c-.13.85-1.43.49-1.3-.36a5,5,0,0,0-1.32-4.17C387.91,351.79,388.86,350.83,389.45,351.47Z" style="fill:#ebebeb"></path><path d="M177.43,390.12l.87-6.25c.12-.85,1.42-.49,1.3.36l-.87,6.24C178.61,391.33,177.32,391,177.43,390.12Z" style="fill:#ebebeb"></path><path d="M179.55,391a6.45,6.45,0,0,1,3-4.55c.73-.46,1.41.7.67,1.16a5.24,5.24,0,0,0-2.38,3.75C180.72,392.22,179.43,391.86,179.55,391Z" style="fill:#ebebeb"></path><path d="M175.18,387.09a6.49,6.49,0,0,1,1.67,5.48c-.13.85-1.43.49-1.3-.36a5,5,0,0,0-1.32-4.17C173.64,387.41,174.59,386.46,175.18,387.09Z" style="fill:#ebebeb"></path><path d="M69.07,417.53l.87-6.25c.12-.85,1.41-.49,1.3.36l-.87,6.25C70.25,418.74,69,418.38,69.07,417.53Z" style="fill:#ebebeb"></path><path d="M71.18,418.42a6.45,6.45,0,0,1,3-4.55c.74-.46,1.41.7.68,1.16a5.21,5.21,0,0,0-2.38,3.75C72.36,419.63,71.06,419.27,71.18,418.42Z" style="fill:#ebebeb"></path><path d="M66.82,414.5A6.45,6.45,0,0,1,68.48,420c-.13.85-1.42.49-1.3-.36a5,5,0,0,0-1.32-4.17C65.27,414.82,66.22,413.87,66.82,414.5Z" style="fill:#ebebeb"></path></g><g id="freepik--Shadow--inject-1009"><ellipse cx="355.29" cy="432.57" rx="95.73" ry="18.22" style="fill:#ebebeb"></ellipse></g><g id="freepik--Floor--inject-1009"><polygon points="463.06 297.63 409.5 297.88 355.93 297.96 248.79 298.13 141.65 297.96 88.09 297.88 34.52 297.63 88.09 297.39 141.65 297.3 248.79 297.13 355.93 297.3 409.5 297.39 463.06 297.63" style="fill:#263238"></polygon></g><g id="freepik--Trees--inject-1009"><path d="M413.2,243.43s-14.63,32.5,9.26,32.53,8.44-33.61,8.44-33.61,5.53-2.43-.86-20.58-9.26-18.14-11.93-18.15c-3.36,0-6.51,7.85-4.22,19.91C413.89,223.53,405.47,238.56,413.2,243.43Z" style="fill:#37474f"></path><polygon points="424.55 297.52 422.3 248.54 419.95 297.52 424.55 297.52" style="fill:#263238"></polygon><polygon points="423.22 269.08 414.55 258.93 421.34 270.42 423.22 269.08" style="fill:#263238"></polygon><path d="M446.32,247.54s6.73-2.66,12.06,6.64c5.47,9.53-1.41,15.8-6.85,12.06,0,0-4.28,9-12.82,6.82s-9.93-9-9.93-9-7.58.52-7.79-5.14,5.35-10.67,5.35-10.67.34-14.1,9.53-14S446.32,247.54,446.32,247.54Z" style="fill:#455a64"></path><polygon points="440.01 297.5 438.14 255.54 436.17 297.49 440.01 297.5" style="fill:#263238"></polygon><polygon points="438.69 271.31 444.6 259.55 437.72 269.47 438.69 271.31" style="fill:#263238"></polygon><path d="M195,237.28s-16.22,36,10.27,36.07,9.36-37.27,9.36-37.27,6.14-2.69-1-22.82-10.27-20.12-13.22-20.13c-3.73,0-7.22,8.71-4.69,22.08C195.77,215.21,186.44,231.88,195,237.28Z" style="fill:#37474f"></path><polygon points="207.6 297.27 205.11 242.95 202.5 297.27 207.6 297.27" style="fill:#263238"></polygon><polygon points="206.12 265.72 196.51 254.47 204.04 267.21 206.12 265.72" style="fill:#263238"></polygon><path d="M301.6,244.94s14.15,31.6-9.06,31.57-8.13-32.66-8.13-32.66-5.37-2.37.88-20,9-17.61,11.63-17.6c3.27,0,6.3,7.63,4.06,19.34C301,225.6,309.13,240.22,301.6,244.94Z" style="fill:#37474f"></path><polygon points="290.46 297.46 292.75 249.88 294.93 297.46 290.46 297.46" style="fill:#263238"></polygon><polygon points="291.82 269.83 300.26 259.99 293.63 271.13 291.82 269.83" style="fill:#263238"></polygon><path d="M185.38,241.21s7.56-3,13.55,7.45c6.13,10.7-1.58,17.74-7.69,13.54,0,0-4.81,10.07-14.4,7.66s-11.14-10.09-11.14-10.09-8.52.59-8.75-5.76,6-12,6-12,.38-15.83,10.69-15.7S185.38,241.21,185.38,241.21Z" style="fill:#455a64"></path><polygon points="178.31 297.3 176.2 250.19 173.99 297.29 178.31 297.3" style="fill:#263238"></polygon><polygon points="176.85 267.84 183.46 254.69 175.54 265.81 176.85 267.84" style="fill:#263238"></polygon></g><g id="freepik--Target--inject-1009"><rect x="80.69" y="327.87" width="42.9" height="1.8" style="fill:#455a64"></rect><polygon points="82.31 329.67 61.26 325.59 61.26 323.79 82.31 327.87 82.31 329.67" style="fill:#455a64"></polygon><polygon points="130.33 367.46 133.63 367.46 115.46 275.03 107.27 275.03 130.33 367.46" style="fill:#455a64"></polygon><path d="M115.46,275h-8.2l4.88,19.55a43,43,0,0,0,6.65-2.63Z" style="fill:#37474f"></path><polygon points="72.88 367.46 69.59 367.46 92.66 275.03 100.86 275.03 72.88 367.46" style="fill:#455a64"></polygon><path d="M92.66,275l-4.93,19.75a44,44,0,0,0,6.74,1.35l6.39-21.1Z" style="fill:#37474f"></path><polygon points="45.55 367.46 42.26 367.46 82.11 270.01 90.31 270.01 45.55 367.46" style="fill:#455a64"></polygon><path d="M74.54,288.58a45.76,45.76,0,0,0,5.67,3.33L90.31,270h-8.2Z" style="fill:#37474f"></path><ellipse cx="92.27" cy="241.03" rx="43.75" ry="51.65" transform="translate(-83.22 51.79) rotate(-21.89)" style="fill:#ECEFF1"></ellipse><polygon points="94.28 189.75 83.88 190.52 100.94 291.5 111.34 290.73 94.28 189.75" style="fill:#ECEFF1"></polygon><g style="opacity:0.1"><ellipse cx="92.27" cy="241.03" rx="43.75" ry="51.65" transform="translate(-83.22 51.79) rotate(-21.89)"></ellipse><polygon points="94.28 189.75 83.88 190.52 100.94 291.5 111.34 290.73 94.28 189.75"></polygon></g><ellipse cx="101.84" cy="240.31" rx="43.75" ry="51.65" transform="translate(-82.26 55.31) rotate(-21.89)" style="fill:#ECEFF1"></ellipse><ellipse cx="101.84" cy="240.31" rx="34.13" ry="40.29" transform="translate(-82.26 55.31) rotate(-21.89)" style="fill:#fff"></ellipse><ellipse cx="101.84" cy="240.31" rx="24.61" ry="29.05" transform="translate(-82.26 55.3) rotate(-21.89)" style="fill:#ECEFF1"></ellipse><ellipse cx="101.84" cy="240.31" rx="14.98" ry="17.69" transform="translate(-82.26 55.3) rotate(-21.89)" style="fill:#fff"></ellipse><path d="M95,239.47c0,4.24,3.1,8.05,6.89,8.51s6.83-2.59,6.81-6.82-3.11-8-6.89-8.52S95,235.23,95,239.47Z" style="fill:#ECEFF1"></path></g><g id="freepik--Arrows--inject-1009"><rect x="104.83" y="216.68" width="76.85" height="0.8" transform="translate(-70.61 69.07) rotate(-21.89)" style="fill:#263238"></rect><polygon points="181.8 204.64 181.63 204.56 178.62 203.29 185.06 200.7 188.27 202.04 181.8 204.64" style="fill:#263238"></polygon><path d="M186.18,196.85,184.76,200l-6.44,2.58a14.74,14.74,0,0,0,1.41-3.1Z" style="fill:#263238"></path><polygon points="105.99 230.65 107.04 233.07 110.47 233.12 108.42 231.07 108.48 228.18 105.99 230.65" style="fill:#263238"></polygon><rect x="55.36" y="211.68" width="76.85" height="0.8" transform="translate(-114.92 111.02) rotate(-40.31)" style="fill:#263238"></rect><polygon points="126.43 188.1 126.24 188.08 122.98 187.82 128.28 183.34 131.75 183.59 126.43 188.1" style="fill:#263238"></polygon><path d="M128.13,179.33l-.37,3.4-5.29,4.49a15.31,15.31,0,0,0,.36-3.39Z" style="fill:#263238"></path><polygon points="62.38 237.4 63.75 238.91 67.75 237.66 65.16 236.36 64.3 233.59 62.38 237.4" style="fill:#263238"></polygon><rect x="140.82" y="218.6" width="0.8" height="76.85" transform="translate(-147.44 308.81) rotate(-71.39)" style="fill:#263238"></rect><polygon points="178.59 272.61 178.52 272.44 177.06 269.52 183.63 271.73 185.21 274.84 178.59 272.61" style="fill:#263238"></polygon><path d="M187,269.54l-3.1,1.44-6.58-2.21a14.73,14.73,0,0,0,3.09-1.45Z" style="fill:#263238"></path><polygon points="103.31 243.2 102.73 245.16 105.86 247.94 105.64 245.05 107.57 242.88 103.31 243.2" style="fill:#263238"></polygon><rect x="118.84" y="324.78" width="66.02" height="0.69" transform="translate(-206.6 308.5) rotate(-62.31)" style="fill:#263238"></rect><polygon points="170.13 295.52 169.98 295.56 167.3 296.4 170.07 291.13 172.92 290.21 170.13 295.52" style="fill:#263238"></polygon><path d="M168.67,288l.8,2.83-2.77,5.28a12.18,12.18,0,0,0-.81-2.81Z" style="fill:#263238"></path><polygon points="135.06 354.45 138.65 354.45 139.35 353.88 136.87 353.68 135.29 351.75 135.06 354.45" style="fill:#263238"></polygon></g><g id="freepik--Character--inject-1009"><rect x="325.01" y="159.33" width="91.58" height="1" transform="translate(141.29 492.05) rotate(-78.68)" style="fill:#263238"></rect><polygon points="376.8 111.82 376.95 112.01 379.19 115.42 380.9 106.91 378.51 103.27 376.8 111.82" style="fill:#263238"></polygon><path d="M385.37,104.64l-3.5,2.46-1.71,8.51a19.05,19.05,0,0,1,3.5-2.44Z" style="fill:#263238"></path><polygon points="359.04 201.6 362.03 203.64 365.58 202.91 360.76 210 359.04 201.6" style="fill:#263238"></polygon><rect x="370.25" y="121.78" width="1" height="91.58" transform="translate(-14.72 37.39) rotate(-5.66)" style="fill:#263238"></rect><polygon points="362.46 119.9 362.65 120.03 365.8 122.64 364.94 114 361.6 111.22 362.46 119.9" style="fill:#263238"></polygon><path d="M368.56,110.53l-2.63,3.38.85,8.63a18.82,18.82,0,0,1,2.63-3.36Z" style="fill:#263238"></path><polygon points="371.7 210.95 375.15 212.03 378.33 210.29 375.79 218.48 371.7 210.95" style="fill:#263238"></polygon><rect x="310.55" y="161.26" width="91.58" height="1" transform="matrix(0.02, -1, 1, 0.02, 187.65, 514.87)" style="fill:#263238"></rect><polygon points="353.75 113.44 353.93 113.6 356.74 116.56 356.92 107.89 353.93 104.72 353.75 113.44" style="fill:#263238"></polygon><path d="M360.91,104.86l-3,3-.17,8.67a18.69,18.69,0,0,1,3-3Z" style="fill:#263238"></path><polygon points="352.15 204.95 355.45 206.43 358.81 205.08 355.32 212.91 352.15 204.95" style="fill:#263238"></polygon><rect x="358.95" y="127.67" width="1" height="91.58" transform="translate(-17.82 43.21) rotate(-6.71)" style="fill:#37474f"></rect><polygon points="350.29 125.95 350.49 126.08 353.68 128.63 352.67 120.01 349.27 117.29 350.29 125.95" style="fill:#37474f"></polygon><path d="M356.22,116.47l-2.57,3.43,1,8.61a19.11,19.11,0,0,1,2.57-3.4Z" style="fill:#37474f"></path><polygon points="361.2 216.82 364.68 217.83 367.82 216.04 365.44 224.27 361.2 216.82" style="fill:#37474f"></polygon><rect x="323.16" y="175.45" width="91.58" height="1" transform="translate(165.95 530.74) rotate(-85.72)" style="fill:#37474f"></rect><polygon points="369.02 127.57 369.19 127.73 371.84 130.84 372.49 122.19 369.67 118.87 369.02 127.57" style="fill:#37474f"></polygon><path d="M376.64,119.39l-3.17,2.87-.65,8.65a18.75,18.75,0,0,1,3.17-2.85Z" style="fill:#37474f"></path><polygon points="362.39 218.84 365.61 220.5 369.04 219.34 365.13 226.97 362.39 218.84" style="fill:#37474f"></polygon><rect x="365.17" y="132.55" width="1" height="91.58" transform="translate(-11.48 25.76) rotate(-3.97)" style="fill:#37474f"></rect><polygon points="358.79 130.44 358.98 130.59 362.05 133.28 361.45 124.63 358.19 121.74 358.79 130.44" style="fill:#37474f"></polygon><path d="M365.16,121.26l-2.73,3.3.6,8.65a19.33,19.33,0,0,1,2.73-3.28Z" style="fill:#37474f"></path><polygon points="365.34 221.73 368.77 222.91 371.99 221.26 369.21 229.38 365.34 221.73" style="fill:#37474f"></polygon><rect x="349.82" y="137.41" width="30.61" height="98.9" style="fill:#ECEFF1"></rect><rect x="349.82" y="137.41" width="30.61" height="98.9" style="opacity:0.30000000000000004"></rect><path d="M379.46,141.73c-3.64-.31-7.31-.3-11-.26s-7.23.1-10.85.18c-2.07,0-4.15.11-6.22.27a.11.11,0,0,0,0,.22c3.64.24,7.32.21,11,.25s7.24,0,10.86,0c2.08,0,4.14-.13,6.21-.32A.16.16,0,0,0,379.46,141.73Z" style="fill:#263238"></path><path d="M379.46,144.58c-3.64-.3-7.31-.29-11-.25s-7.23.1-10.85.18c-2.07.05-4.15.1-6.22.27a.11.11,0,0,0,0,.21c3.64.25,7.32.22,11,.26s7.24,0,10.86,0c2.08,0,4.14-.13,6.21-.32A.16.16,0,0,0,379.46,144.58Z" style="fill:#263238"></path><path d="M290,426.76c2.25-1.91,24.52-12.81,24.52-12.81L312.2,376.2s-3.68-37.09-2.74-61.91c1-27,12.61-107.18,12.61-107.18H357s-8.93,80.53-9.12,107.5c-.18,25,2.05,60.35,2.05,60.35s2.73,37.77,2.73,37.8c0,7.39-.07,13.88-.43,17.23a.13.13,0,0,1,0,.06,5.11,5.11,0,0,1-.53,2.28l0,.05c-2.2,1.5-61.3,3.53-63.39,2.9S287.8,428.67,290,426.76Z" style="fill:#eb9481"></path><path d="M352.1,404.83s.57,7.9.57,7.93c0,7.39-.07,13.88-.43,17.23a.13.13,0,0,1,0,.06,10.54,10.54,0,0,1-.53,2.28l0,.05c-2.2,1.5-61.3,3.53-63.39,2.9s-.47-6.61,1.76-8.52S314.55,414,314.55,414l-.5-8Z" style="fill:#455a64"></path><path d="M288.27,435.28c2.09.63,61.19-1.39,63.39-2.9.84-.56,1-9.19,1-19.62v-.33l-38.15.88,0,.65s-22.28,10.89-24.52,12.8S286.18,434.67,288.27,435.28Z" style="fill:#ECEFF1"></path><path d="M288.86,433c9.95-.59,50.16-2,60-1.83.08,0,.09.05,0,.06-9.86.8-50.07,1.89-60.05,1.93C288.65,433.13,288.65,433,288.86,433Z" style="fill:#263238"></path><path d="M311.35,414.18c3.9-.86,8.71-.43,11.8,2.26.12.11,0,.28-.16.24a54.17,54.17,0,0,0-11.61-2A.25.25,0,0,1,311.35,414.18Z" style="fill:#263238"></path><path d="M308.58,416c3.9-.86,8.71-.42,11.8,2.27.12.1,0,.27-.16.23a55.66,55.66,0,0,0-11.61-2A.25.25,0,0,1,308.58,416Z" style="fill:#263238"></path><path d="M305.81,417.79c3.89-.87,8.71-.43,11.8,2.26.12.1,0,.27-.16.24a55,55,0,0,0-11.61-2A.25.25,0,0,1,305.81,417.79Z" style="fill:#263238"></path><polygon points="357.01 207.11 352.88 285.24 309.62 279.62 322.07 207.11 357.01 207.11" style="fill:#455a64"></polygon><path d="M349.82,276.08c-4.6-1-9.28-1.56-14-2.11s-9.25-1.05-13.88-1.53c-2.65-.28-5.31-.55-8-.68a.14.14,0,0,0,0,.28c4.62.9,9.31,1.46,14,2.09s9.23,1.23,13.86,1.73c2.66.29,5.31.52,8,.61A.2.2,0,0,0,349.82,276.08Z" style="fill:#263238"></path><polygon points="326.54 207.11 345.6 284.29 352.88 285.24 357.01 207.11 326.54 207.11" style="fill:#263238"></polygon><path d="M373.45,207.08c7.49,9.7,7.35,31.94,7.35,31.94s18.82,71,23.84,85.55c3.25,9.39,12.56,30.13,12.56,30.13s19.95,32.44,20,32.46c3.24,6.65,6,12.54,7.09,15.71a.13.13,0,0,1,0,.06,5.05,5.05,0,0,1,.51,2.29.13.13,0,0,1,0,.06c-1.33,2.31-53.71,29.76-55.86,30.1s-3.3-5.75-2.11-8.44,16.54-22.17,16.54-22.17l-19.62-32.59S372,354.67,365.46,335.39c-7.12-20.89-20.61-88.25-20.61-88.25-2-.84-8-3.5-9.25-4.22s-3-6.9-4.82-14c-2.53-9.73-5-21.07-5.13-21.79v0Z" style="fill:#eb9481"></path><path d="M444.78,405.22a.13.13,0,0,1,0,.06c-1.33,2.31-53.71,29.76-55.86,30.1s-3.29-5.75-2.12-8.44,16.55-22.18,16.55-22.18l-3.5-5.81c8.56-4.56,24.13-12.58,33.79-17.54,2.1,3.41,3.54,5.74,3.54,5.75,3.24,6.65,6,12.53,7.08,15.71a.14.14,0,0,1,0,.06A5.05,5.05,0,0,1,444.78,405.22Z" style="fill:#455a64"></path><path d="M388.91,435.38c2.15-.34,54.53-27.79,55.86-30.1.52-.87-3-8.74-7.61-18.12,0-.1-.09-.19-.14-.29L403,404.2l.31.57S388,424.24,386.8,426.94,386.76,435.73,388.91,435.38Z" style="fill:#ECEFF1"></path><path d="M388.44,433c8.71-4.84,44.32-23.56,53.31-27.68.07,0,.1,0,0,.05-8.54,5-44.3,23.42-53.27,27.78C388.32,433.28,388.25,433.14,388.44,433Z" style="fill:#263238"></path><path d="M400.56,406.36c3.13-2.47,7.66-4.16,11.61-3.08.16,0,.09.26,0,.28a55.28,55.28,0,0,0-11.33,3.23A.25.25,0,0,1,400.56,406.36Z" style="fill:#263238"></path><path d="M398.84,409.19c3.13-2.47,7.66-4.17,11.62-3.08.15,0,.09.26,0,.28a54.75,54.75,0,0,0-11.34,3.23A.25.25,0,0,1,398.84,409.19Z" style="fill:#263238"></path><path d="M397.12,412c3.14-2.47,7.67-4.16,11.62-3.08.15,0,.09.26,0,.28a55.28,55.28,0,0,0-11.33,3.23A.25.25,0,0,1,397.12,412Z" style="fill:#263238"></path><path d="M391.7,274.17l-42.33,12.61a249.5,249.5,0,0,1-8-32,79.25,79.25,0,0,1-7.41-3.57c-1.22-.67-3.54-7.49-5.83-15.25-3.15-10.62-3.89-28.91-3.89-28.91h50.21c9.89,21.48,11,44,11,44A189.13,189.13,0,0,0,391.7,274.17Z" style="fill:#455a64"></path><path d="M334.14,251.08a92,92,0,0,1,14.71,6.45.16.16,0,0,1-.13.3c-5-2-10-3.9-14.83-6.16A.32.32,0,0,1,334.14,251.08Z" style="fill:#263238"></path><path d="M331.82,217.46c0-.17.31-.22.31,0,.09,5.82.58,10.93,1.19,16.36.29,2.53,2.63,16.44,7,15.32.73-.18,1.09-.91,1.18-2a17.52,17.52,0,0,0-.68-4.27c-.55-2.91-1-5.83-1.32-8.78a80,80,0,0,1-.2-16.52.15.15,0,0,1,.29,0,150.91,150.91,0,0,0,1.84,22.77c.63,3.62,2.58,9-1.2,9.69s-6.56-8.45-7.09-10.94A83.58,83.58,0,0,1,331.82,217.46Z" style="fill:#263238"></path><path d="M340.2,249.49a22.94,22.94,0,0,1,1.05,2.87,6.54,6.54,0,0,1,.47,2.37.18.18,0,0,1-.31.08,8.79,8.79,0,0,1-1.07-2.3c-.35-.88-.72-1.76-1-2.66A.49.49,0,0,1,340.2,249.49Z" style="fill:#263238"></path><path d="M385.22,267.59c-4.54.9-9,2.18-13.44,3.49s-8.77,2.64-13.15,4c-2.5.77-5,1.56-7.47,2.47a.14.14,0,0,0,.08.27c4.53-1,9-2.28,13.44-3.5s8.83-2.47,13.21-3.81c2.51-.76,5-1.59,7.45-2.54A.2.2,0,0,0,385.22,267.59Z" style="fill:#263238"></path><path d="M348.75,146.92c-3.6,10.43-31.59,36.67-41.46,39.19-13.94,3.57-34.09,1.53-41.73-.19-3.33-.76-3.38-25.4.26-25.13,7.8.58,31.61,3,34.29,2.49s22.6-10.41,32.62-16.92C346.18,137.64,350.57,141.65,348.75,146.92Z" style="fill:#eb9481"></path><path d="M272.59,190.08s28.6-.75,36.48-3.61a36.09,36.09,0,0,0,8.26-4.79c.36-.26.73-.53,1.12-.83a150,150,0,0,0,16.06-14.42h0l.8-.82c2.95-3,5.83-6.22,8.5-9.37,10.06-11.88,6.49-18.44-1.24-15.71l-.37.14h0a16.82,16.82,0,0,0-2.73,1.31l-.31.19c-9.41,5.53-36.37,20.08-39.62,20.36s-27.62-3-27.62-3,.38,20.65.57,28v.34c0,.11,0,.21,0,.31h0C272.55,189.3,272.58,190,272.59,190.08Z" style="fill:#ECEFF1"></path><path d="M279.58,187c.07-11-1.51-22.5-1.65-24.53,0-.1-.16-.08-.15,0,.24,2,.62,15.36,1.64,24.53C279.43,187.11,279.58,187.08,279.58,187Z" style="fill:#263238"></path><path d="M317.33,181.68c.36-.26.73-.53,1.12-.83a150,150,0,0,0,16.06-14.42h0l.8-.82c2.95-3,5.83-6.22,8.5-9.37,10.06-11.88,6.49-18.44-1.24-15.71l-.37.14h0a16.82,16.82,0,0,0-2.73,1.31l-.31.19-5.33,9.63-.17.31Z" style="opacity:0.1"></path><path d="M380,215.05c-.15.16-60-1.3-60.57-2-.75-.91,10.35-59.06,20.74-71.93,2.59-3.22,10.94-3.65,14.8-.53C374.08,156.11,380.53,214.49,380,215.05Z" style="fill:#ECEFF1"></path><path d="M354,149.67c3.2,4.61,37.85,31,39.43,32.27,4.42,3.61,24.48,5.32,21.47-7.7s-38.11-27.74-53.32-32.66C350.74,138.06,348.1,141.11,354,149.67Z" style="fill:#ECEFF1"></path><path d="M338.69,142.46c-1.08-1-3.8,1-3.92,2.64s5.44,30.49,16.55,44.15,29.11,23.24,29.11,22.74v-3.63c0-.5-16.15-11.8-22.44-19.11s-13.8-26.5-15.41-31S339.79,143.48,338.69,142.46Z" style="fill:#263238"></path><path d="M266.61,185.87c2.86-.72,5.8-19.89,3.72-22.08a11.91,11.91,0,0,0-2.53-1.68h0a42.69,42.69,0,0,1-6.56-10.67c-1.82-4.66-4-11.79-6.52-10.91-3.72,1.28-2.06,10.62-.79,15.93-2.85-.81-5.39-1.24-7-.95-5.2,1-3.86,24.74.88,27.29C252.43,185.25,263.75,186.6,266.61,185.87Z" style="fill:#eb9481"></path><rect x="291.5" y="102.95" width="1" height="102.17" transform="translate(87.05 412.85) rotate(-79.44)" style="fill:#263238"></rect><polygon points="345.3 160.37 345.11 160.52 341.74 162.81 350.26 164.4 353.87 161.97 345.3 160.37" style="fill:#263238"></polygon><path d="M352.59,168.84l-2.51-3.47-8.53-1.59a18.41,18.41,0,0,1,2.49,3.47Z" style="fill:#263238"></path><polygon points="244.88 141.86 242.88 144.88 243.66 148.41 236.5 143.69 244.88 141.86" style="fill:#263238"></polygon><polygon points="280.63 75.19 296.56 97.27 312.43 119.39 344.16 163.64 344.31 163.84 344.1 163.98 299.79 194.96 277.63 210.44 255.43 225.87 277.49 210.24 299.6 194.69 343.81 163.58 343.76 163.93 312.16 119.58 296.37 97.41 280.63 75.19" style="fill:#263238"></polygon><path d="M259,224.11c1-3.9-1.55-7.08-2.19-12-.68-5.11-6.79-34.15-7.65-52-.34-7.1,4.25-11.41,4.56-13.24.26-1.56-2.3-7.5-.29-12.6,6.33-16,21.83-42.13,24.28-47,2.2-4.42,5.61-6.55,6-10.55.59-6.51-5.71-8.21-7.07-.08s-25.8,49.09-27.11,56.9,1,13.08,1,13.08-3.6,2.22-4.91,10,8,57.35,6.64,65.48S257.39,230.46,259,224.11Z" style="fill:#ECEFF1"></path><path d="M259,224.11c1-3.9-1.55-7.08-2.19-12-.68-5.11-6.79-34.15-7.65-52-.34-7.1,4.25-11.41,4.56-13.24.26-1.56-2.3-7.5-.29-12.6,6.33-16,21.83-42.13,24.28-47,2.2-4.42,5.61-6.55,6-10.55.59-6.51-5.71-8.21-7.07-.08s-25.8,49.09-27.11,56.9,1,13.08,1,13.08-3.6,2.22-4.91,10,8,57.35,6.64,65.48S257.39,230.46,259,224.11Z" style="opacity:0.30000000000000004"></path><path d="M255.3,155.62c1.4,2.37-2.19,2.66-2.19,2.66s5.27.82,5.78,3.82-3.88,3.1-4.19,3.12c.28,0,5.1.92,5.3,4s-4.21,2.64-4.49,2.6c.25.13,3.52,1.85,3.14,4.21-.66,4.06-9.15-.1-12.25,1.11,0,0,1.45,5.49,1.46,5.66,0,0-8.16-3.8-9.55-8.07a2.87,2.87,0,0,1,1.21-3.39s-2.76-.93-3-3.34c-.11-1.24,1.76-2.52,1.76-2.52a3.6,3.6,0,0,1-2.25-3c-.06-1.72,1.83-2.74,1.83-2.74s-1.72-1.78-1.21-3.56C237.67,152.59,252.29,150.55,255.3,155.62Z" style="fill:#eb9481"></path><path d="M238.15,159.53c-.05,0-.08-.06,0-.08a25.6,25.6,0,0,1,15.18-1.2c.16,0,.16.31,0,.3A52.66,52.66,0,0,0,238.15,159.53Z" style="fill:#263238"></path><path d="M238.22,165.45a.05.05,0,0,1,0-.1,23.92,23.92,0,0,1,16.64-.29c.19.07.28.32.06.26C251.17,164.2,242.87,164.39,238.22,165.45Z" style="fill:#263238"></path><path d="M255.84,172.09c-5.3-1.8-10.65-1.72-16.12-.85-.07,0-.08-.09,0-.11,2.56-1.16,6.11-1.35,8.88-1.27a14.68,14.68,0,0,1,7.32,2C256,172,256,172.13,255.84,172.09Z" style="fill:#263238"></path><path d="M253.18,158.22c.19.05-.09.28.1.33.8.23,5.49,2,5.38,3.83-.1,1.43-2.1,2.3-3,2.33l-2.26.07,2.15.72a9.43,9.43,0,0,1,2.66,1.36,3.31,3.31,0,0,1,1.45,2.27,1.89,1.89,0,0,1-1.23,2,5.8,5.8,0,0,1-2.85.21L253,171l2.36,1.22a9.1,9.1,0,0,1,1.82,1.26,3.62,3.62,0,0,1,1.13,1.72,1.69,1.69,0,0,1-.54,1.71,3.75,3.75,0,0,1-2,.58,30.27,30.27,0,0,1-4.62-.33c-.78-.09-1.56-.18-2.34-.23a5.6,5.6,0,0,0-2.34.21,5.8,5.8,0,0,1,2.31,0c.78.11,1.54.25,2.31.4a24.46,24.46,0,0,0,4.7.58,4.42,4.42,0,0,0,2.45-.61,2.43,2.43,0,0,0,.9-2.49,4.42,4.42,0,0,0-1.36-2.17,9.46,9.46,0,0,0-2-1.43l-.28.83a6.48,6.48,0,0,0,3.37-.21,2.72,2.72,0,0,0,1.41-1.19,3.08,3.08,0,0,0,.36-1.79,4.17,4.17,0,0,0-1.84-2.88,10.29,10.29,0,0,0-3-1.46l-.11.79c1.14-.08,3.48-.8,3.91-3C259.71,159.55,254.2,158.37,253.18,158.22Z" style="fill:#263238"></path><path d="M253.11,158.28a5.53,5.53,0,0,0,1.53-.7,1.26,1.26,0,0,0,.6-1.15,2.56,2.56,0,0,0-.68-1.31q-.54-.63-1.2-1.26a4.38,4.38,0,0,1,1.62.83,2.56,2.56,0,0,1,1,1.68,1.77,1.77,0,0,1-.27,1.06,1.9,1.9,0,0,1-.8.67A2.91,2.91,0,0,1,253.11,158.28Z" style="fill:#263238"></path><path d="M381.6,160.68c-3.15.27-16,19.25-11.75,21.22,17.5,8.16,36.21,4.72,40.21,3,5.24-2.18,6.2-9.2,4.3-12.4C411.62,167.92,384.73,160.41,381.6,160.68Z" style="fill:#eb9481"></path><path d="M384.73,160.5l-6.63,28.32s26.85,2.7,34.69-5.43c5.21-5.41,2.45-10,1.25-11.45C412.47,170,401.75,164.36,384.73,160.5Z" style="fill:#ECEFF1"></path><path d="M407.88,167.83c-10.44-5.33-22.92-7.32-22.94-7.33-.21-.08-.33.21-.2.24A137.33,137.33,0,0,1,407.86,168C407.93,168,408,167.86,407.88,167.83Z" style="fill:#263238"></path><path d="M385.22,188.1c.69-2.52,2.45-9.92,2.85-11.91.81-4.06,1.68-8.13,2.17-12.24,0-.07-.11-.12-.14,0-1.16,3.91-2,7.93-2.83,11.92-.43,2-2.14,11.16-2.17,12.23C385.1,188.14,385.2,188.18,385.22,188.1Z" style="fill:#263238"></path><path d="M382.67,161.2s-8.43-4.4-14.08-7c-3.15-1.46-8.77-3.48-11.58-3.5-4.19,0-21.75,2.58-21.22,6.85.49,3.86,15.29-.28,15.29-.28s-15.3,2.86-13.86,7.41,17.54-2.36,17.54-2.36-15.66,3.29-13.43,7.75C343,173.42,358,168,358,168s-13.44,2.92-11.86,6.46c1.75,3.91,15.85-.24,15.85-.24,5.54,8.31,11.36,10.42,16,10.7C379,185,382.67,161.2,382.67,161.2Z" style="fill:#eb9481"></path><path d="M355.6,156.09c-11.44,1.24-16.67,5.36-16.51,5.28a67.11,67.11,0,0,1,11.94-4c1.77-.43,2.81-.79,4.58-1.23A0,0,0,1,0,355.6,156.09Z" style="fill:#263238"></path><path d="M358,162.33a39.2,39.2,0,0,0-13.46,3.31c-.16.09-.09.13.08.08,2.25-.61,11.13-2.84,13.39-3.34C358,162.38,358,162.33,358,162.33Z" style="fill:#263238"></path><path d="M360.41,167.56a28.9,28.9,0,0,0-10.35,2.88c-.16.07,0,.14.13.09,3.42-1,6.1-1.85,10.24-2.84C360.49,167.67,360.49,167.55,360.41,167.56Z" style="fill:#263238"></path><path d="M342.76,149.67c2.48,1,9-3.33,10.91-7.49.13-.28-1.84-11.15-2-13.34,0-.45-13.5,4.39-13.5,4.39a35.12,35.12,0,0,1,2,8.32,4.54,4.54,0,0,1,0,.91s0,.09,0,.15C340,144.34,340,148.53,342.76,149.67Z" style="fill:#eb9481"></path><path d="M350.78,129c-.26,3.36-1.67,12.85-9.27,13.6a8.57,8.57,0,0,1-1.42,0c0-.06,0-.11,0-.15a6.8,6.8,0,0,0,0-.91,35.12,35.12,0,0,0-2-8.32S347.77,129.77,350.78,129Z" style="fill:#263238"></path><path d="M354,114.61c1,5-2.87,19-6.66,21.84-5.49,4.11-13.82,3.78-17.15-2.67-3.23-6.25,2.19-24.33,6.36-26.85C342.68,103.23,352.45,107.15,354,114.61Z" style="fill:#eb9481"></path><path d="M339.06,122.41s.06.07.05.11c-.28.92-.45,2,.31,2.56,0,0,0,.07,0,0C338.4,124.71,338.64,123.24,339.06,122.41Z" style="fill:#263238"></path><path d="M340.16,121.67c1.53.29.83,3.33-.59,3.06S338.87,121.42,340.16,121.67Z" style="fill:#263238"></path><path d="M333.89,121.15s-.08,0-.09.07c-.19,1-.56,2-1.49,2.12a0,0,0,0,0,0,0C333.38,123.48,333.86,122.08,333.89,121.15Z" style="fill:#263238"></path><path d="M333.28,120c-1.49-.46-2.31,2.55-.93,3S334.52,120.36,333.28,120Z" style="fill:#263238"></path><path d="M341.72,121.07a12.32,12.32,0,0,1-1.08-.69c-.41-.27-.77-.44-1-.91a.66.66,0,0,1,.28-.75,1.65,1.65,0,0,1,1.65.2,2.43,2.43,0,0,1,1.11,1.33A.7.7,0,0,1,341.72,121.07Z" style="fill:#263238"></path><path d="M332.65,117.52a10.88,10.88,0,0,0,1.28,0,2,2,0,0,0,1.3-.28.65.65,0,0,0,.14-.79,1.62,1.62,0,0,0-1.51-.67,2.38,2.38,0,0,0-1.64.57A.7.7,0,0,0,332.65,117.52Z" style="fill:#263238"></path><path d="M338.23,131.19c-.28.17-.57.42-.92.37a2.61,2.61,0,0,1-1-.47s-.06,0-.05,0a1.28,1.28,0,0,0,1.08.78,1,1,0,0,0,.93-.66C338.34,131.2,338.27,131.16,338.23,131.19Z" style="fill:#263238"></path><path d="M337.89,128.14a3.29,3.29,0,0,1-2.47.94,4.18,4.18,0,0,1-1.16-.22l-.22-.07-.2-.08a.26.26,0,0,1-.14-.26h0a.3.3,0,0,1,0-.1h0l0-.08c.15-.73.47-1.81.47-1.81-.3.07-1.79.37-1.68,0A49.29,49.29,0,0,1,336,117a.09.09,0,0,1,.17.06c-.76,3-2,5.86-2.85,8.87a5.39,5.39,0,0,1,1.62-.11c.1.05-.66,2.08-.7,2.42,0,0,0,0,0,0a4.55,4.55,0,0,0,3.55-.26C337.9,128,338,128.08,337.89,128.14Z" style="fill:#263238"></path><path d="M334.77,128.59a3.84,3.84,0,0,0,1.25,1.53,1.71,1.71,0,0,0,1,.31c.8,0,1-.71,1-1.33a4.16,4.16,0,0,0-.13-1A5.07,5.07,0,0,1,334.77,128.59Z" style="fill:#263238"></path><path d="M336,130.12a1.71,1.71,0,0,0,1,.31c.8,0,1-.71,1-1.33A1.81,1.81,0,0,0,336,130.12Z" style="fill:#ff9cbd"></path><path d="M351.81,127.45s5.78-7.83,5.75-12.67c0-2.19-2.83-3.92-2.83-3.92a4.93,4.93,0,0,0-1.1-5.07c-2.34-2.64-8.6-2.67-8.6-2.67s-3.49-6.19-9.39-4.4-2.79,8.58-2.79,8.58-2.36,2.77,2.53,5.55,15.12,1.43,15.12,1.43a35.47,35.47,0,0,0-.81,10.53A3.25,3.25,0,0,0,351.81,127.45Z" style="fill:#263238"></path><path d="M344,103.1a10,10,0,0,1,4.08-.36,10.91,10.91,0,0,1,3.55.89,6,6,0,0,1,3.8,4.88,4.19,4.19,0,0,1-1.08,3.08s-.08,0-.05,0c1.47-1.51,1-4.11-.23-5.6a9.12,9.12,0,0,0-5.8-2.77,17.69,17.69,0,0,0-4.24.06A.07.07,0,0,1,344,103.1Z" style="fill:#263238"></path><path d="M331.31,101.09a4.9,4.9,0,0,1,3.66-2.8,8.41,8.41,0,0,1,5.38.69,10.43,10.43,0,0,1,4.1,3.67s0,.07-.06,0a9.22,9.22,0,0,0-8.5-4.08,5,5,0,0,0-3.87,2.15,5,5,0,0,0-.26,4.24,9.45,9.45,0,0,0,3.32,4s0,.07,0,0a9.68,9.68,0,0,1-3.37-3.45A5.5,5.5,0,0,1,331.31,101.09Z" style="fill:#263238"></path><path d="M334.12,113a17.35,17.35,0,0,0,7.05,1.9,35.43,35.43,0,0,0,7.63-.34c1.47-.22,2.93-.49,4.39-.79,0,0,.06.06,0,.08a39,39,0,0,1-7.93,1.67,19.25,19.25,0,0,1-7.43-.75,16.74,16.74,0,0,1-3.75-1.72S334.09,113,334.12,113Z" style="fill:#263238"></path><path d="M349.89,125.88s3.72-4.22,5.67-2.84-1.21,7.74-3.75,8.37a2.49,2.49,0,0,1-3.18-1.71Z" style="fill:#eb9481"></path><path d="M354.61,124.84s0,.06,0,.07a6.32,6.32,0,0,0-3.68,3.56,1.37,1.37,0,0,1,2.09-.15.06.06,0,0,1-.06.09,1.53,1.53,0,0,0-1.74.34,7.38,7.38,0,0,0-1,1.27c-.1.14-.37,0-.29-.14l0,0C350.2,127.66,352.24,124.8,354.61,124.84Z" style="fill:#263238"></path></g></svg>