<svg xmlns="http://www.w3.org/2000/svg" viewBox="0 0 500 500"><g id="freepik--background-complete--inject-944"><path d="M414.79,322.89l13.36-.28,6.58-.11c2.19-.05,4.36,0,6.54-.06l-.44.45-.06-11.19.5.5L428,312.14c-4.41,0-8.82-.12-13.24-.17l.28-.27c0,1.83-.09,3.67-.14,5.54Zm0,0-.14-5.54c0-1.86-.11-3.75-.13-5.65v-.27h.27c4.42-.05,8.83-.16,13.24-.17l13.24-.06h.5v.5l0,11.19v.45h-.45c-2.23,0-4.47,0-6.69-.06l-6.66-.11Z" style="fill:#ebebeb"></path><path d="M429.56,337l13.36-.28,6.58-.11c2.19-.05,4.36,0,6.54-.06l-.44.45-.05-11.19.49.5-13.24-.06c-4.41,0-8.82-.12-13.24-.17l.28-.27c0,1.83-.09,3.67-.13,5.54Zm0,0-.14-5.54c0-1.86-.11-3.75-.13-5.65v-.27h.27c4.42-.05,8.83-.16,13.24-.17l13.24-.06h.51v.5L456.49,337v.45H456c-2.23,0-4.46,0-6.69-.06l-6.66-.11Z" style="fill:#ebebeb"></path><path d="M400,337l13.36-.28,6.58-.11c2.18-.05,4.36,0,6.54-.06l-.44.45L426,325.81l.5.5-13.24-.06c-4.41,0-8.83-.12-13.24-.17l.27-.27c0,1.83-.08,3.67-.13,5.54Zm0,0-.14-5.54c-.05-1.86-.11-3.75-.13-5.65v-.27H400c4.41-.05,8.83-.16,13.24-.17l13.24-.06h.5v.5L427,337v.45h-.44c-2.23,0-4.47,0-6.69-.06l-6.66-.11Z" style="fill:#ebebeb"></path><path d="M58.73,337l13.35-.28,6.58-.11c2.19-.05,4.37,0,6.55-.06l-.45.45-.05-11.19.5.5L72,326.25c-4.42,0-8.83-.12-13.24-.17l.27-.27c0,1.83-.09,3.67-.13,5.54Zm0,0-.15-5.54c0-1.86-.11-3.75-.13-5.65v-.27h.28c4.41-.05,8.82-.16,13.24-.17l13.24-.06h.5v.5L85.65,337v.45h-.44c-2.23,0-4.47,0-6.7-.06l-6.66-.11Z" style="fill:#ebebeb"></path><path d="M58.73,85.77l13.35-.28,6.58-.12c2.19,0,4.37,0,6.55-.05l-.45.45-.05-11.19.5.49L72,75c-4.42,0-8.83-.11-13.24-.16l.27-.27c0,1.83-.09,3.67-.13,5.53Zm0,0-.15-5.54c0-1.87-.11-3.76-.13-5.65v-.27h.28c4.41,0,8.82-.16,13.24-.16l13.24-.06h.5v.51l-.06,11.19v.44h-.44c-2.23,0-4.47,0-6.7,0L71.85,86Z" style="fill:#ebebeb"></path><path d="M44,99.88l13.35-.28,6.58-.12c2.19,0,4.36,0,6.55,0l-.45.45,0-11.19.5.49L57.2,89.12C52.78,89.12,48.37,89,44,89l.27-.27c0,1.83-.09,3.67-.13,5.53Zm0,0-.15-5.54c0-1.87-.11-3.76-.13-5.65v-.27H44c4.41,0,8.82-.16,13.24-.16l13.24-.06h.5v.51l-.06,11.19v.44h-.44c-2.24,0-4.47,0-6.7,0l-6.66-.12Z" style="fill:#ebebeb"></path><path d="M429.56,85.78l13.36-.28,6.58-.11c2.19,0,4.36,0,6.54-.06l-.44.45-.05-11.19.49.5L442.8,75c-4.41,0-8.82-.11-13.24-.16l.28-.27c0,1.83-.09,3.67-.13,5.53Zm0,0-.14-5.54c0-1.87-.11-3.75-.13-5.65v-.27h.27c4.42,0,8.83-.15,13.24-.16L456,74.09h.51v.5l-.05,11.19v.45H456c-2.23,0-4.46,0-6.69,0l-6.66-.11Z" style="fill:#ebebeb"></path><path d="M286.21,160.83l-13.35.28-6.58.11c-2.19.05-4.37,0-6.55.06l.45-.45.05,11.19-.5-.5,13.24.07c4.42,0,8.83.11,13.24.16l-.27.27c0-1.83.09-3.67.13-5.53Zm0,0,.15,5.54c0,1.87.11,3.75.13,5.65v.27h-.28c-4.41,0-8.82.15-13.24.16l-13.24.06h-.5V172l.06-11.19v-.45h.44c2.23,0,4.47,0,6.7.05l6.66.11Z" style="fill:#ebebeb"></path><path d="M271.44,146.72l-13.35.28-6.58.11c-2.19,0-4.37,0-6.55.06l.45-.45.05,11.19-.5-.5,13.24.07c4.41,0,8.83.11,13.24.16l-.27.27c0-1.83.08-3.67.13-5.53Zm0,0,.14,5.54c.05,1.87.12,3.75.13,5.65v.27h-.28c-4.41.05-8.83.15-13.24.16l-13.24.06h-.5v-.5l.06-11.19v-.45H245c2.23,0,4.47,0,6.7.05l6.66.11Z" style="fill:#ebebeb"></path><rect x="44.67" y="131.76" width="72.6" height="88.06" style="fill:#ebebeb"></rect><rect x="52.97" y="139.8" width="56.01" height="71.99" style="fill:#fff"></rect><rect x="52.97" y="139.8" width="2.19" height="71.99" style="fill:#dbdbdb"></rect><rect x="117.27" y="131.76" width="2.19" height="88.06" style="fill:#dbdbdb"></rect><rect x="71.74" y="149.72" width="13.21" height="39.35" style="fill:#dbdbdb"></rect><path d="M101.69,196.29H65.47V176h36.22Zm-35.22-1h34.22V177H66.47Z" style="fill:#ebebeb"></path><rect x="138.05" y="196.48" width="72.6" height="88.06" style="fill:#ebebeb"></rect><rect x="146.35" y="204.51" width="56.01" height="71.99" style="fill:#fff"></rect><rect x="146.35" y="204.51" width="2.19" height="71.99" style="fill:#dbdbdb"></rect><rect x="210.65" y="196.48" width="2.19" height="88.06" style="fill:#dbdbdb"></rect><rect x="168.93" y="223.12" width="11.31" height="28.61" style="fill:#ebebeb"></rect><path d="M192.66,260.73h-31.4V240h31.4Zm-30.4-1h29.4V241h-29.4Z" style="fill:#dbdbdb"></path><rect x="425.6" width="1" height="101.83" style="fill:#c7c7c7"></rect><polygon points="379.04 147.2 382.82 155.52 469.39 155.52 473.16 147.2 436.31 121.69 415.89 121.69 379.04 147.2" style="fill:#ebebeb"></polygon><polygon points="413.33 97.11 415.89 121.69 436.31 121.69 438.87 97.11 413.33 97.11" style="fill:#dbdbdb"></polygon><polygon points="379.04 147.2 382.83 155.52 469.39 155.52 473.17 147.2 379.04 147.2" style="fill:#dbdbdb"></polygon><rect x="324.55" width="1" height="74.98" style="fill:#c7c7c7"></rect><polygon points="277.98 120.35 281.77 128.67 368.34 128.67 372.11 120.35 335.25 94.84 314.84 94.84 277.98 120.35" style="fill:#ebebeb"></polygon><polygon points="312.28 70.26 314.84 94.84 335.25 94.84 337.81 70.26 312.28 70.26" style="fill:#dbdbdb"></polygon><polygon points="277.99 120.36 281.77 128.68 368.34 128.68 372.11 120.36 277.99 120.36" style="fill:#dbdbdb"></polygon></g><g id="freepik--Table--inject-944"><polygon points="45.3 439 96.48 438.76 147.65 438.67 250 438.5 352.35 438.67 403.52 438.75 454.69 439 403.52 439.24 352.35 439.33 250 439.5 147.65 439.33 96.48 439.24 45.3 439" style="fill:#263238"></polygon></g><g id="freepik--Character--inject-944"><path d="M290.37,359l0,.14s0,.06,0,.1,0,.16-.05.27l0,.18a3.08,3.08,0,0,0-.07.39c0,.09,0,.18-.05.28s-.07.42-.12.66-.15.81-.23,1.29l-.45,2.44c-.05.26-.1.54-.15.83s-.14.78-.22,1.19-.16.92-.25,1.41a0,0,0,0,0,0,0c-.06.34-.13.69-.19,1.05-.19,1.07-.39,2.21-.62,3.43a.29.29,0,0,0,0,.09c-.24,1.36-.5,2.82-.78,4.35-.07.4-.15.8-.23,1.2s-.16.84-.23,1.26c0,0,0,0,0,0,0,.26-.09.53-.15.8v0q-.57,3.19-1.23,6.76c-.15.8-.29,1.61-.44,2.43-.29,1.6-.59,3.24-.9,4.93-.08.39-.15.78-.21,1.18q-.68,3.67-1.39,7.64c-.06.27-.1.54-.15.81-.23,1.24-.46,2.49-.68,3.77a1.59,1.59,0,0,0-.06.3l-.33,1.82q-.66,3.66-1.36,7.49c-.12.63-.24,1.27-.35,1.92-.23,1.29-.47,2.59-.71,3.9-.3,1.63-.6,3.27-.9,4.94s-.6,3.34-.91,5c-.16.85-.31,1.7-.47,2.55-.18,1-.37,2-.55,3.07H189.51c10.66-44.29,19.65-80,19.65-80Z" style="fill:#37474f"></path><path d="M277.31,369q-6.49,35-13.12,70H263c4.59-23.39,9.32-46.74,14-70.1C277.06,368.68,277.34,368.77,277.31,369Z" style="fill:#263238"></path><path d="M290.36,359s0,.05,0,.14,0,.06,0,.1,0,.16-.05.27l0,.18a3.08,3.08,0,0,0-.07.39c0,.09,0,.18-.05.28s-.08.42-.12.66-.15.81-.23,1.29c-.14.71-.28,1.52-.45,2.44-.05.26-.1.54-.15.83s-.14.78-.22,1.19-.16.92-.25,1.41a0,0,0,0,0,0,0c-.06.34-.13.69-.19,1.05-.2,1.07-.4,2.21-.62,3.43a.29.29,0,0,0,0,.09c-.25,1.36-.51,2.8-.79,4.33-.08.4-.15.81-.22,1.22s-.16.84-.23,1.26c0,0,0,0,0,0-.06.26-.1.53-.15.8v0c-.39,2.12-.8,4.38-1.23,6.76-.15.8-.29,1.61-.44,2.43-.3,1.6-.6,3.24-.9,4.93-.08.39-.15.78-.21,1.18q-.69,3.69-1.39,7.64c-.06.27-.1.54-.15.81-.23,1.24-.46,2.49-.68,3.77a1.59,1.59,0,0,0-.06.3l-.33,1.82q-.68,3.66-1.36,7.49c-.12.63-.24,1.27-.35,1.92-.24,1.29-.47,2.59-.71,3.9-.3,1.63-.6,3.27-.9,4.94s-.61,3.34-.91,5c-.16.85-.31,1.7-.47,2.55-.18,1-.37,2-.56,3.07H232.55l-3.47-35.52-.12-1.26-.14-1.36h0l-.68-6.95h0l-.59-6L224.73,359Z" style="fill:#263238"></path><path d="M339.47,439H246.26c-.16-8.58-.33-16.88-.54-24.71h0c0-.19,0-.38,0-.57,0,0-10.88-6.44-16.74-11.49a20.69,20.69,0,0,1-2.74-2.72s0,0,0,0h0c-3.75-4.78-7.51-23.16-15.29-40.45H330C341.91,396.73,342.17,423.88,339.47,439Z" style="fill:#37474f"></path><path d="M223.53,398.24c5.54,2.27,10.53,5.76,15.45,9.13,5.12,3.49,9.81,7.53,14.73,11.28.19.15,0,.46-.2.32-5.19-3.31-10.62-6.22-15.75-9.63-5-3.31-10.16-6.53-14.48-10.7C223.11,398.48,223.3,398.14,223.53,398.24Z" style="fill:#263238"></path><path d="M222.83,366.17c.66,3.55,1.52,7.07,2.28,10.6.72,3.31,1.25,6.68,2.13,10a16.92,16.92,0,0,0,4.64,8.34c1.29,1.21,2.72,2.28,4.11,3.38.75.6,1.55,1.17,2.33,1.78-.1-.47-.18-1-.27-1.43l-.69-4c-.5-3-1-6-1.44-9-.9-5.89-1.73-11.84-3-17.67a.19.19,0,0,1,.37-.1c1.47,5.78,3.09,11.5,4.37,17.33.62,2.85,2.86,17,3,18s.19,2.07.22,3.1a12.46,12.46,0,0,1,0,3.17.26.26,0,0,1-.48,0h0a12.84,12.84,0,0,1-.9-3.06c-.25-1-.48-2-.66-3.06-.07-.36-.12-.74-.17-1.12-1.39-.85-2.69-2-4-2.9s-2.83-2-4.16-3.12a15.9,15.9,0,0,1-5.06-7.92,57.83,57.83,0,0,1-1.67-10.14c-.44-4-.77-8-1.33-12C222.43,366,222.78,365.93,222.83,366.17Z" style="fill:#263238"></path><path d="M317.67,390.89c-1.48-.77-7.25.6-17.74-1.19a12,12,0,0,1-5.66-2.3c-2.73-2.23-4.8-5.82-6.46-8.89a46.05,46.05,0,0,1-4.52-11c-.05-.24-.38-.12-.34.1.39,2.17.6,4.34,1.18,6.49a38.84,38.84,0,0,0,2.16,5.89c1.59,3.56,3.44,7.38,6.63,9.79,3.35,2.52,8,3,12.08,3.28,2.35.16,11.56-.09,12.8-1.4A.51.51,0,0,0,317.67,390.89Z" style="fill:#263238"></path><path d="M240.49,230c-22.77,17.23-64.22,42.19-80.55,44.94-18.16,3.05-48.26-43.51-68.28-72.17-4-5.69,38.34-39.34,42.27-33,10.29,16.46,30.47,53.23,34.79,53.95,3.53.6,38.86-7.76,58.75-12.71C259.13,203.05,256.51,217.82,240.49,230Z" style="fill:#d3766a"></path><path d="M101.21,214.45c5.89,3,39.19-25,38.91-31.81a26.58,26.58,0,0,0-1.78-6.56v0s.12-15.14,4.69-27.7c3.82-10.55,10.71-25.79,5.1-28.06C140,117,129,135.19,123.28,146c-3.62-5.59-7.26-10.06-10.34-11.89-10.21-6.06-43.09,36.09-38.84,47.4C78.2,192.45,95.31,211.45,101.21,214.45Z" style="fill:#d3766a"></path><path d="M126.8,146.64c-1.12,6.07-7.63,1.27-7.63,1.27s7.7,9.17,4.12,15c-3.47,5.59-11.13-.49-11.68-.92.4.49,7.26,9.1,3.06,14.56-4.37,5.68-11-1.74-11.44-2.22.24.58,3.22,8.31-.91,11.74C95.21,191.93,87,172.37,80,169.82c0,0-5.67,11.42-5.91,11.72,0,0-8.16-18.46-4.2-27.74A6.44,6.44,0,0,1,77,149.88s-3.29-5.66-.12-10.07c1.63-2.26,6.7-1.65,6.7-1.65s-2.45-4.64.62-8.39c2.44-3,7.14-1.92,7.14-1.92s-.28-5.55,3.2-7.8C101.51,115.49,129.21,133.64,126.8,146.64Z" style="fill:#d3766a"></path><path d="M92.06,127.91a.09.09,0,0,1,.06-.17c10.57,3.75,21,11.1,27.43,20.39.21.3-.2.78-.49.49C110.63,140.31,102.49,133.6,92.06,127.91Z" style="fill:#263238"></path><path d="M83.43,138c-.12-.06,0-.25.11-.2,10.87,3.92,22.43,12.53,28.54,24.1.21.4,0,1-.28.52C107.15,155.05,92.85,143.09,83.43,138Z" style="fill:#263238"></path><path d="M103.38,175.26c-6.29-10.87-15.44-18.63-26-25.25-.14-.08,0-.27.13-.23,6,1.84,12.31,6.76,16.87,11A33,33,0,0,1,103.76,175C103.83,175.26,103.51,175.49,103.38,175.26Z" style="fill:#263238"></path><path d="M119.38,147.91c.25.37-.56.33-.32.71,1,1.57,6.27,11.55,3.42,14.4-2.28,2.28-6.93.79-8.48-.49l-3.93-3.19,2.58,4.36a20.86,20.86,0,0,1,2.47,6.24,7.44,7.44,0,0,1-.9,6,4.25,4.25,0,0,1-5.08,1.62,12.89,12.89,0,0,1-5.12-3.86l-3.89-4.56,2.17,5.56a19.29,19.29,0,0,1,1.21,4.81,8,8,0,0,1-.62,4.59,3.81,3.81,0,0,1-3.43,2.08,8.49,8.49,0,0,1-4.27-2,67.07,67.07,0,0,1-7.32-7.37c-1.19-1.3-2.37-2.61-3.62-3.85A12.49,12.49,0,0,0,80,169.82a13.6,13.6,0,0,1,3.89,3.44c1.14,1.32,2.22,2.7,3.3,4.09a55.67,55.67,0,0,0,7.09,7.92,9.78,9.78,0,0,0,5,2.58A5.39,5.39,0,0,0,104.5,185a9.8,9.8,0,0,0,.93-5.67,21.39,21.39,0,0,0-1.27-5.38l-1.72,1a14.7,14.7,0,0,0,6,4.61,6.15,6.15,0,0,0,4.15.09,6.9,6.9,0,0,0,3.25-2.5,9.35,9.35,0,0,0,1.15-7.58,22.44,22.44,0,0,0-2.83-6.82l-1.35,1.17c2,1.55,7.05,3.79,11,.7C128.45,159.8,120.89,149.67,119.38,147.91Z" style="fill:#263238"></path><path d="M119.17,147.91A12.64,12.64,0,0,0,122.8,149a2.87,2.87,0,0,0,2.71-1.06,5.85,5.85,0,0,0,.79-3.22c0-1.24-.06-2.55-.17-3.9a9.85,9.85,0,0,1,1.51,3.8,5.79,5.79,0,0,1-.74,4.35,4.13,4.13,0,0,1-2,1.4,4.27,4.27,0,0,1-2.33-.06A6.59,6.59,0,0,1,119.17,147.91Z" style="fill:#263238"></path><path d="M186,219.61l5.18,44.69s33.51-19.32,51.59-34,13.24-25.67-8.53-22.93S186,219.61,186,219.61Z" style="fill:#ECEFF1"></path><path d="M220.3,211.94a2.74,2.74,0,1,0,2.74,2.74A2.74,2.74,0,0,0,220.3,211.94Zm0,4.94a2.21,2.21,0,0,1,0-4.41,2.21,2.21,0,1,1,0,4.41Zm-26.75,16.88a2.74,2.74,0,1,0,2.74,2.74A2.74,2.74,0,0,0,193.55,233.76Zm0,5a2.21,2.21,0,0,1,0-4.41,2.21,2.21,0,1,1,0,4.41Zm25.57-3.49a2.74,2.74,0,1,0,2.74,2.74A2.74,2.74,0,0,0,219.12,235.22Zm0,4.95a2.21,2.21,0,0,1,0-4.41,2.21,2.21,0,1,1,0,4.41Zm-14.09,6a2.74,2.74,0,1,0,2.74,2.74A2.74,2.74,0,0,0,205,246.14Zm0,4.94a2.21,2.21,0,1,1,0-4.41,2.21,2.21,0,0,1,0,4.41Zm-8.82-34.84-.51.16a2,2,0,0,1,.06.48,2.21,2.21,0,0,1-4.24.86l-.51.16a2.74,2.74,0,0,0,5.2-1.66Zm11,6.95a2.74,2.74,0,1,0,2.74,2.74A2.74,2.74,0,0,0,207.23,223.19Zm0,4.94a2.21,2.21,0,0,1,0-4.41,2.21,2.21,0,1,1,0,4.41Zm36.46-19.45a2.74,2.74,0,1,0,2.74,2.74A2.74,2.74,0,0,0,243.69,208.68Zm0,4.95a2.21,2.21,0,1,1,2.2-2.21A2.21,2.21,0,0,1,243.69,213.63Zm-11.28,10.09a2.74,2.74,0,1,0,2.74,2.74A2.75,2.75,0,0,0,232.41,223.72Zm0,4.95a2.21,2.21,0,1,1,2.21-2.21A2.2,2.2,0,0,1,232.41,228.67Z" style="opacity:0.1"></path><path d="M195.56,219.89c.15,1.52.53,3,.79,4.54s.47,3,.69,4.56q.61,4.41,1.26,8.81c.88,6,1.9,11.88,2.45,17.91,0,.09-.14.14-.16,0a141.58,141.58,0,0,1-3.36-17.62c-.43-3-.82-6-1.17-9-.18-1.52-.34-3.06-.44-4.6s-.08-3.12-.27-4.63C195.33,219.8,195.55,219.76,195.56,219.89Z" style="fill:#263238"></path><path d="M250.13,223a47.83,47.83,0,0,1-7.36,7.25c-18.08,14.7-51.59,34-51.59,34l-1.44-12.46Z" style="fill:#263238"></path><path d="M200.58,378.16h134.9s-20.6-128.72-70.33-172.74c-6.14-5.44-20-4.2-29,.29-3.23,1.61-14.82,17.82-18.13,33.16S200.22,377.7,200.58,378.16Z" style="fill:#ECEFF1"></path><path d="M259,218.24a2.74,2.74,0,1,0,2.74,2.74A2.75,2.75,0,0,0,259,218.24Zm0,4.95a2.21,2.21,0,1,1,2.21-2.21A2.2,2.2,0,0,1,259,223.19ZM272.68,213a2.17,2.17,0,0,1-1.37-1.51l-.62-.66v.1a2.72,2.72,0,0,0,2.58,2.73Zm-24.34,19.78a2.74,2.74,0,1,0,2.74,2.74A2.74,2.74,0,0,0,248.34,232.74Zm0,4.94a2.21,2.21,0,0,1,0-4.41,2.21,2.21,0,1,1,0,4.41Zm-15.93-14a2.74,2.74,0,1,0,2.74,2.74A2.75,2.75,0,0,0,232.41,223.72Zm0,4.95a2.21,2.21,0,1,1,2.21-2.21A2.2,2.2,0,0,1,232.41,228.67Zm11.28-20a2.74,2.74,0,1,0,2.74,2.74A2.74,2.74,0,0,0,243.69,208.68Zm0,4.95a2.21,2.21,0,1,1,2.2-2.21A2.21,2.21,0,0,1,243.69,213.63Zm-9.56,74.85a2.74,2.74,0,1,0,2.72,2.74A2.75,2.75,0,0,0,234.13,288.48Zm0,4.95a2.21,2.21,0,1,1,2.18-2.21A2.21,2.21,0,0,1,234.13,293.43Zm-23.2-3.85c0,.19-.05.37-.07.55a2.21,2.21,0,0,1-.52,4.19c0,.19-.05.38-.07.56a2.75,2.75,0,0,0,.66-5.3Zm-2.17,21.55a2.73,2.73,0,0,0-.5.05c0,.19,0,.38-.07.57a2.12,2.12,0,0,1,.57-.08,2.21,2.21,0,1,1-1.06,4.14l-.06.56a2.78,2.78,0,0,0,1.12.24,2.74,2.74,0,0,0,0-5.48Zm25.37-45.47a2.73,2.73,0,1,0,2.72,2.72A2.73,2.73,0,0,0,234.13,265.66Zm0,4.93a2.2,2.2,0,1,1,0-4.39,2.2,2.2,0,0,1,0,4.39Zm-12.8,6.84a2.73,2.73,0,1,0,2.72,2.72A2.73,2.73,0,0,0,221.33,277.43Zm0,4.92a2.2,2.2,0,1,1,2.18-2.2A2.2,2.2,0,0,1,221.33,282.35Zm-7.56-15c0,.21-.05.43-.08.64a2.18,2.18,0,0,1-.46,3.48c0,.21,0,.42-.08.64a2.74,2.74,0,0,0,1.75-2.56A2.71,2.71,0,0,0,213.77,267.37Zm8.14-11.67a2.73,2.73,0,1,0,2.72,2.72A2.73,2.73,0,0,0,221.91,255.7Zm0,4.92a2.2,2.2,0,1,1,2.19-2.2A2.19,2.19,0,0,1,221.91,260.62Zm11-17.22a2.74,2.74,0,1,0,2.74,2.74A2.74,2.74,0,0,0,233,243.4Zm0,4.94a2.21,2.21,0,1,1,0-4.41,2.21,2.21,0,0,1,0,4.41Zm-13.83-13.12h-.22c-.06.19-.11.38-.16.57a1.58,1.58,0,0,1,.38,0,2.21,2.21,0,1,1,0,4.41,2.15,2.15,0,0,1-1.32-.45c0,.18-.07.38-.11.58a2.65,2.65,0,0,0,1.43.4,2.74,2.74,0,1,0,0-5.48Zm27.79,18.95a2.73,2.73,0,1,0,2.74,2.72A2.74,2.74,0,0,0,246.91,254.17Zm0,4.92a2.2,2.2,0,1,1,2.2-2.2A2.22,2.22,0,0,1,246.91,259.09Zm53.71-.67a2.2,2.2,0,0,1-2-2.2,2.11,2.11,0,0,1,.42-1.28c-.08-.19-.17-.37-.26-.55a2.74,2.74,0,0,0,2,4.57h.07ZM283.07,342a2.74,2.74,0,1,0,2.74,2.74A2.73,2.73,0,0,0,283.07,342Zm0,5a2.21,2.21,0,1,1,2.2-2.21A2.21,2.21,0,0,1,283.07,346.91Zm-32.26-2.73a2.73,2.73,0,1,0,2.74,2.74A2.73,2.73,0,0,0,250.81,344.18Zm0,4.92a2.2,2.2,0,1,1,0-4.39,2.2,2.2,0,1,1,0,4.39Zm30.84,14.2a2.73,2.73,0,1,0,2.74,2.74A2.73,2.73,0,0,0,281.65,363.3Zm0,4.93a2.2,2.2,0,1,1,2.21-2.19A2.2,2.2,0,0,1,281.65,368.23Zm-7.94-114.06a2.73,2.73,0,1,0,2.74,2.72A2.73,2.73,0,0,0,273.71,254.17Zm0,4.92a2.2,2.2,0,1,1,2.21-2.2A2.19,2.19,0,0,1,273.71,259.09Zm2.46,18.33a2.74,2.74,0,1,0,2.74,2.74A2.76,2.76,0,0,0,276.17,277.42Zm0,4.94a2.21,2.21,0,1,1,2.21-2.2A2.21,2.21,0,0,1,276.17,282.36Zm1,16.38a2.73,2.73,0,1,0,2.74,2.72A2.73,2.73,0,0,0,277.16,298.74Zm0,4.92a2.2,2.2,0,1,1,2.2-2.2A2.2,2.2,0,0,1,277.16,303.66Zm-5-73.39A2.75,2.75,0,1,0,275,233,2.73,2.73,0,0,0,272.21,230.27Zm0,4.95a2.21,2.21,0,1,1,2.21-2.2A2.19,2.19,0,0,1,272.21,235.22Zm-10.75,7.21a2.75,2.75,0,1,0,2.75,2.74A2.77,2.77,0,0,0,261.46,242.43Zm0,4.95a2.21,2.21,0,1,1,2.21-2.21A2.22,2.22,0,0,1,261.46,247.38Zm-.66,19.2a2.74,2.74,0,1,0,2.74,2.74A2.73,2.73,0,0,0,260.8,266.58Zm0,4.95a2.21,2.21,0,1,1,2.21-2.21A2.21,2.21,0,0,1,260.8,271.53Zm-25.39,39.6a2.74,2.74,0,1,0,0,5.48,2.74,2.74,0,0,0,0-5.48Zm0,4.95a2.21,2.21,0,1,1,2.21-2.21A2.2,2.2,0,0,1,235.41,316.08ZM249.75,323a2.74,2.74,0,1,0,2.74,2.74A2.75,2.75,0,0,0,249.75,323Zm0,4.95a2.21,2.21,0,1,1,2.21-2.21A2.22,2.22,0,0,1,249.75,327.94Zm15.31,5.12a2.73,2.73,0,1,0,2.74,2.71A2.74,2.74,0,0,0,265.06,333.06Zm0,4.92a2.2,2.2,0,1,1,2.21-2.21A2.2,2.2,0,0,1,265.06,338Zm1.22,15.31A2.73,2.73,0,1,0,269,356,2.74,2.74,0,0,0,266.28,353.29Zm0,4.92a2.2,2.2,0,1,1,2.21-2.2A2.19,2.19,0,0,1,266.28,358.21Zm32.31-6.07a2.73,2.73,0,1,0,2.74,2.72A2.74,2.74,0,0,0,298.59,352.14Zm0,4.92a2.2,2.2,0,1,1,2.2-2.2A2.2,2.2,0,0,1,298.59,357.06Zm30.56,14a2.73,2.73,0,1,0,2.74,2.72A2.74,2.74,0,0,0,329.15,371.09Zm0,4.93a2.2,2.2,0,1,1,2.2-2.21A2.21,2.21,0,0,1,329.15,376Zm-64.35-1.13a2.75,2.75,0,0,0-2.74,2.72,2.44,2.44,0,0,0,.06.55h.55a2,2,0,0,1-.07-.55,2.21,2.21,0,0,1,4.41,0,2,2,0,0,1-.07.55h.55a3.21,3.21,0,0,0,.05-.55A2.73,2.73,0,0,0,264.8,374.89Zm-30.67-22.14a2.73,2.73,0,1,0,2.72,2.72A2.73,2.73,0,0,0,234.13,352.75Zm0,4.92a2.19,2.19,0,1,1,2.18-2.2A2.2,2.2,0,0,1,234.13,357.67Zm-30.29,17.22a2.73,2.73,0,0,0-2.74,2.72,3.21,3.21,0,0,0,.05.55h.56a1.67,1.67,0,0,1-.08-.55,2.2,2.2,0,0,1,4.39,0,2,2,0,0,1-.07.55h.56a3.21,3.21,0,0,0,.05-.55A2.72,2.72,0,0,0,203.84,374.89Zm30.29-2.19a2.73,2.73,0,1,0,2.72,2.72A2.73,2.73,0,0,0,234.13,372.7Zm0,4.92a2.2,2.2,0,1,1,2.18-2.2A2.2,2.2,0,0,1,234.13,377.62Zm15.53-13.48a2.73,2.73,0,1,0,2.72,2.72A2.73,2.73,0,0,0,249.66,364.14Zm0,4.93a2.2,2.2,0,1,1,0-4.39,2.2,2.2,0,0,1,0,4.39Zm-43.63-36a2.6,2.6,0,0,0-.4,0l-.06.56a1.76,1.76,0,0,1,.46-.06,2.2,2.2,0,0,1,0,4.39,2.17,2.17,0,0,1-.95-.22c0,.18,0,.37-.07.55a2.65,2.65,0,0,0,1,.2,2.73,2.73,0,0,0,0-5.45Zm56.57-44.58a2.74,2.74,0,1,0,2.74,2.74A2.75,2.75,0,0,0,262.6,288.48Zm0,4.95a2.21,2.21,0,1,1,2.2-2.21A2.21,2.21,0,0,1,262.6,293.43ZM250.8,300a2.74,2.74,0,1,0,2.74,2.74A2.74,2.74,0,0,0,250.8,300Zm0,4.95a2.21,2.21,0,0,1,0-4.42,2.21,2.21,0,0,1,0,4.42ZM235,333.06a2.73,2.73,0,1,0,2.74,2.71A2.73,2.73,0,0,0,235,333.06Zm0,4.92a2.2,2.2,0,1,1,2.21-2.21A2.2,2.2,0,0,1,235,338Zm45.58-15.61a2.73,2.73,0,1,0,2.74,2.74A2.74,2.74,0,0,0,280.58,322.37Zm0,4.93a2.2,2.2,0,1,1,2.21-2.19A2.2,2.2,0,0,1,280.58,327.3Zm16.57,2.57a2.74,2.74,0,1,0,2.74,2.74A2.74,2.74,0,0,0,297.15,329.87Zm0,4.94a2.21,2.21,0,1,1,2.21-2.2A2.21,2.21,0,0,1,297.15,334.81Zm16.16,26.28a2.74,2.74,0,1,0,2.74,2.74A2.75,2.75,0,0,0,313.31,361.09Zm0,4.94a2.21,2.21,0,1,1,2.21-2.2A2.21,2.21,0,0,1,313.31,366Zm-1-25.41a2.74,2.74,0,1,0,2.74,2.74A2.74,2.74,0,0,0,312.29,340.62Zm0,4.94a2.21,2.21,0,1,1,2.2-2.2A2.22,2.22,0,0,1,312.29,345.56Zm-15.14,26.59a2.74,2.74,0,1,0,2.74,2.74A2.74,2.74,0,0,0,297.15,372.15Zm0,5a2.21,2.21,0,1,1,2.21-2.21A2.22,2.22,0,0,1,297.15,377.1Zm29.26-26.55a2.74,2.74,0,1,0,2.74,2.74A2.74,2.74,0,0,0,326.41,350.55Zm0,4.94a2.21,2.21,0,1,1,2.2-2.2A2.22,2.22,0,0,1,326.41,355.49Zm-.56-22.29a2.14,2.14,0,0,1-1.65.76,2.21,2.21,0,0,1,0-4.41,2.36,2.36,0,0,1,.75.13l-.15-.6a2.35,2.35,0,0,0-.6-.07,2.74,2.74,0,0,0,0,5.48,2.69,2.69,0,0,0,1.81-.69C326,333.6,325.91,333.4,325.85,333.2Zm-38.16-90.77a2.75,2.75,0,1,0,2.74,2.74A2.75,2.75,0,0,0,287.69,242.43Zm0,4.95a2.21,2.21,0,1,1,2.21-2.21A2.2,2.2,0,0,1,287.69,247.38Zm.79,16.72a2.74,2.74,0,1,0,2.74,2.74A2.74,2.74,0,0,0,288.48,264.1Zm0,4.94a2.2,2.2,0,1,1,2.21-2.2A2.19,2.19,0,0,1,288.48,269Zm-41.57,9.4a2.74,2.74,0,1,0,2.74,2.74A2.74,2.74,0,0,0,246.91,278.44Zm0,4.95a2.21,2.21,0,1,1,0-4.41,2.21,2.21,0,0,1,0,4.41ZM221.39,301.2a2.74,2.74,0,1,0,2.74,2.74A2.74,2.74,0,0,0,221.39,301.2Zm0,4.95a2.21,2.21,0,1,1,0-4.41,2.21,2.21,0,0,1,0,4.41Zm-.54,17.38a2.74,2.74,0,1,0,2.74,2.74A2.74,2.74,0,0,0,220.85,323.53Zm0,4.94a2.21,2.21,0,1,1,2.21-2.2A2.22,2.22,0,0,1,220.85,328.47ZM218.65,342a2.74,2.74,0,1,0,2.74,2.74A2.73,2.73,0,0,0,218.65,342Zm0,5a2.21,2.21,0,1,1,2.2-2.21A2.21,2.21,0,0,1,218.65,346.91Zm1.27,16.38a2.74,2.74,0,1,0,2.74,2.74A2.73,2.73,0,0,0,219.92,363.29Zm0,4.95a2.21,2.21,0,1,1,2.21-2.21A2.2,2.2,0,0,1,219.92,368.24Zm-13.37-15a2.74,2.74,0,1,0,2.74,2.74A2.73,2.73,0,0,0,206.55,353.28Zm0,4.94a2.21,2.21,0,1,1,2.2-2.2A2.2,2.2,0,0,1,206.55,358.22ZM304,273.5a2.74,2.74,0,1,0,2.72,2.74A2.73,2.73,0,0,0,304,273.5Zm0,4.94a2.21,2.21,0,1,1,2.19-2.2A2.19,2.19,0,0,1,304,278.44Zm2.46,17.81a2.75,2.75,0,1,0,2.75,2.75A2.75,2.75,0,0,0,306.46,296.25Zm0,4.95a2.21,2.21,0,1,1,2.21-2.2A2.19,2.19,0,0,1,306.46,301.2Zm-13.82-13.51a2.74,2.74,0,0,0,0,5.48,2.74,2.74,0,0,0,0-5.48Zm0,4.95a2.21,2.21,0,1,1,2.2-2.21A2.2,2.2,0,0,1,292.64,292.64Zm-27.58,18.49a2.74,2.74,0,0,0,0,5.48,2.74,2.74,0,1,0,0-5.48Zm0,4.95a2.21,2.21,0,1,1,2.21-2.21A2.2,2.2,0,0,1,265.06,316.08Zm27.58-7.41a2.74,2.74,0,0,0,0,5.48,2.74,2.74,0,0,0,0-5.48Zm0,4.95a2.21,2.21,0,1,1,2.2-2.21A2.2,2.2,0,0,1,292.64,313.62Zm27.09-2.75a2.21,2.21,0,0,1-2.07-2.2,2.16,2.16,0,0,1,.88-1.75c-.05-.18-.11-.37-.17-.55a2.74,2.74,0,0,0,1.5,5h0C319.83,311.23,319.78,311.05,319.73,310.87Zm-10.18,5.59a2.74,2.74,0,1,0,2.74,2.74A2.74,2.74,0,0,0,309.55,316.46Zm0,5a2.21,2.21,0,1,1,0-4.41,2.21,2.21,0,0,1,0,4.41Z" style="opacity:0.1"></path><path d="M259.91,219.1c7.39,19,59.36,99.5,104.38,101,15.29.49,17.47-64-6.34-126.77-.71-1.86-44.36,4.57-45,15.55-.08,1.18,5,30.75,6.12,30.09,1.44-.81-15.92-11.43-44.42-28.94C261.13,201.7,255.49,207.75,259.91,219.1Z" style="fill:#d3766a"></path><path d="M318.29,236.62c3,15.06,6.33,30.07,10.06,45,1,4.15,2,8.32,3,12.47,0,.15-.2.2-.25.07a222.51,222.51,0,0,1-6.74-22.05c-1.86-7.37-3.58-14.88-4.7-22.41-.65-4.33-1.23-8.67-1.71-13A.15.15,0,0,1,318.29,236.62Z" style="fill:#263238"></path><path d="M358.81,195.79c-1.16-3-8.86-28.9-18.41-39.28-5.06-5.5-20.67-19-24.4-16.4-3.4,2.43,0,7.19,0,7.19s-7-5.93-11.74-2.51,1.4,11.18,1.4,11.18-7.68-5.58-12.12-1.82,3,10.51,3,10.51-6.78-5.42-9.14-.79c-2.83,5.58,10.81,14.16,15.24,21.14,1,1.58,18.13,33.58,18.13,33.58Z" style="fill:#d3766a"></path><path d="M296.41,165c10,6.34,13.3,10.84,18.31,21.38.1.2.43.1.34-.12-4-10.76-7.27-17-18.37-21.76C296.15,164.26,295.94,164.69,296.41,165Z" style="fill:#263238"></path><path d="M305.5,156.29c9.82,7.49,13.43,12.34,19.49,23,.08.15.34,0,.27-.14-5.07-10.94-8.51-17.1-19.31-23.29C305.46,155.57,305.05,155.94,305.5,156.29Z" style="fill:#263238"></path><path d="M316.24,147.83c9,7.94,13.17,13.09,17.73,24.18a.22.22,0,0,0,.41-.14c-3.54-11.77-8.71-18.23-17.87-24.29C315.88,147.17,315.67,147.33,316.24,147.83Z" style="fill:#263238"></path><path d="M318.78,228s-11.39-9.53-15.47-14.82-12-30.6-6.64-32.62c6.93-2.62,14.39,11.09,17.17,18.28,0,0,16-6.06,23.51,2.62S318.78,228,318.78,228Z" style="fill:#d3766a"></path><path d="M298.81,180.41c8,2.18,11.08,11.85,14.29,18.63a.68.68,0,0,0,1.1.23c6.89-2.09,17.22-3,23.19,1.67a.17.17,0,0,0,.23-.26c-5.71-5.91-15.93-5.81-23.33-3-3.19-7-6.66-16.57-15.47-17.32A0,0,0,0,0,298.81,180.41Z" style="fill:#263238"></path><path d="M315.5,233.22l-17.38,44.55s-24.37-30-36-50.23S259,198.82,278.3,209.18A312.24,312.24,0,0,1,315.5,233.22Z" style="fill:#ECEFF1"></path><path d="M288.48,264.1a2.66,2.66,0,0,0-.94.17l.35.45a2.33,2.33,0,0,1,.59-.08,2.22,2.22,0,0,1,2.21,2.2,2.08,2.08,0,0,1-.31,1.11l.35.46a2.71,2.71,0,0,0,.49-1.57A2.74,2.74,0,0,0,288.48,264.1ZM312,242.16a2.74,2.74,0,0,0-1.58,2.48,2.58,2.58,0,0,0,.21,1l.33-.85h0a1.09,1.09,0,0,1,0-.18,2.19,2.19,0,0,1,.71-1.61Zm-24.32.27a2.75,2.75,0,1,0,2.74,2.74A2.75,2.75,0,0,0,287.69,242.43Zm0,4.95a2.21,2.21,0,1,1,2.21-2.21A2.2,2.2,0,0,1,287.69,247.38ZM300.79,230a2.74,2.74,0,1,0,2.74,2.74A2.73,2.73,0,0,0,300.79,230Zm0,4.94a2.21,2.21,0,1,1,2.21-2.2A2.19,2.19,0,0,1,300.79,234.94Zm-15.33-15.72A2.74,2.74,0,1,0,288.2,222,2.73,2.73,0,0,0,285.46,219.22Zm0,4.95a2.21,2.21,0,1,1,2.2-2.21A2.21,2.21,0,0,1,285.46,224.17Zm-13.25,6.1A2.75,2.75,0,1,0,275,233,2.73,2.73,0,0,0,272.21,230.27Zm0,4.95a2.21,2.21,0,1,1,2.21-2.2A2.19,2.19,0,0,1,272.21,235.22Zm28.58,18.26a2.74,2.74,0,1,0,2.74,2.74A2.74,2.74,0,0,0,300.79,253.48Zm0,5a2.21,2.21,0,1,1,2.21-2.21A2.2,2.2,0,0,1,300.79,258.43Zm-27.36-50.28a2.74,2.74,0,1,0,2.74,2.74A2.74,2.74,0,0,0,273.43,208.15Zm0,4.94a2.21,2.21,0,1,1,2.21-2.2A2.19,2.19,0,0,1,273.43,213.09ZM259,218.24a2.63,2.63,0,0,0-1.05.21c.05.17.11.34.17.51a2.16,2.16,0,0,1,.88-.18,2.21,2.21,0,0,1,.78,4.27l.23.48a2.74,2.74,0,0,0-1-5.29Z" style="opacity:0.1"></path><path d="M306.67,231.86c-.51,1.44-1.25,2.82-1.86,4.21s-1.2,2.84-1.77,4.26q-1.67,4.13-3.36,8.24c-2.3,5.57-4.72,11.07-6.71,16.79,0,.08.1.16.14.08a142.44,142.44,0,0,0,7.53-16.28q1.71-4.18,3.31-8.44c.54-1.43,1.07-2.88,1.54-4.35s.83-3,1.38-4.43C306.91,231.82,306.72,231.73,306.67,231.86Z" style="fill:#263238"></path><path d="M298.49,277.09a7,7,0,0,0-.35.73c0,.05-2.14-2.75-2.57-3.29-.85-1.1-1.71-2.21-2.57-3.3-1.73-2.21-3.47-4.39-5.18-6.61-3.44-4.45-6.8-9-10-13.58-1.82-2.59-3.6-5.22-5.49-7.76,0,0-.09,0-.07.05,1.41,2.48,3,4.87,4.58,7.25.69,1,1.39,2.06,2.09,3.08q-2-2.28-3.93-4.54c-.06-.06-.16,0-.12.09a68,68,0,0,0,5.75,6.9c.32.46.66.91,1,1.38a198.15,198.15,0,0,0,16.51,21.22s.48-1.44.49-1.54S298.54,277,298.49,277.09Z" style="fill:#263238"></path><path d="M238.59,229.21c7.75,2,21.31-9.68,26.76-19.22.37-.65-.52-7.63-1.2-16.16-.39-5.18-.71-11-.61-16.25,0-1.09-33.34,7.47-33.34,7.47s3.07,11.15,2.85,20.38a11.5,11.5,0,0,1-.27,2.17c0,.1,0,.22-.05.35C232,212.07,231.11,227.29,238.59,229.21Z" style="fill:#d3766a"></path><path d="M264.77,200.88A22.1,22.1,0,0,1,247.82,195c-4.39,4.34-12.68,5.15-15,4.82a94.07,94.07,0,0,0-2.64-14.81s33.36-8.56,33.33-7.47c-.09,5.29.22,11.07.61,16.25C264.34,196.36,264.56,198.75,264.77,200.88Z" style="fill:#263238"></path><path d="M250.21,129.3c-6.63,10.37-9.8,44.79-3.78,54.34,8.73,13.86,27.58,20.22,40.5,8.69,12.53-11.18,15.87-56.11,8.72-65.26C285.12,113.58,260,114,250.21,129.3Z" style="fill:#d3766a"></path><path d="M271.61,159.32c0-.09-.19.09-.2.19-.15,2.32-.71,5-2.88,5.52-.07,0-.08.14,0,.13C271.13,165.05,271.84,161.54,271.61,159.32Z" style="fill:#263238"></path><path d="M269.78,156.7c-3.7-.65-4.72,6.8-1.29,7.4S272.88,157.24,269.78,156.7Z" style="fill:#263238"></path><path d="M285.8,160.94c0-.08.17.14.15.23-.39,2.3-.44,5,1.54,6,.06,0,0,.15,0,.13C285,166.63,285.07,163.05,285.8,160.94Z" style="fill:#263238"></path><path d="M288.19,158.81c3.75.23,3,7.71-.45,7.5S285.05,158.62,288.19,158.81Z" style="fill:#263238"></path><path d="M266.65,151.45c1-.24,2-.29,3.06-.43a5,5,0,0,1,3.2.16,1.59,1.59,0,0,1,.65,1.83c-.54,1.4-1.93,2-3.34,2.19a5.78,5.78,0,0,1-4.11-.69A1.7,1.7,0,0,1,266.65,151.45Z" style="fill:#263238"></path><path d="M291.58,155.46a29.4,29.4,0,0,1-2.85-1.17,5,5,0,0,1-2.68-1.75,1.57,1.57,0,0,1,.35-1.91c1.18-.94,2.65-.71,4-.21a5.8,5.8,0,0,1,3.2,2.68A1.69,1.69,0,0,1,291.58,155.46Z" style="fill:#263238"></path><path d="M269.79,177.39c3.07-.78,6.79.08,9.13.69.27,0,.58-.5.66-.75h0c0-.09.48-4.9.48-4.9.6.4,3.68,2.3,3.75,1.38.53-7.66,1.12-16.17,0-23.9a.22.22,0,0,0-.43,0c-.8,7.33-.31,14.76-1,22.14a13.59,13.59,0,0,0-3.52-1.59c-.25,0-.24,5.21-.43,6,0,0-4.48-2-8.59-.07C268.81,176.88,268.32,177.76,269.79,177.39Z" style="fill:#263238"></path><path d="M274.9,181c1.38-.18,3.83-4.44,1.56-5.12s-7.67-.3-9.84,2.31c-1.9,2.3,5,1.52,6,2.09C273.54,180.76,273.9,181.12,274.9,181Z" style="fill:#263238"></path><path d="M272.67,180.29c.2.11.34.21.5.28.19-1.48-1-3.46-4.11-4.07a6.12,6.12,0,0,0-2.45,1.68C264.73,180.48,271.61,179.72,272.67,180.29Z" style="fill:#ff9abb"></path><path d="M264.67,180.19c.48.6.94,1.41,1.76,1.58a6,6,0,0,0,2.53-.27.08.08,0,0,1,.09.13,3.1,3.1,0,0,1-3.06.88,2.44,2.44,0,0,1-1.55-2.25C264.42,180.13,264.6,180.1,264.67,180.19Z" style="fill:#263238"></path><path d="M245.18,155.5c6.06,1.54,10.12-13.17,10.12-13.17s9.6,1.26,18-9.77c0,0,9.34,11.05,19.7,12.4,16.23,2.11,22.18-18,17.73-23.85-6.3-8.36-23.47-4.6-23.47-4.6s-20-13.11-31.26-.36c0,0-9.92-2.69-14,7.9S240.66,154.35,245.18,155.5Z" style="fill:#263238"></path><path d="M286.43,117a15.74,15.74,0,0,1,10.48-3.77,18.82,18.82,0,0,1,12.32,5.36A10.62,10.62,0,0,1,311.79,129c-1.05,4.24-4.24,7.53-7.63,10a.09.09,0,1,1-.11-.15c2.87-2.48,5.45-5.5,6.41-9.28a9.78,9.78,0,0,0-2.85-10c-5.4-4.8-14.76-7.28-20.92-2.19C286.48,117.54,286.22,117.21,286.43,117Z" style="fill:#263238"></path><path d="M249.52,159.1s-4.7-12.57-10.22-11.16-3.9,18.28,1.23,21.86a6,6,0,0,0,8.53-1.11Z" style="fill:#d3766a"></path><path d="M239.89,152.76c-.09,0-.14.09-.07.15,3.56,2.63,4.7,6.86,5.18,11.06-.8-1.77-2.21-3-4.54-2.1a.13.13,0,0,0,0,.24,3.67,3.67,0,0,1,3.59,2.25,17.46,17.46,0,0,1,1.05,3.64c.1.4.79.38.76-.07,0,0,0-.06,0-.1C247.31,162.79,245.2,154.68,239.89,152.76Z" style="fill:#263238"></path><path d="M299.36,150a58.64,58.64,0,0,1-.09,6.89c-.14,2.29-.42,4.57-.75,6.84s-.78,4.53-1.36,6.76a54.29,54.29,0,0,1-2.05,6.57c.19-1.14.48-2.24.66-3.37s.45-2.24.64-3.37c.39-2.24.79-4.48,1.12-6.74s.66-4.51,1-6.77c.16-1.13.3-2.26.43-3.4Z" style="fill:#263238"></path><path d="M252.93,135.5c4,11.64-1,45.84-9.07,53.72-11.73,11.42-31.55,13.19-41.4-1.06-9.56-13.8-2.27-58.26,6.82-65.48C222.68,112,247,118.32,252.93,135.5Z" style="fill:#d3766a"></path><path d="M225.09,159.67c0-.09.16.13.15.22-.4,2.3-.47,5,1.51,6.05.06,0,0,.15,0,.13C224.21,165.35,224.34,161.78,225.09,159.67Z" style="fill:#263238"></path><path d="M227.48,157.55c3.75.24,3,7.72-.48,7.49S224.34,157.35,227.48,157.55Z" style="fill:#263238"></path><path d="M210.91,157.92c0-.09-.19.09-.2.18-.16,2.33-.73,5-2.91,5.52-.06,0-.07.13,0,.13C210.4,163.65,211.13,160.14,210.91,157.92Z" style="fill:#263238"></path><path d="M209.09,155.29c-3.7-.66-4.75,6.78-1.32,7.39S212.19,155.84,209.09,155.29Z" style="fill:#263238"></path><path d="M230.78,154.43a28.43,28.43,0,0,1-2.79-1.32,4.89,4.89,0,0,1-2.59-1.88,1.59,1.59,0,0,1,.44-1.89c1.23-.88,2.69-.57,4,0a5.76,5.76,0,0,1,3.06,2.83A1.69,1.69,0,0,1,230.78,154.43Z" style="fill:#263238"></path><path d="M206.58,151.23a28.82,28.82,0,0,0,3-.47,5,5,0,0,0,3-1.07,1.59,1.59,0,0,0,.1-1.94c-.92-1.19-2.41-1.31-3.83-1.13a5.8,5.8,0,0,0-3.74,1.84A1.7,1.7,0,0,0,206.58,151.23Z" style="fill:#263238"></path><path d="M225,180.6c-.61.49-1.24,1.18-2.09,1.17a6.29,6.29,0,0,1-2.43-.84c-.07,0-.15,0-.11.11a3.13,3.13,0,0,0,2.81,1.56,2.48,2.48,0,0,0,2-1.87C225.22,180.6,225.05,180.53,225,180.6Z" style="fill:#263238"></path><path d="M223.22,173.42a7.91,7.91,0,0,1-5.62,3,9.79,9.79,0,0,1-2.85-.16,2.93,2.93,0,0,1-.53-.11l-.5-.13a.58.58,0,0,1-.41-.57v0a1.85,1.85,0,0,1,0-.23v0l0-.2c.13-1.79.58-4.48.58-4.48-.68.26-4.16,1.42-4,.49,1.24-7.67,2.62-16.19,5.47-23.56a.22.22,0,0,1,.42.1c-.9,7.42-3.1,14.62-4.12,22.06a13.81,13.81,0,0,1,3.83-.76c.25.1-1,5.2-1,6a.45.45,0,0,0,0,.08c3,.69,5.31,0,8.42-1.71C223.21,173.08,223.38,173.25,223.22,173.42Z" style="fill:#263238"></path><path d="M215.9,175.45a9.37,9.37,0,0,0,3.45,3.28,4.28,4.28,0,0,0,2.54.42c1.9-.3,2.12-2,1.93-3.48a10.2,10.2,0,0,0-.61-2.31A12.14,12.14,0,0,1,215.9,175.45Z" style="fill:#263238"></path><path d="M219.35,178.73a4.28,4.28,0,0,0,2.54.42c1.9-.3,2.12-2,1.93-3.48C221.81,175.67,219.71,176.82,219.35,178.73Z" style="fill:#ff9abb"></path><path d="M251.68,162.15c-6.25.08-6.75-15.18-6.75-15.18s-9.63-1-15.21-13.71c0,0-11.67,8.55-22.05,7.43C191.39,138.94,190.31,118,196,113.35c8.08-6.65,23.89,1,23.89,1s22.51-8.06,30.47,7c0,0,10.28-.29,11.8,11S256.34,162.09,251.68,162.15Z" style="fill:#263238"></path><path d="M262.52,125.65c-3.45-3.79-8.33-4.06-13.09-3.55-.27,0-.21.47.06.42,4.65-.88,9.61,1.92,12.34,5.58s2.47,8.39,1.8,12.62a33.48,33.48,0,0,1-11.88,20.84.11.11,0,0,0,.13.17,33.41,33.41,0,0,0,13.37-22.85C265.76,134.45,265.7,129.13,262.52,125.65Z" style="fill:#263238"></path><path d="M220.6,115.09a15.77,15.77,0,0,0-9.31-6.12,18.86,18.86,0,0,0-13.23,2.32,10.62,10.62,0,0,0-4.91,9.43c0,4.37,2.36,8.32,5.06,11.55a.1.1,0,0,0,.15-.12c-2.22-3.08-4-6.62-4.06-10.53a9.77,9.77,0,0,1,5.11-9c6.38-3.41,16.06-3.62,20.86,2.77C220.43,115.57,220.76,115.31,220.6,115.09Z" style="fill:#263238"></path><path d="M245,164.63s7.51-11.12,12.54-8.45-.49,18.69-6.31,21a6,6,0,0,1-8-3.08Z" style="fill:#d3766a"></path><path d="M255.88,160.73a.08.08,0,0,1,0,.16c-4.08,1.73-6.19,5.57-7.64,9.54,1.2-1.54,2.85-2.4,4.91-1,.11.08,0,.25-.11.22a3.66,3.66,0,0,0-4,1.35,17.51,17.51,0,0,0-1.88,3.29c-.18.37-.85.18-.72-.24l0-.1C246.32,168.74,250.27,161.35,255.88,160.73Z" style="fill:#263238"></path><path d="M249.52,159.14a16.82,16.82,0,0,1,3.61-2.81,7.85,7.85,0,0,1,2.17-.85,3.76,3.76,0,0,1,2.4.19,3.57,3.57,0,0,1,1,.77,4,4,0,0,1,.65,1,8.08,8.08,0,0,1,.57,2.3,17.14,17.14,0,0,1-.16,4.64,21.85,21.85,0,0,1-3.42,8.54,13,13,0,0,1-3.25,3.29,8.33,8.33,0,0,1-4.32,1.45,10.33,10.33,0,0,0,7.09-5.06A22.16,22.16,0,0,0,259,164.3a16.59,16.59,0,0,0,.23-4.44c-.15-1.44-.58-3-1.8-3.68s-2.83-.17-4.14.47A18.86,18.86,0,0,0,249.52,159.14Z" style="fill:#263238"></path><path d="M232.83,205.77l7.74,18.71L264.88,201l6.82,7.61s-23.85,37.45-24,35.75l-8-16.13-11.64,11.15,1.07-28.12Z" style="fill:#ECEFF1"></path><path d="M227.83,225.4c.34-4.63.55-9.31,1.11-13.93,0-.16.29-.24.33,0,.95,4.48-.45,22.2-.45,26.46l.05,0c.49-.49,10.79-9.81,10.89-9.66,1.73,2.56,7.57,14.31,8,15.38,3.78-5.95,19.77-29.4,24.23-35a.17.17,0,0,1,.29.17c-3.33,6.28-24,37.22-24.3,37.14-.2.14-7.45-14.33-8.32-17.06-1.74,2-12.14,12.57-12.17,11.88A138.9,138.9,0,0,1,227.83,225.4Z" style="fill:#263238"></path></g><g id="freepik--Masks--inject-944"><path d="M159,244.29s7.91,57.8,3.88,73-21,23.07-28.42,24.62-26.12,1.2-35.93-11.1-25.83-68.4-25.83-68.4c17.13,6.78,34.18,4.69,45.54,2.3S146,257.39,159,244.29Z" style="fill:#ECEFF1"></path><path d="M148.55,299.85c1,20.26-11.55,26.76-17.06,27.92s-19.61.25-26.86-18.69c0,0,9,5.66,23.48,2.62S148.55,299.85,148.55,299.85Z" style="fill:#263238"></path><path d="M94.55,297.9s5.71,7.58,21.17,2.9c0,0-3.34-6.38-10.61-7.67A9.57,9.57,0,0,0,94.55,297.9Z" style="fill:#263238"></path><path d="M153.27,285.56s-2.17,9.24-18.21,11.17c0,0,.49-7.18,6.63-11.29A9.57,9.57,0,0,1,153.27,285.56Z" style="fill:#263238"></path><path d="M133.61,279a12.77,12.77,0,0,1,5-4.21,13.44,13.44,0,0,1,3.21-1.06,12.64,12.64,0,0,1,3.42-.1,16.59,16.59,0,0,1,6.27,2.16,18.93,18.93,0,0,1,5,4.09c-1.91-1-3.79-1.91-5.7-2.69a28.26,28.26,0,0,0-2.9-1,14.83,14.83,0,0,0-2.92-.59,13.33,13.33,0,0,0-5.82.62A22.87,22.87,0,0,0,133.61,279Z" style="opacity:0.1"></path><path d="M109.92,284a22.88,22.88,0,0,0-6.2-.29,13.45,13.45,0,0,0-5.58,1.77,15.6,15.6,0,0,0-2.44,1.72,27.17,27.17,0,0,0-2.25,2.06c-1.44,1.48-2.79,3.08-4.14,4.76a19,19,0,0,1,3-5.77,16.7,16.7,0,0,1,4.88-4.5,12.68,12.68,0,0,1,12.78.25Z" style="opacity:0.1"></path><path d="M115.66,331.09a27.66,27.66,0,0,0,8.21,2.77,23.87,23.87,0,0,0,8.43-.08,28.8,28.8,0,0,0,8-2.77,27.06,27.06,0,0,0,6.91-5.22,18,18,0,0,1-6.11,6.56,23.27,23.27,0,0,1-8.46,3.39,20.35,20.35,0,0,1-9.12-.36A18.41,18.41,0,0,1,115.66,331.09Z" style="opacity:0.1"></path><path d="M439.87,165.36s-14.61,56.48-24.1,69-28.23,13.37-35.64,12-24.63-8.81-29-23.9,2-73.08,2-73.08c13.28,12.76,29.84,17.3,41.26,19.4S422.92,172.56,439.87,165.36Z" style="fill:#455a64"></path><path d="M360.67,226c6.78-19.12,20.85-20.38,26.39-19.36s18.24,7.2,17.76,27.49c0,0-6.21-8.67-20.73-11.35S360.67,226,360.67,226Z" style="fill:#263238"></path><path d="M359.91,190.51s2.4,9.18,18.48,10.71c0,0-.67-7.17-6.91-11.12A9.56,9.56,0,0,0,359.91,190.51Z" style="fill:#263238"></path><path d="M418.92,201.37s-5.51,7.72-21.09,3.43c0,0,3.18-6.46,10.42-7.94A9.59,9.59,0,0,1,418.92,201.37Z" style="fill:#263238"></path><path d="M402.74,190.19a12.68,12.68,0,0,1,5.64-3.26,12.83,12.83,0,0,1,3.34-.48,12.45,12.45,0,0,1,3.38.5,16.59,16.59,0,0,1,5.8,3.23,18.68,18.68,0,0,1,4.22,4.91c-1.7-1.32-3.39-2.55-5.14-3.65a28.07,28.07,0,0,0-2.67-1.48,15.46,15.46,0,0,0-2.77-1.09,13.35,13.35,0,0,0-5.84-.42A23.23,23.23,0,0,0,402.74,190.19Z" style="fill:#37474f"></path><path d="M378.37,187.54a22.92,22.92,0,0,0-4.27-4.5,13.48,13.48,0,0,0-5.26-2.58,15.12,15.12,0,0,0-2.94-.44,28.3,28.3,0,0,0-3.06-.07c-2.06.07-4.14.29-6.28.57a18.79,18.79,0,0,1,6.12-2.12,16.52,16.52,0,0,1,6.64.12,12.71,12.71,0,0,1,9.05,9Z" style="fill:#37474f"></path><path d="M397,239.44a27.75,27.75,0,0,0-6.55-5.68,23.62,23.62,0,0,0-7.82-3.12,28.7,28.7,0,0,0-8.48-.48,27,27,0,0,0-8.37,2.2,18.12,18.12,0,0,1,8.14-3.75,23.47,23.47,0,0,1,9.11.07,20.29,20.29,0,0,1,8.31,3.81A18.39,18.39,0,0,1,397,239.44Z" style="fill:#37474f"></path></g><g id="freepik--Plant--inject-944"><path d="M438.54,333.92c-14.33,19.41-29.26,41.92-32.9,66.25,0,.37.54.49.63.13a143.4,143.4,0,0,1,6.34-19.48c9.41-2.6,18.66-4.73,23.6-14.07,5.05-9.61,4.41-22.14,3.45-32.61C439.59,333.58,438.83,333.55,438.54,333.92Z" style="fill:#ECEFF1"></path><path d="M412.75,380.63c6.43-14.44,14.7-28.94,25.2-40.82.07-.08.18,0,.11.12-6.87,8.46-12.1,17.67-17.2,27,4.74-4.81,9.94-9.13,14.43-14.23.09-.1.23,0,.15.14-4.46,5.35-9.34,11.17-15.15,15.13q-2.34,4.32-4.72,8.65c.39-.22.79-.41,1.19-.61.07,0,.13.07.06.1-.44.23-.88.46-1.34.66-.75,1.36-1.5,2.73-2.27,4.09C413,381.2,412.61,380.94,412.75,380.63Z" style="fill:#263238"></path><path d="M417.53,375.59a83.53,83.53,0,0,0,11-7.34c.1-.07.23.06.14.14a58.1,58.1,0,0,1-11,7.47A.16.16,0,0,1,417.53,375.59Z" style="fill:#263238"></path><path d="M404,396.56c0,.29.53.29.52,0,.08-8,0-16.06.13-24.11,2.06-4.14,6.46-6.43,9.52-9.75a43,43,0,0,0,5.72-8,57.14,57.14,0,0,0,6.63-22.1c.84-8.57-2.41-36.86-6-35.87-1.87.51-7.94,14.51-9.54,19.14a133.58,133.58,0,0,0-5.71,23.48C402.3,358.22,402.55,377.58,404,396.56Z" style="fill:#ECEFF1"></path><path d="M403.92,362l0,0c.44-10.14,2.72-20.38,4.86-30.21,2.3-10.59,5-20.57,10.45-30a.15.15,0,0,1,.27.15,111.4,111.4,0,0,0-8.39,23c.36-.57.81-1.11,1.18-1.65.15-.21.5,0,.36.21a15.13,15.13,0,0,1-1.71,2.4.09.09,0,0,1-.07,0c-1.87,7.58-3.22,15.32-4.37,23.05l.25-.3c.06-.07.16,0,.12.09-.14.25-.3.51-.46.76-.58,3.93-1.12,7.84-1.66,11.72,7-6,12.95-13,16.31-21.67,0,0,.08,0,.07,0-3.3,9-8.49,17-16.49,22.43-.15,1.05-.29,2.09-.44,3.13,0,.22-.38.16-.37,0,0-.92,0-1.85.08-2.77A.22.22,0,0,1,403.92,362Z" style="fill:#263238"></path><path d="M407.21,347.3c5.34-8,10.32-15.69,14.23-24.5,0-.09.21,0,.17.08-3.29,8.74-7.9,17.6-14.13,24.63C407.35,347.65,407.11,347.46,407.21,347.3Z" style="fill:#263238"></path><path d="M414.3,320.84c2.21-3.91,4.54-7.72,6.62-11.71.06-.11.22,0,.17.1A61.23,61.23,0,0,1,414.64,321,.2.2,0,0,1,414.3,320.84Z" style="fill:#263238"></path><path d="M413.44,322.54s0,.07,0,.07S413.4,322.54,413.44,322.54Z" style="fill:#263238"></path><path d="M398.56,373.38a82.06,82.06,0,0,1-1.87,15.79c.08.57.16,1.14.24,1.73a75.18,75.18,0,0,0,2.83-17.6.52.52,0,0,0,0-.54v0A116.36,116.36,0,0,0,398,348.9c-2.48-14.73-7.9-28.86-18.17-39.89a.73.73,0,0,0-1.13.23c-4.15,10.54-2.7,23.11.83,33.62a61.42,61.42,0,0,0,8.14,16C391.21,363.78,395.7,368,398.56,373.38Z" style="fill:#ECEFF1"></path><path d="M381.06,313.94c9.73,15.79,16.5,34.52,17.33,53.18,0,.33-.54.42-.59.08-.23-1.68-.49-3.34-.76-5h0c-4-3.86-8.16-7.92-11-12.74-.05-.09.08-.19.14-.11,3.51,4,6.78,8.1,10.73,11.67-.7-4.12-1.52-8.18-2.5-12.18l-.77-.91c-.17-.19.11-.48.29-.29s.15.18.23.26A140.05,140.05,0,0,0,389,331.75c-2.47-3-5.24-5.51-7.05-9.07,0-.09.08-.16.13-.08,1.45,2,2.86,4.09,4.5,6,.66.75,1.38,1.45,2.06,2.19a124.31,124.31,0,0,0-8-16.61A.22.22,0,0,1,381.06,313.94Z" style="fill:#263238"></path><path d="M383,333.42c3.15,4.24,6.73,8.28,9.66,12.65a.13.13,0,0,1-.2.16c-3.76-3.53-6.94-8.34-9.67-12.68A.12.12,0,0,1,383,333.42Z" style="fill:#263238"></path><path d="M393.12,347.05l.13.14c.1.09-.05.23-.14.14l-.14-.13C392.88,347.1,393,347,393.12,347.05Z" style="fill:#263238"></path><path d="M365.81,344.3c.78,8.13,5.05,17.84,10.27,24.1a25.52,25.52,0,0,0,8.33,6.5c3.6,1.78,7.38,3.84,11.11,5.3a73,73,0,0,1,3.94,14c.12-.4.24-.83.36-1.24-2.4-20.57-15.71-38.16-32.74-49.45A.83.83,0,0,0,365.81,344.3Z" style="fill:#ECEFF1"></path><path d="M371.69,350.38c-.12-.1,0-.32.17-.22a69.55,69.55,0,0,1,21.7,26.74c.13.28-.26.53-.42.25q-1.18-2.08-2.42-4.06h0c-3.89-.73-7.57-3.47-10.45-6.07-.08-.07,0-.18.11-.11a24,24,0,0,0,4.92,3.45,51.25,51.25,0,0,0,4.94,2c-1.44-2.29-2.94-4.48-4.51-6.61A45.2,45.2,0,0,1,374,359.15c-.11-.08,0-.27.11-.19a114.46,114.46,0,0,0,10.86,5.8,96.45,96.45,0,0,0-7.67-8.93c-1.32-.7-2.66-1.4-3.94-2.15a.11.11,0,0,1,.08-.2,14,14,0,0,1,3,1.49C375,353.41,373.39,351.88,371.69,350.38Z" style="fill:#263238"></path><path d="M372.05,357.49a5.17,5.17,0,0,1,.66.46c.06.06,0,.14-.08.11a4.7,4.7,0,0,1-.69-.39C371.83,357.6,371.93,357.41,372.05,357.49Z" style="fill:#263238"></path><polygon points="426.39 438.74 379.73 438.74 383.5 396.24 384.32 386.87 421.8 386.87 422.63 396.24 426.39 438.74" style="fill:#455a64"></polygon><polygon points="422.63 396.24 383.5 396.24 384.32 386.87 421.8 386.87 422.63 396.24" style="fill:#263238"></polygon><rect x="382.09" y="380.32" width="41.94" height="9.28" style="fill:#455a64"></rect></g><g id="freepik--Hearts--inject-944"><path d="M167.55,113.35c1.31,7.4,7.81,13.45,7.81,13.45s8.74-1.6,13.82-7.13c4.24-4.6,4.25-10.92.41-13.42-5.5-3.59-10.11,6.47-10.11,6.47s1.52-11-5.06-10.9C169.84,101.86,166.45,107.19,167.55,113.35Z" style="fill:#ECEFF1"></path><path d="M147.86,95.73c4.57,3.1,11.1,2.79,11.1,2.79s3.64-5.43,3.34-10.94c-.25-4.6-3.57-7.86-6.86-7.12-4.71,1.05-1.79,8.65-1.79,8.65s-5-6.43-8.34-2.93C143,88.61,144.05,93.13,147.86,95.73Z" style="fill:#ECEFF1"></path><path d="M171.88,74.44c1.85,3.16,5.84,4.83,5.84,4.83s3.72-2.2,5.11-5.58c1.16-2.82.11-5.71-2.07-6.21-3.12-.71-3.53,4.66-3.53,4.66s-1.15-5.26-4.15-4.13C171,68.8,170.34,71.81,171.88,74.44Z" style="fill:#ECEFF1"></path></g><g id="freepik--Lightnings--inject-944"><polygon points="322.89 123.41 333.4 107.1 339.06 112.46 348.63 100.1 354.56 105.88 338.73 116.93 334.18 111.67 322.89 123.41" style="fill:#455a64"></polygon><polygon points="330.13 128.33 345.32 124.35 345.5 129.23 356.65 129.57 356.95 134.79 341.93 132.64 342.93 127.82 330.13 128.33" style="fill:#455a64"></polygon><polygon points="319.85 113.3 318.18 98.61 323.44 99.05 322.89 87.06 328.71 86.21 325.97 101.88 321.27 101.17 319.85 113.3" style="fill:#455a64"></polygon></g></svg>