<svg xmlns="http://www.w3.org/2000/svg" viewBox="0 0 500 500"><g id="freepik--background-complete--inject-647"><rect x="402.07" y="321.14" width="35.16" height="11.19" transform="translate(839.3 653.47) rotate(180)" style="fill:#ebebeb"></rect><rect x="372.06" y="176.87" width="35.16" height="11.19" transform="translate(779.28 364.93) rotate(180)" style="fill:#ebebeb"></rect><path d="M421.68,346.44l17.7-.29,8.75-.12,8.71,0-.46.45,0-11.19.5.5-17.58-.07-8.79-.08-8.79-.11.24-.24Zm0,0-.23-11.19V335h.24l8.79-.1,8.79-.09,17.58-.07h.5v.5l0,11.19v.46h-.45l-8.87,0-8.83-.13Z" style="fill:#ebebeb"></path><path d="M114.71,170.38l17.7-.29,8.75-.12,8.71,0-.45.45,0-11.19.5.5-17.58-.07-8.79-.08-8.79-.11.24-.24Zm0,0-.23-11.19V159h.24l8.79-.11,8.79-.08,17.58-.07h.5v.5l0,11.19v.46h-.45l-8.87-.05-8.83-.12Z" style="fill:#ebebeb"></path><path d="M134.33,184.49l17.7-.29,8.74-.12,8.71,0-.45.45L169,173.3l.5.5-17.58-.07-8.79-.08-8.78-.11.23-.24Zm0,0-.24-11.19v-.23h.25l8.78-.11,8.79-.08,17.58-.07h.5v.5l0,11.19V185h-.46l-8.87,0-8.83-.12Z" style="fill:#ebebeb"></path><rect x="153.86" y="159.19" width="35.16" height="11.19" transform="translate(342.88 329.57) rotate(180)" style="fill:#ebebeb"></rect><rect x="43.16" y="335.25" width="35.16" height="11.19" transform="translate(121.48 681.69) rotate(180)" style="fill:#ebebeb"></rect><rect x="62.77" y="44.93" width="35.16" height="11.19" transform="translate(160.7 101.06) rotate(180)" style="fill:#ebebeb"></rect><path d="M43.16,70.23l17.7-.29,8.75-.12,8.71,0-.46.45,0-11.19.5.5-17.58-.07L52,59.39l-8.79-.11L43.4,59Zm0,0L42.92,59v-.23h.24L52,58.7l8.79-.09,17.58-.07h.5V59l0,11.19v.46h-.45l-8.87,0-8.83-.12Z" style="fill:#ebebeb"></path><path d="M402.07,56.12l17.7-.29,8.75-.12,8.71,0-.46.45,0-11.19.5.5-17.58-.07-8.79-.08-8.79-.11.24-.24Zm0,0-.24-11.19V44.7h.24l8.79-.11,8.79-.09,17.58-.07h.5v.5l-.05,11.19v.46h-.45l-8.87,0-8.83-.12Z" style="fill:#ebebeb"></path><path d="M273.86,454.75H234.19c.21-4.54.79-14.77,1.56-28.23,3.06-53.21,9.51-156.84,11.13-158.47,2.14-2.15,15.69-.6,16.31,0,.44.44,6.85,99.83,9.52,154.35C273.48,437.93,273.93,449.83,273.86,454.75Z" style="fill:#ebebeb;fill-rule:evenodd"></path><path d="M235.76,426.52l36.94-4.12c-2.66-54.52-9.07-153.9-9.51-154.34-.62-.61-14.17-2.16-16.31,0C245.26,269.67,238.82,373.31,235.76,426.52Z" style="fill:#dbdbdb;fill-rule:evenodd"></path><path d="M153.61,385c11.51,17.72,72.34,26,98.9,26s87.35-8.56,98.87-26.28c0,0-9.37-34.29-17.69-58-1.2-3.45-2.39-6.76-3.51-9.81-4.11-11.3-7.3-19.33-7.3-19.33H182.14s-3.19,8-7.3,19.33c-1.12,3-2.3,6.36-3.51,9.81C163,350.41,153.61,385,153.61,385Z" style="fill:#dbdbdb;fill-rule:evenodd"></path><path d="M174.84,316.85c20.73,10.84,54.9,16.1,77.67,16.1s56.94-5.26,77.67-16.1c-4.11-11.3-7.3-19.33-7.3-19.33H182.14S179,305.55,174.84,316.85Z" style="fill:#c7c7c7;fill-rule:evenodd"></path><path d="M165.81,299.84c10.09,16.38,64.67,23.83,87.93,23.83s77.33-6.37,87.42-22.75c0,0-11.15-34.29-20-56.4-.33-.84-.67-1.67-1-2.48-5.29-13.19-9.76-23.26-9.76-23.26H197s-4.64,10.47-10.09,24.05c-.33.81-.65,1.64-1,2.47C177.23,267.32,165.81,299.84,165.81,299.84Z" style="fill:#dbdbdb;fill-rule:evenodd"></path><path d="M189.43,236.69a241.1,241.1,0,0,0,63,9c18.58,0,44.11-3.2,65.33-9.75-4.14-10.08-7.3-17.19-7.3-17.19H197S193.74,226.22,189.43,236.69Z" style="fill:#c7c7c7;fill-rule:evenodd"></path><path d="M183.19,217.42c1.67,9.9,101,24.75,141.1,0,0,0-67-144-70.56-144S183.19,217.42,183.19,217.42Z" style="fill:#dbdbdb;fill-rule:evenodd"></path><path d="M297.88,161.73q4.2,5.72,8.05,11.63a80.09,80.09,0,0,1,6.82,12.25,9.68,9.68,0,0,1,.8,3.25,1.23,1.23,0,0,1-.63,1.16,3.28,3.28,0,0,1-1.57.24,23.79,23.79,0,0,1-6.82-2.09,111.07,111.07,0,0,1-12.75-6.78l-1-.61.22,1.14c.78,4,1.11,8.35-.19,12.19a7,7,0,0,1-3.82,4.32c-1.75.81-3.87-.13-5.6-1.22a43.76,43.76,0,0,1-9.05-8.93,110,110,0,0,1-7.37-10.4l-.95-1.51-.35,1.73a52.34,52.34,0,0,1-3.48,11.25,22.38,22.38,0,0,1-3,5,7.81,7.81,0,0,1-4.6,3,7.31,7.31,0,0,1-5.26-1.66,23.39,23.39,0,0,1-4.25-4.13,55.05,55.05,0,0,1-6.35-10.07l-.52-1.05-.66,1a56.54,56.54,0,0,1-7.11,8.67,27.26,27.26,0,0,1-4.35,3.54,9.65,9.65,0,0,1-5.11,1.7,4.25,4.25,0,0,1-3.9-2.78,15.26,15.26,0,0,1-1.15-5.23,47,47,0,0,1,.8-11l.28-1.51-1.1,1.12a99.59,99.59,0,0,1-9.07,8.33,30.58,30.58,0,0,1-5.11,3.42,4.66,4.66,0,0,1-2.79.63c-.89-.18-.84-1.35-.63-2.25a23.82,23.82,0,0,1,2.3-5.52c.94-1.79,2-3.53,3.06-5.26,2.16-3.44,4.46-6.81,6.86-10.11-2.48,3.25-4.86,6.57-7.1,10-1.12,1.71-2.21,3.43-3.2,5.21a24.6,24.6,0,0,0-2.47,5.6,4.35,4.35,0,0,0-.14,1.58,1.84,1.84,0,0,0,.33.83,2.83,2.83,0,0,0,.37.33l.43.19a5.18,5.18,0,0,0,3.29-.61,29.6,29.6,0,0,0,5.31-3.43,103.12,103.12,0,0,0,9.27-8.3l-.82-.4a47.31,47.31,0,0,0-1,11.2,16.16,16.16,0,0,0,1.18,5.62,6.43,6.43,0,0,0,1.85,2.46,5.23,5.23,0,0,0,3.08,1,11,11,0,0,0,5.85-1.88,29.42,29.42,0,0,0,4.58-3.68,58.39,58.39,0,0,0,7.32-8.87l-1.18-.07A56,56,0,0,0,242,192.42a24.33,24.33,0,0,0,4.49,4.4,8.74,8.74,0,0,0,6.36,1.93,9.14,9.14,0,0,0,5.52-3.54,23.49,23.49,0,0,0,3.16-5.32A53.45,53.45,0,0,0,265,178.32l-1.29.22a115.38,115.38,0,0,0,7.51,10.51,44.68,44.68,0,0,0,9.4,9.16,12.32,12.32,0,0,0,3.15,1.48,5.34,5.34,0,0,0,3.67-.17,8.08,8.08,0,0,0,4.47-5.05,18.75,18.75,0,0,0,.85-6.41,32.64,32.64,0,0,0-.79-6.36l-.79.53a113.13,113.13,0,0,0,12.95,6.69,24.12,24.12,0,0,0,7.14,2.07,3.83,3.83,0,0,0,2-.36,1.92,1.92,0,0,0,1-1.76,10.13,10.13,0,0,0-.93-3.48,80.45,80.45,0,0,0-7.14-12.19Q302.22,167.35,297.88,161.73Z" style="fill:#a6a6a6"></path><path d="M316.08,231.94q4.25,6.85,8.14,13.88A93.58,93.58,0,0,1,331,260.26a12.91,12.91,0,0,1,.44,1.89,1.39,1.39,0,0,1-1.91,1.9,11.56,11.56,0,0,1-1.95-.54,52.49,52.49,0,0,1-7.4-3.58c-4.77-2.72-9.38-5.72-13.88-8.84l-.75-.52v.89a58.41,58.41,0,0,1-1.79,14.44c-.67,2.29-1.57,4.66-3.28,6.24a3.46,3.46,0,0,1-3,1,9.59,9.59,0,0,1-3.21-1.54,36.06,36.06,0,0,1-5.52-5c-1.71-1.82-3.31-3.73-4.86-5.68-3.09-3.9-6-8-8.7-12.1l-1-1.54-.23,1.8a59.91,59.91,0,0,1-3.69,14.86,21,21,0,0,1-3.91,6.46,8.65,8.65,0,0,1-3,2.12,6.27,6.27,0,0,1-3.58.33c-2.43-.51-4.52-2.21-6.3-4a40.48,40.48,0,0,1-4.75-6.13,86.15,86.15,0,0,1-7.07-13.78l-.6-1.48-.69,1.45a59.85,59.85,0,0,1-9.14,14,29.07,29.07,0,0,1-6.39,5.47,14.52,14.52,0,0,1-7.94,2.33,10.33,10.33,0,0,1-7.36-3.18,17.62,17.62,0,0,1-3.82-7.16A47.38,47.38,0,0,1,204.4,244l.13-1.71-1.06,1.37a168.32,168.32,0,0,1-11.71,13.65,69.84,69.84,0,0,1-6.62,6.13,28.45,28.45,0,0,1-3.71,2.56,7.53,7.53,0,0,1-4.17,1.21,2,2,0,0,1-1.62-1,3.66,3.66,0,0,1-.36-2,15.77,15.77,0,0,1,1-4.22,57.39,57.39,0,0,1,3.72-8.05,166.85,166.85,0,0,1,9.45-15.18,167,167,0,0,0-9.73,15,58.94,58.94,0,0,0-3.89,8,16.13,16.13,0,0,0-1.08,4.35,4.15,4.15,0,0,0,.38,2.28,2.64,2.64,0,0,0,2.06,1.36,8.15,8.15,0,0,0,4.62-1.22,28,28,0,0,0,3.84-2.58,71.82,71.82,0,0,0,6.76-6.14,167.28,167.28,0,0,0,11.92-13.63l-.94-.33a48.32,48.32,0,0,0,1.2,16.8,18.25,18.25,0,0,0,4.05,7.65,11.64,11.64,0,0,0,8.25,3.6,15.83,15.83,0,0,0,8.69-2.5,30.38,30.38,0,0,0,6.7-5.68,61.24,61.24,0,0,0,9.4-14.33l-1.29,0a87.12,87.12,0,0,0,7.14,14.05,42.15,42.15,0,0,0,4.89,6.35c1.9,1.89,4.13,3.78,7.09,4.42a7.78,7.78,0,0,0,4.43-.42,10.14,10.14,0,0,0,3.5-2.47,22,22,0,0,0,4.16-6.88,61.06,61.06,0,0,0,3.72-15.21l-1.24.27c2.76,4.18,5.68,8.24,8.82,12.18,1.57,2,3.2,3.89,4.94,5.74a38.69,38.69,0,0,0,5.74,5.13,10.47,10.47,0,0,0,3.7,1.7,4.18,4.18,0,0,0,2.24-.17,5.25,5.25,0,0,0,1.82-1.1c2-1.92,2.84-4.4,3.54-6.78a59.55,59.55,0,0,0,1.68-14.72l-.77.37c4.56,3.1,9.21,6.06,14.05,8.76a50.24,50.24,0,0,0,7.56,3.56,13,13,0,0,0,2.08.54,2.78,2.78,0,0,0,2.28-.45,2.62,2.62,0,0,0,.34-2.15,12.92,12.92,0,0,0-.5-2,93.59,93.59,0,0,0-7.11-14.41C321.8,241.05,319,236.47,316.08,231.94Z" style="fill:#a6a6a6"></path><path d="M328.94,313.47q5.69,9.9,10.85,20c1.72,3.39,3.38,6.79,4.93,10.25a81.68,81.68,0,0,1,4,10.54,18.57,18.57,0,0,1,.58,2.72,4.45,4.45,0,0,1-.18,2.58c-.36.73-1.36.9-2.29.8a12.64,12.64,0,0,1-2.81-.62,64.43,64.43,0,0,1-10.6-4.91c-6.81-3.81-13.37-8.05-19.76-12.47l-.74-.51.05.87a156.87,156.87,0,0,1-.08,22.11,61,61,0,0,1-1.76,10.87,21.91,21.91,0,0,1-2,5.08,7.75,7.75,0,0,1-.74,1.12,5.63,5.63,0,0,1-.88,1,6.12,6.12,0,0,1-1,.81,4.6,4.6,0,0,1-1.21.47c-1.68.43-3.51-.36-5-1.36a24.8,24.8,0,0,1-4.22-3.65,70.24,70.24,0,0,1-6.88-8.86,170.84,170.84,0,0,1-11.08-19.45l-.87-1.77-.32,1.94A88.69,88.69,0,0,1,272,369.37a26.63,26.63,0,0,1-4.76,8.07,9.81,9.81,0,0,1-1.76,1.47,4.5,4.5,0,0,1-2,.79,6.65,6.65,0,0,1-4.08-1.58,35.69,35.69,0,0,1-6.58-6.91c-1.95-2.55-3.74-5.22-5.46-7.93-3.42-5.43-6.54-11.06-9.4-16.77l-.6-1.19-.63,1.17a159.21,159.21,0,0,1-13.28,21,68.06,68.06,0,0,1-8.35,9.28,26.84,26.84,0,0,1-5.06,3.62,9.76,9.76,0,0,1-5.84,1.32,7.77,7.77,0,0,1-4.85-3.17,21.88,21.88,0,0,1-2.87-5.35,61.58,61.58,0,0,1-3.1-11.84,157.49,157.49,0,0,1-2-24.45V335.7l-.82,1a181,181,0,0,1-18.41,18.86,59.3,59.3,0,0,1-10.76,7.71,15.24,15.24,0,0,1-6.23,2,5.71,5.71,0,0,1-3-.79,3.9,3.9,0,0,1-1.63-2.47,13.11,13.11,0,0,1,.61-6.21,43.13,43.13,0,0,1,2.33-6,110.93,110.93,0,0,1,6.27-11.4,252.93,252.93,0,0,1,15.05-21.46,255,255,0,0,0-15.33,21.3,114.8,114.8,0,0,0-6.44,11.37,45.21,45.21,0,0,0-2.43,6.05,13.71,13.71,0,0,0-.7,6.49,4.58,4.58,0,0,0,1.87,2.88,6.56,6.56,0,0,0,3.43.94,15.91,15.91,0,0,0,6.59-2,60.75,60.75,0,0,0,10.94-7.76,182.18,182.18,0,0,0,18.59-18.9l-.83-.27a157.39,157.39,0,0,0,1.9,24.61,62.63,62.63,0,0,0,3.09,12,22.86,22.86,0,0,0,3,5.61,8.88,8.88,0,0,0,5.57,3.62,10.88,10.88,0,0,0,6.59-1.42,28,28,0,0,0,5.31-3.77,68.36,68.36,0,0,0,8.54-9.41A160.29,160.29,0,0,0,238,347.06H236.8c2.86,5.78,6,11.43,9.39,16.93,1.73,2.74,3.51,5.45,5.52,8a37.09,37.09,0,0,0,6.9,7.17,8,8,0,0,0,5.07,1.83,5.85,5.85,0,0,0,2.62-1,10.54,10.54,0,0,0,2-1.68,27.66,27.66,0,0,0,5-8.49,89.59,89.59,0,0,0,4.87-18.6l-1.19.16a173.42,173.42,0,0,0,11.24,19.55,70.84,70.84,0,0,0,7,9,25.37,25.37,0,0,0,4.43,3.8,11,11,0,0,0,2.73,1.34,5.81,5.81,0,0,0,3.18.14,5.65,5.65,0,0,0,1.49-.59,7.23,7.23,0,0,0,1.22-.95,7.49,7.49,0,0,0,1-1.13,8.62,8.62,0,0,0,.8-1.23,22.54,22.54,0,0,0,2.06-5.31,62,62,0,0,0,1.74-11,157.22,157.22,0,0,0,0-22.24l-.69.36c6.44,4.42,13,8.64,19.88,12.44a63.22,63.22,0,0,0,10.77,4.92,13.36,13.36,0,0,0,3,.61h.79l.81-.13a4.79,4.79,0,0,0,.75-.38c.2-.21.47-.38.55-.64a5,5,0,0,0,.22-2.95,18.68,18.68,0,0,0-.64-2.78,80,80,0,0,0-4.2-10.56c-1.59-3.45-3.3-6.84-5.05-10.2Q334.76,323.3,328.94,313.47Z" style="fill:#a6a6a6"></path><path d="M272.39,108.77a106.26,106.26,0,0,1,7.05,10.32,41.69,41.69,0,0,1,2.76,5.51,13.23,13.23,0,0,1,.82,2.88,3.24,3.24,0,0,1-.46,2.61c-.47.66-1.54.63-2.52.46a15.71,15.71,0,0,1-3-1,51.7,51.7,0,0,1-5.64-2.89,121.53,121.53,0,0,1-10.62-7l-.94-.68-.16,1.12a30.6,30.6,0,0,1-2.48,8.76,12.19,12.19,0,0,1-2.53,3.68,5.75,5.75,0,0,1-3.82,1.67,5.44,5.44,0,0,1-3.65-2,17.49,17.49,0,0,1-2.52-3.79,41.64,41.64,0,0,1-3.17-8.64l-.27-1.06-.8.77a65.18,65.18,0,0,1-7.21,6.15,22.2,22.2,0,0,1-4.07,2.38c-.36.15-.73.26-1.09.39a8.74,8.74,0,0,1-1.1.19,2.94,2.94,0,0,1-1-.11.94.94,0,0,1-.43-.66,5.21,5.21,0,0,1,.3-2.12,18.07,18.07,0,0,1,.82-2.14,44,44,0,0,1,2.14-4.15c1.56-2.7,3.27-5.34,5.05-7.94-1.94,2.49-3.77,5.07-5.45,7.73a46.27,46.27,0,0,0-2.34,4.11,17,17,0,0,0-.94,2.19,5.6,5.6,0,0,0-.37,2.44,1.66,1.66,0,0,0,.82,1.24,3.67,3.67,0,0,0,1.42.23,9.39,9.39,0,0,0,1.31-.19c.4-.13.82-.25,1.22-.4a23.5,23.5,0,0,0,4.32-2.39,59.06,59.06,0,0,0,7.5-6.12l-1.07-.29a43.23,43.23,0,0,0,3.19,9,18.7,18.7,0,0,0,2.69,4.08,6.73,6.73,0,0,0,4.64,2.49,7.21,7.21,0,0,0,4.91-2,12.69,12.69,0,0,0,2.8-4.1,31.83,31.83,0,0,0,2.53-9.18l-1.1.44a122.23,122.23,0,0,0,10.81,7,45.91,45.91,0,0,0,5.85,2.86,17,17,0,0,0,3.21,1,5.93,5.93,0,0,0,1.79,0,2.43,2.43,0,0,0,1.68-.92,4.1,4.1,0,0,0,.58-3.29,14.24,14.24,0,0,0-.95-3,36.43,36.43,0,0,0-3-5.52A91.75,91.75,0,0,0,272.39,108.77Z" style="fill:#a6a6a6"></path><path d="M280.49,130.15a1.45,1.45,0,0,1,1.84.79,1.44,1.44,0,0,1-.12,1.52,1.67,1.67,0,0,1-1.78.56,1.49,1.49,0,0,1-1-1.44A1.61,1.61,0,0,1,280.49,130.15Z" style="fill:#a6a6a6;fill-rule:evenodd"></path><path d="M281.42,119.47a1.52,1.52,0,0,1,1.72,2.31,1.69,1.69,0,0,1-1.78.57,1.49,1.49,0,0,1-1-1.45A1.61,1.61,0,0,1,281.42,119.47Z" style="fill:#a6a6a6;fill-rule:evenodd"></path><path d="M267.88,125.4a1.52,1.52,0,0,1,1.72,2.31,1.68,1.68,0,0,1-1.78.56,1.47,1.47,0,0,1-1-1.44A1.58,1.58,0,0,1,267.88,125.4Z" style="fill:#a6a6a6;fill-rule:evenodd"></path><path d="M313.39,181.62a1.75,1.75,0,0,1,2,2.67,1.91,1.91,0,0,1-2.06.65,1.7,1.7,0,0,1-1.17-1.66A1.82,1.82,0,0,1,313.39,181.62Z" style="fill:#a6a6a6;fill-rule:evenodd"></path><path d="M291.11,194.84a1.77,1.77,0,0,1,2,2.68,1.94,1.94,0,0,1-2.06.65,1.7,1.7,0,0,1-1.18-1.67A1.86,1.86,0,0,1,291.11,194.84Z" style="fill:#a6a6a6;fill-rule:evenodd"></path><path d="M302.37,167a1.67,1.67,0,0,1,2.13.91,1.65,1.65,0,0,1-.14,1.76,1.92,1.92,0,0,1-2.06.65,1.72,1.72,0,0,1-1.18-1.66A1.85,1.85,0,0,1,302.37,167Z" style="fill:#a6a6a6;fill-rule:evenodd"></path><path d="M291.11,179.86a1.77,1.77,0,0,1,2,2.68,2,2,0,0,1-2.06.65,1.7,1.7,0,0,1-1.18-1.67A1.86,1.86,0,0,1,291.11,179.86Z" style="fill:#a6a6a6;fill-rule:evenodd"></path><path d="M277.89,195.94a1.76,1.76,0,0,1,2,2.68,2,2,0,0,1-2.06.65,1.7,1.7,0,0,1-1.17-1.67A1.83,1.83,0,0,1,277.89,195.94Z" style="fill:#a6a6a6;fill-rule:evenodd"></path><path d="M305.46,248.37a2,2,0,0,1,2.24,3,2.18,2.18,0,0,1-2.33.73,1.94,1.94,0,0,1-1.33-1.88A2.11,2.11,0,0,1,305.46,248.37Z" style="fill:#a6a6a6;fill-rule:evenodd"></path><path d="M331.14,258.78a2,2,0,0,1,2.24,3,2.17,2.17,0,0,1-2.32.73,1.91,1.91,0,0,1-1.33-1.88A2.09,2.09,0,0,1,331.14,258.78Z" style="fill:#a6a6a6;fill-rule:evenodd"></path><path d="M322.39,240.3a2,2,0,0,1,2.24,3,2.17,2.17,0,0,1-2.33.74,1.94,1.94,0,0,1-1.33-1.88A2.1,2.1,0,0,1,322.39,240.3Z" style="fill:#a6a6a6;fill-rule:evenodd"></path><path d="M317.75,258.78a2,2,0,0,1,2.25,3,2.18,2.18,0,0,1-2.33.73,1.92,1.92,0,0,1-1.33-1.88A2.1,2.1,0,0,1,317.75,258.78Z" style="fill:#a6a6a6;fill-rule:evenodd"></path><path d="M269.1,266.22a2,2,0,0,1,2.25,3A2.19,2.19,0,0,1,269,270a1.92,1.92,0,0,1-1.33-1.88A2.09,2.09,0,0,1,269.1,266.22Z" style="fill:#a6a6a6;fill-rule:evenodd"></path><path d="M240,246.39a2,2,0,0,1,2.25,3,2.21,2.21,0,0,1-2.33.74,1.92,1.92,0,0,1-1.33-1.89A2.08,2.08,0,0,1,240,246.39Z" style="fill:#a6a6a6;fill-rule:evenodd"></path><path d="M202.8,242.28a2,2,0,0,1,2.25,3,2.2,2.2,0,0,1-2.33.74,2,2,0,0,1-1.33-1.89A2.1,2.1,0,0,1,202.8,242.28Z" style="fill:#a6a6a6;fill-rule:evenodd"></path><path d="M181.41,246.39a1.88,1.88,0,0,1,2.4,1,1.86,1.86,0,0,1-.15,2,2.2,2.2,0,0,1-2.33.74,1.94,1.94,0,0,1-1.33-1.89A2.09,2.09,0,0,1,181.41,246.39Z" style="fill:#a6a6a6;fill-rule:evenodd"></path><path d="M220.9,269.36a1.88,1.88,0,0,1,2.4,1,1.86,1.86,0,0,1-.15,2,2.19,2.19,0,0,1-2.33.74,1.94,1.94,0,0,1-1.33-1.89A2.09,2.09,0,0,1,220.9,269.36Z" style="fill:#a6a6a6;fill-rule:evenodd"></path><path d="M236.31,345.71a2,2,0,0,1,2.25,3,2.2,2.2,0,0,1-2.33.74,2,2,0,0,1-1.33-1.89A2.08,2.08,0,0,1,236.31,345.71Z" style="fill:#a6a6a6;fill-rule:evenodd"></path><path d="M274.55,247.17a2,2,0,0,1,2.25,3,2.18,2.18,0,0,1-2.33.73,1.92,1.92,0,0,1-1.33-1.88A2.09,2.09,0,0,1,274.55,247.17Z" style="fill:#a6a6a6;fill-rule:evenodd"></path><path d="M246,261.69a2,2,0,0,1,2.25,3,2.2,2.2,0,0,1-2.33.74,2,2,0,0,1-1.33-1.89A2.1,2.1,0,0,1,246,261.69Z" style="fill:#a6a6a6;fill-rule:evenodd"></path><path d="M346.73,344.84a2,2,0,0,1,2.25,3,2.18,2.18,0,0,1-2.33.73,1.92,1.92,0,0,1-1.33-1.88A2.1,2.1,0,0,1,346.73,344.84Z" style="fill:#a6a6a6;fill-rule:evenodd"></path><path d="M334.46,356.56a1.88,1.88,0,0,1,2.4,1,1.86,1.86,0,0,1-.15,2,2.2,2.2,0,0,1-2.33.74,1.94,1.94,0,0,1-1.33-1.89A2.09,2.09,0,0,1,334.46,356.56Z" style="fill:#a6a6a6;fill-rule:evenodd"></path><path d="M293.41,378a2,2,0,0,1,2.24,3,2.19,2.19,0,0,1-2.32.74,2,2,0,0,1-1.34-1.89A2.1,2.1,0,0,1,293.41,378Z" style="fill:#a6a6a6;fill-rule:evenodd"></path><path d="M314,368.56a2,2,0,0,1,2.25,3,2.21,2.21,0,0,1-2.33.74,2,2,0,0,1-1.33-1.89A2.07,2.07,0,0,1,314,368.56Z" style="fill:#a6a6a6;fill-rule:evenodd"></path><path d="M272.83,369.43a2,2,0,0,1,2.24,3,2.2,2.2,0,0,1-2.33.74,1.94,1.94,0,0,1-1.33-1.89A2.1,2.1,0,0,1,272.83,369.43Z" style="fill:#a6a6a6;fill-rule:evenodd"></path><path d="M276.05,348a2,2,0,0,1,2.25,3,2.19,2.19,0,0,1-2.33.73,1.92,1.92,0,0,1-1.33-1.88A2.08,2.08,0,0,1,276.05,348Z" style="fill:#a6a6a6;fill-rule:evenodd"></path><path d="M222.24,369.43a1.88,1.88,0,0,1,2.4,1,1.86,1.86,0,0,1-.15,2,2.2,2.2,0,0,1-2.33.74,1.94,1.94,0,0,1-1.33-1.89A2.09,2.09,0,0,1,222.24,369.43Z" style="fill:#a6a6a6;fill-rule:evenodd"></path><path d="M189.62,335.06a2,2,0,0,1,2.25,3,2.18,2.18,0,0,1-2.33.73,1.92,1.92,0,0,1-1.33-1.88A2.09,2.09,0,0,1,189.62,335.06Z" style="fill:#a6a6a6;fill-rule:evenodd"></path><path d="M248,367a1.88,1.88,0,0,1,2.4,1,1.86,1.86,0,0,1-.15,2,2.19,2.19,0,0,1-2.33.74,1.93,1.93,0,0,1-1.33-1.89A2.08,2.08,0,0,1,248,367Z" style="fill:#a6a6a6;fill-rule:evenodd"></path><path d="M196.16,375.76a1.89,1.89,0,0,1,2.4,1,1.86,1.86,0,0,1-.15,2,2.2,2.2,0,0,1-2.33.74,2,2,0,0,1-1.33-1.89A2.1,2.1,0,0,1,196.16,375.76Z" style="fill:#a6a6a6;fill-rule:evenodd"></path><path d="M150,361.44a2,2,0,0,1,2.25,3,2.19,2.19,0,0,1-2.33.73,1.92,1.92,0,0,1-1.33-1.88A2.09,2.09,0,0,1,150,361.44Z" style="fill:#a6a6a6;fill-rule:evenodd"></path><path d="M174,353.33a1.89,1.89,0,0,1,2.4,1,1.86,1.86,0,0,1-.15,2,2.17,2.17,0,0,1-2.33.74,1.92,1.92,0,0,1-1.33-1.88A2.09,2.09,0,0,1,174,353.33Z" style="fill:#a6a6a6;fill-rule:evenodd"></path><path d="M159.44,334.35a2,2,0,0,1,2.25,3,2.18,2.18,0,0,1-2.33.73,1.92,1.92,0,0,1-1.33-1.88A2.09,2.09,0,0,1,159.44,334.35Z" style="fill:#a6a6a6;fill-rule:evenodd"></path><path d="M312.37,339.62a2,2,0,0,1,2.24,3,2.17,2.17,0,0,1-2.32.73A1.93,1.93,0,0,1,311,341.5,2.1,2.1,0,0,1,312.37,339.62Z" style="fill:#a6a6a6;fill-rule:evenodd"></path><path d="M190,256.8a1.88,1.88,0,0,1,2.4,1,1.86,1.86,0,0,1-.15,2,2.19,2.19,0,0,1-2.33.74,1.93,1.93,0,0,1-1.33-1.89A2.09,2.09,0,0,1,190,256.8Z" style="fill:#a6a6a6;fill-rule:evenodd"></path><path d="M301.43,271.34a2,2,0,0,1,2.24,3,2.18,2.18,0,0,1-2.33.73,1.94,1.94,0,0,1-1.33-1.88A2.11,2.11,0,0,1,301.43,271.34Z" style="fill:#a6a6a6;fill-rule:evenodd"></path><path d="M261.36,189.39a1.76,1.76,0,0,1,2,2.67,2,2,0,0,1-2.06.66,1.71,1.71,0,0,1-1.18-1.67A1.86,1.86,0,0,1,261.36,189.39Z" style="fill:#a6a6a6;fill-rule:evenodd"></path><path d="M243.58,195.19a1.75,1.75,0,0,1,2,2.67,1.93,1.93,0,0,1-2.06.65,1.7,1.7,0,0,1-1.17-1.67A1.82,1.82,0,0,1,243.58,195.19Z" style="fill:#a6a6a6;fill-rule:evenodd"></path><path d="M216.65,195.41a1.75,1.75,0,0,1,2,2.67,1.93,1.93,0,0,1-2.06.66,1.71,1.71,0,0,1-1.17-1.67A1.83,1.83,0,0,1,216.65,195.41Z" style="fill:#a6a6a6;fill-rule:evenodd"></path><path d="M202.92,170.45a1.76,1.76,0,0,1,2,2.68,2,2,0,0,1-2.06.65,1.7,1.7,0,0,1-1.17-1.67A1.83,1.83,0,0,1,202.92,170.45Z" style="fill:#a6a6a6;fill-rule:evenodd"></path><path d="M201.13,187.63a1.69,1.69,0,0,1,2.13.91,1.66,1.66,0,0,1-.14,1.77,1.93,1.93,0,0,1-2.06.65,1.72,1.72,0,0,1-1.18-1.67A1.86,1.86,0,0,1,201.13,187.63Z" style="fill:#a6a6a6;fill-rule:evenodd"></path><path d="M264,175.65a1.77,1.77,0,0,1,2,2.68,2,2,0,0,1-2.06.65,1.73,1.73,0,0,1-1.18-1.67A1.86,1.86,0,0,1,264,175.65Z" style="fill:#a6a6a6;fill-rule:evenodd"></path><path d="M235.59,180.64a1.76,1.76,0,0,1,2,2.68,2,2,0,0,1-2.06.65,1.72,1.72,0,0,1-1.18-1.67A1.86,1.86,0,0,1,235.59,180.64Z" style="fill:#a6a6a6;fill-rule:evenodd"></path><path d="M213.73,174a1.69,1.69,0,0,1,2.13.91,1.66,1.66,0,0,1-.14,1.77,1.93,1.93,0,0,1-2.06.65,1.72,1.72,0,0,1-1.18-1.67A1.86,1.86,0,0,1,213.73,174Z" style="fill:#a6a6a6;fill-rule:evenodd"></path><path d="M310.32,190.35a1.67,1.67,0,0,1,2.12.91,1.65,1.65,0,0,1-.13,1.76,1.94,1.94,0,0,1-2.06.66,1.73,1.73,0,0,1-1.18-1.67A1.86,1.86,0,0,1,310.32,190.35Z" style="fill:#a6a6a6;fill-rule:evenodd"></path><path d="M259.51,118.91a1.45,1.45,0,0,1,1.84.79,1.44,1.44,0,0,1-.12,1.52,1.67,1.67,0,0,1-1.78.56,1.49,1.49,0,0,1-1-1.44A1.6,1.6,0,0,1,259.51,118.91Z" style="fill:#a6a6a6;fill-rule:evenodd"></path><path d="M252.33,133.9a1.52,1.52,0,0,1,1.72,2.31,1.67,1.67,0,0,1-1.78.56,1.47,1.47,0,0,1-1-1.44A1.61,1.61,0,0,1,252.33,133.9Z" style="fill:#a6a6a6;fill-rule:evenodd"></path><path d="M227.66,128.64a1.52,1.52,0,0,1,1.72,2.31,1.68,1.68,0,0,1-1.78.56,1.47,1.47,0,0,1-1-1.44A1.58,1.58,0,0,1,227.66,128.64Z" style="fill:#a6a6a6;fill-rule:evenodd"></path><path d="M241,118.54a1.45,1.45,0,0,1,1.84.79,1.44,1.44,0,0,1-.12,1.52,1.67,1.67,0,0,1-1.78.56,1.49,1.49,0,0,1-1-1.44A1.61,1.61,0,0,1,241,118.54Z" style="fill:#a6a6a6;fill-rule:evenodd"></path><path d="M225.65,120.06a1.52,1.52,0,0,1,1.72,2.31,1.68,1.68,0,0,1-1.78.56,1.49,1.49,0,0,1-1-1.44A1.6,1.6,0,0,1,225.65,120.06Z" style="fill:#a6a6a6;fill-rule:evenodd"></path><path d="M218.31,166.81c3.63-1.22,7.91-.41,10.48,4.5a8.18,8.18,0,0,1-.66,8.71A9.57,9.57,0,0,1,218,183.24a8.43,8.43,0,0,1-5.81-8.24A9.13,9.13,0,0,1,218.31,166.81Z" style="fill:#ebebeb;fill-rule:evenodd"></path><path d="M303.43,259.17c3.63-1.22,7.91-.41,10.48,4.5a8.18,8.18,0,0,1-.66,8.71,9.58,9.58,0,0,1-10.17,3.22,8.45,8.45,0,0,1-5.82-8.24A9.14,9.14,0,0,1,303.43,259.17Z" style="fill:#ebebeb;fill-rule:evenodd"></path><path d="M273.07,126.59c3.63-1.23,7.91-.42,10.48,4.5a8.18,8.18,0,0,1-.66,8.71A9.58,9.58,0,0,1,272.72,143a8.43,8.43,0,0,1-5.81-8.23A9.1,9.1,0,0,1,273.07,126.59Z" style="fill:#ebebeb;fill-rule:evenodd"></path><path d="M190,293.27c3.63-1.23,7.91-.42,10.48,4.5a8.16,8.16,0,0,1-.66,8.7,9.57,9.57,0,0,1-10.17,3.22,8.43,8.43,0,0,1-5.81-8.24A9.1,9.1,0,0,1,190,293.27Z" style="fill:#ebebeb;fill-rule:evenodd"></path><path d="M249.88,212.13c3.64-1.23,7.91-.42,10.48,4.5a8.18,8.18,0,0,1-.66,8.71,9.58,9.58,0,0,1-10.17,3.21,8.43,8.43,0,0,1-5.81-8.24A9.12,9.12,0,0,1,249.88,212.13Z" style="fill:#ebebeb;fill-rule:evenodd"></path><path d="M320.74,366.87c3.63-1.22,7.91-.41,10.48,4.5a8.18,8.18,0,0,1-.66,8.71,9.57,9.57,0,0,1-10.17,3.22,8.44,8.44,0,0,1-5.81-8.24A9.11,9.11,0,0,1,320.74,366.87Z" style="fill:#ebebeb;fill-rule:evenodd"></path><path d="M238.93,346.1c3.63-1.23,7.91-.42,10.48,4.5a8.16,8.16,0,0,1-.66,8.7,9.58,9.58,0,0,1-10.17,3.22,8.44,8.44,0,0,1-5.82-8.24A9.11,9.11,0,0,1,238.93,346.1Z" style="fill:#ebebeb;fill-rule:evenodd"></path><path d="M246.18,86s8,1.84,15.13,0c0,0-.74-3.84-1.56-8-1-5-2.06-10.61-2.1-10.7s-6.21,0-6.91,0l-2.69,11Z" style="fill:#ebebeb;fill-rule:evenodd"></path><path d="M248.05,78.28c.79-.51,1.58-1,2.42-1.46,3.28-1.78,6.41-.56,9.28,1.11-1-5-2.06-10.61-2.1-10.7s-6.21,0-6.91,0Z" style="fill:#dbdbdb;fill-rule:evenodd"></path><polygon points="253.51 35.55 259.71 48.01 273.19 49.85 263.59 59.73 266.08 73.47 253.96 67.12 242.01 73.78 244.12 59.97 234.25 50.34 247.67 48.16 253.51 35.55" style="fill:#ebebeb"></polygon><path d="M78.62,355.54A8.66,8.66,0,0,0,80,359.83c0-.29.1-.58.17-.88s.16-.62.26-.93a17.68,17.68,0,0,1,3.35-5.78c.16-.19.32-.38.5-.57l.13-.15h0c.08-.09.17-.17.24-.26,13.54-17.17,26.44,10.64,26.71,11.28h0s.75-27.73-14-28.5C85.74,333.45,77.94,347,78.62,355.54Z" style="fill:#ebebeb"></path><path d="M80,359.83a5.45,5.45,0,0,0,1.21,1.28c7.06,5.41,28.74,1.69,30.09,1.45h.06c-20.38,2-26-5.45-26.95-11l-.13.15c-.18.19-.34.38-.5.57A18.16,18.16,0,0,0,80.43,358c-.1.31-.18.62-.26.93S80,359.54,80,359.83Z" style="fill:#ebebeb"></path><path d="M80,359.83a5.45,5.45,0,0,0,1.21,1.28c7.06,5.41,28.74,1.69,30.09,1.45h.06c-20.38,2-26-5.45-26.95-11l-.13.15c-.18.19-.34.38-.5.57A18.16,18.16,0,0,0,80.43,358c-.1.31-.18.62-.26.93S80,359.54,80,359.83Z" style="opacity:0.2"></path><path d="M144.63,358.69a8.75,8.75,0,0,1-1.78,4.14q0-.43-.09-.9c0-.31-.1-.62-.17-.95a17.66,17.66,0,0,0-2.79-6.06l-.43-.62-.12-.16h0a3,3,0,0,1-.22-.28c-11.84-18.37-27.33,8.08-27.66,8.69h0s1.91-27.67,16.7-27C139.65,336,146.12,350.22,144.63,358.69Z" style="fill:#ebebeb"></path><path d="M142.85,362.83a5.87,5.87,0,0,1-1.33,1.16c-7.54,4.71-28.77-1.06-30.09-1.42l-.07,0c20.11,3.89,26.38-3,27.89-8.41l.12.16.43.62a17.94,17.94,0,0,1,2.79,6.06c.07.33.12.64.17.95S142.83,362.54,142.85,362.83Z" style="fill:#ebebeb"></path><path d="M142.85,362.83a5.87,5.87,0,0,1-1.33,1.16c-7.54,4.71-28.77-1.06-30.09-1.42l-.07,0c20.11,3.89,26.38-3,27.89-8.41l.12.16.43.62a17.94,17.94,0,0,1,2.79,6.06c.07.33.12.64.17.95S142.83,362.54,142.85,362.83Z" style="opacity:0.2"></path><polygon points="71.71 454.75 150.54 454.75 144.03 365.83 79.58 368.59 71.71 454.75" style="fill:#dbdbdb"></polygon><polygon points="53.52 454.75 77.99 454.75 81.42 368.59 57.88 370.63 53.52 454.75" style="fill:#a6a6a6"></polygon><polygon points="151.61 365.83 151.61 383.19 81.42 381.05 81.42 361.18 151.61 365.83" style="fill:#c7c7c7"></polygon><polygon points="55.02 383.19 81.42 381.05 81.42 361.18 53.52 365.83 55.02 383.19" style="fill:#dbdbdb"></polygon><polygon points="105.33 454.75 121.83 454.75 123.49 363.96 104.01 362.67 105.33 454.75" style="fill:#ebebeb"></polygon><polygon points="67.89 454.75 62.27 454.75 62.77 364.29 70.61 362.98 67.89 454.75" style="fill:#ebebeb"></polygon><path d="M140.21,395.54a8,8,0,0,0,1.77,3.84c0-.28,0-.56.06-.85s.08-.59.14-.89a16.31,16.31,0,0,1,2.47-5.76c.12-.2.25-.39.39-.59l.11-.15h0c.06-.09.14-.18.19-.27,10.68-17.52,25.84,6.92,26.17,7.49h0s-2.44-25.92-16.31-25C144.34,374.14,138.6,387.63,140.21,395.54Z" style="fill:#dbdbdb"></path><path d="M142,399.38a5.35,5.35,0,0,0,1.27,1.05c7.19,4.24,27-1.68,28.2-2.05l.06,0c-18.77,4.14-24.82-2.14-26.36-7.22l-.11.15c-.14.2-.27.39-.39.59a16.77,16.77,0,0,0-2.47,5.76c-.06.3-.1.6-.14.89S142,399.1,142,399.38Z" style="fill:#a6a6a6"></path><path d="M202.07,391a8.09,8.09,0,0,1-1.19,4.06c0-.27-.11-.55-.19-.83s-.16-.57-.26-.86a16.56,16.56,0,0,0-3.29-5.34l-.47-.53-.13-.13h0a2.61,2.61,0,0,1-.23-.24c-13.12-15.78-24.55,10.62-24.79,11.23h0s-1.36-26,12.5-27.07C194.86,370.44,202.5,382.94,202.07,391Z" style="fill:#dbdbdb"></path><path d="M200.88,395.06a5.43,5.43,0,0,1-1.11,1.23c-6.49,5.24-26.93,2.27-28.2,2.08h-.06c19.18,1.36,24.24-5.74,25-11l.13.13.47.53a17,17,0,0,1,3.29,5.34c.1.29.19.58.26.86S200.83,394.79,200.88,395.06Z" style="fill:#a6a6a6"></path><polygon points="207.37 454.54 134.33 454.54 137 402.83 200.07 400.58 207.37 454.54" style="fill:#ebebeb"></polygon><polygon points="207.37 454.54 134.33 454.54 137 402.83 200.07 400.58 207.37 454.54" style="fill:#fff;opacity:0.6000000000000001"></polygon><polygon points="222.3 454.54 201.55 454.54 198.37 400.58 219.77 404.57 222.3 454.54" style="fill:#ebebeb"></polygon><polygon points="133.34 400.77 133.34 418.82 198.37 416.59 198.37 395.94 133.34 400.77" style="fill:#ebebeb"></polygon><polygon points="133.34 400.77 133.34 418.82 198.37 416.59 198.37 395.94 133.34 400.77" style="fill:#fff;opacity:0.4"></polygon><polygon points="222.83 418.82 198.37 416.59 198.37 395.94 224.22 400.77 222.83 418.82" style="fill:#ebebeb"></polygon><polygon points="222.83 418.82 198.37 416.59 198.37 395.94 224.22 400.77 222.83 418.82" style="opacity:0.1"></polygon><polygon points="154.29 399.21 154.93 454.54 172.17 454.54 172.45 397.86 154.29 399.21" style="fill:#dbdbdb"></polygon><polygon points="208.67 397.86 215.16 399.08 215.16 454.54 209.73 454.54 208.67 397.86" style="fill:#dbdbdb"></polygon></g><g id="freepik--Floor--inject-647"><polygon points="53.52 454.75 102.64 454.5 151.76 454.41 250 454.25 348.24 454.41 397.36 454.5 446.48 454.75 397.36 454.99 348.24 455.08 250 455.24 151.76 455.08 102.64 454.99 53.52 454.75" style="fill:#263238"></polygon></g><g id="freepik--character-2--inject-647"><polygon points="260.18 344.53 430.35 344.53 432.67 454.75 257.85 454.75 260.18 344.53" style="fill:#455a64"></polygon><rect x="355.3" y="344.53" width="11.8" height="110.21" style="fill:#ECEFF1"></rect><polygon points="432.67 377.18 432.67 388.99 259.24 388.99 259.49 377.18 432.67 377.18" style="fill:#ECEFF1"></polygon><path d="M344.37,377.35s-15.29-.1-22.48,8.49-8.46,18-11.07,20.8-13.54,5-13.54,5l14.37,17.66s6.76.48,11.35-9.31,4.42-21.67,10-28.41,15.18-10,15.18-10Z" style="fill:#ECEFF1"></path><path d="M329.76,397.43a41.56,41.56,0,0,1-6.43-13.1h0c7.61-7.05,21-7,21-7l3.8,4.21s-9.61,3.31-15.18,10A20.33,20.33,0,0,0,329.76,397.43Z" style="opacity:0.1"></path><path d="M368.2,379.09s14.49-2.26,23.38,4.54,12.61,14.52,15.77,16.69,14.31,1.93,14.31,1.93l-10.15,20.39s-6.49,1.94-13.12-6.6-9.06-20.18-16-25.54-17-6.56-17-6.56Z" style="fill:#ECEFF1"></path><path d="M392.73,406.58c-3.14-6.29-5.75-12.55-10.3-16.08-6.91-5.35-17-6.56-17-6.56l2.74-4.85s14.49-2.25,23.38,4.54a50,50,0,0,1,5,4.41A56.08,56.08,0,0,1,392.73,406.58Z" style="opacity:0.1"></path><path d="M392.13,383.94c-1,3.27-17.67,3.87-27.13-2.08,0,0,9.3-5.71,17.15-4.47S392.57,382.52,392.13,383.94Z" style="fill:#ECEFF1"></path><path d="M392.13,383.94c-1,3.27-17.67,3.87-27.13-2.08,0,0,9.3-5.71,17.15-4.47S392.57,382.52,392.13,383.94Z" style="opacity:0.1"></path><path d="M365,381.86l.23-1.14.26-1.32.1-.49c8.43-10.27,20.46-13,21.31-12.79s4.55,4.75,5.69,8.83-.55,10.1-.46,9-2.44-4.63-8.48-5.61S366.66,380.57,365,381.86Z" style="fill:#ECEFF1"></path><path d="M365.23,380.72l.26-1.32a18.57,18.57,0,0,1,6.22-4.3.06.06,0,0,1,.05.1q-1.83,1.28-3.52,2.69a45.91,45.91,0,0,1,9-3.21c.13,0,.2.17.07.2C372.93,376.16,369.16,378.53,365.23,380.72Z" style="opacity:0.1"></path><path d="M380.35,407.66c-3.78,1.44-14-11.38-15.38-24.48,0,0,9.69,2.16,14.27,10.34S382,407,380.35,407.66Z" style="fill:#ECEFF1"></path><path d="M380.35,407.66c-3.78,1.44-14-11.38-15.38-24.48,0,0,9.69,2.16,14.27,10.34S382,407,380.35,407.66Z" style="opacity:0.1"></path><path d="M365,383.18l.77-3.9c15.68.32,26.95,9.51,27.4,10.42s-1.08,7.68-4,11.72-9.77,6.85-8.68,6.12,2.51-5.64-1-12S367.38,383.78,365,383.18Z" style="fill:#ECEFF1"></path><path d="M365.25,381.75l.18-.92a32.89,32.89,0,0,1,13.07,6.4c.12.08,0,.28-.14.2a42.55,42.55,0,0,0-7.06-3.74A48.9,48.9,0,0,0,365.25,381.75Z" style="opacity:0.1"></path><path d="M333.1,372.26c-.3,3.42,14.87,10.31,25.88,8.41,0,0-6.43-8.82-14.16-10.66S333.23,370.78,333.1,372.26Z" style="fill:#ECEFF1"></path><path d="M333.1,372.26c-.3,3.42,14.87,10.31,25.88,8.41,0,0-6.43-8.82-14.16-10.66S333.23,370.78,333.1,372.26Z" style="opacity:0.1"></path><path d="M336.09,363.77c2.61-3.33,7.79-6.15,8.63-6s10.95,7.22,14.83,19.94l-.12.65-.31,1.57-.14.73c-1.05-1.83-9.94-9-15.9-10.37s-9.63.9-10,2S333.48,367.11,336.09,363.77Z" style="fill:#ECEFF1"></path><path d="M350.24,367.4a32.4,32.4,0,0,1,6.59,6.89,42.4,42.4,0,0,1,2.6,4.08l-.31,1.57a38.11,38.11,0,0,0-2.83-5,47.27,47.27,0,0,0-6.33-7.23A.21.21,0,0,1,350.24,367.4Z" style="opacity:0.1"></path><path d="M334.92,398.66c2.95,2.77,17.31-5.17,23.58-16.76,0,0-9.78-1.69-17.13,4.13S333.64,397.46,334.92,398.66Z" style="fill:#ECEFF1"></path><path d="M334.92,398.66c2.95,2.77,17.31-5.17,23.58-16.76,0,0-9.78-1.69-17.13,4.13S333.64,397.46,334.92,398.66Z" style="opacity:0.1"></path><path d="M330,377.2c.77-.67,14.68-4.87,29.3.8l-.77,3.9c-2.45-.36-12.48,1.45-18.12,6s-6.19,9.58-5.46,10.68-4.5-4.12-5.69-9S329.21,377.87,330,377.2Z" style="fill:#ECEFF1"></path><path d="M342.54,382.74a15.19,15.19,0,0,1,8-3.07,35,35,0,0,1,6.49-.23,35.08,35.08,0,0,0-3.94-.75,33,33,0,0,0-7.17.15c-.17,0-.18-.22,0-.27,3.87-1.51,9.06-.65,13.09.69l-.24,1.25a47.35,47.35,0,0,0-7-.13c-3,.24-6.56.74-9.05,2.54C342.57,383,342.43,382.82,342.54,382.74Z" style="opacity:0.1"></path><path d="M357.23,378.2c.18-.79,1-3.64,2.19-3.88s3,.82,3.47.92h0c.51.1,2.56-.21,3.56.47s.68,3.62.55,4.42-.82,3.87-1.91,4-3.34-1-3.75-1.06-2.93.11-3.88-.44S357.06,379,357.23,378.2Z" style="fill:#ECEFF1"></path><polygon points="438.22 274.23 332.35 274.23 329.07 344.62 441.49 344.62 438.22 274.23" style="fill:#ECEFF1"></polygon><rect x="401.49" y="274.23" width="14.36" height="70.39" transform="translate(817.34 618.85) rotate(180)" style="fill:#37474f"></rect><polygon points="439.84 309.13 439.18 294.77 331.27 294.77 330.71 309.13 439.84 309.13" style="fill:#37474f"></polygon><path d="M254.07,269.45a9,9,0,0,0,1.7,4.36,7.69,7.69,0,0,1,.13-.93,9.05,9.05,0,0,1,.21-1,18.17,18.17,0,0,1,3.11-6.19l.47-.63.13-.15h0a2.92,2.92,0,0,0,.23-.29c13-18.61,28.05,9.39,28.37,10h0s-.95-28.76-16.31-28.64C260.08,246.12,252.84,260.61,254.07,269.45Z" style="fill:#dbdbdb"></path><path d="M255.77,273.81a6.08,6.08,0,0,0,1.33,1.25c7.65,5.16,29.88,0,31.26-.37l.06,0c-21,3.3-27.24-4-28.6-9.74l-.13.15-.47.63a18.36,18.36,0,0,0-3.11,6.19,9.05,9.05,0,0,0-.21,1A7.69,7.69,0,0,0,255.77,273.81Z" style="fill:#c7c7c7"></path><path d="M322.64,268.61a9,9,0,0,1-1.59,4.4c0-.3-.09-.61-.15-.92s-.14-.65-.23-1A18.31,18.31,0,0,0,317.4,265c-.16-.2-.31-.4-.49-.61a1.83,1.83,0,0,0-.13-.16h0l-.24-.28c-13.41-18.3-27.8,10.06-28.11,10.71h0s.26-28.78,15.61-29C316.07,245.44,323.66,259.75,322.64,268.61Z" style="fill:#dbdbdb"></path><path d="M321.05,273a5.85,5.85,0,0,1-1.3,1.28c-7.52,5.35-29.87.69-31.26.4l-.07,0c21.07,2.79,27.14-4.69,28.36-10.44a1.83,1.83,0,0,1,.13.16c.18.21.33.41.49.61a18.88,18.88,0,0,1,3.27,6.11c.09.33.17.66.23,1S321,272.71,321.05,273Z" style="fill:#c7c7c7"></path><polygon points="245.13 282.1 331.54 282.1 332.82 344.62 243.85 344.62 245.13 282.1" style="fill:#263238"></polygon><rect x="277.84" y="282.1" width="20.99" height="62.52" style="fill:#dbdbdb"></rect><polygon points="335.62 293.07 241.04 293.07 242.05 274.32 334.62 274.32 335.62 293.07" style="fill:#263238"></polygon><rect x="273.72" y="274.33" width="29.22" height="18.74" style="fill:#dbdbdb"></rect><polygon points="303.03 253.88 442.79 253.88 443.68 274.37 302.14 274.37 303.03 253.88" style="fill:#37474f"></polygon><rect x="410.22" y="253.88" width="12.7" height="20.49" style="fill:#ECEFF1"></rect><polygon points="303.03 253.88 442.79 253.88 443.02 259.27 302.82 257.72 303.03 253.88" style="opacity:0.1"></polygon><polygon points="446.48 254.12 299.33 254.12 300.65 244.19 445.17 244.19 446.48 254.12" style="fill:#37474f"></polygon><rect x="408.23" y="244.19" width="18.07" height="9.93" style="fill:#ECEFF1"></rect><polygon points="325.85 419.33 224.22 419.33 223.32 454.75 326.75 454.75 325.85 419.33" style="fill:#ECEFF1"></polygon><rect x="244.08" y="419.33" width="12.7" height="35.41" transform="translate(500.87 874.08) rotate(180)" style="fill:#455a64"></rect><g style="opacity:0.1"><polygon points="325.85 419.33 224.22 419.33 224.1 423.84 325.93 422.7 325.85 419.33"></polygon><rect x="244.08" y="419.33" width="12.7" height="4.5" transform="translate(500.87 843.17) rotate(180)"></rect></g><polygon points="220.52 419.58 329.55 419.58 328.24 409.64 221.83 409.64 220.52 419.58" style="fill:#ECEFF1"></polygon><rect x="240.7" y="409.64" width="18.07" height="9.93" transform="translate(499.48 829.22) rotate(180)" style="fill:#455a64"></rect><path d="M350.06,85.9c-16.72,10-27.59,43.18-16.27,70,9.57,22.7,41.62,34.23,58.52,26.09,17.93-8.64,20.45-29,11.78-41.24-8.94-12.64-23.17-13.22-27.91-23.71-2.27-5-1.35-14.31-4.38-21.87C368.41,86.72,358.63,80.8,350.06,85.9Z" style="fill:#263238"></path><path d="M373.6,102a59.66,59.66,0,0,0,1.6,9.82,23.3,23.3,0,0,0,4.37,9,15.36,15.36,0,0,0,4,3.18c1.43.86,2.88,1.66,4.33,2.46a96.77,96.77,0,0,1,8.44,5.08,37.79,37.79,0,0,1,7.38,6.37,23.72,23.72,0,0,1,5.81,18,41.87,41.87,0,0,1-2,9.65,38.1,38.1,0,0,0,2.6-9.6,24.55,24.55,0,0,0-.73-10,23.75,23.75,0,0,0-4.82-8.83,39.33,39.33,0,0,0-7.53-6.65,94.38,94.38,0,0,0-8.6-5.06c-1.46-.79-2.91-1.56-4.32-2.39a16.13,16.13,0,0,1-3.81-2.9,22.66,22.66,0,0,1-4.5-8.55A69.89,69.89,0,0,1,373.6,102Z" style="fill:#263238"></path><path d="M346.76,88.23a69.27,69.27,0,0,0-13.46,16.48,57.09,57.09,0,0,0-7.36,20.05,44.45,44.45,0,0,0-.32,10.75,26.64,26.64,0,0,0,.32,2.67,26.23,26.23,0,0,0,.47,2.65c.2.88.38,1.76.61,2.62l.82,2.56a55.33,55.33,0,0,0,10.84,18.29c-1-1.46-2.1-2.86-3.06-4.35s-1.93-3-2.71-4.55a49.28,49.28,0,0,1-4.17-9.68A45.42,45.42,0,0,1,327.16,125a57.94,57.94,0,0,1,7-19.77,75.71,75.71,0,0,1,5.76-8.88A73.31,73.31,0,0,1,346.76,88.23Z" style="fill:#263238"></path><path d="M246.91,357.1c2.63.73,76.55-3.21,79.27-5.14,1-.73,1.09-11.53.79-24.58-.07-2.81-.15-5.72-.26-8.68-.64-19.18-1.77-39.52-1.77-39.52l-48.71,2.46,2.39,39.48.69,8.66S251.68,344,248.92,346.39,244.29,356.38,246.91,357.1Z" style="fill:#455a64"></path><path d="M278.62,321.12l48.09-2.42s-2.34-47.65-.37-54.91S365.7,244,371.49,236.12s6.77-38.69,6.77-38.69H338.05s-2.49,11-3,12.57S286.8,232.52,279,245.42C271.67,257.54,278.62,321.12,278.62,321.12Z" style="fill:#455a64"></path><path d="M378.12,200.47c0,.92-.11,2-.19,3.25H336.61l.75-3.25Z" style="fill:#c7c7c7"></path><path d="M377.53,208.84c-.08,1-.18,2.13-.3,3.25l-42.65-1.7a1.47,1.47,0,0,0,.47-.4c.14-.4.41-1.46.73-2.81Z" style="fill:#c7c7c7"></path><path d="M376.44,218.7c-.15,1.07-.33,2.14-.5,3.2l-50-6.91c1.93-1,3.63-1.85,5-2.58Z" style="fill:#c7c7c7"></path><path d="M374.91,227.13c-.26,1.1-.53,2.15-.83,3.14l-53.89-12.34,4.49-2.31Z" style="fill:#c7c7c7"></path><path d="M371.74,235.77l-.25.35a12.21,12.21,0,0,1-2.29,2.23h0l-53.69-18c1.37-.73,2.72-1.42,4-2.1Z" style="fill:#c7c7c7"></path><path d="M363.27,242.18c-1.13.64-2.35,1.3-3.62,2L310.91,222.8l3.67-1.94Z" style="fill:#c7c7c7"></path><path d="M353.39,247.3l-3.7,1.81-45.91-22.34c1.14-.66,2.3-1.31,3.45-1.94Z" style="fill:#c7c7c7"></path><path d="M344.69,251.55,341,253.38l-45.1-21.95c1.07-.67,2.17-1.34,3.28-2Z" style="fill:#c7c7c7"></path><path d="M338.38,254.76q-1.92,1-3.63,2l-46.84-19.91q1.5-1.11,3.12-2.22Z" style="fill:#c7c7c7"></path><path d="M332.15,258.3a33.75,33.75,0,0,0-3.22,2.28L280.84,243a32.33,32.33,0,0,1,2.56-2.52Z" style="fill:#c7c7c7"></path><path d="M327.05,262.47a4,4,0,0,0-.71,1.33,15.64,15.64,0,0,0-.31,1.77L276.9,252a28.66,28.66,0,0,1,.72-3.19Z" style="fill:#c7c7c7"></path><path d="M325.85,267.52c-.08,1-.13,2.07-.18,3.28l-49.81-8.72c.06-1.12.13-2.22.2-3.27Z" style="fill:#c7c7c7"></path><path d="M325.61,273.36c0,1-.05,2.13-.05,3.27l-49.92-4.19c0-1.09,0-2.19,0-3.26Z" style="fill:#c7c7c7"></path><path d="M325.59,283.59h-.43l-48.88-1h-.43c-.05-1.08-.08-2.16-.1-3.25l33.18.7,16.07.34h.56C325.56,281.41,325.57,282.49,325.59,283.59Z" style="fill:#c7c7c7"></path><path d="M325.72,291.18h-.16l-48.73.47h-.57c-.05-1.08-.12-2.16-.16-3.25l.54,0,48.76-.46h.25C325.67,289,325.69,290.1,325.72,291.18Z" style="fill:#c7c7c7"></path><path d="M325.94,299.36l-48.61.48h-.55c-.08-1.06-.15-2.15-.23-3.25h.59l48.66-.48h.05C325.88,297.22,325.91,298.3,325.94,299.36Z" style="fill:#c7c7c7"></path><path d="M326.29,307.54h-.06l-48.4.47h-.43c-.09-1-.18-2.13-.26-3.25h.48l48.5-.48h0C326.2,305.36,326.25,306.45,326.29,307.54Z" style="fill:#c7c7c7"></path><path d="M326.6,315.72h0l-48.25.48h-.2c-.08-1-.19-2.06-.29-3.25h.29l48.31-.48h.06C326.53,313.56,326.57,314.64,326.6,315.72Z" style="fill:#c7c7c7"></path><path d="M326.88,323.92l-48,.46-.26-3.24,48.16-.48C326.82,321.76,326.84,322.84,326.88,323.92Z" style="fill:#c7c7c7"></path><path d="M277.55,330.7l1.75-.91-.17-2.27,47.9,2.62c0,1.1,0,2.18.05,3.25Z" style="fill:#c7c7c7"></path><path d="M326.18,352c-.77.55-7.24,1.26-16.19,2,.66-3.06,2.34-10.22,3.89-12.39,1.24-1.72,8.15-3.39,13.24-4.41C327.18,345.45,327,351.43,326.18,352Z" style="fill:#37474f"></path><path d="M272.37,356.3c-13.49.7-24.47,1.08-25.45.81-2.64-.73-.74-8.28,2-10.72a46.31,46.31,0,0,1,5.69-3.49c4.27.41,9.25,1.31,11.66,3.29C269.25,348.63,271.29,353.26,272.37,356.3Z" style="fill:#37474f"></path><path d="M327.15,334.75c.49,10.53.17,17.88-.71,18.52-2.68,2.05-76.67,4.87-79.34,4.22s-20.65-17.06-20.22-21.67c.11-1.23.13-2.56,2.76-1.94,1.59.37,10.8,9.17,18.36,8.89,6.79-.26,30.52-13.75,30.52-13.75l-.92-15.2L273,304.93l56.27-1.6s-2.29,8.41-2.32,9.27C326.66,320.84,327.09,333.55,327.15,334.75Z" style="fill:#37474f"></path><path d="M230.22,337.81c9.34-2.82,5-17.33-4.38-14.5S220.88,340.64,230.22,337.81Z" style="fill:#ECEFF1"></path><path d="M224.7,328.31a13.63,13.63,0,0,1,3.92-1.71c0,.12,0,.25.07.37.22,1.34.27,2.71.41,4.06,0,.21.36.36.46.11a9.57,9.57,0,0,0,.41-4.56,8,8,0,0,1,3.18,1.22c.22.13.47-.16.34-.37a4.82,4.82,0,0,0-3.83-2.13,4.76,4.76,0,0,0-1.28-2.08.26.26,0,0,0-.44.2,7.46,7.46,0,0,0,.35,1.92,5.53,5.53,0,0,0-4.07,2.53C224,328.18,224.42,328.45,224.7,328.31Z" style="fill:#020200;opacity:0.1"></path><path d="M280.39,313.68c3.74-.27,7.47-.44,11.21-.59s7.47-.24,11.2-.32,7.48-.11,11.22-.09l5.6,0c1.87,0,3.74.06,5.61.14-1.86.15-3.73.23-5.6.35l-5.6.24c-3.74.16-7.47.24-11.21.32s-7.47.11-11.21.09S284.13,313.82,280.39,313.68Z" style="fill:#263238"></path><path d="M327.15,334.75c.5,10.53.17,17.88-.71,18.52-1.42,1.09-22.94,2.39-43.22,3.28L307.47,304l21.78-.62s-2.29,8.41-2.32,9.27C326.66,320.84,327.09,333.55,327.15,334.75Z" style="opacity:0.1"></path><path d="M284.16,373.82c2.68.5,76-9.65,78.55-11.81,1-.81.11-11.57-1.29-24.55-.3-2.8-.63-5.7-1-8.63-2.26-19.06-5.11-39.23-5.11-39.23l-48.06,6.52,5.45,39.18,1.41,8.57S287.8,360.32,285.25,363,281.48,373.32,284.16,373.82Z" style="fill:#455a64"></path><path d="M394,197.43h-56s0,12.62,1.19,17.37c.51,2,7.06,5.95,7.42,6.76,0,0-33.92,22.31-40,35.24S312,330.74,312,330.74l47.94-6.31s-7.25-55.1-6.32-61.07c.63-4.08,30.81-10.63,42.34-22.43C404,232.65,394,197.43,394,197.43Z" style="fill:#455a64"></path><path d="M362.71,362c-.76.64-7.78,2-17.35,3.55.07-3.11.35-10.46,1.46-12.9s10.94-6.44,15.33-8.13C363.09,354.15,363.5,361.35,362.71,362Z" style="fill:#37474f"></path><path d="M306.94,371.22c-12.22,1.64-21.84,2.77-22.78,2.6-2.68-.5-1.43-8.18,1.09-10.85a52.84,52.84,0,0,1,5.55-4.07c4,.45,8.22,1.36,10.38,3.14C303.87,364.24,305.79,368.23,306.94,371.22Z" style="fill:#37474f"></path><path d="M395.6,203.59H338.18c-.06-1.2-.08-2.31-.1-3.26h56.74C395.05,201.24,395.32,202.34,395.6,203.59Z" style="fill:#c7c7c7"></path><path d="M397.33,211.92l-58.82-2.34c-.09-1.06-.16-2.17-.22-3.26l58.41,2.31C396.92,209.69,397.13,210.79,397.33,211.92Z" style="fill:#c7c7c7"></path><path d="M398.76,222,339,213.78c-.17-1-.31-2.1-.43-3.34l59.8,8.26C398.53,219.82,398.66,220.93,398.76,222Z" style="fill:#c7c7c7"></path><path d="M399,231.07l-56.77-13h0c-1.47-1.16-2.79-2.37-3-3.25a8,8,0,0,1-.17-.8l60,13.74h0C399.11,228.9,399.09,230,399,231.07Z" style="fill:#c7c7c7"></path><path d="M398,237.42a9.69,9.69,0,0,1-1.51,2.92L344.56,223l2.1-1.41a16.08,16.08,0,0,0-2.77-2.24Z" style="fill:#c7c7c7"></path><path d="M391,245c-1,.72-2.14,1.41-3.3,2.09l-47.77-20.9L343,224Z" style="fill:#c7c7c7"></path><path d="M381.17,250.52c-1.26.6-2.54,1.19-3.83,1.74l-43.9-21.36,3-2.19Z" style="fill:#c7c7c7"></path><path d="M372,254.52c-1.38.57-2.76,1.11-4.08,1.62l-41.18-20,2.84-2.23Z" style="fill:#c7c7c7"></path><path d="M365.27,257.17c-1.53.6-3,1.17-4.27,1.71l-40.81-17.36c.9-.79,1.82-1.57,2.75-2.36Z" style="fill:#c7c7c7"></path><path d="M358.25,260.06a20.11,20.11,0,0,0-3.75,2.09L314,247.32c.81-.83,1.67-1.67,2.56-2.51Z" style="fill:#c7c7c7"></path><path d="M353.59,267.27l-45.68-12.61a32.19,32.19,0,0,1,2-2.82l43.6,12A28.88,28.88,0,0,0,353.59,267.27Z" style="fill:#c7c7c7"></path><path d="M353.89,271.94l-48.65-8.51a30.7,30.7,0,0,1,.45-3.23l48,8.4C353.72,269.61,353.79,270.73,353.89,271.94Z" style="fill:#c7c7c7"></path><path d="M354.34,277.15,305,273c0-1.11-.05-2.21,0-3.26L354,273.86C354.14,274.91,354.25,276,354.34,277.15Z" style="fill:#c7c7c7"></path><path d="M355,283.63l-49.55-1c-.08-1.1-.16-2.19-.21-3.26l49.42,1.05C354.78,281.44,354.89,282.53,355,283.63Z" style="fill:#c7c7c7"></path><path d="M355.66,289.58l-49.35,2.29c-.12-1.09-.23-2.17-.33-3.25l49.32-2.28Z" style="fill:#c7c7c7"></path><path d="M356.45,296.58h-.15L308,301.39l-.57.07c-.15-1.08-.28-2.15-.41-3.23l.52-.06,48.31-4.81.22,0C356.21,294.42,356.33,295.5,356.45,296.58Z" style="fill:#c7c7c7"></path><path d="M357.42,304.66h0l-48.25,4.82-.59,0c-.15-1-.3-2.12-.45-3.22l.59-.06,48.28-4.8H357Q357.23,303.09,357.42,304.66Z" style="fill:#c7c7c7"></path><path d="M358.44,312.76h0l-48.16,4.79-.5,0c-.16-1-.32-2.1-.49-3.21l.55-.05L358,309.54h0C358.16,310.58,358.3,311.66,358.44,312.76Z" style="fill:#c7c7c7"></path><path d="M359.47,320.83h0l-48.06,4.78-.3,0c-.18-1-.35-2-.55-3.21l.39,0L359,317.61h0C359.2,318.68,359.33,319.75,359.47,320.83Z" style="fill:#c7c7c7"></path><path d="M360.45,328.93l-47.95,4.76-.42-2.95H312s0-.09,0-.25l.13,0,7.91-.78,40.1-4c.13,1,.26,2.08.37,3.12C360.43,328.86,360.45,328.89,360.45,328.93Z" style="fill:#c7c7c7"></path><path d="M361.38,337l-47.59,4.74-.54-3.22L361,333.79C361.14,334.89,361.26,336,361.38,337Z" style="fill:#c7c7c7"></path><path d="M362.15,344.53c1.45,10.45,1.79,17.79,1,18.51-2.48,2.29-75.92,11.83-78.63,11.42s-22.11-15.1-22.11-19.73c0-1.24-.1-2.56,2.57-2.19,1.62.23,11.59,8.15,19.1,7.18,6.74-.87,29.8-16.27,29.8-16.27l-2.3-15.06-6.07-8.62,55.89-6.72s-1.52,8.58-1.47,9.45C360.39,330.73,362,343.34,362.15,344.53Z" style="fill:#37474f"></path><path d="M265.9,356.4c9-3.65,3.37-17.7-5.68-14S256.85,360.07,265.9,356.4Z" style="fill:#ECEFF1"></path><path d="M259.53,347.44a13.64,13.64,0,0,1,3.75-2.06c0,.12.08.25.11.37.34,1.32.51,2.67.78,4,0,.21.39.33.46.07a9.45,9.45,0,0,0,0-4.58,8.23,8.23,0,0,1,3.29.92c.23.12.45-.19.3-.39a4.86,4.86,0,0,0-4-1.78,4.93,4.93,0,0,0-1.46-2,.28.28,0,0,0-.43.25,8.52,8.52,0,0,0,.53,1.88A5.55,5.55,0,0,0,259,347C258.86,347.38,259.27,347.61,259.53,347.44Z" style="fill:#020200;opacity:0.1"></path><path d="M313.67,327.81c3.69-.61,7.39-1.12,11.1-1.61s7.42-.92,11.13-1.34,7.43-.79,11.16-1.11l5.59-.47c1.86-.12,3.73-.28,5.6-.37-1.85.32-3.7.57-5.55.86l-5.56.75c-3.7.49-7.41.92-11.13,1.34s-7.43.79-11.16,1.1S317.41,327.61,313.67,327.81Z" style="fill:#263238"></path><path d="M305.75,258.3a19.27,19.27,0,0,1,3.44-7c1.6-2.08,25.74-24.13,37.46-29.74.18-.09.35.15.18.25-10.89,6.53-33,26.65-35,28.68a16.88,16.88,0,0,0-4.09,6.36c-6.12,18.26,2.18,55.69,2.39,62.45a.13.13,0,0,1-.26,0C309.32,313.13,300.35,279.57,305.75,258.3Z" style="fill:#263238"></path><path d="M338.05,197.43h56s11,24.29,6.1,39.54S375,266.07,375,266.07s-46.19-28.94-97.89-32.62c0,0,12.57-17.47,53.61-26.27C334.88,206.29,333.85,202.1,338.05,197.43Z" style="fill:#ECEFF1"></path><path d="M356.63,151.28c-11.7,24.46-27.92,46.48-36.88,46.71s-40.7-25.21-45.09-33.37c-1.9-3.52,19.36-20.41,23.46-19.17s19.63,19.16,22.06,20.15c1.76.71,16.07-14,27.64-23.6C355.2,135.88,362.81,138.38,356.63,151.28Z" style="fill:#ffc4c0"></path><path d="M278.28,168.8c-2.72-2.54-15.62-16.47-18-20.72s-8.39-17-5.32-19.16,5.13,1.43,5.13,1.43-1.68-5.78,1.61-7.67,6.3,3.79,6.3,3.79-1.29-6.06,2.12-7.72,5.49,4.58,5.49,4.58-1.44-5.49,1.95-5.67c4.08-.22,5.59,10.2,8.58,14.7.68,1,15.25,19.72,15.25,19.72Z" style="fill:#ffc4c0"></path><path d="M275.41,122.8c1.13,7.65,2.95,10.81,7.91,16.59.1.11-.05.28-.16.17-5.37-5.22-8.23-8.84-8.12-16.73C275,122.45,275.36,122.43,275.41,122.8Z" style="fill:#263238"></path><path d="M267.91,125.86c1.87,7.85,3.81,11.29,8.56,17.73.07.09-.08.21-.15.13-5.19-5.93-8-9.61-8.79-17.7C267.49,125.65,267.82,125.5,267.91,125.86Z" style="fill:#263238"></path><path d="M260.33,130.67c2.36,7.47,4.32,11.33,9.74,17a.14.14,0,0,1-.19.21c-6.09-5.23-8.58-10-9.77-17.1C260,130.28,260.18,130.2,260.33,130.67Z" style="fill:#263238"></path><path d="M304.61,155.71s.39-9.69-.38-14-9.54-19.24-12.87-17.53c-4.31,2.2-.95,11.83,1.31,16.33,0,0-10,5.09-9.05,12.52S304.61,155.71,304.61,155.71Z" style="fill:#ffc4c0"></path><path d="M290.37,125.19c-2.47,4.85.88,10.56,2.74,15.09a.45.45,0,0,1-.37.64c-4,2.41-9,7-9.36,11.94a.12.12,0,0,1-.23,0c-.35-5.36,4.18-10.26,8.77-12.63-2-4.61-5.1-10.49-1.59-15.07C290.35,125.14,290.39,125.16,290.37,125.19Z" style="fill:#263238"></path><path d="M347.34,169.76l-14.51-15.18s-1.94,1.9-.77,3.51,3.41.64,3.41.64a2.75,2.75,0,0,0,0,3.24c1.25,1.53,3.34.14,3.34.14s-1.32,2.24.09,3.73,3.61.14,3.61.14a2.7,2.7,0,0,0,.11,3.64C344.69,171.73,347.34,169.76,347.34,169.76Z" style="fill:#fff"></path><path d="M347,170.81l-14.77-16.05s-.34-6.14,3.73-9.57,9.91-7.75,16.33-9.53c12-3.34,13.25,3.21,11.93,11.93a64.27,64.27,0,0,1-6.24,17.52C354.79,170.4,347,170.81,347,170.81Z" style="fill:#ECEFF1"></path><path d="M364.18,147.59a64.27,64.27,0,0,1-6.24,17.52c-3.15,5.29-11,5.7-11,5.7l-8.27-9,19.51-27C364.66,135,365.24,140.6,364.18,147.59Z" style="opacity:0.1"></path><path d="M394,197.57l-55.94-.14c-.11-.27,6.73-48.48,14.8-61,2.73-4.23,10.7-6.54,17.25-.18C387.9,153.54,394,197.57,394,197.57Z" style="fill:#ECEFF1"></path><polygon points="335.28 197.82 397.43 199.6 393.77 186.1 338.7 184.31 335.28 197.82" style="fill:#263238"></polygon><path d="M368.41,202l-26.85-.87.65-19.86,26.84.87Zm-22.72-4.73,18.85.61.39-11.87-18.85-.61Z" style="fill:#fff"></path><path d="M375,145.34c16.16,23.74,35.36,68.23,38.7,75.68,2.27,5-26.71,15.53-27.74,11.87-1.31-4.69-15-52.15-20.15-80C363.58,140.64,371.73,140.54,375,145.34Z" style="fill:#ffc4c0"></path><path d="M384.92,229.49c.85,2.51,3.72,13.15,5.86,14.52s13.53,1.34,19.27,1.47,6.91-1.44,6.86-3.42-12.09-2.63-12.09-2.63,16,5,20,5.82,13.3,3.41,14.73.09c.64-1.5-1.88-3.09-1.88-3.09s3.89,1.23,4.55-.7c.76-2.2-2.32-3.49-2.32-3.49s2.43.55,2.53-1.25c.22-4-15-6.36-15-6.36s11.59,6,12,2.69c.62-4.54-23.27-10.08-25.73-12.12a17,17,0,0,1-3.89-5Z" style="fill:#ffc4c0"></path><path d="M416.8,243.06a1.79,1.79,0,0,0-.51-1.55,5.1,5.1,0,0,0-1.38-.94,19.63,19.63,0,0,0-3.26-1.14c-2.25-.62-4.56-1.08-6.86-1.73a27.7,27.7,0,0,1,7.07,1,12.85,12.85,0,0,1,3.36,1.37,4.65,4.65,0,0,1,1.38,1.24A1.84,1.84,0,0,1,416.8,243.06Z" style="fill:#263238"></path><path d="M437.68,242.25c-1.64-.44-3.26-.95-4.88-1.45s-3.23-1.05-4.84-1.57l-4.81-1.63L418.32,236a37.07,37.07,0,0,1,5,1c1.65.41,3.27.92,4.89,1.45s3.21,1.12,4.78,1.75S436.15,241.5,437.68,242.25Z" style="fill:#263238"></path><path d="M422.3,232.06a32.7,32.7,0,0,1,4.62.75,44.6,44.6,0,0,1,4.52,1.27,42,42,0,0,1,4.35,1.74,33.44,33.44,0,0,1,4.12,2.24c-1.47-.54-2.9-1.14-4.35-1.67s-2.91-1.06-4.38-1.54-2.94-1-4.42-1.44S423.8,232.51,422.3,232.06Z" style="fill:#263238"></path><path d="M424.75,228.28a31,31,0,0,1,14.07,5.17c-2.36-.9-4.65-1.85-7-2.69S427.13,229.1,424.75,228.28Z" style="fill:#263238"></path><path d="M388.34,164.71l-20.47,4.65s.63,2.65,2.61,2.47,2.3-2.6,2.3-2.6a2.75,2.75,0,0,0,2.79,1.65c2-.29,1.84-2.8,1.84-2.8s1.25,2.29,3.24,1.84,2-3,2-3a2.7,2.7,0,0,0,3.18,1.77C388.68,168,388.34,164.71,388.34,164.71Z" style="fill:#fff"></path><path d="M389,165.58,367.7,170s-5.45-2.86-6.31-8.12-1.55-12.48.21-18.9c3.32-12,9.56-9.73,16.36-4.11a64,64,0,0,1,11.84,14.35C392.72,158.65,389,165.58,389,165.58Z" style="fill:#ECEFF1"></path><path d="M367.7,170a11.46,11.46,0,0,1-4.07-2.55,7.28,7.28,0,0,1-1.45-2,14.25,14.25,0,0,1-.72-2.34,43.7,43.7,0,0,1-.95-9.46c.36,1.55.7,3.09,1,4.63s.59,3.09.94,4.61a15,15,0,0,0,.61,2.19,7.14,7.14,0,0,0,1.16,1.88A17.83,17.83,0,0,0,367.7,170Z" style="fill:#263238"></path><path d="M359.52,156.08c.32.68.57,1.34.86,2a12.21,12.21,0,0,0,1,1.89,2.87,2.87,0,0,1-.87-.72,4.79,4.79,0,0,1-.58-1A4.57,4.57,0,0,1,359.52,156.08Z" style="fill:#263238"></path><path d="M359.07,131.65c-6.31.25-9.85,5.65-10.68,8.36s-2.37,10.39,0,10.89,4.95-6.2,4.95-6.07-.14,6.44,2.72,7,7.26-5.42,9.38-9.42S367.47,131.32,359.07,131.65Z" style="fill:#fff"></path><path d="M364.67,135.19c-.26,1.23-5.93,9.33-11.55,9.2-1.83,0-2-10-2-10l-.18-.74-2.55-10.28,13.69-9.14S364.77,134.66,364.67,135.19Z" style="fill:#ffc4c0"></path><path d="M348.37,123.34l2.55,10.27.18.74s0,1.81.22,3.89c7.62-1.31,11-7.14,12.42-11.13-.75-5.92-1.68-12.92-1.68-12.92Z" style="fill:#263238"></path><path d="M330.82,105.63c-2.67,22.54,10.52,26.68,15.39,27.26,4.41.51,19.5,1.72,24.49-20.42S366.05,82,356,80.24,333.49,83.09,330.82,105.63Z" style="fill:#ffc4c0"></path><path d="M337.26,103.57a13.84,13.84,0,0,0,1.55-.24,2.63,2.63,0,0,0,1.53-.56.8.8,0,0,0,0-1,2,2,0,0,0-1.95-.57,3,3,0,0,0-1.89,1A.86.86,0,0,0,337.26,103.57Z" style="fill:#263238"></path><path d="M353,104.93a13.56,13.56,0,0,1-1.52-.39,2.54,2.54,0,0,1-1.46-.7.83.83,0,0,1,0-1,2,2,0,0,1,2-.37,3,3,0,0,1,1.79,1.13A.86.86,0,0,1,353,104.93Z" style="fill:#263238"></path><path d="M350.72,107.72c2.5,0,2.33,5,0,5S348.63,107.73,350.72,107.72Z" style="fill:#263238"></path><path d="M351.69,108c.43.29.84.81,1.36.88s1.09-.43,1.5-.92c0,0,.08,0,.08.06,0,1-.41,1.92-1.44,2s-1.58-.77-1.79-1.73C351.36,108.16,351.52,107.9,351.69,108Z" style="fill:#263238"></path><path d="M339.24,106.93c-2.48-.25-2.79,4.73-.5,5S341.32,107.14,339.24,106.93Z" style="fill:#263238"></path><path d="M338.18,107.2c-.41.23-.83.69-1.3.69s-.91-.56-1.23-1.1c0-.06-.07,0-.08,0-.09,1,.17,2,1.07,2.2s1.49-.56,1.77-1.49C338.47,107.38,338.35,107.1,338.18,107.2Z" style="fill:#263238"></path><path d="M347.68,121.42c-.36.37-.73.87-1.29.93a4,4,0,0,1-1.66-.37c-.05,0-.1,0-.07.08a2.09,2.09,0,0,0,2,.82,1.67,1.67,0,0,0,1.2-1.39C347.85,121.4,347.73,121.37,347.68,121.42Z" style="fill:#263238"></path><path d="M341.47,115.56s-.42,2.29-.47,3.38c0,.1.26.16.63.2,0,0,0,0,0,0a5.16,5.16,0,0,0,5.11-1.71c.08-.1,0-.22-.16-.16a7.77,7.77,0,0,1-4.78,1.15c-.06-.31.85-3.94.68-3.92-.73.09-2,.35-2.49.45.24-1.5,1.13-5.71,1.56-8.43,0-.17-.24-.24-.28-.09a71.94,71.94,0,0,0-2.44,9.4C338.83,116.08,341,115.72,341.47,115.56Z" style="fill:#263238"></path><path d="M341.75,118.31a6.36,6.36,0,0,0,2.2,2.34,2.92,2.92,0,0,0,1.69.38c1.29-.13,1.5-1.26,1.43-2.27a7,7,0,0,0-.32-1.57A8.21,8.21,0,0,1,341.75,118.31Z" style="fill:#263238"></path><path d="M344,120.65a2.92,2.92,0,0,0,1.69.38c1.29-.13,1.5-1.26,1.43-2.27A3,3,0,0,0,344,120.65Z" style="fill:#ff9cbd"></path><path d="M368.69,114.41c-4.23.62-5.51-9.07-5.51-9.07s-15.4-1.34-17.22-16c0,0-4.46,10.37-15,12.49,0,0,.55-17.94,13.26-21.32,0,0,15.76-5.41,24.91,7S371.52,114,368.69,114.41Z" style="fill:#263238"></path><path d="M345.88,88.24a16,16,0,0,0,.93,6.7,16.7,16.7,0,0,0,3.52,5.87,15.58,15.58,0,0,0,1.25,1.19l.63.58c.23.18.47.34.7.51.48.32.94.66,1.42,1l1.53.79c.25.12.5.26.76.37l.81.29,1.59.58c1.1.29,2.21.51,3.31.72-1.05-.43-2.12-.75-3.14-1.19l-1.51-.7-.75-.34-.71-.43c-.46-.29-.93-.57-1.41-.85s-.87-.65-1.31-1l-.66-.49-.59-.56a10.5,10.5,0,0,1-1.16-1.15,19,19,0,0,1-3.55-5.46,20.87,20.87,0,0,1-1.07-3.12A19.05,19.05,0,0,1,345.88,88.24Z" style="fill:#263238"></path><path d="M404.8,107.38l1.43.72s-2.45,15.27-13.84,15.4c-10,.11-15.9-20.94-15.9-20.94a4.87,4.87,0,0,1-.73,3.48c-.34.35-8.05-8.39-20.27-13.22-9-3.56-21.21-3.65-21.35-3.77s9.38-14.49,16.67-16.8c9.78-3.1,23.39,2.17,27.27,5.67,12.49,11.32,11.94,40.25,16.66,40.43C400.31,118.57,404.8,107.38,404.8,107.38Z" style="fill:#455a64"></path><path d="M376.36,102.86a2.68,2.68,0,0,0-.21-1c-.11-.32-.25-.64-.39-.95q-.45-.93-1-1.83c-.66-1.22-1.38-2.4-2-3.66a18,18,0,0,1,2.46,3.42,12,12,0,0,1,.87,1.93A3.77,3.77,0,0,1,376.36,102.86Z" style="fill:#263238"></path><path d="M376.38,102.47a11.49,11.49,0,0,1-2.19-1.17,11.33,11.33,0,0,1-1.9-1.57,11.16,11.16,0,0,1,2.19,1.16A10.92,10.92,0,0,1,376.38,102.47Z" style="fill:#263238"></path><path d="M410.67,100.09c1.61,1.47,3.63,5,0,9s-7.52,1.19-8.63.19c-1-.87-3.92-4.58,0-8.89A6,6,0,0,1,410.67,100.09Z" style="fill:#ECEFF1"></path><path d="M411.85,108.51s-6.86-2.27-10.34-7.75l-1.38,1.66s4.25,6.64,10.57,7.58Z" style="fill:#ECEFF1"></path><path d="M411.85,108.51s-6.86-2.27-10.34-7.75l-1.38,1.66s4.25,6.64,10.57,7.58Z" style="opacity:0.1"></path><g style="opacity:0.1"><path d="M411.12,104c-.13-.64-1.29-4.53-5-5.34"></path><path d="M412.09,102.45c-.42-.49-3.29-3.36-6.95-2.3"></path></g><path d="M376.75,111.5s-16.69-12.09-25.64-15.31-13.32-3.3-18.67-2.85a57.75,57.75,0,0,0-.7-7.57c-.48-1.8-5.23-7.75-5.23-7.75s8.48,3.11,10.4,5.51a21.18,21.18,0,0,1,2.72,4.21s2-6.3,2.3-7.67a43.49,43.49,0,0,0,.29-5.4s5.67,7.55,6.16,9.15a33.26,33.26,0,0,1,.6,5.76s4.83-5,5.86-5.84,4.83-3.47,4.83-3.47-.05,8.16-.4,9.89a16,16,0,0,1-1.07,3.28s6.27-3.33,7.73-4,7.65-1.3,7.65-1.3-3.68,4.79-4.44,5.81a14.44,14.44,0,0,0-1.38,3.88s4.67-1.47,6.44-1.46a70.89,70.89,0,0,1,7.77,1.3s-4.11,1.9-5.51,2.78a14.65,14.65,0,0,0-2.39,1.91s5.42,2,7.55,4,2.17,8.26,2.17,8.26a31.07,31.07,0,0,0-4-3.34C378.93,110.94,376.75,111.5,376.75,111.5Z" style="fill:#ECEFF1"></path><path d="M376.75,111.5s-16.69-12.09-25.64-15.31-13.32-3.3-18.67-2.85a57.75,57.75,0,0,0-.7-7.57c-.48-1.8-5.23-7.75-5.23-7.75s8.48,3.11,10.4,5.51a21.18,21.18,0,0,1,2.72,4.21s2-6.3,2.3-7.67a43.49,43.49,0,0,0,.29-5.4s5.67,7.55,6.16,9.15a33.26,33.26,0,0,1,.6,5.76s4.83-5,5.86-5.84,4.83-3.47,4.83-3.47-.05,8.16-.4,9.89a16,16,0,0,1-1.07,3.28s6.27-3.33,7.73-4,7.65-1.3,7.65-1.3-3.68,4.79-4.44,5.81a14.44,14.44,0,0,0-1.38,3.88s4.67-1.47,6.44-1.46a70.89,70.89,0,0,1,7.77,1.3s-4.11,1.9-5.51,2.78a14.65,14.65,0,0,0-2.39,1.91s5.42,2,7.55,4,2.17,8.26,2.17,8.26a31.07,31.07,0,0,0-4-3.34C378.93,110.94,376.75,111.5,376.75,111.5Z" style="opacity:0.2"></path><path d="M323.89,74.94a2.33,2.33,0,0,1,3.49.37,2.28,2.28,0,0,1-.26,3.35,2.47,2.47,0,0,1-3.23-3.72Z" style="fill:#ECEFF1"></path><path d="M327.19,74.81a8.54,8.54,0,0,1-3.4,3.71l.59.59s2.73-1.38,3.34-3.8Z" style="fill:#ECEFF1"></path><path d="M327.19,74.81a8.54,8.54,0,0,1-3.4,3.71l.59.59s2.73-1.38,3.34-3.8Z" style="opacity:0.1"></path><g style="opacity:0.1"><path d="M325.4,74.92a2.82,2.82,0,0,0-2.26,1.73"></path><path d="M324.85,74.48a2.86,2.86,0,0,0-1.16,2.61"></path></g><path d="M342.3,70.62a2.34,2.34,0,0,1,2.34,2.62,2.26,2.26,0,0,1-2.45,2.3,2.46,2.46,0,0,1,.11-4.92Z" style="fill:#ECEFF1"></path><path d="M344.83,72.75a8.43,8.43,0,0,1-5,.45l0,.84s2.95.81,5-.56Z" style="fill:#ECEFF1"></path><path d="M344.83,72.75a8.43,8.43,0,0,1-5,.45l0,.84s2.95.81,5-.56Z" style="opacity:0.1"></path><g style="opacity:0.1"><path d="M343.44,71.63a2.8,2.8,0,0,0-2.84-.24"></path><path d="M343.33,70.94a2.78,2.78,0,0,0-2.61,1.14"></path></g><path d="M361.8,76.44a2.33,2.33,0,0,1,.67,3.44,2.27,2.27,0,0,1-3.28.73,2.46,2.46,0,0,1,2.61-4.17Z" style="fill:#ECEFF1"></path><path d="M362.89,79.56a8.54,8.54,0,0,1-4.54-2.17l-.39.74s2.12,2.2,4.61,2.08Z" style="fill:#ECEFF1"></path><path d="M362.89,79.56a8.54,8.54,0,0,1-4.54-2.17l-.39.74s2.12,2.2,4.61,2.08Z" style="opacity:0.1"></path><g style="opacity:0.1"><path d="M362.27,77.88A2.8,2.8,0,0,0,360,76.23"></path><path d="M362.52,77.23a2.8,2.8,0,0,0-2.83-.35"></path></g><path d="M377.73,86.8a2.32,2.32,0,0,1-1.84,3,2.26,2.26,0,0,1-2.9-1.69,2.46,2.46,0,0,1,4.74-1.29Z" style="fill:#ECEFF1"></path><path d="M376.42,89.83a8.46,8.46,0,0,1-1.86-4.67l-.8.27s.07,3.06,2,4.66Z" style="fill:#ECEFF1"></path><path d="M376.42,89.83a8.46,8.46,0,0,1-1.86-4.67l-.8.27s.07,3.06,2,4.66Z" style="opacity:0.1"></path><g style="opacity:0.1"><path d="M377.1,88.17a2.8,2.8,0,0,0-.58-2.78"></path><path d="M377.73,87.87a2.8,2.8,0,0,0-1.84-2.18"></path></g><path d="M386.23,97.83a2.34,2.34,0,0,1-2.75,2.19,2.27,2.27,0,0,1-2.16-2.57,2.46,2.46,0,0,1,4.91.38Z" style="fill:#ECEFF1"></path><path d="M384,100.24a8.48,8.48,0,0,1-.17-5l-.84,0s-1,2.91.28,5.06Z" style="fill:#ECEFF1"></path><path d="M384,100.24a8.48,8.48,0,0,1-.17-5l-.84,0s-1,2.91.28,5.06Z" style="opacity:0.1"></path><g style="opacity:0.1"><path d="M385.16,98.91a2.79,2.79,0,0,0,.4-2.82"></path><path d="M385.86,98.84a2.83,2.83,0,0,0-1-2.67"></path></g><path d="M384.11,118.93a2.32,2.32,0,0,1-2.57-2.38,2.26,2.26,0,0,1,2.22-2.52,2.46,2.46,0,0,1,.35,4.9Z" style="fill:#ECEFF1"></path><path d="M381.39,117.06a8.5,8.5,0,0,1,4.94-.93l-.11-.83s-3-.53-5,1Z" style="fill:#ECEFF1"></path><path d="M381.39,117.06a8.5,8.5,0,0,1,4.94-.93l-.11-.83s-3-.53-5,1Z" style="opacity:0.1"></path><g style="opacity:0.1"><path d="M382.89,118a2.78,2.78,0,0,0,2.84,0"></path><path d="M383.07,118.72a2.82,2.82,0,0,0,2.49-1.38"></path></g><path d="M366.56,113.73s6.71-8,10.05-6.53c2.42,1.09-.42,13.3-6.43,14.77-3.91,1-5.07-2.23-5.07-2.23Z" style="fill:#ffc4c0"></path><path d="M373.66,111.55a.05.05,0,0,1,0,.1c-2.67,1-4.14,3.4-5.2,5.91a2.12,2.12,0,0,1,3.19-.48c.06,0,0,.16-.08.14A2.36,2.36,0,0,0,369,118a11.39,11.39,0,0,0-1.31,2.06c-.13.24-.56.1-.46-.17l0-.06C367.26,116.41,370,111.77,373.66,111.55Z" style="fill:#263238"></path></g><g id="freepik--character-1--inject-647"><path d="M160.19,443c2.39.08,2.79-6.75,1.13-9.53a66.11,66.11,0,0,0-5.66-6.32c-6.32-6.56-15.54-15.62-15.54-15.62l15-40.29-39-13.88s-7.34,16.43-12.93,32.39c-.86,2.46-1.69,4.88-2.5,7.23l-.15.44c-3.61,10.7-6.3,19.56-5.64,20.43C96.65,420.16,157.79,442.89,160.19,443Z" style="fill:#455a64"></path><path d="M97,400.3c-3.76,9.85-5.74,16.93-5.11,17.82,1.91,2.78,71.33,28.56,74.06,28.77s24.94-9.76,26-14.27c.28-1.21.67-2.47-2-2.71-1.63-.14-13.12,5.34-20.22,2.71-6.37-2.36-25.39-22.54-25.39-22.54l5.62-14.16,7.85-7L104.79,369.8s-.45,8.7-.7,9.53C101.78,387.24,97.4,399.18,97,400.3Z" style="fill:#37474f"></path><path d="M188.1,433.46c-8-5.59.69-18,8.69-12.4S196.1,439.07,188.1,433.46Z" style="fill:#ECEFF1"></path><path d="M196.32,426.16a13.71,13.71,0,0,0-3.2-2.85l-.18.33c-.63,1.21-1.1,2.49-1.66,3.73-.09.2-.45.23-.46,0a9.38,9.38,0,0,1,1-4.46,8,8,0,0,0-3.41.17c-.25.06-.39-.3-.2-.46a4.83,4.83,0,0,1,4.3-.83,4.9,4.9,0,0,1,1.86-1.58.27.27,0,0,1,.37.33,7.78,7.78,0,0,1-.94,1.72,5.56,5.56,0,0,1,3.08,3.67C197,426.25,196.54,426.38,196.32,426.16Z" style="fill:#020200;opacity:0.1"></path><path d="M148,394.88c-3.6-1-7.16-2.18-10.71-3.33s-7.1-2.37-10.63-3.59-7-2.48-10.55-3.8l-5.24-2c-1.74-.69-3.49-1.35-5.21-2.08,1.8.51,3.58,1.08,5.37,1.62l5.34,1.72c3.56,1.14,7.09,2.36,10.62,3.58s7,2.49,10.55,3.8S144.51,393.45,148,394.88Z" style="fill:#263238"></path><path d="M151.41,442c-21.2-7.68-58.17-21.82-59.55-23.84-.64-.89,1.35-8,5.11-17.82.43-1.12,4.81-13.06,7.12-21,.24-.83.69-9.54.69-9.54l12.83,4.63Z" style="opacity:0.1"></path><path d="M110.79,369.8l39.49,14.61s19.28-42.73,17.37-54.7c-3.58-22.4-25.21-83.17-25.21-83.17H97.5s23.93,66.71,25.51,82.84C123.5,334.37,110.79,369.8,110.79,369.8Z" style="fill:#c7c7c7"></path><path d="M144.64,453.74c2.28-.73.32-7.29-2.19-9.33a65.26,65.26,0,0,0-7.47-4C126.8,436.38,115,431,115,431l.33-43-41.4.26s-1.29,17.94-1.1,34.86c0,2.6.07,5.16.12,7.65v.46c.26,11.29.74,20.54,1.67,21.13C77.14,454,142.36,454.49,144.64,453.74Z" style="fill:#455a64"></path><path d="M70.66,435.2c-.17,10.55.38,17.88,1.28,18.5,2.74,2,76.79,2.51,79.43,1.77s20.11-17.68,19.55-22.27c-.15-1.23-.21-2.56-2.82-1.86-1.58.42-10.52,9.5-18.08,9.45-6.8-.05-31.56-12.53-31.56-12.53l.45-15.23,5-9.29-56.29.12s2.55,8.34,2.6,9.2C70.73,421.29,70.68,434,70.66,435.2Z" style="fill:#37474f"></path><path d="M167.64,435.29c-9.42-2.53-5.5-17.17,3.93-14.63S177.06,437.83,167.64,435.29Z" style="fill:#ECEFF1"></path><path d="M172.87,425.62a13.76,13.76,0,0,0-4-1.59l-.06.38c-.17,1.35-.18,2.71-.28,4.07,0,.21-.35.37-.45.12a9.31,9.31,0,0,1-.55-4.54,8.1,8.1,0,0,0-3.15,1.31c-.22.14-.47-.14-.35-.35a4.83,4.83,0,0,1,3.76-2.26,4.86,4.86,0,0,1,1.22-2.12.27.27,0,0,1,.45.19,7.53,7.53,0,0,1-.3,1.93,5.56,5.56,0,0,1,4.15,2.4C173.53,425.47,173.15,425.75,172.87,425.62Z" style="fill:#020200;opacity:0.1"></path><path d="M116.75,412.71c-3.74.25-7.47.4-11.21.52s-7.47.2-11.21.26-7.47.07-11.21,0l-5.61-.07c-1.87-.06-3.73-.08-5.6-.17,1.86-.14,3.73-.21,5.6-.32l5.6-.21c3.74-.13,7.47-.19,11.21-.25s7.47-.07,11.21,0S113,412.55,116.75,412.71Z" style="fill:#263238"></path><path d="M72.84,402.11h42.52s2.2-31.3,3.85-48.44c1.75-18.23,4.54-75.21,4.54-75.21l6-2c6.39-4,12-24.27,12.69-29.94H83.12s-8.65,24.7-4,40c0,0-.71,53.56-1.68,63.19C75.59,367.8,72.84,402.11,72.84,402.11Z" style="fill:#c7c7c7"></path><path d="M130.24,276a102.39,102.39,0,0,0-13.82,5c-.17.08-.06.28.13.22,4.65-1.54,9.4-3,13.94-4.74C130.84,276.32,130.6,275.93,130.24,276Z" style="fill:#263238"></path><path d="M131.72,251.43c0-.12-.3-.15-.3,0a91.18,91.18,0,0,1-.78,12c-.21,1.85-2.14,12.05-6.3,11.31-.7-.13-1-.66-1.16-1.46a10.06,10.06,0,0,1,.55-3.13,64.53,64.53,0,0,0,1.07-6.44,44.76,44.76,0,0,0-.17-12.07c0-.13-.27-.12-.27,0a85.62,85.62,0,0,1-1.26,16.67c-.52,2.65-2.26,6.64,1.35,7.05s6-6.27,6.49-8.1A47.44,47.44,0,0,0,131.72,251.43Z" style="fill:#263238"></path><path d="M124.45,275a13.65,13.65,0,0,0-.93,2.12,3.67,3.67,0,0,0-.39,1.73c0,.12.21.13.28.05a5.42,5.42,0,0,0,1-1.69c.32-.65.65-1.3.94-2C125.52,274.78,124.68,274.55,124.45,275Z" style="fill:#263238"></path><path d="M88.23,267.8c4.14-.55,8.55-1.08,11.38-4.53a15.5,15.5,0,0,0,2.73-5.46c.66-2.23.9-4.56,1.55-6.78a.08.08,0,0,1,.16,0,22.1,22.1,0,0,1-.87,7.45,14.56,14.56,0,0,1-2.9,5.55c-3,3.46-7.68,4-12,3.95C88.14,268,88.11,267.82,88.23,267.8Z" style="fill:#263238"></path><path d="M115.36,402.11l2.4-30.9c.81-10.29,1.68-20.59,2.39-30.89.41-5.15.67-10.29.93-15.45l.83-15.48.88-15.47,1-15.46-.59,15.48-.67,15.48-.73,15.48c-.24,5.15-.47,10.33-.86,15.48q-1.16,15.45-2.56,30.88l-1.44,15.43Z" style="fill:#263238"></path><path d="M126.76,185.39c1.33,9.75,8,45.52,18.15,54.56,6.86,6.09,39.24,8.31,47.42,7,3.34-.54,2-26.51-1.48-27.57-3.77-1.15-28.75,0-31-1.48s-14.4-22.75-22.77-34C132.07,177.21,126,179.9,126.76,185.39Z" style="fill:#f7a9a0"></path><path d="M182.87,247.27c5.88,1,26.43-.49,30.42-1.69s15.19-5.48,14.58-8.62-4-2.15-4-2.15,4.91-2.73,3.54-5.67c-1.08-2.34-5.92-1.2-5.92-1.2s5.23-3.27,3.5-6c-1.57-2.49-6.47,0-6.47,0s4.09-3.18,2.12-5.29c-2.38-2.54-9.46,3-14,4-1,.22-26-1.84-26-1.84Z" style="fill:#f7a9a0"></path><path d="M218.56,221.71c-5.73,3.58-8.2,4.9-14.67,5.51-.12,0-.13.21,0,.21,6.38,0,9.43-1.38,14.87-5.48C219,221.75,218.82,221.54,218.56,221.71Z" style="fill:#263238"></path><path d="M221.45,227.91c-5.78,3.71-9,4.51-15.71,5.66-.1,0-.08.18,0,.17,6.69-.57,10.56-1.2,15.86-5.68C221.86,227.86,221.72,227.74,221.45,227.91Z" style="fill:#263238"></path><path d="M223.54,234.87c-5.86,3.19-9.35,4.4-16,4.67a.13.13,0,0,0,0,.25c6.83.38,11.19-1.1,16.1-4.74C224,234.81,223.91,234.66,223.54,234.87Z" style="fill:#263238"></path><path d="M180.74,218.81s7.56-2,11.11-3.13S205,210,207.58,211.8c2.95,2-4,8.7-10.34,10.76,0,0,.23,10.89-5.73,13.15-1.29.49-8.4.23-9.57-.83Z" style="fill:#f7a9a0"></path><path d="M196.67,223c.24,4.23-1.08,9.67-4.52,12.12a.09.09,0,1,0,.09.16c4.06-2.12,5.65-8.4,5.2-12.17C197.35,222.39,196.61,221.9,196.67,223Z" style="fill:#263238"></path><path d="M180.74,218.81l2.13,32.59s-33.91-5.27-39.41-11.72-15-35.13-16.79-51.47,9.45-6.6,11.2-4.11,21.89,32.48,22.9,33.05S180.74,218.81,180.74,218.81Z" style="fill:#455a64"></path><path d="M162.56,248.23c-8.45-1.71-16.85-4.07-19.35-7-5.5-6.45-14.78-36.69-16.53-53-.67-6.24.55-8.68,2.41-9.16Z" style="opacity:0.1"></path><polygon points="180.7 218.65 182.87 251.4 168.66 256.43 175.67 246.42 163.77 242.09 174.18 234.17 163.86 227.3 174.56 222.78 169.04 214.24 180.7 218.65" style="fill:#ECEFF1"></polygon><path d="M71.33,288.23s33.09-.84,57-1.68l3-12.1,6.3,11.5,18-.64c.07-.12-9-35.45-9.46-37.94-5.16-26.63-8.54-57.83-12.32-65.82-2.35-5-10.63-8.6-18.62-2.67C93.56,195,70.53,273.53,71.33,288.23Z" style="fill:#455a64"></path><polygon points="149.81 257.25 75.78 259.04 79.44 245.54 146.39 243.75 149.81 257.25" style="fill:#263238"></polygon><path d="M116.68,261.47,116,241.61l26.84-.87.65,19.86Zm3.48-16,.39,11.86,18.85-.61L139,244.87Z" style="fill:#ECEFF1"></path><path d="M135.14,230.45a4,4,0,1,1-3.95-4.43A4.21,4.21,0,0,1,135.14,230.45Z" style="fill:#ECEFF1"></path><path d="M135.14,230.45a4,4,0,1,1-3.95-4.43A4.21,4.21,0,0,1,135.14,230.45Z" style="fill:#020200;opacity:0.1"></path><path d="M135.29,230.45c0,2.45-1.53,4.43-3.41,4.43s-3.41-2-3.41-4.43S130,226,131.88,226,135.29,228,135.29,230.45Z" style="fill:#ECEFF1"></path><path d="M133.92,213.07a4,4,0,1,1-3.94-4.43A4.21,4.21,0,0,1,133.92,213.07Z" style="fill:#ECEFF1"></path><path d="M133.92,213.07a4,4,0,1,1-3.94-4.43A4.21,4.21,0,0,1,133.92,213.07Z" style="fill:#020200;opacity:0.1"></path><path d="M134.07,213.07c0,2.45-1.53,4.43-3.41,4.43s-3.41-2-3.41-4.43,1.53-4.43,3.41-4.43S134.07,210.63,134.07,213.07Z" style="fill:#ECEFF1"></path><path d="M132.7,195.7a4,4,0,1,1-3.94-4.44A4.21,4.21,0,0,1,132.7,195.7Z" style="fill:#ECEFF1"></path><path d="M132.7,195.7a4,4,0,1,1-3.94-4.44A4.21,4.21,0,0,1,132.7,195.7Z" style="fill:#020200;opacity:0.1"></path><path d="M132.85,195.7c0,2.44-1.53,4.43-3.41,4.43s-3.41-2-3.41-4.43,1.53-4.44,3.41-4.44S132.85,193.25,132.85,195.7Z" style="fill:#ECEFF1"></path><path d="M118.84,177.91c.41,1.2,7,8.57,12.59,7.76,1.81-.26.8-10.22.8-10.22l.09-.75,1.3-10.53-14.71-7.44S118.68,177.41,118.84,177.91Z" style="fill:#f7a9a0"></path><path d="M133.62,164.18l-1.3,10.52-.09.76s.18,1.8.25,3.89c-7.73-.39-11.78-5.78-13.68-9.58,0-6,.11-13,.11-13Z" style="fill:#263238"></path><path d="M150,146.23c5.37,22.08-7.25,27.79-12,28.94-4.33,1.05-19.18,4.06-26.8-17.35s1-30.89,10.71-33.8S144.65,124.15,150,146.23Z" style="fill:#f7a9a0"></path><path d="M143.33,148.63c2.47-.48,3.26,4.5,1,5S141.26,149,143.33,148.63Z" style="fill:#263238"></path><path d="M131.4,151.54c-2.49.39-1.53,5.34.78,5S133.49,151.21,131.4,151.54Z" style="fill:#263238"></path><path d="M144.43,145.22a13.82,13.82,0,0,1-1.57-.06,2.48,2.48,0,0,1-1.58-.37.81.81,0,0,1-.17-1A2,2,0,0,1,143,143a3,3,0,0,1,2,.71A.86.86,0,0,1,144.43,145.22Z" style="fill:#263238"></path><path d="M129.6,150a14.31,14.31,0,0,0,1.46-.58,2.55,2.55,0,0,0,1.38-.87.8.8,0,0,0-.17-1,2,2,0,0,0-2-.13,2.89,2.89,0,0,0-1.64,1.33A.86.86,0,0,0,129.6,150Z" style="fill:#263238"></path><path d="M136.23,164.56c.41.32.83.77,1.4.76a3.94,3.94,0,0,0,1.61-.57.06.06,0,0,1,.07.08,2.07,2.07,0,0,1-1.86,1,1.64,1.64,0,0,1-1.36-1.23C136.06,164.56,136.17,164.51,136.23,164.56Z" style="fill:#263238"></path><path d="M141.81,160.88a6.39,6.39,0,0,1-1.9,2.59,2.92,2.92,0,0,1-1.64.59c-1.29,0-1.64-1.07-1.69-2.08a6.56,6.56,0,0,1,.12-1.6A8.21,8.21,0,0,0,141.81,160.88Z" style="fill:#fff"></path><path d="M141,162.32l-.2.26a5.63,5.63,0,0,1-1.23,0Z" style="fill:#dbdbdb"></path><path d="M138.31,162.48a4.4,4.4,0,0,1-.95-.11,4.45,4.45,0,0,1-.77-.28s0-.07,0-.11,0-.11,0-.17A15.68,15.68,0,0,0,138.31,162.48Z" style="fill:#dbdbdb"></path><path d="M141.7,158s.69,2.23.87,3.3c0,.1-.23.19-.6.28h0a5.15,5.15,0,0,1-5.28-1.08c-.09-.09,0-.23.14-.18a7.79,7.79,0,0,0,4.89.57c0-.31-1.32-3.82-1.15-3.82.73,0,2.05.11,2.53.15-.41-1.46-1.81-5.54-2.56-8.19-.05-.17.2-.27.27-.12a74.46,74.46,0,0,1,3.55,9C144.39,158.18,142.16,158.09,141.7,158Z" style="fill:#263238"></path><path d="M109,159.81c6.76.07,9.8-8.16,7.84-14.52,0,0,18,1.32,18-13.09a14.13,14.13,0,0,0,12,5.76l2.31,5.17c1.81-.64,3.45-6-1.28-9.79,0,0-.73-7.14-6.26-11.13a9.81,9.81,0,0,0-10.61-.85,14.83,14.83,0,0,0-10.94-2c-6.55,1.23-8.9,7.4-8.9,7.4s-8.76,2.22-9.9,8.6a13.09,13.09,0,0,0,2.36,10.42s-2.07,2.6-.63,7.9C104,157.08,107,159.79,109,159.81Z" style="fill:#263238"></path><path d="M134.43,130.94a17.29,17.29,0,0,1,.25,3.51,14.53,14.53,0,0,1-.45,3.43,9.08,9.08,0,0,1-3.84,5.4c-1.86,1.35-4.23,1.69-6.5,2-1.16,0-2.33.15-3.5.12s-2.34-.12-3.53-.15c1.16.21,2.34.37,3.51.56s2.38.07,3.57.11a14.42,14.42,0,0,0,6.91-2,9.52,9.52,0,0,0,4-5.94A14.41,14.41,0,0,0,134.43,130.94Z" style="fill:#263238"></path><path d="M111.23,126.74a16.62,16.62,0,0,0-6.51,1.82,10,10,0,0,0-4.73,4.95,11.19,11.19,0,0,0-.65,3.41,10.26,10.26,0,0,0,.38,3.44,9.31,9.31,0,0,0,4,5.4,10.18,10.18,0,0,1-3.35-5.56,11.38,11.38,0,0,1,.42-6.39,8.66,8.66,0,0,1,1.71-2.69,13.16,13.16,0,0,1,2.56-2A21,21,0,0,1,111.23,126.74Z" style="fill:#263238"></path><path d="M131.07,121.36a17,17,0,0,1,5.2-1.33,9.56,9.56,0,0,1,9,4.19,18.31,18.31,0,0,1,2.43,4.79,13.67,13.67,0,0,0-1.9-5.15,9.23,9.23,0,0,0-9.66-4.46A12.88,12.88,0,0,0,131.07,121.36Z" style="fill:#263238"></path><path d="M144.14,138.7a18.65,18.65,0,0,1-5.6-2.6,11.41,11.41,0,0,1-2.22-2.06,13.31,13.31,0,0,1-1.66-2.63,7.53,7.53,0,0,0,1.14,3,8.33,8.33,0,0,0,2.26,2.36,10.27,10.27,0,0,0,2.91,1.44A9.54,9.54,0,0,0,144.14,138.7Z" style="fill:#263238"></path><path d="M76.74,149.66l-2.48.08s-.1,15,11.27,15.68c10,.59,16.87-20.16,16.87-20.16a4.88,4.88,0,0,0,.57,3.52c.32.37,8.44-8,20.88-12.25,9.16-3.12,22.46-6,22.6-6.08s-12-15.73-19.18-18.38c-9.61-3.57-26.28,6.54-29,11-8.24,13.7-10.14,37.12-14.87,37.08C77.85,160.13,76.74,149.66,76.74,149.66Z" style="fill:#455a64"></path><path d="M102.52,145.57a3.79,3.79,0,0,1,.35-2.09,11.88,11.88,0,0,1,1-1.88,18.19,18.19,0,0,1,2.62-3.3c-.69,1.23-1.47,2.38-2.19,3.56-.36.58-.72,1.18-1,1.78-.16.31-.31.62-.44.93A2.9,2.9,0,0,0,102.52,145.57Z" style="fill:#263238"></path><path d="M102.52,145.18a10.81,10.81,0,0,1,2-1.49,11.24,11.24,0,0,1,2.24-1.06,11.41,11.41,0,0,1-2,1.49A11.79,11.79,0,0,1,102.52,145.18Z" style="fill:#263238"></path><path d="M76.1,138.27c-2.18-.11-6.11.94-6.4,6.37s4.44,6.19,5.94,6.27c1.29.08,6-.43,6.29-6.27A6,6,0,0,0,76.1,138.27Z" style="fill:#ECEFF1"></path><path d="M69.28,143.35s6.44,3.29,12.78,1.91l-.21,2.15s-7.71,1.64-12.82-2.2Z" style="fill:#ECEFF1"></path><path d="M69.28,143.35s6.44,3.29,12.78,1.91l-.21,2.15s-7.71,1.64-12.82-2.2Z" style="opacity:0.1"></path><g style="opacity:0.1"><path d="M73,140.67c.55-.35,4.13-2.25,7.33-.18"></path><path d="M73.42,138.92c.65,0,4.71,0,6.53,3.32"></path></g><path d="M105.47,154.52s16-13,24.71-16.76,13.11-4.07,18.47-3.92a60.69,60.69,0,0,1,.26-7.6c.38-1.82,4.79-8,4.79-8s-8.29,3.59-10.08,6.11a21.32,21.32,0,0,0-2.47,4.36s-2.36-6.18-2.73-7.53a43.61,43.61,0,0,1-.61-5.37s-5.22,7.86-5.61,9.48a33.1,33.1,0,0,0-.27,5.79s-5.11-4.68-6.19-5.49-5-3.19-5-3.19.52,8.14,1,9.85a16,16,0,0,0,1.26,3.22s-6.44-3-8-3.54-7.71-.87-7.71-.87,4,4.57,4.77,5.55a14.43,14.43,0,0,1,1.6,3.8s-4.74-1.21-6.51-1.09A73.37,73.37,0,0,0,99.46,141s4.21,1.66,5.66,2.47a13.89,13.89,0,0,1,2.49,1.77s-5.29,2.31-7.3,4.47-1.69,8.37-1.69,8.37a31.34,31.34,0,0,1,3.75-3.56C103.25,154.09,105.47,154.52,105.47,154.52Z" style="fill:#ECEFF1"></path><path d="M105.47,154.52s16-13,24.71-16.76,13.11-4.07,18.47-3.92a60.69,60.69,0,0,1,.26-7.6c.38-1.82,4.79-8,4.79-8s-8.29,3.59-10.08,6.11a21.32,21.32,0,0,0-2.47,4.36s-2.36-6.18-2.73-7.53a43.61,43.61,0,0,1-.61-5.37s-5.22,7.86-5.61,9.48a33.1,33.1,0,0,0-.27,5.79s-5.11-4.68-6.19-5.49-5-3.19-5-3.19.52,8.14,1,9.85a16,16,0,0,0,1.26,3.22s-6.44-3-8-3.54-7.71-.87-7.71-.87,4,4.57,4.77,5.55a14.43,14.43,0,0,1,1.6,3.8s-4.74-1.21-6.51-1.09A73.37,73.37,0,0,0,99.46,141s4.21,1.66,5.66,2.47a13.89,13.89,0,0,1,2.49,1.77s-5.29,2.31-7.3,4.47-1.69,8.37-1.69,8.37a31.34,31.34,0,0,1,3.75-3.56C103.25,154.09,105.47,154.52,105.47,154.52Z" style="opacity:0.2"></path><path d="M156.14,115a2.33,2.33,0,0,0-3.47.57,2.26,2.26,0,0,0,.46,3.32,2.46,2.46,0,0,0,3-3.89Z" style="fill:#ECEFF1"></path><path d="M152.83,115a8.44,8.44,0,0,0,3.61,3.5l-.56.63s-2.8-1.22-3.55-3.6Z" style="fill:#ECEFF1"></path><path d="M152.83,115a8.44,8.44,0,0,0,3.61,3.5l-.56.63s-2.8-1.22-3.55-3.6Z" style="opacity:0.1"></path><g style="opacity:0.1"><path d="M154.62,115a2.84,2.84,0,0,1,2.36,1.61"></path><path d="M155.14,114.58a2.78,2.78,0,0,1,1.31,2.53"></path></g><path d="M137.5,111.73a2.33,2.33,0,0,0-2.18,2.75,2.28,2.28,0,0,0,2.58,2.16,2.47,2.47,0,0,0-.4-4.91Z" style="fill:#ECEFF1"></path><path d="M135.1,114a8.45,8.45,0,0,0,5,.16l0,.84s-2.9,1-5-.27Z" style="fill:#ECEFF1"></path><path d="M135.1,114a8.45,8.45,0,0,0,5,.16l0,.84s-2.9,1-5-.27Z" style="opacity:0.1"></path><g style="opacity:0.1"><path d="M136.42,112.8a2.81,2.81,0,0,1,2.82-.4"></path><path d="M136.5,112.1a2.8,2.8,0,0,1,2.67,1"></path></g><path d="M118.37,118.65a2.33,2.33,0,0,0-.47,3.48,2.26,2.26,0,0,0,3.31.54,2.46,2.46,0,0,0-2.84-4Z" style="fill:#ECEFF1"></path><path d="M117.46,121.83a8.48,8.48,0,0,0,4.41-2.42l.44.71s-2,2.33-4.49,2.35Z" style="fill:#ECEFF1"></path><path d="M117.46,121.83a8.48,8.48,0,0,0,4.41-2.42l.44.71s-2,2.33-4.49,2.35Z" style="opacity:0.1"></path><g style="opacity:0.1"><path d="M118,120.12a2.79,2.79,0,0,1,2.22-1.78"></path><path d="M117.7,119.49a2.8,2.8,0,0,1,2.8-.52"></path></g><path d="M103.06,129.92a2.32,2.32,0,0,0,2,2.87,2.27,2.27,0,0,0,2.8-1.85,2.46,2.46,0,0,0-4.81-1Z" style="fill:#ECEFF1"></path><path d="M104.55,132.87a8.49,8.49,0,0,0,1.59-4.77l.8.22s.12,3.06-1.69,4.77Z" style="fill:#ECEFF1"></path><path d="M104.55,132.87a8.49,8.49,0,0,0,1.59-4.77l.8.22s.12,3.06-1.69,4.77Z" style="opacity:0.1"></path><g style="opacity:0.1"><path d="M103.77,131.25a2.83,2.83,0,0,1,.42-2.81"></path><path d="M103.13,131a2.81,2.81,0,0,1,1.71-2.28"></path></g><path d="M95.22,141.42a2.33,2.33,0,0,0,2.86,2,2.27,2.27,0,0,0,2-2.69,2.46,2.46,0,0,0-4.87.66Z" style="fill:#ECEFF1"></path><path d="M97.61,143.69a8.41,8.41,0,0,0-.11-5l.84-.06s1.14,2.84,0,5.06Z" style="fill:#ECEFF1"></path><path d="M97.61,143.69a8.41,8.41,0,0,0-.11-5l.84-.06s1.14,2.84,0,5.06Z" style="opacity:0.1"></path><g style="opacity:0.1"><path d="M96.34,142.44a2.8,2.8,0,0,1-.55-2.8"></path><path d="M95.64,142.4a2.81,2.81,0,0,1,.84-2.72"></path></g><path d="M98.54,162.37a2.33,2.33,0,0,0,2.43-2.53,2.28,2.28,0,0,0-2.36-2.4,2.47,2.47,0,0,0-.07,4.93Z" style="fill:#ECEFF1"></path><path d="M101.15,160.34a8.44,8.44,0,0,0-5-.64l.07-.84s3-.7,5,.75Z" style="fill:#ECEFF1"></path><path d="M101.15,160.34a8.44,8.44,0,0,0-5-.64l.07-.84s3-.7,5,.75Z" style="opacity:0.1"></path><g style="opacity:0.1"><path d="M99.71,161.41a2.8,2.8,0,0,1-2.84.13"></path><path d="M99.57,162.09A2.8,2.8,0,0,1,97,160.85"></path></g><path d="M115.94,158.82s-6.9-7.87-10.21-6.28c-2.38,1.14.73,13.28,6.78,14.61,3.93.86,5-2.35,5-2.35Z" style="fill:#f7a9a0"></path><path d="M108.79,156.81c-.06,0-.07.09,0,.1,2.71.93,4.23,3.3,5.34,5.79a2.11,2.11,0,0,0-3.19-.41.08.08,0,0,0,.08.14,2.37,2.37,0,0,1,2.64.68,11.55,11.55,0,0,1,1.35,2c.14.23.56.08.46-.19l0,0C115.3,161.52,112.42,157,108.79,156.81Z" style="fill:#263238"></path><path d="M117.85,177.27v-5.68s10.3,5.55,10.91,5.94,1.9,5.61,1.9,5.61.22-4.93.55-5.26a12.27,12.27,0,0,1,1.64-1s1.07,8.86-1.25,9.36S121.84,184.19,117.85,177.27Z" style="fill:#c7c7c7"></path><path d="M162.37,191.34a6.67,6.67,0,0,0,1.47,3.17,5.76,5.76,0,0,1,0-.7,7,7,0,0,1,.11-.74,13.7,13.7,0,0,1,2-4.76l.33-.49a.47.47,0,0,1,.09-.12h0l.16-.23c8.82-14.48,21.35,5.73,21.62,6.19h0s-2-21.42-13.47-20.63C165.79,173.66,161.05,184.8,162.37,191.34Z" style="fill:#455a64"></path><path d="M163.84,194.51a4,4,0,0,0,1,.87c5.94,3.51,22.29-1.39,23.31-1.69l0,0c-15.51,3.42-20.51-1.77-21.78-6a.47.47,0,0,0-.09.12l-.33.49a13.9,13.9,0,0,0-2,4.76c-.05.26-.08.5-.11.74A5.76,5.76,0,0,0,163.84,194.51Z" style="fill:#263238"></path><path d="M213.5,187.59a6.77,6.77,0,0,1-1,3.35c0-.22-.1-.45-.16-.68a7.17,7.17,0,0,0-.22-.71,13.8,13.8,0,0,0-2.71-4.42l-.39-.43-.11-.11h0a1.8,1.8,0,0,1-.19-.2c-10.84-13-20.29,8.78-20.49,9.28h0s-1.12-21.49,10.33-22.38C207.54,170.6,213.86,180.93,213.5,187.59Z" style="fill:#455a64"></path><path d="M212.52,190.94a4.48,4.48,0,0,1-.92,1c-5.37,4.33-22.26,1.88-23.31,1.72h0c15.85,1.12,20-4.74,20.69-9.08l.11.11.39.43a13.8,13.8,0,0,1,2.71,4.42,7.17,7.17,0,0,1,.22.71C212.42,190.49,212.48,190.72,212.52,190.94Z" style="fill:#263238"></path><polygon points="215.46 258.68 160.67 258.68 159.72 197.37 211.85 195.5 215.46 258.68" style="fill:#ECEFF1"></polygon><polygon points="215.46 258.68 160.67 258.68 159.72 197.37 211.85 195.5 215.46 258.68" style="fill:#fff;opacity:0.6000000000000001"></polygon><polygon points="230.22 258.68 210.65 258.68 210.44 195.5 228.13 198.81 230.22 258.68" style="fill:#ECEFF1"></polygon><polygon points="156.69 195.67 156.69 210.58 210.44 208.74 210.44 191.67 156.69 195.67" style="fill:#ECEFF1"></polygon><polygon points="156.69 195.67 156.69 210.58 210.44 208.74 210.44 191.67 156.69 195.67" style="fill:#fff;opacity:0.4"></polygon><polygon points="230.66 210.58 210.44 208.74 210.44 191.67 231.81 195.67 230.66 210.58" style="fill:#ECEFF1"></polygon><polygon points="230.66 210.58 210.44 208.74 210.44 191.67 231.81 195.67 230.66 210.58" style="opacity:0.1"></polygon><polygon points="174.01 194.38 174.54 258.68 188.79 258.68 189.02 193.26 174.01 194.38" style="fill:#455a64"></polygon><polygon points="218.96 193.26 224.32 194.26 224.32 258.68 219.84 258.68 218.96 193.26" style="fill:#455a64"></polygon><path d="M107,193.92c-5,19.51-3,61.91,3.5,67.87,10,9.2,50.31-7.71,58.41-10.5,3.45-1.19-10.75-28.47-14.47-27.28-3.23,1.05-23.12,11.82-25.3,9.88-.9-.8-4-18.68-10.4-37.18C113.79,182.53,108.44,188.15,107,193.92Z" style="fill:#f7a9a0"></path><path d="M148,226.93s3.38-1.21,10.4-6.46c5.49-4.1,21.24-9.92,37.83-.16,6.36,3.74,6.51,9.84-.78,7.12-5.14-1.91-8.53-3.67-10.39-3.82,0,0,4.34,7.18,2.4,11.64a90.75,90.75,0,0,1-5.91,11.29,19.75,19.75,0,0,1-2.21-.92,10.23,10.23,0,0,1-9.5,5.32l-7,2.66Z" style="fill:#f7a9a0"></path><path d="M164.22,218.44c3.58.18,11.17.7,17.24,3.29,6.73,2.87,18.93,10.21,16.76,15.16-1.59,3.63-6.5,1.24-6.5,1.24s4.4,4.1,2.25,7.06c-2,2.7-5.65.62-5.65.62s2.25,2.95-.15,5.18c-2.88,2.69-7.1-3.92-12.37-3.72C174.61,247.32,164.22,218.44,164.22,218.44Z" style="fill:#f7a9a0"></path><path d="M177.24,228.33A29.23,29.23,0,0,1,191.71,238c.09.13,0,.26-.06.16a71.92,71.92,0,0,0-14.44-9.73S177.2,228.33,177.24,228.33Z" style="fill:#263238"></path><path d="M174.53,235.22c2.82.92,10.05,5,13.88,10.48.08.13,0,.26-.07.16a76.42,76.42,0,0,0-13.84-10.58S174.5,235.2,174.53,235.22Z" style="fill:#263238"></path><path d="M148,226.93,163.43,257s-48.61,16.79-55,8.65-6.38-52.85-3-68.22,8.26-15.31,14.3-.61,9.93,36.3,10.23,36.52S148,226.93,148,226.93Z" style="fill:#455a64"></path><path d="M124.63,206.12c.19,1.51.29,3,.36,4.56,0,.69.07,1.38.11,2.07-.87-3.24-1.78-6.48-2.77-9.69,0-.1-.2-.05-.18.05,1,5.22,2.19,10.41,3.47,15.57s2.31,10.25,4.19,15.14c.05.14.26.06.24-.08-.66-5.26-2.2-10.42-3.5-15.55-.32-1.26-.67-2.51-1-3.76,0-.51.07-1,.07-1.52a19,19,0,0,0-.11-2.26c-.15-1.54-.41-3-.71-4.56A.09.09,0,0,0,124.63,206.12Z" style="fill:#263238"></path><path d="M148,226.93c-2.22,1-4.47,1.94-6.73,2.85s-4.53,1.76-6.81,2.61-4.57,1.65-6.87,2.42L124.13,236l-3.48,1.1c2.17-1.11,4.42-2,6.67-3s4.52-1.79,6.8-2.64,4.57-1.65,6.89-2.39S145.64,227.56,148,226.93Z" style="fill:#263238"></path><polygon points="148 226.93 163.44 257.02 152.9 266.28 155.07 254.25 142.44 255.31 148.58 243.75 136.33 241.84 144.15 233.25 135.56 227.81 148 226.93" style="fill:#ECEFF1"></polygon><path d="M103.8,210.25c-.1,4.11-.19,8.21-.19,12.31s0,8.21.11,12.3.26,8.19.58,12.27c.17,2,.36,4.08.64,6.1a54.61,54.61,0,0,0,1.09,6,16.09,16.09,0,0,0,2.19,5.49c1.16,1.46,3.21,2,5.15,2.36a46.24,46.24,0,0,0,12.14-.36c4-.55,8.07-1.35,12.07-2.27s8-2,11.92-3.06a150.64,150.64,0,0,1-23.88,6.09,59.92,59.92,0,0,1-6.15.68,30.94,30.94,0,0,1-6.23-.18,13.6,13.6,0,0,1-3.09-.78,6.55,6.55,0,0,1-2.68-1.89,16.76,16.76,0,0,1-2.41-5.84,56,56,0,0,1-1.07-6.12c-.27-2-.44-4.1-.59-6.15-.28-4.11-.45-8.22-.45-12.33Q102.89,222.56,103.8,210.25Z" style="fill:#263238"></path><path d="M102.36,214.24c.31,1.43.46,2.85.63,4.27l.23,2.12c.09.7.16,1.41.32,2.13a6.3,6.3,0,0,1-.89-2,13.15,13.15,0,0,1-.41-2.15A15.12,15.12,0,0,1,102.36,214.24Z" style="fill:#263238"></path></g></svg>