<svg xmlns="http://www.w3.org/2000/svg" viewBox="0 0 500 500"><g id="freepik--background-complete--inject-153"><path d="M306.69,84c5.55,1.56,17.56,4,28.36-11.61,9.21-13.26,3.1-27.75-1-29.42Z" style="fill:#ebebeb"></path><path d="M306.69,84c5.55,1.56,17.56,4,28.36-11.61,9.21-13.26,3.1-27.75-1-29.42Z" style="opacity:0.1"></path><path d="M304.4,82.18c-5.49,0-7.35-12.61,2-26.74s22-16.58,23.74-12.71a4.86,4.86,0,0,1,4.95.87c2.31,2,4.2,11.62-6.12,26.67-9.81,14.32-20,14.22-22.24,13.7A3.39,3.39,0,0,1,304.4,82.18Z" style="fill:#ebebeb"></path><path d="M304.4,82.18c3.7-2,6-5.55,7.93-8.93A47.19,47.19,0,0,0,314.86,68c2.12-5.54,3-11.31,6-16.74a18.7,18.7,0,0,1,9.21-8.5,20.81,20.81,0,0,0-7.72,9c-2.53,5.34-3.31,11.2-5.65,16.69a38.36,38.36,0,0,1-3,5.44c-2.28,3.35-5.25,7-9.36,8.29Z" style="opacity:0.2"></path><path d="M301.14,76.37a15.91,15.91,0,0,1-.37-5.4,30.89,30.89,0,0,1,3.78-12.1l1.22-2.09c.55-.83,1.14-1.68,1.71-2.51s1.35-1.71,1.91-2.41c.83-.91,1.68-1.82,2.53-2.71l1.82-1.68a48.25,48.25,0,0,1,3.89-3.08c-1.58,1.73-3.33,3.61-4.85,5.4a63,63,0,0,0-6.61,9.64c-2.89,5.41-4.86,11.23-5,16.94Z" style="fill:#fff;opacity:0.6000000000000001"></path><path d="M307,81.5a28.53,28.53,0,0,0,11.19-16.7c1.8-6.27,3.3-13.74,8.83-18.59a26.78,26.78,0,0,0-4.51,9.11c-1,3.18-1.71,6.42-2.6,9.68a29.37,29.37,0,0,1-2.28,6.15A25.1,25.1,0,0,1,307,81.5Z" style="fill:#fff;opacity:0.6000000000000001"></path><path d="M332.1,43.12c2.2.08,5.07,6.22,2.47,12s-9.85,12.63-11.65,10.47S326.63,42.91,332.1,43.12Z" style="fill:#fff;opacity:0.5"></path><path d="M318.86,45.5c-.92-.87,2.78-3.1,4.45-3.56,1.92-.53,5.09-.24,4.46,1.12S320,46.62,318.86,45.5Z" style="fill:#fff;opacity:0.5"></path><path d="M442.05,155.53c2.09,7.15,3.56,23.29-16.64,34.05-17.23,9.19-34.43-1.67-36.65-7Z" style="fill:#ebebeb"></path><path d="M442.05,155.53c2.09,7.15,3.56,23.29-16.64,34.05-17.23,9.19-34.43-1.67-36.65-7Z" style="opacity:0.1"></path><path d="M439.69,152.37c-.06-6.81-14.18-12.18-32.53-3s-23.78,25.42-18.71,28.25a6,6,0,0,0,1.19,6.29c2.69,3.21,15.21,7.2,34.75-3.06,18.59-9.77,18.37-22.48,17.66-25.3A5.21,5.21,0,0,0,439.69,152.37Z" style="fill:#ebebeb"></path><path d="M439.69,152.37c-2.55,4.27-7.18,6.47-11.57,8.34a56.82,56.82,0,0,1-6.87,2.25c-7.21,1.69-14.73,1.76-21.79,4.64-4.69,1.84-9,5.31-11,10a22.14,22.14,0,0,1,11.71-8.06c6.95-2.23,14.58-2.2,21.74-4.18A43.25,43.25,0,0,0,429,162.6c4.36-2.27,9.14-5.33,10.73-10.23Z" style="opacity:0.2"></path><path d="M434.57,146.78a23.55,23.55,0,0,0-7-1.3A37.86,37.86,0,0,0,412,148.1l-2.65,1.13c-1.06.54-2.14,1.11-3.19,1.67-.89.54-2.15,1.36-3,1.92-1.15.85-2.29,1.73-3.41,2.62l-2.1,1.93a49.27,49.27,0,0,0-3.84,4.2c2.18-1.63,4.54-3.44,6.81-5a67,67,0,0,1,12.22-6.45,48.38,48.38,0,0,1,21.74-3.36Z" style="fill:#fff;opacity:0.6000000000000001"></path><path d="M438.7,155.94A31.43,31.43,0,0,1,417,167c-8.16,1.17-17.9,1.78-24.18,7.81,3.59-2.32,7.7-3.34,11.85-4.05s8.36-1,12.62-1.59a34.47,34.47,0,0,0,8-1.78,26.16,26.16,0,0,0,13.4-11.45Z" style="fill:#fff;opacity:0.6000000000000001"></path><path d="M410.5,160.63c-1.56-2.08,1.94-9.28,9.17-11.21s18.92-.36,18.27,2.9S414.38,165.79,410.5,160.63Z" style="fill:#fff;opacity:0.5"></path><path d="M440.66,155.52c1.49-.08.4,4.91-.55,6.71-1.11,2.08-3.93,4.56-4.59,2.93S438.74,155.62,440.66,155.52Z" style="fill:#fff;opacity:0.5"></path><path d="M60.82,126c-3.7,5.93-9.13,20.12,6.37,35,13.22,12.66,31.5,7.23,34.87,3Z" style="fill:#ebebeb"></path><path d="M60.82,126c-3.7,5.93-9.13,20.12,6.37,35,13.22,12.66,31.5,7.23,34.87,3Z" style="opacity:0.1"></path><path d="M63.75,123.74c1.79-6.13,15.9-7.39,30.13,5.53s15,29,9.71,30.26a5.6,5.6,0,0,1-2.66,5.37c-3.24,2.22-15.56,2.64-30.59-11.59C56,139.78,59.47,128.36,60.82,126A4.89,4.89,0,0,1,63.75,123.74Z" style="fill:#ebebeb"></path><path d="M63.75,123.74c1.22,4.5,4.84,7.67,8.33,10.47A52.12,52.12,0,0,0,77.71,138c6.08,3.35,12.85,5.33,18.49,9.73,3.76,2.85,6.81,7.08,7.39,11.82a20.66,20.66,0,0,0-8.52-10.25c-5.7-3.78-12.6-5.7-18.56-9.29a41.78,41.78,0,0,1-5.67-4.29c-3.36-3.15-6.89-7.13-7.09-12Z" style="opacity:0.2"></path><path d="M69.8,120a22.35,22.35,0,0,1,6.66.61,35.5,35.5,0,0,1,13.34,6.31l2.11,1.69c.82.76,1.65,1.54,2.46,2.32s1.59,1.78,2.25,2.51c.82,1.06,1.63,2.14,2.41,3.23l1.41,2.28a44.16,44.16,0,0,1,2.4,4.76c-1.56-2-3.23-4.26-4.88-6.23a62.84,62.84,0,0,0-9.39-8.92A45.49,45.49,0,0,0,69.8,120Z" style="fill:#fff;opacity:0.6000000000000001"></path><path d="M63.73,127.22a29.57,29.57,0,0,0,16.78,15.49c7.07,3.13,15.7,6.15,19.84,13.19-2.65-3-6.1-5-9.67-6.67s-7.28-3-11-4.63A33.08,33.08,0,0,1,72.93,141a24.57,24.57,0,0,1-9.2-13.73Z" style="fill:#fff;opacity:0.6000000000000001"></path><path d="M88,138.61c1.93-1.48.6-8.87-5.44-12.45s-17-5.13-17.23-2S83.19,142.28,88,138.61Z" style="fill:#fff;opacity:0.5"></path><path d="M62.08,126.34c-1.32-.45-1.61,4.33-1.21,6.19.47,2.16,2.39,5.12,3.4,3.81S63.78,126.91,62.08,126.34Z" style="fill:#fff;opacity:0.5"></path><path d="M311.61,104.2c-2.31,3.7-5.7,12.57,4,21.85,8.25,7.91,19.68,4.51,21.78,1.86Z" style="fill:#ebebeb"></path><path d="M311.61,104.2c-2.31,3.7-5.7,12.57,4,21.85,8.25,7.91,19.68,4.51,21.78,1.86Z" style="opacity:0.1"></path><path d="M313.45,102.79c1.11-3.82,9.93-4.62,18.82,3.46s9.38,18.11,6.07,18.9a3.51,3.51,0,0,1-1.67,3.36c-2,1.39-9.72,1.65-19.11-7.24-8.94-8.46-6.79-15.59-5.95-17.07A3.08,3.08,0,0,1,313.45,102.79Z" style="fill:#ebebeb"></path><path d="M313.45,102.79c.76,2.82,3,4.79,5.2,6.54a32.75,32.75,0,0,0,3.52,2.36c3.79,2.1,8,3.33,11.55,6.08a11.4,11.4,0,0,1,4.62,7.38,13,13,0,0,0-5.33-6.4c-3.56-2.36-7.87-3.56-11.59-5.81a25,25,0,0,1-3.55-2.68c-2.09-2-4.3-4.45-4.42-7.47Z" style="opacity:0.2"></path><path d="M317.22,100.45a13.87,13.87,0,0,1,4.16.38,22.18,22.18,0,0,1,8.34,3.94l1.32,1.06c.51.47,1,1,1.53,1.45s1,1.11,1.41,1.57c.52.66,1,1.33,1.51,2l.88,1.43a29.49,29.49,0,0,1,1.5,3c-1-1.26-2-2.66-3.05-3.89A39.13,39.13,0,0,0,329,105.8a28.44,28.44,0,0,0-11.73-5.35Z" style="fill:#fff;opacity:0.6000000000000001"></path><path d="M313.44,105a18.45,18.45,0,0,0,10.48,9.67c4.41,2,9.81,3.84,12.39,8.24a18.14,18.14,0,0,0-6-4.16c-2.23-1-4.55-1.91-6.86-2.9a20.32,20.32,0,0,1-4.23-2.27,15.34,15.34,0,0,1-5.74-8.58Z" style="fill:#fff;opacity:0.6000000000000001"></path><path d="M328.6,112.08c1.21-.92.38-5.54-3.4-7.77s-10.61-3.21-10.76-1.27S325.59,114.38,328.6,112.08Z" style="fill:#fff;opacity:0.5"></path><path d="M312.4,104.42c-.83-.29-1,2.7-.75,3.87.29,1.35,1.49,3.19,2.12,2.37S313.46,104.78,312.4,104.42Z" style="fill:#fff;opacity:0.5"></path><path d="M149.55,92.71c1.2,5.9,1.29,19-15.69,26.26-14.47,6.22-27.57-3.68-29-8.12Z" style="fill:#ebebeb"></path><path d="M149.55,92.71c1.2,5.9,1.29,19-15.69,26.26-14.47,6.22-27.57-3.68-29-8.12Z" style="opacity:0.1"></path><path d="M147.87,90c.41-5.48-10.58-10.76-25.95-4.64s-20.85,18.83-17,21.45a4.84,4.84,0,0,0,.52,5.14c1.94,2.77,11.74,6.82,28.16-.11,15.61-6.59,16.29-16.83,15.91-19.15A4.17,4.17,0,0,0,147.87,90Z" style="fill:#ebebeb"></path><path d="M147.87,90c-2.34,3.26-6.21,4.71-9.87,5.92a45,45,0,0,1-5.68,1.34c-5.91.87-12,.42-17.84,2.26-3.89,1.16-7.62,3.65-9.52,7.29a17.84,17.84,0,0,1,10-5.69c5.74-1.32,11.87-.78,17.76-1.88a35.07,35.07,0,0,0,5.87-1.75c3.66-1.52,7.71-3.66,9.32-7.49Z" style="opacity:0.2"></path><path d="M144.13,85.17a19,19,0,0,0-5.55-1.52,30.63,30.63,0,0,0-12.66,1l-2.21.73c-.89.36-1.8.75-2.68,1.13s-1.82,1-2.57,1.34c-1,.6-2,1.23-2.92,1.87l-1.83,1.42a41.23,41.23,0,0,0-3.37,3.11c1.87-1.16,3.89-2.46,5.82-3.54a53.43,53.43,0,0,1,10.26-4.36,39,39,0,0,1,17.71-1.23Z" style="fill:#fff;opacity:0.6000000000000001"></path><path d="M146.83,92.82a25.38,25.38,0,0,1-18.19,7.42c-6.64.39-14.51.22-20,4.64a25,25,0,0,1,9.8-2.45c3.38-.27,6.79-.26,10.25-.42a28.85,28.85,0,0,0,6.56-.89,21.12,21.12,0,0,0,11.55-8.3Z" style="fill:#fff;opacity:0.6000000000000001"></path><path d="M123.83,94.68c-1.11-1.78,2.2-7.33,8.14-8.39s15.24,1,14.5,3.56S126.61,99.09,123.83,94.68Z" style="fill:#fff;opacity:0.5"></path><path d="M148.44,92.61c1.2,0,0,4-.9,5.36-1,1.6-3.47,3.4-3.89,2S146.89,92.56,148.44,92.61Z" style="fill:#fff;opacity:0.5"></path></g><g id="freepik--Floor--inject-153"><path d="M35.22,301.75c137.6-.61,292-.62,429.56,0-137.6.62-292,.61-429.56,0Z" style="fill:#263238"></path></g><g id="freepik--Shadow--inject-153"><ellipse cx="155.49" cy="360.61" rx="120.27" ry="27.01" style="fill:#ebebeb"></ellipse><ellipse cx="344.51" cy="360.61" rx="120.27" ry="27.01" style="fill:#ebebeb"></ellipse><ellipse cx="161.09" cy="330.93" rx="103.49" ry="21.13" style="fill:#ebebeb"></ellipse><ellipse cx="331.12" cy="330.93" rx="103.49" ry="21.13" style="fill:#ebebeb"></ellipse><ellipse cx="254.19" cy="411.34" rx="127.76" ry="39.34" style="fill:#ebebeb"></ellipse></g><g id="freepik--Plant--inject-153"><path d="M275.09,302.33c5.74,3.13-47.82-.32-63.42,1.81s-47.61,2.89-65.78-4.26-39.58-24.94-48.42-36.57S83.86,235.09,77,226.08s-25.85-22.66-32.77-32.75a147.54,147.54,0,0,0,21,.52c9.24-.66,29.67-3.84,43.12,2s22.54,9.45,36.21,12.16,45.1,4.63,70.38,31.47S252.71,290.15,275.09,302.33Z" style="fill:#37474f"></path><path d="M275.09,302.33c-40-14.64-82.66-25.29-117.23-51.08-8.69-6.18-17.09-12.83-25.38-19.65-7.7-6-17.32-15.3-26.24-19.52-14.62-6.66-31.33-10-46.74-13.8-5.17-1.4-10.5-2.45-15.27-4.95,19.23,9.85,41.44,12.73,60.13,22.44,17.59,11.3,33,27.89,50.36,39.84,35.25,25.67,78.79,36.13,120.37,46.72Z" style="fill:#455a64"></path><path d="M142.15,293.74c14.2,2.15,28.08-4,39.29-12.23,3.35-2.11,7.67-5.94,11.54-7-4.71-1-9.38,1.58-13.61,3.33-12.3,6.34-23.56,11.83-37.22,15.87Z" style="fill:#455a64"></path><path d="M131.11,236.22c-11.51,1.3-22.18,4.59-33.79,3.53L85.67,239c13.62,9.63,32.62,7.11,45.44-2.73Z" style="fill:#455a64"></path><path d="M170.42,262.92c-20.9-4.54-37.88,13.06-58.63,11.59,11.88,5.76,26.57,1.06,37.42-4.86,6.72-3.15,13.9-4.67,21.21-6.73Z" style="fill:#455a64"></path><path d="M216.2,281.78c-17.86-20.28-31-42.12-44.3-65.36,6.32,26.18,21.36,50.66,44.3,65.36Z" style="fill:#455a64"></path><path d="M148.91,248c-.92-15.93-8-32.91-21.74-41.9,8.11,14.12,13.51,27.84,21.74,41.9Z" style="fill:#455a64"></path><path d="M270.9,302.43c-4.6,2.5,38.29-.27,50.79,1.44s38.12,2.32,52.67-3.41,31.7-20,38.78-29.28,10.9-22.6,16.39-29.82,20.7-18.14,26.24-26.22a118.36,118.36,0,0,1-16.8.41c-7.4-.53-23.76-3.08-34.53,1.62s-18.05,7.57-29,9.73-36.11,3.72-56.36,25.21S288.82,292.67,270.9,302.43Z" style="fill:#37474f"></path><path d="M270.9,302.43c32-11.73,66.19-20.26,93.88-40.91,7-4.95,13.68-10.27,20.32-15.74,6.17-4.78,13.87-12.25,21-15.63,11.71-5.34,25.09-8,37.43-11.05,4.14-1.12,8.41-2,12.23-4-15.4,7.88-33.18,10.19-48.15,18-14.09,9.06-26.46,22.34-40.33,31.91-28.23,20.55-63.09,28.93-96.39,37.42Z" style="fill:#455a64"></path><path d="M377.36,295.54c-11.37,1.72-22.49-3.19-31.47-9.79-2.68-1.69-6.13-4.76-9.24-5.58,3.77-.76,7.52,1.26,10.9,2.66,9.85,5.08,18.86,9.48,29.81,12.71Z" style="fill:#455a64"></path><path d="M386.2,249.48c9.22,1.05,17.76,3.68,27.05,2.83l9.33-.64c-10.9,7.71-26.12,5.69-36.38-2.19Z" style="fill:#455a64"></path><path d="M354.71,270.86c16.75-3.63,30.35,10.46,47,9.29-9.51,4.61-21.28.85-30-3.9-5.37-2.52-11.13-3.74-17-5.39Z" style="fill:#455a64"></path><path d="M318.06,286c14.3-16.25,24.83-33.74,35.47-52.34-5.06,21-17.1,40.56-35.47,52.34Z" style="fill:#455a64"></path><path d="M371.94,258.89c.74-12.76,6.41-26.35,17.41-33.55-6.49,11.31-10.81,22.29-17.41,33.55Z" style="fill:#455a64"></path><path d="M260.84,199.69c.45,3.6,9.52-24.78,13.78-32.42s11.14-24,11.13-34.86-4.88-25.51-9.1-32.44-11.83-12.75-15.1-18.12-6.47-17.95-10.28-23.57a82.85,82.85,0,0,1-4,11c-2.21,4.64-8,14.55-7.69,22.7s.32,13.56-1.05,21.17-6.74,24.26,2,42.76S259.08,185.65,260.84,199.69Z" style="fill:#37474f"></path><path d="M260.84,199.69c.53-23.63,3.67-47.85-2.66-70.95-1.43-5.74-3.16-11.43-5-17.1-1.53-5.18-4.4-12-4.78-17.51-.48-8.9,1.18-18.22,2.34-26.95.32-3,.86-5.93.54-8.9,1.19,11.94-1.82,24-.59,35.63,2.28,11.38,7.73,22.72,10.39,34.1,6.13,23.41,2.72,48-.23,71.68Z" style="fill:#455a64"></path><path d="M283.33,129.23c-1.77,7.78-7.75,13.71-14.28,17.84-1.77,1.3-4.63,2.75-5.94,4.55.46-2.63,2.72-4.53,4.47-6.36,5.77-5.07,10.89-9.78,15.75-16Z" style="fill:#455a64"></path><path d="M255.83,111.87c3-5.68,6.87-10.53,8.67-16.75l1.95-6.18c2.22,9-2.93,18.3-10.62,22.93Z" style="fill:#455a64"></path><path d="M261.67,137.6c1.89-11.72,14.43-16.93,17.87-27.95.57,7.3-4.83,13.94-10.09,18.35-3,2.83-5.24,6.24-7.78,9.6Z" style="fill:#455a64"></path><path d="M262.15,165.08c-6.87-13.34-15.5-24.55-24.81-36.13,12.25,8.57,21.85,21.3,24.81,36.13Z" style="fill:#455a64"></path><path d="M258.3,123.46c-8.05-3.71-15.39-10.81-17.25-19.73,5.65,7,11.65,12.62,17.25,19.73Z" style="fill:#455a64"></path><path d="M269.68,303.54s18.71-24.57,30.86-34.22,38.58-13.1,44.31-24.24c0,0,12.87-8.89,16.48-20.91s7-28.26,10.36-33.47,28.57-21.22,33.18-30,15.88-35,19.48-37.95-9,3.06-13.63,4.18-13.54,1.34-15.26,1.82-3.85,3.86-5,4-29-8.12-44.89-4.24-28.94,15.62-33.91,21.3-5.77,10.86-11.05,15.17-10.29,7.31-13.61,12.65-3.29,9.86-8.94,17.18A40.24,40.24,0,0,0,270,223.36C271.2,234.24,277.62,274.6,269.68,303.54Z" style="fill:#455a64"></path><path d="M269.68,303.54c8.39-18.67,16.62-37.21,22.24-57a133.23,133.23,0,0,1,14.7-27.06c11.52-17.13,28.21-29.57,42.71-44,9.33-8.68,18.48-17.84,29.19-24.95,4.56-2.88,15.13-8.79,19.83-11.64,7.58-4.57,18.95-10.88,26-16.1-6.71,5.59-17.94,12.27-25.36,17.16l-13,8c-21.83,13.25-38.11,33.47-57.24,50.29-15.23,13.34-27,30.42-35,49a359.66,359.66,0,0,1-24,56.25Z" style="fill:#37474f"></path><path d="M288.09,261.22c8.23-5.8,18.06-8.68,27.91-10.57,9.83-1.08,19.7-1.6,28.85-5.57-8.2,5.79-18.86,7-28.53,8.08-9.46,1.76-19.35,4.11-28.23,8.06Z" style="fill:#37474f"></path><path d="M301.23,230c9.59-6.1,19.69-11.44,30.85-14.2,11-2.17,22.67-2,32.22-8.45a24.63,24.63,0,0,1-7,4.85c-7.73,3.53-16.54,4.58-24.68,6.07-10.62,2.5-21.26,7.54-31.38,11.73Z" style="fill:#37474f"></path><path d="M340.82,185.21c16.24-7,34.35-6.25,50.64-13.12A56.23,56.23,0,0,1,366.67,181c-8.59,1.21-17.14,2.91-25.85,4.2Z" style="fill:#37474f"></path><path d="M306.39,221.83c2.28-8.39,4.51-17,4.64-25.7-.22-11.68-2.64-23.46-1.07-35.2a38.84,38.84,0,0,1,2.18-8.61c-2.88,14.64,1.46,29.14,1.28,43.86-.48,8.94-3.29,17.61-7,25.65Z" style="fill:#37474f"></path><path d="M330.21,193.62a171.24,171.24,0,0,0,5.57-22.37c1.28-12.53,3.19-27.19,13.81-35.49-8.68,10-9.73,23.37-11.45,35.89a80.48,80.48,0,0,1-7.93,22Z" style="fill:#37474f"></path><path d="M291.57,251.45A156.33,156.33,0,0,0,286,221c-2.47-9.85-6.54-20.75-2.85-30.83-1.65,10.48,2.77,20.19,5.29,30.17,2.74,10,4.33,20.68,3.11,31.08Z" style="fill:#37474f"></path><path d="M264.55,297.83s-8.4-31.78-25.6-48.5-60.55-37.28-65.6-40.3-14.12-4.41-25.51-15.08-21.75-15.23-23.26-15.22-24.69,1.74-56.36-33.38c0,0,26.58,3.51,31.21,2.49s15.79-5.09,21.38-3.37,19.85,10,32.8,11.91c8,1.19,24-1.23,37.14.27,8.18.94,14.63,5,18.92,7.47,11.17,6.35,6.75,16.07,14.16,22.57s27.89,3.77,29.76,14.85,2.69,18.93,7,26.21,6.35,21.22,5.09,30.16S264.55,297.83,264.55,297.83Z" style="fill:#455a64"></path><path d="M124.57,178.74c1.52,0,11.87,4.53,23.26,15.2S168.3,206,173.34,209s48.4,23.58,65.61,40.3,25.6,48.52,25.6,48.52a.87.87,0,0,1,0-.11s0-.07,0-.13,0-.07,0-.11c.18-3.16,1.42-27.06,1.05-39.49v0a41.46,41.46,0,0,0-.46-5.93c-1.48-8-4.67-9.62-6.07-15s-.92-10-4.83-14.46-17.8-.76-21.6-5.32-4.71-11.45-11-15.72-20.41.18-29.8-5.38-15.13-19.37-24.56-20S147.16,181,142,180.51,135.31,177.27,124.57,178.74Z" style="fill:#37474f"></path><path d="M262.29,281.49c-3.22-26.71-8.89-53.29-18.31-78.57,6.14,24.86,12.4,53.72,18.31,78.57Z" style="fill:#37474f"></path><path d="M253.89,261.65c-8.64-15.19-18.58-31.41-27.27-46.49a209.49,209.49,0,0,1-22.11-48.72c3.47,17.64,11,34.35,20.15,49.79,9,15.23,19,30.94,29.23,45.42Z" style="fill:#37474f"></path><path d="M212.51,213.8c-4.1-18.26-11.83-35.88-24.82-49.85l3.63,6a179.16,179.16,0,0,1,15.73,31c1.32,3.22,4.06,9.7,5.46,12.88Z" style="fill:#37474f"></path><path d="M175,187.19A169,169,0,0,0,163.45,170L160.29,166a25.48,25.48,0,0,0-12.69-9.28,34.88,34.88,0,0,1,11,10.52l3.06,4.16A170.84,170.84,0,0,0,175,187.19Z" style="fill:#37474f"></path><path d="M247.25,249.39c-2.22-8.31-6.4-20-9.24-28.21A112.76,112.76,0,0,0,225.94,194c4,9.12,7.79,18.14,10,27.85a179.39,179.39,0,0,0,11.3,27.57Z" style="fill:#37474f"></path><path d="M138.59,168.81a69.65,69.65,0,0,0-20.38-21.36,154.67,154.67,0,0,0,20.38,21.36Z" style="fill:#37474f"></path><path d="M260.7,272.07c-14.79-24.43-32.73-47.71-55.54-65.78A289.66,289.66,0,0,0,128.56,164c-18.92-5.5-37.66-11-56.47-16.62C85.4,152,100.4,157,114,161.16c32.82,9.5,62.93,26.64,89.89,46.66,22.78,17.86,41,40.56,56.84,64.25Z" style="fill:#37474f"></path><path d="M124.42,163.47c-9.19.87-17.93,2.28-27.12,1.69,8.51,3.59,18.83,2.07,27.12-1.69Z" style="fill:#37474f"></path><path d="M145.74,172c-11.29-.33-22.37,1.34-33.57.13,10.5,4.17,22.76,2.5,33.57-.13Z" style="fill:#37474f"></path><path d="M185.81,181.23c-2.24-7.41-6.34-15-13.11-19.35,4.51,6.53,8,13.19,13.11,19.35Z" style="fill:#37474f"></path><path d="M271.69,250.76c-11.65-4.62-27.6,4.59-32.76,17.47s-6.1,28.39,11.2,34.51,28.25-9.26,32.62-20S286.45,256.62,271.69,250.76Z" style="fill:#ECEFF1"></path><path d="M261.21,252.42c-6.17-2.31-15.12,3.6-18.35,11.3s-4.25,16.8,4.93,19.8,15.63-6.35,18.36-12.75S269,255.36,261.21,252.42Z" style="fill:#fff;opacity:0.30000000000000004"></path><path d="M256.05,255c-3.11-1.17-7.65,1.86-9.3,5.79s-2.19,8.55,2.44,10.05,7.91-3.27,9.31-6.53S260,256.48,256.05,255Z" style="fill:#fff;opacity:0.30000000000000004"></path><path d="M250.14,302.76c-17.32-6.13-16.36-21.62-11.21-34.52a29.62,29.62,0,0,1,4.33-7.32,23.32,23.32,0,0,0-2.95,5.27c-4.55,11.36-5.41,25,9.89,30.4s24.86-8.13,28.72-17.58,3.27-23-9.75-28.22a15.81,15.81,0,0,0-7-1,18.62,18.62,0,0,1,9.51,1c14.79,5.85,15.44,21.3,11.1,32S267.42,308.87,250.14,302.76Z" style="opacity:0.1"></path><g style="opacity:0.2"><path d="M255.22,293.1a12,12,0,0,1-9.36,3.75,12,12,0,0,1,9.36-3.75Z"></path><path d="M253.5,299.05a11.94,11.94,0,0,1-5.92-8.15,11.91,11.91,0,0,1,5.92,8.15Z"></path><path d="M249.07,299.79a11.93,11.93,0,0,1,2.94-9.63,11.9,11.9,0,0,1-2.94,9.63Z"></path><path d="M245.6,294a11.92,11.92,0,0,1,9.88,2,12,12,0,0,1-9.88-2Z"></path></g><path d="M255.67,244.48c-4.5-11.7-22.09-17.18-35-12.23s-25,14.77-17.76,31.64,25.95,14.48,36.8,10.43S261.38,259.3,255.67,244.48Z" style="fill:#ECEFF1"></path><path d="M247.34,237.91c-2.48-6.11-12.9-8.68-20.74-5.82s-15.24,8.26-11.21,17,15.26,7.18,21.82,4.83S250.49,245.64,247.34,237.91Z" style="fill:#fff;opacity:0.30000000000000004"></path><path d="M242,235.87c-1.26-3.08-6.56-4.36-10.56-2.91s-7.78,4.19-5.74,8.61,7.77,3.6,11.11,2.41S243.54,239.76,242,235.87Z" style="fill:#fff;opacity:0.30000000000000004"></path><path d="M202.85,263.91c-7.24-16.88,4.79-26.69,17.76-31.64a29.11,29.11,0,0,1,8.32-1.79,22.94,22.94,0,0,0-5.88,1.41c-11.43,4.35-22.06,13-15.63,27.88s22.84,12.75,32.4,9.18,19.15-13.23,14.12-26.3a15.91,15.91,0,0,0-4-5.83,18.57,18.57,0,0,1,5.74,7.65c5.73,14.83-5.17,25.79-16,29.85S210.07,280.75,202.85,263.91Z" style="opacity:0.1"></path><g style="opacity:0.2"><path d="M213.39,261.09a12,12,0,0,1-9.1-4.33,11.94,11.94,0,0,1,9.1,4.33Z"></path><path d="M207.85,263.86a11.93,11.93,0,0,1,2-9.88,11.93,11.93,0,0,1-2,9.88Z"></path><path d="M204.3,261.11a11.94,11.94,0,0,1,9.08-4.37,11.94,11.94,0,0,1-9.08,4.37Z"></path><path d="M206.21,254.62a12,12,0,0,1,5.26,8.6,11.92,11.92,0,0,1-5.26-8.6Z"></path></g><path d="M398.17,204.84c-5.85-9.93-22.63-12.24-33.64-5.8s-20.46,17.17-11.34,31.38,25.73,9.22,34.95,3.91S405.58,217.43,398.17,204.84Z" style="fill:#ECEFF1"></path><path d="M389.62,200.14c-3.17-5.17-13-5.93-19.7-2.15s-12.57,9.8-7.59,17.16,14.93,4.21,20.53,1.09S393.64,206.68,389.62,200.14Z" style="fill:#fff;opacity:0.30000000000000004"></path><path d="M384.42,199.1c-1.6-2.6-6.61-3-10-1s-6.42,5-3.9,8.68,7.58,2.09,10.44.5S386.45,202.39,384.42,199.1Z" style="fill:#fff;opacity:0.30000000000000004"></path><path d="M353.18,230.44c-9.11-14.22.32-24.93,11.34-31.39a26.89,26.89,0,0,1,7.27-2.87,21.09,21.09,0,0,0-5.11,2.16C357,204,348.62,213.46,356.7,226s22.64,8.12,30.78,3.43,15.38-14.89,8.85-26a14.79,14.79,0,0,0-4.54-4.68,17.21,17.21,0,0,1,6.37,6.07c7.43,12.59-.81,24.18-10,29.5S362.28,244.63,353.18,230.44Z" style="opacity:0.1"></path><g style="opacity:0.2"><path d="M362.32,226.29a10.94,10.94,0,0,1-8.91-2.56,11,11,0,0,1,8.91,2.56Z"></path><path d="M357.71,229.65a11,11,0,0,1,.3-9.27,11,11,0,0,1-.3,9.27Z"></path><path d="M354.08,227.68a11,11,0,0,1,7.57-5.34,11,11,0,0,1-7.57,5.34Z"></path><path d="M354.83,221.51a11,11,0,0,1,6.07,7,11,11,0,0,1-6.07-7Z"></path></g><path d="M167,209.33c-1.13-11.47-15.39-20.62-28.09-19.4s-25.78,7-23.47,23.71,19.47,19.18,30.07,18.23S168.41,223.87,167,209.33Z" style="fill:#ECEFF1"></path><path d="M156.56,199.21c-1.25-5.93-10.27-10-17.83-8.64s-15.13,5-12.91,13.62,12.65,9,19,7.92S158.15,206.72,156.56,199.21Z" style="fill:#fff;opacity:0.30000000000000004"></path><path d="M149.74,195.43c-.64-3-5.23-5-9.09-4.35s-7.72,2.54-6.59,6.87,6.45,4.51,9.67,4S150.55,199.21,149.74,195.43Z" style="fill:#fff;opacity:0.30000000000000004"></path><path d="M115.39,213.65c-2.29-16.73,10.77-22.48,23.48-23.71a27,27,0,0,1,7.81.45,21.5,21.5,0,0,0-5.55-.19c-11.2,1.07-22.74,6.14-20.67,20.9s17.13,16.89,26.48,16.05,20.21-7,18.95-19.86a14.58,14.58,0,0,0-2.15-6.15,17.15,17.15,0,0,1,3.23,8.18c1.45,14.55-10.89,21.6-21.47,22.57S117.69,230.35,115.39,213.65Z" style="opacity:0.1"></path><g style="opacity:0.2"><path d="M125.43,213.73a11,11,0,0,1-7-6.07,11,11,0,0,1,7,6.07Z"></path><path d="M119.84,214.84a11,11,0,0,1,4.17-8.28,11,11,0,0,1-4.17,8.28Z"></path><path d="M117.36,211.53a11,11,0,0,1,9.12-1.66,11,11,0,0,1-9.12,1.66Z"></path><path d="M120.65,206.24a11,11,0,0,1,2.55,8.91,10.94,10.94,0,0,1-2.55-8.91Z"></path></g></g><g id="freepik--coffee-beans--inject-153"><path d="M97.18,338.65C66.42,335.7,49.07,318.58,54.32,313a7.39,7.39,0,0,1-2.61-6.1s0,0,0,0c-.12-7.42,15.38-29.39,44.56-25.93,34.29,4.06,43.6,25.55,45.08,35.05a5.63,5.63,0,0,1-1.32,4.82C144.08,328.94,128,341.59,97.18,338.65Z" style="fill:#ECEFF1"></path><g style="opacity:0.8"><path d="M97.18,338.65C66.42,335.7,49.07,318.58,54.32,313a7.39,7.39,0,0,1-2.61-6.1s0,0,0,0c-.12-7.42,15.38-29.39,44.56-25.93,34.29,4.06,43.6,25.55,45.08,35.05a5.63,5.63,0,0,1-1.32,4.82C144.08,328.94,128,341.59,97.18,338.65Z"></path></g><g style="opacity:0.2"><path d="M97.18,338.65C66.42,335.7,49.07,318.58,54.32,313a7.39,7.39,0,0,1-2.61-6.1s0,0,0,0a10.53,10.53,0,0,1,.81-3.75,6.46,6.46,0,0,0,2.29,4.72c-4.57,4.9,10.54,19.79,37.29,22.36s40.8-8.45,37.28-15.57a4.92,4.92,0,0,0,1.15-4.2c-1.17-7.48-7.92-23.5-31.32-29.09,31.88,4.91,40.71,25.43,42.14,34.65a5.63,5.63,0,0,1-1.32,4.82C144.08,328.94,128,341.59,97.18,338.65Z"></path></g><path d="M57.77,298.18a26.85,26.85,0,0,1,5.48-5.69A44.42,44.42,0,0,1,79,284.58l3.14-.77c1.32-.24,2.67-.46,4-.67,1.16-.12,2.84-.24,4-.34,1.6,0,3.21,0,4.81,0l3.17.27a54.55,54.55,0,0,1,6.24,1.06c-3.05,0-6.38,0-9.44.21a78.7,78.7,0,0,0-15.29,2.5,56.57,56.57,0,0,0-21.87,11.34Z" style="fill:#ECEFF1;opacity:0.2"></path><path d="M370.9,298.62c4.38,8.93,16.9,23.06,46.53,15.48,25.26-6.47,33-29.56,30.41-36.83Z" style="fill:#ECEFF1"></path><path d="M370.9,298.62c4.38,8.93,16.9,23.06,46.53,15.48,25.26-6.47,33-29.56,30.41-36.83Z" style="opacity:0.8"></path><path d="M370.38,293.38c-6.07-6.77,3-24.8,29.36-32.3s46.36,3.64,43.91,11a8,8,0,0,1,4.5,7.27c.25,5.59-8.51,20.8-37,28.3-27.13,7.12-38.37-5.63-40.21-9A7,7,0,0,1,370.38,293.38Z" style="fill:#ECEFF1"></path><g style="opacity:0.7000000000000001"><path d="M370.38,293.38c-6.07-6.77,3-24.8,29.36-32.3s46.36,3.64,43.91,11a8,8,0,0,1,4.5,7.27c.25,5.59-8.51,20.8-37,28.3-27.13,7.12-38.37-5.63-40.21-9A7,7,0,0,1,370.38,293.38Z"></path></g><path d="M370.38,293.38c6.36,1.91,12.92-.09,18.93-2.21a74.13,74.13,0,0,0,8.8-4c8.63-4.83,16.11-11.54,25.68-15.06,6.28-2.41,13.69-2.9,19.86-.05a29.58,29.58,0,0,0-18.81,2.6c-8.86,4.06-16.37,11-25.2,15.47a59.11,59.11,0,0,1-9.47,3.64c-6.33,1.69-13.8,3-19.79-.42Z" style="opacity:0.30000000000000004"></path><path d="M370.89,284.37a31.44,31.44,0,0,1,5.41-7.84,50.71,50.71,0,0,1,17.17-12.14l3.58-1.43c1.52-.49,3.07-1,4.6-1.43,1.35-.32,3.32-.73,4.69-1,1.89-.29,3.79-.53,5.69-.74l3.82-.15a64.18,64.18,0,0,1,7.59.36c-3.6.52-7.55,1-11.15,1.7a88.87,88.87,0,0,0-17.64,5.4c-9,4-17.43,9.67-23.76,17.3Z" style="fill:#ECEFF1;opacity:0.2"></path><path d="M374,295.68A42.1,42.1,0,0,0,405.4,287c9.1-6.2,19.25-14.38,30.88-14.09-5.63.95-10.6,3.65-15.34,6.68s-9.17,6.52-13.86,9.81a46.75,46.75,0,0,1-9.51,5.45,34.93,34.93,0,0,1-23.53.79Z" style="fill:#ECEFF1;opacity:0.2"></path><path d="M444.89,275.45c2.6,2.3-.06,12.66-9,17.13s-24.66,5.55-24.69,1.12S438.41,269.74,444.89,275.45Z" style="fill:#ECEFF1;opacity:0.1"></path><path d="M426.13,263.24c-.25-2,6.5-1,9,.11,2.88,1.27,6.45,4.8,4.33,5.83S426.44,265.78,426.13,263.24Z" style="fill:#ECEFF1;opacity:0.1"></path><path d="M386.94,310.65c-.46,12.87-6,39.65-45,46.35-33.25,5.7-56.4-21-57.15-30.93Z" style="fill:#ECEFF1"></path><path d="M386.94,310.65c-.46,12.87-6,39.65-45,46.35-33.25,5.7-56.4-21-57.15-30.93Z" style="opacity:0.8"></path><path d="M384.77,304.19c3.6-11.21-16.64-27.7-51.72-22.64S280.2,310.33,287,317.74c0,0-4.12,4.22-1.47,11s21,20.08,58.69,13.87c35.81-5.92,42.35-26.91,42.73-31.92A9,9,0,0,0,384.77,304.19Z" style="fill:#ECEFF1"></path><g style="opacity:0.7000000000000001"><path d="M384.77,304.19c3.6-11.21-16.64-27.7-51.72-22.64S280.2,310.33,287,317.74c0,0-4.12,4.22-1.47,11s21,20.08,58.69,13.87c35.81-5.92,42.35-26.91,42.73-31.92A9,9,0,0,0,384.77,304.19Z"></path></g><path d="M384.77,304.19c-6.5,5.62-15.29,6.72-23.52,7.39a94.63,94.63,0,0,1-12.49-.05c-12.74-1.14-25.12-5.11-38.28-4.22-8.69.47-17.7,3.8-23.49,10.43a38.18,38.18,0,0,1,23.59-6.86c12.62.11,25.13,4.3,37.94,5a76.41,76.41,0,0,0,13.1-.7c8.38-1.35,17.88-3.77,23.15-10.95Z" style="opacity:0.30000000000000004"></path><path d="M379.42,293.81a40.84,40.84,0,0,0-10.53-6.39,65.54,65.54,0,0,0-26.7-5.27l-5,.2c-2,.22-4.14.47-6.18.74-1.78.33-4.31.88-6.08,1.25-2.39.66-4.77,1.39-7.12,2.14l-4.59,1.84a80,80,0,0,0-8.77,4.43c4.52-1.29,9.45-2.78,14-3.88a115.3,115.3,0,0,1,23.71-2.94c12.74,0,25.68,2.21,37.19,7.88Z" style="fill:#ECEFF1;opacity:0.2"></path><path d="M381.67,308.84a54.46,54.46,0,0,1-41.61,6.36c-14-2.52-30.33-6.82-43.91-.34,7.15-1.85,14.45-1.28,21.65-.21s14.27,2.87,21.56,4.27c4.54.83,9.35,1.68,14.1,1.42,10.3-.53,20.72-4.51,28.21-11.5Z" style="fill:#ECEFF1;opacity:0.2"></path><path d="M332.39,301.87c-1.43-4.26,8.23-14.16,21.15-13.4s31.23,9.69,28.4,14.68S336,312.46,332.39,301.87Z" style="fill:#ECEFF1;opacity:0.1"></path><path d="M384.66,309.88c2.48.68-2,8.27-4.55,10.71-2.95,2.82-8.92,5.35-9.11,2.31S381.46,309,384.66,309.88Z" style="fill:#ECEFF1;opacity:0.1"></path><path d="M223.25,134.25c-5.79,4.5-18.81,13.08-39-.09-17.22-11.22-17-31.23-13-35.16Z" style="fill:#ECEFF1"></path><path d="M223.25,134.25c-5.79,4.5-18.81,13.08-39-.09-17.22-11.22-17-31.23-13-35.16Z" style="opacity:0.8"></path><path d="M225.1,131c6.46-2.64,2.61-18.39-15.13-30.58s-33.89-9-34.09-3.6a6.13,6.13,0,0,0-5.41,3.39c-1.75,3.52.6,15.72,20,28.52,18.44,12.17,30.45,7.15,32.79,5.48A4.3,4.3,0,0,0,225.1,131Z" style="fill:#ECEFF1"></path><g style="opacity:0.7000000000000001"><path d="M225.1,131c6.46-2.64,2.61-18.39-15.13-30.58s-33.89-9-34.09-3.6a6.13,6.13,0,0,0-5.41,3.39c-1.75,3.52.6,15.72,20,28.52,18.44,12.17,30.45,7.15,32.79,5.48A4.3,4.3,0,0,0,225.1,131Z"></path></g><path d="M225.1,131c-5.32-.56-9.7-3.68-13.64-6.72a60,60,0,0,1-5.51-5c-5.15-5.51-8.92-11.9-15.14-16.84-4.05-3.3-9.49-5.7-14.93-5.6a26.36,26.36,0,0,1,13.43,6.94c5.54,5.08,9.27,11.61,14.66,17a50,50,0,0,0,6.11,5c4.3,2.86,9.56,5.78,15,5.28Z" style="opacity:0.30000000000000004"></path><path d="M226.16,122.63a20.4,20.4,0,0,0-2.17-6.54,39.08,39.08,0,0,0-10.25-12.45l-2.43-1.89c-1.06-.72-2.15-1.44-3.23-2.14s-2.41-1.36-3.41-1.92q-2.11-1-4.28-2l-2.95-1.11c-2-.73-4-1.25-6.06-1.78,2.69,1.29,5.66,2.66,8.3,4.06a79.41,79.41,0,0,1,12.42,8.19c6,5,11.12,10.91,14.06,17.56Z" style="fill:#ECEFF1;opacity:0.2"></path><path d="M221.7,131.49c-9.18-2.44-16.16-7.2-21.2-14.33-5.12-6.52-10.48-14.61-19.32-17.69a34.41,34.41,0,0,1,9.69,8.58c2.69,3.29,5.08,6.75,7.7,10.18a37.41,37.41,0,0,0,5.64,6.15,32,32,0,0,0,17.49,7.11Z" style="fill:#ECEFF1;opacity:0.2"></path><path d="M173.7,98.27c-2.55,1.15-3,9.77,2.85,15.35s17.68,10.16,18.75,6.75S180.06,95.41,173.7,98.27Z" style="fill:#ECEFF1;opacity:0.1"></path><path d="M190.47,94.73c.66-1.46-4.78-2.32-7-2.07-2.52.3-6.11,2.17-4.73,3.46S189.62,96.61,190.47,94.73Z" style="fill:#ECEFF1;opacity:0.1"></path><path d="M251.52,315.71c-7,9.17-25.81,26.79-61.82,15-30.69-10.09-35.87-39.91-31.4-47.48Z" style="fill:#ECEFF1"></path><path d="M251.52,315.71c-7,9.17-25.81,26.79-61.82,15-30.69-10.09-35.87-39.91-31.4-47.48Z" style="opacity:0.8"></path><path d="M253,310.08c8.75-6.62-3.47-29-35.36-40.34s-55.13,0-53.26,8.32a9.63,9.63,0,0,0-6.84,7.35c-1.24,6,7.28,23.63,41.91,35.23,32.94,11,49.17-1.44,52-4.93A6.78,6.78,0,0,0,253,310.08Z" style="fill:#ECEFF1"></path><g style="opacity:0.7000000000000001"><path d="M253,310.08c8.75-6.62-3.47-29-35.36-40.34s-55.13,0-53.26,8.32a9.63,9.63,0,0,0-6.84,7.35c-1.24,6,7.28,23.63,41.91,35.23,32.94,11,49.17-1.44,52-4.93A6.78,6.78,0,0,0,253,310.08Z"></path></g><path d="M253,310.08c-8.31,1.31-16.22-1.66-23.44-4.69a96.29,96.29,0,0,1-10.4-5.39c-10.06-6.29-18.37-14.49-29.82-19.47-7.49-3.38-16.73-4.82-25-2.47a41.59,41.59,0,0,1,23.22,5.11c10.48,5.49,18.78,13.9,29.15,19.86a77.24,77.24,0,0,0,11.3,5.1c7.69,2.61,16.87,4.92,24.95,1.95Z" style="opacity:0.30000000000000004"></path><path d="M251.24,296.88a32.21,32.21,0,0,0-5.93-9.06A61.75,61.75,0,0,0,224.68,273l-4.45-1.87c-1.9-.67-3.85-1.32-5.77-2-1.72-.47-4.22-1.08-6-1.53-2.41-.47-4.86-.9-7.3-1.29l-4.94-.48a96.49,96.49,0,0,0-9.92-.25c4.61.87,9.67,1.75,14.25,2.8a125.17,125.17,0,0,1,22.19,7.43c11.14,5.14,21.3,12.07,28.46,21Z" style="fill:#ECEFF1;opacity:0.2"></path><path d="M248.05,312.14c-14.94,0-27.46-4.39-38-13.2-10.42-7.84-21.84-17.95-36.51-19.06,6.93,1.72,12.73,5.26,18.19,9.13s10.46,8.2,15.83,12.34a57.72,57.72,0,0,0,11,7.07,50.21,50.21,0,0,0,29.45,3.72Z" style="fill:#ECEFF1;opacity:0.2"></path><path d="M161.68,281.08c-3.42,2.78-.58,16.05,10.53,22.17s31,8.29,31.23,2.68S170.18,274.16,161.68,281.08Z" style="fill:#ECEFF1;opacity:0.1"></path><path d="M185.72,268.92c.41-2.49-8.19-1.59-11.4-.32-3.72,1.47-8.42,5.76-5.79,7.17S185.19,272.13,185.72,268.92Z" style="fill:#ECEFF1;opacity:0.1"></path><path d="M328.74,170.38c5.12,8.2,12.62,27.82-8.81,48.36-18.28,17.51-43.56,10-48.21,4.12Z" style="fill:#ECEFF1"></path><path d="M328.74,170.38c5.12,8.2,12.62,27.82-8.81,48.36-18.28,17.51-43.56,10-48.21,4.12Z" style="opacity:0.8"></path><path d="M324.68,167.27c-2.46-8.48-22-10.22-41.66,7.65S262.26,215,269.59,216.76a7.78,7.78,0,0,0,3.69,7.43c4.48,3.07,21.51,3.65,42.3-16,19.78-18.71,15-34.51,13.16-37.78A6.75,6.75,0,0,0,324.68,167.27Z" style="fill:#ECEFF1"></path><g style="opacity:0.7000000000000001"><path d="M324.68,167.27c-2.46-8.48-22-10.22-41.66,7.65S262.26,215,269.59,216.76a7.78,7.78,0,0,0,3.69,7.43c4.48,3.07,21.51,3.65,42.3-16,19.78-18.71,15-34.51,13.16-37.78A6.75,6.75,0,0,0,324.68,167.27Z"></path></g><path d="M324.68,167.27c-1.68,6.23-6.68,10.6-11.51,14.48a71.89,71.89,0,0,1-7.79,5.21c-8.4,4.64-17.76,7.37-25.57,13.45-5.2,3.94-9.41,9.8-10.22,16.35a28.65,28.65,0,0,1,11.78-14.17c7.89-5.23,17.43-7.88,25.67-12.85a57.58,57.58,0,0,0,7.85-5.94c4.64-4.35,9.53-9.85,9.79-16.53Z" style="opacity:0.30000000000000004"></path><path d="M317,163.07a30.45,30.45,0,0,0-9.23.45A49,49,0,0,0,289,171.45l-3,2.22c-1.18,1-2.37,2-3.53,3.06-1,1-2.3,2.36-3.25,3.33-1.21,1.41-2.38,2.86-3.53,4.32l-2.08,3.07a61.22,61.22,0,0,0-3.59,6.44c2.27-2.71,4.71-5.7,7.11-8.32a86.79,86.79,0,0,1,13.5-11.78c7.91-5.37,16.89-9.41,26.43-10.72Z" style="fill:#ECEFF1;opacity:0.2"></path><path d="M324.71,171.47a40.81,40.81,0,0,1-23.2,21.42c-9.77,4.33-21.71,8.5-27.44,18.24,3.67-4.16,8.45-6.87,13.37-9.22s10.08-4.22,15.2-6.41a45.3,45.3,0,0,0,9.36-5,33.92,33.92,0,0,0,12.71-19Z" style="fill:#ECEFF1;opacity:0.2"></path><path d="M291.15,187.83c-2.68-2-.84-12.26,7.52-17.21s23.48-7.09,23.82-2.8S297.81,192.91,291.15,187.83Z" style="fill:#ECEFF1;opacity:0.1"></path><path d="M327,170.86c1.83-.62,2.23,6,1.67,8.57-.65,3-3.3,7.07-4.69,5.26S324.65,171.66,327,170.86Z" style="fill:#ECEFF1;opacity:0.1"></path><path d="M185.33,323.27c-.67,13.28-3.45,38.65-45.46,50.85C104.06,384.53,76,363.2,75.34,353.07Z" style="fill:#ECEFF1"></path><path d="M185.33,323.27c-.67,13.28-3.45,38.65-45.46,50.85C104.06,384.53,76,363.2,75.34,353.07Z" style="opacity:0.8"></path><path d="M183.09,316.92c4-12-22.21-25.35-60-15.36s-52.49,36-45.29,42.64a11.15,11.15,0,0,0-1.72,11.47c2.76,6.56,22.34,17.76,62.88,6.23,38.57-11,45.88-33.44,46.35-38.63A7.82,7.82,0,0,0,183.09,316.92Z" style="fill:#ECEFF1"></path><g style="opacity:0.7000000000000001"><path d="M183.09,316.92c4-12-22.21-25.35-60-15.36s-52.49,36-45.29,42.64a11.15,11.15,0,0,0-1.72,11.47c2.76,6.56,22.34,17.76,62.88,6.23,38.57-11,45.88-33.44,46.35-38.63A7.82,7.82,0,0,0,183.09,316.92Z"></path></g><path d="M183.09,316.92c-7.06,6.66-16.53,9-25.38,10.81a110.75,110.75,0,0,1-13.42,1.66c-13.68.56-26.94-1.82-41.09.89C93.86,332,84.13,336.6,77.82,344.2a48.08,48.08,0,0,1,25.45-10.27c13.55-1.6,26.94,1,40.7-.09a89,89,0,0,0,14.09-2.51c9-2.53,19.26-6.31,25-14.41Z" style="opacity:0.30000000000000004"></path><path d="M172.78,305.51a37.31,37.31,0,0,0-11.56-4.76c-9.18-2.32-19.27-2.33-29.28-.62l-5.46,1.12c-2.24.6-4.53,1.25-6.77,1.9-1.94.67-4.72,1.72-6.67,2.43-2.61,1.12-5.21,2.32-7.79,3.53l-5,2.76a110.86,110.86,0,0,0-9.6,6.23c4.95-2.18,10.35-4.63,15.4-6.63a145.65,145.65,0,0,1,26-7.39c14-2.36,28.16-2.39,40.79,1.43Z" style="fill:#ECEFF1;opacity:0.2"></path><path d="M179.69,322.13c-14.22,9.75-29,13.72-44.8,12.21-15-.67-32.5-2.86-47.19,5.66,7.71-2.88,15.54-3.3,23.27-3.17s15.3,1,23.11,1.43c4.87.23,10,.45,15.14-.47a58,58,0,0,0,30.47-15.66Z" style="fill:#ECEFF1;opacity:0.2"></path><path d="M77.19,348.87c-1.44,4.87,9.91,15.66,24.49,14.24s34.9-12.3,31.48-17.81S80.77,336.74,77.19,348.87Z" style="fill:#ECEFF1;opacity:0.1"></path><path d="M92.16,321.61c-1.23-2.64-8.85,3.83-11.07,7.13-2.58,3.82-4.26,11-.84,10.6S93.74,325,92.16,321.61Z" style="fill:#ECEFF1;opacity:0.1"></path><path d="M321.25,421.71c-41.11,4.77-68.26-16.7-62.8-27.1a11.65,11.65,0,0,1-5-8.74.13.13,0,0,1,0-.06c-2-11.55,12.66-50.62,51.82-54.1,46-4.1,63.74,26.65,68.11,41a10.44,10.44,0,0,1-.5,7.94C380.29,392.26,362.36,416.94,321.25,421.71Z" style="fill:#ECEFF1"></path><g style="opacity:0.8"><path d="M321.25,421.71c-41.11,4.77-68.26-16.7-62.8-27.1a11.65,11.65,0,0,1-5-8.74.13.13,0,0,1,0-.06c-2-11.55,12.66-50.62,51.82-54.1,46-4.1,63.74,26.65,68.11,41a10.44,10.44,0,0,1-.5,7.94C380.29,392.26,362.36,416.94,321.25,421.71Z"></path></g><g style="opacity:0.2"><path d="M321.25,421.71c-41.11,4.77-68.26-16.7-62.8-27.1a11.65,11.65,0,0,1-5-8.74.13.13,0,0,1,0-.06,19.83,19.83,0,0,1,.11-6.11,10,10,0,0,0,4.21,6.68C253,395.43,276.65,414.11,312.4,410s51.37-25.63,44.93-35.69a9.12,9.12,0,0,0,.43-6.91C354.31,356,341.37,333,309.24,331.43c43.08-2,59.91,27.35,64.14,41.32a10.44,10.44,0,0,1-.5,7.94C380.29,392.26,362.36,416.94,321.25,421.71Z"></path></g><path d="M259.19,370.48a44,44,0,0,1,5.74-10.56,61.8,61.8,0,0,1,18.65-17.17l3.93-2.17c1.66-.77,3.37-1.52,5.05-2.25,1.5-.55,3.67-1.25,5.18-1.76,2.09-.54,4.2-1,6.3-1.47l4.24-.54a59.65,59.65,0,0,1,8.45-.24c-4,1-8.35,2-12.33,3.2A94.37,94.37,0,0,0,285,346.09a79.6,79.6,0,0,0-25.79,24.39Z" style="fill:#ECEFF1;opacity:0.2"></path><path d="M184.55,424c9.58,11.59,37.8,33.12,78.68,11.58,34.85-18.37,33.28-60.2,26.9-70Z" style="fill:#ECEFF1"></path><path d="M184.55,424c9.58,11.59,37.8,33.12,78.68,11.58,34.85-18.37,33.28-60.2,26.9-70Z" style="opacity:0.8"></path><path d="M182,416.49c-11.31-7.81-4.29-37.49,31.8-57.76s69.42-10.93,68.4.76c0,0,6.82,1,9.16,9.1s-5.21,33.57-44.49,54.59c-37.38,20-58.37,5.21-62.28.84A10.48,10.48,0,0,1,182,416.49Z" style="fill:#ECEFF1"></path><g style="opacity:0.7000000000000001"><path d="M182,416.49c-11.31-7.81-4.29-37.49,31.8-57.76s69.42-10.93,68.4.76c0,0,6.82,1,9.16,9.1s-5.21,33.57-44.49,54.59c-37.38,20-58.37,5.21-62.28.84A10.48,10.48,0,0,1,182,416.49Z"></path></g><path d="M182,416.49c10,.58,18.94-4.65,27-9.88a111.47,111.47,0,0,0,11.53-8.93c11-10.12,19.64-22.61,32.46-31.14,8.38-5.74,19.09-9.08,29.17-7.05-10,.29-19.1,4.28-26.73,10.43-11.6,9.08-20.21,21.86-31.61,31.57a89,89,0,0,1-12.63,8.68c-8.72,4.7-19.24,9.22-29.23,6.32Z" style="opacity:0.30000000000000004"></path><path d="M179.53,403.08a47.35,47.35,0,0,1,5.21-13.42,76.45,76.45,0,0,1,21-23.87l4.75-3.36c2.06-1.25,4.17-2.5,6.25-3.71,1.88-1,4.63-2.24,6.53-3.16,2.68-1.09,5.4-2.11,8.11-3.08l5.56-1.57a93.43,93.43,0,0,1,11.28-2.13c-5.11,2-10.74,4.14-15.79,6.4-8.35,4-16.72,8.52-24,14.14-11.82,9-22.22,20.32-28.85,33.76Z" style="fill:#ECEFF1;opacity:0.2"></path><path d="M188.14,418.6c17.68-2.17,31.86-10.07,43.06-23.72,11.19-12.3,23.24-27.88,40.43-31.54-7.94,3.37-14.29,9.09-20.2,15.2s-11.18,12.81-16.93,19.29c-3.62,4-7.47,8.21-12.05,11.34-9.92,6.84-22.4,10.57-34.31,9.43Z" style="fill:#ECEFF1;opacity:0.2"></path><path d="M285.16,364c4.62,2.46,4.36,18.62-7.22,28.33s-34.29,16.81-35.88,10.31S273.63,357.87,285.16,364Z" style="fill:#ECEFF1;opacity:0.1"></path><path d="M253.3,352.64c-1.06-2.82,9.21-3.75,13.25-3,4.68.86,11.16,4.79,8.41,7.05S254.65,356.26,253.3,352.64Z" style="fill:#ECEFF1;opacity:0.1"></path></g></svg>
