<svg xmlns="http://www.w3.org/2000/svg" viewBox="0 0 500 500"><g id="freepik--background-complete--inject-199"><path d="M359.28,290.47a32.46,32.46,0,0,0-1,14.2c1.48,9.95,9,17.83,10.59,27.63-.2,1.18-.44,2.36-.76,3.55,0,0,0,0,0,.06a0,0,0,0,0,0,0h0v0a.13.13,0,0,0,.09.1c.07-.13.13-.27.19-.4s.23-.49.33-.74.29-.7.42-1.06c0,0,.08-.16.08-.21,3.65-10.06.3-21.22-1.4-31.44-1-5.84-.56-11.73-1.44-17.55-.21-1.39-.19-4-2.19-3.49C361.93,281.79,359.85,288.6,359.28,290.47Z" style="fill:#ebebeb"></path><path d="M360.75,299.05c-.64,12.11,10.53,22.7,7.94,34.79-.09.34-.17.68-.26,1s-.13.46-.2.69h0c0,.1-.06.19-.1.29s0,0,0,.06a0,0,0,0,0,0,0h0v0a.13.13,0,0,0,.09.1h0a.1.1,0,0,0,.1-.07c.14-.36.27-.72.38-1.08a15.22,15.22,0,0,0,.61-2.68h0a38.75,38.75,0,0,0-.24-16.21c-1.39-6.87-3.14-13.54-4.39-20.48-.16-.86-.16-4.24-1.54-3.79C361.42,292.33,360.82,297.65,360.75,299.05Zm.59-1.8c.11-.68,1-5.23,2.12-4.76.67.28.76,3.73.86,4.22.41,1.87.8,3.73,1.21,5.61.86,3.93,1.74,7.86,2.59,11.8a52.16,52.16,0,0,1,1.35,14.55C368.84,318.07,359.58,308.24,361.34,297.25Z" style="fill:#fff"></path><path d="M356.38,406.71c0,.16.13.38.35.24,9.17-5.9,20.61-1.1,30.1-6.37a48.54,48.54,0,0,0,10.2-8.15,38.72,38.72,0,0,0,6.21-7.38c.22-.37,1.39-1.87,1.2-2.62-1.46-5.65-16.14,3.92-18.61,5.27-9.6,5.24-18.39,10-26.81,16.74-.88.69-1.75,1.41-2.62,2.15C356.37,406.61,356.37,406.66,356.38,406.71Z" style="fill:#ebebeb"></path><path d="M356.38,406.71c.33-.21.66-.43,1-.63,6.3-3,13.32-4.09,20.1-5.82a37.78,37.78,0,0,0,17.77-9.57c.89-.88,4.62-4.24,3.52-5.93-1-1.52-4.74,1.41-5.65,1.93-6.82,3.82-13.5,7.7-20.61,11-4.55,2.11-9.16,4.21-13.49,6.76-.88.69-1.75,1.41-2.62,2.15C356.37,406.61,356.37,406.66,356.38,406.71Zm4.28-2.56c5-2.8,10.29-5.14,15.51-7.62,3.59-1.7,7.09-3.54,10.53-5.53,1.88-1.09,3.75-2.2,5.64-3.28,1-.54,1.9-1.08,2.86-1.59.48-.26,2.05-1.16,2.45-.44,1.08,2-9.45,12-22.52,14.55A82,82,0,0,0,360.66,404.15Z" style="fill:#fff"></path><path d="M371.63,389.34a.08.08,0,0,0,0,.12.1.1,0,0,0,.14,0l.56-.55c.7-.69,1.37-1.38,2-2.08l.36-.39.1,0c7.33-7.5,18.43-9.79,24.68-18.47A42.08,42.08,0,0,0,405.39,355c.58-2,3.4-8,.92-9.52-1.92-1.2-4.93,1.42-6.19,2.54-4,3.54-6.82,8.5-9.6,13s-5.2,8.92-7.79,13.39a86.28,86.28,0,0,1-8.2,11.46Q373.11,387.62,371.63,389.34Z" style="fill:#ebebeb"></path><path d="M371.63,389.34a.08.08,0,0,0,0,.12c.6-.63,1.2-1.26,1.8-1.87-.37.43-.74.87-1.1,1.31.7-.69,1.37-1.38,2-2.08.32-.38.65-.75,1-1.12a118,118,0,0,1,13.5-11.2,24.7,24.7,0,0,0,6.08-6c3.08-4.41,7.84-14.77,6.92-16.33s-2.83,1.74-3.37,2.46c-4.26,5.81-7.72,12.13-12.31,17.73-3.08,3.76-6.21,7.49-9.34,11.23-.78.76-1.56,1.53-2.3,2.33Q373.11,387.62,371.63,389.34Zm29.52-36.82c.81.33-.42,3.11-.74,3.85a114.43,114.43,0,0,1-5.15,10.49c-2,3.58-4.9,5.94-8.22,8.26a88.15,88.15,0,0,0-7.92,6.3c3.1-3.51,6.17-7.06,9-10.74,2.38-3.06,4.45-6.33,6.55-9.59,1-1.63,2.09-3.24,3.21-4.82.3-.43,2.52-4.06,3.24-3.75" style="fill:#fff"></path><path d="M317,435.57a.08.08,0,0,0,.08.08s.08,0,.1-.07c0-.24.09-.46.13-.7.17-.85.31-1.7.44-2.55,0-.15.05-.3.07-.46a.35.35,0,0,0,.05-.08c1.62-9.21,8.63-16.5,8.85-26a37.53,37.53,0,0,0-2.17-12.45c-.57-1.73-1.51-7.57-4.12-7.47-2,.09-2.92,3.54-3.28,5-1.15,4.62-.73,9.69-.51,14.4s.67,9.19,1,13.79a76.19,76.19,0,0,1-.25,12.56C317.3,432.9,317.16,434.23,317,435.57Z" style="fill:#ebebeb"></path><path d="M317,435.57a.08.08,0,0,0,.08.08c.12-.76.25-1.53.38-2.29l-.15,1.52c.17-.85.31-1.7.44-2.55l.15-1.31a104.45,104.45,0,0,1,4.3-15,22.29,22.29,0,0,0,1.43-7.51c0-4.79-1.68-14.81-3.14-15.5s-1.21,2.71-1.24,3.51c-.21,6.43.43,12.82-.12,19.25-.37,4.33-.8,8.65-1.21,13-.2,1-.38,1.92-.52,2.88C317.3,432.9,317.16,434.23,317,435.57Zm1.52-9.6c.51-4.15,1-8.3,1.24-12.46.2-3.45.07-6.9,0-10.35-.05-1.73-.1-3.45-.07-5.17,0-.47-.19-4.26.49-4.4s1.27,2.51,1.4,3.21c.64,3.38,1.2,6.87,1.5,10.31.32,3.66-.61,6.85-1.88,10.23A77.89,77.89,0,0,0,318.54,426Z" style="fill:#fff"></path><path d="M316,443.21a1.42,1.42,0,0,0,.72-.25c9.38-3.59,19.64-3.75,29.06-7.34a27.37,27.37,0,0,0,11-7.21c1.26-1.43,5.62-6.35,4.65-8.63-2.87-6.86-34.52,14.75-44.93,22.52a2.08,2.08,0,0,0-.48.32C315.62,442.92,315.67,443.19,316,443.21Z" style="fill:#ebebeb"></path><path d="M316,443.21l2.1-1.15c2.28-.92,4.57-1.79,6.92-2.53,3.72-1.17,7.54-1.86,11.32-2.81a36,36,0,0,0,15.81-8.45c1-.9,3.87-3.28,3.24-4.95s-2.94,0-3.78.37c-11.9,5.68-23.48,12.21-35,18.63l-.6.3C315.62,442.92,315.67,443.19,316,443.21Zm5.53-3q6.78-3.69,13.57-7.32,5.32-2.85,10.68-5.65c1.76-.92,3.5-1.87,5.29-2.76.7-.35,3.41-1.73,3.66-.75s-1.62,2.8-1.95,3.15c-5.35,5.5-12.21,8.33-19.57,10A86.68,86.68,0,0,0,321.49,440.18Z" style="fill:#fff"></path><path d="M360.91,363.94a.41.41,0,0,0-.05.36.45.45,0,0,0,.41.29.5.5,0,0,0,.27,0,.2.2,0,0,0,.16-.06c4.43-4.33,11.2-8.36,15.75-12.52a48.13,48.13,0,0,0,8.79-11.08,64.65,64.65,0,0,0,6.48-14.42c.72-2.4,2.79-8.07.84-10.43-4-4.86-12.1,12.81-13.27,14.79C373.79,341.86,367.29,352.87,360.91,363.94Z" style="fill:#ebebeb"></path><path d="M360.86,364.3a.45.45,0,0,0,.41.29l.78-1.12c1.73-2,3.47-4.07,5.32-6,3-3.17,6.44-5.9,9.34-9.16,5.05-5.68,14.53-23.77,11.81-25.58-1.42-.94-3.18,2.79-3.7,3.67-2,3.48-3.62,7.2-5.71,10.66-2.17,3.64-4.57,7.15-6.95,10.66-3.68,5.39-7.37,10.77-11,16.21C361.06,364.05,361,364.18,360.86,364.3Zm3.64-4.38c3.27-4.77,6.49-9.57,9.74-14.36,2.23-3.31,4.44-6.65,6.43-10.12,1.11-1.94,2.1-3.94,3.1-5.95.49-1,1-1.95,1.53-2.89s2.25-4.19,3.05-3-1.6,6.53-2.17,7.77c-.92,2-1.87,4-2.89,6A51.91,51.91,0,0,1,376,348.26c-2.93,3.24-6.36,6-9.32,9.2C366,358.27,365.22,359.08,364.5,359.92Z" style="fill:#fff"></path><path d="M307.8,372.75c8.14,8.86,21.29,11.32,26.09,26.84a.06.06,0,0,0,.11,0,0,0,0,0,0,0-.06c-.3-1.56-.65-3.12-1.07-4.67a67.86,67.86,0,0,0-11.26-23.27,51.39,51.39,0,0,0-11-10.78c-2.15-1.52-6.79-5.39-9.47-4.79C295.43,357.33,306.31,371.15,307.8,372.75Z" style="fill:#ebebeb"></path><path d="M308.28,367.3c3.29,6.44,9.8,10.61,14.78,15.62a58.58,58.58,0,0,1,9,11.41c.67,1.74,1.32,3.49,1.93,5.28a0,0,0,0,0,0-.06c-.3-1.56-.65-3.12-1.07-4.67l-.14-.25a71.67,71.67,0,0,0-6.77-13.54,74.53,74.53,0,0,0-13.43-15.93c-.9-.81-3.86-4.32-5.4-3.42S307.82,366.41,308.28,367.3Zm-.55-5c1.12-.43,6.35,4.77,8.4,6.89a74.26,74.26,0,0,1,11.35,15.2,71.82,71.82,0,0,1,3.58,7.4,58.63,58.63,0,0,0-5.9-7.37c-4.49-4.82-10.11-8.67-14.18-13.84a20.88,20.88,0,0,1-2.7-4.4C308,365.56,306.71,362.69,307.73,362.31Z" style="fill:#fff"></path><path d="M317.9,324.44a55.68,55.68,0,0,0-.09,13A54.52,54.52,0,0,0,326.33,361c.08.13.16.26.25.39.07.41.15.82.25,1.23l.06.28,0,.06h0a.11.11,0,0,0,.19-.08c0-.51,0-1,0-1.53.17-10.49,2.11-20.76.7-31.26-.31-2.29-1.81-17.31-7.05-14.74C318.33,316.49,318.17,322.25,317.9,324.44Z" style="fill:#ebebeb"></path><path d="M320,326.55c-.36,6.46,1.34,13.4,2.67,19.7a148.91,148.91,0,0,0,3.67,14.7c.12.4.25.8.38,1.19l.12.43c0,.11.05.22.08.34h0a.11.11,0,0,0,.19-.08c0-.51,0-1,0-1.53s-.21-.77-.31-1.16a123.44,123.44,0,0,1-.65-17.22c0-3.13,0-6.24-.29-9.35a42.18,42.18,0,0,0-1.33-9.09c-.41-1.25-1.26-3.73-3-2.81C320,322.44,320.08,325.18,320,326.55Zm3.86-2.19c1.11,3.4,1.27,7.39,1.51,10.94.24,3.4.2,6.82.17,10.23a107,107,0,0,0,.25,10.89c-1.24-4.54-2.43-9.1-3.32-13.77-.69-3.65-1.3-7.32-1.73-11a28.13,28.13,0,0,1-.18-5.73,16.64,16.64,0,0,1,.27-2C321.28,321.79,323.35,322.83,323.85,324.36Z" style="fill:#fff"></path><path d="M382.3,297.19c0,.17-.06.34-.1.51a.3.3,0,0,0,.39.34.31.31,0,0,0,.23-.24l.21-.91h0c.06-.25.12-.48.17-.73.23-.41.47-.81.73-1.19,2.78-4.21,7.6-7.77,10.87-11.36a66.21,66.21,0,0,0,8.08-10.5,32.63,32.63,0,0,0,4.68-12.52c.15-1.2.72-4.24-.78-5-1.9-1-4.8,2.69-5.83,3.64a54.65,54.65,0,0,0-9.07,11.26C386.79,278.75,384.19,287.77,382.3,297.19Z" style="fill:#ebebeb"></path><path d="M383.15,295.11a20.63,20.63,0,0,0-.85,2.08c0,.17-.06.34-.1.51a.3.3,0,0,0,.39.34c0-.12.07-.24.12-.36s.21-.53.32-.79h0q.42-1,.9-1.92a43.5,43.5,0,0,1,4.08-6.49c2.67-3.56,5.47-7,8-10.69,1.27-1.84,11-16,7.2-17.33-.72-.26-1.42.71-1.81,1.11a30.11,30.11,0,0,0-3.51,4.74Q394.23,272,391,278.06A126.09,126.09,0,0,0,383.15,295.11Zm7-14.61c1.87-3.54,3.85-7,5.91-10.43,1-1.66,2-3.34,3.11-4.95.55-.8,3.3-4.39,4-3.92,1.1.69-1.52,6.28-2.31,7.78-.91,1.72-1.9,3.39-2.94,5-2.09,3.3-4.4,6.46-6.77,9.57-2.09,2.75-4.59,5.67-6.55,8.83A128.22,128.22,0,0,1,390.14,280.5Z" style="fill:#fff"></path><path d="M348.71,346.4c.05.17.11.32.16.49a.31.31,0,0,0,.52.1.3.3,0,0,0,.07-.32l-.27-.9h0c-.08-.25-.15-.48-.22-.73,0-.46,0-.93,0-1.39.29-5,2.68-10.54,3.7-15.28a66.08,66.08,0,0,0,1.72-13.13,32.58,32.58,0,0,0-2.23-13.18c-.47-1.12-1.51-4-3.19-3.93-2.12.12-2.8,4.73-3.21,6.06a55,55,0,0,0-2.2,14.3C343.34,328.2,345.62,337.3,348.71,346.4Z" style="fill:#ebebeb"></path><path d="M348.4,344.17a18.4,18.4,0,0,0,.31,2.23c.05.17.11.32.16.49a.31.31,0,0,0,.52.1c0-.12-.06-.25-.08-.37,0-.28-.09-.56-.12-.85h0c-.09-.71-.15-1.41-.19-2.12a43.17,43.17,0,0,1,.27-7.66c.52-4.42,1.21-8.82,1.56-13.26.18-2.23,1.54-19.37-2.46-18.61-.76.14-.88,1.33-1,1.87a29.64,29.64,0,0,0-.66,5.86c-.2,4.54-.22,9.11-.1,13.65A124.24,124.24,0,0,0,348.4,344.17ZM347.12,328c-.17-4-.19-8-.12-12,0-1.94.06-3.9.2-5.85.07-1,.65-5.44,1.53-5.41,1.31,0,1.85,6.19,1.91,7.89.07,1.94.05,3.88,0,5.82-.15,3.9-.56,7.8-1.05,11.67-.43,3.43-1.13,7.21-1.24,10.93A127,127,0,0,1,347.12,328Z" style="fill:#fff"></path><path d="M325.82,353.44a243.76,243.76,0,0,0,5.53,26.92c1.86,6.86,3.73,13.83,4,21,.32,8.53-2.15,18-6.49,26.19q3.76-4.18,7.43-8.51c5-5.86,10-11.87,13.5-18.74.35-.68.67-1.37,1-2.06a.18.18,0,0,1,0-.16,93.26,93.26,0,0,0,1.79-27.64,77.25,77.25,0,0,0-6-13.83c-2.51-4.55-4.91-9-6.24-14a.24.24,0,0,1,.45-.17c2.55,6.69,7.79,13.19,10.87,20.13-.17-1.14-.36-2.29-.57-3.44-2-11-5.81-22-1.79-33,.13-.36.66-.11.55.25C346,338.56,352,352,353.72,364.17c1.31,9,1.75,18.76-.44,27.76a143.83,143.83,0,0,0,4-15.19c6.91-30.8,14.9-61.43,29.88-89.42.14-.28.58-.09.44.19-15.33,30.38-21.41,63.4-29.39,96.14-.09.37-.19.74-.28,1.11a62,62,0,0,1,9.62-11.64c.18-.17.46.05.3.25-4.39,5.63-7.74,11.78-11.7,17.66a64.35,64.35,0,0,1-5.72,13.18,103.13,103.13,0,0,1-10.2,13.94c6.25-5.24,12.57-10.42,18.45-16.13a278.53,278.53,0,0,0,25-27.51c.11-.14.32,0,.21.18A233,233,0,0,1,359,404.38c-7.78,7.74-16.12,15.63-25.46,21.57-8.93,10.29-18.48,20.61-29.78,28.14a.49.49,0,0,1-.58-.8c2.08-1.84,4.1-3.72,6.11-5.61,1.95-4.35,4.65-8.35,6.38-12.85a70.89,70.89,0,0,0,4.14-16.39c.06-.42.66-.31.64.09-.47,7.67-2.19,17.11-6.29,24.43q4.29-4.23,8.41-8.61c7.34-11.21,12.11-24.52,10.51-37.93-.82-6.89-2.8-13.54-4.42-20.27a150.41,150.41,0,0,1-3.38-22.65A.26.26,0,0,1,325.82,353.44Z" style="fill:#ebebeb"></path><path d="M152.77,310c1.58,4.36,1.26,9.74,1.06,14.28A112.3,112.3,0,0,1,152,339.81c-.86,4.78-2,9.51-3.14,14.21l0,.13-.24.92c0,.38-.09.77-.16,1.16a.23.23,0,0,1-.2.2.19.19,0,0,1-.24-.22c0-.21.05-.42.06-.63.77-8.82-4.32-16.87-4.63-25.61-.17-4.79,1-9.59,1.88-14.27.49-2.59.62-5.95,1.62-8.38.27-.65.33-1.34,1.06-1.69C150.22,304.58,152.22,308.48,152.77,310Z" style="fill:#ebebeb"></path><path d="M150.68,313.28c-1.39-1.14-2.2,2-2.47,2.88-1.82,5.83-2.84,12.77-1.8,18.79,1.13,6.63,2.34,13.26,1.85,20-.07.21-.13.43-.2.65s0,.42-.06.63a.19.19,0,0,0,.24.22c0-.14,0-.27.06-.4.2-.62.37-1.25.54-1.88l0-.13a129.8,129.8,0,0,0,2.32-13.75,89.34,89.34,0,0,0,1-19.46,43.36,43.36,0,0,0-.59-4.68C151.51,315.36,151.36,313.83,150.68,313.28Zm.78,3.92c.25,1.64.41,3.29.5,4.95a90.51,90.51,0,0,1-1,17.09,126.41,126.41,0,0,1-2.43,14.65,51.89,51.89,0,0,0-.49-11.47c-.4-2.86-1-5.68-1.42-8.54a32.1,32.1,0,0,1,.34-9.63,41.15,41.15,0,0,1,1.93-8.92c.23-.56.87-1.82,1.36-1.73C151.13,313.75,151.37,316.56,151.46,317.2Z" style="fill:#fff"></path><path d="M113.15,377.39s0,0,0,0" style="fill:#ebebeb"></path><path d="M148.47,438.33a.2.2,0,0,1,.1.26h0a.24.24,0,0,1-.18.17.29.29,0,0,1-.18,0c-5.4-2.73-10.55-7.07-16.81-7.39-4.89-.26-9.09.35-13.74-1.66a36.89,36.89,0,0,1-12.43-8.91,39.05,39.05,0,0,1-4.24-5.6c-.59-1-2.52-3.34-2.25-4.57,1.26-5.74,18.29,4.47,20.55,5.84,10,6.09,20.2,13,28.56,21.22a.1.1,0,0,1,0,.09.13.13,0,0,1-.06.1Z" style="fill:#ebebeb"></path><path d="M148.47,438.33l-.66-.46a.13.13,0,0,0,.06-.1c-5.53-4.19-11.4-8-17.3-11.67a172.5,172.5,0,0,0-19.62-11c-.93-.43-4.8-2.74-5.61-1.24s3.21,4.94,4.07,5.7c5,4.52,11.63,6.59,18,8.46,4.14,1.22,8.2,2.37,11.91,4.66,3.11,1.92,6,4.18,9.07,6.12a.24.24,0,0,0,.18-.17c-1.58-1-3.1-2.11-4.63-3.2,1.55,1.05,3.09,2.12,4.63,3.19A.2.2,0,0,0,148.47,438.33Zm-13.95-8.53c-6.19-2.42-12.84-3.48-18.81-6.53a26.43,26.43,0,0,1-7.71-5.72c-.42-.45-2.44-2.48-2-3.29.31-.54,1.92,0,2.15.05a48.39,48.39,0,0,1,5.15,2.3c5.84,3,11.5,6.34,17.06,9.79,3.09,1.92,6.11,3.91,9.11,6A30.23,30.23,0,0,0,134.52,429.8Z" style="fill:#fff"></path><path d="M123.85,319.56c.67,5.17-.37,10.57-1.78,15.56-3.28,11.52-9.6,22.22-11.6,34.1-.08.47-.15.94-.21,1.4.1.62,0,.47-.17-.26h0c-.87-3.16-3.87-17.09-2.5-27.09.87-6.23,3-12.13,5.17-18,1.23-3.35,2.44-6.72,3.69-10.06.41-1.08,1-4.14,2.6-4.38C122.18,310.35,123.58,317.53,123.85,319.56Z" style="fill:#ebebeb"></path><path d="M118.4,320.59A1.06,1.06,0,0,0,117,321a5.3,5.3,0,0,0-.68,2c-.32,1.23-.64,2.44-1,3.66-2.18,8.44-5.12,17-5.93,25.76a72.22,72.22,0,0,0,.62,17.37c0,.19,0,.38,0,.57h0c.19.73.27.88.17.26.06-.46.13-.93.21-1.4,0-.65,0-1.29.06-1.94a53.14,53.14,0,0,1,3-13.1,132.06,132.06,0,0,0,6-24.85,26.07,26.07,0,0,0,.19-5.72C119.52,322.75,119.31,321.05,118.4,320.59Zm.76,2.73a7.57,7.57,0,0,1,.12,1.26,22,22,0,0,1-.06,2.69,60.92,60.92,0,0,1-.87,6.45,179.12,179.12,0,0,1-5.9,22.34,48.2,48.2,0,0,0-2.32,11.2c-.31-3.21-.49-6.42-.48-9.61,0-8.23,2.32-16,4.35-23.91.51-1.95,1-3.91,1.51-5.86.25-1,.5-2,.76-2.93l.37-1.47c.25-1,.1-1.4,1.2-1.7C119.19,321.41,119,322.18,119.16,323.32Z" style="fill:#fff"></path><path d="M132.05,367.72a65.43,65.43,0,0,1,3.15,11.82c1.34,8.09.1,17.43,2.22,25.48.19.53.36,1.07.51,1.61.06.2.11.4.16.6a.11.11,0,0,1-.2.07c-.17-.34-.33-.68-.51-1h0c-.08-.18-.18-.36-.27-.54-4-7.84-9.15-15-10.85-23.82-1-5.41-2.73-20.35.84-21.48C128.69,359.91,131.18,365.4,132.05,367.72Z" style="fill:#ebebeb"></path><path d="M128.8,368.51c-.86.41-.82,2.08-.88,2.78a34.59,34.59,0,0,0,.2,5.57,55.79,55.79,0,0,0,2,10.15,110,110,0,0,0,7,18.71c.09.18.19.36.27.54h0c.18.35.34.69.51,1a.11.11,0,0,0,.2-.07c-.05-.2-.1-.4-.16-.6-2.64-6.91-3.74-14.17-4.66-21.52C133.07,383.46,131.74,367.12,128.8,368.51Zm2.67,6.63c.26,1.54.47,3.09.68,4.64.48,3.61.89,7.24,1.41,10.85A83.19,83.19,0,0,0,136,402.3,141.48,141.48,0,0,1,131.11,389a74.93,74.93,0,0,1-2.21-9.1,40.77,40.77,0,0,1-.52-5.05c0-.81-.37-5.49.6-5.89C130.18,368.44,131.36,374.48,131.47,375.14Z" style="fill:#fff"></path><path d="M166.21,351.77c2,2.43,1,7.27,0,9.82a23.16,23.16,0,0,1-7.39,9c-4.45,3.52-9.42,6.23-13.16,10.58s-2.53,3-5.13,8.52c-.05.11-.16.11-.24,0a1,1,0,0,1-.16-.88.89.89,0,0,1,0-.15c2.4-9.07,7-16.21,13.22-23.29,3.5-4,5.61-9.1,9.26-13C164,350.94,164.85,350.09,166.21,351.77Z" style="fill:#ebebeb"></path><path d="M164.12,356.54c-1.34-.63-3,2.08-3.7,3.06a56.71,56.71,0,0,1-6.38,8.1,71,71,0,0,0-6.22,6.65,45.55,45.55,0,0,0-6.76,12.15,21,21,0,0,0-1,2.28,1,1,0,0,0,.16.88l.09-.3a31.22,31.22,0,0,1,11-14.18c5.08-3.85,9.87-8.12,12.59-14C164.42,360.1,165.35,357.13,164.12,356.54Zm-.22,3.85a23.54,23.54,0,0,1-1.51,3,30.87,30.87,0,0,1-3.59,4.83,56,56,0,0,1-8,7,33.93,33.93,0,0,0-8.38,8.92,46.46,46.46,0,0,1,6.31-10.31c2.29-2.81,5.09-5.08,7.45-7.81,1.08-1.26,2-2.61,3-4l1.54-2.2c.46-.65,1.91-3,2.89-2.78C164.85,357.24,164.08,360,163.9,360.39Z" style="fill:#fff"></path><path d="M83.11,328.87c8,9.06,15.48,18.58,22.57,28.37a.3.3,0,0,1,0,.38.09.09,0,0,1,0,.06,1.62,1.62,0,0,1,.13.19.13.13,0,0,1,0,.19l0,0h0a.16.16,0,0,1-.14,0c-5-4.9-9.71-9.49-16-12.73-5.76-3-11.43-5.42-16.44-9.63-4.26-3.61-16.37-21.39-14.4-25.64C60,307.19,76.72,321.67,83.11,328.87Z" style="fill:#ebebeb"></path><path d="M73.18,322.82c-1.05-1-4.12-5-6.08-4.18s1.17,4.83,1.75,5.68A57.1,57.1,0,0,0,76,333.14c2.71,2.64,5.92,4.39,9,6.45,7.69,5.09,14.48,11.7,20.66,18.49h0l0,0a.13.13,0,0,0,0-.19,1.62,1.62,0,0,0-.13-.19.09.09,0,0,0,0-.06C96,345,84.54,333.86,73.18,322.82ZM105,357.22A130.56,130.56,0,0,0,91.36,344c-5.66-4.74-12.49-7.79-17.38-13.42a43.67,43.67,0,0,1-6.41-8.89c-.22-.43-1-1.88-.47-2.45s1.85.12,3.58,1.7c1.43,1.32,2.79,2.72,4.18,4.08,5.47,5.34,10.91,10.71,16.16,16.27Q98.33,349,105,357.22Z" style="fill:#fff"></path><path d="M116.48,395.25a.18.18,0,0,1,0,.14.21.21,0,0,1-.26.13l-.77-.24s0,0-.07,0c-5.73-.74-10.39.23-15.91,1.64a25.31,25.31,0,0,1-12.41,0,42.19,42.19,0,0,1-12.52-5.65c-1.57-1-6.61-3.27-5.79-6,1.35-4.55,16.64,1.37,19.29,2.23a119.93,119.93,0,0,0,14.32,3.83c4.79.93,9.59,1.72,14,3.8A.16.16,0,0,1,116.48,395.25Z" style="fill:#ebebeb"></path><path d="M113.44,394.56s0,0,0,0c-2.77-.64-5.53-1.38-8.33-1.87-3.13-.55-6.33-.48-9.47-1-5.88-1-11.47-3.15-17.28-4.45-.76-.16-2.26-.46-1.86.83.17.56,1,1,1.4,1.32a27.13,27.13,0,0,0,4.1,2.4c4.85,2.31,10.47,4,15.88,3.76,6.27-.29,12.37-1.47,18.57-.13a.18.18,0,0,0,0-.14A18.82,18.82,0,0,0,113.44,394.56Zm-13.59.38a34.53,34.53,0,0,1-19.73-4.65,27.84,27.84,0,0,1-2.53-1.69c-.49-.4-1.18-1.27.66-1,.44.06.86.21,1.29.31,1.5.38,3,.79,4.48,1.22,3.18.9,6.36,1.86,9.6,2.54a59.33,59.33,0,0,0,8.71,1,70.56,70.56,0,0,1,10.49,1.8C108.55,393.94,104.12,394.6,99.85,394.94Z" style="fill:#fff"></path><path d="M100,382.82a.42.42,0,0,1,0,.27.28.28,0,0,1,0,.13.76.76,0,0,1-.11.14l0,0a.4.4,0,0,1-.4,0,18.13,18.13,0,0,1-2.45-1.11c-9.5-3.62-19.23-7.45-27-14.16a62.38,62.38,0,0,1-10.34-11.72c-1.46-2.1-5.46-6.53-4.14-9.48s3.92-1.05,5.7.15a134.11,134.11,0,0,1,13.31,10.05,74.23,74.23,0,0,1,11.13,12.1c3.89,5.3,7.61,10.8,14,13.21A.48.48,0,0,1,100,382.82Z" style="fill:#ebebeb"></path><path d="M82.4,369.39A160.85,160.85,0,0,0,65,353.66c-.79-.64-3.08-2.26-3.43-.44-.42,2.15,2.76,4.69,4,6a122.68,122.68,0,0,0,14.87,13.49,68.35,68.35,0,0,0,19.47,10.54.28.28,0,0,0,0-.13c-11.5-4.27-21.48-11.75-30.18-20.27-2.1-2.06-4.22-4.14-6.14-6.37-.31-.35-2.07-2.75-1.38-3.4s3.08,1.38,3.37,1.63l4.15,3.46a189.47,189.47,0,0,1,14.63,14,46.77,46.77,0,0,0,15.55,11,.42.42,0,0,0,0-.27C93,379.75,87.6,374.92,82.4,369.39Z" style="fill:#fff"></path><path d="M82.48,284A46,46,0,0,1,90,298.23c2.32,8,2.19,16.42,3.34,24.63,0,0,0,.06,0,.09a55.86,55.86,0,0,0,1.3,6.63c.12.46.25.93.39,1.4a.29.29,0,0,1,0,.28.39.39,0,0,1-.19.1.34.34,0,0,1-.2,0h0a.37.37,0,0,1-.22-.22c-.23-.65-.44-1.32-.63-2a.19.19,0,0,1-.11-.09c-4.9-10.25-10.47-20.61-16-30.75a81.68,81.68,0,0,1-6.33-14c-.94-2.89-2.09-7.35,0-10a.64.64,0,0,1,.56-.3C76.47,274.76,79.94,280.52,82.48,284Z" style="fill:#ebebeb"></path><path d="M77.36,284.64c-2.22-.72-1.77,1.91-1.41,3.24a93.82,93.82,0,0,0,3.91,10.35c1.56,3.82,3.17,7.63,4.84,11.4,3.15,7.12,7.54,14.21,9.87,21.68v0h0a.34.34,0,0,0,.2,0,.39.39,0,0,0,.19-.1c-.12-.56-.23-1.12-.35-1.68q-.66-3.31-1.3-6.63s0-.06,0-.09c-2.1-10.64-4.41-21.18-10-30.93C82,289.67,80.09,285.52,77.36,284.64Zm6.63,9.3a77,77,0,0,1,7.06,19.48c1.22,5.37,2,10.82,3.16,16.22-1.55-4.33-3.81-8.45-5.76-12.65q-4.59-9.87-8.66-20-1-2.43-1.93-4.87c-.56-1.45-1.75-3.7-1.76-5.28,0-3.06,2.55-1,3.38-.07a18.44,18.44,0,0,1,1.86,2.61C82.29,290.88,83.17,292.4,84,293.94Z" style="fill:#fff"></path><path d="M150.26,339.28a223,223,0,0,1-6.06,29.61c-2.49,8.92-5.09,17.84-6.3,27-1.61,12.22-.5,25.62,5.73,36.25a144.17,144.17,0,0,1-24.54-41C109,365.94,100,340,87.76,315.73c-.2-.4-.76-.09-.61.31,5,13.27,10.86,26.2,16,39.42s9.79,26.43,15.1,39.47c.57,1.41,1.17,2.8,1.79,4.18-7.79-9.64-19.2-16.75-30.4-20.87-.14-.05-.2.17-.07.22a79.27,79.27,0,0,1,21.6,14.36c5.58,5.14,9.82,11.1,14.31,17.12a121.35,121.35,0,0,0,42.37,44.22.17.17,0,0,0,.18-.29,121.45,121.45,0,0,1-19.59-16.45c-10-13.26-10.49-31-7.5-47.05,1.56-8.43,3.79-16.71,5.79-25.05s4.24-17.27,4-26A.24.24,0,0,0,150.26,339.28Z" style="fill:#ebebeb"></path><path d="M250,350.29A115.38,115.38,0,1,1,365.38,234.92,115.5,115.5,0,0,1,250,350.29Zm0-229.72A114.35,114.35,0,1,0,364.34,234.92,114.47,114.47,0,0,0,250,120.57Z" style="fill:#ebebeb"></path><path d="M250,337.79A102.88,102.88,0,1,1,352.87,234.92,103,103,0,0,1,250,337.79Zm0-204.71A101.84,101.84,0,1,0,351.84,234.92,102,102,0,0,0,250,133.08Z" style="fill:#ebebeb"></path><rect x="181.91" y="58.15" width="1.03" height="19.03" transform="translate(-12.06 73.26) rotate(-22)" style="fill:#ebebeb"></rect><rect x="194.51" y="83.16" width="1.03" height="31.39" transform="translate(-22.83 80.26) rotate(-22)" style="fill:#ebebeb"></rect><rect x="83.43" y="154.92" width="1.03" height="19.03" transform="translate(-100.21 177.46) rotate(-67)" style="fill:#ebebeb"></rect><rect x="114.4" y="161.88" width="1.03" height="31.39" transform="translate(-93.44 213.98) rotate(-67)" style="fill:#ebebeb"></rect><rect x="73.23" y="301.97" width="19.03" height="1.03" transform="translate(-107.29 53.02) rotate(-22)" style="fill:#ebebeb"></rect><rect x="98.25" y="289.37" width="31.39" height="1.03" transform="translate(-100.3 63.79) rotate(-22)" style="fill:#ebebeb"></rect><rect x="170" y="400.45" width="19.03" height="1.03" transform="translate(-259.72 409.54) rotate(-67)" style="fill:#ebebeb"></rect><rect x="176.97" y="369.48" width="31.39" height="1.03" transform="translate(-223.2 402.78) rotate(-67)" style="fill:#ebebeb"></rect><rect x="317.06" y="392.65" width="1.03" height="19.03" transform="translate(-127.53 148.25) rotate(-22)" style="fill:#ebebeb"></rect><rect x="304.45" y="355.28" width="1.03" height="31.39" transform="translate(-116.76 141.26) rotate(-22)" style="fill:#ebebeb"></rect><rect x="415.53" y="295.88" width="1.03" height="19.03" transform="translate(-27.64 569.05) rotate(-67)" style="fill:#ebebeb"></rect><rect x="384.56" y="276.56" width="1.03" height="31.39" transform="translate(-34.4 532.53) rotate(-67)" style="fill:#ebebeb"></rect><rect x="407.74" y="166.82" width="19.03" height="1.03" transform="translate(-32.3 168.49) rotate(-22)" style="fill:#ebebeb"></rect><rect x="370.36" y="179.43" width="31.39" height="1.03" transform="translate(-39.3 157.73) rotate(-22)" style="fill:#ebebeb"></rect><rect x="310.97" y="68.35" width="19.03" height="1.03" transform="translate(131.87 336.96) rotate(-67)" style="fill:#ebebeb"></rect><rect x="291.64" y="99.32" width="31.39" height="1.03" transform="translate(95.35 343.73) rotate(-67)" style="fill:#ebebeb"></rect><rect x="249.48" y="30.25" width="1.04" height="46.81" style="fill:#ebebeb"></rect><rect x="249.48" y="87.61" width="1.04" height="16.25" style="fill:#ebebeb"></rect><rect x="121.31" y="83.34" width="1.04" height="46.81" transform="translate(-39.8 117.41) rotate(-45)" style="fill:#ebebeb"></rect><rect x="151.07" y="128.38" width="1.04" height="16.25" transform="translate(-52.12 147.18) rotate(-45)" style="fill:#ebebeb"></rect><rect x="45.33" y="234.4" width="46.81" height="1.04" style="fill:#ebebeb"></rect><rect x="102.7" y="234.4" width="16.25" height="1.04" style="fill:#ebebeb"></rect><rect x="98.42" y="362.57" width="46.81" height="1.04" transform="translate(-221.06 192.49) rotate(-45)" style="fill:#ebebeb"></rect><rect x="143.46" y="332.81" width="16.25" height="1.04" transform="translate(-191.3 204.82) rotate(-45)" style="fill:#ebebeb"></rect><rect x="249.48" y="392.77" width="1.04" height="46.81" style="fill:#ebebeb"></rect><rect x="249.48" y="365.96" width="1.04" height="16.25" style="fill:#ebebeb"></rect><rect x="377.65" y="339.68" width="1.04" height="46.81" transform="translate(-145.98 373.75) rotate(-45)" style="fill:#ebebeb"></rect><rect x="347.89" y="325.2" width="1.04" height="16.25" transform="translate(-133.65 343.96) rotate(-45)" style="fill:#ebebeb"></rect><rect x="407.86" y="234.4" width="46.81" height="1.04" style="fill:#ebebeb"></rect><rect x="381.05" y="234.4" width="16.25" height="1.04" style="fill:#ebebeb"></rect><rect x="354.77" y="106.23" width="46.81" height="1.04" transform="translate(35.28 298.67) rotate(-45)" style="fill:#ebebeb"></rect><rect x="340.29" y="135.99" width="16.25" height="1.04" transform="translate(5.53 286.35) rotate(-45)" style="fill:#ebebeb"></rect><circle cx="250" cy="234.92" r="2.36" style="fill:#ebebeb"></circle></g><g id="freepik--Table--inject-199"><path d="M45.3,454.19c131.15-.61,278.26-.62,409.4,0-131.15.62-278.26.61-409.4,0Z" style="fill:#263238"></path></g><g id="freepik--Plants--inject-199"><path d="M343.83,411.55c-5.11-6.59-10.93-13.86-10.57-22.62.33-8.09,3-17.05,10.47-21.35,2.12-1.23,3.66-1.65,4.34,1.08,1,4.15-.73,9.2-1.62,13.23a84,84,0,0,0-2.15,15.79c-.12,3.74.16,7.48.13,11.22,0,.47,0,.94,0,1.41,0,.18,0,.36,0,.54a2.43,2.43,0,0,0,.14.2.44.44,0,0,1,0,.38.39.39,0,0,1-.08.14A.43.43,0,0,1,343.83,411.55Z" style="fill:#455a64"></path><path d="M344.51,411.57c-4.17-6-9.06-12.25-8.45-19.91a33.94,33.94,0,0,1,2.74-10.36c.62-1.49,2.47-5.95,4.42-6.05,3.51-.18-1.18,13.95-1.41,15.61a35.79,35.79,0,0,0,2.62,18c0,.47,0,.94,0,1.41a40.14,40.14,0,0,1-3.31-12.59c-.51-6,1.52-11.06,2.62-16.86.24-1.26,1.22-5.23-.94-4.91-1.42.21-3.26,4.55-3.65,5.49a33.77,33.77,0,0,0-2.62,9.81c-.73,7.72,4,14,8.08,20.18A.39.39,0,0,1,344.51,411.57Z" style="fill:#fff"></path><path d="M342.38,418.26c-.3.12-.59.26-.9.4h0a.19.19,0,0,1-.22,0,.34.34,0,0,1-.12-.45.21.21,0,0,1,.16-.12l.13,0,.28-.1v0l.06-.08c3.62-4.42,7.94-8.24,11.51-12.72,3.41-4.28,6.52-8.8,10.26-12.81,2.36-2.53,14.79-14.37,17.44-7.05,1.18,3.24-1.39,7.9-3,10.6a35.3,35.3,0,0,1-8.31,9.38C361.56,411.73,351.68,414.15,342.38,418.26Z" style="fill:#455a64"></path><path d="M361,407.83a40.78,40.78,0,0,0,8.66-7.71c.86-1,5-6,3.63-7.64-.88-1.06-3.21.33-4,.76-3.35,1.82-5.77,5.07-8.33,7.82a156.13,156.13,0,0,1-16.83,15.5c-.43.23-.87.45-1.29.69s-.71.39-1.06.58c-.13.07-.25.12-.37.2l-.29.15a.37.37,0,0,0,.13.46l.83-.44c-.21.16-.41.3-.61.47h0l.73-.33.17-.08c.35-.25.69-.51,1-.76C349.33,414.4,355.44,411.61,361,407.83Zm-15.42,8c3.49-2.77,6.85-5.73,10.06-8.82,2.6-2.49,5.08-5.1,7.49-7.76a36.54,36.54,0,0,1,4.33-4.29c1.22-1,6-4.13,4.85.34-.85,3.24-5,6.87-7.43,8.93a57.86,57.86,0,0,1-8.69,6C352.71,412.21,349.11,414,345.56,415.81Z" style="fill:#fff"></path><path d="M326.44,435.26h0a2.85,2.85,0,0,1-.21-.22c-4.14-6.41-10.65-14.24-10.26-22.33.29-6,3.58-14,9.51-16.46,6.7-2.74,5.4,9.91,5.21,13.14a231.94,231.94,0,0,1-3.84,25.78s0,.1,0,.15a0,0,0,0,0,0,0C326.72,435.47,326.57,435.38,326.44,435.26Z" style="fill:#455a64"></path><path d="M326.77,435.34c0-.51-.07-1-.1-1.55-.37-5.91-.48-11.85-.3-17.76,0-1.49,1.23-12.92-1.74-12.37-1.79.33-2.87,4.59-3.26,6a23.15,23.15,0,0,0-.81,7.72c.39,6,3.44,11.37,5.56,16.93.11.25.21.52.3.78a.91.91,0,0,0,0,.17h0C326.57,435.38,326.71,435.46,326.77,435.34Zm-5.28-14.77a23.78,23.78,0,0,1-.24-7.94c.24-1.75,1.31-8.07,3.53-8.19,1.18-.07,1.06.67,1.29,2a16.33,16.33,0,0,1,.19,1.85c.06,1.53-.05,3.06-.12,4.57-.14,2.68-.21,5.35-.23,8,0,4.38.13,8.76.43,13.13C324.81,429.5,322.44,425.25,321.49,420.57Z" style="fill:#fff"></path><path d="M347.31,437.39a45,45,0,0,1-26.15,2.72A.26.26,0,0,1,321,440a.35.35,0,0,1-.11-.4.32.32,0,0,1,.38-.22l.54.08c9.15-5,18.33-9.91,27.39-15.11,2.13-1.23,15.9-8.78,16.64-3.41.45,3.32-4.62,7.21-6.8,9.09A45.35,45.35,0,0,1,347.31,437.39Z" style="fill:#455a64"></path><path d="M357,427c.56-.71,1-1.6,0-2-2-.84-8.41,2.85-10.24,3.78-7.53,3.84-15.21,6.93-23,10.07l-2,.81-.78,0a.35.35,0,0,0,.11.4,1.72,1.72,0,0,0,.21-.07c.34,0,.7,0,1,0h0a53.29,53.29,0,0,0,16.35-2.46,50.64,50.64,0,0,0,9.61-4.18C351.05,431.76,355,429.65,357,427Zm-34.26,12.6h-.5c.28-.09.55-.17.83-.28A149.26,149.26,0,0,0,341.21,432c3-1.46,5.85-3.1,8.88-4.45,1.27-.57,4.85-2.31,6-1.76s-.07,1.43-.72,2c-.47.43-1.4,1.1-1.87,1.46A52.53,52.53,0,0,1,322.71,439.63Z" style="fill:#fff"></path><path d="M303.76,454.19l-.89-1.24c1.08-.8,2.15-1.61,3.21-2.42,4.29-3.31,8.56-6.65,12.76-10.07,2.41-1.95,4.76-3.92,7-6a2.31,2.31,0,0,1,.24-.2c.17-.17.36-.34.55-.51s.39-.36.59-.55a65.73,65.73,0,0,0,13.1-15.87c1.14-2,2.19-4.08,3.2-6.17.1-.2.19-.41.28-.61a.8.8,0,0,0,.08-.16c.1-.2.19-.41.29-.63s.15-.31.22-.47c3-6.49,5.43-13.22,8.05-19.82.74-1.88,1.49-3.78,2.26-5.65a1.51,1.51,0,0,1,.14-.34,3.61,3.61,0,0,1,.16-.42c3.35-8.33,6.8-16.64,9.92-25,.11-.32.58-.1.46.21-2,5.62-3.94,11.29-5.88,17-.26.76-.53,1.51-.78,2.27-.51,1.5-1,3-1.54,4.47-1.05,3-2.1,5.93-3.21,8.88-3.1,8.28-6.13,16.77-10.24,24.65-.3.59-.62,1.17-.95,1.75-.2.37-.4.73-.61,1.08s-.47.83-.71,1.24c-4.33,7.29-10.12,12.93-16.49,18.19-.44.36-.89.73-1.35,1.09l-.62.51-.33.27-.44.35h0l-.32.25c-.39.31-.78.6-1.17.92q-6.4,5-12.9,9.87C306.5,452.06,305.13,453.13,303.76,454.19Z" style="fill:#455a64"></path><path d="M356.81,360c2.12-6.66,8.39-17.77,16.87-16.29a6.54,6.54,0,0,1,5.61,6.7c0,4-2.76,7.79-5.13,10.79-6.32,8-13.35,15.38-19.11,23.86,0,.08-.49.72-.61.91s-.38,0-.26-.21l.56-.83C354.77,376.69,354.29,367.88,356.81,360Z" style="fill:#455a64"></path><path d="M355.07,385.09c0-.07.05-.12.07-.19a69.36,69.36,0,0,1,3.62-7.4,139,139,0,0,1,9.55-14.26c1.31-1.78,7.93-10.23,2.45-10.82-2.32-.25-4.67,1.72-6.25,3.16a25.78,25.78,0,0,0-6,8.24c-2.91,6.17-3.56,13-3.66,19.7,0,.31,0,.62,0,.92-.05.1-.08.18-.12.28a1,1,0,0,0-.08.18.25.25,0,0,0,0,.12.24.24,0,0,0,.31.18A.17.17,0,0,0,355.07,385.09Zm0-2c.25-5.54.81-11.18,2.71-16.42a29.32,29.32,0,0,1,4.1-7.66,22.77,22.77,0,0,1,2.59-2.88,16.5,16.5,0,0,1,2.25-1.83c1.76-1.18,4.15-1.82,5.06-.93,1.13,1.09.7,2-.15,3.91a17.76,17.76,0,0,1-1,1.83c-.89,1.48-1.93,2.88-3,4.26-1.71,2.29-3.39,4.59-5,7-1.1,1.6-2.15,3.23-3.13,4.89a72.51,72.51,0,0,0-4.55,8.91C355,383.8,355,383.45,355,383.1Z" style="fill:#fff"></path><path d="M66.66,400.91c4.13,3.8,8,7.87,11.8,12,2.16,2.33,4.3,4.68,6.47,7,2.39,2.56,4.64,5.42,8,6.68h0a2,2,0,0,1,.41.25.25.25,0,0,1,0,.07.42.42,0,0,1-.52.51l-.22-.09h-.09a13.47,13.47,0,0,1-3-.71,72.39,72.39,0,0,1-8.14-2.42,69.68,69.68,0,0,1-15.53-7.78,58.88,58.88,0,0,1-11.64-10.3c-2.71-3.16-6.79-7.81-7.55-12.06-.68-3.85,4.28-3.09,6.58-2.41C58.44,393.18,62.76,397.32,66.66,400.91Z" style="fill:#455a64"></path><path d="M54.16,398.1c-1.18,1.65,3.3,6.66,5.18,8.89a56.63,56.63,0,0,0,10.09,9.35A73.08,73.08,0,0,0,91.6,427l1,.29h.09l.22.07a.42.42,0,0,0,.53-.51c-.64-.29-1.24-.6-1.85-.93s-1.08-.6-1.59-.93c-5.74-3.41-10.72-8.15-15.61-12.68C68.61,407,55.74,395.92,54.16,398.1Zm36.63,28c.8.44,1.6.84,2.42,1.22l-1.93-.64a80.29,80.29,0,0,1-19.62-9.32,57.49,57.49,0,0,1-9.43-7.84,52.36,52.36,0,0,1-4.29-5c-.55-.74-4.15-5.13-3.2-6,.67-.6,4.81,2.1,4.9,2.15.83.53,1.64,1.11,2.44,1.7,1.65,1.21,3.22,2.51,4.78,3.83,3.36,2.88,6.56,5.95,9.83,8.93C81,419.1,85.6,423.21,90.79,426.08Z" style="fill:#fff"></path><path d="M97.74,383.86c3.74,7.26,4.62,15.59,4.73,23.64.06,4.31-.09,8.62-.13,12.92,0,3.61-.34,7.79.4,11.54,0,.16.07.33.11.5a14.86,14.86,0,0,0,1,3.06.22.22,0,0,1,0,.21,2.08,2.08,0,0,1,.19.29c0,.06,0,.15-.11.09l-.27-.24,0,0a.22.22,0,0,1-.24-.14s0-.08,0-.13l-.26-.24c-6.3-5.8-9.82-15.62-12.22-23.51s-3.5-16.29-1.42-24.34c.53-2,1.42-6.83,3.87-7.52C95.56,379.34,97,382.32,97.74,383.86Z" style="fill:#455a64"></path><path d="M94.42,388.56c-2.47.41-2,7.19-1.87,8.85a86.73,86.73,0,0,0,2.25,14.86c1.77,8,4.09,15.72,8.2,22.77h0c0,.1.06.19.08.28a3.25,3.25,0,0,0,.27.26.61.61,0,0,0,0,.12.24.24,0,0,0,.25.14c0-.13-.07-.26-.09-.38-.28-1-.51-2-.72-3,0-.17-.08-.34-.11-.5-1.43-7-1.68-14.23-2.2-21.39a80.32,80.32,0,0,0-2.24-14.79C98,394.55,96.49,388.22,94.42,388.56Zm2.22,3.59c3.37,7.81,3.27,17.1,3.84,25.45a87,87,0,0,0,2.34,16.74c-3.47-6.46-5.57-13.7-7.17-20.77a110.66,110.66,0,0,1-2.24-12.35,45.38,45.38,0,0,1-.37-6.8,17.47,17.47,0,0,1,.51-4C94.4,388,96.05,390.81,96.64,392.15Z" style="fill:#fff"></path><path d="M117.26,446.54a.47.47,0,0,1-.05.44h.16a.14.14,0,0,1,.14.13.12.12,0,0,1-.11.14c-9.7,1.53-20.48,2-30-.63A38.55,38.55,0,0,1,76,441.51c-2.37-1.6-7.14-4.83-7.41-8-.54-6.43,16.51.25,19.08,1.26,4.68,1.85,9.19,4.09,13.83,6,5.08,2.12,10.3,3.86,15.52,5.61A.38.38,0,0,1,117.26,446.54Z" style="fill:#455a64"></path><path d="M117.26,446.54c-.53,0-1.05-.09-1.57-.17a82.63,82.63,0,0,1-24.56-6.66,77,77,0,0,0-12-4.56c-1-.25-4.83-1.45-4.22,1,.32,1.26,6.56,4.86,8.26,5.66a52.29,52.29,0,0,0,12.24,3.85,86.26,86.26,0,0,0,21.47,1.48l.63,0a.14.14,0,0,0-.14-.13h-.15A.47.47,0,0,0,117.26,446.54ZM99,445.79a60.85,60.85,0,0,1-12.38-3A42.63,42.63,0,0,1,82,440.7a29.32,29.32,0,0,1-3.42-2c-2.62-1.91-3.15-2.61-2.93-3.12.14-.31.69-.48,2.83-.13a21.63,21.63,0,0,1,4,1.16c1.85.71,3.67,1.47,5.48,2.26,3.64,1.56,7.26,3.18,11,4.47a64,64,0,0,0,16.6,3.47A98.57,98.57,0,0,1,99,445.79Z" style="fill:#fff"></path><path d="M116.25,418.68a24.45,24.45,0,0,1,5,9.13c2.21,6.61,3,13.59,4.73,20.32.26,1,.54,2,.86,3,0,.11.69,1.21.62,1.15s-.34-.34-.87-.9h0c-2.63-2.75-10.44-11.23-13.43-17a50.14,50.14,0,0,1-4.51-11.24c-.43-1.86-1.22-6.08.63-7.51S115,417.36,116.25,418.68Z" style="fill:#455a64"></path><path d="M112.28,420.31c-2.6,1.08,2.77,12.5,3.44,14a70.11,70.11,0,0,0,9.57,15.48c.42.54.86,1.06,1.31,1.59s.84.89.86.9-.57-1-.62-1.16l-.15-.51c-.25-.83-.48-1.66-.69-2.48-1.71-4.5-3.33-9.05-5.13-13.53a64.69,64.69,0,0,0-4.55-9.36C115.91,424.56,113.41,419.84,112.28,420.31Zm2.12,2.36c5.81,8.34,7.92,18.37,11.75,27.63l.19.45c-.16-.21-.33-.41-.48-.62a80.41,80.41,0,0,1-8.11-12.7,75.83,75.83,0,0,1-3.66-8.43,38.4,38.4,0,0,1-1.62-4.78c-.16-.72-.5-2.7,0-2.94C113.12,420.91,114,422.13,114.4,422.67Z" style="fill:#fff"></path><path d="M65.91,353.19c9.15,15.27,4.49,34.86,12.59,50.58l0,.08c.25.48.51.95.78,1.42a.33.33,0,0,1-.24.49.24.24,0,0,1-.24-.13,3.9,3.9,0,0,1-.19-.35c-7.25-6.73-13.13-15.88-17.44-24.72-3.74-7.7-6.22-16.34-4.94-24.94.31-2.12.79-6.35,3.36-7.15S64.79,351.31,65.91,353.19Z" style="fill:#455a64"></path><path d="M62.77,358.8c-1.07.35-1.21,1.94-1.33,2.8a27.44,27.44,0,0,0-.14,6.53,45,45,0,0,0,3.31,12.93,92.83,92.83,0,0,0,10.82,20.18c1,1.4,2.08,2.75,3.22,4l.43.48a.34.34,0,0,0,.25-.49c-.28-.45-.51-.9-.77-1.37a.81.81,0,0,1-.06-.13,54.84,54.84,0,0,1-4.63-9.53c-1.88-5.17-2.88-10.64-4.07-16C69.34,376.14,66.45,357.59,62.77,358.8Zm2.41,3.12c1.86,4,2.46,8.53,3.41,12.8s1.88,8.64,2.91,12.93a61.47,61.47,0,0,0,3.29,10,48.29,48.29,0,0,0,4.13,7.74,69.37,69.37,0,0,1-5-7s0-.06,0-.1a122.27,122.27,0,0,1-7.16-13.58,1.3,1.3,0,0,1-.08-.17,56.16,56.16,0,0,1-4.36-12.77,32.72,32.72,0,0,1-.61-7.32c.13-2.78.52-5,1.46-5.05C63.75,359.36,64.64,360.74,65.18,361.92Z" style="fill:#fff"></path><path d="M67.05,384.5c2.5,4.41,5.11,8.78,7.74,13.14q1.84,3.09,3.71,6.13a.81.81,0,0,0,.06.13c.45.73.9,1.48,1.34,2.21,4,6.67,8,13.68,13.11,19.62a67.21,67.21,0,0,0,9,8.52l1,.79h0l.56.42a3.55,3.55,0,0,0,.31.23c2.83,2.19,5.78,4.24,8.66,6.21,4,2.76,8.19,5.24,12.38,7.66a2,2,0,0,0,.37.22l.57.34.29.17.54.31c1.35.78,2.69,1.57,4,2.37l-.87,1.21a96.24,96.24,0,0,1-12.73-6.9l-.25-.16c-.4-.24-.8-.5-1.19-.76s-1-.61-1.45-.94c-1.17-.77-2.32-1.54-3.45-2.32-6.55-4.51-13.25-9.41-18.58-15.38l-.43-.5a1.18,1.18,0,0,1-.18-.21,2.74,2.74,0,0,1-.32-.36l-.49-.58c-.29-.35-.57-.71-.84-1.07l-.25-.32c-4.35-5.62-7.85-12.08-11.34-18.19-.64-1.13-1.27-2.24-1.9-3.37l-1-1.89-1.54-2.87s0-.06,0-.1c-2.41-4.51-4.72-9.08-7.16-13.58C66.58,384.48,66.93,384.29,67.05,384.5Z" style="fill:#455a64"></path></g><g id="freepik--Character--inject-199"><path d="M412.7,146.35s6.11-10.46,9.79-13.51S434,128.25,434,128.25s-.65,5.62-7.42,9.91S412.7,146.35,412.7,146.35Z" style="fill:#ECEFF1"></path><path d="M374.32,149.83c-10.9,4.06-25.84-5.08-29.16-4.22s-26.86,3.27-30.84,2.23c-4.6-1.2-10.38-5.76-15.08-12.16s-21.63-8.14-21.63-8.14c6.93-1,23.64,1.63,28.34,1.88s30.82-12.47,35.51-12.2,18.86,7.43,25.35,7.8,36.26-20.88,36.26-20.88-32.53,11.65-41.15,9.74-54-17.79-64.91-16.63S249.51,114,244.07,114s-43.71-17-79.55,9.07c-10.27,7.47-25.53,34.82-26.71,46-3.18,30.55,20.65,60.88,30.05,73.45,3.4,4.51,15.78,12.34,23.54,11.35s26.58-7.16,32.46-8.45,22.12,13.05,29.22,11.4,23.85-13.68,23.85-13.68-17.84,1.89-20,1-6-3.82-5.27-4.64,34.88,4.05,45.59,2.42,52.2-23.32,45.63-20.5-34.39,10.22-39.8,9.89-27.05-8-37.12-9.53-26.69,4.63-28.85,4.43.51-8.55,5.82-12.65,31.06,1.33,37.85,3,43.18-7.8,48.06-10.92,13.45-31.39,17.89-33.1,22.44,3.81,43.29-9.48c5.4-3.44,51-71.75,51.72-72.81C440.91,91.23,392,143.23,374.32,149.83Zm-184,78c-11.73-1.63-18.46-14.34-18.46-14.34s11.46,1.95,15.8,4.08,12.75,4.93,19.67,4.27c6.31-.6,18.74-6.39,20.89-7.41C225.21,216.15,201.29,229.38,190.33,227.83Z" style="fill:#ECEFF1"></path><path d="M407.08,117.4s-2.09-17.09,3.86-24,25.82-15.14,30.21-21A55.76,55.76,0,0,0,448,59.65s2.53,17.76-4.47,25S419,98.37,416.24,102.42,407.08,117.4,407.08,117.4Z" style="fill:#ECEFF1"></path><path d="M344.15,200.36s8.13-15.43,17.38-20.81,23.78-9.48,28-10,14.32-1.58,20.27-3.38,22.45-14.35,25.05-19.28a22.64,22.64,0,0,0,2.51-9.89s7.08,7-.31,20.69-46.73,54.17-59.33,59.08-29.52,4.51-29.52,4.51,19.51-11.42,23.28-15.52-7.19-8.42-11.51-8.28S344.15,200.36,344.15,200.36Z" style="fill:#ECEFF1"></path><path d="M323.1,129s7.69-6.13,14-5.24,15.37,7.72,18.35,8,15.32-2.48,15.32-2.48-17.66,8.29-22.91,6.94-13.18-2.43-13.18-2.43,2.48,3.12,4.61,3.69,5.77,1.05,5.77,1.05-8.85,6-14.76,4.56-16.86-10.49-16.86-10.49a53.31,53.31,0,0,0,5.5-.15C320.92,132.14,319.82,131.16,323.1,129Z" style="fill:#ECEFF1"></path><g style="opacity:0.1"><path d="M145.7,173.11c1.37-17.44,3.31-44,43.27-57.54,15.15-5.15,34.6,1.65,53.71,7.21,12.59,3.66,21.51,21.72,27.54,24.46,7.07,3.21,29.43,18.91,34.3,20.94s42.34-11.64,42.34-11.64S319,180.09,307.68,183.62,265,176.5,261,176.84s-16.24,7.75-16.24,7.75,7.9,4.83,15.51,4.61,11.74-3.47,17-3.11,14.95,7.83,14.95,7.83-8.87-3.68-15.33-1.29-19.4,13.09-29.12,12.12S216.21,193.15,210,194.5a36.67,36.67,0,0,0-10.81,4.26,109.56,109.56,0,0,0,15.09,3.46c6.08.71,14.19,1.38,14.19,1.38s-47.23,7.64-58.21,2S144.79,184.83,145.7,173.11Z"></path><path d="M358,191.79c.42-.66,7.14-10.28,12-14s16.87-1.75,23.05-1.43,23.57-2,29.45-7.13,10.16-9.33,10.16-9.33-28.47,35.33-40.23,43a48.76,48.76,0,0,1-22.92,7.89s9.47-9.68,6-13.38C371,192.4,358,191.79,358,191.79Z"></path><path d="M412.26,101.72s3.27-11.41,8.49-14.79S444.66,80,444.66,80,426,88.67,422.33,90.42,412.26,101.72,412.26,101.72Z"></path><path d="M159.75,211.51s11.32,15.38,14.37,18.13,20.14,6.27,23.6,5.8,19.17-6.44,23.41-6.66,18.69,9.47,18.69,9.47-14.1-2.65-17.61-1.88-24.29,15.47-31.69,15S170.43,238.62,167.63,235,159.75,211.51,159.75,211.51Z"></path><path d="M265.16,119S292.1,99.49,300,100.69s36.56,13.62,36.56,13.62-25.88-1.82-29.82-2.9S290,112.49,290,112.49s8.37,3.81,11.53,4.56,16.21-1.31,16.21-1.31-23.72,6.14-32.1,4.19S265.16,119,265.16,119Z"></path></g><g style="opacity:0.5"><path d="M327.12,150.5a60.88,60.88,0,0,1,18.33-3.7,17.06,17.06,0,0,1,4.87.91,79,79,0,0,1,13.05,4.9,78,78,0,0,1-9.22-1.24c-2.19-.38-4.57-.91-6.75-1.37a7,7,0,0,0-2-.2c-6,.16-12.22.94-18.32.7Z" style="fill:#fff"></path><path d="M408.71,107.93a39.62,39.62,0,0,1,.72-10.54,6.45,6.45,0,0,1,.94-2.57c2-2.19,4.66-3.58,7.14-5A37.3,37.3,0,0,1,424,87.09c-3.35,3.65-7.64,6.44-11.28,9.54a6.79,6.79,0,0,0-.54,1.47,70.85,70.85,0,0,1-3.47,9.83Z" style="fill:#fff"></path><path d="M229.91,113.25c4.71.23,9.1,2,13.63,2.63a7.6,7.6,0,0,0,2.94-.07c3.24-.78,6.37-2.08,9.66-3.21a58.67,58.67,0,0,1,9-2.67c-5.7,3.62-11.4,7.2-18.09,8.81-3,.62-5.95-.5-8.63-1.53-3-1.16-5.67-2.62-8.53-4Z" style="fill:#fff"></path><path d="M276.47,129c5.5,1,11.77,2,16,5.94,5.6,6.2,9.68,14.41,13.89,21.59-3.32-3.13-8.25-8-11.66-10.91a30.36,30.36,0,0,0-5.61-4.11l1.7-2.19,8.32,11.45s.35.46.34.46h0c1.32-2.1-1.48,3.2-1.54,2.44a8.38,8.38,0,0,1-1.15-.67c-3.39-2.19-7-4.54-10.39-6.78l1.71-2.21c1.39,1.32,2.74,2.65,4.07,4a22,22,0,0,1,3.83,4.78l1.3,2.94c-4.06-1.79-8.38-4.06-12.81-4.6l.49-1.79a99.58,99.58,0,0,1,9,6.47c2.82,2.35,5.73,4.81,7.58,8a21.7,21.7,0,0,0-3.86-3.86,117.05,117.05,0,0,0-16.82-10.71l3.61-.05c3.85.13,7.32,1.6,10.86,2.92l-1.63,1.6c-2.05-2.86-5-5.27-7.52-7.68l1.72-2.21c3.09,2,8.1,5.16,11.16,7.07h0s0,0-.13-.07l-.09,0c-.05-.75-2.85,4.54-1.54,2.44l0,0c-1.64-2.13-3.16-4.34-4.73-6.51l-7.18-10.06,4.76,2.1c4.74,2.54,8,6.4,11.79,10l-2,1.47c-2.58-4.88-5.23-10-8.64-14.31-3.81-4-9.73-5.38-14.86-7Z" style="fill:#fff"></path><path d="M301.07,210.75c7.25-3,15.11-4.57,22.19-7.7a1.9,1.9,0,0,0,.65-.48c1.35-1.63,2.52-3.45,3.8-5.2,2-2.88,4.1-5.76,6.4-8.52a75.65,75.65,0,0,1-4.4,9.75c-1.27,2.23-2.36,4.66-4.24,6.53-4.15,2.63-9.12,3.42-13.77,4.4a71.19,71.19,0,0,1-10.63,1.22Z" style="fill:#fff"></path><path d="M256.07,227.07c3.95-1.42,8.19-2.7,12.43-2.3A64,64,0,0,1,288,231.45c-6.82-.47-13.39-2.32-20-3.88-3.81-.65-8-.1-11.95-.5Z" style="fill:#fff"></path><path d="M435.25,150.45a167.91,167.91,0,0,1-15,15.8c-2.7,2.73-6.79,3.57-10.34,4.55s-7.07,1.68-10.66,2.32L399,170.2c2.46-.07,4.92-.18,7.38-.21,4-.09,9.58-.12,13.62-.08-4,1.6-8.91,3.71-12.84,5.27l-.47-1.78a34,34,0,0,0,3.44-.35c3.44-.51,7-1.24,9.89-3.26-2.54,2.6-6.15,3.84-9.59,4.77-2.24.61-6.58,1.11-8.93,1.48l4.88-2.56c2.29-1.2,4.62-2.32,6.92-3.48l.56,2.35c-4.84.32-9.91.6-14.75.8l-.32-2.93c6-1.33,12.28-2.2,17.95-4.43a59.37,59.37,0,0,0,6.15-4.84c4-3.39,8.36-7.19,12.41-10.5Z" style="fill:#fff"></path><path d="M418.79,139.91c.35-3.1,1.82-6.23,4.64-7.81a14.47,14.47,0,0,1,5.84-1.33,12.85,12.85,0,0,1-2.65,2.66c-.64.53-1.44,1-2.08,1.42-1.85,1.65-3.45,3.71-5.75,5.06Z" style="fill:#fff"></path><path d="M324.85,130.77a12.65,12.65,0,0,1,9.72-6.12,11,11,0,0,1,8.24,3.6,47.84,47.84,0,0,0-7.63-.68c-3.59.25-6.78,2.14-10.33,3.2Z" style="fill:#fff"></path></g><path d="M427.58,187.62a1.74,1.74,0,1,1,1.74-1.74A1.74,1.74,0,0,1,427.58,187.62Z" style="fill:#ECEFF1"></path><path d="M311.67,223a1.74,1.74,0,1,1,1.73-1.74A1.74,1.74,0,0,1,311.67,223Z" style="fill:#ECEFF1"></path><path d="M398.64,93.65a1.74,1.74,0,1,1,2.43.31A1.73,1.73,0,0,1,398.64,93.65Z" style="fill:#ECEFF1"></path><path d="M150,234.92a1.74,1.74,0,1,1,1.74-1.74A1.73,1.73,0,0,1,150,234.92Z" style="fill:#ECEFF1"></path><path d="M141.28,126.88a1.73,1.73,0,1,1,1.73-1.73A1.73,1.73,0,0,1,141.28,126.88Z" style="fill:#ECEFF1"></path><path d="M349.21,181.49a2.35,2.35,0,1,1,2.35-2.35A2.35,2.35,0,0,1,349.21,181.49Z" style="fill:#ECEFF1"></path><path d="M371.12,141.06a2.35,2.35,0,1,1,3.29.43A2.34,2.34,0,0,1,371.12,141.06Z" style="fill:#ECEFF1"></path><path d="M448.45,135.78a2.35,2.35,0,1,1,2.34-2.34A2.35,2.35,0,0,1,448.45,135.78Z" style="fill:#ECEFF1"></path><path d="M362.65,143a1,1,0,1,1,1-1A1,1,0,0,1,362.65,143Z" style="fill:#ECEFF1"></path><path d="M188.79,139.63a1,1,0,1,1,1-1A1,1,0,0,1,188.79,139.63Z" style="fill:#ECEFF1"></path><path d="M150.6,119a1,1,0,1,1,1-1A1,1,0,0,1,150.6,119Z" style="fill:#ECEFF1"></path><path d="M395.39,101.64a1,1,0,1,1,1-1A1,1,0,0,1,395.39,101.64Z" style="fill:#ECEFF1"></path><path d="M240.52,107.93a1,1,0,1,1,1-1A1,1,0,0,1,240.52,107.93Z" style="fill:#ECEFF1"></path><path d="M181.29,289.23C210,361.79,280.21,456,307.07,453.79c29.92-2.45-10.36-105.91-14.88-105.31-3.84.51-42-43.66-82.6-76.45C166.43,237.21,174.19,271.28,181.29,289.23Z" style="fill:#ffc4c0"></path><path d="M49.21,454.26l187.59-.46-11-68.3s15.7-19.07,12.73-39.75c-3.26-22.66-40.34-79.11-43.78-82.35-13.83-13-28.9-15.43-42.38-9.26C101.83,277.29,49.21,454.26,49.21,454.26Z" style="fill:#263238"></path><path d="M198.61,377.55a164.08,164.08,0,0,0-24.13,4c-3.92,1-7.78,2.18-11.63,3.45-1.92.63-3.85,1.2-5.79,1.76a26.3,26.3,0,0,1-6.21,1.17.15.15,0,0,0,0,.29,44.37,44.37,0,0,0,6-.11,40.91,40.91,0,0,0,5.7-1.08c4-1,7.94-2.15,11.93-3.17,8-2.07,16.07-4.13,24.24-5.61C199.08,378.15,199,377.51,198.61,377.55Z" style="fill:#455a64"></path><path d="M218.69,384.75a178.5,178.5,0,0,0-20.15-1c-3.37,0-6.71.27-10.07.6-1.6.15-3.19.34-4.79.54-1.75.22-3.48.68-5.24.88-.18,0-.18.31,0,.29,1.66-.14,3.35,0,5,0l5-.13c3.35-.08,6.71-.13,10.07-.24,6.71-.23,13.4-.39,20.13-.38C219.06,385.3,219,384.78,218.69,384.75Z" style="fill:#455a64"></path><path d="M130.88,271.18c-44.84,58-91,165.08-76.31,185.72,16.32,23,72.29-48.63,72.91-52.86.82-5.61,13.6-48.69,23.13-103.18C159.58,249.57,142,256.85,130.88,271.18Z" style="fill:#ffc4c0"></path><path d="M314.4,450c14.29-17,8.68-51.37,2.68-139.22-.83-12.16-79.84-29.26-79.62-16.23.27,16.41,5.24,76,6.16,80.57C251.43,414,304.7,461.55,314.4,450Z" style="fill:#ffc4c0"></path><path d="M317,310.29s1.81-34.2-8.42-58c-7.07-16.42-16-41.8-69-48.52-12.55-1.59-38.95,9-34.89,18.63,3.85,9.14,27.18-3.6,44.27,1.88,0,0-22.82,10.36-23.93,23-.49,5.65-1.48,21.11-.53,33.25a50.53,50.53,0,0,0,6.21.66s-.66,11.87,11.53,25.25Z" style="fill:#ffc4c0"></path><path d="M299.29,237.75c-8.46-4.05-26.52-12.32-43.64-13.95-19-1.81-56.16-.17-57.35,13.89-.88,10.3,13.35,10.92,13.35,10.92s-15.2,3.92-14,13.4c1.13,8.64,12.17,8.46,12.17,8.46s-8.81,4-6.12,12.08c3.25,9.76,26.71-1.54,38.53,5.5C244.94,289.63,299.29,237.75,299.29,237.75Z" style="fill:#ffc4c0"></path><path d="M257.09,244.22c-8.58-2.5-29.51-3.19-45.21,4.07-.36.16-.42.52-.07.44a186.93,186.93,0,0,1,45.26-4.33C257.17,244.4,257.18,244.25,257.09,244.22Z" style="fill:#263238"></path><path d="M257.29,222.56c-8.58-2.51-29.51-3.19-45.21,4.06-.36.17-.43.52-.07.44a187.31,187.31,0,0,1,45.26-4.32C257.37,222.74,257.38,222.58,257.29,222.56Z" style="fill:#263238"></path><path d="M254.7,263.37c-7.62-1.4-29.22-1.14-44.88,6.76-.35.17-.4.54,0,.44,19.65-5.32,37.08-6.88,44.91-7C254.8,263.55,254.8,263.39,254.7,263.37Z" style="fill:#263238"></path><path d="M230.3,285.3c1.45-.76,12.54-1.41,22,3.37a.23.23,0,0,1-.13.43c-6.18-1.27-11.32-2-11.44-2.05,3.28,11.82,14.31,21,19.26,24.5.32.22,0,.69-.35.54-10-4.36-18.91-14-19.73-25.12-1.42-.15-8.81-.94-9.62-1.34A.19.19,0,0,1,230.3,285.3Z" style="fill:#263238"></path><path d="M258.29,408.91a125.47,125.47,0,0,1-13.61-24.58,34.82,34.82,0,0,1-1.9-6.85c-4-25.46-5-51.29-6.25-77l.27.62a26.7,26.7,0,0,1-6.38-15.37l.94.78c-3.63.31-7.25.56-10.88.75s-7.38.49-11-.29c-5.51-1-7.67-6.16-6-11.17,1.16-2.65,3.68-4.35,6.19-5.51l.11.58c-4.64-.45-10.62-2.2-11.75-7.37,1.34,5,7.24,6.47,11.78,6.76l1.19.05c-2.66,1.26-5.53,3-6.66,5.82-1.23,4.46.49,8.85,5.39,9.59,3.44.65,7.06.24,10.67,0,3.88-.3,7.77-.66,11.66-1,.48,5.55,2.45,11.26,6.33,15.33,1.45,24.7,2.34,52.84,5.66,77.21a33.45,33.45,0,0,0,1.68,6.69,141,141,0,0,0,12.58,25Z" style="fill:#263238"></path><path d="M156.51,256.43c.36,3.48,13.76,27.48,29.31,28.69,5.07.39,8.42-27.17,8.42-27.17l.72-2,9.95-27.7-30.78-25.69-4.48-3.45s-2.22,7.76-4.9,17.45c-.12.45-.25.9-.38,1.38s-.33,1-.46,1.57c-.41,1.44-.83,2.91-1.22,4.39-.3,1.13-.6,2.22-.87,3.41s-.58,2.34-.88,3.53C158.2,242.63,156.37,255,156.51,256.43Z" style="fill:#ffc4c0"></path><path d="M164.75,216.58A59.05,59.05,0,0,0,195,256l9.95-27.7-30.78-25.69-4.48-3.45S167.43,206.89,164.75,216.58Z" style="fill:#263238"></path><path d="M249.9,188.56c.86,51.65-30,58-41.11,58.17-10.11.16-44.56-.58-50.76-51.87s17.55-68,40.66-69.6S249,136.91,249.9,188.56Z" style="fill:#ffc4c0"></path><path d="M241.06,178.26a31.9,31.9,0,0,1-3.45-.92c-1.32-.36-2.41-.52-3.33-1.61a1.83,1.83,0,0,1,.12-2.24c1.21-1.25,2.94-1.2,4.54-.82a6.68,6.68,0,0,1,4.07,2.59A2,2,0,0,1,241.06,178.26Z" style="fill:#ECEFF1"></path><path d="M241.06,178.26a31.9,31.9,0,0,1-3.45-.92c-1.32-.36-2.41-.52-3.33-1.61a1.83,1.83,0,0,1,.12-2.24c1.21-1.25,2.94-1.2,4.54-.82a6.68,6.68,0,0,1,4.07,2.59A2,2,0,0,1,241.06,178.26Z" style="opacity:0.1"></path><path d="M206.81,184.07a35.25,35.25,0,0,0,3.52-.55c1.35-.23,2.45-.27,3.49-1.25a1.83,1.83,0,0,0,.11-2.24c-1.06-1.37-2.79-1.5-4.42-1.3a6.71,6.71,0,0,0-4.33,2.14A2,2,0,0,0,206.81,184.07Z" style="fill:#ECEFF1"></path><path d="M206.81,184.07a35.25,35.25,0,0,0,3.52-.55c1.35-.23,2.45-.27,3.49-1.25a1.83,1.83,0,0,0,.11-2.24c-1.06-1.37-2.79-1.5-4.42-1.3a6.71,6.71,0,0,0-4.33,2.14A2,2,0,0,0,206.81,184.07Z" style="opacity:0.1"></path><path d="M212.31,221.07c.74.92,1.45,2.14,2.7,2.39a9.38,9.38,0,0,0,3.86-.44.12.12,0,0,1,.13.19,4.72,4.72,0,0,1-4.65,1.39c-1.55-.46-2.18-1.91-2.39-3.41C211.92,221,212.2,220.94,212.31,221.07Z" style="fill:#263238"></path><path d="M227,209.19s.11,5.31-.18,7.77c0,.23-.63.27-1.47.22,0,0-.07,0-.1,0a11.76,11.76,0,0,1-10.85-5.7c-.15-.26.2-.47.4-.29,3,2.76,6.48,3.79,10.33,4.31.25-.67-.5-9.08-.1-9.06,1.36,0,3.9,1.26,5.44,1.92.09-11-1.6-22-1.34-33a.34.34,0,0,1,.66-.09c2.58,11.38,2.75,24.1,3,35.52C232.76,212.17,227.9,209.73,227,209.19Z" style="fill:#263238"></path><path d="M213.2,191.48c0-.13-.27.16-.27.3,0,3.4-.53,7.29-3.63,8.34-.1,0-.09.2,0,.19C213.08,199.88,213.76,194.7,213.2,191.48Z" style="fill:#263238"></path><path d="M206.49,189.84a9.38,9.38,0,0,0,0,1.91,5,5,0,0,1-.83,1.25,2.6,2.6,0,0,1-2.63.93c-2-.54-2.54-2.77-2.36-4.84,0-.15.11-.22.19-.12.68,1.2,1.49,2.43,2.7,2.43,1,0,2-1,2.87-1.53,0,0,0,0,.06,0Z" style="fill:#263238"></path><path d="M213.2,195.17a5.19,5.19,0,0,1-1.22,2.46,3.75,3.75,0,0,1-2.77,1.12,3.35,3.35,0,0,1-2.63-1.5,5.89,5.89,0,0,1-.9-2.56,12.68,12.68,0,0,1-.05-1.63,7.46,7.46,0,0,1,.86-3.26,11.22,11.22,0,0,0,0,2.46,15,15,0,0,0,.41,2.18c.41,1.46,1.21,2.69,2.36,2.67s2.15-.88,2.68-2.31a23.81,23.81,0,0,0,1.09-4.6A10.68,10.68,0,0,1,213.2,195.17Z" style="fill:#263238"></path><path d="M233,191.62c0-.12.26.17.26.31-.14,3.39.27,7.31,3.34,8.46.09,0,.08.21,0,.19C232.84,200,232.34,194.82,233,191.62Z" style="fill:#263238"></path><path d="M239.77,190.21a9.35,9.35,0,0,1,0,1.91,4.84,4.84,0,0,0,.79,1.28,2.62,2.62,0,0,0,2.6,1c2-.47,2.63-2.68,2.52-4.75,0-.16-.11-.23-.18-.13-.73,1.18-1.58,2.38-2.79,2.33-1,0-1.92-1.07-2.81-1.63,0,0,0,0-.07,0Z" style="fill:#263238"></path><path d="M232.89,195.31a5.13,5.13,0,0,0,1.13,2.5,3.71,3.71,0,0,0,2.73,1.21,3.35,3.35,0,0,0,2.68-1.4,6.08,6.08,0,0,0,1-2.53,11.15,11.15,0,0,0,.1-1.63,7.27,7.27,0,0,0-.74-3.29,11.16,11.16,0,0,1-.12,2.46,13.71,13.71,0,0,1-.49,2.17c-.45,1.44-1.29,2.65-2.44,2.58s-2.12-.95-2.6-2.4a24.49,24.49,0,0,1-.93-4.63A10.61,10.61,0,0,0,232.89,195.31Z" style="fill:#263238"></path><path d="M159.8,207.77c11.51-5.94,11.59-18.22,11.59-18.22A57.12,57.12,0,0,0,193.94,170c-.32,1.1-2.6,9.08-3.89,13.1,33.38-7.47,42.86-33.56,42.86-33.56,11.28,10.49,13.7,17.37,15.41,20.78,0,0-.49-20.62-11.59-34.05-13.57-16.44-57.54-19.44-77,3.33C138.73,164.2,159.8,207.77,159.8,207.77Z" style="fill:#ECEFF1"></path><path d="M215.39,176.67a61.86,61.86,0,0,1-17,6.94s-.06-.06,0-.07a52.82,52.82,0,0,0,24.14-15.79,50.47,50.47,0,0,0,6.89-10.4c1.93-3.92,3.79-8.57,4-13a.26.26,0,0,1,.52,0c-.22,4.65-.47,8.94-2.19,13.33a36.84,36.84,0,0,1-7.07,11.39,42.3,42.3,0,0,1-9.26,7.54" style="fill:#ECEFF1"></path><g style="opacity:0.1"><path d="M159.8,207.77c11.51-5.94,11.59-18.22,11.59-18.22A57.12,57.12,0,0,0,193.94,170c-.32,1.1-2.6,9.08-3.89,13.1,33.38-7.47,42.86-33.56,42.86-33.56,11.28,10.49,13.7,17.37,15.41,20.78,0,0-.49-20.62-11.59-34.05-13.57-16.44-57.54-19.44-77,3.33C138.73,164.2,159.8,207.77,159.8,207.77Z"></path><path d="M215.39,176.67a61.86,61.86,0,0,1-17,6.94s-.06-.06,0-.07a52.82,52.82,0,0,0,24.14-15.79,50.47,50.47,0,0,0,6.89-10.4c1.93-3.92,3.79-8.57,4-13a.26.26,0,0,1,.52,0c-.22,4.65-.47,8.94-2.19,13.33a36.84,36.84,0,0,1-7.07,11.39,42.3,42.3,0,0,1-9.26,7.54"></path></g><path d="M154.24,165.39c0-5.11.15-10.23,1.54-15.21A24.46,24.46,0,0,1,165.31,138l2.11-1.4c-1.73,4.34-3.76,8.8-4.66,13.37l-1.59-.63c3-4.24,6.2-8.6,9.28-12.8-.89,5-1.9,10.12-2.88,15.06l-1.23-.52c3.17-3.93,5.92-8.23,9.93-11.4a66.19,66.19,0,0,0-2.88,7.47,15.31,15.31,0,0,0-.92,6l-.5-.17a116.18,116.18,0,0,0,12.55-12.84,53.8,53.8,0,0,0,3.49-4.8l1,.53q-1.26,2.72-2.43,5.46a31.63,31.63,0,0,0-1.94,5.34l-1.19-.64,10.35-7.29.95-.67.42,1.11.44,1.2-1.21-.53,3.85-1.61.2-.09.22,0,13.77.76-1,1.42c-.39-.95-1.14-2.95-1.52-3.88l1.75.2,13,1.47-.86,1.81c-2.17-2.15-6.49-6.49-8.66-8.64,5.31,2.57,11.17,5.43,16.41,8.07l-1,1.46c-2-2-7.8-7.63-9.75-9.54l13.38,5.56-.67.91C231.86,136,230.15,134,228,133a.44.44,0,0,1,.15-.86l.15,0,.24.06.86.28c1.16.39,3.85,1.41,5,1.83l-.25.38-2.6-3.09.15-.13c.37.41,3.09,3.19,3.42,3.55-.46-.16-3.71-1.13-4.26-1.31s-2.12-.63-2.75-.76a.42.42,0,0,0,.4-.35.38.38,0,0,0-.14-.38h0l.38.17c2.91,1.43,4.92,4.06,7,6.43l-2.16-.81-9.8-3.65.82-1.28,7,6.53,4.18,3.89-5.19-2.43c-3.68-1.72-7.37-3.43-11-5.18l1.17-1.65c1.41,1.39,5.2,5.07,6.58,6.43l-16-1.82,1.11-1.43c.32.91,1.11,2.88,1.42,3.78l-1.61-.12-13.76-1,.42-.07L194.16,142l-.32-.9-.43-1.21,1.37.44-11.8,7.9a8.55,8.55,0,0,1,.53-3.17c1.29-3.29,2.89-6.42,4.47-9.58l1,.54a51.17,51.17,0,0,1-3.73,4.79,142.62,142.62,0,0,1-12.83,12.72l-.41.36a9.2,9.2,0,0,1,0-3.77,52.8,52.8,0,0,1,2.78-9.1l.64.5c-3.61,3.84-6.56,8.56-9.67,12.83.75-4.74,1.48-9.59,2.28-14.32l1.57.67c-3,4.19-6.09,8.49-9.14,12.64.51-5.22,2.42-10.18,4.51-14.92l1.14,1c-5.07,3.31-9.31,8.6-10.26,14.72a87.15,87.15,0,0,0-1.42,11.28Z" style="fill:#fff;opacity:0.5"></path><path d="M166.31,198.69s-10.12-16.87-17.7-13.37-.75,27.41,7.59,31.2,12-3.87,12-3.87Z" style="fill:#ffc4c0"></path><path d="M150.74,192.12a.12.12,0,0,0-.07.23c5.84,2.85,8.62,8.65,10.43,14.58-1.64-2.35-4-3.74-7.11-1.82-.16.1,0,.35.14.33,2.5-.35,4.24.2,5.77,2.28a26,26,0,0,1,2.49,5c.24.56,1.23.34,1.07-.29a.57.57,0,0,0,0-.14C164.11,204.61,158.91,193.47,150.74,192.12Z" style="fill:#263238"></path><path d="M249.14,205.32c-.46,16.71-10.55,33.92-27,39.24a44.8,44.8,0,0,1-16.53,2.16,58.64,58.64,0,0,0,16-3.62c15.64-6,24.82-21.86,27.53-37.78Z" style="fill:#263238"></path><path d="M56.51,457.27C73,468.94,102.19,461,181.43,448.86c11-1.67,19.95-82.24,8.15-81.05-14.87,1.5-72.23,10.53-76.34,11.72C78.56,389.57,45.31,449.35,56.51,457.27Z" style="fill:#ffc4c0"></path><path d="M173.56,369.76s33.06-6.54,51.5-4.6c24.68,2.6,44.93,15,53.09,20.73,17.06,11.92,50,52.54,40,64.08-9.09,10.45-40.71-32.78-40.71-32.78s39.51,38.75,26.25,49.32-47.11-41.7-47.11-41.7,39.71,40.73,24.31,49.46c-11.63,6.6-45-39-45-39s33.88,35.24,22.21,42.55c-12.9,8.07-46.3-32.1-46.3-32.1-32.79,13.57-54,6.61-68.43-.13C139.91,444,173.56,369.76,173.56,369.76Z" style="fill:#ffc4c0"></path><path d="M264.63,402.92c4.81,4.38,9.7,8.78,14.1,13.58s8.64,9.75,12.57,14.93c9.65,12.72,13.7,22.19,13.39,21.63-7.43-13.19-22.91-30.6-27.32-35.4s-8.54-9.79-12.93-14.58C264.33,403,264.52,402.81,264.63,402.92Z" style="fill:#263238"></path><path d="M247,418.49c5.89,5.86,12,11.46,17.59,17.59s10.4,12.37,15.58,18.84c.4.49,0,.54-.42.06-5.43-6.25-10.93-11.62-16.44-17.81s-10.76-12.59-16.46-18.55C246.79,418.52,246.94,418.4,247,418.49Z" style="fill:#263238"></path><path d="M229.51,429.13c9.47,8.5,17.36,18.74,24.85,29,.38.51-.15.52-.56,0-8.08-9.78-14.35-17.51-24.58-28.65C229.06,429.29,229.31,429,229.51,429.13Z" style="fill:#263238"></path><path d="M144,374.31c-12.13,2.15-24.68,3.83-36.15,8.29-5.61,2.39-10.56,6.28-15.42,10q-7.28,5.79-14.27,12a138.2,138.2,0,0,1,13.28-13.23c4.81-4.08,9.77-8.06,15.63-10.61,11.83-4.53,24.42-5.83,36.93-6.45Z" style="fill:#263238"></path><path d="M235.91,367c6.3.55,12.22,3.11,18.05,5.39q8.7,3.72,17,8.29a83.11,83.11,0,0,1,12,7.74,210.25,210.25,0,0,1,16.51,17c7.38,8.87,27.41,32,20.12,43.62-3.17,4.65-6.88,3.15-10.95.74A65.45,65.45,0,0,1,297.54,441c3.53,2.8,15.59,13.24,19.6,9.07,10.35-9.4-12.52-35.47-19.2-43.3a206.78,206.78,0,0,0-16.14-16.95A96.25,96.25,0,0,0,270.19,382c-5.39-3.17-10.95-6.08-16.62-8.73S242.12,368,235.91,367Z" style="fill:#263238"></path></g></svg>