<svg xmlns="http://www.w3.org/2000/svg" viewBox="0 0 500 500"><g id="freepik--background-complete--inject-194"><path d="M47.14,239c-.59,0-.64-1.17,0-1.26,2.79-.35,5.58-2.85,8.36-3.21s5.53-.67,8-1.92c4.15-2.08,6.73-6.24,11-8.24,7.52-3.5,15.28-2,22.61,1.09a25.8,25.8,0,0,0,13.84,2c4.28-.54,8.45-1.72,12.71-2.33a25.14,25.14,0,0,1,11.41.55c3.82,1.23,7.11,3.63,10.71,5.37,4.74,2.29,9.43,1.9,14.53,2,3.68.11,11.37,2.44,11.37,4.91C171.74,239.66,54.44,239,47.14,239Z" style="fill:#ebebeb"></path><path d="M397.6,288.42c-5.14,0-133.36-.89-169.58-.89-2.54,0,.67-4.39,2.06-4.69,4.46-1,9.1-1,13.62-1.5a44.43,44.43,0,0,0,13-3.25c3.56-1.5,7.12-3.24,11-3.84,7.46-1.17,14,2.87,21,4.65a15.86,15.86,0,0,0,12.73-1.73c3.23-1.94,6.17-4.27,9.55-6a52.51,52.51,0,0,1,41.9-1.92A48.39,48.39,0,0,1,362,274c3.42,2.24,6.37,5.11,9.79,7.32,7.6,4.92,17,3.32,25.27,6.13C397.53,287.57,398,288.42,397.6,288.42Z" style="fill:#ebebeb"></path><path d="M263.44,150.53c-6.79,0-121.11.75-128.29.52-.52,0-.8-.78-.28-1,4.52-2.24,9.66-1.79,14.37-3.38,2.77-.93,4.47-2.74,6.39-4.82a13.26,13.26,0,0,1,6-3.88,12.57,12.57,0,0,1,6.47-.21c2.32.56,4.34,1.89,6.55,2.72,5.49,2.08,10.83.11,14.75-4,3.23-3.35,6.41-6.51,10.81-8.31a14.34,14.34,0,0,1,11.45-.16c4.2,1.9,7.07,5.72,11,8,4.67,2.73,10.25,2.08,15.41,2.9s9.12,5.17,13.64,7.67a9.66,9.66,0,0,0,4.93,1.53c1,0,2-.3,3-.42,1.56-.2,3-.15,4.08,1.15C263.94,149.18,263.89,150.53,263.44,150.53Z" style="fill:#ebebeb"></path><path d="M453,252.67c-5,0-88.43.55-93.67.38-.38,0-.58-.56-.21-.75,3.31-1.63,7.06-1.31,10.5-2.46a11.17,11.17,0,0,0,4.66-3.52,9.74,9.74,0,0,1,4.35-2.84,9.25,9.25,0,0,1,4.73-.15,42.28,42.28,0,0,1,4.78,2c4,1.51,7.9.07,10.76-2.89,2.37-2.45,4.69-4.76,7.9-6.07a10.44,10.44,0,0,1,8.36-.12c3.06,1.39,5.16,4.18,8,5.86,3.41,2,7.49,1.52,11.25,2.12s6.66,3.77,10,5.6a7.14,7.14,0,0,0,3.6,1.11c.74,0,1.46-.22,2.19-.31a3,3,0,0,1,3,.84C453.39,251.69,453.35,252.67,453,252.67Z" style="fill:#ebebeb"></path><path d="M432.3,126.45c-5,0-88.42.55-93.67.39-.37,0-.58-.57-.2-.75,3.31-1.64,7.06-1.31,10.49-2.47a11.12,11.12,0,0,0,4.67-3.52,9.71,9.71,0,0,1,4.34-2.84,9.25,9.25,0,0,1,4.73-.14,40.45,40.45,0,0,1,4.78,2c4,1.51,7.91.08,10.77-2.89,2.36-2.45,4.68-4.75,7.89-6.07a10.52,10.52,0,0,1,8.36-.12c3.06,1.39,5.16,4.18,8,5.86,3.41,2,7.48,1.52,11.25,2.12s6.66,3.77,10,5.6a7.08,7.08,0,0,0,3.6,1.11c.73,0,1.46-.22,2.19-.31a3,3,0,0,1,3,.84C432.67,125.47,432.63,126.45,432.3,126.45Z" style="fill:#ebebeb"></path><path d="M374.89,61.58H233.17c-.57,0-.78-.61-.21-.88,5.08-2.38,10.76-1.77,16-3.42,3.09-1,5-2.94,7.2-5.2a14.77,14.77,0,0,1,6.69-4.17,14,14,0,0,1,7.18-.07c2.56.66,4.76,2.18,7.2,3.16,6,2.43,12,.37,16.45-4,3.66-3.64,7.26-7.07,12.18-9a15.89,15.89,0,0,1,12.7.09c4.61,2.2,7.71,6.5,12,9.14,5.12,3.14,11.33,2.55,17,3.58s10.45,3.49,15.4,6.37A10.69,10.69,0,0,0,368.47,59c1.12,0,2.22-.29,3.34-.4,1.73-.18,3.37-.1,4.5,1.37C376.58,60.3,378.22,61.58,374.89,61.58Z" style="fill:#ebebeb"></path></g><g id="freepik--Water--inject-194"><path d="M46.1,427.91c130.63-.61,277.17-.62,407.8,0-130.63.62-277.17.61-407.8,0Z" style="fill:#263238"></path><path d="M75.06,462.09c20.35-.67,40.83-.67,61.17,0-20.35.67-40.82.67-61.17,0Z" style="fill:#dbdbdb"></path><path d="M58.91,432.08c46.85-.66,98.93-.64,145.81,0-46.89.65-98.95.67-145.81,0Z" style="fill:#dbdbdb"></path><path d="M307.51,432.08c46.85-.66,98.93-.64,145.81,0-46.89.65-98.95.67-145.81,0Z" style="fill:#dbdbdb"></path><path d="M259.41,439.42c38.88-.66,82.1-.65,121,0-38.91.65-82.11.67-121,0Z" style="fill:#dbdbdb"></path><path d="M340,469.49c16.51-.67,33.15-.67,49.67,0-16.52.67-33.15.67-49.67,0Z" style="fill:#dbdbdb"></path><path d="M370.45,460.56a206.21,206.21,0,0,1,29.2,0,209.24,209.24,0,0,1-29.2,0Z" style="fill:#dbdbdb"></path><path d="M46.68,450.84a207.66,207.66,0,0,1,29.09,0,207.66,207.66,0,0,1-29.09,0Z" style="fill:#dbdbdb"></path></g><g id="freepik--Character--inject-194"><path d="M349.21,378.93c-2.55.79-74.83-1-77.53-2.79-1.05-.68,2.45-64.77,2.45-64.77l43.3,1.22-.61,40.58s27.36,13.05,30.13,15.36S351.75,378.15,349.21,378.93Z" style="fill:#ad6359"></path><path d="M349.21,378.93c-2.55.79-74.82-1-77.54-2.8-.5-.32.18-16.1.76-31.45l44.51.73-.12,7.76s27.36,13.05,30.13,15.36S351.75,378.15,349.21,378.93Z" style="fill:#ebebeb"></path><path d="M350.27,379.25c-2.59.82-76.24-.43-79-2.27-1.06-.67.86-25,.86-25.11l45,.58,0,.8s28,13.09,30.81,15.43S352.85,378.44,350.27,379.25Z" style="fill:#ECEFF1"></path><path d="M350.27,379.25c-2.59.82-76.24-.43-79-2.27-1.06-.67.86-25,.86-25.11l45,.58,0,.8s28,13.09,30.81,15.43S352.85,378.44,350.27,379.25Z" style="opacity:0.30000000000000004"></path><path d="M349.48,376.38c-12.41-.52-62.51-1.43-74.81-1-.1,0-.1.07,0,.08,12.29.78,62.39,1.29,74.81,1.12C349.74,376.58,349.74,376.39,349.48,376.38Z" style="fill:#263238"></path><path d="M322.4,352.67c-4.87-1-10.86-.35-14.65,3.07-.15.13,0,.34.2.29a69.29,69.29,0,0,1,14.42-2.74A.31.31,0,0,0,322.4,352.67Z" style="fill:#263238"></path><path d="M325.89,354.86c-4.87-1-10.86-.35-14.65,3.07-.15.13,0,.34.2.29a68.66,68.66,0,0,1,14.42-2.75A.31.31,0,0,0,325.89,354.86Z" style="fill:#263238"></path><path d="M329.38,357c-4.87-1-10.86-.34-14.65,3.07-.15.13,0,.34.2.29a69.29,69.29,0,0,1,14.42-2.74A.31.31,0,0,0,329.38,357Z" style="fill:#263238"></path><path d="M322.41,328.84H270.07s2.77-77.36,1.52-81.52c-.49-1.62-62.13-25-80.45-37.49-24.4-16.69-14.74-54.24-14.74-54.24h60.74s-2.77,14.8.37,18c3.83,3.91,76.47,28.33,82.53,44C328.77,240.31,322.41,328.84,322.41,328.84Z" style="fill:#37474f"></path><path d="M322.41,328.83H270.07s2.77-77.36,1.52-81.52c-.33-1.08-28.08-11.91-51.87-22.7C208,219.29,197.2,214,191.14,209.83c-24.4-16.7-14.73-54.23-14.73-54.23h60.73s-2.77,14.8.37,18c3.83,3.91,76.47,28.32,82.52,44C328.77,240.31,322.41,328.83,322.41,328.83Z" style="fill:#ECEFF1"></path><path d="M322.41,328.83H270.07s2.77-77.36,1.52-81.52c-.33-1.08-28.08-11.91-51.87-22.7C208,219.29,197.2,214,191.14,209.83c-24.4-16.7-14.73-54.23-14.73-54.23h60.73s-2.77,14.8.37,18c3.83,3.91,76.47,28.32,82.52,44C328.77,240.31,322.41,328.83,322.41,328.83Z" style="fill:#fff;opacity:0.6000000000000001"></path><path d="M319.48,317.56c-7.51-.18-5.36-.26-12.87-.34-3.68,0-27.84-.25-31.28.45-.07,0-.07.18,0,.19,3.44.7,27.6.4,31.28.35,7.52-.11,5.36-.18,12.87-.38C319.62,317.82,319.62,317.56,319.48,317.56Z" style="fill:#263238"></path><path d="M182.25,158.53c.87,13,2.53,26.54,8.92,38.05,2.05,3.92,5.81,6.35,9.51,8.65A232,232,0,0,0,224.17,217c16,7.24,32.41,13.5,48.47,20.65,2.15,1.07,4.38,1.89,6.27,3.46.69.73.41,2.16.56,3.11.74,23,.65,46.12.56,69.17-.21-10.23-1.07-56.62-1.39-65.84,0-1.21-.16-3.75-.25-4.9,0-.28-.05-.52-.08-.76,0,.07,0,0-.1-.1a32.46,32.46,0,0,0-6-3.24c-8-3.61-16.13-6.91-24.22-10.32-16.15-6.91-32.56-13.4-47.71-22.4-3.24-2.06-6.65-4.23-8.77-7.54a46.92,46.92,0,0,1-5.73-13.69,120.24,120.24,0,0,1-3.55-26.08Z" style="fill:#263238"></path><path d="M237,155.6l-17.24,69C208,219.29,197.2,214,191.14,209.83c-24.4-16.7-14.73-54.23-14.73-54.23Z" style="fill:#263238"></path><path d="M206.36,427.74c-2.54.79-74.83-.73-77.54-2.54-1-.67-1.43-11.22-1.54-24v-.4c0-2.63,11.61-42.57,11.61-42.57l46,.53-11,42.5,0,.79s27.41,13,30.18,15.27S208.9,427,206.36,427.74Z" style="fill:#ad6359"></path><path d="M206.35,427.73c-2.53.81-74.81-.72-77.53-2.53-1-.68-1.43-11.22-1.54-24,0-.12,0-.26,0-.39,0-.69,2.19-9.26,2.19-9.26l46.64,1.22-2.18,8.51,0,.79s27.41,13,30.18,15.25S208.9,427,206.35,427.73Z" style="fill:#ebebeb"></path><path d="M207.07,427.89c-2.59.8-76.23-.93-79-2.78-1.06-.68-1.43-11.43-1.51-24.42v-.41l47.52.59,0,.8s27.89,13.27,30.71,15.63S209.66,427.09,207.07,427.89Z" style="fill:#ECEFF1"></path><path d="M207.07,427.89c-2.59.8-76.23-.93-79-2.78-1.06-.68-1.43-11.43-1.51-24.42v-.41l47.52.59,0,.8s27.89,13.27,30.71,15.63S209.66,427.09,207.07,427.89Z" style="opacity:0.30000000000000004"></path><path d="M206.3,425c-12.4-.6-62.49-1.83-74.8-1.48-.1,0-.1.07,0,.08,12.28.86,62.38,1.69,74.8,1.6C206.56,425.21,206.56,425,206.3,425Z" style="fill:#263238"></path><path d="M179.37,401.13c-4.86-1-10.85-.42-14.66,3-.15.13,0,.34.2.3a67.83,67.83,0,0,1,14.43-2.65A.31.31,0,0,0,179.37,401.13Z" style="fill:#263238"></path><path d="M182.85,403.34c-4.86-1-10.85-.42-14.67,3-.15.13,0,.34.2.29A69.32,69.32,0,0,1,182.82,404,.31.31,0,0,0,182.85,403.34Z" style="fill:#263238"></path><path d="M186.33,405.54c-4.87-1-10.86-.41-14.67,3-.15.13,0,.34.2.29a69.23,69.23,0,0,1,14.43-2.65A.31.31,0,0,0,186.33,405.54Z" style="fill:#263238"></path><path d="M237.14,155.59s.34,26.84-7.63,37.62c-.46.62-6,2.75-7,3.88,0,0-7.61,68.24-12,90.66-5.84,29.6-25.69,85.36-25.69,85.36l-52.57-.62s28.92-87.34,29.17-89.27c1.41-11,7.86-79.19,7.23-81.08-1.59-4.74-3.5-8.34-3.2-13.51.75-13.21,6.06-33,6.06-33Z" style="fill:#ECEFF1"></path><path d="M237.14,155.59s.34,26.84-7.63,37.62c-.46.62-6,2.75-7,3.88,0,0-7.61,68.24-12,90.66-5.84,29.6-25.69,85.36-25.69,85.36l-52.57-.62s28.92-87.34,29.17-89.27c1.41-11,7.86-79.19,7.23-81.08-1.59-4.74-3.5-8.34-3.2-13.51.75-13.21,6.06-33,6.06-33Z" style="fill:#fff;opacity:0.6000000000000001"></path><path d="M184.47,362.49c-7.81-.29-5.57-.33-13.38-.52-3.83-.09-29-.67-32.55,0-.08,0-.08.17,0,.19,3.57.74,28.72.8,32.54.8,7.82,0,5.58-.09,13.4-.19C184.62,362.76,184.62,362.5,184.47,362.49Z" style="fill:#263238"></path><path d="M229.51,193.21a99.3,99.3,0,0,0-15.72,7.32.18.18,0,0,0,.15.32c5.29-2.27,10.69-4.45,15.86-7A.35.35,0,0,0,229.51,193.21Z" style="fill:#263238"></path><path d="M231.19,156.87c0-.18-.33-.22-.33,0,0,6.29-.36,11.82-.89,17.7-.25,2.73-2.44,17.8-7.17,16.7-.79-.18-1.2-1-1.32-2.16a18.83,18.83,0,0,1,.63-4.62c.52-3.16.94-6.32,1.22-9.51a86.39,86.39,0,0,0-.2-17.83.15.15,0,0,0-.3,0,163.34,163.34,0,0,1-1.44,24.61c-.59,3.92-2.57,9.83,1.53,10.43s6.88-9.27,7.39-12A90.24,90.24,0,0,0,231.19,156.87Z" style="fill:#263238"></path><path d="M222.93,191.65a24.42,24.42,0,0,0-1.07,3.12,7.31,7.31,0,0,0-.44,2.57c0,.17.24.18.33.07a9.19,9.19,0,0,0,1.1-2.5c.36-1,.74-1.93,1.07-2.9A.53.53,0,0,0,222.93,191.65Z" style="fill:#263238"></path><path d="M181.14,177.23c1.15-.19,2.83.21,7.81-.14a26.81,26.81,0,0,0,4.09-.66,9,9,0,0,0,3.8-1.54,20.06,20.06,0,0,0,4.33-6,30.3,30.3,0,0,0,3-7.36c0-.15.26-.08.24.07-.27,1.46-.41,2.91-.8,4.35a26.42,26.42,0,0,1-1.45,4c-1.06,2.39-2.31,4.95-4.45,6.56s-5.38,2-8.1,2.2c-1.58.11-7.75-.06-8.58-.94C180.91,177.61,180.92,177.27,181.14,177.23Z" style="fill:#263238"></path><path d="M177.17,158.53c-1.93,10.07-4.13,20.15-4.92,30.39a6.55,6.55,0,0,0,.27,2.67c1.2,3.6,2.32,7.22,3.32,10.85-2,23.24-5,55.9-6.77,78.81a34.62,34.62,0,0,1-1.85,9.78c-6.62,22.11-14.42,43.85-22.17,65.59,4.44-13.47,14.39-43.34,18.43-56.39,1.72-6.18,4.47-12.63,4.63-19,1.37-19,3.46-40,5.18-59.12l1.9-19.69c-.9-2.94-2-7.28-3.18-10.61a7.06,7.06,0,0,1-.27-2.87,84.35,84.35,0,0,1,1.07-8.37c1.24-7.38,2.76-14.7,4.36-22Z" style="fill:#263238"></path><path d="M229.62,99.49c0,15.14.3,36,3.7,39.72,8.85,9.68,29.32,23.57,38,25.33,3.26.66,14.18-22.91,10.73-23.74-6.38-1.52-29.54-13.66-30.91-15.35-1-1.17-6-17.2-11-27.84C233.17,82.51,229.6,94.06,229.62,99.49Z" style="fill:#ad6359"></path><path d="M311.22,162.76a1.43,1.43,0,0,1-1.21.51c.94,2.11,1.18,4-.23,5a2.59,2.59,0,0,1-2.88-.08,2,2,0,0,1-.9,2.52c-1.72.87-5.24-1.72-8.44-4.66,1.87,2.37,3,4.64,1.51,5.49-4,2.23-10.49-5.13-15.57-9.5a21.5,21.5,0,0,0-5.18-3.46,5.42,5.42,0,0,0-.89-.29,1.71,1.71,0,0,0-1.93.48c-.71,1,1.09,3.25,2.69,4.3,3.05,2,5.14,7.17,3.92,9.09-1.78,2.82-8.17-2.65-10.86-4-3.61-1.81-8.41-6.76-8.81-7.07,0,0,.68-2.42,1.82-5.73,2.16-6.3,6-15.82,9.72-17.83,0,0,13.72,1.42,25.86,6.8C304,146.19,314.41,159.43,311.22,162.76Z" style="fill:#ad6359"></path><path d="M286.12,155.33a16.45,16.45,0,0,1,6.45,4c2.53,2.47,3.37,4.29,5.37,7,.06.07-.05.16-.11.09-.95-1.3-4.32-5.46-5.39-6.61a15.85,15.85,0,0,0-6.34-4.48S286.09,155.32,286.12,155.33Z" style="fill:#263238"></path><path d="M289.79,150.59A36.83,36.83,0,0,1,297,155c2.75,2.14,4.66,5.13,6.54,8,1.13,1.73,2.23,3.49,3.28,5.28.05.08-.06.16-.11.09q-2.85-4.47-6-8.77a25,25,0,0,0-7.11-6.63c-1.59-1-2.24-1.46-3.9-2.31C289.74,150.62,289.76,150.57,289.79,150.59Z" style="fill:#263238"></path><path d="M293.27,146.28c2.8,1.15,5.31,2.1,7.59,4.16a36.77,36.77,0,0,1,6.14,7.83c1,1.62,2,3.26,2.93,4.92,0,.07-.08.14-.12.07a98.06,98.06,0,0,0-7.22-10.53,16,16,0,0,0-4-3.68,35.54,35.54,0,0,0-5.35-2.75S293.26,146.28,293.27,146.28Z" style="fill:#263238"></path><path d="M249.58,116.16,229,127.87s-.91-26,1-33.76c2.13-8.7,6.11-5.71,10.59,1.53S249.58,116.16,249.58,116.16Z" style="fill:#ECEFF1"></path><path d="M246.74,112.85c-2.82,1.13-10.81,5.74-12.14,6.49-.7.39-3.42,2.08-4.12,2.47-.09,0,0,.18.09.13,1.34-.74,2.76-1.34,4.11-2.07s9.64-5.12,12.12-6.92A.06.06,0,0,0,246.74,112.85Z" style="fill:#263238"></path><path d="M242.24,120.34,229,127.88s-.91-26,1-33.77c1-4.17,2.48-5.65,4.2-5.28h0Z" style="opacity:0.1"></path><path d="M235.32,173S165.21,160.39,165,159.88c-.59-1.36,35.66-66,56.58-75.57,3.83-1.75,13.16,2.84,14.84,5.72C240.83,97.58,236.48,172.3,235.32,173Z" style="fill:#ECEFF1"></path><path d="M233.64,96.65c-.59,6.08-1.29,12.14-2,18.2S230.08,127,229.32,133s-1.66,12.09-2.56,18.13l-1.36,9.05c-.49,3-1,6-1.48,9,.28-3,.64-6.07,1-9.11l1.07-9.09c.72-6.06,1.54-12.11,2.3-18.16s1.66-12.09,2.56-18.13S232.61,102.67,233.64,96.65Z" style="fill:#263238"></path><path d="M235.63,115.81a1.14,1.14,0,1,1-1-1.27A1.15,1.15,0,0,1,235.63,115.81Z" style="fill:#263238"></path><path d="M233.83,127.46a1.14,1.14,0,1,1-1-1.26A1.15,1.15,0,0,1,233.83,127.46Z" style="fill:#263238"></path><path d="M232,139.12a1.14,1.14,0,1,1-1-1.27A1.14,1.14,0,0,1,232,139.12Z" style="fill:#263238"></path><path d="M230.23,150.77a1.14,1.14,0,0,1-1.26,1,1.15,1.15,0,0,1,.26-2.28A1.13,1.13,0,0,1,230.23,150.77Z" style="fill:#263238"></path><path d="M228.44,162.42a1.15,1.15,0,1,1-1-1.27A1.15,1.15,0,0,1,228.44,162.42Z" style="fill:#263238"></path><path d="M209.88,96c-8.6,12.89-27.25,39.14-25.49,50.49,2.3,14.9,24.15,34.56,29.74,40,2.44,2.36,19.11-12.92,18.85-16.54s-21.6-26.85-22.6-29.38,7.36-26.33,10.52-39.1C224.88,85.36,217.16,85.11,209.88,96Z" style="fill:#ad6359"></path><path d="M233.84,173.67c-.73-1.57.08-2,2.83-.58s12.46,9.19,14.9,5.57-11.42-14.43-16.17-16.39-13.14-3.44-13.14-3.44C224.54,161.48,229.44,168.42,233.84,173.67Z" style="fill:#ad6359"></path><path d="M204.73,177.62c6.68,7.22,14.56,16.61,25.19,19.81a5.52,5.52,0,0,0,3.59-.06c4.74,1.52,6.88-.26,6.88-.26,4.85.06,6.78-2.06,6.78-2.06s5.59,1.72,7.19-1.48c1.8-3.59-6.39-5.3-10.32-9-9-8.48-19.42-23-21.78-25.74Z" style="fill:#ad6359"></path><path d="M228.37,182.32a78.91,78.91,0,0,0,8.3,7,81,81,0,0,0,10.46,5.63c.11.05,0,.21-.08.18a42.13,42.13,0,0,1-18.8-12.66C228.14,182.3,228.23,182.19,228.37,182.32Z" style="fill:#263238"></path><path d="M222.46,187c2.76,2.22,7.63,6.11,18,10,0,0,0,.07,0,.06a37.69,37.69,0,0,1-18.06-9.92C222.2,187,222.28,186.86,222.46,187Z" style="fill:#263238"></path><path d="M219.34,189.58c4.83,3.62,8.34,5.28,14.16,7.76,0,0,0,.07,0,.06-6.92-2.12-9.18-3.67-14.29-7.67C219,189.6,219.15,189.44,219.34,189.58Z" style="fill:#263238"></path><path d="M217.24,119.25l-23.52-2.79S208.43,95,214.55,89.87c6.87-5.74,8.31-1,7.61,7.52S217.24,119.25,217.24,119.25Z" style="fill:#ECEFF1"></path><path d="M216.92,114.9c-2.95-.76-12.11-1.8-13.62-2-.8-.1-4-.35-4.79-.46-.11,0-.11.15,0,.16,1.52.2,3,.56,4.54.77S213.83,115,216.9,115C217,115,217,114.91,216.92,114.9Z" style="fill:#263238"></path><path d="M207.59,97.7c.06-.09-.07-.17-.14-.09-1.45,1.67-2.85,3.38-4.23,5.11a18.45,18.45,0,0,1,1.76-3s0-.08-.07,0a15.62,15.62,0,0,0-2,3.47c-1,1.21-1.9,2.42-2.84,3.65-2.37,3.13-4.79,6.24-7,9.5a.28.28,0,0,0,.21.42c.82.07,1.64.12,2.46.13.09,0,.12-.13,0-.15-.66-.17-1.33-.3-2-.42,2.38-3,4.6-6,6.89-9.07S205.35,100.92,207.59,97.7Z" style="fill:#263238"></path><path d="M220.33,109.56c.45-1.16.9-2.33,1.32-3.51,0,0,0,0,0,0-.37.84-.71,1.69-1.05,2.55.4-1.8.77-3.59,1.05-5.4,0,0,0,0,0,0-.84,2.65-1.52,5.35-2.29,8s-1.46,5.25-2.17,7.88c-.54,0-1.09,0-1.63,0a.08.08,0,0,0,0,.16c.59.1,1.17.19,1.76.32a.26.26,0,0,0,.33-.17C218.61,116.19,219.54,112.89,220.33,109.56Z" style="fill:#263238"></path><path d="M226,61.05s.89-11.42,4.18-15.61c1.78-2.25,5.25-1.73,6.42-2.35s3.35-3.38,6.38-3.85,11.84,6.92,14.11,12.14Z" style="fill:#ECEFF1"></path><path d="M226,61.05s.89-11.42,4.18-15.61c1.78-2.25,5.25-1.73,6.42-2.35s3.35-3.38,6.38-3.85,11.84,6.92,14.11,12.14Z" style="opacity:0.4"></path><path d="M254.65,74.74c-17.53,5.43-51,7.89-55.56.56-4.76-7.58,14.3-21.62,38-27,24.42-5.56,45.7-3.55,49.45,2.16C291.82,58.41,273.43,68.92,254.65,74.74Z" style="fill:#ECEFF1"></path><path d="M254.65,74.74c-17.53,5.43-51,7.89-55.56.56-4.76-7.58,14.3-21.62,38-27,24.42-5.56,45.7-3.55,49.45,2.16C291.82,58.41,273.43,68.92,254.65,74.74Z" style="opacity:0.2"></path><path d="M283,52.67a12.07,12.07,0,0,0-1.63-1.86c.59,0,1.17,0,1.76.06.13,0,.12-.2,0-.23a11.89,11.89,0,0,0-2.36-.34,13.15,13.15,0,0,0-3.28-2,30.12,30.12,0,0,1,3.61-.3.11.11,0,0,0,0-.22,14.45,14.45,0,0,0-4.25.25,15,15,0,0,0-2.55-.67.05.05,0,0,0,0,.1,18.09,18.09,0,0,1,2,.69,18.5,18.5,0,0,0-2.43.76,10.49,10.49,0,0,0-1.77-.26c-.07,0-.09.09,0,.1a9.79,9.79,0,0,1,1.45.29A21.16,21.16,0,0,0,271,50.32c-.05,0,0,.11.06.08a17.29,17.29,0,0,1,2.82-1.22,14.78,14.78,0,0,1,3,1.32c-.89.13-1.77.29-2.64.47-.06,0-.05.1,0,.09a19.84,19.84,0,0,1,3.06-.31c.84.5,1.66,1,2.51,1.57.12.08.25-.12.13-.21A21.43,21.43,0,0,0,278,50.74c.87,0,1.74,0,2.61,0a22.62,22.62,0,0,1,2.14,2C282.84,53,283.05,52.81,283,52.67Zm-5.51-2.26A13.51,13.51,0,0,0,274.27,49a21.27,21.27,0,0,1,2.6-.6,16.71,16.71,0,0,1,3.07,1.83A19,19,0,0,0,277.44,50.41Z" style="opacity:0.2"></path><path d="M206.56,69.92c.14,0,.07-.22-.05-.22a6,6,0,0,0-1.62.25,16.87,16.87,0,0,1,.91-1.6c.09-.15-.09-.31-.21-.18a7.88,7.88,0,0,0-1.27,2,8.24,8.24,0,0,0-2.23,1.27,16,16,0,0,1,1-3.16c.07-.15-.14-.24-.23-.11a8.8,8.8,0,0,0-1.2,3.64,9.37,9.37,0,0,0-1.61,1.8,0,0,0,1,0,.07.06,9.22,9.22,0,0,1,1.51-1.49,10.74,10.74,0,0,0,0,1.7c-.28.18-.55.36-.81.55-.07,0,0,.16.08.11.25-.16.5-.29.75-.44a12,12,0,0,0,.3,1.69.06.06,0,0,0,.11,0,11.15,11.15,0,0,1-.2-1.78,12.13,12.13,0,0,1,1.55-.72.32.32,0,0,1,.09,0,13,13,0,0,0-.05,1.66c0,.07.11,0,.11,0a8.89,8.89,0,0,1,.21-1.72c.69-.22,1.39-.37,2.07-.62.13,0,.08-.22-.05-.22a6.13,6.13,0,0,0-1.94.41,12.81,12.81,0,0,1,.74-2.16C205.23,70.31,205.88,70.11,206.56,69.92Zm-4.69,3.78a11,11,0,0,1,.13-1.82,10.56,10.56,0,0,1,2.06-1.13,9.77,9.77,0,0,0-.5,2.07A11.27,11.27,0,0,0,201.87,73.7Z" style="opacity:0.2"></path><path d="M230.92,98c-3.69-1.08-6.45-9.22-6.37-14.5,0-.36,2.09-3,4.46-6.4,1.43-2.05,3-4.36,4.23-6.57l12,11.26A40.28,40.28,0,0,0,239,89.54a5.29,5.29,0,0,0-.42,1l-.07.16C237.85,92.55,234.49,99.06,230.92,98Z" style="fill:#ad6359"></path><path d="M233.81,71.08c-1.14,3-4.66,14.11,3.27,18.85a11.91,11.91,0,0,0,1.47.74.7.7,0,0,0,.06-.17,6.67,6.67,0,0,1,.42-1,40.85,40.85,0,0,1,6.18-7.73Z" style="fill:#263238"></path><path d="M234.64,55.41c-3.4,4.85-5.61,21.32-2.91,26,3.92,6.82,12.85,10.26,19.29,5,6.24-5.13,8.74-26.64,5.49-31.19C251.72,48.56,239.65,48.25,234.64,55.41Z" style="fill:#ad6359"></path><path d="M252.75,71.86s.08.06.07.11c-.23,1.09-.32,2.39.61,2.93,0,0,0,.07,0,.06C252.23,74.57,252.35,72.86,252.75,71.86Z" style="fill:#263238"></path><path d="M253.94,70.88c1.8.18,1.3,3.76-.37,3.59S252.44,70.73,253.94,70.88Z" style="fill:#263238"></path><path d="M246.64,71.16s-.09,0-.09.1c-.06,1.11-.31,2.39-1.35,2.67,0,0,0,.07,0,.06C246.45,73.92,246.77,72.23,246.64,71.16Z" style="fill:#263238"></path><path d="M245.75,69.92c-1.79-.29-2.23,3.29-.58,3.56S247.24,70.16,245.75,69.92Z" style="fill:#263238"></path><path d="M244.73,68.2A14.36,14.36,0,0,0,246.2,68a2.4,2.4,0,0,0,1.48-.45.77.77,0,0,0,.09-.93A1.9,1.9,0,0,0,246,66a2.78,2.78,0,0,0-1.84.81A.82.82,0,0,0,244.73,68.2Z" style="fill:#263238"></path><path d="M255.85,68.91a12.54,12.54,0,0,1-1.34-.62,2.39,2.39,0,0,1-1.26-.89.77.77,0,0,1,.21-.91,1.89,1.89,0,0,1,1.92,0,2.76,2.76,0,0,1,1.48,1.35A.81.81,0,0,1,255.85,68.91Z" style="fill:#263238"></path><path d="M243.73,80.83c.21.3.41.7.81.81a2.85,2.85,0,0,0,1.23-.07s.07,0,0,.07a1.52,1.52,0,0,1-1.51.35,1.21,1.21,0,0,1-.69-1.13C243.61,80.79,243.69,80.78,243.73,80.83Z" style="fill:#263238"></path><path d="M245.48,77.73a3.76,3.76,0,0,0,2.2,2.12,4.67,4.67,0,0,0,1.34.31,1.15,1.15,0,0,0,.26,0h.25a.3.3,0,0,0,.27-.21h0s0-.07,0-.11h0v-.1c.18-.84.33-2.15.33-2.15.28.21,1.73,1.21,1.79.76a57.71,57.71,0,0,0,.58-11.61.11.11,0,0,0-.21,0c-.56,3.55-.5,7.17-1,10.74a6.59,6.59,0,0,0-1.67-.85c-.13,0-.24,2.52-.35,2.9,0,0,0,0,0,0a5.25,5.25,0,0,1-3.66-1.9C245.53,77.58,245.43,77.63,245.48,77.73Z" style="fill:#263238"></path><path d="M248.44,79.81a4.57,4.57,0,0,1-2.1.87,2,2,0,0,1-1.2-.25c-.79-.45-.6-1.24-.26-1.87a5.1,5.1,0,0,1,.66-.93A5.81,5.81,0,0,0,248.44,79.81Z" style="fill:#263238"></path><path d="M246.34,80.68a2,2,0,0,1-1.2-.25c-.79-.45-.6-1.24-.26-1.87A2.07,2.07,0,0,1,246.34,80.68Z" style="fill:#f291b8"></path><path d="M230.89,69.63c2.25,1.12,4-.66,4.85-2s2.09-10.48,3.67-12.48,4.28-2.76,6.12-1.81,4.95,3.9,6.42,4,1.33-2.81,2.33-2.62c2.21.42,3.51,6.31,3.44,8.81,0,0,2.4-10.59-9-13.5-10.21-2.61-14.13,3.74-15.62,6.68C230.2,62.36,230.89,69.63,230.89,69.63Z" style="fill:#263238"></path><path d="M231,64.37s11.94-9.49,27-5.58c0,0-2.43-12.56-18-9.44C229.11,51.51,231,64.37,231,64.37Z" style="fill:#ECEFF1"></path><path d="M231,64.37s11.94-9.49,27-5.58c0,0-2.43-12.56-18-9.44C229.11,51.51,231,64.37,231,64.37Z" style="opacity:0.2"></path><path d="M234.29,69s-2-6.13-4.68-5.57-2.24,8.71.15,10.53a2.87,2.87,0,0,0,4.12-.36Z" style="fill:#ad6359"></path><path d="M229.79,65.74s-.06,0,0,.07c1.66,1.34,2.12,3.39,2.27,5.42a1.59,1.59,0,0,0-2.14-1.1c-.06,0,0,.11,0,.12a1.77,1.77,0,0,1,1.68,1.15,8.8,8.8,0,0,1,.43,1.77c0,.19.37.2.36,0V73.1C233.16,70.71,232.31,66.77,229.79,65.74Z" style="fill:#263238"></path><path d="M238.55,90.66l-4.71,6.42-8.55-15L221,84.75s5.17,21.27,5.49,20.48L233.65,99l2.54,6.77,3.34-11.39Z" style="fill:#ECEFF1"></path><path d="M238.44,99.15c.56-2.25.72-2.38,1.17-4.66,0-.08-.1-.15-.15-.07-1.11,2-2.72,8.5-3.37,10.52v0c-.15-.3-2.36-6-2.43-6-1.18,1-6.68,5.47-7,5.92-.81-3.37-4.11-15.75-5.28-19.07a.08.08,0,0,0-.16,0c.57,3.47,4.85,20.09,5,20.09a72.66,72.66,0,0,0,7.45-6.66c.48,1.22,2.56,7.51,2.68,7.19A73.75,73.75,0,0,0,238.44,99.15Z" style="fill:#263238"></path></g><g id="freepik--boat--inject-194"><path d="M117.54,428.09H360c29.13,0,84.05-93.29,84.05-93.29-.41-5-91.47-3.08-96.45-1.4-24.81,8.38-70.45,25.28-125.33,25.28-111.66,0-158.93-1.3-166.34-1.3C55.94,357.38,93.82,428.09,117.54,428.09Z" style="fill:#ECEFF1"></path><path d="M117.54,428.09H360c29.13,0,84.05-93.29,84.05-93.29-.41-5-91.47-3.08-96.45-1.4-24.81,8.38-70.45,25.28-125.33,25.28-111.66,0-158.93-1.3-166.34-1.3C55.94,357.38,93.82,428.09,117.54,428.09Z" style="opacity:0.4"></path><path d="M444.06,334.8S389.14,428.09,360,428.09H250s31.92-2.28,40.07-7.6c19.51-12.77,57.54-87.09,57.54-87.09l.15,0C354.23,331.69,443.66,329.86,444.06,334.8Z" style="opacity:0.1"></path><path d="M55.94,357.38c61.12.51,122.32-.27,183.38-2.69,11.91-.63,23.77-2.92,35.46-5.38,22.89-5,47.94-12.42,70.55-19.09a47.54,47.54,0,0,1,12.93-2.09,358.59,358.59,0,0,1,37.1.44c8.19.41,16.37,1.12,24.52,1.93,7.63.91,15.37,1.57,22.8,3.6a3.54,3.54,0,0,1,1.38.7c-1.82-.84-4-.63-6-.83-6.11-.24-12.23-.21-18.35-.16-16.27.13-32.54.56-48.78,1.46-6.8.51-13.7.75-20.28,2.4-24.2,7.83-48.74,15.86-73.75,21.35-12.17,2.67-24.57,5-37.13,5.55-61.32,1.71-122.93.46-183.84-7.19Z" style="fill:#ECEFF1"></path></g><g id="freepik--Fishes--inject-194"><path d="M365.85,390.22c.81.66,22.24-8.37,33.24-3.46s22.44,19.92,23.1,20.6-6.75,1-6.57,1.27,4.43.37,4.93.91-20.11,12.5-31.62,8.09c-14.06-5.38-24.61-23.38-24.61-23.38s-6.56,9.62-9.13,6.31,6.2-8.23,6.2-8.23-4-.15-6.23-2.44S351,379,353,378.55C357.79,377.46,365.85,390.22,365.85,390.22Z" style="fill:#455a64"></path><path d="M408.86,402.27c-2.52-2-5.72,1.86-3.2,3.92S411.38,404.33,408.86,402.27Z" style="fill:#263238"></path><path d="M396.14,402.82c1.08-3.52,6.82-7.34,11.14-9.17.07,0,0-.14,0-.11-2.68.81-11.37,4.12-12.47,9.55-.88,4.32,4.72,11.73,6.94,13.64.16.13.28,0,.15-.15-1.44-1.92-6.8-10.24-5.72-13.76" style="opacity:0.2"></path><path d="M307.74,349.68s.92-24.23-7.93-35.42-29.14-14.76-30.14-14.52,2.94,7.74,2.94,7.74-3-5.23-4.09-5.34-1.16,20.42,3.42,29.73,32.48,19.27,32.48,19.27-5.12,10.42.11,11.78c3.31.86,2.3-10.66,2.3-10.66s12.58,12.48,13.85,7.41C321.66,355.75,314.57,348.79,307.74,349.68Z" style="fill:#455a64"></path><path d="M278.28,310.23c3.39,1.57,1,6.85-2.45,5.28S274.87,308.65,278.28,310.23Z" style="fill:#263238"></path><path d="M270.59,325.85c2.72.52,14,1.89,17.13-1s4.17-10.76,3.9-16.15a.07.07,0,0,1,.13,0c.51,3.19,1.45,13.85-3.61,17.73-4,3.08-14.53,1-17.63-.33C270.29,326,270.35,325.81,270.59,325.85Z" style="opacity:0.2"></path><path d="M251.12,394.77s-2.65-18.92,3.4-28.39,21.68-13.9,22.48-13.79-1.69,6.31-1.69,6.31,1.94-4.34,2.78-4.52,2.53,15.93-.31,23.59-23.94,17.69-23.94,17.69,4.84,7.76.85,9.24c-2.53.94-2.66-8.17-2.66-8.17s-8.87,10.78-10.27,6.91C240.68,400.64,245.69,394.62,251.12,394.77Z" style="fill:#455a64"></path><path d="M271.09,361.5c-2.54,1.51-.21,5.46,2.34,3.95S273.63,360,271.09,361.5Z" style="fill:#263238"></path><path d="M278.35,373.14c-2.08.63-10.84,2.6-13.51.58s-4.12-8.11-4.34-12.36a.05.05,0,1,0-.1,0c-.14,2.54,0,11,4.24,13.61,3.41,2.1,11.47-.35,13.79-1.66C278.6,373.22,278.53,373.09,278.35,373.14Z" style="opacity:0.2"></path><path d="M380.14,362.74s-19-1.86-26.81-10-8.42-24.33-8.13-25.09,5.73,3.13,5.73,3.13-3.76-2.91-3.73-3.76,16.07,1.26,22.86,5.83,11.58,27.41,11.58,27.41,8.68-2.88,9.19,1.34c.32,2.68-8.58.67-8.58.67s8.41,11.15,4.32,11.6C383.4,374.26,378.72,368,380.14,362.74Z" style="fill:#455a64"></path><path d="M352.48,335.53c.86,2.82,5.25,1.48,4.38-1.35S351.61,332.71,352.48,335.53Z" style="fill:#263238"></path><path d="M365.5,331.2c.11,2.17,0,11.15-2.61,13.27s-8.85,2.11-13,1.32a.05.05,0,0,0,0,.1c2.44.73,10.66,2.61,14.23-.93,2.84-2.82,2.34-11.24,1.62-13.8C365.63,331,365.48,331,365.5,331.2Z" style="opacity:0.2"></path><path d="M338.84,377.55s-5.62-9-11.81-9.85-18.3,5.91-18.29,6.5,4.58,10.14,12.09,13.27,18-7.83,18-7.83,1.75,3.3,3.7,2.89-1.66-3.79-1.66-3.79,4.74-2,3.68-4.63C344,372.57,340.56,374.33,338.84,377.55Z" style="fill:#455a64"></path><path d="M315.5,378.11a1.83,1.83,0,0,0,2.1-3A1.83,1.83,0,0,0,315.5,378.11Z" style="fill:#263238"></path><path d="M319.53,369.51c1,1.14,4.72,6.1,4.21,8.35s-3.94,4.91-6.56,6.26c0,0,0,.08,0,.07,1.64-.64,6.93-3.11,7.38-6.56.35-2.74-3.5-7.13-5-8.22C319.51,369.33,319.44,369.41,319.53,369.51Z" style="opacity:0.2"></path><path d="M285.07,237.77S275.3,242,273.57,248s3.14,19,3.72,19,10.71-3,14.92-10-5.08-19-5.08-19,3.53-1.24,3.41-3.23-4,1.08-4,1.08-1.26-5-4-4.32C280.9,232,282.14,235.58,285.07,237.77Z" style="fill:#455a64"></path><path d="M282.16,260.93a1.83,1.83,0,0,0-2.65-2.52A1.83,1.83,0,0,0,282.16,260.93Z" style="fill:#263238"></path><path d="M274.25,255.67c1.27-.81,6.73-3.77,8.89-2.93s4.27,4.62,5.21,7.41c0,.05.09,0,.07,0-.38-1.71-2-7.31-5.38-8.26-2.67-.75-7.58,2.4-8.87,3.7C274.07,255.66,274.14,255.74,274.25,255.67Z" style="opacity:0.2"></path><path d="M311,276.43s1-8.33,5.15-11,15-1.89,15.22-1.47.12,8.78-4.2,13.52-15.5.43-15.5.43-.14,2.94-1.68,3.3-.08-3.26-.08-3.26-4,.16-4.16-2.09C305.64,274.58,308.66,274.7,311,276.43Z" style="fill:#455a64"></path><path d="M327.82,269a1.44,1.44,0,0,1-2.49-1.44A1.44,1.44,0,0,1,327.82,269Z" style="fill:#263238"></path><path d="M322.08,264.24c-.33,1.14-1.34,5.93-.22,7.37s4.45,2.19,6.77,2.28c0,0,0,.05,0,.06-1.38.09-6,.09-7.45-2.22-1.17-1.85.11-6.26.8-7.54C322,264.1,322.11,264.14,322.08,264.24Z" style="opacity:0.2"></path></g><g id="freepik--Net--inject-194"><path d="M252.58,190.17c13.37,3.93,2.47,112.49-1.13,117.71C207.84,371,204.56,424.31,204.32,428.09H445.39c0-71.47-118-171.66-128.64-187.3s-32.09-47.07-41.89-56.25S246.8,174,234.91,173C228.51,172.46,247.16,188.58,252.58,190.17Z" style="fill:#dbdbdb;opacity:0.2"></path><path d="M252.58,190.17c12.6,5.57,3.69,92.54,1.22,107.66-.75,3.68-.8,8.19-3,11.29l-2.14,3.27a291.27,291.27,0,0,0-29,55.27,229.1,229.1,0,0,0-14.23,52.69c-.34,2.58-.63,5.16-.79,7.76l-.29-.31,120.54-.14c30-.12,90.53,0,120.53,0l-.43.43a83.38,83.38,0,0,0-3.48-22.76C423.36,347.07,365.94,292.42,324,249.24a77.59,77.59,0,0,1-7.63-8.77c-10.93-15.95-21.73-32-33.79-47.16a94.5,94.5,0,0,0-7.69-8.67c-10.71-9.4-26.09-10.23-39.64-11.57-5.9-.63,6.52,9.93,7.67,10.79,3,2.35,6.07,4.92,9.69,6.31Zm0,0c-3.62-1.38-6.67-3.94-9.71-6.29-2-1.61-13.5-11.38-7.65-10.87,13.61,1.31,29,2.1,39.75,11.52a92.07,92.07,0,0,1,7.73,8.66c12.09,15.11,22.94,31.17,33.9,47.1a78.7,78.7,0,0,0,7.62,8.7c42.17,43.19,99.72,97.71,118,156.12a84.27,84.27,0,0,1,3.57,23.41h-.44l-60.27.07c-38.11-.35-142.3.42-181.09-.52,1.75-20.82,7.57-41.18,15.2-60.57a291.66,291.66,0,0,1,29.18-55.27l2.15-3.26a8.32,8.32,0,0,0,1.56-3.5c.61-2.52,1-5.1,1.43-7.67,2.49-15,11.61-102.06-1-107.63Z" style="fill:#a6a6a6"></path><path d="M301.69,428.09c46.75-5.11,92.75-16.57,136.84-32.83l-8.21,3.23c-41.19,15.69-84.67,26.08-128.63,29.6Z" style="fill:#a6a6a6"></path><path d="M258.77,428.09a549,549,0,0,0,109.58-24.32c5.14-1.74,10.76-3.83,15.9-5.64,3.38-1.32,12.21-4.82,15.69-6.19,3.27-1.46,12.22-5.42,15.42-6.82l15.14-7.47-15,7.8c-3.14,1.48-12,5.56-15.34,7.07-3.52,1.45-12.24,5-15.63,6.39-40.38,15.11-82.82,25.37-125.78,29.18Z" style="fill:#a6a6a6"></path><path d="M350,428.09a562.46,562.46,0,0,0,82.27-12.34c3.89-.81,7.69-1.92,11.56-2.83-30.37,9.29-62.13,14-93.83,15.17Z" style="fill:#a6a6a6"></path><path d="M227,428.09A593.64,593.64,0,0,0,363.13,389.6c6.72-2.66,16.89-7.49,23.54-10.49l17.25-8.74,16.87-9.47-16.69,9.79c-3.51,1.88-13.47,7.07-17.15,9-3.95,1.85-13.73,6.45-17.53,8.22C324.06,407.49,276,421.56,227,428.09Z" style="fill:#a6a6a6"></path><path d="M411.88,347.62c-30.42,21.74-65,37-99.8,50.25a726.35,726.35,0,0,1-80.41,24.23c-9.1,2.08-18.24,4-27.35,6,9.08-2.16,18.18-4.22,27.23-6.47,19.92-5.1,41-11.1,60.41-17.68,41.71-14.41,83.28-31.45,119.92-56.32Z" style="fill:#a6a6a6"></path><path d="M399.94,331.6c-11.16,11-24.16,20.12-37.49,28.34-20.83,13-43.68,23.31-66.51,32.29-7.32,2.55-18.07,6.66-25.42,8.84-2.18.67-14.08,4.38-16.06,5-2.21.6-7.51,2-9.75,2.6-12.51,3.55-26.64,6.5-39.26,9.28,12.55-3,26.61-6.24,39.09-9.89l9.71-2.69c1.91-.62,13.8-4.39,16-5.1,7.28-2.19,18.07-6.34,25.34-8.92,22.77-9,45.57-19.22,66.49-32,13.37-8.11,26.49-16.92,37.85-27.75Z" style="fill:#a6a6a6"></path><path d="M207,408.82a528.29,528.29,0,0,0,73.06-24.05c31.54-13.08,62.13-29.13,88.91-50.49a238,238,0,0,0,19.09-17.12,237.39,237.39,0,0,1-18.79,17.5c-46.83,37.6-104.22,60.42-162.27,74.16Z" style="fill:#a6a6a6"></path><path d="M209.41,398.38a499.25,499.25,0,0,0,67.67-26.48c29.08-14,57.09-30.68,81.46-51.94,6.09-5.31,11.87-11,17.41-16.86a239.47,239.47,0,0,1-17.09,17.23c-42.57,37.48-95.34,62.18-149.45,78.05Z" style="fill:#a6a6a6"></path><path d="M363.3,289.32c-17.56,20.08-38.47,37.09-60.27,52.35a419.1,419.1,0,0,1-75.13,41c-3.57,1.43-12.29,4.88-15.92,6.33l15.78-6.66A465,465,0,0,0,293,347.2c25.41-16.65,49.65-35.54,70.32-57.88Z" style="fill:#a6a6a6"></path><path d="M215.64,377.65c41.41-20.18,81.32-44.71,113.42-78.11,1-.91,2.81-2.86,3.67-3.86,2.17-2.45,5.83-6.48,8-8.9,1.84-2.27,7.31-9.07,9.2-11.41-1.86,2.43-7.19,9.34-8.94,11.62-2.86,3.33-6.73,7.78-9.63,11.07l-9.3,9.57c-30.58,30-67.65,52.3-106.44,70Z" style="fill:#a6a6a6"></path><path d="M220.86,363.91c11.55-5.94,22.22-13.49,32.89-20.88,26.29-18.88,52-39.48,72-65.09a118.79,118.79,0,0,0,10.73-16.24c-17.51,33.05-52.09,60.61-82.3,82-10.77,7.28-21.6,14.62-33.33,20.25Z" style="fill:#a6a6a6"></path><path d="M226.67,350.74a370.13,370.13,0,0,0,66.64-58.12c5.69-6.32,11.64-13.79,16.83-20.57,2.5-3.48,5.15-7.37,7.65-10.87,1.57-2.5,5.47-8.74,7.07-11.28l-4.49,7.66c-22.56,37.15-57.21,69.83-93.7,93.18Z" style="fill:#a6a6a6"></path><path d="M314.06,236.85a334.22,334.22,0,0,1-40,58.29A311.19,311.19,0,0,1,235.16,334l5.79-5.32c1.77-1.6,4.07-3.73,5.7-5.4a407.26,407.26,0,0,0,67.41-86.4Z" style="fill:#a6a6a6"></path><path d="M251.45,307.88a313.61,313.61,0,0,0,29.67-41.11,246.19,246.19,0,0,0,17.54-33.72c.68-1.67,1.82-4.17,2.4-5.87l2.22-6c-4.92,16.24-12.5,31.59-21.31,46.06s-18.86,28.28-30.52,40.59Z" style="fill:#a6a6a6"></path><path d="M254.2,291.75A432,432,0,0,0,276,250.28a308.94,308.94,0,0,0,15.22-38l1.62-5.63c-3.32,15.32-9.45,29.87-15.93,44.09-6.72,14.12-13.92,28.09-22.72,41Z" style="fill:#a6a6a6"></path><path d="M256.38,275.25c9.65-25,20.43-49.94,25.35-76.47l.83-5.31c-2.81,28.66-14.73,55.65-26.18,81.78Z" style="fill:#a6a6a6"></path><path d="M258.12,253.12c5.78-23.38,10.14-47.21,13.66-71a350.3,350.3,0,0,1-13.66,71Z" style="fill:#a6a6a6"></path><path d="M259.87,176.77c1.77,12.13,1.06,24.57-1.08,36.6.77-12,1.49-24.56,1.08-36.6Z" style="fill:#a6a6a6"></path><path d="M248.71,174.46c3.06,4.55,4.12,10.3,3.87,15.71-1.15-5.33-2.07-10.57-3.87-15.71Z" style="fill:#a6a6a6"></path><path d="M238.77,173.34a28,28,0,0,1,9.94,14.82,91.55,91.55,0,0,0-9.94-14.82Z" style="fill:#a6a6a6"></path><path d="M209.41,398.38c2.59,9.65,4.59,19.68,4.16,29.71-.07-.63-.13-1.25-.17-1.87-1-9.09-2.82-18.76-4-27.84Z" style="fill:#a6a6a6"></path><path d="M214.15,382.06c7.18,14.27,12.2,30,12.86,46-.32-2-.48-4-.89-5.93-2.35-13.79-6.79-27.14-12-40.1Z" style="fill:#a6a6a6"></path><path d="M249.17,311.22a343.48,343.48,0,0,1,136.06,97.54c5.2,6.15,10,12.62,14.71,19.14-4.85-6.43-9.77-12.79-15.08-18.83-20.92-24.42-45.5-45.58-72.14-63.54-20.07-13.32-41.17-25.3-63.55-34.31Z" style="fill:#a6a6a6"></path><path d="M253.28,300.32c60.84,20.1,125.19,55.08,166.94,104.48a222.6,222.6,0,0,1,16.59,23.1,219.26,219.26,0,0,0-17-22.78c-42.37-48.94-106-83.47-166.56-104.8Z" style="fill:#a6a6a6"></path><path d="M243.49,320c30.83,15.54,58.83,36.45,83.7,60.32a305,305,0,0,1,39.75,47.59l-6.16-8.3c-1.84-2.55-4.35-5.83-6.36-8.15A352.63,352.63,0,0,0,326.55,381c-24.95-23.7-52.71-44.64-83.06-61Z" style="fill:#a6a6a6"></path><path d="M237.68,329.67c34.86,23.66,79.05,60.26,98,98.22A143.28,143.28,0,0,0,326.46,413C316.4,398.76,304.36,386,291.69,374a519.82,519.82,0,0,0-54-44.31Z" style="fill:#a6a6a6"></path><path d="M232.64,338.81c31,23.58,57.05,54.1,74.65,88.85l-3.63-6.34c-1.08-1.94-2.55-4.45-3.75-6.26a300,300,0,0,0-35.39-46.28,314.56,314.56,0,0,0-31.88-30Z" style="fill:#a6a6a6"></path><path d="M228,348c22.73,22.75,41.72,49.9,53,80.12l-2.44-5.53c-.57-1.4-1.85-4.13-2.55-5.47-12.27-25.29-29-48.44-48-69.12Z" style="fill:#a6a6a6"></path><path d="M223.74,357.63c15.76,19.1,27,41.91,33.74,65.68l1.29,4.78c-7.86-25.13-19.31-49.27-35-70.46Z" style="fill:#a6a6a6"></path><path d="M219.13,369c11.25,17.93,18.16,38.41,22.26,59.09-5.42-20.37-12.2-40.51-22.26-59.09Z" style="fill:#a6a6a6"></path><path d="M255.08,289.32c57.92,17.55,114.28,43.62,161.53,81.85,6.67,5.54,13.06,11.42,19.22,17.52-50-47.21-115.92-78.12-180.75-99.37Z" style="fill:#a6a6a6"></path><path d="M256.05,278.55c26.93,6.85,53.83,14,79.84,23.92,25.86,9.47,49.87,25.3,72.69,40.54-23.22-14.58-47.21-30.22-73.05-39.61-25.93-9.94-52.78-17.27-79.48-24.85Z" style="fill:#a6a6a6"></path><path d="M257.12,266.91c20.29.9,40.17,5.88,59.53,11.77a525.32,525.32,0,0,1,56.79,21.64l-7.05-2.81-7.08-2.75c-33-12.5-66.84-24.59-102.19-27.85Z" style="fill:#a6a6a6"></path><path d="M257.94,256a206.38,206.38,0,0,1,53.94,3.38,178.49,178.49,0,0,1,31.2,9l-5.16-1.63c-1.56-.52-3.61-1.16-5.18-1.55a255.64,255.64,0,0,0-74.8-9.22Z" style="fill:#a6a6a6"></path><path d="M258.68,242.22a195.19,195.19,0,0,1,34.16-2.11c8.84.25,17.85,1.1,26.33,3.7l-3.72-.75c-18.73-3.16-37.9-2.12-56.77-.84Z" style="fill:#a6a6a6"></path><path d="M259,228.69c15.31-4.51,31.92-6.05,47.6-2.63-2-.17-4-.53-6-.6-13.94-1.08-28,.46-41.64,3.23Z" style="fill:#a6a6a6"></path><path d="M259,219.57c8.95-6.59,20.41-8.73,31.26-9.77,1.58-.06,3.15-.16,4.72-.2-1.55.26-3.11.46-4.66.69-10.73,1.78-21.78,3.82-31.32,9.28Z" style="fill:#a6a6a6"></path><path d="M258.42,207.85a51.8,51.8,0,0,1,25.7-12.75c-1.13.44-2.29.73-3.41,1.19a103.89,103.89,0,0,0-22.29,11.56Z" style="fill:#a6a6a6"></path><path d="M257.56,200.87a38.1,38.1,0,0,1,17.3-16.33,80.76,80.76,0,0,0-17.3,16.33Z" style="fill:#a6a6a6"></path><path d="M255.08,192.54a23.29,23.29,0,0,1,7.81-14.81,66.15,66.15,0,0,0-7.81,14.81Z" style="fill:#a6a6a6"></path><path d="M252.58,175.09c-1,4.81-1.91,9.52-1.52,14.44-1.79-4.66-.83-10.14,1.52-14.44Z" style="fill:#a6a6a6"></path><path d="M241.39,173.34c.61,4.31,2.78,8.38,3.88,12.57a24.41,24.41,0,0,1-3.06-5.94c-.67-2.1-1.39-4.42-.82-6.63Z" style="fill:#a6a6a6"></path></g></svg>
