<svg xmlns="http://www.w3.org/2000/svg" viewBox="0 0 500 500"><g id="freepik--background-complete--inject-583"><path d="M250,367.89A117.89,117.89,0,1,1,367.89,250,118,118,0,0,1,250,367.89Zm0-234.73A116.84,116.84,0,1,0,366.84,250,117,117,0,0,0,250,133.16Z" style="fill:#ebebeb"></path><path d="M250,355.12A105.12,105.12,0,1,1,355.12,250,105.24,105.24,0,0,1,250,355.12Zm0-209.18A104.06,104.06,0,1,0,354.06,250,104.18,104.18,0,0,0,250,145.94Z" style="fill:#ebebeb"></path><rect x="180.42" y="69.38" width="1.06" height="19.44" transform="translate(-16.46 73.55) rotate(-22)" style="fill:#ebebeb"></rect><rect x="193.3" y="94.94" width="1.06" height="32.07" transform="translate(-27.46 80.69) rotate(-22)" style="fill:#ebebeb"></rect><rect x="79.8" y="168.26" width="1.06" height="19.44" transform="translate(-114.89 182.38) rotate(-67)" style="fill:#ebebeb"></rect><rect x="111.45" y="175.38" width="1.06" height="32.07" transform="translate(-107.97 219.7) rotate(-67)" style="fill:#ebebeb"></rect><rect x="69.38" y="318.52" width="19.44" height="1.06" transform="translate(-113.76 52.86) rotate(-22)" style="fill:#ebebeb"></rect><rect x="94.94" y="305.64" width="32.07" height="1.06" transform="translate(-106.61 63.87) rotate(-22)" style="fill:#ebebeb"></rect><rect x="168.26" y="419.14" width="19.44" height="1.06" transform="translate(-277.87 419.52) rotate(-67)" style="fill:#ebebeb"></rect><rect x="175.38" y="387.49" width="32.07" height="1.06" transform="translate(-240.56 412.61) rotate(-67)" style="fill:#ebebeb"></rect><rect x="318.52" y="411.18" width="1.06" height="19.44" transform="translate(-134.44 150.17) rotate(-22)" style="fill:#ebebeb"></rect><rect x="305.64" y="372.99" width="1.06" height="32.07" transform="translate(-123.44 143.02) rotate(-22)" style="fill:#ebebeb"></rect><rect x="419.14" y="312.3" width="1.06" height="19.44" transform="translate(-40.73 582.51) rotate(-67)" style="fill:#ebebeb"></rect><rect x="387.49" y="292.55" width="1.06" height="32.07" transform="translate(-47.64 545.19) rotate(-67)" style="fill:#ebebeb"></rect><rect x="411.18" y="180.42" width="19.44" height="1.06" transform="translate(-37.14 170.85) rotate(-22)" style="fill:#ebebeb"></rect><rect x="372.99" y="193.3" width="32.07" height="1.06" transform="translate(-44.28 159.85) rotate(-22)" style="fill:#ebebeb"></rect><rect x="312.3" y="79.8" width="19.44" height="1.06" transform="translate(122.25 345.36) rotate(-67)" style="fill:#ebebeb"></rect><rect x="292.55" y="111.45" width="32.07" height="1.06" transform="translate(84.94 352.28) rotate(-67)" style="fill:#ebebeb"></rect><rect x="249.47" y="40.87" width="1.06" height="47.83" style="fill:#ebebeb"></rect><rect x="249.47" y="99.48" width="1.06" height="16.61" style="fill:#ebebeb"></rect><rect x="118.51" y="95.12" width="1.06" height="47.83" transform="translate(-49.31 119.03) rotate(-45)" style="fill:#ebebeb"></rect><rect x="148.91" y="141.14" width="1.06" height="16.61" transform="translate(-61.9 149.44) rotate(-45)" style="fill:#ebebeb"></rect><rect x="40.87" y="249.47" width="47.83" height="1.06" style="fill:#ebebeb"></rect><rect x="99.48" y="249.47" width="16.61" height="1.06" style="fill:#ebebeb"></rect><rect x="95.12" y="380.44" width="47.83" height="1.06" transform="translate(-234.52 195.75) rotate(-45)" style="fill:#ebebeb"></rect><rect x="141.14" y="350.03" width="16.61" height="1.06" transform="translate(-204.11 208.35) rotate(-45)" style="fill:#ebebeb"></rect><rect x="249.47" y="411.3" width="1.06" height="47.83" style="fill:#ebebeb"></rect><rect x="249.47" y="383.91" width="1.06" height="16.61" style="fill:#ebebeb"></rect><rect x="380.44" y="357.05" width="1.06" height="47.83" transform="translate(-157.8 380.97) rotate(-45)" style="fill:#ebebeb"></rect><rect x="350.03" y="342.25" width="1.06" height="16.61" transform="translate(-145.21 350.56) rotate(-45)" style="fill:#ebebeb"></rect><rect x="411.3" y="249.47" width="47.83" height="1.06" style="fill:#ebebeb"></rect><rect x="383.91" y="249.47" width="16.61" height="1.06" style="fill:#ebebeb"></rect><rect x="357.05" y="118.51" width="47.83" height="1.06" transform="translate(27.41 304.25) rotate(-45)" style="fill:#ebebeb"></rect><rect x="342.25" y="148.91" width="16.61" height="1.06" transform="translate(-3 291.65) rotate(-45)" style="fill:#ebebeb"></rect><path d="M252.41,250a2.41,2.41,0,1,1-2.41-2.41A2.41,2.41,0,0,1,252.41,250Z" style="fill:#ebebeb"></path><path d="M424.28,158.86c-.19-.17-4.48-4.17-5.54-13.32-.34-2.95.44-8.46,1.42-15.45,2-14.46,5.12-36.31-2.94-39.14-20.55-7.21-53-5-53.34-4.94l-.17-2.31c1.35-.1,33.26-2.31,54.28,5.07,9.86,3.46,6.87,24.63,4.47,41.64-.93,6.55-1.73,12.21-1.42,14.86,1,8.22,4.76,11.84,4.8,11.88Z" style="fill:#a6a6a6"></path><path d="M437.45,173.09c0-.08-3.91-8.28-6.66-11a14.55,14.55,0,0,0-6-3.49l.56-2.25a16.78,16.78,0,0,1,7,4.1c3,3,7,11.32,7.13,11.67Z" style="fill:#a6a6a6"></path><path d="M424.23,179c-.44-1-4.21-10.22-3.68-13.53a38.59,38.59,0,0,1,2.51-7.66l2.12.94a37,37,0,0,0-2.34,7.09c-.32,2,2,8.59,3.53,12.27Z" style="fill:#a6a6a6"></path><path d="M435.67,177.64c0-.09-4.08-8.64-5.21-11-.88-1.81-5.09-6.45-6.64-8.09l1.69-1.59c.59.62,5.84,6.21,7,8.67s5.19,10.92,5.23,11Z" style="fill:#a6a6a6"></path><path d="M428.84,179.47c0-.07-2.23-6.77-3.26-8.87-1.14-2.31-2.29-11.44-2.41-12.47l2.3-.29c.46,3.76,1.46,10.26,2.19,11.73,1.1,2.25,3.29,8.89,3.38,9.17Z" style="fill:#a6a6a6"></path><polygon points="355.09 111.58 275.91 70.1 367.85 56.68 442.34 108.41 355.09 111.58" style="fill:#dbdbdb"></polygon><path d="M310,109.05l3-26s28.51-5.87,48.5-1.22S403.56,102,403.56,102l-8,27s-25.45-11.83-41.67-15.25S310,109.05,310,109.05Z" style="fill:#ECEFF1"></path><path d="M310,109.05h.08c1.69.08,28.09,1.33,43.78,4.64,16,3.37,40.88,14.88,41.65,15.24h0l8-26.95s-22.08-15.55-42.07-20.2S313,83,313,83Z" style="fill:#ebebeb"></path><path d="M382.66,120.25l.11,0-.94,1.87C379,121,376,119.88,373,118.85c-2.24-.62-4.5-1.17-6.78-1.68a115.59,115.59,0,0,0-12.34-3.48c-2.65-.56-5.6-1.06-8.68-1.5q3.85.44,7.71,1c-2.66-.57-5.33-1-8-1.44l.28-2.71h.13c5,.3,10,.76,14.94,1.42l-1.47-.38c-2.19-.37-4.38-.7-6.57-1-3-.43-6.09-.83-9.11-1.17H343l.25-3.57h.25c1.33.1,2.66.17,4,.3l-.19-2.38c1.56-.2,3-.3,4.49-.38a.57.57,0,0,1,.13,0V98.21h.21l1.77,0c-2.51-.38-5-.63-7.57-.79h0l.2-4.21h.24q3.23.18,6.4.46l.2-2.48L351.42,91h-.06l.07-3.49h.1a105,105,0,0,1,15.05,1.4,54.4,54.4,0,0,0-16.3-3.66h0l.16-2.8h0l.28,0c1.22.06,2.43.17,3.65.32l.19,0c4.28.41,8.55,1,12.78,1.74a128.6,128.6,0,0,0-13.63-4.07c.59,0,1.17.12,1.75.2a59.82,59.82,0,0,1,6,1.07c1.29.3,2.6.65,3.91,1a96.44,96.44,0,0,1,10,3.62c1.9.8,3.77,1.65,5.58,2.51l.16.08-.68,1.44a78,78,0,0,0-8.23-2.34c1,.51,2,1.07,3,1.65,2.34,1.27,7.52,5.77,9.68,7.46l-3.6-1.14-1.44,2.69h0l-1.29,3.31-.91-.25-.55,1.12q2.92,1,5.77,2.29l-1.47,3.91a98.19,98.19,0,0,0-13.28-2.56c4.2,1.42,8.3,3,12.4,4.75l.05,0,0,0L379.14,115h0c-.59-.25-1.2-.48-1.82-.69,4.31,2.78,9.24,6.43,11.91,8.21L376,117.15a46.46,46.46,0,0,0-6.82-2c2.9,1,5.77,2,8.61,3.16l.09,0a34.56,34.56,0,0,1,4.74,1.94Z" style="fill:#fff"></path><path d="M310,109.05s23.51,10.08,40.81,13.5c17,3.37,43.87,6.3,44.7,6.38-.77-.36-25.68-11.87-41.65-15.24-15.69-3.31-42.09-4.56-43.78-4.64Z" style="fill:#c7c7c7"></path><path d="M73.46,293c.15-.14,3.74-3.57,4.55-11.33.26-2.49-.46-7.15-1.36-13-1.87-12.22-4.71-30.67,2.09-33.15,17.32-6.32,44.81-4.74,45.09-4.73l.11-2c-1.14-.07-28.17-1.61-45.87,4.84-8.31,3-5.57,20.92-3.36,35.29.85,5.54,1.58,10.32,1.35,12.56-.73,7-3.91,10.07-3.94,10.1Z" style="fill:#a6a6a6"></path><path d="M68.82,307.05c0-.08.48-7.74,1.79-10.75a12.2,12.2,0,0,1,3.59-4.61l-1.15-1.6a14.14,14.14,0,0,0-4.24,5.43c-1.45,3.33-1.93,11.08-2,11.41Z" style="fill:#a6a6a6"></path><path d="M81.08,307.56c0-.95.1-9.36-1.36-11.79a32.11,32.11,0,0,0-4.38-5.24L74,291.94A31.24,31.24,0,0,1,78,296.78c.88,1.47,1.13,7.37,1.07,10.75Z" style="fill:#a6a6a6"></path><path d="M71.65,310.07c0-.08.5-8.07.65-10.27.13-1.7,2-6.67,2.68-8.45l-1.83-.72c-.27.68-2.64,6.72-2.8,9s-.65,10.2-.66,10.29Z" style="fill:#a6a6a6"></path><path d="M77.6,309.36c0-.06-.38-6-.22-8,.17-2.17-1.8-9.71-2-10.56l-1.9.5c.82,3.09,2.07,8.52,2,9.9-.17,2.12.2,8,.22,8.27Z" style="fill:#a6a6a6"></path><polygon points="131.53 252.33 198.1 216.42 120.17 206 57.66 250.53 131.53 252.33" style="fill:#dbdbdb"></polygon><path d="M169.64,249.73l-2.78-22s-24.19-4.68-41.06-.54S90.41,244.7,90.41,244.7l7,22.73s21.42-10.27,35.11-13.33S169.64,249.73,169.64,249.73Z" style="fill:#ECEFF1"></path><path d="M169.64,249.73h-.07c-1.43.09-23.76,1.41-37,4.37-13.48,3-34.44,13-35.09,13.33h0l-7-22.72s18.52-13.39,35.4-17.52,41.05.54,41.05.54Z" style="fill:#ebebeb"></path><path d="M108.28,260l-.09,0,.81,1.58c2.43-1,4.93-2,7.44-2.9,1.88-.55,3.79-1,5.71-1.49a97.36,97.36,0,0,1,10.42-3.08c2.23-.5,4.72-.95,7.33-1.36q-3.27.42-6.52.91c2.24-.51,4.5-.92,6.75-1.3l-.26-2.29h-.11c-4.24.31-8.43.74-12.63,1.36l1.24-.34c1.85-.33,3.7-.63,5.55-.92,2.56-.39,5.14-.76,7.7-1.08h.09l-.25-3h-.21c-1.12.09-2.25.17-3.37.29l.14-2c-1.33-.15-2.55-.22-3.81-.28h-.11l0-3.1a1.08,1.08,0,0,1-.18,0h-1.5q3.18-.51,6.39-.75h0l-.22-3.56h0l-.18,0c-1.82.12-3.62.27-5.41.45l-.2-2.1,1.65-.13h.05l-.09-3h-.08a88.77,88.77,0,0,0-12.73,1.34A45.94,45.94,0,0,1,135.33,230h0l-.16-2.36h0l-.24,0c-1,.07-2.05.18-3.08.32l-.16,0c-3.62.4-7.23.9-10.8,1.6a111.74,111.74,0,0,1,11.5-3.58c-.5.05-1,.12-1.48.19a47.93,47.93,0,0,0-5.1,1c-1.09.27-2.2.57-3.3.91a81.7,81.7,0,0,0-8.46,3.18c-1.6.69-3.18,1.43-4.7,2.17l-.13.07.59,1.22a64.32,64.32,0,0,1,6.94-2.07c-.86.44-1.69.92-2.51,1.43-2,1.1-6.3,5-8.11,6.41l3-1,1.24,2.26h0l1.12,2.8c.26-.08.51-.16.77-.22l.48.93c-1.64.6-3.27,1.27-4.86,2l1.28,3.29a83.94,83.94,0,0,1,11.22-2.31c-3.54,1.25-7,2.63-10.46,4.16h0l0,0,1.31,3h0c.5-.21,1-.41,1.53-.59-3.61,2.39-7.75,5.53-10,7.06l11.08-4.64a37.61,37.61,0,0,1,5.74-1.79c-2.44.86-4.85,1.78-7.25,2.76l-.07,0a27.47,27.47,0,0,0-4,1.69Z" style="fill:#fff"></path><path d="M169.64,249.73s-19.8,8.77-34.39,11.84c-14.38,3-37.07,5.77-37.77,5.86.65-.32,21.61-10.31,35.09-13.33,13.24-3,35.57-4.28,37-4.37Z" style="fill:#c7c7c7"></path></g><g id="freepik--Building--inject-583"><rect x="191.7" y="422.88" width="116.6" height="77.12" style="fill:#ECEFF1"></rect><rect x="191.7" y="422.88" width="116.6" height="77.12" style="fill:#fff;opacity:0.4"></rect><rect x="191.7" y="488.98" width="47.91" height="11.02" style="fill:#ECEFF1;opacity:0.5"></rect><rect x="260.39" y="488.98" width="47.91" height="11.02" style="fill:#ECEFF1;opacity:0.5"></rect><rect x="191" y="420.37" width="118" height="2.51" style="fill:#ECEFF1"></rect><polygon points="308.3 422.88 191.7 422.88 191.7 426.25 308.3 425.01 308.3 422.88" style="fill:#ECEFF1;opacity:0.5"></polygon><rect x="191.7" y="428.01" width="116.6" height="3.21" style="fill:#fff"></rect><polygon points="308.3 431.22 191.7 431.22 191.7 432.31 308.3 431.76 308.3 431.22" style="fill:#ECEFF1;opacity:0.5"></polygon><rect x="191.7" y="459.42" width="116.6" height="3.21" style="fill:#fff"></rect><polygon points="308.3 462.63 191.7 462.63 191.7 463.71 308.3 463.17 308.3 462.63" style="fill:#ECEFF1;opacity:0.5"></polygon><rect x="204.47" y="436.23" width="8.98" height="20.44" style="fill:#fff"></rect><rect x="205.54" y="437.25" width="6.84" height="18.39" style="fill:#455a64"></rect><g style="opacity:0.1"><polygon points="212.38 442.3 205.54 450.79 205.54 455.65 212.38 447.16 212.38 442.3" style="fill:#fff"></polygon><polygon points="212.38 438.67 205.54 447.16 205.54 449.29 212.38 440.8 212.38 438.67" style="fill:#fff"></polygon></g><rect x="203.45" y="434.67" width="11.03" height="1.56" style="fill:#fff"></rect><polygon points="204.47 436.86 204.47 436.23 213.46 436.23 213.46 436.55 204.47 436.86" style="fill:#ebebeb"></polygon><rect x="220.89" y="436.23" width="8.98" height="20.44" style="fill:#fff"></rect><rect x="221.96" y="437.25" width="6.84" height="18.39" style="fill:#455a64"></rect><g style="opacity:0.1"><polygon points="228.8 442.3 221.96 450.79 221.96 455.65 228.8 447.16 228.8 442.3" style="fill:#fff"></polygon><polygon points="228.8 438.67 221.96 447.16 221.96 449.29 228.8 440.8 228.8 438.67" style="fill:#fff"></polygon></g><rect x="219.86" y="434.67" width="11.03" height="1.56" style="fill:#fff"></rect><polygon points="220.89 436.86 220.89 436.23 229.87 436.23 229.87 436.55 220.89 436.86" style="fill:#ebebeb"></polygon><rect x="237.3" y="436.23" width="8.98" height="20.44" style="fill:#fff"></rect><rect x="238.37" y="437.25" width="6.84" height="18.39" style="fill:#455a64"></rect><g style="opacity:0.1"><polygon points="245.21 442.3 238.37 450.79 238.37 455.65 245.21 447.16 245.21 442.3" style="fill:#fff"></polygon><polygon points="245.21 438.67 238.37 447.16 238.37 449.29 245.21 440.8 245.21 438.67" style="fill:#fff"></polygon></g><rect x="236.28" y="434.67" width="11.03" height="1.56" style="fill:#fff"></rect><polygon points="237.3 436.86 237.3 436.23 246.28 436.23 246.28 436.55 237.3 436.86" style="fill:#ebebeb"></polygon><rect x="253.72" y="436.23" width="8.98" height="20.44" style="fill:#fff"></rect><rect x="254.79" y="437.25" width="6.84" height="18.39" style="fill:#455a64"></rect><g style="opacity:0.1"><polygon points="261.63 442.3 254.79 450.79 254.79 455.65 261.63 447.16 261.63 442.3" style="fill:#fff"></polygon><polygon points="261.63 438.67 254.79 447.16 254.79 449.29 261.63 440.8 261.63 438.67" style="fill:#fff"></polygon></g><rect x="252.69" y="434.67" width="11.03" height="1.56" style="fill:#fff"></rect><polygon points="253.72 436.86 253.72 436.23 262.7 436.23 262.7 436.55 253.72 436.86" style="fill:#ebebeb"></polygon><rect x="270.13" y="436.23" width="8.98" height="20.44" style="fill:#fff"></rect><rect x="271.2" y="437.25" width="6.84" height="18.39" style="fill:#455a64"></rect><g style="opacity:0.1"><polygon points="278.04 442.3 271.2 450.79 271.2 455.65 278.04 447.16 278.04 442.3" style="fill:#fff"></polygon><polygon points="278.04 438.67 271.2 447.16 271.2 449.29 278.04 440.8 278.04 438.67" style="fill:#fff"></polygon></g><rect x="269.1" y="434.67" width="11.03" height="1.56" style="fill:#fff"></rect><polygon points="270.13 436.86 270.13 436.23 279.11 436.23 279.11 436.55 270.13 436.86" style="fill:#ebebeb"></polygon><rect x="286.54" y="436.23" width="8.98" height="20.44" style="fill:#fff"></rect><rect x="287.62" y="437.25" width="6.84" height="18.39" style="fill:#455a64"></rect><g style="opacity:0.1"><polygon points="294.46 442.3 287.62 450.79 287.62 455.65 294.46 447.16 294.46 442.3" style="fill:#fff"></polygon><polygon points="294.46 438.67 287.62 447.16 287.62 449.29 294.46 440.8 294.46 438.67" style="fill:#fff"></polygon></g><rect x="285.52" y="434.67" width="11.03" height="1.56" style="fill:#fff"></rect><polygon points="286.55 436.86 286.55 436.23 295.53 436.23 295.53 436.55 286.55 436.86" style="fill:#ebebeb"></polygon><rect x="204.47" y="467.5" width="8.98" height="20.44" style="fill:#fff"></rect><rect x="205.54" y="468.52" width="6.84" height="18.39" style="fill:#455a64"></rect><g style="opacity:0.1"><polygon points="212.38 473.57 205.54 482.06 205.54 486.91 212.38 478.42 212.38 473.57" style="fill:#fff"></polygon><polygon points="212.38 469.93 205.54 478.42 205.54 480.55 212.38 472.06 212.38 469.93" style="fill:#fff"></polygon></g><rect x="203.45" y="465.94" width="11.03" height="1.56" style="fill:#fff"></rect><polygon points="204.47 468.13 204.47 467.5 213.46 467.5 213.46 467.81 204.47 468.13" style="fill:#ebebeb"></polygon><rect x="220.89" y="467.5" width="8.98" height="20.44" style="fill:#fff"></rect><rect x="221.96" y="468.52" width="6.84" height="18.39" style="fill:#455a64"></rect><g style="opacity:0.1"><polygon points="228.8 473.57 221.96 482.06 221.96 486.91 228.8 478.42 228.8 473.57" style="fill:#fff"></polygon><polygon points="228.8 469.93 221.96 478.42 221.96 480.55 228.8 472.06 228.8 469.93" style="fill:#fff"></polygon></g><rect x="219.86" y="465.94" width="11.03" height="1.56" style="fill:#fff"></rect><polygon points="220.89 468.13 220.89 467.5 229.87 467.5 229.87 467.81 220.89 468.13" style="fill:#ebebeb"></polygon><rect x="270.13" y="467.5" width="8.98" height="20.44" style="fill:#fff"></rect><rect x="271.2" y="468.52" width="6.84" height="18.39" style="fill:#455a64"></rect><g style="opacity:0.1"><polygon points="278.04 473.57 271.2 482.06 271.2 486.91 278.04 478.42 278.04 473.57" style="fill:#fff"></polygon><polygon points="278.04 469.93 271.2 478.42 271.2 480.55 278.04 472.06 278.04 469.93" style="fill:#fff"></polygon></g><rect x="269.1" y="465.94" width="11.03" height="1.56" style="fill:#fff"></rect><polygon points="270.13 468.13 270.13 467.5 279.11 467.5 279.11 467.81 270.13 468.13" style="fill:#ebebeb"></polygon><rect x="286.54" y="467.5" width="8.98" height="20.44" style="fill:#fff"></rect><rect x="287.62" y="468.52" width="6.84" height="18.39" style="fill:#455a64"></rect><g style="opacity:0.1"><polygon points="294.46 473.57 287.62 482.06 287.62 486.91 294.46 478.42 294.46 473.57" style="fill:#fff"></polygon><polygon points="294.46 469.93 287.62 478.42 287.62 480.55 294.46 472.06 294.46 469.93" style="fill:#fff"></polygon></g><rect x="285.52" y="465.94" width="11.03" height="1.56" style="fill:#fff"></rect><polygon points="286.55 468.13 286.55 467.5 295.53 467.5 295.53 467.81 286.55 468.13" style="fill:#ebebeb"></polygon><polygon points="238.59 475.12 261.41 475.12 250 467.19 238.59 475.12" style="fill:#fff"></polygon><polygon points="241.26 474.27 258.74 474.27 250 468.19 241.26 474.27" style="fill:#ECEFF1"></polygon><polygon points="241.26 474.27 258.74 474.27 250 468.19 241.26 474.27" style="fill:#fff;opacity:0.5"></polygon><polygon points="250 468.19 249.53 468.52 257.77 474.27 258.74 474.27 250 468.19" style="fill:#ECEFF1;opacity:0.5"></polygon><rect x="238.59" y="476.58" width="22.83" height="0.77" style="fill:#fff"></rect><rect x="239.2" y="475.12" width="21.59" height="1.46" style="fill:#ECEFF1"></rect><rect x="239.2" y="475.12" width="21.59" height="1.46" style="fill:#fff;opacity:0.7000000000000001"></rect><polygon points="242.44 478.25 239.35 478.25 239.08 477.36 242.71 477.36 242.44 478.25" style="fill:#fff"></polygon><rect x="239.45" y="478.25" width="2.89" height="0.3" style="fill:#ECEFF1"></rect><rect x="239.45" y="478.25" width="2.89" height="0.3" style="fill:#fff;opacity:0.7000000000000001"></rect><polygon points="239.35 499.1 242.44 499.1 242.71 500 239.08 500 239.35 499.1" style="fill:#fff"></polygon><rect x="239.45" y="498.81" width="2.89" height="0.3" transform="translate(481.79 997.91) rotate(180)" style="fill:#ECEFF1"></rect><rect x="239.45" y="498.81" width="2.89" height="0.3" transform="translate(481.79 997.91) rotate(180)" style="fill:#fff;opacity:0.7000000000000001"></rect><rect x="239.61" y="478.55" width="2.56" height="20.26" style="fill:#fff"></rect><rect x="240.07" y="479" width="0.13" height="19.36" style="fill:#ECEFF1;opacity:0.30000000000000004"></rect><rect x="240.58" y="479" width="0.13" height="19.36" style="fill:#ECEFF1;opacity:0.30000000000000004"></rect><rect x="241.08" y="479" width="0.13" height="19.36" style="fill:#ECEFF1;opacity:0.30000000000000004"></rect><rect x="241.58" y="479" width="0.13" height="19.36" style="fill:#ECEFF1;opacity:0.30000000000000004"></rect><polygon points="260.8 478.25 257.71 478.25 257.44 477.36 261.07 477.36 260.8 478.25" style="fill:#fff"></polygon><rect x="257.81" y="478.25" width="2.89" height="0.3" style="fill:#ECEFF1"></rect><rect x="257.81" y="478.25" width="2.89" height="0.3" style="fill:#fff;opacity:0.7000000000000001"></rect><polygon points="257.71 499.1 260.8 499.1 261.07 500 257.44 500 257.71 499.1" style="fill:#fff"></polygon><rect x="257.81" y="498.81" width="2.89" height="0.3" transform="translate(518.51 997.91) rotate(180)" style="fill:#ECEFF1"></rect><rect x="257.81" y="498.81" width="2.89" height="0.3" transform="translate(518.51 997.91) rotate(180)" style="fill:#fff;opacity:0.7000000000000001"></rect><rect x="257.97" y="478.55" width="2.56" height="20.26" style="fill:#fff"></rect><rect x="258.44" y="479" width="0.13" height="19.36" style="fill:#ECEFF1;opacity:0.30000000000000004"></rect><rect x="258.94" y="479" width="0.13" height="19.36" style="fill:#ECEFF1;opacity:0.30000000000000004"></rect><rect x="259.44" y="479" width="0.13" height="19.36" style="fill:#ECEFF1;opacity:0.30000000000000004"></rect><rect x="259.95" y="479" width="0.13" height="19.36" style="fill:#ECEFF1;opacity:0.30000000000000004"></rect><rect x="243.21" y="478.79" width="6.68" height="21.21" style="fill:#ECEFF1"></rect><rect x="250.11" y="478.79" width="6.68" height="21.21" style="fill:#ECEFF1"></rect><rect x="244.6" y="480.22" width="3.91" height="12.43" style="fill:#fff"></rect><rect x="244.93" y="480.57" width="3.25" height="11.74" style="fill:#455a64"></rect><rect x="251.49" y="480.22" width="3.91" height="12.43" style="fill:#fff"></rect><rect x="251.82" y="480.57" width="3.25" height="11.74" style="fill:#455a64"></rect><rect x="126.19" y="414.12" width="72.8" height="85.88" style="fill:#ECEFF1"></rect><rect x="126.19" y="414.12" width="72.8" height="85.88" style="fill:#fff;opacity:0.6000000000000001"></rect><rect x="126.19" y="488.98" width="72.8" height="11.02" style="fill:#ECEFF1;opacity:0.5"></rect><rect x="125.49" y="411.61" width="74.2" height="2.51" style="fill:#ECEFF1"></rect><polygon points="198.99 414.12 126.19 414.12 126.19 417.49 198.99 416.25 198.99 414.12" style="fill:#ECEFF1;opacity:0.5"></polygon><rect x="126.19" y="419.25" width="72.8" height="3.21" style="fill:#fff"></rect><polygon points="198.99 422.46 126.19 422.46 126.19 423.55 198.99 423 198.99 422.46" style="fill:#ECEFF1;opacity:0.5"></polygon><rect x="126.19" y="450.66" width="72.8" height="3.21" style="fill:#fff"></rect><polygon points="198.99 453.87 126.19 453.87 126.19 454.95 198.99 454.41 198.99 453.87" style="fill:#ECEFF1;opacity:0.5"></polygon><rect x="133.48" y="427.47" width="8.98" height="20.44" style="fill:#fff"></rect><rect x="134.55" y="428.5" width="6.84" height="18.39" style="fill:#455a64"></rect><g style="opacity:0.1"><polygon points="141.39 433.54 134.55 442.03 134.55 446.89 141.39 438.4 141.39 433.54" style="fill:#fff"></polygon><polygon points="141.39 429.91 134.55 438.4 134.55 440.53 141.39 432.04 141.39 429.91" style="fill:#fff"></polygon></g><rect x="132.45" y="425.91" width="11.03" height="1.56" style="fill:#fff"></rect><polygon points="133.47 428.1 133.47 427.47 142.46 427.47 142.46 427.79 133.47 428.1" style="fill:#ebebeb"></polygon><rect x="149.89" y="427.47" width="8.98" height="20.44" style="fill:#fff"></rect><rect x="150.96" y="428.5" width="6.84" height="18.39" style="fill:#455a64"></rect><g style="opacity:0.1"><polygon points="157.8 433.54 150.96 442.03 150.96 446.89 157.8 438.4 157.8 433.54" style="fill:#fff"></polygon><polygon points="157.8 429.91 150.96 438.4 150.96 440.53 157.8 432.04 157.8 429.91" style="fill:#fff"></polygon></g><rect x="148.86" y="425.91" width="11.03" height="1.56" style="fill:#fff"></rect><polygon points="149.89 428.1 149.89 427.47 158.87 427.47 158.87 427.79 149.89 428.1" style="fill:#ebebeb"></polygon><rect x="166.3" y="427.47" width="8.98" height="20.44" style="fill:#fff"></rect><rect x="167.38" y="428.5" width="6.84" height="18.39" style="fill:#455a64"></rect><g style="opacity:0.1"><polygon points="174.22 433.54 167.38 442.03 167.38 446.89 174.22 438.4 174.22 433.54" style="fill:#fff"></polygon><polygon points="174.22 429.91 167.38 438.4 167.38 440.53 174.22 432.04 174.22 429.91" style="fill:#fff"></polygon></g><rect x="165.28" y="425.91" width="11.03" height="1.56" style="fill:#fff"></rect><polygon points="166.3 428.1 166.3 427.47 175.29 427.47 175.29 427.79 166.3 428.1" style="fill:#ebebeb"></polygon><rect x="182.72" y="427.47" width="8.98" height="20.44" style="fill:#fff"></rect><rect x="183.79" y="428.5" width="6.84" height="18.39" style="fill:#455a64"></rect><g style="opacity:0.1"><polygon points="190.63 433.54 183.79 442.03 183.79 446.89 190.63 438.4 190.63 433.54" style="fill:#fff"></polygon><polygon points="190.63 429.91 183.79 438.4 183.79 440.53 190.63 432.04 190.63 429.91" style="fill:#fff"></polygon></g><rect x="181.69" y="425.91" width="11.03" height="1.56" style="fill:#fff"></rect><polygon points="182.72 428.1 182.72 427.47 191.7 427.47 191.7 427.79 182.72 428.1" style="fill:#ebebeb"></polygon><rect x="133.48" y="458.69" width="8.98" height="20.44" style="fill:#fff"></rect><rect x="134.55" y="459.72" width="6.84" height="18.39" style="fill:#455a64"></rect><g style="opacity:0.1"><polygon points="141.39 464.76 134.55 473.25 134.55 478.11 141.39 469.62 141.39 464.76" style="fill:#fff"></polygon><polygon points="141.39 461.13 134.55 469.62 134.55 471.75 141.39 463.26 141.39 461.13" style="fill:#fff"></polygon></g><rect x="132.45" y="457.13" width="11.03" height="1.56" style="fill:#fff"></rect><polygon points="133.47 459.32 133.47 458.69 142.46 458.69 142.46 459.01 133.47 459.32" style="fill:#ebebeb"></polygon><rect x="149.89" y="458.69" width="8.98" height="20.44" style="fill:#fff"></rect><rect x="150.96" y="459.72" width="6.84" height="18.39" style="fill:#455a64"></rect><g style="opacity:0.1"><polygon points="157.8 464.76 150.96 473.25 150.96 478.11 157.8 469.62 157.8 464.76" style="fill:#fff"></polygon><polygon points="157.8 461.13 150.96 469.62 150.96 471.75 157.8 463.26 157.8 461.13" style="fill:#fff"></polygon></g><rect x="148.86" y="457.13" width="11.03" height="1.56" style="fill:#fff"></rect><polygon points="149.89 459.32 149.89 458.69 158.87 458.69 158.87 459.01 149.89 459.32" style="fill:#ebebeb"></polygon><rect x="166.3" y="458.69" width="8.98" height="20.44" style="fill:#fff"></rect><rect x="167.38" y="459.72" width="6.84" height="18.39" style="fill:#455a64"></rect><g style="opacity:0.1"><polygon points="174.22 464.76 167.38 473.25 167.38 478.11 174.22 469.62 174.22 464.76" style="fill:#fff"></polygon><polygon points="174.22 461.13 167.38 469.62 167.38 471.75 174.22 463.26 174.22 461.13" style="fill:#fff"></polygon></g><rect x="165.28" y="457.13" width="11.03" height="1.56" style="fill:#fff"></rect><polygon points="166.3 459.32 166.3 458.69 175.29 458.69 175.29 459.01 166.3 459.32" style="fill:#ebebeb"></polygon><rect x="182.72" y="458.69" width="8.98" height="20.44" style="fill:#fff"></rect><rect x="183.79" y="459.72" width="6.84" height="18.39" style="fill:#455a64"></rect><g style="opacity:0.1"><polygon points="190.63 464.76 183.79 473.25 183.79 478.11 190.63 469.62 190.63 464.76" style="fill:#fff"></polygon><polygon points="190.63 461.13 183.79 469.62 183.79 471.75 190.63 463.26 190.63 461.13" style="fill:#fff"></polygon></g><rect x="181.69" y="457.13" width="11.03" height="1.56" style="fill:#fff"></rect><polygon points="182.72 459.32 182.72 458.69 191.7 458.69 191.7 459.01 182.72 459.32" style="fill:#ebebeb"></polygon><rect x="301.01" y="414.12" width="72.8" height="85.88" style="fill:#ECEFF1"></rect><rect x="301.01" y="414.12" width="72.8" height="85.88" style="fill:#fff;opacity:0.6000000000000001"></rect><rect x="301.01" y="488.98" width="72.8" height="11.02" style="fill:#ECEFF1;opacity:0.5"></rect><rect x="300.31" y="411.61" width="74.2" height="2.51" style="fill:#ECEFF1"></rect><polygon points="373.81 414.12 301.01 414.12 301.01 417.49 373.81 416.25 373.81 414.12" style="fill:#ECEFF1;opacity:0.5"></polygon><rect x="301.01" y="419.25" width="72.8" height="3.21" style="fill:#fff"></rect><polygon points="373.81 422.46 301.01 422.46 301.01 423.55 373.81 423 373.81 422.46" style="fill:#ECEFF1;opacity:0.5"></polygon><rect x="301.01" y="450.66" width="72.8" height="3.21" style="fill:#fff"></rect><polygon points="373.81 453.87 301.01 453.87 301.01 454.95 373.81 454.41 373.81 453.87" style="fill:#ECEFF1;opacity:0.5"></polygon><rect x="308.3" y="427.47" width="8.98" height="20.44" style="fill:#fff"></rect><rect x="309.37" y="428.5" width="6.84" height="18.39" style="fill:#455a64"></rect><g style="opacity:0.1"><polygon points="316.21 433.54 309.37 442.03 309.37 446.89 316.21 438.4 316.21 433.54" style="fill:#fff"></polygon><polygon points="316.21 429.91 309.37 438.4 309.37 440.53 316.21 432.04 316.21 429.91" style="fill:#fff"></polygon></g><rect x="307.27" y="425.91" width="11.03" height="1.56" style="fill:#fff"></rect><polygon points="308.3 428.1 308.3 427.47 317.28 427.47 317.28 427.79 308.3 428.1" style="fill:#ebebeb"></polygon><rect x="324.71" y="427.47" width="8.98" height="20.44" style="fill:#fff"></rect><rect x="325.78" y="428.5" width="6.84" height="18.39" style="fill:#455a64"></rect><g style="opacity:0.1"><polygon points="332.63 433.54 325.79 442.03 325.79 446.89 332.63 438.4 332.63 433.54" style="fill:#fff"></polygon><polygon points="332.63 429.91 325.79 438.4 325.79 440.53 332.63 432.04 332.63 429.91" style="fill:#fff"></polygon></g><rect x="323.69" y="425.91" width="11.03" height="1.56" style="fill:#fff"></rect><polygon points="324.71 428.1 324.71 427.47 333.7 427.47 333.7 427.79 324.71 428.1" style="fill:#ebebeb"></polygon><rect x="341.13" y="427.47" width="8.98" height="20.44" style="fill:#fff"></rect><rect x="342.2" y="428.5" width="6.84" height="18.39" style="fill:#455a64"></rect><g style="opacity:0.1"><polygon points="349.04 433.54 342.2 442.03 342.2 446.89 349.04 438.4 349.04 433.54" style="fill:#fff"></polygon><polygon points="349.04 429.91 342.2 438.4 342.2 440.53 349.04 432.04 349.04 429.91" style="fill:#fff"></polygon></g><rect x="340.1" y="425.91" width="11.03" height="1.56" style="fill:#fff"></rect><polygon points="341.13 428.1 341.13 427.47 350.11 427.47 350.11 427.79 341.13 428.1" style="fill:#ebebeb"></polygon><rect x="357.54" y="427.47" width="8.98" height="20.44" style="fill:#fff"></rect><rect x="358.61" y="428.5" width="6.84" height="18.39" style="fill:#455a64"></rect><g style="opacity:0.1"><polygon points="365.45 433.54 358.61 442.03 358.61 446.89 365.45 438.4 365.45 433.54" style="fill:#fff"></polygon><polygon points="365.45 429.91 358.61 438.4 358.61 440.53 365.45 432.04 365.45 429.91" style="fill:#fff"></polygon></g><rect x="356.52" y="425.91" width="11.03" height="1.56" style="fill:#fff"></rect><polygon points="357.54 428.1 357.54 427.47 366.52 427.47 366.52 427.79 357.54 428.1" style="fill:#ebebeb"></polygon><rect x="308.3" y="458.69" width="8.98" height="20.44" style="fill:#fff"></rect><rect x="309.37" y="459.72" width="6.84" height="18.39" style="fill:#455a64"></rect><g style="opacity:0.1"><polygon points="316.21 464.76 309.37 473.25 309.37 478.11 316.21 469.62 316.21 464.76" style="fill:#fff"></polygon><polygon points="316.21 461.13 309.37 469.62 309.37 471.75 316.21 463.26 316.21 461.13" style="fill:#fff"></polygon></g><rect x="307.27" y="457.13" width="11.03" height="1.56" style="fill:#fff"></rect><polygon points="308.3 459.32 308.3 458.69 317.28 458.69 317.28 459.01 308.3 459.32" style="fill:#ebebeb"></polygon><rect x="324.71" y="458.69" width="8.98" height="20.44" style="fill:#fff"></rect><rect x="325.78" y="459.72" width="6.84" height="18.39" style="fill:#455a64"></rect><g style="opacity:0.1"><polygon points="332.63 464.76 325.79 473.25 325.79 478.11 332.63 469.62 332.63 464.76" style="fill:#fff"></polygon><polygon points="332.63 461.13 325.79 469.62 325.79 471.75 332.63 463.26 332.63 461.13" style="fill:#fff"></polygon></g><rect x="323.69" y="457.13" width="11.03" height="1.56" style="fill:#fff"></rect><polygon points="324.71 459.32 324.71 458.69 333.7 458.69 333.7 459.01 324.71 459.32" style="fill:#ebebeb"></polygon><rect x="341.13" y="458.69" width="8.98" height="20.44" style="fill:#fff"></rect><rect x="342.2" y="459.72" width="6.84" height="18.39" style="fill:#455a64"></rect><g style="opacity:0.1"><polygon points="349.04 464.76 342.2 473.25 342.2 478.11 349.04 469.62 349.04 464.76" style="fill:#fff"></polygon><polygon points="349.04 461.13 342.2 469.62 342.2 471.75 349.04 463.26 349.04 461.13" style="fill:#fff"></polygon></g><rect x="340.1" y="457.13" width="11.03" height="1.56" style="fill:#fff"></rect><polygon points="341.13 459.32 341.13 458.69 350.11 458.69 350.11 459.01 341.13 459.32" style="fill:#ebebeb"></polygon><rect x="357.54" y="458.69" width="8.98" height="20.44" style="fill:#fff"></rect><rect x="358.61" y="459.72" width="6.84" height="18.39" style="fill:#455a64"></rect><g style="opacity:0.1"><polygon points="365.45 464.76 358.61 473.25 358.61 478.11 365.45 469.62 365.45 464.76" style="fill:#fff"></polygon><polygon points="365.45 461.13 358.61 469.62 358.61 471.75 365.45 463.26 365.45 461.13" style="fill:#fff"></polygon></g><rect x="356.52" y="457.13" width="11.03" height="1.56" style="fill:#fff"></rect><polygon points="357.54 459.32 357.54 458.69 366.52 458.69 366.52 459.01 357.54 459.32" style="fill:#ebebeb"></polygon><polygon points="202.16 422.88 297.84 422.88 250 389.64 202.16 422.88" style="fill:#ECEFF1"></polygon><polygon points="202.16 422.88 297.84 422.88 250 389.64 202.16 422.88" style="fill:#fff;opacity:0.8"></polygon><polygon points="213.35 419.29 286.64 419.29 250 393.83 213.35 419.29" style="fill:#ECEFF1"></polygon><polygon points="213.35 419.29 286.64 419.29 250 393.83 213.35 419.29" style="fill:#fff;opacity:0.4"></polygon><polygon points="250 393.83 248.01 395.21 282.57 419.29 286.64 419.29 250 393.83" style="fill:#ECEFF1;opacity:0.5"></polygon><rect x="207.69" y="422.88" width="84.61" height="3.25" style="fill:#ECEFF1"></rect><rect x="207.69" y="422.88" width="84.61" height="3.25" style="fill:#fff;opacity:0.7000000000000001"></rect><polygon points="222.23 429.05 212.13 429.05 211.26 426.13 223.1 426.13 222.23 429.05" style="fill:#ECEFF1"></polygon><polygon points="222.23 429.05 212.13 429.05 211.26 426.13 223.1 426.13 222.23 429.05" style="fill:#fff;opacity:0.8"></polygon><rect x="212.46" y="429.05" width="9.44" height="0.97" style="fill:#ECEFF1"></rect><rect x="212.46" y="429.05" width="9.44" height="0.97" style="fill:#fff;opacity:0.7000000000000001"></rect><polygon points="212.13 497.08 222.23 497.08 223.1 500 211.26 500 212.13 497.08" style="fill:#ECEFF1"></polygon><polygon points="212.13 497.08 222.23 497.08 223.1 500 211.26 500 212.13 497.08" style="fill:#fff;opacity:0.8"></polygon><rect x="212.46" y="496.11" width="9.44" height="0.97" transform="translate(434.36 993.18) rotate(180)" style="fill:#ECEFF1"></rect><rect x="212.46" y="496.11" width="9.44" height="0.97" transform="translate(434.36 993.18) rotate(180)" style="fill:#fff;opacity:0.7000000000000001"></rect><rect x="213" y="430.02" width="8.36" height="66.09" style="fill:#ECEFF1"></rect><rect x="213" y="430.02" width="8.36" height="66.09" style="fill:#fff;opacity:0.8"></rect><rect x="214.5" y="431.48" width="0.43" height="63.17" style="fill:#ECEFF1;opacity:0.30000000000000004"></rect><rect x="216.15" y="431.48" width="0.43" height="63.17" style="fill:#ECEFF1;opacity:0.30000000000000004"></rect><rect x="217.79" y="431.48" width="0.43" height="63.17" style="fill:#ECEFF1;opacity:0.30000000000000004"></rect><rect x="219.43" y="431.48" width="0.43" height="63.17" style="fill:#ECEFF1;opacity:0.30000000000000004"></rect><polygon points="238.64 429.05 228.55 429.05 227.67 426.13 239.52 426.13 238.64 429.05" style="fill:#ECEFF1"></polygon><polygon points="238.64 429.05 228.55 429.05 227.67 426.13 239.52 426.13 238.64 429.05" style="fill:#fff;opacity:0.8"></polygon><rect x="228.88" y="429.05" width="9.44" height="0.97" style="fill:#ECEFF1"></rect><rect x="228.88" y="429.05" width="9.44" height="0.97" style="fill:#fff;opacity:0.7000000000000001"></rect><polygon points="228.55 497.08 238.64 497.08 239.52 500 227.67 500 228.55 497.08" style="fill:#ECEFF1"></polygon><polygon points="228.55 497.08 238.64 497.08 239.52 500 227.67 500 228.55 497.08" style="fill:#fff;opacity:0.8"></polygon><rect x="228.88" y="496.11" width="9.44" height="0.97" transform="translate(467.19 993.18) rotate(180)" style="fill:#ECEFF1"></rect><rect x="228.88" y="496.11" width="9.44" height="0.97" transform="translate(467.19 993.18) rotate(180)" style="fill:#fff;opacity:0.7000000000000001"></rect><rect x="229.41" y="430.02" width="8.36" height="66.09" style="fill:#ECEFF1"></rect><rect x="229.41" y="430.02" width="8.36" height="66.09" style="fill:#fff;opacity:0.8"></rect><rect x="230.92" y="431.48" width="0.43" height="63.17" style="fill:#ECEFF1;opacity:0.30000000000000004"></rect><rect x="232.56" y="431.48" width="0.43" height="63.17" style="fill:#ECEFF1;opacity:0.30000000000000004"></rect><rect x="234.2" y="431.48" width="0.43" height="63.17" style="fill:#ECEFF1;opacity:0.30000000000000004"></rect><rect x="235.85" y="431.48" width="0.43" height="63.17" style="fill:#ECEFF1;opacity:0.30000000000000004"></rect><polygon points="271.47 429.05 261.38 429.05 260.5 426.13 272.35 426.13 271.47 429.05" style="fill:#ECEFF1"></polygon><polygon points="271.47 429.05 261.38 429.05 260.5 426.13 272.35 426.13 271.47 429.05" style="fill:#fff;opacity:0.8"></polygon><rect x="261.71" y="429.05" width="9.44" height="0.97" style="fill:#ECEFF1"></rect><rect x="261.71" y="429.05" width="9.44" height="0.97" style="fill:#fff;opacity:0.7000000000000001"></rect><polygon points="261.38 497.08 271.47 497.08 272.35 500 260.5 500 261.38 497.08" style="fill:#ECEFF1"></polygon><polygon points="261.38 497.08 271.47 497.08 272.35 500 260.5 500 261.38 497.08" style="fill:#fff;opacity:0.8"></polygon><rect x="261.71" y="496.11" width="9.44" height="0.97" transform="translate(532.85 993.18) rotate(180)" style="fill:#ECEFF1"></rect><rect x="261.71" y="496.11" width="9.44" height="0.97" transform="translate(532.85 993.18) rotate(180)" style="fill:#fff;opacity:0.7000000000000001"></rect><rect x="262.24" y="430.02" width="8.36" height="66.09" style="fill:#ECEFF1"></rect><rect x="262.24" y="430.02" width="8.36" height="66.09" style="fill:#fff;opacity:0.8"></rect><rect x="263.75" y="431.48" width="0.43" height="63.17" style="fill:#ECEFF1;opacity:0.30000000000000004"></rect><rect x="265.39" y="431.48" width="0.43" height="63.17" style="fill:#ECEFF1;opacity:0.30000000000000004"></rect><rect x="267.03" y="431.48" width="0.43" height="63.17" style="fill:#ECEFF1;opacity:0.30000000000000004"></rect><rect x="268.68" y="431.48" width="0.43" height="63.17" style="fill:#ECEFF1;opacity:0.30000000000000004"></rect><polygon points="287.89 429.05 277.79 429.05 276.92 426.13 288.76 426.13 287.89 429.05" style="fill:#ECEFF1"></polygon><polygon points="287.89 429.05 277.79 429.05 276.92 426.13 288.76 426.13 287.89 429.05" style="fill:#fff;opacity:0.8"></polygon><rect x="278.12" y="429.05" width="9.44" height="0.97" style="fill:#ECEFF1"></rect><rect x="278.12" y="429.05" width="9.44" height="0.97" style="fill:#fff;opacity:0.7000000000000001"></rect><polygon points="277.79 497.08 287.89 497.08 288.76 500 276.92 500 277.79 497.08" style="fill:#ECEFF1"></polygon><polygon points="277.79 497.08 287.89 497.08 288.76 500 276.92 500 277.79 497.08" style="fill:#fff;opacity:0.8"></polygon><rect x="278.12" y="496.11" width="9.44" height="0.97" transform="translate(565.68 993.18) rotate(180)" style="fill:#ECEFF1"></rect><rect x="278.12" y="496.11" width="9.44" height="0.97" transform="translate(565.68 993.18) rotate(180)" style="fill:#fff;opacity:0.7000000000000001"></rect><rect x="278.66" y="430.02" width="8.36" height="66.09" style="fill:#ECEFF1"></rect><rect x="278.66" y="430.02" width="8.36" height="66.09" style="fill:#fff;opacity:0.8"></rect><rect x="280.16" y="431.48" width="0.43" height="63.17" style="fill:#ECEFF1;opacity:0.30000000000000004"></rect><rect x="281.8" y="431.48" width="0.43" height="63.17" style="fill:#ECEFF1;opacity:0.30000000000000004"></rect><rect x="283.45" y="431.48" width="0.43" height="63.17" style="fill:#ECEFF1;opacity:0.30000000000000004"></rect><rect x="285.09" y="431.48" width="0.43" height="63.17" style="fill:#ECEFF1;opacity:0.30000000000000004"></rect></g><g id="freepik--graduation-hat-3--inject-583"><path d="M430.56,438.84l-2.5-1.66c11-16.64,21.76-49.72,16.48-56.27-11.33-14.07-80.8-31.34-81.5-31.51l.71-2.91c2.9.71,71.16,17.69,83.13,32.53C453.67,387.46,441.52,422.27,430.56,438.84Z" style="fill:#263238"></path><path d="M425.31,466.7l-2.57-1.55c.07-.12,7.11-11.82,8.24-17.57a22,22,0,0,0-.62-10.47l2.83-1a24.83,24.83,0,0,1,.73,12.07C432.69,454.43,425.61,466.2,425.31,466.7Z" style="fill:#263238"></path><path d="M406.83,455.24l-2.49-1.67c.93-1.39,9.21-13.7,13.73-15.76s11.31-3.18,11.6-3.23l.5,3c-.07,0-6.83,1.16-10.86,3C416.5,441.82,410.16,450.24,406.83,455.24Z" style="fill:#263238"></path><path d="M418.15,468.25l-2.57-1.54c.08-.13,7.4-12.29,9.37-15.65,1.55-2.64,3.86-11.79,4.62-15.09l2.92.67c-.11.5-2.85,12.36-4.95,15.94C425.56,456,418.22,468.13,418.15,468.25Z" style="fill:#263238"></path><path d="M410,461.58l-2.36-1.86c.07-.08,6.61-8.42,8.38-11.48,1.91-3.3,12.33-12.31,13.52-13.32l1.95,2.27c-4.49,3.86-11.62,10.38-12.88,12.56C416.69,453,410.22,461.23,410,461.58Z" style="fill:#263238"></path><polygon points="349.29 382.52 254.52 314.54 371.48 311 465.33 376.53 349.29 382.52" style="fill:#ECEFF1"></polygon><polygon points="349.29 382.52 254.52 314.54 371.48 311 465.33 376.53 349.29 382.52" style="opacity:0.2"></polygon><path d="M289.81,374.85l6.44-34.22s38.35-5.05,64.39,3,53.8,30.8,53.8,30.8l-13.2,35s-32.59-18.12-53.75-24.21S289.81,374.85,289.81,374.85Z" style="fill:#ECEFF1"></path><path d="M289.81,374.85h.11c2.24.27,37.1,4.44,57.57,10.35,20.83,6,52.74,23.63,53.73,24.19h0l13.2-34.94s-27.76-22.73-53.81-30.81-64.38-3-64.38-3Z" style="fill:#ECEFF1"></path><path d="M289.81,374.85h.11c2.24.27,37.1,4.44,57.57,10.35,20.83,6,52.74,23.63,53.73,24.19h0l13.2-34.94s-27.76-22.73-53.81-30.81-64.38-3-64.38-3Z" style="opacity:0.1"></path><path d="M351.33,342.9l.12.06C351.38,343,351.34,343,351.33,342.9Z" style="fill:#263238"></path><path d="M380.89,398.25a45.83,45.83,0,0,1,5.89,3.47l0,.08a.46.46,0,0,0-.13-.08c-5.57-2.8-12.21-6-19-9-5.12-2.24-10.31-4.32-15.13-6-1.73-.59-3.41-1.13-5-1.59-2.37-.68-4.93-1.34-7.63-2l-.15,0,.77-3c6.46,1.34,12.82,2.87,19.14,4.67q-.89-.39-1.8-.75c-2.75-.88-5.53-1.72-8.3-2.54-3.83-1.12-7.69-2.21-11.52-3.22l-.14,0,1-4.54.13,0c1.76.39,3.52.73,5.26,1.17l.2-3.1c2.06,0,3.93.18,5.87.36l.17,0,.67-4.73,2.62.34c-3.2-1-6.43-1.77-9.68-2.45l1-5.39h0l.49.11c2.67.54,5.31,1.12,7.94,1.74l.71-3.16c-.85-.19-1.69-.37-2.55-.54l.74-4.5h.08l.29.05a139.19,139.19,0,0,1,18.9,4.58,71.36,71.36,0,0,0-20.33-7.76h0s0-.13.07-.34l0-.1.05-.25,0-.15a1.67,1.67,0,0,1,.06-.29l0-.16h0l.1-.49c.1-.5.2-1,.27-1.35l0-.2a2.26,2.26,0,0,1,0-.24h0c1.79.35,3.55.77,5.3,1.25,5.43,1.35,10.84,2.84,16.14,4.66A177.47,177.47,0,0,0,351.45,343l0,0-.16-.06v0l-.18-.06,0,0-.13-.06c-1,.23-.52-.76,0-1.44.51.1,1,.19,1.54.31,1.22.23,2.42.5,3.6.79a2.2,2.2,0,0,1,.44.12c2.33.86,4.65,1.76,6.93,2.71,5.57,2.17,11.14,4.38,16.66,6.71,3.4,1.77,6.69,3.64,9.82,5.52-3-1.26-6-2.48-9-3.67a114.3,114.3,0,0,1,10,6.45l.19.13-1.65,2.48a98.28,98.28,0,0,0-10.11-4.52c1.18.85,2.35,1.73,3.47,2.65,2.79,2.08,8.61,8.84,11.07,11.42l-4.43-2.15-2.34,3.21h0l-2.28,4c-.38-.17-.75-.35-1.13-.5l-.91,1.34c2.39,1.24,4.72,2.59,7,4l-2.63,4.76a125.88,125.88,0,0,0-16.63-5.79c5.16,2.62,10.17,5.45,15.15,8.49l0,0-2.6,4.31-.05,0c-.71-.42-1.46-.83-2.21-1.21,5,4.38,10.7,10,13.81,12.81l-16-9.33a59.92,59.92,0,0,0-8.41-3.92c3.55,1.8,7.06,3.71,10.52,5.7Z" style="fill:#ECEFF1"></path><path d="M289.81,374.85s30.19,15.61,52.78,21.8c22.24,6.1,57.53,12.56,58.63,12.75-1-.56-32.9-18.2-53.73-24.19-20.47-5.91-55.33-10.08-57.57-10.35Z" style="fill:#ECEFF1"></path><path d="M289.81,374.85s30.19,15.61,52.78,21.8c22.24,6.1,57.53,12.56,58.63,12.75-1-.56-32.9-18.2-53.73-24.19-20.47-5.91-55.33-10.08-57.57-10.35Z" style="opacity:0.4"></path></g><g id="freepik--graduation-hat-2--inject-583"><path d="M146.6,127.36l-5.14,60.56S184.94,220.36,230,230s92.32,1.67,92.32,1.67l22.2-57S285,174,245.27,164.75C209.08,156.3,146.6,127.36,146.6,127.36Z" style="fill:#ECEFF1"></path><g style="opacity:0.1"><path d="M146.6,127.36l-5.14,60.56S184.94,220.36,230,230s92.32,1.67,92.32,1.67l22.2-57S285,174,245.27,164.75C209.08,156.3,146.6,127.36,146.6,127.36Z"></path></g><path d="M231.19,227.47l-.18-.06C231.1,227.37,231.17,227.39,231.19,227.47Z" style="fill:#fff"></path><path d="M256,167l0,.11h0c-8.67-1.69-17.33-3.46-26-5.44,5,1.54,10.1,2.87,15.2,4.12l-1,5.22c-9.76-1.46-19.36-3.19-29-5.34l2.67,1c4.21,1.08,8.45,2.1,12.68,3.09,5.87,1.36,11.8,2.67,17.67,3.86l-1.1,6.87-.21,0h-.06c-2.63-.43-5.26-.79-7.88-1.29l0,4.64c-3.08.11-5.88.06-8.79,0h-.24l-.61,7.08-.42,0-3.51-.23c4.84,1.16,9.75,2.09,14.65,2.83l-1.12,8.12h0l-.44-.08q-6.19-.87-12.31-1.95l-.8,4.77,3.7.58h0l.13,0-.73,6.76h-.11l-.13,0a206.49,206.49,0,0,1-28.87-5.25,105.67,105.67,0,0,0,31,9.84h0l-.78,5.41-.31,0c-2.42-.35-4.84-.78-7.24-1.29l-.27,0c-8.28-1.55-16.53-3.33-24.63-5.59A268.82,268.82,0,0,0,231,227.41s0,0,0,0l.23.06a0,0,0,0,0,0,0l.27.08.06,0,.18.08c1.69-.49.58,1.64-.28,2.63-.48-.08-1-.19-1.46-.29l-.59-.13q-2.64-.59-5.27-1.26c-.51-.12-1-.26-1.55-.41q-4.67-1.42-9.27-3-4.8-1.56-9.62-3.16c-7.6-2.93-14.89-6.24-21.63-9.62l4,1.33A172.1,172.1,0,0,1,170.67,205l-.29-.18,2.24-3.85a149.34,149.34,0,0,0,15.57,5.94q-2.82-1.74-5.51-3.71c-4.33-2.87-13.6-12.45-17.5-16.09l6.79,2.82,3.23-5,0,0,3-6.22,1.72.66,1.27-2.1c-3.67-1.64-7.29-3.44-10.81-5.42l3.51-7.33a190.45,190.45,0,0,0,25.33,7.22c-7.93-3.45-15.63-7.24-23.28-11.33l-.07,0a.15.15,0,0,0-.07-.05l3.52-6.64.07,0c1.11.57,2.26,1.11,3.42,1.63-7.89-6.11-16.83-14-21.71-17.93L185.79,150a87.24,87.24,0,0,0,12.83,5.1q-8.15-3.57-16.13-7.57a0,0,0,0,1,0,0,69.23,69.23,0,0,1-8.92-4.58l-.07,0-.18-.12,1.77-2.89.2.08c1.35.58,2.72,1.16,4.14,1.73,1.64.69,3.33,1.39,5.05,2.09,2.5,1.18,5,2.35,7.54,3.48,3.34,1.23,6.73,2.41,10.12,3.52l.13,0c15.05,5.74,30.6,11.06,43,14,2.48.58,5,1.14,7.66,1.65h0l3,.57Z" style="fill:#ECEFF1"></path><polygon points="239.17 192.64 426.13 177.79 264.6 80.52 87.33 94.71 239.17 192.64" style="fill:#ECEFF1"></polygon><g style="opacity:0.2"><polygon points="239.17 192.64 426.13 177.79 264.6 80.52 87.33 94.71 239.17 192.64" style="fill:#fff"></polygon></g><path d="M244.35,131.87s9.35,6.86,20.34,4.83c0,0,0-8.37-8.29-10.35S244.35,131.87,244.35,131.87Z" style="fill:#263238"></path><path d="M364.59,296.19c-21.32-6.37-20.16-44.07-19.14-77.33.68-21.81,1.37-44.36-5.57-48.46-25.52-15.05-88.17-39.21-88.8-39.45l1.43-3.73c.64.24,63.6,24.52,89.4,39.74,9,5.3,8.32,26.95,7.54,52-1,31.82-2.09,67.88,16.29,73.37Z" style="fill:#263238"></path><path d="M391.06,327.63c-.68-.4-16.73-9.95-22.23-16.66a33.78,33.78,0,0,1-6.87-14.9l4-.59a30.13,30.13,0,0,0,6,12.95c5.05,6.17,21,15.67,21.17,15.76Z" style="fill:#263238"></path><path d="M405.82,302c-7.21-3.85-20.24-9.85-24.42-9.58-6,.39-14.85,3.36-14.94,3.39L365.18,292c.38-.13,9.43-3.17,16-3.6,6.7-.43,24.55,9,26.57,10.06Z" style="fill:#263238"></path><path d="M400.63,324.9c-.17-.1-16.77-10-21.32-12.75-4.81-2.93-15.71-15.37-16.17-15.9l3-2.63c3,3.47,11.68,12.95,15.24,15.12,4.53,2.76,21.12,12.62,21.29,12.72Z" style="fill:#263238"></path><path d="M406.16,311.62c-.55-.24-13.6-6-17.92-8.63-2.91-1.8-15.65-5-23.51-6.76l.86-3.91c2.07.46,20.34,4.54,24.75,7.27,4.08,2.52,17.29,8.31,17.42,8.37Z" style="fill:#263238"></path></g><g id="freepik--graduation-hat-1--inject-583"><path d="M60.78,399.77l-2.92-.72c2.33-9.4,2-22.29,1.81-33.66-.28-13-.52-24.15,3-28.5,12-14.82,83.61-35,86.66-35.85l.8,2.89c-.73.2-73.78,20.76-85.13,34.84-2.82,3.5-2.58,14.7-2.32,26.55C62.92,376.88,63.2,390,60.78,399.77Z" style="fill:#263238"></path><path d="M42.29,422.47l-2.83-1c.19-.55,4.73-13.51,8.77-18.46A24.78,24.78,0,0,1,58,395.88l1,2.82-.51-1.41L59,398.7a22.23,22.23,0,0,0-8.45,6.22C46.85,409.46,42.33,422.34,42.29,422.47Z" style="fill:#263238"></path><path d="M63,429.25l-2.88-.86c1.73-5.76,4.16-16,3.35-19-1.16-4.27-4.59-10.21-4.62-10.27l2.59-1.51c.15.26,3.66,6.34,4.92,11S63.43,427.64,63,429.25Z" style="fill:#263238"></path><path d="M45.66,429l-2.83-1c.05-.14,4.74-13.55,6.07-17.24,1.41-3.89,8.79-13.58,9.1-14l2.39,1.83c-2.06,2.69-7.63,10.31-8.67,13.18C50.39,415.44,45.71,428.84,45.66,429Z" style="fill:#263238"></path><path d="M56.14,430.67,53.2,430c.1-.44,2.31-10.68,3.61-14.19.87-2.35,1.34-12,1.44-17.92l3,.05c0,1.56-.3,15.33-1.63,18.91C58.4,420.2,56.16,430.56,56.14,430.67Z" style="fill:#263238"></path><polygon points="163.82 337.06 264.76 274.5 141.64 265.54 47.9 341.24 163.82 337.06" style="fill:#ECEFF1"></polygon><polygon points="163.82 337.06 264.76 274.5 141.64 265.54 47.9 341.24 163.82 337.06" style="opacity:0.2"></polygon><path d="M223.31,329.39l-6.45-34.22s-38.34-5.05-64.38,3S98.68,329,98.68,329L111.87,364s32.59-18.12,53.75-24.21S223.31,329.39,223.31,329.39Z" style="fill:#ECEFF1"></path><path d="M223.3,329.39h-.11c-2.23.27-37.09,4.44-57.57,10.34-20.82,6-52.74,23.64-53.72,24.2h0L98.67,329s27.76-22.72,53.81-30.8,64.38-3,64.38-3Z" style="fill:#ECEFF1"></path><path d="M223.3,329.39h-.11c-2.23.27-37.09,4.44-57.57,10.34-20.82,6-52.74,23.64-53.72,24.2h0L98.67,329s27.76-22.72,53.81-30.8,64.38-3,64.38-3Z" style="opacity:0.1"></path><path d="M155.46,298.26l.13,0C155.55,298.29,155.5,298.3,155.46,298.26Z" style="fill:#263238"></path><path d="M213.63,330.62c-2.69.38-5.81.83-9.19,1.35-.45.06-.89.13-1.35.21-.93.13-1.88.28-2.84.44-1.53.09-3.07.25-4.62.44.7,0,1.39,0,2.09,0-9.33,1.52-19.72,3.47-28.32,5.69-1.7.31-3.39.62-5.08,1l-.85-3.46c6.34-1.87,12.68-3.53,19.13-4.9-.67,0-1.33.1-2,.17q-4.28.79-8.52,1.68c-3.94.83-7.91,1.71-11.81,2.64L159,331.32a.48.48,0,0,0,.14-.05l.1,0c1.7-.48,3.38-1,5.09-1.42L163.05,327l.27-.13c1.72-.88,3.36-1.6,5.07-2.32l.14-.07L166.91,320l.26-.09c.72-.29,1.45-.57,2.18-.84q-4.87,1-9.64,2.39h0l-1.6-5.25h0l.08,0c2.74-.83,5.47-1.61,8.22-2.34l-.85-3.11-2.52.72-1.46-4.31a.11.11,0,0,1,.07,0,138.06,138.06,0,0,1,19.12-5,70.53,70.53,0,0,0-21.29,2.65l-.3.08h0l-1-3.49h0c1.91-.57,3.82-1.08,5.77-1.49,5.25-1.35,10.55-2.52,15.88-3.4a177,177,0,0,0-24.18,1.74l0,0-.16,0v0l-.19,0h-.18c-.58.5-.74,0-.73-.63.5-.14,1-.28,1.52-.41a123.34,123.34,0,0,1,24.67-3.41h0c3-.15,5.89-.21,8.71-.22l-2.5.29a115.14,115.14,0,0,1,12,1l-.28,3a100.12,100.12,0,0,0-11.07.79c1.46.18,2.9.41,4.34.69,3.44.52,11.76,3.74,15.15,4.85l-4.91.2-.57,3.93h0l-.1,4.64-1.22.08-.18,1.63c2.68,0,5.39,0,8.08.25l-.06,5.44a126,126,0,0,0-17.4,2.74c5.73-.12,11.43,0,17.19.33h.23l-.28,5h-.25c-.77,0-1.57,0-2.36,0C207.82,329.07,210.8,329.86,213.63,330.62Z" style="fill:#ECEFF1"></path><path d="M223.3,329.39s-30.19,15.61-52.77,21.8c-22.24,6.1-57.53,12.56-58.63,12.75,1-.56,32.9-18.2,53.72-24.2,20.48-5.9,55.34-10.07,57.57-10.34Z" style="fill:#ECEFF1"></path><path d="M223.3,329.39s-30.19,15.61-52.77,21.8c-22.24,6.1-57.53,12.56-58.63,12.75,1-.56,32.9-18.2,53.72-24.2,20.48-5.9,55.34-10.07,57.57-10.34Z" style="opacity:0.4"></path></g></svg>
