<svg xmlns="http://www.w3.org/2000/svg" viewBox="0 0 500 500"><g id="freepik--background-complete--inject-819"><path d="M395.66,144.49H319s3.81-5,8-5.58c0,0,8.17-24.33,21.85-24.5,12.72-.16,17.82,15,17.82,15s5.89-6.78,11.52-3.68,8.82,12,8.82,12S393.37,141.08,395.66,144.49Z" style="fill:#ebebeb"></path><path d="M49.91,130.21h96.93s0-6.2-13.35-7.41c0,0-12.19-27.07-30.8-23.43-11.6,2.26-17.52,18.18-17.52,18.18S76.41,105,69.4,107.45s-11.17,15.76-11.17,15.76S51,126.71,49.91,130.21Z" style="fill:#ebebeb"></path><path d="M168,70.54h65.91s-6.22-5.79-9-5.79-10.83-19.44-21.14-18.61S188,61.44,188,61.44,175.46,57.51,168,70.54Z" style="fill:#ebebeb"></path><path d="M191.27,159.14h56.36s-2.8-3.65-5.89-4.1c0,0-6-17.89-16.07-18-9.35-.12-13.1,11-13.1,11s-4.34-5-8.48-2.7-6.48,8.81-6.48,8.81S193,156.63,191.27,159.14Z" style="fill:#ebebeb"></path><path d="M393.72,98.54h56.37s-2.81-3.65-5.9-4.11c0,0-6-17.89-16.06-18-9.36-.11-13.11,11-13.11,11s-4.33-5-8.47-2.71-6.48,8.81-6.48,8.81S395.41,96,393.72,98.54Z" style="fill:#ebebeb"></path><rect x="349.31" y="162.08" width="31.77" height="166.52" style="fill:#dbdbdb"></rect><rect x="354.24" y="167.49" width="6.18" height="6.36" style="fill:#ebebeb"></rect><rect x="362.14" y="167.49" width="6.18" height="6.36" style="fill:#ebebeb"></rect><rect x="354.24" y="178.29" width="6.18" height="6.36" style="fill:#ebebeb"></rect><rect x="362.14" y="178.29" width="6.18" height="6.36" style="fill:#ebebeb"></rect><rect x="354.24" y="189.08" width="6.18" height="6.36" style="fill:#ebebeb"></rect><rect x="362.14" y="189.08" width="6.18" height="6.36" style="fill:#ebebeb"></rect><rect x="354.24" y="199.88" width="6.18" height="6.36" style="fill:#ebebeb"></rect><rect x="362.14" y="199.88" width="6.18" height="6.36" style="fill:#ebebeb"></rect><rect x="354.24" y="210.67" width="6.18" height="6.36" style="fill:#ebebeb"></rect><rect x="362.14" y="210.67" width="6.18" height="6.36" style="fill:#ebebeb"></rect><rect x="354.24" y="221.47" width="6.18" height="6.36" style="fill:#ebebeb"></rect><rect x="362.14" y="221.47" width="6.18" height="6.36" style="fill:#ebebeb"></rect><rect x="354.24" y="232.26" width="6.18" height="6.36" style="fill:#ebebeb"></rect><rect x="362.14" y="232.26" width="6.18" height="6.36" style="fill:#ebebeb"></rect><rect x="354.24" y="243.06" width="6.18" height="6.36" style="fill:#ebebeb"></rect><rect x="362.14" y="243.06" width="6.18" height="6.36" style="fill:#ebebeb"></rect><rect x="354.24" y="253.85" width="6.18" height="6.36" style="fill:#ebebeb"></rect><rect x="362.14" y="253.85" width="6.18" height="6.36" style="fill:#ebebeb"></rect><rect x="354.24" y="264.65" width="6.18" height="6.36" style="fill:#ebebeb"></rect><rect x="362.14" y="264.65" width="6.18" height="6.36" style="fill:#ebebeb"></rect><rect x="354.24" y="275.44" width="6.18" height="6.36" style="fill:#ebebeb"></rect><rect x="362.14" y="275.44" width="6.18" height="6.36" style="fill:#ebebeb"></rect><rect x="354.24" y="286.24" width="6.18" height="6.36" style="fill:#ebebeb"></rect><rect x="362.14" y="286.24" width="6.18" height="6.36" style="fill:#ebebeb"></rect><rect x="354.24" y="297.03" width="6.18" height="6.36" style="fill:#ebebeb"></rect><rect x="362.14" y="297.03" width="6.18" height="6.36" style="fill:#ebebeb"></rect><rect x="354.24" y="307.83" width="6.18" height="6.36" style="fill:#ebebeb"></rect><rect x="369.97" y="307.83" width="6.18" height="6.36" transform="translate(746.11 622.01) rotate(180)" style="fill:#ebebeb"></rect><rect x="369.97" y="297.03" width="6.18" height="6.36" transform="translate(746.11 600.42) rotate(180)" style="fill:#ebebeb"></rect><rect x="369.97" y="286.24" width="6.18" height="6.36" transform="translate(746.11 578.83) rotate(180)" style="fill:#ebebeb"></rect><rect x="369.97" y="275.44" width="6.18" height="6.36" transform="translate(746.11 557.24) rotate(180)" style="fill:#ebebeb"></rect><rect x="369.97" y="264.65" width="6.18" height="6.36" transform="translate(746.11 535.65) rotate(180)" style="fill:#ebebeb"></rect><rect x="369.97" y="253.85" width="6.18" height="6.36" transform="translate(746.11 514.06) rotate(180)" style="fill:#ebebeb"></rect><rect x="369.97" y="243.06" width="6.18" height="6.36" transform="translate(746.11 492.47) rotate(180)" style="fill:#ebebeb"></rect><rect x="369.97" y="232.26" width="6.18" height="6.36" transform="translate(746.11 470.88) rotate(180)" style="fill:#ebebeb"></rect><rect x="369.97" y="221.47" width="6.18" height="6.36" transform="translate(746.11 449.29) rotate(180)" style="fill:#ebebeb"></rect><rect x="369.97" y="210.67" width="6.18" height="6.36" transform="translate(746.11 427.7) rotate(180)" style="fill:#ebebeb"></rect><rect x="369.97" y="199.88" width="6.18" height="6.36" transform="translate(746.11 406.11) rotate(180)" style="fill:#ebebeb"></rect><rect x="369.97" y="189.08" width="6.18" height="6.36" transform="translate(746.11 384.52) rotate(180)" style="fill:#ebebeb"></rect><rect x="369.97" y="178.29" width="6.18" height="6.36" transform="translate(746.11 362.93) rotate(180)" style="fill:#ebebeb"></rect><rect x="369.97" y="167.49" width="6.18" height="6.36" transform="translate(746.11 341.34) rotate(180)" style="fill:#ebebeb"></rect><rect x="362.14" y="307.83" width="6.18" height="6.36" style="fill:#ebebeb"></rect><rect x="381.08" y="162.08" width="25.05" height="166.52" style="fill:#a6a6a6"></rect><rect x="398.44" y="307.83" width="5.1" height="6.36" transform="translate(801.98 622.01) rotate(180)" style="fill:#c7c7c7"></rect><rect x="391.92" y="307.83" width="5.1" height="6.36" transform="translate(788.93 622.01) rotate(180)" style="fill:#c7c7c7"></rect><rect x="398.44" y="297.03" width="5.1" height="6.36" transform="translate(801.98 600.42) rotate(180)" style="fill:#c7c7c7"></rect><rect x="391.92" y="297.03" width="5.1" height="6.36" transform="translate(788.93 600.42) rotate(180)" style="fill:#c7c7c7"></rect><rect x="398.44" y="286.24" width="5.1" height="6.36" transform="translate(801.98 578.83) rotate(180)" style="fill:#c7c7c7"></rect><rect x="391.92" y="286.24" width="5.1" height="6.36" transform="translate(788.93 578.83) rotate(180)" style="fill:#c7c7c7"></rect><rect x="398.44" y="275.44" width="5.1" height="6.36" transform="translate(801.98 557.24) rotate(180)" style="fill:#c7c7c7"></rect><rect x="391.92" y="275.44" width="5.1" height="6.36" transform="translate(788.93 557.24) rotate(180)" style="fill:#c7c7c7"></rect><rect x="398.44" y="264.65" width="5.1" height="6.36" transform="translate(801.98 535.65) rotate(180)" style="fill:#c7c7c7"></rect><rect x="391.92" y="264.65" width="5.1" height="6.36" transform="translate(788.93 535.65) rotate(180)" style="fill:#c7c7c7"></rect><rect x="398.44" y="253.85" width="5.1" height="6.36" transform="translate(801.98 514.06) rotate(180)" style="fill:#c7c7c7"></rect><rect x="391.92" y="253.85" width="5.1" height="6.36" transform="translate(788.93 514.06) rotate(180)" style="fill:#c7c7c7"></rect><rect x="398.44" y="243.06" width="5.1" height="6.36" transform="translate(801.98 492.47) rotate(180)" style="fill:#c7c7c7"></rect><rect x="391.92" y="243.06" width="5.1" height="6.36" transform="translate(788.93 492.47) rotate(180)" style="fill:#c7c7c7"></rect><rect x="398.44" y="232.26" width="5.1" height="6.36" transform="translate(801.98 470.88) rotate(180)" style="fill:#c7c7c7"></rect><rect x="391.92" y="232.26" width="5.1" height="6.36" transform="translate(788.93 470.88) rotate(180)" style="fill:#c7c7c7"></rect><rect x="398.44" y="221.47" width="5.1" height="6.36" transform="translate(801.98 449.29) rotate(180)" style="fill:#c7c7c7"></rect><rect x="391.92" y="221.47" width="5.1" height="6.36" transform="translate(788.93 449.29) rotate(180)" style="fill:#c7c7c7"></rect><rect x="398.44" y="210.67" width="5.1" height="6.36" transform="translate(801.98 427.7) rotate(180)" style="fill:#c7c7c7"></rect><rect x="391.92" y="210.67" width="5.1" height="6.36" transform="translate(788.93 427.7) rotate(180)" style="fill:#c7c7c7"></rect><rect x="398.44" y="199.88" width="5.1" height="6.36" transform="translate(801.98 406.11) rotate(180)" style="fill:#c7c7c7"></rect><rect x="391.92" y="199.88" width="5.1" height="6.36" transform="translate(788.93 406.11) rotate(180)" style="fill:#c7c7c7"></rect><rect x="398.44" y="189.08" width="5.1" height="6.36" transform="translate(801.98 384.52) rotate(180)" style="fill:#c7c7c7"></rect><rect x="391.92" y="189.08" width="5.1" height="6.36" transform="translate(788.93 384.52) rotate(180)" style="fill:#c7c7c7"></rect><rect x="398.44" y="178.29" width="5.1" height="6.36" transform="translate(801.98 362.93) rotate(180)" style="fill:#c7c7c7"></rect><rect x="391.92" y="178.29" width="5.1" height="6.36" transform="translate(788.93 362.93) rotate(180)" style="fill:#c7c7c7"></rect><rect x="398.44" y="167.49" width="5.1" height="6.36" transform="translate(801.98 341.34) rotate(180)" style="fill:#c7c7c7"></rect><rect x="385.45" y="167.49" width="5.1" height="6.36" style="fill:#c7c7c7"></rect><rect x="385.45" y="178.29" width="5.1" height="6.36" style="fill:#c7c7c7"></rect><rect x="385.45" y="189.08" width="5.1" height="6.36" style="fill:#c7c7c7"></rect><rect x="385.45" y="199.88" width="5.1" height="6.36" style="fill:#c7c7c7"></rect><rect x="385.45" y="210.67" width="5.1" height="6.36" style="fill:#c7c7c7"></rect><rect x="385.45" y="221.47" width="5.1" height="6.36" style="fill:#c7c7c7"></rect><rect x="385.45" y="232.26" width="5.1" height="6.36" style="fill:#c7c7c7"></rect><rect x="385.45" y="243.06" width="5.1" height="6.36" style="fill:#c7c7c7"></rect><rect x="385.45" y="253.85" width="5.1" height="6.36" style="fill:#c7c7c7"></rect><rect x="385.45" y="264.65" width="5.1" height="6.36" style="fill:#c7c7c7"></rect><rect x="385.45" y="275.44" width="5.1" height="6.36" style="fill:#c7c7c7"></rect><rect x="385.45" y="286.24" width="5.1" height="6.36" style="fill:#c7c7c7"></rect><rect x="385.45" y="297.03" width="5.1" height="6.36" style="fill:#c7c7c7"></rect><rect x="385.45" y="307.83" width="5.1" height="6.36" style="fill:#c7c7c7"></rect><rect x="391.92" y="167.49" width="5.1" height="6.36" transform="translate(788.93 341.34) rotate(180)" style="fill:#c7c7c7"></rect><rect x="99.76" y="153.1" width="37.58" height="175.5" style="fill:#ebebeb"></rect><rect x="98.86" y="149.26" width="38.48" height="3.84" style="fill:#c7c7c7"></rect><rect x="103.16" y="158.77" width="3.81" height="169.84" style="fill:#fff"></rect><rect x="109.9" y="158.77" width="3.81" height="169.84" style="fill:#fff"></rect><rect x="116.65" y="158.77" width="3.81" height="169.84" style="fill:#fff"></rect><rect x="123.39" y="158.77" width="3.81" height="169.84" style="fill:#fff"></rect><rect x="130.13" y="158.77" width="3.81" height="169.84" style="fill:#fff"></rect><rect x="103.16" y="163.62" width="3.81" height="7.58" style="fill:#ebebeb"></rect><rect x="109.9" y="163.62" width="3.81" height="7.58" style="fill:#ebebeb"></rect><rect x="116.65" y="163.62" width="3.81" height="7.58" style="fill:#ebebeb"></rect><rect x="123.39" y="163.62" width="3.81" height="7.58" style="fill:#ebebeb"></rect><rect x="130.13" y="163.62" width="3.81" height="7.58" style="fill:#ebebeb"></rect><rect x="103.16" y="175.95" width="3.81" height="7.59" style="fill:#ebebeb"></rect><rect x="109.9" y="175.95" width="3.81" height="7.59" style="fill:#ebebeb"></rect><rect x="116.65" y="175.95" width="3.81" height="7.59" style="fill:#ebebeb"></rect><rect x="123.39" y="175.95" width="3.81" height="7.59" style="fill:#ebebeb"></rect><rect x="130.13" y="175.95" width="3.81" height="7.59" style="fill:#ebebeb"></rect><rect x="103.16" y="188.28" width="3.81" height="7.58" style="fill:#ebebeb"></rect><rect x="109.9" y="188.28" width="3.81" height="7.58" style="fill:#ebebeb"></rect><rect x="116.65" y="188.28" width="3.81" height="7.58" style="fill:#ebebeb"></rect><rect x="123.39" y="188.28" width="3.81" height="7.58" style="fill:#ebebeb"></rect><rect x="130.13" y="188.28" width="3.81" height="7.58" style="fill:#ebebeb"></rect><rect x="103.16" y="200.6" width="3.81" height="7.59" style="fill:#ebebeb"></rect><rect x="109.9" y="200.6" width="3.81" height="7.59" style="fill:#ebebeb"></rect><rect x="116.65" y="200.6" width="3.81" height="7.59" style="fill:#ebebeb"></rect><rect x="123.39" y="200.6" width="3.81" height="7.59" style="fill:#ebebeb"></rect><rect x="130.13" y="200.6" width="3.81" height="7.59" style="fill:#ebebeb"></rect><rect x="103.16" y="212.93" width="3.81" height="7.59" style="fill:#ebebeb"></rect><rect x="109.9" y="212.93" width="3.81" height="7.59" style="fill:#ebebeb"></rect><rect x="116.65" y="212.93" width="3.81" height="7.59" style="fill:#ebebeb"></rect><rect x="123.39" y="212.93" width="3.81" height="7.59" style="fill:#ebebeb"></rect><rect x="130.13" y="212.93" width="3.81" height="7.59" style="fill:#ebebeb"></rect><rect x="103.16" y="225.26" width="3.81" height="7.59" style="fill:#ebebeb"></rect><rect x="109.9" y="225.26" width="3.81" height="7.59" style="fill:#ebebeb"></rect><rect x="116.65" y="225.26" width="3.81" height="7.59" style="fill:#ebebeb"></rect><rect x="123.39" y="225.26" width="3.81" height="7.59" style="fill:#ebebeb"></rect><rect x="130.13" y="225.26" width="3.81" height="7.59" style="fill:#ebebeb"></rect><rect x="103.16" y="237.59" width="3.81" height="7.59" style="fill:#ebebeb"></rect><rect x="109.9" y="237.59" width="3.81" height="7.59" style="fill:#ebebeb"></rect><rect x="116.65" y="237.59" width="3.81" height="7.59" style="fill:#ebebeb"></rect><rect x="123.39" y="237.59" width="3.81" height="7.59" style="fill:#ebebeb"></rect><rect x="130.13" y="237.59" width="3.81" height="7.59" style="fill:#ebebeb"></rect><rect x="103.16" y="249.91" width="3.81" height="7.59" style="fill:#ebebeb"></rect><rect x="109.9" y="249.91" width="3.81" height="7.59" style="fill:#ebebeb"></rect><rect x="116.65" y="249.91" width="3.81" height="7.59" style="fill:#ebebeb"></rect><rect x="123.39" y="249.91" width="3.81" height="7.59" style="fill:#ebebeb"></rect><rect x="130.13" y="249.91" width="3.81" height="7.59" style="fill:#ebebeb"></rect><rect x="103.16" y="262.24" width="3.81" height="7.58" style="fill:#ebebeb"></rect><rect x="109.9" y="262.24" width="3.81" height="7.58" style="fill:#ebebeb"></rect><rect x="116.65" y="262.24" width="3.81" height="7.58" style="fill:#ebebeb"></rect><rect x="123.39" y="262.24" width="3.81" height="7.58" style="fill:#ebebeb"></rect><rect x="130.13" y="262.24" width="3.81" height="7.58" style="fill:#ebebeb"></rect><rect x="103.16" y="274.57" width="3.81" height="7.58" style="fill:#ebebeb"></rect><rect x="109.9" y="274.57" width="3.81" height="7.58" style="fill:#ebebeb"></rect><rect x="116.65" y="274.57" width="3.81" height="7.58" style="fill:#ebebeb"></rect><rect x="123.39" y="274.57" width="3.81" height="7.58" style="fill:#ebebeb"></rect><rect x="130.13" y="274.57" width="3.81" height="7.58" style="fill:#ebebeb"></rect><rect x="103.16" y="286.89" width="3.81" height="7.58" style="fill:#ebebeb"></rect><rect x="109.9" y="286.89" width="3.81" height="7.58" style="fill:#ebebeb"></rect><rect x="116.65" y="286.89" width="3.81" height="7.58" style="fill:#ebebeb"></rect><rect x="123.39" y="286.89" width="3.81" height="7.58" style="fill:#ebebeb"></rect><rect x="130.13" y="286.89" width="3.81" height="7.58" style="fill:#ebebeb"></rect><rect x="103.16" y="299.22" width="3.81" height="7.58" style="fill:#ebebeb"></rect><rect x="109.9" y="299.22" width="3.81" height="7.58" style="fill:#ebebeb"></rect><rect x="116.65" y="299.22" width="3.81" height="7.58" style="fill:#ebebeb"></rect><rect x="123.39" y="299.22" width="3.81" height="7.58" style="fill:#ebebeb"></rect><rect x="130.13" y="299.22" width="3.81" height="7.58" style="fill:#ebebeb"></rect><rect x="103.16" y="311.55" width="3.81" height="7.58" style="fill:#ebebeb"></rect><rect x="109.9" y="311.55" width="3.81" height="7.58" style="fill:#ebebeb"></rect><rect x="116.65" y="311.55" width="3.81" height="7.58" style="fill:#ebebeb"></rect><rect x="123.39" y="311.55" width="3.81" height="7.58" style="fill:#ebebeb"></rect><rect x="130.13" y="311.55" width="3.81" height="7.58" style="fill:#ebebeb"></rect><rect x="103.16" y="323.88" width="3.81" height="4.73" style="fill:#ebebeb"></rect><rect x="109.9" y="323.88" width="3.81" height="4.73" style="fill:#ebebeb"></rect><rect x="116.65" y="323.88" width="3.81" height="4.73" style="fill:#ebebeb"></rect><rect x="123.39" y="323.88" width="3.81" height="4.73" style="fill:#ebebeb"></rect><rect x="130.13" y="323.88" width="3.81" height="4.73" style="fill:#ebebeb"></rect><rect x="137.34" y="153.1" width="24.13" height="175.5" style="fill:#dbdbdb"></rect><rect x="137.34" y="149.26" width="25.17" height="3.84" style="fill:#c7c7c7"></rect><rect x="140.74" y="158.77" width="3.81" height="169.84" style="fill:#c7c7c7"></rect><rect x="147.48" y="158.77" width="3.81" height="169.84" style="fill:#c7c7c7"></rect><rect x="154.23" y="158.77" width="3.81" height="169.84" style="fill:#c7c7c7"></rect><rect x="140.74" y="163.62" width="3.81" height="7.58" style="fill:#dbdbdb"></rect><rect x="147.48" y="163.62" width="3.81" height="7.58" style="fill:#dbdbdb"></rect><rect x="154.23" y="163.62" width="3.81" height="7.58" style="fill:#dbdbdb"></rect><rect x="140.74" y="175.95" width="3.81" height="7.59" style="fill:#dbdbdb"></rect><rect x="147.48" y="175.95" width="3.81" height="7.59" style="fill:#dbdbdb"></rect><rect x="154.23" y="175.95" width="3.81" height="7.59" style="fill:#dbdbdb"></rect><rect x="140.74" y="188.28" width="3.81" height="7.58" style="fill:#dbdbdb"></rect><rect x="147.48" y="188.28" width="3.81" height="7.58" style="fill:#dbdbdb"></rect><rect x="154.23" y="188.28" width="3.81" height="7.58" style="fill:#dbdbdb"></rect><rect x="140.74" y="200.6" width="3.81" height="7.59" style="fill:#dbdbdb"></rect><rect x="147.48" y="200.6" width="3.81" height="7.59" style="fill:#dbdbdb"></rect><rect x="154.23" y="200.6" width="3.81" height="7.59" style="fill:#dbdbdb"></rect><rect x="140.74" y="212.93" width="3.81" height="7.59" style="fill:#dbdbdb"></rect><rect x="147.48" y="212.93" width="3.81" height="7.59" style="fill:#dbdbdb"></rect><rect x="154.23" y="212.93" width="3.81" height="7.59" style="fill:#dbdbdb"></rect><rect x="140.74" y="225.26" width="3.81" height="7.59" style="fill:#dbdbdb"></rect><rect x="147.48" y="225.26" width="3.81" height="7.59" style="fill:#dbdbdb"></rect><rect x="154.23" y="225.26" width="3.81" height="7.59" style="fill:#dbdbdb"></rect><rect x="140.74" y="237.59" width="3.81" height="7.59" style="fill:#dbdbdb"></rect><rect x="147.48" y="237.59" width="3.81" height="7.59" style="fill:#dbdbdb"></rect><rect x="154.23" y="237.59" width="3.81" height="7.59" style="fill:#dbdbdb"></rect><rect x="140.74" y="249.91" width="3.81" height="7.59" style="fill:#dbdbdb"></rect><rect x="147.48" y="249.91" width="3.81" height="7.59" style="fill:#dbdbdb"></rect><rect x="154.23" y="249.91" width="3.81" height="7.59" style="fill:#dbdbdb"></rect><rect x="140.74" y="262.24" width="3.81" height="7.58" style="fill:#dbdbdb"></rect><rect x="147.48" y="262.24" width="3.81" height="7.58" style="fill:#dbdbdb"></rect><rect x="154.23" y="262.24" width="3.81" height="7.58" style="fill:#dbdbdb"></rect><rect x="140.74" y="274.57" width="3.81" height="7.58" style="fill:#dbdbdb"></rect><rect x="147.48" y="274.57" width="3.81" height="7.58" style="fill:#dbdbdb"></rect><rect x="154.23" y="274.57" width="3.81" height="7.58" style="fill:#dbdbdb"></rect><rect x="140.74" y="286.89" width="3.81" height="7.58" style="fill:#dbdbdb"></rect><rect x="147.48" y="286.89" width="3.81" height="7.58" style="fill:#dbdbdb"></rect><rect x="154.23" y="286.89" width="3.81" height="7.58" style="fill:#dbdbdb"></rect><rect x="140.74" y="299.22" width="3.81" height="7.58" style="fill:#dbdbdb"></rect><rect x="147.48" y="299.22" width="3.81" height="7.58" style="fill:#dbdbdb"></rect><rect x="154.23" y="299.22" width="3.81" height="7.58" style="fill:#dbdbdb"></rect><rect x="140.74" y="311.55" width="3.81" height="7.58" style="fill:#dbdbdb"></rect><rect x="147.48" y="311.55" width="3.81" height="7.58" style="fill:#dbdbdb"></rect><rect x="154.23" y="311.55" width="3.81" height="7.58" style="fill:#dbdbdb"></rect><rect x="140.74" y="323.88" width="3.81" height="4.73" style="fill:#dbdbdb"></rect><rect x="147.48" y="323.88" width="3.81" height="4.73" style="fill:#dbdbdb"></rect><rect x="154.23" y="323.88" width="3.81" height="4.73" style="fill:#dbdbdb"></rect><rect x="40.86" y="217.6" width="37.42" height="111" style="fill:#ebebeb"></rect><rect x="46.18" y="208.19" width="32.1" height="9.41" style="fill:#c7c7c7"></rect><rect x="44.96" y="222.51" width="29.21" height="106.09" style="fill:#dbdbdb"></rect><rect x="44.96" y="232.64" width="29.21" height="2.51" style="fill:#fff"></rect><rect x="44.96" y="243.02" width="29.21" height="2.51" style="fill:#fff"></rect><rect x="44.96" y="253.41" width="29.21" height="2.51" style="fill:#fff"></rect><rect x="44.96" y="263.79" width="29.21" height="2.51" style="fill:#fff"></rect><rect x="44.96" y="274.18" width="29.21" height="2.51" style="fill:#fff"></rect><rect x="44.96" y="284.56" width="29.21" height="2.51" style="fill:#fff"></rect><rect x="44.96" y="294.94" width="29.21" height="2.51" style="fill:#fff"></rect><rect x="44.96" y="305.33" width="29.21" height="2.51" style="fill:#fff"></rect><rect x="44.96" y="315.71" width="29.21" height="2.51" style="fill:#fff"></rect><rect x="44.96" y="326.1" width="29.21" height="2.51" style="fill:#fff"></rect><rect x="78.28" y="217.6" width="23.44" height="111" style="fill:#dbdbdb"></rect><rect x="78.28" y="208.19" width="19.92" height="9.41" style="fill:#a6a6a6"></rect><rect x="81.51" y="222.51" width="18.02" height="106.09" style="fill:#c7c7c7"></rect><rect x="81.51" y="232.64" width="18.02" height="2.51" style="fill:#fff"></rect><rect x="81.51" y="243.02" width="18.02" height="2.51" style="fill:#fff"></rect><rect x="81.51" y="253.41" width="18.02" height="2.51" style="fill:#fff"></rect><rect x="81.51" y="263.79" width="18.02" height="2.51" style="fill:#fff"></rect><rect x="81.51" y="274.18" width="18.02" height="2.51" style="fill:#fff"></rect><rect x="81.51" y="284.56" width="18.02" height="2.51" style="fill:#fff"></rect><rect x="81.51" y="294.94" width="18.02" height="2.51" style="fill:#fff"></rect><rect x="81.51" y="305.33" width="18.02" height="2.51" style="fill:#fff"></rect><rect x="81.51" y="315.71" width="18.02" height="2.51" style="fill:#fff"></rect><rect x="81.51" y="326.1" width="18.02" height="2.51" style="fill:#fff"></rect><rect x="284.75" y="263.62" width="28.93" height="64.98" style="fill:#dbdbdb"></rect><rect x="289.29" y="269.24" width="5.12" height="3.98" style="fill:#c7c7c7"></rect><rect x="289.29" y="277.75" width="5.12" height="3.98" style="fill:#c7c7c7"></rect><rect x="289.29" y="286.25" width="5.12" height="3.98" style="fill:#c7c7c7"></rect><rect x="289.29" y="294.76" width="5.12" height="3.98" style="fill:#c7c7c7"></rect><rect x="289.29" y="303.26" width="5.12" height="3.98" style="fill:#c7c7c7"></rect><rect x="289.29" y="311.76" width="5.12" height="3.98" style="fill:#c7c7c7"></rect><rect x="289.29" y="320.27" width="5.12" height="3.98" style="fill:#c7c7c7"></rect><rect x="296.66" y="269.24" width="5.12" height="3.98" style="fill:#c7c7c7"></rect><rect x="296.66" y="277.75" width="5.12" height="3.98" style="fill:#c7c7c7"></rect><rect x="296.66" y="286.25" width="5.12" height="3.98" style="fill:#c7c7c7"></rect><rect x="296.66" y="294.76" width="5.12" height="3.98" style="fill:#c7c7c7"></rect><rect x="296.66" y="303.26" width="5.12" height="3.98" style="fill:#c7c7c7"></rect><rect x="296.66" y="311.76" width="5.12" height="3.98" style="fill:#c7c7c7"></rect><rect x="296.66" y="320.27" width="5.12" height="3.98" style="fill:#c7c7c7"></rect><rect x="304" y="269.24" width="5.12" height="3.98" style="fill:#c7c7c7"></rect><rect x="304" y="277.75" width="5.12" height="3.98" style="fill:#c7c7c7"></rect><rect x="304" y="286.25" width="5.12" height="3.98" style="fill:#c7c7c7"></rect><rect x="304" y="294.76" width="5.12" height="3.98" style="fill:#c7c7c7"></rect><rect x="304" y="303.26" width="5.12" height="3.98" style="fill:#c7c7c7"></rect><rect x="304" y="311.76" width="5.12" height="3.98" style="fill:#c7c7c7"></rect><rect x="304" y="320.27" width="5.12" height="3.98" style="fill:#c7c7c7"></rect><rect x="313.67" y="263.62" width="20.3" height="64.98" style="fill:#a6a6a6"></rect><rect x="327.72" y="319.63" width="4.17" height="3.98" transform="translate(659.62 643.25) rotate(180)" style="fill:#c7c7c7"></rect><rect x="327.72" y="311.13" width="4.17" height="3.98" transform="translate(659.62 626.24) rotate(180)" style="fill:#c7c7c7"></rect><rect x="327.72" y="302.63" width="4.17" height="3.98" transform="translate(659.62 609.23) rotate(180)" style="fill:#c7c7c7"></rect><rect x="327.72" y="294.12" width="4.17" height="3.98" transform="translate(659.62 592.22) rotate(180)" style="fill:#c7c7c7"></rect><rect x="327.72" y="285.62" width="4.17" height="3.98" transform="translate(659.62 575.22) rotate(180)" style="fill:#c7c7c7"></rect><rect x="327.72" y="277.11" width="4.17" height="3.98" transform="translate(659.62 558.21) rotate(180)" style="fill:#c7c7c7"></rect><rect x="327.72" y="268.61" width="4.17" height="3.98" transform="translate(659.62 541.2) rotate(180)" style="fill:#c7c7c7"></rect><rect x="321.73" y="319.63" width="4.17" height="3.98" transform="translate(647.63 643.25) rotate(180)" style="fill:#c7c7c7"></rect><rect x="321.73" y="311.13" width="4.17" height="3.98" transform="translate(647.63 626.24) rotate(180)" style="fill:#c7c7c7"></rect><rect x="321.73" y="302.63" width="4.17" height="3.98" transform="translate(647.63 609.23) rotate(180)" style="fill:#c7c7c7"></rect><rect x="321.73" y="294.12" width="4.17" height="3.98" transform="translate(647.63 592.22) rotate(180)" style="fill:#c7c7c7"></rect><rect x="321.73" y="285.62" width="4.17" height="3.98" transform="translate(647.63 575.22) rotate(180)" style="fill:#c7c7c7"></rect><rect x="321.73" y="277.11" width="4.17" height="3.98" transform="translate(647.63 558.21) rotate(180)" style="fill:#c7c7c7"></rect><rect x="321.73" y="268.61" width="4.17" height="3.98" transform="translate(647.63 541.2) rotate(180)" style="fill:#c7c7c7"></rect><rect x="315.75" y="319.63" width="4.17" height="3.98" transform="translate(635.67 643.25) rotate(180)" style="fill:#c7c7c7"></rect><rect x="315.75" y="311.13" width="4.17" height="3.98" transform="translate(635.67 626.24) rotate(180)" style="fill:#c7c7c7"></rect><rect x="315.75" y="302.63" width="4.17" height="3.98" transform="translate(635.67 609.23) rotate(180)" style="fill:#c7c7c7"></rect><rect x="315.75" y="294.12" width="4.17" height="3.98" transform="translate(635.67 592.22) rotate(180)" style="fill:#c7c7c7"></rect><rect x="315.75" y="285.62" width="4.17" height="3.98" transform="translate(635.67 575.22) rotate(180)" style="fill:#c7c7c7"></rect><rect x="315.75" y="277.11" width="4.17" height="3.98" transform="translate(635.67 558.21) rotate(180)" style="fill:#c7c7c7"></rect><rect x="315.75" y="268.61" width="4.17" height="3.98" transform="translate(635.67 541.2) rotate(180)" style="fill:#c7c7c7"></rect><rect x="408.3" y="189.08" width="19.99" height="23.61" style="fill:#dbdbdb"></rect><rect x="428.29" y="189.08" width="12.67" height="24.47" style="fill:#c7c7c7"></rect><rect x="429.23" y="199.51" width="12.58" height="14.05" style="fill:#dbdbdb"></rect><rect x="441.8" y="199.51" width="7.84" height="14.05" style="fill:#c7c7c7"></rect><rect x="400.63" y="211.15" width="32.32" height="117.45" style="fill:#ebebeb"></rect><rect x="404.33" y="216.2" width="10.16" height="4.15" style="fill:#fff"></rect><rect x="417.33" y="216.2" width="10.16" height="4.15" style="fill:#fff"></rect><rect x="404.33" y="223.25" width="10.16" height="4.15" style="fill:#fff"></rect><rect x="417.33" y="223.25" width="10.16" height="4.15" style="fill:#fff"></rect><rect x="404.33" y="230.3" width="10.16" height="4.15" style="fill:#fff"></rect><rect x="417.33" y="230.3" width="10.16" height="4.15" style="fill:#fff"></rect><rect x="404.33" y="237.35" width="10.16" height="4.15" style="fill:#fff"></rect><rect x="417.33" y="237.35" width="10.16" height="4.15" style="fill:#fff"></rect><rect x="404.33" y="244.4" width="10.16" height="4.15" style="fill:#fff"></rect><rect x="417.33" y="244.4" width="10.16" height="4.15" style="fill:#fff"></rect><rect x="404.33" y="251.45" width="10.16" height="4.15" style="fill:#fff"></rect><rect x="417.33" y="251.45" width="10.16" height="4.15" style="fill:#fff"></rect><rect x="404.33" y="258.5" width="10.16" height="4.15" style="fill:#fff"></rect><rect x="417.33" y="258.5" width="10.16" height="4.15" style="fill:#fff"></rect><rect x="404.33" y="265.55" width="10.16" height="4.15" style="fill:#fff"></rect><rect x="417.33" y="265.55" width="10.16" height="4.15" style="fill:#fff"></rect><rect x="404.33" y="272.6" width="10.16" height="4.15" style="fill:#fff"></rect><rect x="417.33" y="272.6" width="10.16" height="4.15" style="fill:#fff"></rect><rect x="404.33" y="279.65" width="10.16" height="4.15" style="fill:#fff"></rect><rect x="417.33" y="279.65" width="10.16" height="4.15" style="fill:#fff"></rect><rect x="404.33" y="286.7" width="10.16" height="4.15" style="fill:#fff"></rect><rect x="417.33" y="286.7" width="10.16" height="4.15" style="fill:#fff"></rect><rect x="404.33" y="293.75" width="10.16" height="4.15" style="fill:#fff"></rect><rect x="417.33" y="293.75" width="10.16" height="4.15" style="fill:#fff"></rect><rect x="404.33" y="300.8" width="10.16" height="4.15" style="fill:#fff"></rect><rect x="417.33" y="300.8" width="10.16" height="4.15" style="fill:#fff"></rect><rect x="404.33" y="307.85" width="10.16" height="4.15" style="fill:#fff"></rect><rect x="417.33" y="307.85" width="10.16" height="4.15" style="fill:#fff"></rect><rect x="432.95" y="211.15" width="26.19" height="117.45" style="fill:#c7c7c7"></rect><rect x="448.17" y="307.85" width="8.34" height="4.15" transform="translate(904.68 619.85) rotate(180)" style="fill:#ebebeb"></rect><rect x="437.5" y="307.85" width="8.34" height="4.15" transform="translate(883.33 619.85) rotate(180)" style="fill:#ebebeb"></rect><rect x="448.17" y="300.8" width="8.34" height="4.15" transform="translate(904.68 605.75) rotate(180)" style="fill:#ebebeb"></rect><rect x="437.5" y="300.8" width="8.34" height="4.15" transform="translate(883.33 605.75) rotate(180)" style="fill:#ebebeb"></rect><rect x="448.17" y="293.75" width="8.34" height="4.15" transform="translate(904.68 591.65) rotate(180)" style="fill:#ebebeb"></rect><rect x="437.5" y="293.75" width="8.34" height="4.15" transform="translate(883.33 591.65) rotate(180)" style="fill:#ebebeb"></rect><rect x="448.17" y="286.7" width="8.34" height="4.15" transform="translate(904.68 577.55) rotate(180)" style="fill:#ebebeb"></rect><rect x="437.5" y="286.7" width="8.34" height="4.15" transform="translate(883.33 577.55) rotate(180)" style="fill:#ebebeb"></rect><rect x="448.17" y="279.65" width="8.34" height="4.15" transform="translate(904.68 563.45) rotate(180)" style="fill:#ebebeb"></rect><rect x="437.5" y="279.65" width="8.34" height="4.15" transform="translate(883.33 563.45) rotate(180)" style="fill:#ebebeb"></rect><rect x="448.17" y="272.6" width="8.34" height="4.15" transform="translate(904.68 549.35) rotate(180)" style="fill:#ebebeb"></rect><rect x="437.5" y="272.6" width="8.34" height="4.15" transform="translate(883.33 549.35) rotate(180)" style="fill:#ebebeb"></rect><rect x="448.17" y="265.55" width="8.34" height="4.15" transform="translate(904.68 535.25) rotate(180)" style="fill:#ebebeb"></rect><rect x="437.5" y="265.55" width="8.34" height="4.15" transform="translate(883.33 535.25) rotate(180)" style="fill:#ebebeb"></rect><rect x="448.17" y="258.5" width="8.34" height="4.15" transform="translate(904.68 521.16) rotate(180)" style="fill:#ebebeb"></rect><rect x="437.5" y="258.5" width="8.34" height="4.15" transform="translate(883.33 521.16) rotate(180)" style="fill:#ebebeb"></rect><rect x="448.17" y="251.45" width="8.34" height="4.15" transform="translate(904.68 507.06) rotate(180)" style="fill:#ebebeb"></rect><rect x="437.5" y="251.45" width="8.34" height="4.15" transform="translate(883.33 507.06) rotate(180)" style="fill:#ebebeb"></rect><rect x="448.17" y="244.4" width="8.34" height="4.15" transform="translate(904.68 492.96) rotate(180)" style="fill:#ebebeb"></rect><rect x="437.5" y="244.4" width="8.34" height="4.15" transform="translate(883.33 492.96) rotate(180)" style="fill:#ebebeb"></rect><rect x="448.17" y="237.35" width="8.34" height="4.15" transform="translate(904.68 478.86) rotate(180)" style="fill:#ebebeb"></rect><rect x="437.5" y="237.35" width="8.34" height="4.15" transform="translate(883.33 478.86) rotate(180)" style="fill:#ebebeb"></rect><rect x="448.17" y="230.3" width="8.34" height="4.15" transform="translate(904.68 464.76) rotate(180)" style="fill:#ebebeb"></rect><rect x="437.5" y="230.3" width="8.34" height="4.15" transform="translate(883.33 464.76) rotate(180)" style="fill:#ebebeb"></rect><rect x="448.17" y="223.25" width="8.34" height="4.15" transform="translate(904.68 450.66) rotate(180)" style="fill:#ebebeb"></rect><rect x="437.5" y="223.25" width="8.34" height="4.15" transform="translate(883.33 450.66) rotate(180)" style="fill:#ebebeb"></rect><rect x="448.17" y="216.2" width="8.34" height="4.15" transform="translate(904.68 436.56) rotate(180)" style="fill:#ebebeb"></rect><rect x="437.5" y="216.2" width="8.34" height="4.15" transform="translate(883.33 436.56) rotate(180)" style="fill:#ebebeb"></rect><rect x="137.19" y="252.07" width="38.12" height="76.53" style="fill:#c7c7c7"></rect><rect x="143.18" y="258.7" width="6.75" height="4.69" style="fill:#dbdbdb"></rect><rect x="143.18" y="268.71" width="6.75" height="4.69" style="fill:#dbdbdb"></rect><rect x="143.18" y="278.73" width="6.75" height="4.69" style="fill:#dbdbdb"></rect><rect x="143.18" y="288.74" width="6.75" height="4.69" style="fill:#dbdbdb"></rect><rect x="143.18" y="298.76" width="6.75" height="4.69" style="fill:#dbdbdb"></rect><rect x="143.18" y="308.77" width="6.75" height="4.69" style="fill:#dbdbdb"></rect><rect x="143.18" y="318.79" width="6.75" height="4.69" style="fill:#dbdbdb"></rect><rect x="152.89" y="258.7" width="6.75" height="4.69" style="fill:#dbdbdb"></rect><rect x="152.89" y="268.71" width="6.75" height="4.69" style="fill:#dbdbdb"></rect><rect x="152.89" y="278.73" width="6.75" height="4.69" style="fill:#dbdbdb"></rect><rect x="152.89" y="288.74" width="6.75" height="4.69" style="fill:#dbdbdb"></rect><rect x="152.89" y="298.76" width="6.75" height="4.69" style="fill:#dbdbdb"></rect><rect x="152.89" y="308.77" width="6.75" height="4.69" style="fill:#dbdbdb"></rect><rect x="152.89" y="318.79" width="6.75" height="4.69" style="fill:#dbdbdb"></rect><rect x="162.57" y="258.7" width="6.75" height="4.69" style="fill:#dbdbdb"></rect><rect x="162.57" y="268.71" width="6.75" height="4.69" style="fill:#dbdbdb"></rect><rect x="162.57" y="278.73" width="6.75" height="4.69" style="fill:#dbdbdb"></rect><rect x="162.57" y="288.74" width="6.75" height="4.69" style="fill:#dbdbdb"></rect><rect x="162.57" y="298.76" width="6.75" height="4.69" style="fill:#dbdbdb"></rect><rect x="162.57" y="308.77" width="6.75" height="4.69" style="fill:#dbdbdb"></rect><rect x="162.57" y="318.79" width="6.75" height="4.69" style="fill:#dbdbdb"></rect><rect x="149.93" y="244.1" width="25.38" height="7.97" style="fill:#dbdbdb"></rect><rect x="159.22" y="239.16" width="16.09" height="4.94" style="fill:#ebebeb"></rect><rect x="175.31" y="252.07" width="26.74" height="76.53" style="fill:#a6a6a6"></rect><rect x="193.82" y="318.04" width="5.49" height="4.69" transform="translate(393.13 640.77) rotate(180)" style="fill:#c7c7c7"></rect><rect x="193.82" y="308.02" width="5.49" height="4.69" transform="translate(393.13 620.74) rotate(180)" style="fill:#c7c7c7"></rect><rect x="193.82" y="298.01" width="5.49" height="4.69" transform="translate(393.13 600.71) rotate(180)" style="fill:#c7c7c7"></rect><rect x="193.82" y="287.99" width="5.49" height="4.69" transform="translate(393.13 580.68) rotate(180)" style="fill:#c7c7c7"></rect><rect x="193.82" y="277.98" width="5.49" height="4.69" transform="translate(393.13 560.65) rotate(180)" style="fill:#c7c7c7"></rect><rect x="193.82" y="267.96" width="5.49" height="4.69" transform="translate(393.13 540.62) rotate(180)" style="fill:#c7c7c7"></rect><rect x="193.82" y="257.95" width="5.49" height="4.69" transform="translate(393.13 520.59) rotate(180)" style="fill:#c7c7c7"></rect><rect x="185.92" y="318.04" width="5.49" height="4.69" transform="translate(377.33 640.77) rotate(180)" style="fill:#c7c7c7"></rect><rect x="185.92" y="308.02" width="5.49" height="4.69" transform="translate(377.33 620.74) rotate(180)" style="fill:#c7c7c7"></rect><rect x="185.92" y="298.01" width="5.49" height="4.69" transform="translate(377.33 600.71) rotate(180)" style="fill:#c7c7c7"></rect><rect x="185.92" y="287.99" width="5.49" height="4.69" transform="translate(377.33 580.68) rotate(180)" style="fill:#c7c7c7"></rect><rect x="185.92" y="277.98" width="5.49" height="4.69" transform="translate(377.33 560.65) rotate(180)" style="fill:#c7c7c7"></rect><rect x="185.92" y="267.96" width="5.49" height="4.69" transform="translate(377.33 540.62) rotate(180)" style="fill:#c7c7c7"></rect><rect x="185.92" y="257.95" width="5.49" height="4.69" transform="translate(377.33 520.59) rotate(180)" style="fill:#c7c7c7"></rect><rect x="178.04" y="318.04" width="5.49" height="4.69" transform="translate(361.58 640.77) rotate(180)" style="fill:#c7c7c7"></rect><rect x="178.04" y="308.02" width="5.49" height="4.69" transform="translate(361.58 620.74) rotate(180)" style="fill:#c7c7c7"></rect><rect x="178.04" y="298.01" width="5.49" height="4.69" transform="translate(361.58 600.71) rotate(180)" style="fill:#c7c7c7"></rect><rect x="178.04" y="287.99" width="5.49" height="4.69" transform="translate(361.58 580.68) rotate(180)" style="fill:#c7c7c7"></rect><rect x="178.04" y="277.98" width="5.49" height="4.69" transform="translate(361.58 560.65) rotate(180)" style="fill:#c7c7c7"></rect><rect x="178.04" y="267.96" width="5.49" height="4.69" transform="translate(361.58 540.62) rotate(180)" style="fill:#c7c7c7"></rect><rect x="178.04" y="257.95" width="5.49" height="4.69" transform="translate(361.58 520.59) rotate(180)" style="fill:#c7c7c7"></rect><rect x="175.31" y="244.1" width="22.69" height="7.97" style="fill:#c7c7c7"></rect><rect x="175.31" y="239.16" width="12.3" height="4.94" style="fill:#dbdbdb"></rect></g><g id="freepik--Shadow--inject-819"><ellipse cx="250" cy="444.62" rx="131.95" ry="15.51" style="fill:#ebebeb"></ellipse></g><g id="freepik--Plants--inject-819"><path d="M140.93,328.6h-57s.13-8.48,5.73-10.73A7.65,7.65,0,0,1,98.61,320s2.28-15.59,12.72-15.59,15.44,13.45,15.44,13.45,2.34-4.07,8.13-3.31S140.93,328.6,140.93,328.6Z" style="fill:#455a64"></path><path d="M458.4,328.6s-1.75-8.15-5.24-9.4-5.61,2.4-5.61,2.4-.82-7.79-5.77-10.12-8.66,2.44-8.66,2.44-3.8-9.88-10.58-9.88-10.2,14.46-10.2,14.46-4-4.31-8.11-1.88-4.1,12-4.1,12Z" style="fill:#37474f"></path><path d="M94.15,328.6H41.6s1.73-7.4,5.22-7.93,5.1,2.91,5.1,2.91-.16-10.33,6.35-12.09,12,7.37,12,7.37,4.08-5.21,9.64-4.87,7,8.93,7,8.93S91.92,319.93,94.15,328.6Z" style="fill:#37474f"></path><path d="M403.9,328.6H371.61s.07-4.8,3.25-6.08a4.33,4.33,0,0,1,5.06,1.22s1.29-8.84,7.21-8.84,8.74,7.62,8.74,7.62a4.54,4.54,0,0,1,4.61-1.87C403.77,321.08,403.9,328.6,403.9,328.6Z" style="fill:#455a64"></path></g><g id="freepik--Floor--inject-819"><rect x="34.18" y="328.6" width="431.64" height="8.59" style="fill:#a6a6a6"></rect><path d="M56.39,328.6a18.7,18.7,0,0,1,0,8.59,18.7,18.7,0,0,1,0-8.59Z" style="fill:#263238"></path><path d="M82.2,328.6a18.7,18.7,0,0,1,0,8.59,18.7,18.7,0,0,1,0-8.59Z" style="fill:#263238"></path><path d="M108,328.6a18.7,18.7,0,0,1,0,8.59,18.7,18.7,0,0,1,0-8.59Z" style="fill:#263238"></path><path d="M133.83,328.6a18.7,18.7,0,0,1,0,8.59,18.7,18.7,0,0,1,0-8.59Z" style="fill:#263238"></path><path d="M159.65,328.6a18.7,18.7,0,0,1,0,8.59,18.7,18.7,0,0,1,0-8.59Z" style="fill:#263238"></path><path d="M185.46,328.6a18.7,18.7,0,0,1,0,8.59,18.7,18.7,0,0,1,0-8.59Z" style="fill:#263238"></path><path d="M211.28,328.6a18.7,18.7,0,0,1,0,8.59,18.7,18.7,0,0,1,0-8.59Z" style="fill:#263238"></path><path d="M237.09,328.6a18.7,18.7,0,0,1,0,8.59,18.7,18.7,0,0,1,0-8.59Z" style="fill:#263238"></path><path d="M262.91,328.6a18.7,18.7,0,0,1,0,8.59,18.7,18.7,0,0,1,0-8.59Z" style="fill:#263238"></path><path d="M288.72,328.6a18.7,18.7,0,0,1,0,8.59,18.7,18.7,0,0,1,0-8.59Z" style="fill:#263238"></path><path d="M314.54,328.6a18.7,18.7,0,0,1,0,8.59,18.7,18.7,0,0,1,0-8.59Z" style="fill:#263238"></path><path d="M340.35,328.6a18.7,18.7,0,0,1,0,8.59,18.7,18.7,0,0,1,0-8.59Z" style="fill:#263238"></path><path d="M366.17,328.6a18.7,18.7,0,0,1,0,8.59,18.7,18.7,0,0,1,0-8.59Z" style="fill:#263238"></path><path d="M392,328.6a18.7,18.7,0,0,1,0,8.59,18.7,18.7,0,0,1,0-8.59Z" style="fill:#263238"></path><path d="M417.8,328.6a18.7,18.7,0,0,1,0,8.59,18.7,18.7,0,0,1,0-8.59Z" style="fill:#263238"></path><path d="M443.61,328.6a18.7,18.7,0,0,1,0,8.59,18.7,18.7,0,0,1,0-8.59Z" style="fill:#263238"></path><polygon points="33.36 337.19 87.52 336.95 141.68 336.86 250 336.7 358.32 336.86 412.48 336.95 466.64 337.19 412.48 337.44 358.32 337.53 250 337.69 141.68 337.53 87.52 337.44 33.36 337.19" style="fill:#263238"></polygon></g><g id="freepik--Character--inject-819"><path d="M332.68,424.37c-2.43,0-65.08-20.33-67-22.63-.73-.85,24-54.4,24-54.4L329,361.65,311.67,394s19.93,18,21.75,20.75S335.1,424.35,332.68,424.37Z" style="fill:#eb9481"></path><path d="M332.68,424.36c-2.43,0-65.08-20.32-67-22.61-.35-.42,5.38-13.48,11.16-26.3l37.73,13L311.67,394s19.93,18,21.74,20.75S335.1,424.35,332.68,424.36Z" style="fill:#ebebeb"></path><path d="M333,424.42c-2.42,0-65.71-20-67.6-22.29-.73-.86,3.86-10.71,8.16-21.07l38.72,12.82s19.64,18.19,21.45,20.91S335.37,424.4,333,424.42Z" style="fill:#ECEFF1"></path><path d="M332.87,421.63c-10.37-3.65-52.56-17.39-63.09-20.21-.08,0-.1,0,0,.06,10.2,3.85,52.5,17.25,63.06,20.32C333,421.87,333.09,421.71,332.87,421.63Z" style="fill:#263238"></path><path d="M330.4,411.24a8.83,8.83,0,0,0-7.08.53,8.53,8.53,0,0,0-4.15,4.82c0,.06.09.1.12,0a10.22,10.22,0,0,1,11.07-5.26A.07.07,0,0,0,330.4,411.24Z" style="fill:#263238"></path><path d="M315.18,396c-4.17-1.41-9.5-1.51-13.21,1.07-.14.1,0,.3.15.28a61.15,61.15,0,0,1,13-.81A.28.28,0,0,0,315.18,396Z" style="fill:#263238"></path><path d="M318,398.3c-4.16-1.41-9.5-1.51-13.21,1.07-.14.1,0,.3.15.28a60.5,60.5,0,0,1,13-.81A.28.28,0,0,0,318,398.3Z" style="fill:#263238"></path><path d="M320.83,400.61c-4.17-1.42-9.5-1.51-13.22,1.06-.14.1,0,.31.15.28a61.23,61.23,0,0,1,13-.8A.28.28,0,0,0,320.83,400.61Z" style="fill:#263238"></path><path d="M323.65,402.92c-4.17-1.42-9.5-1.52-13.21,1.06-.15.1,0,.31.14.28a60.57,60.57,0,0,1,13-.8A.28.28,0,0,0,323.65,402.92Z" style="fill:#263238"></path><path d="M275.67,392.35c-4.7-1.51-7.06,5.79-2.35,7.31S280.38,393.86,275.67,392.35Z" style="fill:#263238"></path><path d="M323.33,386.3c-1.55-2.45-4.78-1.6-6.67-.2a23.06,23.06,0,0,0-6.2,7.21,13.23,13.23,0,0,0-.62,1.17c-.07.18-.16.35-.24.51s0,0,0,0l-.05.14c-.06.15-.12.28-.18.42a.11.11,0,0,0,.11.15.55.55,0,0,0,.29.54.43.43,0,0,0,.34.05c1-.3,2.05-.58,3.1-.87a5.18,5.18,0,0,0,.53-.14,23.93,23.93,0,0,0,7.27-3C322.88,391,324.79,388.61,323.33,386.3Zm-8,7.22c-.86.28-1.73.54-2.58.81l-2.19.71-.29.11-.28.1.16-.23,0,0c.37-.49.74-1,1.09-1.44a42.66,42.66,0,0,1,3.1-3.76,26.86,26.86,0,0,1,2.44-2.33c1.36-1.08,6.61-3.24,5.54,1.45C321.73,391.5,317.43,392.83,315.31,393.52Z" style="fill:#263238"></path><path d="M310.36,395.62a.13.13,0,0,0,.07-.18,2.45,2.45,0,0,0-.18-.29.26.26,0,0,0-.07-.13s0,0,0,0a2.65,2.65,0,0,0-.31-.52,16.45,16.45,0,0,0-1.3-1.8A23.06,23.06,0,0,0,302,387c-2.06-1.15-5.37-1.56-6.58,1.06a1.45,1.45,0,0,0-.11.29c-.87,2.36,1.26,4.41,3.2,5.39a22.3,22.3,0,0,0,6.58,1.86c1.57.23,3.17.41,4.71.65h0C310.19,396.34,310.41,395.94,310.36,395.62Zm-6.07-1.43c-2.2-.4-6.65-1.16-7.57-3.65a3.56,3.56,0,0,1-.28-1.8c.35-2.23,4.34-1.09,5.58-.34a25.05,25.05,0,0,1,2.74,2c.66.53,1.28,1.1,1.9,1.69,1,.95,1.95,1.95,2.94,2.92v0c.06.07.13.12.19.18l-.25,0a6.4,6.4,0,0,0-.63-.14C307.38,394.71,305.83,394.48,304.29,394.19Z" style="fill:#263238"></path><path d="M322.15,374.64l-38.64-14s37.75-84.53,35.84-87.71c-2.49-4.16-49.88-25.15-63.73-40.23-18.22-19.84-8.27-44.14-8.27-44.14l36.43,0s4.86,13.12,5.84,14.71c4,6.4,74.54,36.81,78.3,53.78C373.83,283.75,322.15,374.64,322.15,374.64Z" style="fill:#eb9481"></path><path d="M293.51,262.85l35.59-37.17s-36.66-19.44-38.57-22.8-6.75-14.29-6.75-14.29l-36.43,0s-8,18-.22,35.05S293.51,262.85,293.51,262.85Z" style="fill:#263238"></path><path d="M298.58,247.5q3.1,1.77,6.24,3.53L302,254c-1.79-1-3.57-2.07-5.36-3.11-7.82-4.65-15.66-9.32-23.18-14.55a103.66,103.66,0,0,1-10.93-8.49c-.84-.81-1.68-1.63-2.47-2.53-.4-.45-.77-.94-1.12-1.41a16.25,16.25,0,0,1-1-1.44,34.14,34.14,0,0,1-3.31-6.19,46.27,46.27,0,0,1-3.12-13.49,55.31,55.31,0,0,1,.55-13.67,53.26,53.26,0,0,0-.08,6.8,63,63,0,0,0,.68,6.74,45.54,45.54,0,0,0,3.84,12.78,33.39,33.39,0,0,0,3.38,5.65c.32.45.67.88,1,1.29s.69.83,1.07,1.21c.74.77,1.57,1.51,2.4,2.22a110.47,110.47,0,0,0,10.91,7.82C282.84,238.5,290.67,243.06,298.58,247.5Z" style="fill:#455a64"></path><path d="M328.57,269.87a1.7,1.7,0,0,0,0-.22c0-.09,0-.09,0-.15h0a.46.46,0,0,0,0,.1l.06.21.05.1.07.13v0Z" style="fill:#455a64"></path><path d="M170.14,440.88c-1,0-17.95.83-19.41-.48-14.74-13.2-35.46-47.88-35.88-49.63-.28-1.09,15.3-13.92,15.38-14,1.61-1.77,32.12-29.21,32.12-29.21l30.38,30.63L161.13,406l-.51.5a109.1,109.1,0,0,0,4.31,18.81c.43,1.25,5.9,6.62,6.27,7.65C172.41,436.34,171.47,440.88,170.14,440.88Z" style="fill:#eb9481"></path><path d="M170.15,440.88c-1,0-18,.83-19.42-.48-14.74-13.2-35.46-47.88-35.89-49.63-.28-1.09,15.31-13.92,15.39-14,.4-.43,2.55-2.43,5.58-5.2L165.64,402l-4.51,4-.52.5a110.76,110.76,0,0,0,4.32,18.81c.43,1.25,5.9,6.62,6.26,7.66C172.41,436.33,171.47,440.88,170.15,440.88Z" style="fill:#ebebeb"></path><path d="M170.8,441.14c-.55.37-19.25.52-20.48-.6-11.8-10.66-36.26-48-36.51-50.16-.15-1.12,8.21-8.68,17.45-15l29.6,31.17s1.83,12.23,4.2,18.78c.54,1.49,5.92,6.4,6.4,7.49C173,436.12,171.59,440.61,170.8,441.14Z" style="fill:#ECEFF1"></path><path d="M169.39,431.36a11.23,11.23,0,0,0-8.53-1.56,9.6,9.6,0,0,0-6.12,4.22c0,.07.09.15.14.09,3.25-3.85,9.64-5.08,14.43-2.62A.08.08,0,1,0,169.39,431.36Z" style="fill:#263238"></path><path d="M130,387.24c-3.13-3.82-9.07,1-5.93,4.87S133.1,391.07,130,387.24Z" style="fill:#263238"></path><path d="M174.07,407.19c.12-2.9-3-4-5.37-4a23.25,23.25,0,0,0-9.21,2.38c-.41.19-.8.4-1.18.61-.16.11-.33.2-.48.29h0l-.12.09-.39.24a.12.12,0,0,0,0,.19.54.54,0,0,0-.07.61.41.41,0,0,0,.25.23c1,.33,2,.69,3,1.05a4.6,4.6,0,0,0,.52.19,23.93,23.93,0,0,0,7.68,1.7C171,410.83,174,409.92,174.07,407.19Zm-10.71,1.35-2.59-.8c-.74-.24-1.46-.45-2.2-.67l-.3-.08-.29-.07.27-.1h0c.58-.19,1.15-.37,1.72-.57a43.8,43.8,0,0,1,4.68-1.31,23.52,23.52,0,0,1,3.33-.52c1.73-.12,7.28,1.1,3.73,4.34C169.79,410.55,165.49,409.18,163.36,408.54Z" style="fill:#263238"></path><path d="M158.09,407.44a.12.12,0,0,0,.16-.1,2.18,2.18,0,0,0,0-.35.23.23,0,0,0,0-.14s0,0,0,0a2.55,2.55,0,0,0,0-.61,14.83,14.83,0,0,0,0-2.21,23,23,0,0,0-2.17-8.41c-1-2.12-3.52-4.35-6-2.89a2.27,2.27,0,0,0-.25.18c-2.06,1.44-1.48,4.34-.45,6.25a22.16,22.16,0,0,0,4.35,5.28c1.16,1.09,2.36,2.15,3.49,3.23l0,0A.52.52,0,0,0,158.09,407.44Zm-4.17-4.63c-1.57-1.59-4.79-4.75-4.14-7.32a3.67,3.67,0,0,1,.8-1.64c1.56-1.63,4.19,1.58,4.78,2.91a23.5,23.5,0,0,1,1.12,3.18c.24.82.43,1.64.59,2.48.29,1.35.5,2.71.76,4.08v0c0,.08,0,.17.05.26a1.45,1.45,0,0,0-.17-.18c-.15-.17-.28-.32-.44-.48C156.17,405,155,403.92,153.92,402.81Z" style="fill:#263238"></path><path d="M162.6,411.52c-2.61-3.54-6.93-6.66-11.45-6.66-.18,0-.18.25,0,.31a60.84,60.84,0,0,1,11.11,6.74A.28.28,0,0,0,162.6,411.52Z" style="fill:#263238"></path><path d="M163.61,415c-2.62-3.54-6.94-6.66-11.46-6.66-.18,0-.17.25,0,.31a60.29,60.29,0,0,1,11.11,6.74A.28.28,0,0,0,163.61,415Z" style="fill:#263238"></path><path d="M164.61,418.53c-2.62-3.54-6.94-6.66-11.46-6.66-.18,0-.17.25,0,.31a61.41,61.41,0,0,1,11.11,6.74A.28.28,0,0,0,164.61,418.53Z" style="fill:#263238"></path><path d="M165.61,422c-2.62-3.54-6.94-6.66-11.46-6.66-.17,0-.17.25,0,.31a60.84,60.84,0,0,1,11.11,6.74A.28.28,0,0,0,165.61,422Z" style="fill:#263238"></path><path d="M171,438.58c-5.14-.68-10.39-.57-15.54-1.08l-1.81-.17a2.72,2.72,0,0,1-1.8-.55,29.87,29.87,0,0,1-2.31-2.94q-2.31-3-4.61-6-9.24-12.17-18.17-24.55c-1.69-2.33-3.4-4.64-5.09-7s-3.54-4.55-5.24-6.87c-.06-.09-.2,0-.14.08,1.43,2.19,2.73,4.47,4.2,6.63s3,4.32,4.46,6.46q4.52,6.36,9.13,12.63t9.35,12.48q2.38,3.12,4.8,6.23c.77,1,1.54,2,2.33,3a3.16,3.16,0,0,0,2.37,1.39c6,.57,12,.43,18,.72C171.16,439,171.21,438.61,171,438.58Z" style="fill:#263238"></path><path d="M282,188.59s3.6,30.8-2.76,37.81c0,0-21.06,75.51-27.15,92.17-9.44,25.82-69.81,68.73-69.81,68.73l-30.25-30.47s55.09-49.57,55.31-51.33c1.28-10,23.42-72.79,22.8-74.49-7-19.42,4.34-42.42,4.34-42.42Z" style="fill:#eb9481"></path><path d="M216,264.12l53.31,7,9.94-44.7s7.84-8.07,6.94-38h-51.7s-12.07,22.35-8.16,40.06Z" style="fill:#263238"></path><path d="M239.17,211.28a70.61,70.61,0,0,0,.1,11.36c.09.94.17,1.88.34,2.79l.21,1.4.28,1.37a33.79,33.79,0,0,0,1.47,5.27l.2.49-.14.51q-2.53,9.59-5.22,19.1c-1.21,4.25-2.42,8.5-3.66,12.75l-4-.53,9.8-31.74a36.74,36.74,0,0,1-1.25-5.34l-.21-1.47-.15-1.47c-.12-1-.15-2-.2-3a65.45,65.45,0,0,1,.56-11.72c.32-1.94.6-3.87,1.06-5.76s.93-3.78,1.46-5.64c.25-.94.57-1.86.9-2.77l.95-2.74c.71-1.8,1.49-3.58,2.22-5.35-.55,1.85-1.15,3.68-1.68,5.52s-1,3.71-1.37,5.6-.77,3.75-1,5.65S239.35,209.38,239.17,211.28Z" style="fill:#455a64"></path><path d="M279.26,226.79a36.57,36.57,0,0,0-1.64,5.65c-.48,1.94-.93,3.88-1.38,5.82-.9,3.94-1.84,7.86-2.47,11.85a.09.09,0,0,0,.18,0c1.23-3.85,2.16-7.79,3.12-11.71.48-1.94.95-3.88,1.39-5.82a39.2,39.2,0,0,0,1.07-5.78C279.54,226.7,279.31,226.66,279.26,226.79Z" style="fill:#455a64"></path><path d="M287.89,221a68.24,68.24,0,0,0-9.87,5.95c-3.3,2.36-6.2,5.18-9.29,7.8-.09.08,0,.23.1.16,3.26-2.3,6.61-4.42,9.76-6.87s6.13-4.74,9.38-6.89C288,221.06,288,220.91,287.89,221Z" style="fill:#455a64"></path><path d="M279.43,142.81c15.08,21.54,32.26,38.94,40.3,38.61,10.82-.43,33.13-12.93,44.11-20.49,3.23-2.22-14.56-27-18-24.62-4.17,2.87-25.52,18-26,18.18-1,.32-25.44-17.38-31.56-21.25C278.06,126.8,272.74,133.25,279.43,142.81Z" style="fill:#eb9481"></path><path d="M379.75,148.75c-3.84,5.26-15.89,13-19.52,13.71s-17.4-19.33-16.24-22.94,15.45-20.35,21.86-22.09S383.72,143.29,379.75,148.75Z" style="fill:#eb9481"></path><path d="M356.52,122.1c-.29,3.44,3.93,1.82,3.93,1.82s-5.51,3.79-4.45,7.46,6.07,1.39,6.44,1.24c-.29.2-5.27,3.82-3.82,7.4s6.2.69,6.5.5c-.22.27-3,4-1.26,6.46,3,4.23,10.28-5.1,14.45-5.43,0,0,1.35,7,1.44,7.2,0,0,7.14-8.74,6.39-14.33a3.6,3.6,0,0,0-3.22-3.16s2.61-2.56,1.56-5.41c-.55-1.46-3.37-1.89-3.37-1.89s2-2.14.92-4.61c-.87-2-3.57-2.1-3.57-2.1s1-3-.56-4.68C374.79,109.07,357.16,114.73,356.52,122.1Z" style="fill:#eb9481"></path><path d="M378,117.16c.06,0,0-.1,0-.09A32.12,32.12,0,0,0,360.21,124c-.15.13,0,.45.2.33A66,66,0,0,1,378,117.16Z" style="fill:#263238"></path><path d="M381.19,123.9c.07,0,0-.14,0-.13-6.44.5-14,3.42-19,8.75-.17.18-.14.52.07.32C365.87,129.55,375.35,125.23,381.19,123.9Z" style="fill:#263238"></path><path d="M364.89,141c5-4.93,11.1-7.75,17.76-9.75.09,0,0-.15,0-.14-3.53.09-7.64,1.81-10.73,3.41a18.54,18.54,0,0,0-7.16,6.3C364.65,140.94,364.79,141.11,364.89,141Z" style="fill:#263238"></path><path d="M360.45,123.92a20.63,20.63,0,0,0-2.72,2.73,7.08,7.08,0,0,0-1.67,3.29,2.32,2.32,0,0,0,.36,1.63,3.34,3.34,0,0,0,1.29,1.13,4.12,4.12,0,0,0,3.35-.13l2.59-1.14-2,2a11.5,11.5,0,0,0-2.26,3,4.15,4.15,0,0,0-.41,3.37,2.38,2.38,0,0,0,2.5,1.62,7.11,7.11,0,0,0,3.33-1.31l2.78-1.89-2,2.68a11,11,0,0,0-1.37,2.41,4.59,4.59,0,0,0-.35,2.57,2.13,2.13,0,0,0,1.55,1.63A4.74,4.74,0,0,0,368,147a38,38,0,0,0,5-2.89c.83-.52,1.66-1,2.52-1.54a7.24,7.24,0,0,1,2.76-1,7.48,7.48,0,0,0-2.61,1.28c-.81.54-1.6,1.13-2.39,1.71a31.41,31.41,0,0,1-5,3.22,5.6,5.6,0,0,1-3.1.64,3,3,0,0,1-2.37-2.32,5.44,5.44,0,0,1,.35-3.19,12,12,0,0,1,1.48-2.72l.78.8a8.2,8.2,0,0,1-3.93,1.59,3.42,3.42,0,0,1-2.25-.57,3.93,3.93,0,0,1-1.38-1.83,5.24,5.24,0,0,1,.51-4.26,13,13,0,0,1,2.54-3.25l.56.83a4.94,4.94,0,0,1-4.17-.06,4.15,4.15,0,0,1-1.52-1.48,3,3,0,0,1-.36-2.09,7.27,7.27,0,0,1,2-3.43A17.33,17.33,0,0,1,360.45,123.92Z" style="fill:#263238"></path><path d="M345.92,136.24s6.16-26.94,15.52-19.37c2.77,2.25,11.5,14.8,9,16.6-3.21,2.33-7.83-2.23-10.27-5.56,0,0-.81,9.46-7.56,10.87A6.86,6.86,0,0,1,345.92,136.24Z" style="fill:#eb9481"></path><path d="M360.62,116.29a14.66,14.66,0,0,1,3.2,2.74,31,31,0,0,1,2.64,3.3,48,48,0,0,1,4.33,7.29,7.88,7.88,0,0,1,.67,2.14,2.81,2.81,0,0,1-.08,1.28,1.94,1.94,0,0,1-.3.64,2.37,2.37,0,0,1-.5.5,3.6,3.6,0,0,1-2.39.62,6.83,6.83,0,0,1-2.21-.66,12.84,12.84,0,0,1-3.47-2.65,30.43,30.43,0,0,1-2.73-3.28l.88-.26a16.62,16.62,0,0,1-.69,3.16,15.18,15.18,0,0,1-1.27,3,10.82,10.82,0,0,1-2,2.53,8.43,8.43,0,0,1-2.67,1.72,9.39,9.39,0,0,0,2.42-1.95,11.46,11.46,0,0,0,1.67-2.59,14.68,14.68,0,0,0,1.05-2.89,16.57,16.57,0,0,0,.49-3l.07-1.25.81,1a29.73,29.73,0,0,0,2.73,3.08,12.34,12.34,0,0,0,3.19,2.39c1.14.55,2.53.79,3.39.15s.4-2-.11-3.19a41.06,41.06,0,0,0-1.84-3.7c-.66-1.22-1.34-2.44-2.08-3.61A26.92,26.92,0,0,0,360.62,116.29Z" style="fill:#263238"></path><path d="M319.87,181.41h-.14c-8,.32-25.22-17.07-40.29-38.61-4.91-7-3.37-12.34,1.82-12.16Z" style="fill:#263238"></path><path d="M223.71,212.09c.14.21,69.55-6.26,70.33-6.89,1.09-.9,3.71-53.08-5.51-70.6-2.31-4.37-15.84-9.78-23.92-2.82C237.86,154.8,223.23,211.31,223.71,212.09Z" style="fill:#ECEFF1"></path><path d="M295.22,186c-.72.37-1.45.72-2.2,1a23.3,23.3,0,0,1-6.07,1.68,24.9,24.9,0,0,1-6.28,0,20.18,20.18,0,0,1-6.05-1.73,23.85,23.85,0,0,1-5.28-3.41c-.45-.38-.9-.77-1.32-1.18a2,2,0,0,1-.26-.25,64.59,64.59,0,0,1-6.73-8c-1.27-1.66-2.51-3.33-3.84-4.93a34.8,34.8,0,0,0-2.73-3l-.27-.26c-.45-.42-.92-.81-1.4-1.19a12.85,12.85,0,0,0-5.55-2.6l-.77-.14-.77-.06-.39,0-1.16,0c-.61,0-1.2,0-1.8.08l.12-.22c.56,0,1.12-.07,1.67-.09l.79,0h.39l.4,0,.78.08c.27,0,.52.08.78.13a13,13,0,0,1,5.67,2.64,19.12,19.12,0,0,1,1.46,1.24l.27.25a36,36,0,0,1,2.71,2.94c1.35,1.6,2.6,3.28,3.86,4.94a63.41,63.41,0,0,0,6.82,8c.08.09.18.17.27.26.39.36.79.71,1.2,1.06,6.25,5.57,15.75,6.74,23.33,3.38.81-.34,1.59-.73,2.35-1.13Zm-3.69-16.22-.36,0-.5.08a23.56,23.56,0,0,0-6,1.87c-3.83,1.77-7.1,4.45-10.52,6.81a35.25,35.25,0,0,1-5.38,3.13l-.69.29-.31.13a21.15,21.15,0,0,1-4.94,1.29,21.48,21.48,0,0,1-6.2-.11l-.77-.1c-.26,0-.5-.12-.75-.17-.51-.12-1-.23-1.51-.37l-1.47-.51a5,5,0,0,1-.72-.31l-.7-.31c-3.78-1.77-6.87-4.69-10.54-6.73a30.48,30.48,0,0,0-2.79-1.42l-.05,0-.35-.13a.52.52,0,0,0-.06.13.15.15,0,0,0,0,.09l.39.15A30.17,30.17,0,0,1,240,175c3.63,2,6.71,5,10.53,6.77l.72.33a7.44,7.44,0,0,0,.72.31l1.49.52c.5.14,1,.25,1.52.38.27.05.51.13.78.16l.78.11A21.07,21.07,0,0,0,268,182.34l.32-.12.56-.24a36.36,36.36,0,0,0,5.44-3.16c3.45-2.35,6.7-5,10.49-6.74a22.24,22.24,0,0,1,6.63-2l.36,0a23.06,23.06,0,0,1,3.11-.15v-.34A22.64,22.64,0,0,0,291.53,169.74Zm2.73,3.31c-.8-1-1.6-2-2.44-3a4.28,4.28,0,0,0-.29-.33,42.35,42.35,0,0,0-5.87-5.8,23.34,23.34,0,0,0-5.38-3.24,20.05,20.05,0,0,0-6.1-1.54,25.47,25.47,0,0,0-6.29.16,23.66,23.66,0,0,0-6,1.88,44.55,44.55,0,0,0-7.48,4.65l-.22.14c-.94.68-1.88,1.36-2.82,2a34.9,34.9,0,0,1-5.38,3.13,20.85,20.85,0,0,1-6,1.72,23.21,23.21,0,0,1-3,.17l-.07.18a.52.52,0,0,0-.06.13h.41a23.11,23.11,0,0,0,2.76-.17,21.26,21.26,0,0,0,6-1.72,36.81,36.81,0,0,0,5.44-3.15c1-.67,1.93-1.36,2.89-2l.22-.15a45.17,45.17,0,0,1,7.37-4.56c7.46-3.59,17-2.72,23.42,2.65a40.7,40.7,0,0,1,5.7,5.59,4.28,4.28,0,0,1,.29.33c.88,1,1.73,2.07,2.58,3.11l1.06,1.32a3.69,3.69,0,0,0,0-.47Zm-4.81-33.63-.27.08c-.63.18-1.26.38-1.89.55a36.32,36.32,0,0,1-6.09,1.23c-.57.05-1.13.09-1.71.1h-.34A21.18,21.18,0,0,1,275,141a21.64,21.64,0,0,1-5.83-2.1l-.7-.35c-.22-.12-.44-.27-.66-.41-.43-.27-.88-.54-1.31-.84l-1.23-.95a5.57,5.57,0,0,1-.58-.51l-.56-.54c-.43-.41-.84-.85-1.24-1.28l-.11-.15a1.5,1.5,0,0,1-.2-.24,2,2,0,0,0-.21.2l.07.08a.85.85,0,0,0,.11.14,18.94,18.94,0,0,0,1.38,1.46l.57.54a6,6,0,0,0,.59.53l1.24,1c.43.3.88.57,1.33.86.22.13.43.29.66.41l.71.35a21.35,21.35,0,0,0,5.91,2.14,20,20,0,0,0,4.36.42h.35c.53,0,1,0,1.56-.09a35.74,35.74,0,0,0,6.16-1.23c.66-.18,1.33-.38,2-.58l.25-.07c.29-.09.59-.19.89-.27,0-.1-.07-.22-.11-.33Zm-8.16,4.87c-.59-.84-1.11-1.7-1.62-2.59-.06-.1-.11-.21-.18-.32a74.74,74.74,0,0,1-3.75-8.25l-.06-.14a1.43,1.43,0,0,1-.08-.22c-.59-1.44-1.16-2.89-1.78-4.32h-.3c.61,1.43,1.19,2.86,1.77,4.31l.08.21c0,.08.07.18.11.26a73.38,73.38,0,0,0,3.67,8.14,3.24,3.24,0,0,0,.17.32,31.58,31.58,0,0,0,1.71,2.76,23.69,23.69,0,0,0,4.2,4.68,20.42,20.42,0,0,0,5.38,3.26,26.1,26.1,0,0,0,2.9,1c0-.12-.05-.25-.06-.37A21.46,21.46,0,0,1,281.29,144.29Zm10.31-1.07a29.13,29.13,0,0,0-2-3.49c-.06-.11-.13-.2-.19-.31s-.37-.52-.56-.77a13.06,13.06,0,0,0-4.78-4c-.24-.11-.48-.23-.72-.33l-.73-.27-.37-.14-.38-.12-.76-.21a20,20,0,0,0-3.09-.58c-.82-.1-1.64-.16-2.46-.19h-.31c-1.17,0-2.33,0-3.5.08-2.09.14-4.16.39-6.22.66l-2.77.34-.34,0-.19,0a1.33,1.33,0,0,0-.16.17l.46-.05.34,0,2.68-.32c2.07-.24,4.14-.49,6.22-.62,1.18-.07,2.38-.1,3.56-.08h.31c.79,0,1.58.09,2.36.18a22.5,22.5,0,0,1,3,.59l.75.22.37.11.37.14.72.27c.25.1.47.22.71.32a12.93,12.93,0,0,1,4.68,4l.49.7a2.73,2.73,0,0,1,.21.3,31.74,31.74,0,0,1,2.38,4.41,3.49,3.49,0,0,1,.15.34C291.82,144.09,291.72,143.64,291.6,143.22Zm-22.85,64.06a23.82,23.82,0,0,0-4.05-4.8,20.78,20.78,0,0,0-5.27-3.43,25.25,25.25,0,0,0-6-1.87,23.25,23.25,0,0,0-6.29-.16,52.85,52.85,0,0,0-10,2.42l-.26.07c-.63.2-1.25.38-1.88.55a34.6,34.6,0,0,1-6.09,1.23,14.17,14.17,0,0,1-1.72.1h-.71l-.09.32h1a13.77,13.77,0,0,0,1.57-.09,36.1,36.1,0,0,0,6.16-1.22l2-.58.25-.08a55.35,55.35,0,0,1,9.85-2.35c8.22-1,17,2.91,21.32,10.07a5.48,5.48,0,0,1,.31.52l.36,0C269,207.71,268.89,207.49,268.75,207.28Zm-39.78-3c-.59-.83-1.12-1.7-1.63-2.59-.06-.1-.11-.21-.18-.32-.15-.27-.3-.55-.44-.84a2.77,2.77,0,0,0-.12.41,3.61,3.61,0,0,0,.22.44,3.3,3.3,0,0,0,.18.32,28.86,28.86,0,0,0,1.71,2.76,23.38,23.38,0,0,0,4.2,4.68,18.83,18.83,0,0,0,2.74,1.94l.62,0A20.81,20.81,0,0,1,229,204.3Zm13.14,5.59c-.78-1.94-1.55-3.88-2.43-5.78a32.86,32.86,0,0,0-2.36-4.37,3.21,3.21,0,0,0-.21-.3l-.55-.77a13.06,13.06,0,0,0-4.77-4c-.25-.1-.48-.22-.72-.33l-.73-.26-.38-.14-.38-.12-.6-.18c0,.08,0,.14-.07.22l.61.18.37.12.36.13.73.27c.25.1.47.22.71.33a12.9,12.9,0,0,1,4.67,4c.17.23.33.45.49.69a3.46,3.46,0,0,1,.22.31,31.09,31.09,0,0,1,2.37,4.4c.87,1.89,1.63,3.84,2.41,5.77.07.19.14.35.21.53a2.58,2.58,0,0,1,.29,0C242.27,210.28,242.2,210.09,242.11,209.89Z" style="fill:#fff"></path><path d="M282.13,143.43c-3.06-.42-8.35-7.24-9.95-12.47-.1-.36,1.09-3.66,2.36-7.73.76-2.47,1.55-5.24,2.08-7.82L292,122.7a41.69,41.69,0,0,0-3.62,9.59,5.82,5.82,0,0,0-.11,1.08,1.21,1.21,0,0,1,0,.18C288.17,135.63,286.93,144.08,282.13,143.43Z" style="fill:#eb9481"></path><path d="M274.76,122.52c2.25,5.56,6.28,11.38,13.41,12.07.05-.44.08-.79.09-1,0-.06,0-.13,0-.18a5.08,5.08,0,0,1,.11-1.08A42.2,42.2,0,0,1,292,122.7l-15.38-7.29C276.15,117.74,275.45,120.24,274.76,122.52Z" style="fill:#263238"></path><path d="M274.2,96.2c-2.66,5.52-2.19,22.74,1.36,27.11,5.14,6.33,14.84,8.36,20.54,1.89,5.54-6.28,4.52-28.7.44-32.8C290.53,86.36,278.14,88.05,274.2,96.2Z" style="fill:#eb9481"></path><path d="M288.5,109.16s-.09.06-.08.11c.11,1.15.05,2.49-1,3,0,0,0,.07,0,.06C288.73,112,288.79,110.24,288.5,109.16Z" style="fill:#263238"></path><path d="M287.39,108c-1.87,0-1.77,3.72,0,3.74S289,108,287.39,108Z" style="fill:#263238"></path><path d="M295.35,108.74s.09.05.09.1c0,1.16.19,2.49,1.25,2.84,0,0,0,.07,0,.07C295.39,111.6,295.16,109.83,295.35,108.74Z" style="fill:#263238"></path><path d="M296.35,107.5c1.86-.19,2.11,3.54.39,3.72S294.79,107.66,296.35,107.5Z" style="fill:#263238"></path><path d="M285.72,106.36c.48.23.95.36,1.44.54a2.56,2.56,0,0,0,1.58.26.79.79,0,0,0,.51-.82,2,2,0,0,0-1.39-1.42,2.88,2.88,0,0,0-2.08-.1A.84.84,0,0,0,285.72,106.36Z" style="fill:#263238"></path><path d="M297.62,105.38a14.84,14.84,0,0,1-1.5-.34,2.42,2.42,0,0,1-1.46-.65.77.77,0,0,1,0-1,2,2,0,0,1,1.94-.43,2.85,2.85,0,0,1,1.79,1.06A.84.84,0,0,1,297.62,105.38Z" style="fill:#263238"></path><path d="M287.72,120c.29.26.57.63,1,.65a3,3,0,0,0,1.24-.32,0,0,0,0,1,.05.06,1.54,1.54,0,0,1-1.45.66,1.22,1.22,0,0,1-.94-1C287.59,119.94,287.68,119.91,287.72,120Z" style="fill:#263238"></path><path d="M288.84,116.44a4,4,0,0,0,2.69,1.69,5.19,5.19,0,0,0,1.42,0l.27,0,.25-.05a.29.29,0,0,0,.23-.26h0a.5.5,0,0,0,0-.12h0v-.1c0-.89-.12-2.25-.12-2.25.33.15,2,.86,2,.39a59.55,59.55,0,0,0-1.86-11.9.11.11,0,0,0-.21,0c.18,3.72,1,7.38,1.24,11.11a6.46,6.46,0,0,0-1.88-.51c-.12,0,.29,2.61.26,3a.18.18,0,0,1,0,0,5.48,5.48,0,0,1-4.12-1.16C288.86,116.27,288.77,116.35,288.84,116.44Z" style="fill:#263238"></path><path d="M292.41,117.72a4.62,4.62,0,0,1-1.84,1.5,2.1,2.1,0,0,1-1.27.12c-.94-.22-1-1.07-.83-1.8a5.24,5.24,0,0,1,.38-1.13A6.1,6.1,0,0,0,292.41,117.72Z" style="fill:#263238"></path><path d="M290.57,119.22a2.1,2.1,0,0,1-1.27.12c-.94-.22-1-1.07-.83-1.8A2.17,2.17,0,0,1,290.57,119.22Z" style="fill:#ff99ba"></path><path d="M281.07,103.12c-.22,1.43-3.05,5.85-.69,6.21,1.5.23,1-3,.8-4A9.39,9.39,0,0,1,281.07,103.12Z" style="fill:#ebebeb"></path><path d="M283.38,100c-.15,1-1.86,4-.49,4.17.87.13.6-2,.52-2.71A7,7,0,0,1,283.38,100Z" style="fill:#ebebeb"></path><path d="M272.82,111s-4.28-10.88-2.75-16.47c.69-2.54,4.5-3.67,4.5-3.67a5.87,5.87,0,0,1,2.84-5.53c3.53-2.35,10.79-.45,10.79-.45s6-6.08,12.25-2.19.58,10.8.58,10.8,1.88,4-4.65,5.67c-6.36,1.67-18-3-18-3a42.81,42.81,0,0,1-2.33,12.46A3.89,3.89,0,0,1,272.82,111Z" style="fill:#263238"></path><path d="M289.35,85.2a12.14,12.14,0,0,0-4.61-1.68,13,13,0,0,0-4.39-.06c-2.59.46-5.05,1.88-5.92,4.48a5,5,0,0,0,.3,3.9s.1,0,.08,0c-1.24-2.2.1-5.07,2-6.41,2.14-1.52,5.06-1.74,7.59-1.42a21.31,21.31,0,0,1,4.89,1.38C289.38,85.38,289.43,85.26,289.35,85.2Z" style="fill:#263238"></path><path d="M304.73,86.81a5.87,5.87,0,0,0-3.38-4.38,10.06,10.06,0,0,0-6.43-.87,12.62,12.62,0,0,0-5.9,3s0,.1.05.06a11.1,11.1,0,0,1,11.12-2.1,6.08,6.08,0,0,1,3.82,3.7,6,6,0,0,1-1,5,11.3,11.3,0,0,1-5.09,3.61,0,0,0,0,0,0,.07,11.66,11.66,0,0,0,5-3A6.59,6.59,0,0,0,304.73,86.81Z" style="fill:#263238"></path><path d="M297.78,99.76a20.65,20.65,0,0,1-8.75,0A42,42,0,0,1,280.29,97c-1.63-.71-3.25-1.47-4.84-2.27a0,0,0,0,0,0,.08,45.89,45.89,0,0,0,8.67,4.4,23.43,23.43,0,0,0,8.85,1.43,19.73,19.73,0,0,0,4.88-.84S297.83,99.75,297.78,99.76Z" style="fill:#263238"></path><path d="M275.67,110.4s-3.07-5.94-5.71-4.92-.85,9.28,1.9,10.74a3,3,0,0,0,4.15-1Z" style="fill:#eb9481"></path><path d="M270.53,107.84s-.06,0,0,.07c1.92,1.09,2.73,3.12,3.22,5.17a1.64,1.64,0,0,0-2.37-.77c-.06,0,0,.12,0,.11a1.85,1.85,0,0,1,1.91.9,9.15,9.15,0,0,1,.73,1.74c.07.19.41.14.37-.08a.11.11,0,0,0,0,0C274.8,112.36,273.28,108.47,270.53,107.84Z" style="fill:#263238"></path><path d="M269.25,131.15c3.67,1.76,5.13,7.1,2.22,14.9s-16.83,19.35-21,16.3c-5.65-4.19,5.05-19.18,9.54-24.42C264.33,132.91,267.63,130.38,269.25,131.15Z" style="fill:#eb9481"></path><path d="M258.52,133.47C236,144.94,218,162.62,218.4,170.15c.54,10.81,11.27,37,18.38,48.3,2.09,3.32,27.55-13.47,25.32-17-2.69-4.28-16.67-29.63-16.79-30.12-.28-1,16.78-23.46,21.28-28.94C274.85,132.32,270.77,127.24,258.52,133.47Z" style="fill:#eb9481"></path><path d="M280.63,235.55a4.66,4.66,0,0,1-5.15,1.34,7,7,0,0,1-2.1,4.22c-2.15,1.87-6-.69-6-.69a8.5,8.5,0,0,1-2.91,4.1c-2.24,1.58-6.52-.43-6.52-.43a7.48,7.48,0,0,1-4.83,2c-4.81,0-8.66-6.28-11.14-10.23s-5.85-17.47-6.75-20l25.2-16.18s16.19,14.53,18.46,19.59C280.77,223.52,282.89,232.69,280.63,235.55Z" style="fill:#eb9481"></path><path d="M275.77,236.46c-.94-5-3.32-9.49-5.43-14.08a.09.09,0,0,0-.16.08c2.16,4.54,3.38,9.45,5.36,14.07C275.59,236.66,275.79,236.59,275.77,236.46Z" style="fill:#263238"></path><path d="M267.63,240.13a12.85,12.85,0,0,0-1.39-3.18c-.58-1.1-1.17-2.18-1.77-3.25-1.22-2.15-2.48-4.27-3.81-6.36-.06-.09-.21,0-.16.08,1.21,2.14,2.39,4.3,3.5,6.5.56,1.09,1.11,2.2,1.65,3.3a16,16,0,0,0,1.68,3.06A.18.18,0,0,0,267.63,240.13Z" style="fill:#263238"></path><path d="M257.87,244a9,9,0,0,0-1.41-2.8l-1.71-2.91c-1.12-1.95-2.25-3.89-3.31-5.88-.05-.1-.21,0-.15.07,1.06,2,2.1,4.06,3.18,6.08.53,1,1.07,2,1.61,2.95a8.56,8.56,0,0,0,1.7,2.55S257.88,244,257.87,244Z" style="fill:#263238"></path><path d="M259.31,153l-.85.72c1.08-1.42,2.09-2.88,3.05-4.38,0,0,0-.07-.05,0-1.32,1.53-2.61,3.07-3.85,4.67-.59.75-1.2,1.49-1.75,2.27s-4,5.46-4.72,6.29c-.08.1.06.23.14.14.64-.81,4.18-5.23,4.85-6s1.14-1.38,1.68-2.09a6.26,6.26,0,0,0,.66-.49c.34-.29.67-.58,1-.9.63-.62,1.25-1.27,1.86-1.92,0,0,0,0,0,0C260.67,151.84,260,152.41,259.31,153Z" style="fill:#263238"></path></g></svg>