<svg xmlns="http://www.w3.org/2000/svg" viewBox="0 0 500 500"><g id="freepik--background-complete--inject-1044"><path d="M447.12,146.64H351.54s9.48-25.88,24.06-25.88,19.15,17.87,19.15,17.87,9.84-9.71,17.93-9.71,15.11,12.83,15.11,12.83S439.21,134.85,447.12,146.64Z" style="fill:#ebebeb"></path><path d="M363.66,80.08H319s10-14.46,17.84-14.46S347,75.26,347,75.26s5.54-4.5,10.69-3.69S363.66,80.08,363.66,80.08Z" style="fill:#ebebeb"></path><path d="M124.28,159.07h-87s11.92-26.6,24.66-28.26,18.84,19.76,18.84,19.76S89,143,95.46,143s11.46,10,11.46,10S119.85,146.14,124.28,159.07Z" style="fill:#ebebeb"></path><path d="M214.52,47.32H155.75s10.1-19.27,21.05-19.55,16.71,14.59,16.71,14.59S210.54,28.69,214.52,47.32Z" style="fill:#ebebeb"></path><path d="M278.08,100.64H238.41s6.81-13,14.21-13.19,11.27,9.84,11.27,9.84S275.39,88.06,278.08,100.64Z" style="fill:#ebebeb"></path><path d="M465,328.22s-70.79-42.74-122.5-42.74c-50.62,0-119.27,21.59-137.93,26.43-49,12.7-112.08,16.31-112.08,16.31Z" style="fill:#dbdbdb"></path><path d="M35,328.22s35.41-28.65,75.41-28.65c27.91,0,68,11.53,105.73,18,14.37,2.47,89.18,10.63,89.18,10.63Z" style="fill:#c7c7c7"></path><path d="M284.72,328.5c3.81.18,7.61.59,11.4,1.05s7.56,1.05,11.32,1.71,7.51,1.45,11.21,2.4a59.92,59.92,0,0,1,10.85,3.72,18.37,18.37,0,0,1,2.5,1.44,8.6,8.6,0,0,1,2.15,2,3.6,3.6,0,0,1,.66,2.88,5.37,5.37,0,0,1-1.57,2.5,19.77,19.77,0,0,1-4.83,3.17,56.92,56.92,0,0,1-5.28,2.25c-7.19,2.67-14.68,4.29-22,6.54a221.17,221.17,0,0,0-21.58,7.52,83.55,83.55,0,0,0-10.24,5,34.09,34.09,0,0,0-4.66,3.21,11.54,11.54,0,0,0-3.46,4.27,4.29,4.29,0,0,0-.26,2.59,5.52,5.52,0,0,0,1.26,2.34,15.34,15.34,0,0,0,4.54,3.2,55.44,55.44,0,0,0,10.72,3.7c7.41,1.75,14.89,3.29,22.39,4.66,30,5.66,60.23,10,90.16,16.09,7.47,1.59,14.94,3.23,22.27,5.42l2.72.9c.91.31,1.84.56,2.71.94l5.32,2.14c1.8.66,3.49,1.56,5.22,2.37s3.48,1.6,5.12,2.59a75.87,75.87,0,0,1,18.39,13.57l2,2.08c.63.72,1.21,1.49,1.82,2.22l.89,1.12.81,1.19c.52.8,1.12,1.55,1.56,2.4s1,1.64,1.4,2.5.86,1.7,1.18,2.61l.52,1.33c.15.45.29.91.43,1.37a17.58,17.58,0,0,1,.62,2.79,18.81,18.81,0,0,0-.64-2.79c-.15-.45-.29-.91-.45-1.36l-.53-1.32c-.32-.9-.81-1.73-1.2-2.59s-1-1.66-1.41-2.49-1.06-1.59-1.59-2.38l-.81-1.17-.91-1.11c-.61-.73-1.19-1.49-1.82-2.19l-2-2.07a75.56,75.56,0,0,0-18.44-13.34c-1.64-1-3.39-1.75-5.11-2.56s-3.41-1.69-5.21-2.34l-5.3-2.12c-.88-.38-1.8-.62-2.7-.93l-2.72-.88c-7.3-2.16-14.77-3.78-22.23-5.34-29.93-6-60.18-10.24-90.21-15.81-7.51-1.4-15-3-22.42-4.74a56.53,56.53,0,0,1-10.87-3.8,15.88,15.88,0,0,1-4.74-3.38,6.13,6.13,0,0,1-1.42-2.66,5.08,5.08,0,0,1,.3-3,12.2,12.2,0,0,1,3.68-4.54,34.86,34.86,0,0,1,4.76-3.26,85.49,85.49,0,0,1,10.33-5A222.6,222.6,0,0,1,301,357.6c7.31-2.23,14.8-3.83,21.95-6.46,1.78-.67,3.54-1.38,5.24-2.22a19.36,19.36,0,0,0,4.72-3.07,5,5,0,0,0,1.46-2.27,3.15,3.15,0,0,0-.59-2.52,8.13,8.13,0,0,0-2-1.89,19.27,19.27,0,0,0-2.45-1.42A60,60,0,0,0,318.57,334c-3.68-1-7.42-1.79-11.16-2.49s-7.52-1.3-11.3-1.81S288.53,328.71,284.72,328.5Z" style="fill:#ebebeb"></path><path d="M317.24,328.5c7.19.37,14.36,1.11,21.52,1.94s14.29,1.84,21.39,3.1c3.55.63,7.09,1.34,10.59,2.18a85.89,85.89,0,0,1,10.39,3.07,27,27,0,0,1,4.9,2.37,9,9,0,0,1,2.1,1.81,3.17,3.17,0,0,1,.71,2.74,4.92,4.92,0,0,1-1.57,2.33,13.47,13.47,0,0,1-2.25,1.59,35,35,0,0,1-4.92,2.31,99.61,99.61,0,0,1-10.32,3.27L359.33,358l-20.89,5.52c-6.95,1.87-13.9,3.78-20.78,5.88-3.43,1.06-6.86,2.16-10.23,3.41-1.68.62-3.35,1.28-5,2a26,26,0,0,0-4.63,2.57,4.39,4.39,0,0,0-1.58,1.83c-.24.67.22,1.33.91,1.81a16.11,16.11,0,0,0,4.83,2,93.4,93.4,0,0,0,10.58,1.94c7.12,1,14.28,1.74,21.45,2.42,14.34,1.35,28.7,2.5,43,4.09S405.65,395,419.76,398s28,7.11,41,13.29c-13.09-6.05-27.05-10-41.13-12.87S391.29,393.53,377,392s-28.69-2.63-43-3.93c-7.17-.66-14.35-1.38-21.5-2.35a95.53,95.53,0,0,1-10.67-1.93,16.39,16.39,0,0,1-5.12-2.08,3.47,3.47,0,0,1-1-1.11,2,2,0,0,1-.16-1.64,5.1,5.1,0,0,1,1.87-2.23,26.52,26.52,0,0,1,4.8-2.65c1.66-.74,3.34-1.4,5-2,3.39-1.24,6.83-2.33,10.28-3.38,6.91-2.09,13.86-4,20.83-5.82l20.91-5.46,10.45-2.74a101.84,101.84,0,0,0,10.27-3.22,35.2,35.2,0,0,0,4.86-2.26,13.74,13.74,0,0,0,2.16-1.52,4.47,4.47,0,0,0,1.42-2.07,2.67,2.67,0,0,0-.61-2.3,8.47,8.47,0,0,0-2-1.7,26.74,26.74,0,0,0-4.81-2.34,86.78,86.78,0,0,0-10.31-3.09c-3.5-.84-7-1.56-10.56-2.23-7.07-1.32-14.2-2.38-21.34-3.29S324.43,328.93,317.24,328.5Z" style="fill:#ebebeb"></path><path d="M378.44,328.5c6.12.29,12.23.9,18.32,1.54s12.18,1.44,18.24,2.39,12.1,2.07,18.07,3.53a85.93,85.93,0,0,1,8.83,2.63,34,34,0,0,1,4.24,1.88,9.26,9.26,0,0,1,3.59,3A2.93,2.93,0,0,1,450,346a4.86,4.86,0,0,1-1.38,2,16.54,16.54,0,0,1-3.91,2.55,59.69,59.69,0,0,1-8.63,3.3c-2.93.92-5.9,1.69-8.87,2.46s-5.94,1.51-8.92,2.24c-11.93,2.87-23.92,5.46-35.91,8-6,1.26-12,2.51-18,3.85-3,.66-6,1.35-8.94,2.1s-5.93,1.53-8.78,2.56a20.32,20.32,0,0,0-2.08.89,6.59,6.59,0,0,0-.93.57c-.27.2-.51.48-.51.66s.2.4.5.57a4.86,4.86,0,0,0,1,.44,17.43,17.43,0,0,0,2.18.57,91.26,91.26,0,0,0,9.08,1.2l18.29,1.86c12.19,1.29,24.37,2.87,36.41,5.27q9,1.85,17.88,4.3c5.9,1.68,11.73,3.6,17.49,5.7-5.79-2-11.63-3.89-17.54-5.5s-11.9-2.94-17.91-4.11c-12-2.32-24.2-3.87-36.39-5.11l-18.3-1.79c-3-.3-6.11-.57-9.15-1.17a18.81,18.81,0,0,1-2.26-.59,6.43,6.43,0,0,1-1.11-.5,2.5,2.5,0,0,1-.53-.42,1,1,0,0,1-.29-.75,1.67,1.67,0,0,1,.77-1.17,6.94,6.94,0,0,1,1-.63,18.22,18.22,0,0,1,2.14-.93c2.91-1.07,5.88-1.86,8.85-2.63s6-1.46,8.95-2.14c6-1.35,12-2.63,18-3.91,12-2.56,24-5.06,35.9-7.9q4.47-1.06,8.93-2.19c3-.76,5.93-1.52,8.85-2.42a59.29,59.29,0,0,0,8.54-3.23,16,16,0,0,0,3.78-2.43,4.44,4.44,0,0,0,1.23-1.74,2.33,2.33,0,0,0-.23-2,8.7,8.7,0,0,0-3.36-2.82,32.21,32.21,0,0,0-4.15-1.86,82.86,82.86,0,0,0-8.77-2.66c-5.93-1.48-12-2.61-18-3.6s-12.12-1.85-18.2-2.59S384.56,328.87,378.44,328.5Z" style="fill:#ebebeb"></path><path d="M265.71,328.5c3.65.17,7.29.56,10.93,1s7.25,1,10.86,1.61,7.19,1.34,10.75,2.21a73.27,73.27,0,0,1,10.49,3.29,22.13,22.13,0,0,1,4.84,2.65,6.74,6.74,0,0,1,1.88,2.09,3.31,3.31,0,0,1,.18,2.83,6.3,6.3,0,0,1-1.69,2.25,15.65,15.65,0,0,1-2.25,1.65,36.55,36.55,0,0,1-4.93,2.46c-6.79,2.84-13.94,4.54-21,6.46-14.12,3.8-28.26,7.58-42.2,12a169.71,169.71,0,0,0-20.47,7.72,40.65,40.65,0,0,0-4.75,2.65,16.29,16.29,0,0,0-2.13,1.64,6.08,6.08,0,0,0-1.55,2,2.35,2.35,0,0,0,.2,2.27,5.85,5.85,0,0,0,1.9,1.72,22.89,22.89,0,0,0,4.94,2.13c28.33,7,57,13.17,85.18,21.17,7,2,14,4.16,20.94,6.61a124.56,124.56,0,0,1,20,9,75.06,75.06,0,0,1,17.4,13.34,49.4,49.4,0,0,1,6.61,8.75,29.5,29.5,0,0,1,3.88,10.21,29.44,29.44,0,0,0-4-10.15,49.12,49.12,0,0,0-6.69-8.65,76.31,76.31,0,0,0-17.44-13.11,123.53,123.53,0,0,0-20-8.88c-6.9-2.43-13.9-4.54-20.94-6.53-14.08-3.95-28.3-7.41-42.53-10.79l-21.37-5-10.69-2.53-5.34-1.27c-1.78-.42-3.57-.87-5.32-1.44a23.54,23.54,0,0,1-5.11-2.22,6.78,6.78,0,0,1-2.12-1.95,3.24,3.24,0,0,1-.51-1.45,3.2,3.2,0,0,1,.26-1.51,6.67,6.67,0,0,1,1.74-2.3,17.48,17.48,0,0,1,2.22-1.71,43,43,0,0,1,4.84-2.67,169.37,169.37,0,0,1,20.58-7.71c14-4.4,28.13-8.14,42.27-11.91,7.06-1.9,14.2-3.58,20.95-6.37a36.37,36.37,0,0,0,4.88-2.43,13.67,13.67,0,0,0,2.18-1.59,5.79,5.79,0,0,0,1.58-2.08,2.86,2.86,0,0,0-.14-2.47,6.48,6.48,0,0,0-1.76-2,21.46,21.46,0,0,0-4.73-2.64,74.3,74.3,0,0,0-10.41-3.36c-3.55-.89-7.13-1.64-10.73-2.3s-7.21-1.21-10.83-1.69S269.36,328.7,265.71,328.5Z" style="fill:#ebebeb"></path><path d="M117.49,328.5c3.81.18,7.61.59,11.4,1.05s7.56,1.05,11.32,1.71,7.5,1.45,11.21,2.4a59.56,59.56,0,0,1,10.84,3.72,17.89,17.89,0,0,1,2.51,1.44,8.56,8.56,0,0,1,2.14,2,3.57,3.57,0,0,1,.67,2.88,5.37,5.37,0,0,1-1.57,2.5,20.15,20.15,0,0,1-4.83,3.17,56.92,56.92,0,0,1-5.28,2.25c-7.19,2.67-14.68,4.29-22,6.54a221.17,221.17,0,0,0-21.58,7.52,83.55,83.55,0,0,0-10.24,5,34.09,34.09,0,0,0-4.66,3.21A11.67,11.67,0,0,0,94,378.14a4.36,4.36,0,0,0-.25,2.59A5.41,5.41,0,0,0,95,383.07a15.34,15.34,0,0,0,4.54,3.2,55.44,55.44,0,0,0,10.72,3.7q11.11,2.63,22.39,4.66c30,5.66,60.23,10,90.16,16.09,7.47,1.59,14.94,3.23,22.27,5.42l2.72.9c.91.31,1.83.56,2.71.94l5.32,2.14c1.8.66,3.49,1.56,5.22,2.37s3.48,1.6,5.11,2.59a75.68,75.68,0,0,1,18.39,13.57l2,2.08c.63.72,1.21,1.49,1.82,2.22l.89,1.12.81,1.19c.52.8,1.12,1.55,1.56,2.4s1,1.64,1.39,2.5.87,1.7,1.19,2.61l.52,1.33c.15.45.29.91.43,1.37a17.58,17.58,0,0,1,.62,2.79,17.66,17.66,0,0,0-.65-2.79c-.14-.45-.28-.91-.44-1.36l-.53-1.32c-.32-.9-.81-1.73-1.21-2.59s-.94-1.66-1.41-2.49a26.52,26.52,0,0,0-1.58-2.38l-.81-1.17-.91-1.11c-.61-.73-1.19-1.49-1.82-2.19l-2-2.07A75.56,75.56,0,0,0,266,425.45c-1.64-1-3.39-1.75-5.11-2.56s-3.41-1.69-5.21-2.34l-5.31-2.12c-.87-.38-1.79-.62-2.69-.93l-2.72-.88c-7.3-2.16-14.77-3.78-22.23-5.34-29.93-6-60.18-10.24-90.21-15.81-7.51-1.4-15-3-22.42-4.74a56.53,56.53,0,0,1-10.87-3.8,16.05,16.05,0,0,1-4.75-3.38A6.22,6.22,0,0,1,93,380.89a5.08,5.08,0,0,1,.3-3A12.2,12.2,0,0,1,97,373.34a34.25,34.25,0,0,1,4.76-3.26,85.49,85.49,0,0,1,10.33-5,222.6,222.6,0,0,1,21.67-7.47c7.31-2.23,14.8-3.83,21.94-6.46a56.55,56.55,0,0,0,5.25-2.22,19.36,19.36,0,0,0,4.72-3.07,5,5,0,0,0,1.46-2.27,3.15,3.15,0,0,0-.59-2.52,8.13,8.13,0,0,0-2-1.89,19.27,19.27,0,0,0-2.45-1.42A60,60,0,0,0,151.34,334c-3.68-1-7.42-1.79-11.16-2.49s-7.52-1.3-11.3-1.81S121.3,328.71,117.49,328.5Z" style="fill:#ebebeb"></path><path d="M89,328.5c3.66.17,7.3.56,10.93,1s7.25,1,10.86,1.61,7.19,1.34,10.75,2.21A72.88,72.88,0,0,1,132,336.61a22.13,22.13,0,0,1,4.84,2.65,6.89,6.89,0,0,1,1.89,2.09,3.34,3.34,0,0,1,.17,2.83,6.19,6.19,0,0,1-1.69,2.25,15.56,15.56,0,0,1-2.24,1.65,37.26,37.26,0,0,1-4.94,2.46c-6.79,2.84-13.94,4.54-21,6.46-14.13,3.8-28.27,7.58-42.21,12a169.71,169.71,0,0,0-20.47,7.72,40.65,40.65,0,0,0-4.75,2.65A16.29,16.29,0,0,0,39.52,381a6.08,6.08,0,0,0-1.55,2,2.35,2.35,0,0,0,.2,2.27,6,6,0,0,0,1.9,1.72A22.89,22.89,0,0,0,45,389.19c28.34,7,57,13.17,85.18,21.17,7,2,14,4.16,20.94,6.61a124.56,124.56,0,0,1,20,9,75.06,75.06,0,0,1,17.4,13.34,49.4,49.4,0,0,1,6.61,8.75,29.3,29.3,0,0,1,3.88,10.21,29.44,29.44,0,0,0-4-10.15,49.55,49.55,0,0,0-6.68-8.65A76.59,76.59,0,0,0,171,426.35a123.15,123.15,0,0,0-20-8.88c-6.9-2.43-13.9-4.54-20.94-6.53-14.08-3.95-28.29-7.41-42.53-10.79l-21.37-5-10.68-2.53-5.34-1.27c-1.78-.42-3.58-.87-5.33-1.44a23.26,23.26,0,0,1-5.1-2.22,6.7,6.7,0,0,1-2.13-1.95A3.24,3.24,0,0,1,37,384.3a3.2,3.2,0,0,1,.26-1.51,6.67,6.67,0,0,1,1.74-2.3,18.22,18.22,0,0,1,2.22-1.71,43,43,0,0,1,4.84-2.67,168.89,168.89,0,0,1,20.59-7.71c14-4.4,28.12-8.14,42.26-11.91,7.06-1.9,14.2-3.58,20.95-6.37a36.37,36.37,0,0,0,4.88-2.43A13.67,13.67,0,0,0,137,346.1a5.82,5.82,0,0,0,1.59-2.08,2.89,2.89,0,0,0-.15-2.47,6.23,6.23,0,0,0-1.76-2,21.24,21.24,0,0,0-4.73-2.64,73.88,73.88,0,0,0-10.41-3.36c-3.55-.89-7.13-1.64-10.72-2.3s-7.22-1.21-10.84-1.69S92.66,328.7,89,328.5Z" style="fill:#ebebeb"></path><polygon points="29.13 328.41 84.34 328.17 139.56 328.08 250 327.91 360.44 328.08 415.66 328.17 470.88 328.41 415.66 328.66 360.44 328.75 250 328.91 139.56 328.75 84.34 328.66 29.13 328.41" style="fill:#a6a6a6"></polygon><path d="M88.42,328.78s-.84-3.93-2.52-4.53-2.71,1.16-2.71,1.16-.39-3.76-2.78-4.88-4.17,1.18-4.17,1.18S74.41,317,71.14,317s-4.91,7-4.91,7-1.93-2.07-3.91-.9-2,5.77-2,5.77Z" style="fill:#a6a6a6"></path><path d="M367.26,328.78s-.84-3.93-2.52-4.53-2.7,1.16-2.7,1.16-.4-3.76-2.78-4.88-4.17,1.18-4.17,1.18S353.26,317,350,317s-4.92,7-4.92,7-1.92-2.07-3.9-.9-2,5.77-2,5.77Z" style="fill:#a6a6a6"></path><path d="M162.7,328.78H133.15s1-4.16,2.93-4.46A2.91,2.91,0,0,1,139,326s-.09-5.81,3.57-6.8,6.72,4.14,6.72,4.14,2.3-2.93,5.42-2.74,3.93,5,3.93,5S161.44,323.91,162.7,328.78Z" style="fill:#a6a6a6"></path><path d="M62.16,328.78H46.61s0-2.31,1.56-2.93a2.09,2.09,0,0,1,2.44.59s.62-4.26,3.47-4.26,4.22,3.67,4.22,3.67a2.18,2.18,0,0,1,2.22-.9C62.1,325.16,62.16,328.78,62.16,328.78Z" style="fill:#a6a6a6"></path><path d="M174.9,328.78H159.35s0-2.31,1.56-2.93a2.09,2.09,0,0,1,2.44.59s.63-4.26,3.48-4.26,4.21,3.67,4.21,3.67a2.18,2.18,0,0,1,2.22-.9C174.84,325.16,174.9,328.78,174.9,328.78Z" style="fill:#a6a6a6"></path><path d="M404.37,328.78H388.82s0-2.31,1.56-2.93a2.09,2.09,0,0,1,2.44.59s.62-4.26,3.47-4.26,4.22,3.67,4.22,3.67a2.17,2.17,0,0,1,2.22-.9C404.31,325.16,404.37,328.78,404.37,328.78Z" style="fill:#a6a6a6"></path><path d="M427.06,328.78H401.42S401.48,325,404,324a3.44,3.44,0,0,1,4,1s1-7,5.73-7,6.94,6.05,6.94,6.05a3.6,3.6,0,0,1,3.66-1.49C427,322.8,427.06,328.78,427.06,328.78Z" style="fill:#a6a6a6"></path></g><g id="freepik--Floor--inject-1044"><path d="M0,432.26s27.83-19,42.33-22.59,50.42,6.82,65.49,9.61c7.54,1.39,25.51,13.68,49.26,18.05s53.3.86,64.19,1.29c21.79.86,62.12-33,79.87-32.54s86-69.83,101.09-80.59S440.36,293.9,455.44,287,500,278.27,500,278.27V500H0Z" style="fill:#455a64"></path><path d="M0,500s29-31.43,42.33-43.48c8.59-7.74,61.8-8.68,68.89-10.71s31.31-20.6,48-31.59,79.34-3.93,90.76-4.14S276.52,394,295,388.5c36.63-10.8,88,.24,98.31,5.22,29.29,14.09,34.58,29.61,73,41,10.59,3.14,28.41,15.11,33.7,28V500Z" style="fill:#37474f"></path><path d="M216,500H69.91s54.9-24.3,64.86-36-1.57-16.58,2.2-24.94,25.68-24.23,39-29.76h0c25.13-3.32,65.12.93,74,.77a15.4,15.4,0,0,0,3.35-.46c-14.58,7.87-46.7,24.44-43.09,29.22,2.53,3.35,18.54,13.76,38.33,12.5,11.09-.71,8.71,13,9.34,19C259.32,483.64,216,500,216,500Z" style="fill:#263238;opacity:0.5"></path><path d="M500,462.66V500H302.82s55.07-5.76,68.2-7.09,69-17.63,67-21.29-16.31-1.84-41,2.16-48.23.09-43.1-4.15c3.62-3,35.78-4,43.1-7.1s43.7-12.52,50.35-17-4.33-16.42-15.72-26.62c8.59,5.73,18.8,11.14,34.67,15.84C476.89,437.84,494.71,449.81,500,462.66Z" style="fill:#263238;opacity:0.5"></path></g><g id="freepik--Dust--inject-1044"><polygon points="86.17 413.1 86.19 412.99 86.18 413.05 86.17 413.1" style="fill:#37474f"></polygon><polygon points="86.14 413.25 86.14 413.25 86.18 413.05 86.14 413.25" style="fill:#37474f"></polygon><path d="M72.58,405.39c.28,0,.44.25.75.29.28.47.14.63-.16.76a1.57,1.57,0,0,1-1.06-.6C72.06,405.59,72.26,405.37,72.58,405.39Z" style="fill:#37474f"></path><path d="M74.56,404.47c.27.24,0,.32,0,.46a1.24,1.24,0,0,1-.79-.26C73.48,404.29,74,403.86,74.56,404.47Z" style="fill:#37474f"></path><path d="M33.35,377.23c0,.17-.19.38-.36.21l-.1-.16A.26.26,0,0,1,33.35,377.23Z" style="fill:#37474f"></path><polygon points="78.51 377.5 78.52 377.43 78.7 377.46 78.7 377.52 78.51 377.5" style="fill:#37474f"></polygon><path d="M34.41,376.48c.07,0,0,.08,0,.15s-.29.07-.28-.07S34.3,376.42,34.41,376.48Z" style="fill:#37474f"></path><path d="M81,378.4l0,.22a.77.77,0,0,1-.88-.49C80.35,378.2,80.84,378.08,81,378.4Z" style="fill:#37474f"></path><path d="M37,378.73c.08.26,0,.55-.34.51a.54.54,0,0,1-.31-.43A.49.49,0,0,1,37,378.73Z" style="fill:#37474f"></path><path d="M29.3,361.45h-.08c.52-.07,1.25-.12,1.59.37-.06.24-.36.17-.59.14-.44,0-.69-.42-1.1-.42C29.13,361.45,29.31,361.56,29.3,361.45Z" style="fill:#37474f"></path><path d="M122.92,390.74c0-.05,0-.15-.08-.18l.37,0c.07-.51.54,0,.7-.2a1.36,1.36,0,0,1,.74,1c-.15.45-.26.37-.43.8-.32-.17-.5.73-.91.2-.4.06-.36-.41-.73-.47.2.09,0-.27,0-.41l-.15-.17c.3-.05.24-.33.18-.58C122.7,390.91,122.81,390.75,122.92,390.74Z" style="fill:#37474f"></path><path d="M101,379.78s0-.17-.09-.2l.42,0c.08-.57.61,0,.8-.22a1.57,1.57,0,0,1,.84,1.18c-.17.51-.3.42-.49.91-.37-.19-.56.83-1,.22-.45.08-.4-.46-.83-.53.23.1.05-.3,0-.47l-.17-.19c.35-.05.27-.37.21-.65C100.77,380,100.9,379.8,101,379.78Z" style="fill:#37474f"></path><path d="M32.9,363.06c.13.08.32.13.38.27-.14.24-.55.08-.78,0l-.32-.29A1.43,1.43,0,0,1,32.9,363.06Z" style="fill:#37474f"></path><path d="M34.73,362.12c.07,0,.09.11.16.11v.11c-.43.11-.7-.19-1.07-.29A1.35,1.35,0,0,1,34.73,362.12Z" style="fill:#37474f"></path><path d="M34.52,362.23c0-.06-.21.09-.23-.06Z" style="fill:#37474f"></path><path d="M35.1,361.34l0,0,0,0-.16-.06C35,361.31,35.08,361.27,35.1,361.34Z" style="fill:#37474f"></path><path d="M45.08,358.54s0,.07,0,.12l-.12-.1S45.06,358.55,45.08,358.54Z" style="fill:#37474f"></path><path d="M54.44,370.13a.25.25,0,0,1,.09.3c-.16.07-.2.07-.34,0C54.28,370.28,54.21,370.05,54.44,370.13Z" style="fill:#37474f"></path><path d="M58.81,363.71a.31.31,0,0,1,.28.12c-.11.09-.1.28-.27.26S58.68,363.79,58.81,363.71Z" style="fill:#37474f"></path><path d="M59.75,359.88c.18.12.5.25.4.53a.41.41,0,0,1-.51.4c-.3.11-.25-.27-.41-.34C59.24,360.14,59.51,360.05,59.75,359.88Z" style="fill:#37474f"></path><path d="M59.29,362.9c.07,0,.15,0,.18.07a.29.29,0,0,1-.15.27C59.16,363.22,59.09,362.93,59.29,362.9Z" style="fill:#37474f"></path><path d="M59.79,370.49c.09.05.21.07.26.19-.11.14,0,.31-.23.38A.29.29,0,0,1,59.79,370.49Z" style="fill:#37474f"></path><polygon points="41.18 368.62 40.83 368.68 40.95 368.55 41.18 368.62" style="fill:#37474f"></polygon><path d="M42.93,369.48c.2.12.51.22.36.48-.36.44-1,0-1.34,0h-.09c.1-.05,0-.17.07-.25-.44.06-.13-.39-.54-.35A2.47,2.47,0,0,1,42.93,369.48Z" style="fill:#37474f"></path><path d="M61.53,364.23c.2-.05.12.18.19.26a.19.19,0,0,1-.34,0C61.37,364.34,61.45,364.3,61.53,364.23Z" style="fill:#37474f"></path><path d="M62.2,370c.11.06,0,.19,0,.28s-.19,0-.29,0A.21.21,0,0,1,62.2,370Z" style="fill:#37474f"></path><path d="M62.83,367.43a.23.23,0,0,1,0,.36c-.12,0-.27,0-.27-.15S62.75,367.51,62.83,367.43Z" style="fill:#37474f"></path><path d="M62.69,369.71c.15.18.7,0,.48.42-.2-.12-.52.15-.68-.15C62.55,369.91,62.56,369.77,62.69,369.71Z" style="fill:#37474f"></path><path d="M46.87,369.26c.19,0,.36,0,.47-.15s-.22-.16-.13-.3c.76.28,1.78.22,2.14,1.05a.5.5,0,0,1-.28.42.91.91,0,0,0-.59.11c-.25-.34-.85.05-1.17-.3.07,0,.1-.06.18-.09a4.31,4.31,0,0,1-.8-.67Z" style="fill:#37474f"></path><path d="M44,390.55c.19,0,.35,0,.47-.14,0-.1-.22-.17-.14-.3.77.27,1.78.21,2.15,1a.51.51,0,0,1-.29.43.91.91,0,0,0-.59.1c-.25-.34-.84.05-1.16-.3.06,0,.1-.06.17-.09a4.59,4.59,0,0,1-.79-.67Z" style="fill:#37474f"></path><path d="M48.13,373.11c0,.63-.72.21-1,.18l-.49-.39A1.36,1.36,0,0,1,48.13,373.11Z" style="fill:#37474f"></path><polygon points="47.73 373.06 47.54 373.28 47.38 372.98 47.55 373.24 47.73 373.06" style="fill:#37474f"></polygon><path d="M96.15,385.16l0,.29c-.88.47-1.9-.18-2.6-.62l-.43-.4A3.28,3.28,0,0,1,96.15,385.16Z" style="fill:#37474f"></path><polygon points="49.4 374.06 49.24 373.93 49.41 373.9 49.4 374.06" style="fill:#37474f"></polygon><path d="M51.31,374.61a1.25,1.25,0,0,1,.25.26c0,.17-.19.27-.32.31a1.49,1.49,0,0,1-1.06-.41l0,.06c-.08.05.12-.05.18-.09s-.18-.12-.27-.15A1.39,1.39,0,0,1,51.31,374.61Z" style="fill:#37474f"></path><path d="M50.87,374.85l-.11-.11c-.14.18,0,0-.16,0C50.82,374.89,50.68,374.56,50.87,374.85Z" style="fill:#37474f"></path><path d="M52.17,375.68a1.37,1.37,0,0,1,1.24.09c.13.14.32.35.07.47a1.66,1.66,0,0,1-1.08,0c-.07-.28-.41-.24-.61-.36C51.85,375.75,52.33,376,52.17,375.68Z" style="fill:#37474f"></path><polygon points="52.62 375.73 52.66 375.81 52.61 375.81 52.62 375.73" style="fill:#37474f"></polygon><path d="M54.92,388c.11.06,0,.14,0,.22-.25.28-.71.09-1,0-.07-.25-.32,0-.44-.17C54,388,54.45,387.76,54.92,388Z" style="fill:#37474f"></path><path d="M69.71,362c.08.54-.5.35-.81.44-.77,0-1.07-.79-1.71-1l-.31-.26C67.71,361.61,69.13,360.94,69.71,362Z" style="fill:#37474f"></path><path d="M66.31,382c0,.07.16.09.2.19s0,.36-.27.42l-.68-.08c0-.05,0-.07,0-.11l-.26-.2C65.52,381.82,66,382,66.31,382Z" style="fill:#37474f"></path><polygon points="61.07 381.4 60.83 381.43 60.91 381.39 61.07 381.4" style="fill:#37474f"></polygon><path d="M71.78,383.13l.11-.1c0-.09-.15,0-.22-.07.26-.28.59-.22,1-.33.21.16.5.26.51.6s-.26.3-.41.44-.49-.3-.79-.14l.05-.06-.44-.43C71.64,383.07,71.76,383,71.78,383.13Z" style="fill:#37474f"></path><polygon points="68.65 355.67 68.42 355.55 68.66 355.58 68.65 355.67" style="fill:#37474f"></polygon><path d="M68.66,357.11c.15-.05-.17.2-.23.1l.34.33-.47-.28Z" style="fill:#37474f"></path><path d="M68.81,357.2c0-.11.22,0,.3,0s.22.21.15.37-.17,0-.25,0c.09-.06.18-.05.26-.13a.4.4,0,0,0-.38-.22c0,.05,0,.08,0,.12l-.22,0,.18-.1Z" style="fill:#37474f"></path><path d="M70.12,355.56l0-.06,0,.06-.25.09C70,355.71,70,355.62,70.12,355.56Z" style="fill:#37474f"></path><path d="M71.54,373.68c.56.18,1.34-.29,1.84.28.11.33-.24.56-.48.53-.57,0-.89-.51-1.37-.7Z" style="fill:#37474f"></path><path d="M75.73,385.54c.26,0,.6,0,.67.34s-.23.27-.36.39-.4-.12-.6-.16c0-.09.08-.17,0-.19C75.56,385.69,75.45,385.68,75.73,385.54Z" style="fill:#37474f"></path><path d="M74.71,365.82c.23.05.5.18.55.38a.32.32,0,0,1-.36.34c-.29,0-.61-.05-.75-.29S74.49,366,74.71,365.82Z" style="fill:#37474f"></path><path d="M76.48,387.13c.18-.11-.09-.24,0-.27s.14.11.15.13l0,.08a.34.34,0,0,1-.5-.06C76.27,387,76.32,387.18,76.48,387.13Z" style="fill:#37474f"></path><path d="M76.75,353c.27,0,.44.15.61.34,0,.25-.09.58-.35.5S76.32,353.25,76.75,353Z" style="fill:#37474f"></path><path d="M102,404.44c.31-.05.51.16.7.38,0,.28-.1.66-.4.57S101.52,404.68,102,404.44Z" style="fill:#37474f"></path><path d="M76.82,358.92c0-.08,0-.12-.07-.17.12-.23.27,0,.31.09.6,0,1.31-.2,1.75.43a.58.58,0,0,1-.36.59l-1-.17.06,0a3.64,3.64,0,0,1-1-.74C76.61,358.92,76.74,359,76.82,358.92Z" style="fill:#37474f"></path><path d="M76.46,369.49c0,.1,0,.18.06.28v-.07h.09v.07s-.08,0-.1,0c.1.17.26.24.36,0-.44-.11,0-.44-.19-.6.29,0,.92-.09,1,.43a.66.66,0,0,1-.37.38,2,2,0,0,0-.73,0s.09,0,.14,0V370l-.35-.08c.06-.06,0-.21.11-.26l-.25-.14C76.3,369.49,76.41,369.57,76.46,369.49Z" style="fill:#37474f"></path><path d="M78.54,394.93c.19.19-.07.38-.19.43-.37.18-.64-.33-1-.12C77.72,395.06,78.15,394.75,78.54,394.93Z" style="fill:#37474f"></path><path d="M76.8,369.62c.1,0-.11.1-.1.05v-.06Z" style="fill:#37474f"></path><path d="M77,369.45a1,1,0,0,0,.14.28l-.09.1s0,.1,0,.16l-.16-.24c.07-.13.21-.14.09-.3l-.11.14C76.89,369.5,77,369.49,77,369.45Z" style="fill:#37474f"></path><path d="M107.5,402.08l0-.36c.08-.11.63,1,.82.17.4.68,1.36,1.12,1.24,2,.08,0,.14.17.25.11l-.1-.33c.46.22,1.15.26,1.38.82,0,.14,0,.37-.19.4-1.12.31-1.27-1.61-2.54-.71a2.23,2.23,0,0,1-1.49-1l-.59-.16c.42.18.33-.34.52-.44l-.3-.21.36-.05-.15-.49C106.82,402,107.18,402.22,107.5,402.08Z" style="fill:#37474f"></path><path d="M127.86,410.37l0-.35c.08-.12.62.93.81.16.4.67,1.34,1.1,1.22,2,.08,0,.14.16.25.11l-.09-.33c.45.22,1.12.26,1.35.81,0,.13,0,.36-.19.4-1.1.29-1.25-1.59-2.5-.71a2.22,2.22,0,0,1-1.47-1l-.57-.16c.4.18.32-.33.51-.43l-.3-.2.35-.05-.14-.49C127.19,410.24,127.54,410.51,127.86,410.37Z" style="fill:#37474f"></path><path d="M80,387.79c.22.15.61,0,.65.47s-.38.18-.57.35-.2-.22-.4-.15l0,0C79.72,388.28,79.62,387.71,80,387.79Z" style="fill:#37474f"></path><path d="M80,361.62a.87.87,0,0,1,.87.11c0,.11.15.24,0,.31-.29.3-.67,0-.95-.12C80.08,361.9,79.91,361.7,80,361.62Z" style="fill:#37474f"></path><polygon points="80.34 361.82 80.06 361.78 80.06 361.74 80.34 361.82" style="fill:#37474f"></polygon><path d="M82.6,391.06c-.22-.06.08-.2,0-.27.19,0,.54-.11.65.17s-.21.2-.36.34l-.39-.17Z" style="fill:#37474f"></path><polygon points="82.69 391 82.92 391.03 82.77 391.17 82.81 391.13 82.61 390.99 82.71 390.89 82.69 391" style="fill:#37474f"></polygon><path d="M87.52,393.06c.2-.16.61-.37.9-.14a1,1,0,0,1,.5.54c-.19.61-.82.32-1.21.48l.06,0c0-.28-.31-.27-.45-.4A.68.68,0,0,0,87.52,393.06Z" style="fill:#37474f"></path><path d="M86.7,403c0-.08-.08-.15-.1-.21l-.12,0c.5.05,1.07-.34,1.53.09.09.25-.3.58-.58.57a2.21,2.21,0,0,1-1.05-.34Z" style="fill:#37474f"></path><path d="M85.35,361a1,1,0,0,1,1-.06.6.6,0,0,1,.39.59c0,.31-.27.44-.5.52s-.4-.17-.64,0c.28-.48-.62-.22-.25-.57l-.18-.14A.21.21,0,0,0,85.35,361Z" style="fill:#37474f"></path><path d="M84.81,369l.06,0v0l.13,0,0,.11-.21-.18S84.77,369,84.81,369Z" style="fill:#37474f"></path><path d="M88.62,396.38l0-.25c.14.13.47.12.71.15s.4.11.41.46c0,.52-.32.55-.64.7-.1-.24-.3-.05-.48-.07,0-.06,0-.08.07-.13-.33-.08-.07-.23-.36-.38l.06-.05-.24-.17C88.55,396.67,88.24,396.24,88.62,396.38Z" style="fill:#37474f"></path><path d="M86,369.08c0,.2-.27.18-.33.22l-.51-.13.16-.14c-.14.27.2.23.25.26s.15-.14.13-.25c-.11-.33-.41-.13-.54-.14l0,0-.31-.1C85.23,368.71,85.77,368.58,86,369.08Z" style="fill:#37474f"></path><path d="M93.73,375c.07,0,.13,0,.16.08l0,.19-.21-.15C93.68,375.06,93.75,375.05,93.73,375Z" style="fill:#37474f"></path><path d="M94.52,391.39s0,.08,0,.14l-.14.07,0,0c0,.06.11-.23,0-.34,0,.08.07.08.13.08Z" style="fill:#37474f"></path><path d="M102.79,375.83l.06,0-.07.17C102.64,376,102.6,375.81,102.79,375.83Z" style="fill:#37474f"></path><path d="M103.18,376.15l-.08,0,.07.19.39,0,0-.1,0,.1c.15,0,.11-.16.17-.22-.15-.19-.44-.14-.68-.09l0-.08a1.87,1.87,0,0,1,1.18.44.38.38,0,0,1,0,.37,1.59,1.59,0,0,1-1.3-.59Z" style="fill:#37474f"></path><polygon points="103.53 376.58 103.49 376.5 103.7 376.44 103.53 376.58" style="fill:#37474f"></polygon><path d="M103.66,397.13c.23.28,0,.56-.24.69-.18-.09-.41,0-.6-.07,0-.05.27-.37,0-.42.12.24-.27.18-.44.11l.23,0c0-.23-.23-.22-.31-.43h.23l-.1-.29C102.82,396.81,103.29,396.76,103.66,397.13Z" style="fill:#37474f"></path><path d="M106,383.81c.49.24,1,.26,1.08.9-.11.29-.55.24-.79.17l-.62-.38.08,0-.1-.38h.08l-.12-.23C105.77,384,106.06,384,106,383.81Z" style="fill:#37474f"></path><path d="M106.54,384.29c0-.14-.22-.17-.29-.24a.48.48,0,0,1,.31,0c.15.23-.14.36-.19.49-.24,0-.45-.31-.61-.28C106.21,384.44,106.06,384,106.54,384.29Z" style="fill:#37474f"></path><path d="M106.43,384.48c-.07,0-.13,0-.13,0l0,.07-.13-.08,0-.07.08.05,0-.24Z" style="fill:#37474f"></path><path d="M100.45,397.09c.06.1-.1.2-.13.3-.28.12-.49-.08-.72-.22.18,0,.2.15.42,0l0-.3c-.12,0-.3,0-.29-.09C100,396.81,100.33,396.82,100.45,397.09Z" style="fill:#37474f"></path><path d="M109.52,383.57v.23l-.39,0c.06,0,.13,0,.13,0l0-.12-.36.09c0-.14-.14-.15-.2-.22l.17.11.06-.09,0,.09.27-.15-.58-.37C108.92,383.23,109.32,383.25,109.52,383.57Z" style="fill:#37474f"></path><path d="M112.65,414.61c.31-.23-.19-.31-.2-.49.17,0,.2.32.44.17a.43.43,0,0,0-.35-.41l0,0c.33,0,.69.54,1.08.24-.09-.07-.07-.29.08-.3.33.22.66,0,1,.18l-.06-.19a5,5,0,0,1,.88.59c0-.48.5.31.66,0,0,.32.14.6.35.55a1.64,1.64,0,0,1,0,1.51c0,.33-.25.22-.51.49v-.11c-.09.09-.29.08-.25.26a.59.59,0,0,0-.56,0c-.14.19-.45.25-.56.08-.09,0-.11.07-.14.11a.33.33,0,0,0-.3-.08,3.74,3.74,0,0,0-1.56-.38l.19,0,0-.21-.56.09c.16-.14.52-.11.54-.37s-.29-.18-.43-.25h.2c0-.25-.44-.16-.52-.45.42-.1.35-.39.24-.68l-.46-.33A.63.63,0,0,0,112.65,414.61Z" style="fill:#37474f"></path><path d="M111.05,387.08c-.08,0-.12.05-.17.11,0,.22.18.28.28.42l.18-.11c0-.23-.27-.05-.2-.3.28-.17.39.26.6.4-.08.41-.48.17-.65,0s-.28-.39-.41-.58C110.73,387.06,111,386.92,111.05,387.08Z" style="fill:#37474f"></path><path d="M114.15,390.42c.19.3.22.78,0,.87,0,.17-.22.14-.3.2.25.22.39.68,0,.86-1.13-.19-1.45-1.36-1.71-1.9l.27-.05-.15-.26A2,2,0,0,1,114.15,390.42Z" style="fill:#37474f"></path><path d="M137.75,410.88l-.11-.08a1.7,1.7,0,0,0,.59,0c0-.11,0-.21-.13-.27H138c.11-.05.37.28.45-.06l0-.09c.42.42.83.06,1.21.44.64-.15.72.65,1,.85-.15.15,0,.36,0,.55l-.66.88a1.63,1.63,0,0,0-.74.14,1.53,1.53,0,0,1,.15,1.08c-.18.64-.74.28-1.13.52-.12-.29-.46-.36-.74-.39h-.17c.48-.23-.23-.57-.4-.84l-.15-.11c.15,0,.3.13.41,0l-.36-.27a.41.41,0,0,0,.3.05V413c.07.09.16,0,.23,0s0-.15,0-.23l.25,0c0-.22-.17-.36.06-.52l-.45-.47h.23a.29.29,0,0,0-.17-.29h-.08l.22-.06-.33-.32C137.31,411,137.85,411.32,137.75,410.88Z" style="fill:#37474f"></path><path d="M91.45,403l-.11-.08a1.37,1.37,0,0,0,.6,0c0-.11,0-.21-.14-.27h-.07c.11-.05.37.28.45-.06l0-.09c.43.42.84,0,1.23.45.65-.16.73.65,1.05.86-.15.15,0,.37,0,.56l-.67.89a1.71,1.71,0,0,0-.76.14,1.6,1.6,0,0,1,.16,1.1c-.19.65-.76.28-1.15.53-.12-.29-.47-.36-.75-.4h-.18c.49-.24-.23-.59-.4-.86l-.15-.11c.14,0,.3.13.42,0l-.37-.28a.37.37,0,0,0,.3.05v-.23c.07.09.16,0,.24,0s0-.16,0-.23l.26,0c0-.23-.17-.37.06-.53L91,404h.23a.31.31,0,0,0-.18-.31h-.08l.23-.07-.34-.32C91,403.13,91.55,403.44,91.45,403Z" style="fill:#37474f"></path><path d="M114.69,409.35l0-.18c.43,0,1.08-.32,1.64.14.37.23.43.55.67.95-.22.68-.67.79-1.28.91-.18-.3-.88-.33-1.15-.59l-.12,0,.26-.05-.56-.73C114.34,409.74,114.48,409.47,114.69,409.35Z" style="fill:#37474f"></path><rect x="111.59" y="395.66" width="0.05" height="0.19" transform="translate(-277.82 263.78) rotate(-55.53)" style="fill:#37474f"></rect><path d="M115.57,396.39a.2.2,0,0,1-.14.06c.13,0,.11-.35-.1-.29C115.45,396.14,115.68,396.23,115.57,396.39Z" style="fill:#37474f"></path><path d="M117.32,398v-.1c-.06,0,.35.08.34-.15.83.05.26,1.28,1.26,1.05.08.53.68.72.44,1.28a.92.92,0,0,1-1.12.23l-.57-.23c.09-.07,0-.2-.08-.22l-.21-.15c.37-.21-.24-.33-.2-.61l.06,0c.19-.36-.29-.43-.23-.79l-.13-.19C117,397.93,117.17,398,117.32,398Z" style="fill:#37474f"></path><path d="M125.17,404.82c-.09-.16.27.11.18-.17.21.16.34-.1.52,0v-.06c.23.37.61-.3.91.37.43-.1.23.53.51.59a1,1,0,0,1-.5,1.05c-.42.16-.21,0-.71.12l-.26,0c.13-.38-.49.15-.4-.3-.17-.09-.35,0-.49-.21a.18.18,0,0,0,.16-.09c0-.17-.21-.21-.29-.3l.14-.1-.16-.27c.07,0,.11,0,.15-.09l-.12-.15C124.87,404.9,125.28,405.23,125.17,404.82Z" style="fill:#37474f"></path><path d="M83.88,404.49c-.09-.16.27.11.18-.17.21.16.34-.1.52,0v-.06c.23.37.61-.3.91.37.43-.1.24.53.51.59a1,1,0,0,1-.5,1.05c-.42.16-.2,0-.71.12l-.25,0c.12-.38-.49.15-.41-.3-.16-.09-.35,0-.49-.21a.17.17,0,0,0,.16-.09c0-.17-.21-.21-.29-.3l.14-.1-.16-.27c.07,0,.11,0,.16-.09l-.13-.15C83.59,404.57,84,404.9,83.88,404.49Z" style="fill:#37474f"></path><path d="M71.51,389.84c-.1-.16.27.11.18-.17.21.16.34-.1.52,0v-.06c.23.37.6-.3.91.37.42-.1.23.53.51.59a1,1,0,0,1-.5,1c-.42.16-.21,0-.72.12l-.25,0c.13-.38-.49.15-.4-.3-.17-.09-.35,0-.49-.21a.15.15,0,0,0,.15-.09c0-.17-.2-.21-.28-.3l.14-.1-.16-.27c.07,0,.11,0,.15-.09l-.12-.15C71.21,389.92,71.62,390.25,71.51,389.84Z" style="fill:#37474f"></path><polygon points="124.03 407.27 123.67 407.06 123.89 407.17 124.03 407.27" style="fill:#37474f"></polygon><path d="M126.59,419.38l.1-.14c.1.17.21-.05.33-.05.25.22.67.45.55.77l-.41.35c-.08-.17-.35-.08-.53-.12.14-.14-.2-.25-.17-.25l.08,0a.94.94,0,0,1-.19-.5A.13.13,0,0,0,126.59,419.38Z" style="fill:#37474f"></path><rect x="126.59" y="419.61" width="0.05" height="0.23" transform="translate(-285.58 270.4) rotate(-53.3)" style="fill:#37474f"></rect><path d="M120.09,430.64a.43.43,0,0,1-.07.76.58.58,0,0,1-.58-.29C119.3,430.83,119.75,430.27,120.09,430.64Z" style="fill:#37474f"></path><path d="M130.07,415.55c.09-.16.1-.09.27-.26.22.06.56.22.58.5a.55.55,0,0,1-.38.51c-.31,0-.2,0-.48-.12-.05-.24-.25-.46-.05-.67Z" style="fill:#37474f"></path><path d="M131.89,415.79c-.06.12-.15.12-.26.13s-.15-.25,0-.32Z" style="fill:#37474f"></path><path d="M127.34,423.59a.53.53,0,0,1,.51.17c0,.12,0,.3-.16.3a.77.77,0,0,1-.5-.16c0-.11,0-.27.17-.23Z" style="fill:#37474f"></path><path d="M127.49,423.85l0,.08c.15,0-.34.05-.16-.18S127.48,423.79,127.49,423.85Z" style="fill:#37474f"></path><path d="M125.23,427.3l-.16-.27c.14.16.32.12.52.09a.18.18,0,0,0,0-.17c.1.13.25.1.39.15l0-.25c.42.44,1.45.71,1.24,1.65l-.64.65v-.06c-.39.24-.68.05-1.05.18l-.08.1-.09-.34c-.21.05,0-.12-.15-.2l-.5-.08c0-.09.13-.05.19-.06.06-.23-.15-.18-.28-.22.19-.09.12-.39.12-.78-.09,0-.12,0-.18-.07.09.07.2,0,.29,0l0,0-.27-.3C124.84,427.18,125.06,427.59,125.23,427.3Z" style="fill:#37474f"></path><path d="M130.25,421.23c.23,0,.28-.06.3-.25l0-.12c-.1,0,.2.09.16.23.19,0,.3-.31.49,0,.29,0,.09-.3.17-.44.27.17,0,.43.4.53.63-.32.58.64,1,.6,0,0,.31.2.17.39.07.09.17,0,.23,0,.17.3-.12.81.09.94s-.06.33,0,.51a.28.28,0,0,0-.09.33c-.48-.06.12.59-.38.42-.18.1,0,.32,0,.4s-.14-.29-.35-.28c.14.65-.56.12-.73.66,0-.17-.23-.18-.33-.09l-.08.11c-.08-.39-.53-.1-.7-.23s-.23-.74-.81-.51c-.27,0,.2-.75-.38-.69l-.26,0c0-.28.45,0,.37-.35s-.28,0-.46-.05c.07-.05.75-.17.37-.59l-.44-.16c.16-.08.39-.11.52-.25.12-.34-.43-.19-.24-.34.16,0,.34.12.41-.1l-.21-.48C129.78,421.64,130,421.1,130.25,421.23Z" style="fill:#37474f"></path><path d="M135.14,434.49s0-.1,0-.11c.18-.2.64-.14.77-.49.36.28.72-.38,1,.06.2.08.32-.29.41.07.09,0,.14,0,.19-.12.31.47.91.56,1,1.13.22.2-.1.53.24.65l-.19,0c-.09.3.23.71-.25.85l-.09.33a1.39,1.39,0,0,0-.83.44c-.21,0-.51-.29-.66,0-.2-.35-.45.07-.68.06l0-.19-.28.06c.05-.1.18-.14.12-.24a.85.85,0,0,0-.73-.09s.06-.12.15-.12c0-.26-.28,0-.4-.21l.08-.11-.19-.14.09,0c0-.31-.31-.24-.46-.35.08-.07.33-.05.29-.25l-.05-.38c-.07.05-.13,0-.19,0l.38-.21c0-.3-.44,0-.49-.27C134.81,435,134.72,434.51,135.14,434.49Z" style="fill:#37474f"></path><path d="M142.49,418.21c-.06.12,0,.28-.12.37s-.41-.21-.39-.36C142.28,418.21,142.21,418,142.49,418.21Z" style="fill:#37474f"></path><path d="M151.61,411.39c.13,0,.11.15.13.27s-.36.16-.52.14c-.2-.22.07-.08-.06-.35A.38.38,0,0,1,151.61,411.39Z" style="fill:#37474f"></path><path d="M140.27,432.28c.08.16.27.21.23.44-.13,0-.28.23-.44.14l-.15-.11c0-.19.42.05.23-.3l-.22.07C140,432.4,140.09,432.25,140.27,432.28Z" style="fill:#37474f"></path><path d="M146.74,425.3a1.3,1.3,0,0,1,.41-.32,1.44,1.44,0,0,1,1,.43c.11.56.29.8-.08,1.15.1.27-.42.08-.21.41-.18,0-.51-.25-.5.13.16-.12-.28-.29-.4-.31l-.06.08c-.07-.05,0-.22-.15-.24-.3.17-.15-.29-.4-.31.1,0,.12-.07.17-.14s-.15-.15-.22-.23h.09v-.41l.19,0-.1-.18Z" style="fill:#37474f"></path><path d="M55.43,395.1a1.31,1.31,0,0,1,.37-.28,1.29,1.29,0,0,1,.9.39c.1.49.26.71-.07,1,.09.25-.38.07-.19.37-.16,0-.45-.23-.44.11.14-.1-.26-.25-.36-.27l-.06.07c-.06,0,0-.2-.13-.22-.27.16-.13-.25-.36-.27.09,0,.11-.07.16-.12s-.14-.14-.2-.22h.08v-.37l.17,0-.09-.15Z" style="fill:#37474f"></path><path d="M146.7,427.45c.13,0,.4.31.55,0,.06.1.18.06.27,0l.09-.1c0,.13.11.15.16.22s.12-.11.2-.18c0,.13.1.18.1.31l.25.07c0,.06,0,.14,0,.22.46.06.24.56.43.8s-.36.47,0,.79c-.67.08-.33.78-1.11.93,0,0-.12-.06-.12-.16-.18-.07-.29.17-.3.31-.1-.09-.08-.2-.09-.32-.44.31-.63-.31-.92-.29.17-.18-.21-.2-.18-.38l-.18,0,.22-.16c-.14,0-.15-.25-.4-.14.08-.31.48-.54.1-.73.17,0,.23-.13.33-.22C145.73,427.89,146.77,428,146.7,427.45Z" style="fill:#37474f"></path><path d="M149.44,434.23c.24-.09.09-.37,0-.44a.38.38,0,0,0,.3-.17c0-.14-.11-.16-.16-.23.18-.06.36.41.5.09l0-.19.33.09v-.31c.1.15.49.28.65,0l.09-.34c.06,0,.07.09.06.15.26.13.27-.5.49-.13.16-.38.62-.5.72-.72.13.19.25,0,.36-.07s.06.19.16.23c.22-.27.1.22.33.09.12.19.08.56.4.54-.4.13-.09.5-.21.71.36.22.25-.41.57-.36,0,.37-.54.49-.15.85l.26,0c0,.15-.2.48.13.44l-.08.41.2.08c0,.09-.16.12-.11.23s.16,0,.23,0a.57.57,0,0,0-.18.53l.22.07-.31.4c.35.2-.29.28,0,.59-.46,0-.21.48-.16.62-.11,0-.22-.14-.32,0-.32.19.09.31.1.48l-.33-.19c-.16.08-.23.3-.28.46l.06.05c-.1.12-.62,0-.45.36,0-.06-.08,0-.15,0s0,.33-.11.45,0-.71-.44-.34l-.32.5.09-.5c-.7-.27-.88.87-1.54.43.2-.22,0-.46-.16-.53-.29-.23-.51.28-.78,0,.37-.35-.09-.84-.37-.86s-.35.24-.53.16c.07-.18.57-.22.47-.61l-.37-.05c.17,0,.25-.28.25-.45l-.27,0c.1-.09.37-.08.23-.29l-.32-.11c.06-.12.26,0,.28-.19s0-.38-.23-.31.34-.1.14-.4l-.19-.15c.17,0,.4.05.5-.25l-.36-.28c.13,0,.31,0,.36-.12l-.23-.35C149,434.23,149.26,434.43,149.44,434.23Z" style="fill:#37474f"></path><path d="M134.7,405.59c.21.22.62.3.48.76-.23.26-.73.75-1,.23l-.19,0-.1-.48c.31-.06,0-.48.38-.51C134.41,405.67,134.62,405.8,134.7,405.59Z" style="fill:#37474f"></path><path d="M135.53,407.17l.38.12Z" style="fill:#37474f"></path><polygon points="136.67 407.56 136.15 407.41 136.2 407.35 136.05 407.33 136.13 407.22 136.67 407.56" style="fill:#37474f"></polygon><path d="M132.21,404c-.06,0-.05-.06-.07-.12s.18.07.29,0l-.17-.3a.76.76,0,0,0,.67-.06v-.07a1.72,1.72,0,0,1,1.37.7c.13.37.14.9.58,1.06,0,.26-.34,0-.24.23s-.13.66-.18,1c-.47,0-.52.2-.82.42-.16,0-.42-.19-.49.12l0-.28c-.27,0-.3.28-.46.39l-.09-.4c-.31.14-.66-.23-.9-.27,0-.48-.62-.34-.92-.29,0-.28.73-.26.62-.74-.07,0-.16.08-.23,0-.08-.43.61-.15.42-.56l-.82,0C131.39,404.69,132,404.77,132.21,404Z" style="fill:#37474f"></path><path d="M99.86,387.16c-.06,0,0-.07-.08-.12a1.11,1.11,0,0,0,.3,0l-.18-.31a.74.74,0,0,0,.69-.06v-.07a1.73,1.73,0,0,1,1.4.71c.13.37.14.91.59,1.08,0,.26-.34-.05-.25.23s-.13.67-.18,1c-.47-.05-.53.21-.83.43-.17,0-.43-.19-.5.13l0-.29c-.27,0-.31.28-.47.4l-.09-.41c-.31.14-.67-.23-.91-.28,0-.48-.63-.34-.94-.29,0-.28.74-.26.63-.75-.07,0-.16.08-.23,0-.08-.43.62-.14.42-.56l-.83,0C99,387.82,99.64,387.91,99.86,387.16Z" style="fill:#37474f"></path><path d="M136.91,407.64l.3.05Z" style="fill:#37474f"></path><polygon points="132.12 407.9 132.08 407.87 132.21 407.7 132.12 407.9" style="fill:#37474f"></polygon></g><g id="freepik--Character--inject-1044"><path d="M223.25,279.17,187,295s-18.37-71.18-20.11-73.31c-1.88-2.31-65.84,4.09-81-9.83-11.4-10.48-.76-34-.76-34h47.78l-.68,4.88s50.43-2.75,63.72,6.44C208.12,197.52,223.25,279.17,223.25,279.17Z" style="fill:#ECEFF1"></path><g style="opacity:0.1"><path d="M223.25,279.17,187,295s-18.37-71.18-20.11-73.31c-1.88-2.31-65.84,4.09-81-9.83-11.4-10.48-.76-34-.76-34h47.78l-.68,4.88s50.43-2.75,63.72,6.44C208.12,197.52,223.25,279.17,223.25,279.17Z"></path></g><path d="M208.27,285.68,187,295s-18.37-71.18-20.11-73.31c-.71-.87-10.19-.51-22.56-.47-14-1.81-26.79-6.61-31.29-13.48-5.37-8.2,14.12-17.41,22.72-17.1s39.49,9.28,47.84,19.68C190.76,219.24,205.39,270.88,208.27,285.68Z" style="opacity:0.1"></path><path d="M223.21,279.15l-18.77,8.19c-3.44-12.15-19.5-68.76-20.19-70.93-.78-2.42-15.65-10.31-16.38-12.13s.88-8.77,1.34-11.33c.39-2.21,3.7-7.34,7.39-9.23,8.28,1,15.49,2.72,19.35,5.39C208.08,197.5,223.21,279.15,223.21,279.15Z" style="fill:#ebebeb"></path><path d="M187.28,184.18a11.78,11.78,0,0,1,4.18.57c1.66.6,3.8,2,3.37,2.48-6.84,6.84-11.73,14-12.63,14.26s-5.41-3-5.53-4.35S185.14,184.63,187.28,184.18Z" style="fill:#37474f"></path><path d="M183,201.89a9.88,9.88,0,0,0,2.15,3.45c.79.68,3.65,2.88,4.27,2.28,2.25-2.18,12.53-10.82,12.7-11.22s-2.24-5.6-3.24-6.33-3.32-2.61-3.66-2.49S183.18,200.59,183,201.89Z" style="fill:#37474f"></path><path d="M189.91,208.25c0,.73,3.64,3.09,4.36,3.3s8.23-2.76,8.7-3.27a19.07,19.07,0,0,0,2.16-5.3c0-.76-2.41-6-2.75-5.94S189.92,207.48,189.91,208.25Z" style="fill:#37474f"></path><path d="M176.36,196.19c.48-.49,5.35-8.36,9.72-11.71.37-.28-4.84-1.4-5.43-1.36s-4.54,3.23-4.88,3.86a41.84,41.84,0,0,0-1.61,6.79C174.24,194.28,176,196.61,176.36,196.19Z" style="fill:#37474f"></path><path d="M264.56,304.45c-1.72,1.66-60.17,29.55-63.07,29.2-1.11-.12-5.67-8.4-10.89-18.56,0-.11-14-42.06-12.47-37l20.56-13.59,22.16-7.19L228.24,297s27.15-.67,30.3.06S266.27,302.79,264.56,304.45Z" style="fill:#37474f"></path><path d="M262.81,302.5c-10,4.46-49.76,23.39-59.27,28.55-.08,0,0,.1,0,.06,10-4.2,49.61-23.45,59.32-28.45C263.09,302.55,263,302.4,262.81,302.5Z" style="fill:#263238"></path><path d="M221.82,260l2.69,5.67.84,8.18s-25.28,11.43-25.86,11.26-8.12.73-8.78-.25-2.33-2.61-1.77-4.37,5.17-8.78,5.87-9.16S221.82,260,221.82,260Z" style="fill:#263238"></path><path d="M226.52,274.4l2.69,5.67.84,8.18s-25.28,11.43-25.85,11.26-5-.28-5.64-1.26-3.32-3.9-2.76-5.67,3-6.47,3.72-6.85S226.52,274.4,226.52,274.4Z" style="fill:#263238"></path><path d="M229.12,296.59s18-.58,18.38-.38-4.14,10-4.86,10.49-16.22,4.3-16.83,3a11.1,11.1,0,0,1-.72-4.66C225.19,303.94,228.34,297.07,229.12,296.59Z" style="fill:#263238"></path><path d="M258,226a8.85,8.85,0,0,0,1.85-3.68c.2-1.23-15.15-37-15.15-37.45s3.89-16.37,4.5-17.19,25.59-33.16,26.2-33.57,27-15.14,28-15.76,9-9.2,9.21-10-43.8,14.32-44.82,15.14-40.75,43.44-42,45.43c-.55.93.62,16.48,1.64,17.68C229.3,188.66,258,226,258,226Z" style="fill:#455a64"></path><path d="M247.12,203.86c-2-3.11-4.06-6.23-6-9.38s-4-6.27-5.93-9.44l-.07-.11v-.13c.39-5.46.73-10.92,1.19-16.38l0-.14.09-.11c3.15-3.68,6.28-7.38,9.49-11l4.79-5.48,4.85-5.42L251,151.93l-4.61,5.63c-3.06,3.76-6.2,7.46-9.31,11.18l.11-.25c-.36,5.46-.84,10.91-1.26,16.37l-.06-.24c1.94,3.17,3.8,6.39,5.7,9.58S245.29,200.63,247.12,203.86Z" style="opacity:0.2"></path><path d="M309.09,112.57a66.46,66.46,0,0,1-5.65,5.74c-1,.62-27.43,15.36-28,15.76s-25.58,32.75-26.2,33.57-4.49,16.78-4.49,17.19c0,.19,3.37,8.18,6.95,16.74L241,182.07l2-16.92,26.13-34.66Z" style="fill:#37474f"></path><path d="M361.92,114a67.59,67.59,0,1,0,67.59,67.58A67.59,67.59,0,0,0,361.92,114Zm0,113.42a45.84,45.84,0,1,1,45.84-45.84A45.84,45.84,0,0,1,361.92,227.39Z" style="fill:#263238"></path><polygon points="366.68 115.09 357.16 115.09 358.08 111.1 365.76 111.1 366.68 115.09" style="fill:#263238"></polygon><polygon points="355.06 115.27 345.69 116.93 345.9 112.84 353.46 111.5 355.06 115.27" style="fill:#263238"></polygon><polygon points="343.66 117.47 334.71 120.73 334.22 116.66 341.43 114.04 343.66 117.47" style="fill:#263238"></polygon><polygon points="332.81 121.61 324.56 126.38 323.37 122.46 330.01 118.62 332.81 121.61" style="fill:#263238"></polygon><polygon points="322.84 127.58 315.55 133.7 313.69 130.05 319.57 125.12 322.84 127.58" style="fill:#263238"></polygon><polygon points="314.06 135.19 307.95 142.48 305.48 139.21 310.42 133.33 314.06 135.19" style="fill:#263238"></polygon><polygon points="306.74 144.2 301.98 152.44 298.99 149.65 302.82 143 306.74 144.2" style="fill:#263238"></polygon><polygon points="301.09 154.35 297.84 163.29 294.4 161.06 297.03 153.85 301.09 154.35" style="fill:#263238"></polygon><polygon points="297.29 165.32 295.64 174.7 291.87 173.1 293.2 165.54 297.29 165.32" style="fill:#263238"></polygon><polygon points="295.46 176.79 295.46 186.31 291.47 185.39 291.47 177.72 295.46 176.79" style="fill:#263238"></polygon><polygon points="295.64 188.41 297.29 197.78 293.2 197.57 291.87 190.01 295.64 188.41" style="fill:#263238"></polygon><polygon points="297.84 199.81 301.09 208.76 297.03 209.25 294.4 202.04 297.84 199.81" style="fill:#263238"></polygon><polygon points="301.98 210.66 306.74 218.91 302.82 220.1 298.99 213.46 301.98 210.66" style="fill:#263238"></polygon><polygon points="307.95 220.63 314.06 227.92 310.42 229.78 305.48 223.9 307.95 220.63" style="fill:#263238"></polygon><polygon points="315.55 229.41 322.84 235.53 319.57 237.99 313.69 233.06 315.55 229.41" style="fill:#263238"></polygon><polygon points="324.56 236.73 332.81 241.49 330.01 244.49 323.37 240.65 324.56 236.73" style="fill:#263238"></polygon><polygon points="334.71 242.38 343.66 245.63 341.43 249.07 334.22 246.44 334.71 242.38" style="fill:#263238"></polygon><polygon points="345.69 246.18 355.06 247.83 353.46 251.6 345.9 250.27 345.69 246.18" style="fill:#263238"></polygon><polygon points="357.16 248.01 366.68 248.01 365.76 252.01 358.08 252.01 357.16 248.01" style="fill:#263238"></polygon><polygon points="368.77 247.83 378.15 246.18 377.93 250.27 370.37 251.6 368.77 247.83" style="fill:#263238"></polygon><polygon points="380.18 245.63 389.12 242.38 389.62 246.44 382.41 249.07 380.18 245.63" style="fill:#263238"></polygon><polygon points="391.03 241.49 399.27 236.73 400.47 240.65 393.82 244.49 391.03 241.49" style="fill:#263238"></polygon><polygon points="400.99 235.53 408.29 229.41 410.14 233.06 404.26 237.99 400.99 235.53" style="fill:#263238"></polygon><polygon points="409.77 227.92 415.89 220.63 418.36 223.9 413.42 229.78 409.77 227.92" style="fill:#263238"></polygon><polygon points="417.1 218.91 421.86 210.66 424.85 213.46 421.01 220.1 417.1 218.91" style="fill:#263238"></polygon><polygon points="422.74 208.76 426 199.81 429.44 202.04 426.81 209.25 422.74 208.76" style="fill:#263238"></polygon><polygon points="426.54 197.78 428.2 188.41 431.97 190.01 430.63 197.57 426.54 197.78" style="fill:#263238"></polygon><polygon points="428.38 186.31 428.38 176.79 432.37 177.72 432.37 185.39 428.38 186.31" style="fill:#263238"></polygon><polygon points="428.2 174.7 426.54 165.32 430.63 165.54 431.97 173.1 428.2 174.7" style="fill:#263238"></polygon><polygon points="426 163.29 422.74 154.35 426.81 153.85 429.44 161.06 426 163.29" style="fill:#263238"></polygon><polygon points="421.86 152.44 417.1 144.2 421.01 143 424.85 149.65 421.86 152.44" style="fill:#263238"></polygon><polygon points="415.89 142.48 409.77 135.19 413.42 133.33 418.36 139.21 415.89 142.48" style="fill:#263238"></polygon><polygon points="408.29 133.7 400.99 127.58 404.26 125.12 410.14 130.05 408.29 133.7" style="fill:#263238"></polygon><polygon points="399.27 126.38 391.03 121.61 393.82 118.62 400.47 122.46 399.27 126.38" style="fill:#263238"></polygon><polygon points="389.12 120.73 380.18 117.47 382.41 114.04 389.62 116.66 389.12 120.73" style="fill:#263238"></polygon><polygon points="378.15 116.93 368.77 115.27 370.37 111.5 377.93 112.84 378.15 116.93" style="fill:#263238"></polygon><circle cx="361.92" cy="181.55" r="19.65" transform="translate(102.68 492.59) rotate(-76.83)" style="fill:#263238"></circle><circle cx="361.92" cy="181.55" r="13.51" transform="translate(102.49 492.43) rotate(-76.8)" style="fill:#a6a6a6"></circle><path d="M361.92,129.46A52.1,52.1,0,1,0,414,181.55,52.08,52.08,0,0,0,361.92,129.46Zm0,97.93a45.84,45.84,0,1,1,45.84-45.84A45.84,45.84,0,0,1,361.92,227.39Z" style="fill:#a6a6a6"></path><path d="M361.92,139.23l4.16.07c1.38.14,2.76.34,4.14.51s2.72.63,4.08.94,2.64.9,4,1.35a41.33,41.33,0,0,1,23.12,23.11c.44,1.32.94,2.63,1.34,4s.68,2.7.95,4.07.36,2.76.5,4.14l.08,4.16a45,45,0,0,0-3.58-16.05A43.51,43.51,0,0,0,378,142.8,45,45,0,0,0,361.92,139.23Z" style="fill:#a6a6a6"></path><path d="M319.59,181.55a34.36,34.36,0,0,1,.34-7.84,37,37,0,0,1,5.67-14.63c.73-1.09,1.51-2.15,2.34-3.17a36.38,36.38,0,0,1,2.69-2.86c-.39.53-.79,1-1.18,1.56l-1.12,1.6-1.08,1.61-1,1.66a50.64,50.64,0,0,0-3.34,7,50,50,0,0,0-2.22,7.4A56.43,56.43,0,0,0,319.59,181.55Z" style="fill:#a6a6a6"></path><path d="M392.55,210.76a40,40,0,0,1-5.68,5.27,42.79,42.79,0,0,1-6.61,4.09,41.16,41.16,0,0,1-15,4.12,42.39,42.39,0,0,1-15.44-1.71,40,40,0,0,1-13.61-7.33,46.2,46.2,0,0,0,6.65,3.89,42.2,42.2,0,0,0,7.17,2.7,42.83,42.83,0,0,0,15.15,1.45,41.65,41.65,0,0,0,7.53-1.23,44.14,44.14,0,0,0,7.2-2.58A45.49,45.49,0,0,0,392.55,210.76Z" style="fill:#a6a6a6"></path><path d="M400.19,181.55l-.06,3.77c-.12,1.25-.29,2.49-.44,3.75s-.57,2.45-.85,3.68-.81,2.4-1.21,3.6a37.27,37.27,0,0,1-20.92,20.92c-1.2.4-2.38.85-3.59,1.21s-2.45.61-3.69.85-2.5.32-3.75.44l-3.76.06a41.07,41.07,0,0,0,14.5-3.27,39.35,39.35,0,0,0,20.5-20.51A40.63,40.63,0,0,0,400.19,181.55Z" style="fill:#a6a6a6"></path><path d="M361.92,143.28a30.72,30.72,0,0,1,7.1.27,32.82,32.82,0,0,1,13.24,5.13c1,.67,1.94,1.38,2.86,2.13a33.05,33.05,0,0,1,2.57,2.45l-1.42-1.06-1.44-1c-1-.66-2-1.29-3-1.87a46.61,46.61,0,0,0-6.3-3,47.15,47.15,0,0,0-6.68-2A55.57,55.57,0,0,0,361.92,143.28Z" style="fill:#a6a6a6"></path><path d="M335.5,209.25a36.24,36.24,0,0,1-4.78-5.12,38.26,38.26,0,0,1-3.71-6,37.15,37.15,0,0,1-3.73-13.55,38,38,0,0,1,1.55-14,36,36,0,0,1,6.66-12.29,42.06,42.06,0,0,0-3.49,6,37.86,37.86,0,0,0-2.43,6.49,38.76,38.76,0,0,0-1.3,13.68,38.25,38.25,0,0,0,1.1,6.8,40.88,40.88,0,0,0,10.13,17.93Z" style="fill:#a6a6a6"></path><path d="M350.05,213.35c-1-.39-2.08-.79-3.11-1.21s-2-1-3-1.52-1.87-1.23-2.81-1.84-1.74-1.41-2.61-2.12a32.93,32.93,0,0,1-10.91-23.89c0-1.12,0-2.25.12-3.36s.25-2.23.44-3.33.52-2.18.81-3.25.75-2.1,1.14-3.14a36.5,36.5,0,0,0-1.74,13.05,35,35,0,0,0,10.66,23.36A36.64,36.64,0,0,0,350.05,213.35Z" style="fill:#a6a6a6"></path><path d="M393.71,193.42a26.19,26.19,0,0,1-2.39,5.84,28.79,28.79,0,0,1-8.37,9.42c-.87.6-1.76,1.17-2.67,1.7a29.76,29.76,0,0,1-2.85,1.36c.44-.3.87-.59,1.31-.87L380,210c.84-.61,1.67-1.23,2.46-1.9a42.84,42.84,0,0,0,4.43-4.3,41.63,41.63,0,0,0,3.75-4.91A48.93,48.93,0,0,0,393.71,193.42Z" style="fill:#a6a6a6"></path><path d="M347.1,151a31.73,31.73,0,0,1,5.73-2.41,34.23,34.23,0,0,1,6.12-1.24,32.9,32.9,0,0,1,12.44,1.09,33.59,33.59,0,0,1,11.14,5.64,31.68,31.68,0,0,1,8.11,9.38,38.2,38.2,0,0,0-3.94-4.75,32.81,32.81,0,0,0-4.64-4,34.31,34.31,0,0,0-10.95-5.3,33.7,33.7,0,0,0-6-1.2,36.68,36.68,0,0,0-6.11-.09A37.23,37.23,0,0,0,347.1,151Z" style="fill:#a6a6a6"></path><path d="M384.33,161c.67.73,1.35,1.47,2,2.22s1.18,1.61,1.78,2.42,1,1.75,1.49,2.62.83,1.83,1.24,2.75a29.49,29.49,0,0,1-1,23.55c-.49.88-.95,1.78-1.47,2.64s-1.12,1.67-1.72,2.47-1.3,1.53-2,2.27-1.46,1.37-2.19,2a32.73,32.73,0,0,0,6.66-9.73,31.42,31.42,0,0,0,1-23A33,33,0,0,0,384.33,161Z" style="fill:#a6a6a6"></path><path d="M341.36,159.14a24.85,24.85,0,0,1,20.45-8,39.51,39.51,0,0,0-20.45,8Z" style="fill:#a6a6a6"></path><path d="M361.33,212a28.06,28.06,0,0,1-5.56-.38,29.78,29.78,0,0,1-5.4-1.48,28.79,28.79,0,0,1-9.51-5.93,29.3,29.3,0,0,1-6.6-9.06,27.93,27.93,0,0,1-2.63-10.81,32.92,32.92,0,0,0,1.24,5.39,29.15,29.15,0,0,0,2.08,5.08,31.76,31.76,0,0,0,6.59,8.67,31.17,31.17,0,0,0,9.11,5.95A33.6,33.6,0,0,0,361.33,212Z" style="fill:#a6a6a6"></path><path d="M177.71,330.92a52.94,52.94,0,1,0,52.94,52.93A52.93,52.93,0,0,0,177.71,330.92Zm0,88.84a35.9,35.9,0,1,1,35.91-35.91A35.9,35.9,0,0,1,177.71,419.76Z" style="fill:#263238"></path><polygon points="181.44 331.8 173.98 331.8 174.71 328.68 180.72 328.68 181.44 331.8" style="fill:#263238"></polygon><polygon points="172.34 331.95 165 333.24 165.17 330.04 171.09 328.99 172.34 331.95" style="fill:#263238"></polygon><polygon points="163.41 333.67 156.41 336.22 156.02 333.03 161.66 330.98 163.41 333.67" style="fill:#263238"></polygon><polygon points="154.91 336.91 148.46 340.64 147.52 337.57 152.73 334.57 154.91 336.91" style="fill:#263238"></polygon><polygon points="147.11 341.58 141.4 346.38 139.94 343.52 144.55 339.65 147.11 341.58" style="fill:#263238"></polygon><polygon points="140.23 347.54 135.44 353.25 133.51 350.69 137.38 346.09 140.23 347.54" style="fill:#263238"></polygon><polygon points="134.5 354.6 130.77 361.06 128.42 358.87 131.43 353.66 134.5 354.6" style="fill:#263238"></polygon><polygon points="130.07 362.55 127.52 369.56 124.83 367.81 126.89 362.16 130.07 362.55" style="fill:#263238"></polygon><polygon points="127.1 371.14 125.8 378.49 122.85 377.23 123.89 371.31 127.1 371.14" style="fill:#263238"></polygon><polygon points="125.66 380.13 125.66 387.58 122.53 386.86 122.53 380.85 125.66 380.13" style="fill:#263238"></polygon><polygon points="125.8 389.22 127.1 396.57 123.89 396.4 122.85 390.48 125.8 389.22" style="fill:#263238"></polygon><polygon points="127.52 398.15 130.07 405.16 126.89 405.55 124.83 399.9 127.52 398.15" style="fill:#263238"></polygon><polygon points="130.77 406.65 134.5 413.11 131.43 414.05 128.42 408.84 130.77 406.65" style="fill:#263238"></polygon><polygon points="135.44 414.46 140.23 420.17 137.38 421.63 133.51 417.02 135.44 414.46" style="fill:#263238"></polygon><polygon points="141.4 421.33 147.11 426.13 144.55 428.06 139.94 424.19 141.4 421.33" style="fill:#263238"></polygon><polygon points="148.46 427.07 154.91 430.8 152.73 433.14 147.52 430.14 148.46 427.07" style="fill:#263238"></polygon><polygon points="156.41 431.49 163.41 434.04 161.66 436.73 156.02 434.68 156.41 431.49" style="fill:#263238"></polygon><polygon points="165 434.47 172.34 435.76 171.09 438.72 165.17 437.67 165 434.47" style="fill:#263238"></polygon><polygon points="173.98 435.91 181.44 435.91 180.72 439.03 174.71 439.03 173.98 435.91" style="fill:#263238"></polygon><polygon points="183.08 435.76 190.42 434.47 190.25 437.67 184.33 438.72 183.08 435.76" style="fill:#263238"></polygon><polygon points="192.01 434.04 199.02 431.49 199.41 434.68 193.76 436.73 192.01 434.04" style="fill:#263238"></polygon><polygon points="200.51 430.8 206.97 427.07 207.9 430.14 202.7 433.14 200.51 430.8" style="fill:#263238"></polygon><polygon points="208.31 426.13 214.03 421.33 215.48 424.19 210.88 428.06 208.31 426.13" style="fill:#263238"></polygon><polygon points="215.19 420.17 219.98 414.46 221.91 417.02 218.05 421.63 215.19 420.17" style="fill:#263238"></polygon><polygon points="220.93 413.11 224.65 406.65 227 408.84 223.99 414.05 220.93 413.11" style="fill:#263238"></polygon><polygon points="225.35 405.16 227.9 398.15 230.59 399.9 228.53 405.55 225.35 405.16" style="fill:#263238"></polygon><polygon points="228.33 396.57 229.62 389.22 232.57 390.48 231.53 396.4 228.33 396.57" style="fill:#263238"></polygon><polygon points="229.76 387.58 229.76 380.13 232.89 380.85 232.89 386.86 229.76 387.58" style="fill:#263238"></polygon><polygon points="229.62 378.49 228.33 371.14 231.53 371.31 232.57 377.23 229.62 378.49" style="fill:#263238"></polygon><polygon points="227.9 369.56 225.35 362.55 228.53 362.16 230.59 367.81 227.9 369.56" style="fill:#263238"></polygon><polygon points="224.65 361.06 220.93 354.6 223.99 353.66 227 358.87 224.65 361.06" style="fill:#263238"></polygon><polygon points="219.98 353.25 215.19 347.54 218.05 346.09 221.91 350.69 219.98 353.25" style="fill:#263238"></polygon><polygon points="214.03 346.38 208.31 341.58 210.88 339.65 215.48 343.52 214.03 346.38" style="fill:#263238"></polygon><polygon points="206.97 340.64 200.51 336.91 202.7 334.57 207.9 337.57 206.97 340.64" style="fill:#263238"></polygon><polygon points="199.02 336.22 192.01 333.67 193.76 330.98 199.41 333.03 199.02 336.22" style="fill:#263238"></polygon><polygon points="190.42 333.24 183.08 331.95 184.33 328.99 190.25 330.04 190.42 333.24" style="fill:#263238"></polygon><circle cx="177.71" cy="383.86" r="15.39" style="fill:#263238"></circle><circle cx="177.71" cy="383.86" r="10.58" style="fill:#a6a6a6"></circle><path d="M177.71,343.05a40.81,40.81,0,1,0,40.81,40.8A40.8,40.8,0,0,0,177.71,343.05Zm0,76.71a35.9,35.9,0,1,1,35.91-35.91A35.9,35.9,0,0,1,177.71,419.76Z" style="fill:#a6a6a6"></path><path d="M200.19,406.34c-.73.73-1.47,1.47-2.23,2.19s-1.63,1.3-2.45,2-1.78,1.12-2.66,1.68-1.88.94-2.83,1.41a30.77,30.77,0,0,1-24.62,0c-.94-.47-1.9-.91-2.82-1.41s-1.8-1.09-2.67-1.68-1.65-1.29-2.45-2-1.5-1.46-2.23-2.19a34.58,34.58,0,0,0,10.46,6.53,32.82,32.82,0,0,0,24,0A34.19,34.19,0,0,0,200.19,406.34Z" style="fill:#a6a6a6"></path><path d="M200.19,361.37a26.22,26.22,0,0,1,9.28,21,42.83,42.83,0,0,0-3.13-11.16A42.33,42.33,0,0,0,200.19,361.37Z" style="fill:#a6a6a6"></path><path d="M145.93,384.61a29.81,29.81,0,0,1,.15-5.82,32,32,0,0,1,1.32-5.71,30.74,30.74,0,0,1,5.76-10.19,31.43,31.43,0,0,1,9.16-7.3,29.59,29.59,0,0,1,11.16-3.25,36.39,36.39,0,0,0-5.57,1.53,30.08,30.08,0,0,0-5.22,2.4,32.49,32.49,0,0,0-8.77,7.27,31.6,31.6,0,0,0-5.8,9.79A35.09,35.09,0,0,0,145.93,384.61Z" style="fill:#a6a6a6"></path><path d="M157.38,404.18c-.67-.66-1.33-1.33-2-2s-1.19-1.47-1.78-2.21-1-1.6-1.53-2.41-.85-1.7-1.28-2.55a27.71,27.71,0,0,1,0-22.29c.43-.85.82-1.72,1.28-2.55s1-1.63,1.53-2.41,1.17-1.49,1.78-2.21,1.32-1.35,2-2a31.4,31.4,0,0,0-5.87,9.47,29.76,29.76,0,0,0,0,21.71A31.4,31.4,0,0,0,157.38,404.18Z" style="fill:#a6a6a6"></path><path d="M198,404.18a23.28,23.28,0,0,1-19,8.39,37.92,37.92,0,0,0,19-8.39Z" style="fill:#a6a6a6"></path><path d="M177,355.11a27.33,27.33,0,0,1,5.27.12,28.87,28.87,0,0,1,5.17,1.18,27.07,27.07,0,0,1,9.23,5.21,27.5,27.5,0,0,1,6.6,8.3A26.55,26.55,0,0,1,206.21,380a31.75,31.75,0,0,0-1.41-5,27.55,27.55,0,0,0-2.17-4.71,30.21,30.21,0,0,0-6.58-7.91,29.62,29.62,0,0,0-8.84-5.25A31.94,31.94,0,0,0,177,355.11Z" style="fill:#a6a6a6"></path><path d="M167.13,360.67q1.13-.54,2.28-1.05c.79-.29,1.59-.54,2.39-.81s1.65-.35,2.47-.53,1.68-.18,2.52-.28a24.6,24.6,0,0,1,18.56,6.92c.57.63,1.17,1.23,1.72,1.87s1,1.33,1.52,2,.87,1.44,1.27,2.17.71,1.53,1,2.29a28.2,28.2,0,0,0-6.08-7.78,26.49,26.49,0,0,0-18-6.72A28,28,0,0,0,167.13,360.67Z" style="fill:#a6a6a6"></path><path d="M154.52,394.44a20.17,20.17,0,0,1-1.08-18.38,35.29,35.29,0,0,0,1.08,18.38Z" style="fill:#a6a6a6"></path><path d="M201.8,392.2a23.82,23.82,0,0,1-1.71,4.35,25.46,25.46,0,0,1-2.57,3.95,23.79,23.79,0,0,1-7.2,6.07,24.59,24.59,0,0,1-9,2.91,23.37,23.37,0,0,1-9.31-.77,28.78,28.78,0,0,0,4.62.37,25,25,0,0,0,4.58-.37,27,27,0,0,0,8.59-3,26.52,26.52,0,0,0,7.09-5.69A28.89,28.89,0,0,0,201.8,392.2Z" style="fill:#a6a6a6"></path><path d="M176.73,406.68c-.75,0-1.5,0-2.25-.08s-1.49-.21-2.24-.32-1.46-.38-2.2-.57-1.42-.53-2.13-.8a21.85,21.85,0,0,1-12-13.1c-.2-.73-.43-1.45-.61-2.19s-.28-1.49-.38-2.24-.1-1.51-.13-2.26.07-1.5.12-2.25a25.45,25.45,0,0,0,1.72,8.68,24,24,0,0,0,11.62,12.67A25.56,25.56,0,0,0,176.73,406.68Z" style="fill:#a6a6a6"></path><path d="M200.54,384.84A17.7,17.7,0,0,1,193.92,400a33,33,0,0,0,6.62-15.11Z" style="fill:#a6a6a6"></path><path d="M161.87,367.39a21.3,21.3,0,0,1,3.12-2.8,23.39,23.39,0,0,1,3.66-2.12,21.25,21.25,0,0,1,8.23-1.94,22,22,0,0,1,8.36,1.34,20.63,20.63,0,0,1,7.1,4.44,25.8,25.8,0,0,0-3.55-2.15,22,22,0,0,0-3.8-1.56,24.57,24.57,0,0,0-8.07-1.07,23.77,23.77,0,0,0-8,1.64A26.3,26.3,0,0,0,161.87,367.39Z" style="fill:#a6a6a6"></path><path d="M214.26,171.83s7.11-3.37,8.75-3.37,13.89-.49,14.2-.57a18.37,18.37,0,0,0,2.07-1.46s-51.27-8.28-51.73-8-3.76,2.69-3.3,3,15.5,5.11,17.27,5.66S213.44,172.21,214.26,171.83Z" style="fill:#37474f"></path><polygon points="189.21 178.21 190.1 165.72 185.87 165.5 184.91 177.94 189.21 178.21" style="fill:#a6a6a6"></polygon><polygon points="193.84 167.11 346.72 178.33 345.19 191.19 193.2 177.43 193.84 167.11" style="fill:#a6a6a6"></polygon><path d="M223.65,181.35l1-12.89,131.08,10.23s1.46-5.27,4.83-5c6.73.52,2.82,16.79,2.82,16.79Z" style="fill:#c7c7c7"></path><polygon points="287.88 171.83 302.82 179.15 315.21 191.19 345.39 194.04 347.23 176.23 287.88 171.83" style="fill:#dbdbdb"></polygon><circle cx="360.23" cy="177.77" r="1.69" style="fill:#a6a6a6"></circle><polygon points="193.16 179.46 194.05 165.19 189.82 164.94 188.87 179.15 193.16 179.46" style="fill:#c7c7c7"></polygon><polygon points="185.75 166.99 185.02 176.6 168.31 172.2 163.3 163.95 167.14 160.88 171.9 166 185.75 166.99" style="fill:#c7c7c7"></polygon><polygon points="163.3 163.95 166.27 168.84 154.37 172.52 152.97 169.71 163.3 163.95" style="fill:#a6a6a6"></polygon><path d="M155.55,170.5a4.63,4.63,0,1,1-4.63-4.63A4.63,4.63,0,0,1,155.55,170.5Z" style="fill:#37474f"></path><path d="M261.79,238.24l10.34,2.87,20.67,22.71s-2.26,25.38-2.46,25.89S266,319.59,265.47,319.8a14.4,14.4,0,0,1-3,0s-2.2,5.34-3.35,5.43a16.47,16.47,0,0,1-2.28,0l-18.93,18Z" style="fill:#c7c7c7"></path><path d="M228.94,188.92S266.4,245.2,267,246.43s16.17,18.62,17.19,20.46,0,24.36,0,26S238,343.23,238,343.23l-3.48.82s-4.09,4.91-5.53,4.91-53.41-9.62-57.91-12.48S186.17,253,186.17,253Z" style="fill:#a6a6a6"></path><path d="M219.43,263c.71.06,12.38.26,12.38.26v4.2s-5.12,2.25-7.52,3.12S214.15,278,214.15,278l-.67-7.66s1.8-2.49,2.16-3.16-2.67-2.51-2.67-2.51l-.36-3.83S218.71,262.9,219.43,263Z" style="fill:#dbdbdb"></path><polygon points="129.7 345.41 137.44 334.28 211.1 298.24 225.73 318.79 149.18 356.61 137.67 357.53 129.7 345.41" style="fill:#c7c7c7"></polygon><path d="M225.73,318.78l-76.55,37.83-11.51.92-6-9.09s10.48,4.2,13.75,4.2,61.81-30.69,65.7-33.76c2.88-2.28,4.3-10,4.85-13.79Z" style="fill:#dbdbdb"></path><path d="M139.1,335.66c1,1.48,1.89,3,2.79,4.53s1.77,3.07,2.63,4.61,1.69,3.12,2.49,4.7,1.6,3.16,2.32,4.78c-1-1.48-1.89-3-2.79-4.53s-1.77-3.06-2.63-4.61-1.69-3.12-2.48-4.7S139.83,337.28,139.1,335.66Z" style="fill:#a6a6a6"></path><path d="M137.44,334.27l69.41-33.95c-3.69,2-63.88,36.5-66.27,37.1s-10.88,8-10.88,8Z" style="fill:#a6a6a6"></path><path d="M207,300.23l-.18.09Z" style="fill:#a6a6a6"></path><path d="M202.59,243.87s2.77,36.53,3.38,39.29,7.53,22,8.75,24.65,8.37,9,8.37,9l6.83-6.18s-5.53-4.76-7.07-6.91-8.59-22.1-8.59-24-3.68-40.6-3.68-40.6Z" style="fill:#c7c7c7"></path><path d="M205.71,281.25a35.12,35.12,0,0,0,1.8,3.25c.17.25.35.49.53.73s.19.22.3.32l.15.14.13.06c.35.17,1-.07,1.46-.34a9.57,9.57,0,0,0,2.64-2.4,7.55,7.55,0,0,0,1-1.55,6.43,6.43,0,0,0,.58-1.75,6.16,6.16,0,0,1-1.1,3.6,8.32,8.32,0,0,1-2.74,2.7,4.73,4.73,0,0,1-.95.39,4.37,4.37,0,0,1-.54.08,1.59,1.59,0,0,1-.59-.14,2.61,2.61,0,0,1-.28-.17l-.18-.19c-.12-.12-.21-.26-.31-.38a6.62,6.62,0,0,1-.51-.83A15.51,15.51,0,0,1,205.71,281.25Z" style="fill:#a6a6a6"></path><path d="M221.27,251.75l-1.43-1.53,7.16-6.66.51.92a30.68,30.68,0,0,1,3.28,1.34c.92.51,4.29,3.88,4.29,4.4s1.23,1.53,1.23,1.53l-7.64,7.88-1.16-1.33a7.57,7.57,0,0,1-3.48-2.15A17.24,17.24,0,0,1,221.27,251.75Z" style="fill:#c7c7c7"></path><path d="M222.16,250.78c1.64-1.66,3.34-3.24,5.08-4.77l.17-.15.23.08a17,17,0,0,1,1.8.68,8.76,8.76,0,0,1,1.74.95l.22.19a1.5,1.5,0,0,1,.2.24l.28.4.5.82c.32.55.62,1.11.91,1.67l.15.28-.21.2c-1.67,1.6-3.37,3.15-5.16,4.63,1.46-1.8,3-3.53,4.57-5.2l-.06.48-1-1.6-.49-.78-.26-.37a1.33,1.33,0,0,0-.24-.23,9.18,9.18,0,0,0-1.55-.87c-.56-.25-1.13-.5-1.7-.72l.4-.07C226,248.08,224.09,249.47,222.16,250.78Z" style="fill:#a6a6a6"></path><path d="M233.91,281.48c5.5-5.87,16.71-4.58,20.87,0,6.06,6.67,5.6,16,0,21.64-4.88,4.94-15.42,5.45-21.1-1.38C228.53,295.54,229.3,286.39,233.91,281.48Z" style="fill:#dbdbdb"></path><path d="M232.52,294.22c1.78-.6,3.56-1.15,5.34-1.68s3.58-1,5.32-1.63l.63-.24a4.06,4.06,0,0,0,.48-.22c0,.06,0,0,0,0l.06-.12.15-.31.27-.63,1.12-2.55q1.11-2.57,2.38-5.07c-.48,1.81-1.05,3.59-1.68,5.35-.32.87-.64,1.75-1,2.62l-.28.65-.15.33-.09.18a.68.68,0,0,1-.18.26,2.75,2.75,0,0,1-.76.41c-.23.09-.45.17-.68.24-1.8.59-3.61,1-5.43,1.44S234.38,294,232.52,294.22Z" style="fill:#a6a6a6"></path><path d="M232.93,286.54a16,16,0,0,1,5.63-5.84,9.36,9.36,0,0,1,3.95-1.26,15,15,0,0,1,4.13.2,14.14,14.14,0,0,1,3.91,1.34,12,12,0,0,1,3.34,2.44,12.4,12.4,0,0,1,3.4,7.32,15.4,15.4,0,0,0-1.38-3.78,11.27,11.27,0,0,0-2.39-3.17,13.66,13.66,0,0,0-7-3.47,11.32,11.32,0,0,0-7.69.84,14.23,14.23,0,0,0-3.22,2.35A20.83,20.83,0,0,0,232.93,286.54Z" style="fill:#a6a6a6"></path><path d="M281.09,263s-2.93,1.74-3.44,2.06c0,0-7.68-7.48-7.68-7.38s-3,2.35-3.88,2.35-34.8-35.3-34.8-35.3l-5.56-11,3.84-23.81c4.9,7.34,36.88,55.42,37.44,56.56.46.91,9.22,10.82,14.07,16.56Z" style="fill:#dbdbdb"></path><path d="M236.31,205.5c3.17,4.19,6.25,8.45,9.31,12.73s6,8.6,9,12.92c1.47,2.19,2.94,4.36,4.36,6.59l.52.85a4.79,4.79,0,0,1,.25.45l.07.12a2.25,2.25,0,0,1,.08.24,1.27,1.27,0,0,1,0,.33,12.12,12.12,0,0,1-.4,2,4.63,4.63,0,0,1-1,1.93,1,1,0,0,1-.75.27.92.92,0,0,1-.37-.16,1.34,1.34,0,0,1-.23-.16,9.88,9.88,0,0,1-.77-.66c-3.84-3.64-7.37-7.52-10.88-11.45l5.64,5.52c1.87,1.83,3.75,3.69,5.71,5.4a8,8,0,0,0,.74.59c.34.22.2.2.39.08a4.28,4.28,0,0,0,.72-1.58,10.15,10.15,0,0,0,.35-1.86s0-.18,0-.16h0l-.05-.09a4.1,4.1,0,0,0-.23-.4l-.52-.83c-1.43-2.19-2.93-4.35-4.41-6.52l-8.85-13C242.1,214.27,239.17,209.91,236.31,205.5Z" style="fill:#c7c7c7"></path><path d="M270,257.68a47.8,47.8,0,0,1-3.56-3.25c-1.13-1.13-2.21-2.31-3.27-3.51l-.23-.25.17-.27a48.86,48.86,0,0,1,3.21-4.53,47.06,47.06,0,0,1-2.47,5l-.05-.52c1.11,1.15,2.2,2.33,3.24,3.55A46,46,0,0,1,270,257.68Z" style="fill:#c7c7c7"></path><path d="M258.64,233.66s20.85,8.27,22.7,9.9.81,5.53,0,6.55-27.84,5.32-29.48,6.14-12.68,15.15-12.68,15.15-10-1.64-10.44-2.46,1.18-7,1.18-7S245.52,248.07,248,247s26.19-.82,27.42-2.25-13.15-5.68-13.15-5.68Z" style="fill:#c7c7c7"></path><polygon points="259.16 290.74 263.32 287.77 267.93 287.77 272.94 282.86 269.19 277.33 235.25 252.84 230.12 257.63 261.43 280.43 259.16 282.86 255.52 283.88 259.16 290.74" style="fill:#c7c7c7"></polygon><circle cx="267.21" cy="282.17" r="1.84" style="fill:#a6a6a6"></circle><polygon points="248.28 262.25 267.94 276.43 269.98 273.42 251.53 259.63 248.28 262.25" style="fill:#dbdbdb"></polygon><polygon points="269.98 273.42 262.95 268.17 266.71 264.48 269.49 265.06 273.59 261.11 277.65 265.06 269.98 273.42" style="fill:#c7c7c7"></polygon><path d="M242.75,266.83a16.09,16.09,0,0,1,1.92-2.93,15.58,15.58,0,0,1,2.45-2.49,15.22,15.22,0,0,1-1.91,2.93A15.65,15.65,0,0,1,242.75,266.83Z" style="fill:#a6a6a6"></path><path d="M187.21,229.21s-.43-8,.39-8.57,8-16.17,8-16.17l4.3-3.47v7.57l16.17-17,15.35-6.75-1.84,20,13.5,21.49-1.84,12.69-23.53-3.27-25.58,24.76,2.25,48.69-5.94,4.52-49.73,22.31-32.34,37.65v-8.8l26.81-42.56,39.91-55.06Z" style="fill:#455a64"></path><polygon points="208.16 199.86 208.16 220.75 205.71 224.49 205.71 202.45 208.16 199.86" style="fill:#ECEFF1"></polygon><polygon points="212.47 195.35 212.47 215.18 210.02 218.91 210.02 197.91 212.47 195.35" style="fill:#ECEFF1"></polygon><g style="opacity:0.2"><path d="M133.16,322.36a58.5,58.5,0,0,1,5.53,13.71,51.2,51.2,0,0,1-3.19-6.69A53,53,0,0,1,133.16,322.36Z"></path><path d="M192.11,260.55c0-3.33.16-6.66.26-10l.36-10v-.07l0-.07,5.67-12.29c1.88-4.1,3.85-8.16,5.77-12.24s3.88-8.15,5.85-12.2,4-8.11,6-12.14q-2.69,6.21-5.48,12.38c-1.85,4.11-3.71,8.22-5.62,12.31s-3.76,8.2-5.71,12.27l-5.8,12.23,0-.14-.63,10C192.6,253.91,192.38,257.23,192.11,260.55Z"></path><path d="M217.89,229q2.07-4.68,4.27-9.3c1.43-3.1,3-6.15,4.45-9.21l.31-.66.44.6c1.86,2.54,3.64,5.14,5.45,7.71.9,1.3,1.82,2.57,2.7,3.88l2.65,3.91.06.09v.09c-.15,1.27-.33,2.53-.52,3.79s-.36,2.51-.56,3.77c.07-1.27.16-2.54.26-3.81s.18-2.54.29-3.8l0,.18-2.82-3.79c-.94-1.26-1.85-2.55-2.78-3.83-1.83-2.55-3.7-5.09-5.49-7.68l.75-.06c-1.54,3-3,6.09-4.66,9.1S219.55,226,217.89,229Z"></path></g><path d="M194.36,309.25l-5.94,4.51-49.73,22.3L116.3,362.15l20.61-31.91s47.11-20.06,48.44-20.57,6.76-4.58,6.76-4.58l.51-33.29Z" style="fill:#37474f"></path><polygon points="219.84 225.2 228.07 218.34 237.95 226.07 227 210.66 219.84 225.2" style="fill:#37474f"></polygon><polygon points="243.07 226.38 241.22 239.06 217.69 235.78 194.65 258.1 194.64 258.1 215.48 233.65 239.28 235.12 243.07 226.38" style="fill:#37474f"></polygon><path d="M238.66,266.28c2.27-2.92,4.64-5.76,7.07-8.55,1.21-1.4,2.45-2.76,3.79-4.08.18-.16.34-.32.55-.48l.35-.25a3,3,0,0,1,.39-.13c.53-.14.94-.19,1.42-.28.91-.16,1.83-.3,2.75-.43,3.67-.46,7.33-.9,11-1.27l5.52-.51c1.84-.13,3.68-.29,5.53-.39-1.83.31-3.66.56-5.48.84l-5.49.77c-3.65.51-7.32.94-11,1.48-.91.11-1.82.24-2.73.38-.43.07-.93.14-1.3.23a2.13,2.13,0,0,0-.27.08l-.21.15c-.16.12-.33.28-.5.43-1.32,1.24-2.56,2.62-3.84,3.94Z" style="fill:#a6a6a6"></path><path d="M185.86,229c1.35.23,4,4.91,4.15,6.3s-4.61,37.91-5.07,40.67S148.26,321.23,147,322s-17.47,4-17.33,3.07,40.66-58.48,41.43-59.4S185.86,229,185.86,229Z" style="fill:#263238"></path><path d="M174.71,382.78c-3,4.15,1.94,7.06,5.78,4.61S238,317.75,238,317.75l-10.44-9.16S178.17,377.94,174.71,382.78Z" style="fill:#c7c7c7"></path><path d="M199.88,208.57v-27s9.77,1.15,10.08,1.38,0,15,0,15Z" style="fill:#a6a6a6"></path><polygon points="214.94 192.75 210.1 184.39 196.07 182.32 196.07 177.41 223.24 178.56 223.24 180.79 227.5 186.54 216.05 191.58 214.94 192.75" style="fill:#dbdbdb"></polygon><polygon points="209.96 197.98 210.1 184.39 214.94 192.75 209.96 197.98" style="fill:#c7c7c7"></polygon><path d="M213.12,287.78l-36.22,15.8s-18.38-71.18-20.11-73.31c-1.88-2.31-65.84,4.09-81-9.83C64.39,210,75,177.83,75,177.83h47.79s0,5.31-3.25,13.27c0,0,53-2.55,66.29,6.64C198,206.12,213.12,287.78,213.12,287.78Z" style="fill:#ECEFF1"></path><path d="M127.3,188.71a47.79,47.79,0,0,0-7.57,2.89l-.12.05a1.72,1.72,0,0,0,.11-.46l.09-.54c0-.19,0-.38.06-.58l0-.29v0a2.26,2.26,0,0,0,1.63-.83,6,6,0,0,0,1-2.39c.29-1.07.55-2.16.78-3.24s.49-2.43.68-3.66a23.19,23.19,0,0,0,.41-3.62.17.17,0,0,0-.33,0c-.29,1.11-.42,2.27-.63,3.4s-.45,2.26-.71,3.39-.54,2.24-.85,3.36-.55,2.42-1.7,2.75c-2.36.67-1.3-4.63-1.2-5.67.24-2.4.39-4.86.81-7.24a.08.08,0,1,0-.15,0c-.52,2.18-1.1,4.33-1.49,6.55-.19,1.09-.33,2.18-.45,3.28a5,5,0,0,0,.22,2.82,2,2,0,0,0,1.56,1.15l-.07.25a5.34,5.34,0,0,0-.16.53l-.12.54a1.33,1.33,0,0,0-.08.65.24.24,0,0,0,.12.14c-1,.44-2,.88-3,1.34a26.48,26.48,0,0,0-3.63,1.77c-.14.06,0,.25.1.22a26.13,26.13,0,0,0,3.8-1.37c1.27-.49,2.52-1,3.77-1.52a47,47,0,0,0,7.19-3.36A.11.11,0,0,0,127.3,188.71Z" style="fill:#263238"></path><path d="M170.13,229.21c-2.12.39-4.26.68-6.41.95-1.77.22-3.52.54-5.19-.08a15.38,15.38,0,0,0,2.52-.69,19.06,19.06,0,0,0,3.51-1.8,38.12,38.12,0,0,0,3.42-2.33.12.12,0,0,0-.12-.21c-1.14.54-2.25,1.15-3.4,1.67s-2.35,1-3.54,1.48a27.49,27.49,0,0,1-3.54,1.13,11.4,11.4,0,0,1-4.06.44c-.09,0-.13.12,0,.14a16.93,16.93,0,0,0,3.82.35c.33,0,.65,0,1-.1a4.51,4.51,0,0,0,2.15,1.17,7.11,7.11,0,0,0,3.06-.36c2.29-.57,4.56-1.19,6.86-1.71A0,0,0,1,0,170.13,229.21Z" style="fill:#263238"></path><path d="M188.7,200.27a14.53,14.53,0,0,0-3.73-3.89,17.33,17.33,0,0,0-5-2.61c-4.24-1.42-8.8-1.76-13.22-2.18a269.39,269.39,0,0,0-28.11-1.26c-5.33,0-10.62.35-15.93.74-.09,0-.09.15,0,.15,9.15-.18,18.33,0,27.47.45,4.57.21,9.14.48,13.7.87a95.15,95.15,0,0,1,13.38,1.65,30.32,30.32,0,0,1,6.21,2.25,13.57,13.57,0,0,1,4.87,4A.19.19,0,0,0,188.7,200.27Z" style="fill:#263238"></path><path d="M198.17,294.3l-21.27,9.29s-18.37-71.19-20.11-73.32c-.71-.87-10.19-.51-22.56-.46-14-1.82-26.79-6.62-31.29-13.49-5.37-8.2,14.12-17.41,22.72-17.1s39.49,9.28,47.84,19.69C180.67,227.86,195.3,279.5,198.17,294.3Z" style="opacity:0.1"></path><path d="M213.12,287.77,194.35,296c-3.44-12.15-19.5-68.76-20.2-70.92-.77-2.42-15.64-10.32-16.37-12.13s.87-8.77,1.34-11.34c.39-2.21,3.7-7.34,7.39-9.22,8.28,1,15.49,2.71,19.35,5.38C198,206.12,213.12,287.77,213.12,287.77Z" style="fill:#fff"></path><path d="M177.16,192.78a11.74,11.74,0,0,1,4.17.57c1.67.6,3.81,2,3.37,2.48-6.83,6.84-11.72,14-12.62,14.27s-5.42-3-5.53-4.36S175,193.24,177.16,192.78Z" style="fill:#455a64"></path><path d="M172.89,210.49a9.88,9.88,0,0,0,2.15,3.45c.79.68,3.65,2.88,4.27,2.28C181.56,214,191.84,205.4,192,205s-2.24-5.6-3.24-6.33-3.32-2.61-3.66-2.49S173.06,209.19,172.89,210.49Z" style="fill:#455a64"></path><path d="M179.79,216.86c0,.72,3.64,3.08,4.36,3.29s8.23-2.75,8.7-3.26a19.63,19.63,0,0,0,2.16-5.31c0-.76-2.41-6-2.76-5.94S179.79,216.09,179.79,216.86Z" style="fill:#455a64"></path><path d="M166.24,204.79c.48-.49,5.35-8.36,9.72-11.71.36-.28-4.84-1.4-5.43-1.36s-4.54,3.23-4.88,3.86a43,43,0,0,0-1.62,6.79C164.12,202.88,165.82,205.22,166.24,204.79Z" style="fill:#455a64"></path><path d="M254.43,313.05c-1.71,1.66-60.17,29.55-63.07,29.2-1.1-.11-5.66-8.4-10.88-18.56-.06-.11-14-42.05-12.47-37l20.56-13.59,22.15-7.19,7.4,39.67s27.15-.67,30.3.06S256.15,311.4,254.43,313.05Z" style="fill:#37474f"></path><path d="M252.69,311.1c-10,4.46-49.76,23.39-59.27,28.55-.08.05-.06.1,0,.07,10-4.21,49.61-23.46,59.32-28.46C253,311.16,252.9,311,252.69,311.1Z" style="fill:#263238"></path><path d="M211.69,268.64l2.69,5.67.84,8.18s-25.28,11.44-25.85,11.26-8.12.73-8.78-.24-2.33-2.62-1.77-4.38,5.17-8.78,5.87-9.15S211.69,268.64,211.69,268.64Z" style="fill:#263238"></path><path d="M216.4,283l2.69,5.67.84,8.18s-25.28,11.44-25.85,11.26-5-.28-5.64-1.25-3.32-3.91-2.76-5.68,3-6.47,3.72-6.84S216.4,283,216.4,283Z" style="fill:#263238"></path><path d="M219,305.19s18-.58,18.38-.38-4.15,10-4.86,10.49-16.22,4.3-16.84,3a11.08,11.08,0,0,1-.71-4.66C215.07,312.54,218.22,305.67,219,305.19Z" style="fill:#263238"></path><path d="M107.94,121c-2.89,15.65.58,48,5.66,52.35,2.73,2.36,24.28-2.35,32.15-5.15,3.4-1.21-.16-22-4-22.15-2.55-.09-13.91,1.84-14.53,1.7-1.31-.29-4.06-12.41-8-26.64C115.38,107.26,109.7,111.5,107.94,121Z" style="fill:#ad6359"></path><path d="M152.82,170.38c-1.68.45-1.45,1.33,1.39,2.55s15.12,3.6,13.92,7.81-18.47.59-23-1.79-11.15-7.84-11.15-7.84C137.44,171.14,146,170.41,152.82,170.38Z" style="fill:#37474f"></path><path d="M135.33,146.84c16.61-2.19,23.83-.93,33.17,5.15a5.48,5.48,0,0,1,2.28,2.79c4.23,2.65,4.25,5.45,4.25,5.45,3.19,3.67,2.81,6.53,2.81,6.53s4.94,3.17,3.52,6.47c-1.58,3.7-8.2-1.47-13.58-2.09-12.33-1.41-30.24,0-33.84,0Z" style="fill:#37474f"></path><path d="M155.91,160.58a81.44,81.44,0,0,1,10.72,1.85,81.26,81.26,0,0,1,11.08,4.38.1.1,0,0,0,.1-.17,42.13,42.13,0,0,0-21.88-6.22C155.75,160.42,155.72,160.56,155.91,160.58Z" style="fill:#263238"></path><path d="M155.68,153c3.49.67,9.63,1.89,19.3,7.31,0,0,.07,0,0-.05a37.84,37.84,0,0,0-19.31-7.43C155.49,152.83,155.45,153,155.68,153Z" style="fill:#263238"></path><path d="M155.63,149c5.9,1.37,9.45,3,15.12,5.84,0,0,.07,0,0,0-6.1-3.94-8.76-4.67-15.13-6C155.43,148.7,155.4,148.9,155.63,149Z" style="fill:#263238"></path><path d="M142.5,145.4l-2.14,28.52a45.35,45.35,0,0,1-5.37,2.14c-.66,0-16,1.79-22.1-2.24s-8.52-33.82-6.28-49,8.39-18.66,13.45-3.06,7.07,25,7.85,24.88,9-1.62,10.65-2.15S142.5,145.4,142.5,145.4Z" style="fill:#ECEFF1"></path><path d="M142.5,145.4l-2.14,28.52a45.35,45.35,0,0,1-5.37,2.14c-.66,0-16,1.79-22.1-2.24s-8.52-33.82-6.28-49,8.39-18.66,13.45-3.06,7.07,25,7.85,24.88,9-1.62,10.65-2.15S142.5,145.4,142.5,145.4Z" style="opacity:0.1"></path><path d="M129.42,176.4c-5.19.19-12.69,0-16.53-2.58-3.28-2.17-5.5-11.78-6.5-22.56,2.17-1.55,6.46-2.88,8.42-2.7,2.29.23,12.73,13.62,15.14,20.53A9.49,9.49,0,0,1,129.42,176.4Z" style="fill:#ebebeb"></path><path d="M117.23,176.67a8.48,8.48,0,0,1-3.07-.87c-1.19-.64-2.64-2-2.27-2.29,5.85-4.71,10.28-9.9,11-10s3.74,2.91,3.68,4S118.88,176.53,117.23,176.67Z" style="fill:#455a64"></path><path d="M122.31,163.13a8.1,8.1,0,0,0-1.25-2.94c-.52-.62-2.43-2.64-3-2.23-1.92,1.49-10.54,7.28-10.71,7.57a15.5,15.5,0,0,0,1.76,5.33c.67.68,2.21,2.38,2.47,2.33S122,164.14,122.31,163.13Z" style="fill:#455a64"></path><path d="M117.81,157.41c.07-.57-2.4-2.8-2.92-3s-6.46,1.35-6.87,1.7a16.09,16.09,0,0,0-2.18,4c0,.61,1.17,5,1.43,5S117.72,158,117.81,157.41Z" style="fill:#455a64"></path><path d="M126.68,168.3c-.41.33-4.89,6-8.52,8.26-.31.18,3.47,1.59,3.92,1.62a16,16,0,0,0,4.07-2.56,35.47,35.47,0,0,0,1.93-5.19C128.07,170,127,168,126.68,168.3Z" style="fill:#455a64"></path><path d="M129.92,146.46a6.89,6.89,0,0,0-2.75.35,1.76,1.76,0,0,0-1.54-.18,9.87,9.87,0,0,0-2.25,1.29,50.56,50.56,0,0,0-4.21,3.19s0,.09,0,.06a39.71,39.71,0,0,1,3.88-2.53c.66-.38,1.32-.75,2-1.1a4.2,4.2,0,0,1,1.63-.55,3.68,3.68,0,0,0-.35.15,10.57,10.57,0,0,0-3.1,2.71,23.79,23.79,0,0,0-2.45,3.2,19.49,19.49,0,0,0-1.75,3.62,0,0,0,0,0,0,0,26,26,0,0,1,4.48-6c.83-.9,1.67-1.78,2.56-2.62a7.24,7.24,0,0,1,1.19-.94l0,0a.07.07,0,0,0,.1-.09,3.27,3.27,0,0,1,2.41-.45A.07.07,0,1,0,129.92,146.46Z" style="fill:#263238"></path><path d="M69.66,185.15c2.54.28,60,2,60.59,1.42.9-.88-8-65.31-14-74.51-1.29-2-6-2.84-10-2.64a17.35,17.35,0,0,0-3.13.4l-.11,0a7.47,7.47,0,0,0-2.35.94C88.8,118.84,71.71,165.07,68.17,174,66.61,178,68.85,185.06,69.66,185.15Z" style="fill:#ECEFF1"></path><path d="M129.84,186.74a32.66,32.66,0,0,1-8-.3,33.74,33.74,0,0,1-3.83-.89,31.54,31.54,0,0,1-3.9-1.47c-.07,0-.15.06-.08.11a16.16,16.16,0,0,0,3.52,2c-1.79,0-3.57-.08-5.36,0l-6,.22a27.07,27.07,0,0,1-5.55-.19c-.57-.09-1.12-.32-1.68-.46.48-.18,1-.37,1.46-.52,1.32-.43,2.64-.85,4-1.29,0,0,0-.07,0-.06-2.26.57-4.5,1.23-6.8,1.66a30.67,30.67,0,0,1-7,.24c-2.42-.09-4.84-.14-7.26-.21s-4.69,0-7-.2a10.42,10.42,0,0,1-3.57-1,10.53,10.53,0,0,0-3.09-1,.08.08,0,0,0,0,.15c2,.59,3.65,2.06,5.69,2.6a14.43,14.43,0,0,0,3.2.38c1.27.06,2.53.11,3.8.15,2.45.08,4.91.18,7.37.24a26.08,26.08,0,0,0,7.06-.3,15.5,15.5,0,0,0,1.63-.53,10.14,10.14,0,0,1,1.44.59,11.78,11.78,0,0,0,2.41.59,32.25,32.25,0,0,0,5,.19q2.73,0,5.46-.21c1.83-.11,3.63-.46,5.43-.71a17.69,17.69,0,0,0,11.77.36S129.87,186.73,129.84,186.74Z" style="fill:#263238"></path><path d="M124,138.56a14.85,14.85,0,0,0-.51-4.4s-.1,0-.09,0c.17,1,.29,2.09.36,3.14-.32-1.61-.65-3.21-1-4.8a70.9,70.9,0,0,0-2.12-7.44.05.05,0,0,0-.1,0c.56,2.22,1.12,4.45,1.56,6.7s.74,4.53,1.13,6.8c.77,4.49,1.4,9,2.15,13.5a76.82,76.82,0,0,0,1.74,7.53c0,.1.15.05.14,0C126,152.6,125.24,145.53,124,138.56Z" style="fill:#263238"></path><path d="M108.93,159.69c-.84,4.45-10.36,12.95-10.67,14.34-.26,1.13,1.24,8.7-.5,12.09l-13.45-.4c-1.74-2.36-5.42-8-4.24-12.53,1.23-4.74,11-30.93,12.13-32.95s3.32-12.1,5.28-15.21,4.23,1.38,5.46,3.43,1.87,10.28,1.62,12.59S109.77,155.22,108.93,159.69Z" style="opacity:0.1"></path><path d="M103.61,110.4c-2.09,1.32-2.49,4.11-2.82,5.59s4.35,7.69,5.68,7.83a21.54,21.54,0,0,1,3.69.6c.46.2,3.47,3,4.29,3s3.64-.77,4-1.38,0-3.79.09-5-1.57-7.13-2.29-8-5-2.86-7.5-3S104.47,109.86,103.61,110.4Z" style="fill:#fff"></path><path d="M113.68,124.14c-3.13-.15-8.24-5.37-9.11-10.17-.06-.33,1.33-3.12,2.87-6.59.93-2.11,1.91-4.48,2.65-6.71.15-.46,12.85,8,12.85,8a37.37,37.37,0,0,0-4.18,8.12,5.49,5.49,0,0,0-.21.94,1.1,1.1,0,0,1,0,.16C118.23,119.74,117,124.31,113.68,124.14Z" style="fill:#ad6359"></path><path d="M118.56,117.75a.75.75,0,0,0,0,.16,10.76,10.76,0,0,1-1.46-.4c-8.17-2.91-6.93-13.93-6.48-16.67,2.37,1.17,12.36,7.85,12.36,7.85a37.68,37.68,0,0,0-4.19,8.12A5.6,5.6,0,0,0,118.56,117.75Z" style="fill:#263238"></path><path d="M111.88,83.43c-2.46,4.87-2.33,20.21.76,24.16,4.47,5.72,13.07,7.69,18.26,2,5-5.49,4.5-25.47.94-29.2C126.59,74.93,115.52,76.23,111.88,83.43Z" style="fill:#ad6359"></path><path d="M124.83,94.84s-.08,0-.07.1c0,1-.1,2.22-1,2.56,0,0,0,.07,0,.06C124.88,97.4,125,95.82,124.83,94.84Z" style="fill:#263238"></path><path d="M123.91,93.77c-1.66-.12-1.78,3.21-.24,3.32S125.3,93.87,123.91,93.77Z" style="fill:#263238"></path><path d="M130.8,95.22s.08,0,.08.1c-.07,1,0,2.22,1,2.6,0,0,0,.06,0,0C130.68,97.77,130.57,96.19,130.8,95.22Z" style="fill:#263238"></path><path d="M131.76,94.18c1.67-.07,1.68,3.26.14,3.33S130.37,94.23,131.76,94.18Z" style="fill:#263238"></path><path d="M122.65,92.2c.45-.1.86-.27,1.3-.41a2.22,2.22,0,0,0,1.26-.67.71.71,0,0,0-.09-.86,1.74,1.74,0,0,0-1.75-.24,2.59,2.59,0,0,0-1.52,1.06A.75.75,0,0,0,122.65,92.2Z" style="fill:#263238"></path><path d="M133.11,92.54a11.62,11.62,0,0,1-1.31-.39,2.14,2.14,0,0,1-1.26-.65.69.69,0,0,1,.07-.86,1.74,1.74,0,0,1,1.75-.26,2.55,2.55,0,0,1,1.53,1A.75.75,0,0,1,133.11,92.54Z" style="fill:#263238"></path><path d="M123.54,104.39c.24.25.48.59.85.64a2.87,2.87,0,0,0,1.12-.22,0,0,0,0,1,0,0,1.38,1.38,0,0,1-1.33.52,1.11,1.11,0,0,1-.78-.94C123.43,104.38,123.51,104.36,123.54,104.39Z" style="fill:#263238"></path><path d="M124.74,101.34A3.5,3.5,0,0,0,127,103a4.84,4.84,0,0,0,1.26.1l.24,0,.23,0a.27.27,0,0,0,.22-.22h0a.41.41,0,0,0,0-.11h0v-.09c.05-.8,0-2,0-2,.28.16,1.74.87,1.73.46a52.72,52.72,0,0,0-1-10.69c0-.11-.2-.09-.19,0,0,3.32.48,6.62.49,10a6.3,6.3,0,0,0-1.64-.57c-.12,0,.1,2.34.05,2.7v0a4.89,4.89,0,0,1-3.6-1.26C124.76,101.19,124.68,101.26,124.74,101.34Z" style="fill:#263238"></path><path d="M127.84,102.67a4.2,4.2,0,0,1-1.72,1.23,1.84,1.84,0,0,1-1.14,0c-.82-.25-.81-1-.64-1.65a4.27,4.27,0,0,1,.41-1A5.4,5.4,0,0,0,127.84,102.67Z" style="fill:#263238"></path><path d="M126.12,103.9a1.84,1.84,0,0,1-1.14,0c-.82-.25-.81-1-.64-1.65A1.93,1.93,0,0,1,126.12,103.9Z" style="fill:#ff9bbc"></path><path d="M133.86,85.55c-.52-1.33-1.12-2.67-1.9-3s-1.37,1.61-3.17,1.67c-2.43.07-3.52-2.19-6.89-2.55-4.85-.52-7.15,3.47-7.52,10.36-.32,6.16-4.07,6.61-4.07,6.61s-1.76-13.68,2.24-18,12.85-6,18.6-1.51C133.24,80.77,133.86,85.55,133.86,85.55Z" style="fill:#263238"></path><path d="M113.51,96.36s-2.64-5.33-5-4.47-.91,8.25,1.52,9.6a2.64,2.64,0,0,0,3.71-.87Z" style="fill:#ad6359"></path><path d="M109,94s0,0,0,.06c1.69,1,2.38,2.82,2.78,4.66a1.46,1.46,0,0,0-2.1-.73s0,.11,0,.11a1.61,1.61,0,0,1,1.68.83,7.84,7.84,0,0,1,.63,1.56c.06.17.36.13.33-.06v-.05C112.7,98.09,111.4,94.61,109,94Z" style="fill:#263238"></path><path d="M92.16,126.52c-5.59,16.61-6.87,52.37-2,58,2.61,3,27,5.21,36,3.39,3.9-.79,4-29.71-.18-30.45-2.77-.49-16.35,1.54-17,1.29-1.38-.53-2.49-14.17-4.54-30.3C102.44,112.66,95.58,116.39,92.16,126.52Z" style="fill:#ad6359"></path><path d="M121.77,157.92s12-1.78,19.82-2.58c4.39-.44,12-.54,15.36.61,5,1.72,25.06,12.13,22.64,17-2.19,4.45-18.25-6.68-18.25-6.68s17.2,9.79,13.58,14.66-20.09-10.12-20.09-10.12,17.44,10.46,12.91,14.88c-3.42,3.35-19.1-9.38-19.1-9.38s14.93,9.09,11.56,12.68c-3.72,4-18.94-6.87-18.94-6.87-10.1,7.68-18,7.21-23.67,6.2C116.23,188.1,121.77,157.92,121.77,157.92Z" style="fill:#455a64"></path><path d="M155.61,162.53c2.06,1.08,4.16,2.16,6.11,3.41s3.88,2.59,5.71,4a40.28,40.28,0,0,1,6.61,6.26c-3.78-3.89-10.72-8.49-12.68-9.75s-3.85-2.61-5.8-3.86C155.51,162.57,155.56,162.51,155.61,162.53Z" style="fill:#263238"></path><path d="M150.94,169.52c2.58,1.49,5.19,2.88,7.69,4.48s4.73,3.33,7.11,5.09c.18.14,0,.19-.14.06-2.45-1.66-4.84-3-7.31-4.65s-4.87-3.38-7.39-4.92C150.86,169.56,150.9,169.5,150.94,169.52Z" style="fill:#263238"></path><path d="M145.86,174.8a66.56,66.56,0,0,1,11.23,7.75c.18.14,0,.19-.19.06-3.68-2.65-6.56-4.75-11.11-7.67C145.72,174.9,145.77,174.76,145.86,174.8Z" style="fill:#263238"></path><path d="M127.93,156.62l-8.7,32.62s-5.47,1.59-6.19,1.49-17.7-.55-23.74-5.9-4-38.21.82-54.37,12.08-19,15.15-1.23,3.79,28.34,4.65,28.34,12-2.21,13.86-2.54S127.93,156.62,127.93,156.62Z" style="fill:#ECEFF1"></path><path d="M107.93,190.35c-5.69-.56-14.6-1.94-18.63-5.53-2.84-2.52-3.9-11.16-3.71-21.28,1.92-1.72,6.82-3.33,9-3.12,2.3.23,12.73,13.61,15.14,20.53C111,184.72,109.53,188.08,107.93,190.35Z" style="fill:#fff"></path><path d="M119.16,189c-5.22,1.63-10.69,1.21-16,.23-2.42-.44-4.86-.91-7.23-1.57a14,14,0,0,1-6-3A10.7,10.7,0,0,1,87,178.31a73.91,73.91,0,0,1-.65-8,162,162,0,0,1,.17-16.93A131.27,131.27,0,0,1,89,134.22a.05.05,0,0,0-.1,0c-.77,3.31-1.45,6.63-2,10,0-.21,0-.43,0-.63,0-1.17-.06-2.34-.15-3.5,0-.09-.13-.08-.14,0,0,1.16,0,2.33,0,3.49,0,.71,0,1.45,0,2.17-.31,2-.59,3.92-.8,5.89a117.57,117.57,0,0,0-.52,17.6c.12,2.85.28,5.73.66,8.56a12.91,12.91,0,0,0,2.54,6.72c3.07,3.65,8.4,4.37,12.8,5.24,5.88,1.16,12.31,2.07,18-.48C119.39,189.2,119.29,189,119.16,189Z" style="fill:#263238"></path><path d="M124.55,154.82a13,13,0,0,0-3.29.31l-3.6.62c-2.37.42-4.76.85-7.1,1.46a9.83,9.83,0,0,0-3,1.46c-.25.07-.49.15-.74.24a15.09,15.09,0,0,0-1.47.68,16.57,16.57,0,0,0-2.68,1.77c-.06,0,0,.15.09.11a24.52,24.52,0,0,1,2.74-1.53l.85-.37c-.43.34-.84.69-1.27,1-2,1.65-3.87,3.46-5.75,5.26-.07.06,0,.16.1.1,1.54-1.35,3.17-2.61,4.78-3.86l2.41-1.84A18.06,18.06,0,0,1,109,158.6a11.1,11.1,0,0,1,2.83-.83c1-.21,2.09-.44,3.13-.64,2.06-.4,4.11-.78,6.17-1.16a12.65,12.65,0,0,1,3.4-.4c.5,0,3.47.72,3.16,1.47a.16.16,0,0,0,.26.19C129.14,156.1,125.19,154.88,124.55,154.82Z" style="fill:#263238"></path><path d="M109.22,152c-.29-1.8-.59-3.6-.87-5.4l-.06-.38s0,0,0,0c0-1.84-.07-3.66-.2-5.49a.07.07,0,1,0-.13,0c0,1.47.07,2.93.14,4.39-.47-3-.94-6-1.35-9,0-.07-.12-.07-.12,0,.22,3.6.52,7.16,1,10.73.24,1.73.5,3.45.81,5.16a54.25,54.25,0,0,0,1.21,5.77c0,.07.25-.12.24-.19A53.15,53.15,0,0,0,109.22,152Z" style="fill:#263238"></path><path d="M93.54,188.61a9.13,9.13,0,0,1-3.21-1.42c-1.19-.89-2.56-2.59-2.11-2.86,7.12-4.22,12.76-9.18,13.53-9.16s3.62,3.76,3.39,4.93S95.37,188.72,93.54,188.61Z" style="fill:#455a64"></path><path d="M101.2,174.65a8.78,8.78,0,0,0-.9-3.4c-.47-.75-2.23-3.26-2.87-2.89-2.33,1.32-12.63,6.28-12.87,6.57s.46,5.23,1.08,6.08,2,3,2.34,2.93S100.75,175.71,101.2,174.65Z" style="fill:#455a64"></path><path d="M97.19,167.71c.17-.61-2.18-3.43-2.7-3.77s-7.26.46-7.76.78a17.7,17.7,0,0,0-3,4c-.15.65.49,5.65.79,5.64S97,168.36,97.19,167.71Z" style="fill:#455a64"></path><path d="M105.16,181c-.5.3-6.28,5.83-10.59,7.67-.36.15,3.54,2.28,4,2.38a17.83,17.83,0,0,0,4.84-2.15,38.74,38.74,0,0,0,2.91-5.36C106.41,183.06,105.6,180.7,105.16,181Z" style="fill:#455a64"></path><path d="M142.1,84.7,156.16,78s-6.87-3.51-8.41-3.37S138.39,78,138.39,78Z" style="fill:#263238"></path><path d="M99.4,104l-2,1.77,17.19,6,1.58,2.23,22.86,7.62.37,1.2,3.06.65,6.69-11-7.89-10.59.46-13.57,1.77-.65s-5.49-12-8.64-13.75S114.17,69.62,111,70.08s-10,5.3-10,5.3l.09,3.34s-4.18,8.37-4.28,13.94S99.4,104,99.4,104Z" style="fill:#ECEFF1"></path><path d="M101.53,103.39l-1.67-3.81,15.19,2.56s-3.81,3.62-4,3.62S101.53,103.39,101.53,103.39Z" style="fill:#263238"></path><path d="M111.38,78.58s5.48,4.7,6.23,4.7,8-4.51,8-4.51S119.84,78,119,78a13.8,13.8,0,0,0-3.34,1.44Z" style="fill:#263238"></path><path d="M101.07,78.72c.93,1.3,16.26,9.94,17.42,10.22s20.86-8,22.25-8.73a68.84,68.84,0,0,1,8.45-3.34c.84-.1,6.6,1.57,7,1.16s-5.94-4-7-4.32-11.61.37-13.1.93-17.6,11.24-17.6,11.24S101.65,75.44,101,75.38s-1.48,1.68-1.38,1.93A14.15,14.15,0,0,0,101.07,78.72Z" style="fill:#455a64"></path><path d="M120.67,103.81c2.25,1,4.45,2.18,6.64,3.33s4.36,2.34,6.52,3.54l3.22,1.84,1.6.94.8.47.4.24a1.54,1.54,0,0,1,.41.44,12.3,12.3,0,0,1,1.17,3.63c.22,1.22.42,2.45.52,3.69-.31-1.21-.59-2.41-1-3.58a12.49,12.49,0,0,0-1.3-3.33c-.08-.12-.15-.14-.23-.22l-.41-.21-.82-.44-1.63-.88-3.24-1.8c-2.15-1.22-4.29-2.44-6.4-3.72S122.73,105.19,120.67,103.81Z" style="opacity:0.2"></path><path d="M123.78,108.59a105.69,105.69,0,0,1,9.72,4.49c1.59.85,3.14,1.65,4.71,2.62a.84.84,0,0,1,.35.37,3,3,0,0,1,.13.35,5.46,5.46,0,0,1,.19.66c.11.44.21.88.3,1.31.16.89.33,1.76.44,2.65-.31-.84-.57-1.69-.88-2.53l-.44-1.25c-.08-.21-.15-.42-.23-.61s-.09-.18-.13-.27l-.13-.07-4.73-2.41C129.92,112.25,126.79,110.54,123.78,108.59Z" style="opacity:0.2"></path><path d="M127.31,110.4s12,9.4,12,9.26a19.29,19.29,0,0,0-1.1-3.54C137.77,115.56,127.31,110.4,127.31,110.4Z" style="opacity:0.1"></path><path d="M141,105.53a55.86,55.86,0,0,1-4.7,3.43v-.72q2.19,1.35,4.31,2.83l1,.74.26.18.13.09s-.14,0-.12,0l.61-.18c.82-.25,1.65-.49,2.49-.71-.75.44-1.52.84-2.29,1.21l-.6.28a.62.62,0,0,1-.2,0,.54.54,0,0,1-.21-.08l-.16-.08-.28-.16c-.38-.21-.75-.42-1.12-.65-1.48-.88-2.92-1.82-4.34-2.8l-.56-.39.57-.33A53.58,53.58,0,0,1,141,105.53Z" style="opacity:0.2"></path><path d="M97.48,88.2c-.09.37,9.67,6.74,10.83,7.29s16.5,1.68,16.5,1.68l.23-6s-14.73-1.62-15.47-1.85-10-7.53-10.36-7.34a14.79,14.79,0,0,0-1.43,3.35C97.66,85.74,97.48,88.2,97.48,88.2Z" style="fill:#37474f"></path><path d="M125,89c-.5.64-.8,4.59-.8,6.08s.18,3.9.53,4.37,5,3.76,6.2,3.8,9.66-1.25,10.41-1.34.11-3.21.11-3.35.25-7.21.25-7.21a4.46,4.46,0,0,1,.29-.87,3.51,3.51,0,0,0-.19-2.14c-.32-.51-7.57-.93-9-.93S125.3,88.51,125,89Z" style="fill:#455a64"></path><path d="M141.66,91.3s-8.78-.89-9.31-.82a34.46,34.46,0,0,0-4.84,1c-.16.25-.67,6-.2,6.45s3,2.61,3.72,2.71,10.43-1.76,10.43-1.76Z" style="fill:#263238"></path><g style="opacity:0.1"><path d="M139.05,91l-9,9c-.39-.26-.82-.59-1.23-.9l8.32-8.33Z" style="fill:#fff"></path><path d="M141.55,95.49l-.06,2.19-1.43,1.44-2.63.48Z" style="fill:#fff"></path><path d="M133.1,90.51l-6,6v-.88l5.12-5.12h.11A6.2,6.2,0,0,1,133.1,90.51Z" style="fill:#fff"></path><path d="M141.62,92.69l0,.9L135.18,100c-.36,0-.72.12-1.06.18Z" style="fill:#fff"></path><path d="M136,90.75l-7.88,7.88-.23-.21,7.71-7.7Z" style="fill:#fff"></path></g><path d="M121.65,97.55c.07.68.11,1.37.16,2l-.08-.13c1.19.64,2.33,1.34,3.5,2s2.31,1.36,3.45,2.06l1.72,1,.86.5.41.21.11,0,.23,0c1.3.06,2.66,0,4,.07l-.18.06c1.66-1,3.34-1.92,5.06-2.8-1.53,1.19-3.1,2.29-4.69,3.38l-.06,0H136c-1.35.09-2.68.14-4.06.12l-.28,0a2.47,2.47,0,0,1-.36-.11l-.49-.24-.89-.5c-.59-.35-1.16-.7-1.73-1.06-1.14-.71-2.26-1.45-3.37-2.22s-2.21-1.52-3.28-2.34l-.08-.06V99.6C121.53,98.92,121.58,98.23,121.65,97.55Z" style="opacity:0.2"></path></g></svg>