<svg xmlns="http://www.w3.org/2000/svg" viewBox="0 0 500 500"><g id="freepik--background-complete--inject-820"><path d="M299.16,109.1H222.51s3.81-5,8-5.58c0,0,8.17-24.33,21.85-24.51,12.72-.16,17.82,15,17.82,15s5.89-6.79,11.52-3.69,8.82,12,8.82,12S296.86,105.69,299.16,109.1Z" style="fill:#ebebeb"></path><path d="M46.77,133H143.7s0-6.19-13.35-7.4c0,0-12.19-27.07-30.81-23.44C88,104.45,82,120.36,82,120.36s-8.76-12.52-15.77-10.1S55.09,126,55.09,126,47.87,129.52,46.77,133Z" style="fill:#ebebeb"></path><path d="M350.84,236.35h96.93s0-6.2-13.35-7.41c0,0-12.19-27.07-30.8-23.43-11.6,2.26-17.52,18.18-17.52,18.18s-8.76-12.53-15.77-10.1-11.16,15.75-11.16,15.75S351.94,232.85,350.84,236.35Z" style="fill:#ebebeb"></path><path d="M164.84,73.35h65.91s-6.22-5.79-9-5.79S210.93,48.13,200.62,49s-15.77,15.3-15.77,15.3S172.31,60.33,164.84,73.35Z" style="fill:#ebebeb"></path><path d="M285.57,174.32h56.36s-2.8-3.65-5.89-4.11c0,0-6-17.89-16.07-18-9.35-.12-13.1,11-13.1,11s-4.34-5-8.47-2.71-6.49,8.81-6.49,8.81S287.26,171.81,285.57,174.32Z" style="fill:#ebebeb"></path><path d="M396.86,87.15h56.37s-2.8-3.64-5.89-4.1c0,0-6-17.89-16.07-18-9.35-.12-13.1,11-13.1,11s-4.34-5-8.48-2.7-6.48,8.81-6.48,8.81S398.55,84.65,396.86,87.15Z" style="fill:#ebebeb"></path><path d="M61.74,245.52H118.1s-2.8-3.65-5.89-4.1c0,0-6-17.89-16.07-18-9.35-.12-13.1,11-13.1,11s-4.33-5-8.47-2.7-6.48,8.81-6.48,8.81S63.43,243,61.74,245.52Z" style="fill:#ebebeb"></path><rect x="129.46" y="373.21" width="34.15" height="78.73" rx="8.26" transform="translate(293.07 825.15) rotate(180)" style="fill:#a6a6a6"></rect><rect x="355.76" y="373.21" width="34.15" height="78.73" rx="8.26" transform="translate(745.67 825.15) rotate(180)" style="fill:#a6a6a6"></rect><path d="M363.81,287.1s5.64-1.33,6.63-2.43,5.29-5.75,6.53-5.75c4.64,0,16.89,2.5,20.66,5.42,2.07,1.59-2.21,9.17-4.64,10.94s-14.59,2-16.91,1.1-6.08-4.86-6.08-4.86l-6.19.66Z" style="fill:#c7c7c7"></path><path d="M155.56,287.1s-5.63-1.33-6.63-2.43-5.29-5.75-6.52-5.75c-4.64,0-16.9,2.5-20.67,5.42-2.06,1.59,2.21,9.17,4.64,10.94s14.59,2,16.91,1.1,6.08-4.86,6.08-4.86l6.19.66Z" style="fill:#c7c7c7"></path><path d="M391.4,400.26c-1.32,5.84-16.19,13.82-24.43,13.82H152.41c-8.24,0-23.1-8-24.44-13.82s-6.63-55.22-5.84-61.33,17.48-26.35,19.35-29,8-16.94,9.32-18.79,23.39-48.87,32.94-54.71,44.87-6.11,75.95-6.11,66.38.26,75.94,6.11,31.6,52.85,32.94,54.71,7.48,16.13,9.33,18.79,18.56,22.9,19.35,29S392.74,394.44,391.4,400.26Z" style="fill:#ebebeb"></path><path d="M395.37,367.19c-1.43,14.64-3.27,30-4,33.06-1.32,5.86-16.19,13.83-24.43,13.83H152.41c-8.24,0-23.1-8-24.44-13.83-.7-3.08-2.52-18.43-4-33.08l.24-.67c1.84,11.59,10.34,24.76,13.61,28.85s15.23,7,21,7H360.51c5.78,0,17.72-2.95,21-7s11.78-17.26,13.63-28.85Z" style="fill:#c7c7c7"></path><path d="M152.41,384.09H367c2.65,2.66-6.9,23.38-15.41,23.38H167.81C159.31,407.47,149.75,386.75,152.41,384.09Z" style="fill:#a6a6a6"></path><path d="M364.33,395.14c-.22.43-.45.87-.69,1.3H155.73c-.24-.43-.47-.87-.69-1.3Z" style="fill:#ebebeb"></path><polygon points="186.87 407.48 185.47 407.48 181.24 396.44 180.74 395.14 176.51 384.1 177.9 384.1 182.14 395.14 182.63 396.44 186.87 407.48" style="fill:#ebebeb"></polygon><polygon points="215.22 407.48 213.88 407.48 211.15 396.44 210.83 395.14 208.1 384.1 209.43 384.1 212.16 395.14 212.49 396.44 215.22 407.48" style="fill:#ebebeb"></polygon><polygon points="345.97 384.1 341.74 395.14 341.24 396.44 337.01 407.48 335.62 407.48 339.86 396.44 340.35 395.14 344.59 384.1 345.97 384.1" style="fill:#ebebeb"></polygon><polygon points="314.39 384.1 311.66 395.14 311.34 396.44 308.6 407.48 307.27 407.48 310 396.44 310.32 395.14 313.05 384.1 314.39 384.1" style="fill:#ebebeb"></polygon><rect x="165.91" y="398.81" width="19.92" height="6.64" rx="1.39" style="fill:#ebebeb"></rect><rect x="333.55" y="398.81" width="19.92" height="6.64" rx="1.39" style="fill:#ebebeb"></rect><rect x="159.91" y="386.03" width="19.92" height="6.64" rx="1.39" style="fill:#ebebeb"></rect><rect x="339.55" y="386.03" width="19.92" height="6.64" rx="1.39" style="fill:#ebebeb"></rect><rect x="228.51" y="373.11" width="62.35" height="21.96" style="fill:#fff"></rect><path d="M354.22,296.89H165.15c-3.78,0-3.33-7.58-2.63-10.47s16.38-41.16,28.34-46.49c6.8-3,26.54-4.23,68.83-4.23s62,1.2,68.82,4.23c12,5.33,27.65,43.6,28.35,46.49S358,296.89,354.22,296.89Z" style="fill:#c7c7c7"></path><path d="M346.65,291.38H172.72c-1.6,0-3-9.19-2.39-10.95s15.93-32.5,23.31-36.27,60.54-4.47,66.05-4.47,58.69.67,66.05,4.47,22.71,34.47,23.31,36.27S348.25,291.38,346.65,291.38Z" style="fill:#ebebeb"></path><g style="opacity:0.4"><path d="M299.5,240.86l-45.21,50.52H235.11L281,240.1C286.9,240.28,293.35,240.52,299.5,240.86Z" style="fill:#fff"></path><path d="M340,263.22l-25.2,28.16H295.65l36.41-40.68A138,138,0,0,1,340,263.22Z" style="fill:#fff"></path><path d="M266.73,239.77l-46.19,51.61h-2.23l46.22-51.65Z" style="fill:#fff"></path><path d="M202.61,242.25l-30.12,33.66c.86-1.7,1.93-3.77,3.14-6l24.43-27.3C200.86,242.47,201.7,242.37,202.61,242.25Z" style="fill:#fff"></path><path d="M347.76,277.64l-12.3,13.74h-8.59l17.75-19.84C345.9,274,347,276.06,347.76,277.64Z" style="fill:#fff"></path><path d="M219.22,240.9,174,291.38h-1.32c-.89,0-1.73-2.85-2.17-5.7l39.52-44.16C212.94,241.28,216,241.08,219.22,240.9Z" style="fill:#fff"></path></g><path d="M183.84,293.77h15.09a23.31,23.31,0,0,0-1.4-3.73c-.42-.47-4.32-1.15-6.15-1.15s-5.72.68-6.14,1.15A23.31,23.31,0,0,0,183.84,293.77Z" style="fill:#c7c7c7"></path><path d="M190.93,289.27s8.79-3.25,9.63-3.36,36.33-2.86,36.33-2.86l.09.78-34.8,3.92c-.56.07-11,4.17-11,4.17Z" style="fill:#c7c7c7"></path><path d="M283.63,293.77h15.1a23.5,23.5,0,0,0-1.41-3.73c-.42-.47-4.31-1.15-6.14-1.15s-5.72.68-6.15,1.15A23.31,23.31,0,0,0,283.63,293.77Z" style="fill:#c7c7c7"></path><path d="M290.73,289.27s8.79-3.25,9.62-3.36,36.34-2.86,36.34-2.86l.08.78L302,287.75c-.56.07-11,4.17-11,4.17Z" style="fill:#c7c7c7"></path><path d="M191.42,300.25c11.38-1,22.75-1.57,34.13-1.94s22.76-.55,34.14-.56,22.75.16,34.13.55,22.76.91,34.14,1.95c-11.38,1-22.76,1.59-34.14,1.95s-22.75.55-34.13.55-22.76-.16-34.14-.55S202.8,301.29,191.42,300.25Z" style="fill:#fff;opacity:0.4"></path><path d="M349.16,350.41h-179l-.15-.24c-.18-.31-18.61-30.63-29-39.88l.66-.74c10,8.9,27.25,37,29,39.86H348.6c1.6-2.57,15.72-25.17,29-39.83l.74.68c-13.94,15.41-28.86,39.67-29,39.91Z" style="fill:#c7c7c7"></path><circle cx="145.1" cy="348.72" r="16.6" style="fill:#fff"></circle><path d="M153.21,348.72a8.37,8.37,0,1,1-2.33-5.78A8.38,8.38,0,0,1,153.21,348.72Zm0,0a7.85,7.85,0,0,0-8.11-7.85,7.77,7.77,0,0,0-5.43,2.43,7.84,7.84,0,0,0,0,10.85,7.77,7.77,0,0,0,5.43,2.43,7.9,7.9,0,0,0,5.68-2.17A8,8,0,0,0,153.21,348.72Z" style="fill:#ebebeb"></path><path d="M159,357.81a16.08,16.08,0,0,0,1.46-6.74,16.25,16.25,0,0,0-31.75-4.89A16.6,16.6,0,1,1,159,357.81Z" style="fill:#dbdbdb"></path><circle cx="374.51" cy="348.72" r="16.6" style="fill:#fff"></circle><path d="M366.4,348.72a7.84,7.84,0,0,0,8.11,7.86,7.79,7.79,0,0,0,5.43-2.43,7.86,7.86,0,1,0-13.54-5.43Zm0,0a8.37,8.37,0,1,1,2.33,5.79A8.35,8.35,0,0,1,366.4,348.72Z" style="fill:#ebebeb"></path><path d="M360.63,357.81a15.94,15.94,0,0,1-1.47-6.74,16.26,16.26,0,0,1,31.76-4.89,16.6,16.6,0,0,0-33,2.54A16.43,16.43,0,0,0,360.63,357.81Z" style="fill:#dbdbdb"></path></g><g id="freepik--traffic-light--inject-820"><polygon points="70.43 409.52 58.82 409.52 61.78 151.87 62.03 131.24 67.22 131.24 67.46 151.87 70.43 409.52" style="fill:#ECEFF1"></polygon><polygon points="67.27 135.24 61.97 136.57 62.02 131.23 67.22 131.23 67.27 135.24" style="opacity:0.1"></polygon><polygon points="90.82 56.71 86.8 128.07 82.1 128.82 77.82 129.49 77.82 52.44 86.92 55.42 90.82 56.71" style="fill:#ECEFF1"></polygon><path d="M86.39,65s17.37.18,17,1.15-7.35,2.93-8,3.37-7.27,13.12-9,13.12S86.39,65,86.39,65Z" style="fill:#ECEFF1"></path><path d="M85.11,85.24s17.37.18,17,1.15-7.35,2.92-8,3.37-7.27,13.11-9,13.11S85.11,85.24,85.11,85.24Z" style="fill:#ECEFF1"></path><path d="M83.83,105.44s17.37.18,17,1.16-7.35,2.92-8,3.36-7.27,13.12-9,13.12S83.83,105.44,83.83,105.44Z" style="fill:#ECEFF1"></path><polygon points="86.92 55.42 82.1 128.82 77.82 129.49 77.82 52.44 86.92 55.42" style="opacity:0.1"></polygon><polygon points="81.59 46.64 80.17 131.24 50.39 131.24 48.97 46.64 81.59 46.64" style="fill:#ECEFF1"></polygon><polygon points="76.19 451.59 53.07 451.59 55.05 373.09 55.65 348.73 73.11 348.73 73.84 373.09 76.19 451.59" style="fill:#ECEFF1"></polygon><g style="opacity:0.1"><polygon points="76.19 451.59 53.07 451.59 55.05 373.09 55.65 348.73 73.11 348.73 73.84 373.09 76.19 451.59"></polygon></g></g><g id="freepik--Floor--inject-820"><polygon points="42.29 451.59 94.21 451.35 146.14 451.26 250 451.09 353.86 451.25 405.79 451.34 457.71 451.59 405.79 451.83 353.86 451.92 250 452.09 146.14 451.92 94.21 451.83 42.29 451.59" style="fill:#263238"></polygon></g><g id="freepik--character-1--inject-820"><path d="M215,451c-2.16.72-63.8.54-66.15-1-.89-.55-1.39-9.54-1.68-20.41q-.09-3.53-.15-7.23c0-2.91-.08-5.87-.1-8.73-.08-12.88.1-24.21.1-24.21h40.13l0,24.21v8.73l-.21,7.23s23.57,10.63,26,12.55S217.11,450.34,215,451Z" style="fill:#f7a9a0"></path><path d="M215,451c-2.16.72-63.8.54-66.15-1-.89-.55-1.39-9.54-1.68-20.41q-.09-3.53-.15-7.23c0-2.91-.08-5.87-.1-8.73h40.21v8.73l-.21,7.23s23.57,10.63,26,12.55S217.11,450.34,215,451Z" style="fill:#fff"></path><path d="M215.15,451.14c-1.41.46-27.66.55-46.78.16-4.43-.1-8.47-.22-11.73-.36-4.5-.21-7.52-.45-8-.76-1.09-.7-1.6-13.89-1.85-27.8h40.33l-.21,7.27s23.7,10.69,26.12,12.61S217.31,450.41,215.15,451.14Z" style="fill:#263238"></path><path d="M214.26,448.66c-10.39-.29-52.32-.46-62.61,0-.09,0-.09.06,0,.06,10.29.51,52.22.34,62.61.06C214.48,448.82,214.48,448.66,214.26,448.66Z" style="fill:#ECEFF1"></path><path d="M188.38,427.35c-4.09-.77-9.09-.16-12.23,2.74-.12.12,0,.29.18.24a57.74,57.74,0,0,1,12-2.46A.26.26,0,0,0,188.38,427.35Z" style="fill:#ECEFF1"></path><path d="M191.32,429.14c-4.09-.78-9.09-.16-12.22,2.74-.12.11,0,.28.17.24a58,58,0,0,1,12-2.47A.26.26,0,0,0,191.32,429.14Z" style="fill:#ECEFF1"></path><path d="M194.27,430.92c-4.09-.77-9.09-.16-12.22,2.75-.13.11,0,.28.17.24a57.38,57.38,0,0,1,12-2.47A.26.26,0,0,0,194.27,430.92Z" style="fill:#ECEFF1"></path><path d="M197.21,432.71c-4.08-.77-9.09-.16-12.22,2.74-.12.12,0,.29.17.25a57.34,57.34,0,0,1,12-2.47A.26.26,0,0,0,197.21,432.71Z" style="fill:#ECEFF1"></path><path d="M196,417.92c-1.6-2.22-4.59-1.23-6.3.19a22,22,0,0,0-6.33,9.35.11.11,0,0,0,.1.15.51.51,0,0,0,.64.51c3.38-1.24,7.15-2.14,10.05-4.39C195.8,422.43,197.47,420,196,417.92Zm-7.15,7.27c-1.65.65-3.32,1.22-4.94,1.93,1.24-1.82,2.39-3.68,3.81-5.38a24,24,0,0,1,2.18-2.33c1.22-1.1,6-3.45,5.31,1C194.75,422.92,190.76,424.42,188.8,425.19Z" style="fill:#ECEFF1"></path><path d="M172.93,426.37c3.37,1.44,7.24,1.38,10.83,1.74a.51.51,0,0,0,.49-.66.12.12,0,0,0,.06-.17,21.86,21.86,0,0,0-8.46-7.47c-2-1-5.16-1.16-6.16,1.38S171,425.52,172.93,426.37Zm-1.83-2.93c-1.83-4.15,3.42-3.09,4.88-2.33a24.51,24.51,0,0,1,2.69,1.72,63.94,63.94,0,0,1,5,4.26c-1.75-.29-3.51-.42-5.26-.64C176.34,426.19,172.11,425.74,171.1,423.44Z" style="fill:#ECEFF1"></path><path d="M130.09,210.58s14.35,115.18,14.61,116.54c0,.18.11,2.24.21,5.61.59,18.47,2,76,2,76h44.25s-2.88-68.2-4.54-84.11c-2.12-20.3-18.94-114.09-18.94-114.09Z" style="fill:#455a64"></path><path d="M150,330.9q-2-34.86-6.15-69.56c-1.56-13-6.94-33.93-8.8-46.92,0-.11-.19-.11-.17,0,3.42,23.13,9.36,54.34,11.45,77.62s3.54,46.55,4.5,69.87c.54,13.22.94,26.44,1.37,39.66a.25.25,0,0,0,.49,0C152,378,151.36,354.43,150,330.9Z" style="fill:#263238"></path><path d="M188.4,401.65a35.79,35.79,0,0,0-3.59-.15c-1.33-.05-2.66-.06-4-.11-2.56-.1-5.13-.16-7.69-.2q-7.75-.13-15.51.11c-1.42,0-2.84.1-4.26.15s-3,.19-4.55.19c-.11,0-.11.13,0,.13,2.6,0,5.23.23,7.83.32s5.13.14,7.69.17c5.16.08,10.35,0,15.51-.16,1.42-.05,2.84-.07,4.26-.11l2.27-.1c.68,0,1.35,0,2-.07A.09.09,0,0,0,188.4,401.65Z" style="fill:#263238"></path><path d="M130.09,210.58s14.35,115.18,14.61,116.54c0,.18.11,2.24.21,5.61l17.35-122.15Z" style="fill:#263238"></path><path d="M96,448.8c-2.23-.46-55.61-31.27-56.91-33.74-.49-.93,3.55-9,8.7-18.54,1.1-2.07,2.17-4.25,3.46-6.35,1.61-2.64,3.26-5.26,4.88-7.76,7-10.91,13.29-19.8,13.29-19.8L103.27,382,91.06,401.94l-5,8.18-3.77,6.17s15.16,20.94,16.28,23.79S98.24,449.25,96,448.8Z" style="fill:#f7a9a0"></path><path d="M96,448.8c-2.23-.46-55.61-31.27-56.91-33.74-.49-.93,3.55-9,8.7-18.54,1.1-2.07,2.17-4.25,3.46-6.35,1.61-2.64,3.26-5.26,4.88-7.76,10.45,5.92,25.52,14.32,34.91,19.53l-5,8.18-3.77,6.17s15.16,20.94,16.28,23.79S98.24,449.25,96,448.8Z" style="fill:#fff"></path><path d="M96.14,449c-2.24-.45-55.92-31.44-57.22-33.92-.61-1.14,5.51-12.83,12.22-25l35,20.06-3.8,6.21s15.25,21.06,16.39,23.92S98.38,449.42,96.14,449Z" style="fill:#263238"></path><path d="M96.61,446.37C87.74,441,51.44,420,42.26,415.27c-.07,0-.1,0,0,.06,8.68,5.56,45.14,26.27,54.29,31.19C96.72,446.62,96.8,446.49,96.61,446.37Z" style="fill:#ECEFF1"></path><path d="M84.75,415c-3.16-2.7-7.81-4.66-12-3.7-.16,0-.11.27,0,.3a57.1,57.1,0,0,1,11.66,3.84A.26.26,0,0,0,84.75,415Z" style="fill:#ECEFF1"></path><path d="M86.41,418c-3.16-2.71-7.8-4.67-12-3.7-.16,0-.11.26,0,.29a57.13,57.13,0,0,1,11.66,3.85A.26.26,0,0,0,86.41,418Z" style="fill:#ECEFF1"></path><path d="M88.08,421c-3.16-2.7-7.8-4.66-12-3.7-.16,0-.1.27,0,.3a57.39,57.39,0,0,1,11.67,3.84A.26.26,0,0,0,88.08,421Z" style="fill:#ECEFF1"></path><path d="M89.75,424.06c-3.16-2.71-7.81-4.66-12-3.7-.16,0-.11.26,0,.29a58,58,0,0,1,11.67,3.85A.26.26,0,0,0,89.75,424.06Z" style="fill:#ECEFF1"></path><path d="M96,410.6c-.28-2.72-3.37-3.36-5.57-3a21.75,21.75,0,0,0-10.13,5,.1.1,0,0,0,0,.17.5.5,0,0,0,.3.76c3.55.61,7.27,1.7,10.9,1.19C93.64,414.43,96.28,413.17,96,410.6Zm-9.82,2.75c-1.76-.25-3.49-.59-5.25-.78a62.46,62.46,0,0,1,6-2.77,23.26,23.26,0,0,1,3-.95c1.61-.35,7,0,4.09,3.54C92.48,414.34,88.28,413.66,86.19,413.35Z" style="fill:#ECEFF1"></path><path d="M71.84,406.48c2.2,2.92,5.59,4.8,8.52,6.89a.51.51,0,0,0,.76-.32c.07,0,.13,0,.13-.12a21.82,21.82,0,0,0-3.62-10.69c-1.27-1.83-3.9-3.58-6-1.86S70.56,404.77,71.84,406.48ZM71.7,403c.48-4.52,4.51-1,5.39.4a23.06,23.06,0,0,1,1.48,2.83,64.58,64.58,0,0,1,2.25,6.2c-1.37-1.12-2.83-2.11-4.25-3.17C74.88,408,71.43,405.52,71.7,403Z" style="fill:#ECEFF1"></path><path d="M167.82,210.63s.48,23.36-10.33,31.24c0,0-23.83,79.77-26.93,88.91-5.34,15.76-34,69.16-34,69.16L54.34,376.45s31.68-55,35.33-59.59c2.43-3,20.63-67.71,20.39-69.37-2.8-19.19,9.62-37,9.62-37Z" style="fill:#455a64"></path><path d="M135.39,224.11a14.81,14.81,0,0,1-5.41,7.77,18.31,18.31,0,0,1-9.84,3.37c-.59.05-.64.95,0,.95,7.22.05,14.51-4.57,15.57-12C135.71,224,135.44,223.94,135.39,224.11Z" style="fill:#263238"></path><path d="M164.41,237a40.56,40.56,0,0,0-7.45,3.95c-2.48,1.54-4.76,3.33-7.16,5-.09.06,0,.21.09.15,2.51-1.44,5.12-2.69,7.6-4.18a47.64,47.64,0,0,0,7-4.71A.12.12,0,0,0,164.41,237Z" style="fill:#263238"></path><path d="M165.43,221.92c-.39,1.65-.87,3.28-1.3,4.92s-.73,3.12-1.21,4.63a8,8,0,0,1-2.36,3.82c-.64.54-1.33,1-2,1.5-.37.27-.76.52-1.14.79.06-.22.11-.44.16-.67.14-.63.28-1.25.41-1.88.3-1.39.59-2.79.87-4.19.55-2.74,1.07-5.52,1.77-8.23a.09.09,0,0,0-.17-.05c-.82,2.68-1.7,5.33-2.42,8-.36,1.33-1.71,7.9-1.78,8.37s-.13,1-.17,1.45a5.74,5.74,0,0,0-.07,1.49c0,.12.17.11.22,0h0a5.68,5.68,0,0,0,.49-1.42c.14-.46.27-.94.38-1.42,0-.17.07-.34.1-.52.67-.37,1.3-.86,1.93-1.28s1.37-.88,2-1.37a7.55,7.55,0,0,0,2.55-3.61,27,27,0,0,0,1-4.73c.3-1.87.54-3.76.89-5.62C165.62,221.86,165.46,221.81,165.43,221.92Z" style="fill:#263238"></path><path d="M96.12,390c-.93-.71-10.82-6.67-13-8-4.45-2.64-19.87-11-21.33-11.7-.48-.24-.55,0-.18.26,2.26,1.42,11.14,6.7,13.35,8,4.44,2.63,20.47,11.32,21.1,11.57C96.15,390.23,96.21,390.1,96.12,390Z" style="fill:#263238"></path><path d="M119.68,220.31A36.64,36.64,0,0,0,113.55,240a31.7,31.7,0,0,0,.37,5.24c.08.43.13.87.23,1.3l.13.64a1.6,1.6,0,0,1,.08.55c-.1.8-.31,1.67-.5,2.51-.8,3.37-1.69,6.73-2.58,10.09-3.61,13.43-7.26,26.85-11.11,40.21l-2.89,10c-.49,1.66-1,3.33-1.52,5-.26.81-.53,1.65-.84,2.41s-.73,1.53-1.15,2.29c-3.28,6.11-6.82,12.11-10.24,18.16,0,0-13.4,22.62-17,29.38-.17.31-.09.51.23.09,3.12-4.06,10.44-17.05,17.53-29,3.54-6,7-12,10.39-18.11.43-.75.81-1.56,1.21-2.36s.61-1.67.89-2.5c.54-1.66,1-3.33,1.55-5q1.5-5,2.93-10c3.74-13.41,7.44-26.82,10.83-40.32.84-3.37,1.68-6.75,2.43-10.15.18-.86.37-1.69.48-2.61a2.4,2.4,0,0,0-.1-.74l-.14-.63c-.1-.42-.16-.85-.24-1.27a34.11,34.11,0,0,1-.47-5.14A36.88,36.88,0,0,1,119.68,220.31Z" style="fill:#263238"></path><path d="M133.7,159.32c-.13,11.51-.07,23.36,1.56,34.77C136.53,203,140.6,210.17,150,212c8.69,1.66,21,1,28-5.06,3.27-2.81,4.29-6.61,3.88-10.81-.56-5.83-6.6-37.66-8.42-47.59-1.1-6-2.18-12.18-4.35-18-4.54-12.16-10.64-11.79-11.5-12-.75-.44-5.53-2.32-12.1.09a13,13,0,0,0-7.61,7.4C133.5,136.12,133.84,148.54,133.7,159.32Z" style="fill:#263238"></path><path d="M159.55,120.14c7.49,3.11,9.59,11,11.68,18.16,2.91,9.89,5.65,19.83,7.91,29.89,1.09,4.84,2.07,9.71,2.9,14.59.79,4.68,1.93,9.66,1.82,14.43-.18,7.88-7.21,11.77-14.13,13.19a.27.27,0,0,1-.12-.52c3.93-1,7.93-2.23,10.75-5.31,3.63-3.94,3-8.84,2.31-13.73-1.13-8.32-2.73-16.57-4.62-24.74s-4.08-16.3-6.4-24.38c-2.2-7.68-4-17.85-12.14-21.45C159.43,120.23,159.47,120.11,159.55,120.14Z" style="fill:#263238"></path><path d="M134.85,134.55c1.13-6.07,4-12.06,10.24-14.08,0,0,0,0,0,0-8.06,3-9.66,12-10.42,19.48q-1.22,11.86-1.53,23.77c-.21,7.64-.27,15.33.22,22.95.52,8.24,2.34,15.89,7.51,22.47.1.13-.08.31-.2.18-5-5.28-7-12.78-7.65-19.85a213.24,213.24,0,0,1-.39-28.15C132.94,152.47,133.22,143.28,134.85,134.55Z" style="fill:#263238"></path><path d="M155.1,153.27c-5.83-3.14-21.86-4.51-28.31-.18-8.15,5.47-15.66,37.16-12.33,39,5.93,3.35,26.47-15.06,30.94-22.62S155.1,153.27,155.1,153.27Z" style="fill:#ECEFF1"></path><path d="M155.1,153.27s-5.23,8.68-9.7,16.24-25,26-30.95,22.61c-2.61-1.48,1.5-21.47,7.35-32.56L152,152.05A16,16,0,0,1,155.1,153.27Z" style="opacity:0.1"></path><path d="M154.81,167.48c2,14.66,8.14,36.4,13.11,43.39,5.53,7.77,34.37,3.48,52.2.33,3.54-.63-.45-27.59-4.2-26.73-9.8,2.26-30.67,8.32-32.51,7-1.51-1.08-12.45-16.66-17.92-25.76C156.78,151.23,153.39,157.17,154.81,167.48Z" style="fill:#f7a9a0"></path><path d="M212.88,210.81c-3-1-4.75-21.6-2.37-23.79a13.49,13.49,0,0,1,2.8-1.6h0a45.76,45.76,0,0,0,7.75-10.89c2.27-4.83,5.08-12.27,7.73-11.15,3.86,1.63,1.43,11.46-.31,17,3.1-.66,5.83-.94,7.48-.52,5.47,1.4,2.34,26.63-2.89,29C228,211.16,215.87,211.79,212.88,210.81Z" style="fill:#f7a9a0"></path><polygon points="237.76 175.13 232.42 205.44 215.61 203.83 216.1 173.06 237.76 175.13" style="fill:#ECEFF1"></polygon><rect x="214.51" y="171.32" width="24.81" height="4.47" transform="matrix(1, 0.1, -0.1, 1, 17.55, -20.81)" style="fill:#455a64"></rect><polygon points="237.78 172.35 216.47 170.31 218.2 165.43 237.02 167.23 237.78 172.35" style="fill:#37474f"></polygon><path d="M231.28,190.19c-.38,4-3.3,6.93-6.52,6.62s-5.52-3.77-5.14-7.73,3.29-6.93,6.52-6.63S231.66,186.23,231.28,190.19Z" style="fill:#fff"></path><path d="M227.1,179.41c-1.67,2.42,2.14,3,2.14,3s-5.68.49-6.43,3.65,3.91,3.58,4.24,3.62c-.3,0-5.51.62-5.93,3.87s4.29,3.11,4.59,3.1c-.27.11-3.88,1.71-3.64,4.25.41,4.37,9.74.55,13,2.06,0,0-1.94,5.74-2,5.92,0,0,9-3.45,10.75-7.91a3.05,3.05,0,0,0-1-3.69s3-.8,3.42-3.34c.21-1.31-1.69-2.81-1.69-2.81a3.85,3.85,0,0,0,2.61-3c.19-1.83-1.75-3.05-1.75-3.05s2-1.77,1.54-3.7C246.08,177.45,230.66,174.23,227.1,179.41Z" style="fill:#f7a9a0"></path><path d="M245.08,184.8a0,0,0,0,0,0-.08A27.35,27.35,0,0,0,229,182.35c-.17,0-.19.32,0,.33A55.84,55.84,0,0,1,245.08,184.8Z" style="fill:#263238"></path><path d="M244.58,191.1c.06,0,.09-.08,0-.11a25.6,25.6,0,0,0-17.7-1.5c-.21.06-.33.33-.08.27C230.87,188.84,239.7,189.64,244.58,191.1Z" style="fill:#263238"></path><path d="M225.34,196.91c5.77-1.54,11.46-1.07,17.23.25.07,0,.09-.09,0-.12-2.65-1.42-6.41-1.88-9.37-2a15.64,15.64,0,0,0-7.94,1.65C225.19,196.76,225.22,196.94,225.34,196.91Z" style="fill:#263238"></path><path d="M229.16,182.33c-.2,0,.08.3-.13.35-.86.18-6,1.77-6,3.68,0,1.54,2.06,2.6,3,2.7l2.4.24-2.34.61a9.88,9.88,0,0,0-2.93,1.26,3.55,3.55,0,0,0-1.71,2.31,2,2,0,0,0,1.16,2.26,6.12,6.12,0,0,0,3,.42l2.85-.22-2.6,1.14a8.72,8.72,0,0,0-2,1.21,3.8,3.8,0,0,0-1.34,1.75,1.81,1.81,0,0,0,.46,1.85,4,4,0,0,0,2.11.76,31.35,31.35,0,0,0,4.94,0c.84,0,1.68-.08,2.52-.08A5.94,5.94,0,0,1,235,203a6.4,6.4,0,0,0-2.47-.16c-.82.06-1.65.17-2.48.27a27.31,27.31,0,0,1-5.05.28,4.71,4.71,0,0,1-2.56-.83,2.59,2.59,0,0,1-.78-2.71,4.68,4.68,0,0,1,1.6-2.22,10.08,10.08,0,0,1,2.24-1.38l.24.91a7,7,0,0,1-3.58-.47,2.9,2.9,0,0,1-1.42-1.37,3.24,3.24,0,0,1-.25-1.93,4.48,4.48,0,0,1,2.16-2.94,10.72,10.72,0,0,1,3.25-1.33l.06.84c-1.21-.16-3.64-1.1-4-3.48C222.12,183.27,228.07,182.41,229.16,182.33Z" style="fill:#263238"></path><path d="M229.24,182.4a5.87,5.87,0,0,1-1.59-.86,1.36,1.36,0,0,1-.55-1.26,2.77,2.77,0,0,1,.81-1.35c.42-.42.88-.84,1.37-1.26a4.62,4.62,0,0,0-1.78.77,2.76,2.76,0,0,0-1.22,1.71,2,2,0,0,0,.22,1.15,2,2,0,0,0,.8.77A3.17,3.17,0,0,0,229.24,182.4Z" style="fill:#263238"></path><path d="M210.13,184.93l4.62,30.57s-34.81,5.9-46.21-2.07c-4.7-3.28-13-34.53-14.81-45.45s2.21-17.59,11.64-3.8S183.67,189.9,184.8,190,210.13,184.93,210.13,184.93Z" style="fill:#ECEFF1"></path><path d="M204,188.49a60.09,60.09,0,0,0,.72,6.25c.29,2.15.64,4.28,1,6.43s2,10.65,2.42,12.77c0,.1.17.07.15,0-.28-2.15-1.41-10.68-1.76-12.78s-.68-4.2-1.08-6.29-.73-4.3-1.35-6.36C204.05,188.44,204,188.44,204,188.49Z" style="fill:#263238"></path><path d="M197.5,217.37c-10.49.61-23,.26-29-3.93-4.7-3.29-13-34.54-14.82-45.45-.84-5-.44-9.14,1.16-10.8,0,0,0,0,0,0a3.17,3.17,0,0,1,2.38-.68Z" style="opacity:0.1"></path><path d="M168.5,202a82.64,82.64,0,0,1,4.67,13.57c.58,2.64-1.14,6.41-1.14,6.41l-58.38,1.38a10.74,10.74,0,0,1-1.18-8.08c3.7-14.83,15.82-46.65,27.59-56.4,7.72-6.39,15.55-4.77,19.89,1,1.1,1.47,13.84,21,14.4,28.93C174.83,195.8,168.5,202,168.5,202Z" style="fill:#ECEFF1"></path><path d="M160.53,197.48a53.76,53.76,0,0,0-8,.53c-1.32.21-2.61.47-3.91.76-.65.15-1.3.27-1.95.4a8.49,8.49,0,0,1-2.07.18.05.05,0,0,0,0,.1,14.25,14.25,0,0,0,2,.15,15.07,15.07,0,0,0,1.9-.17c1.34-.2,2.67-.45,4-.66,2.7-.42,5.39-.84,8.11-1.07C160.66,197.69,160.65,197.48,160.53,197.48Z" style="fill:#263238"></path><path d="M166.87,200.47a58.26,58.26,0,0,0-6.56-1c-1.11-.09-2.21-.12-3.31-.12l-1.59,0c-.58,0-1.16.11-1.74.12-.06,0-.07.09,0,.09.55,0,1.1.11,1.65.15l1.65.11c1.1.08,2.19.18,3.3.24,2.2.14,4.39.3,6.59.52A.09.09,0,0,0,166.87,200.47Z" style="fill:#263238"></path><path d="M136.68,159.18c-6.4,3.72-32,23-34.48,28.51-4.52,9.94,2.12,41.47,4.08,48.54.85,3.07,26.44-2.41,25.76-5.76-.45-2.26-9.51-30.56-9.12-33.08S137.1,176.22,145.24,167C153,158.28,150.26,151.29,136.68,159.18Z" style="fill:#f7a9a0"></path><path d="M141.56,257.72a3.91,3.91,0,0,1-4.44.48,5.8,5.8,0,0,1-2.25,3.24c-2,1.29-4.92-1.3-4.92-1.3a7.14,7.14,0,0,1-2.91,3c-2.05,1-5.35-1.15-5.35-1.15a6.28,6.28,0,0,1-4.25,1.05c-4-.61-6.41-6.26-8-9.84s-2.72-15.2-3.16-17.39l22.87-10.35s11.65,14,12.91,18.49C143.14,247.76,143.78,255.62,141.56,257.72Z" style="fill:#f7a9a0"></path><path d="M137.41,257.88c-.17-4.28-1.59-8.27-2.78-12.33,0-.09-.17-.05-.14,0,1.23,4,1.65,8.25,2.72,12.32C137.24,258,137.42,258,137.41,257.88Z" style="fill:#263238"></path><path d="M130.22,259.93a11.17,11.17,0,0,0-.77-2.81c-.34-1-.7-2-1.07-2.91q-1.12-2.9-2.38-5.73c0-.08-.18,0-.14,0,.74,1.93,1.45,3.86,2.11,5.82q.5,1.46,1,2.94a13.78,13.78,0,0,0,1,2.73A.15.15,0,0,0,130.22,259.93Z" style="fill:#263238"></path><path d="M121.66,261.94a8,8,0,0,0-.83-2.49c-.36-.87-.71-1.75-1.06-2.62-.7-1.76-1.39-3.51-2-5.28,0-.09-.17-.05-.14,0,.64,1.81,1.25,3.62,1.9,5.42.32.89.65,1.77,1,2.65a7.16,7.16,0,0,0,1.09,2.32S121.66,262,121.66,261.94Z" style="fill:#263238"></path><path d="M131.11,225.16l-26.89,10.62s-7.89-34.82-3.09-49c2-5.84,25.3-23.73,36-28.92s18.84-3,7.44,10.88-21.08,26.65-20.83,27.84S131.11,225.16,131.11,225.16Z" style="fill:#ECEFF1"></path><path d="M126.69,192.35c.78-.85,4.78-6.41,6.15-8.21q1.69-2.22,3.44-4.39c.83-.78,1.66-1.56,2.47-2.36.05,0,0-.13-.08-.09-.59.53-1.16,1.08-1.74,1.63,1.49-1.85,3-3.7,4.43-5.57,0-.05,0-.1-.07-.06-2.59,2.79-5.07,5.63-7.48,8.58a113.65,113.65,0,0,0-7.62,10.5C125.68,193.2,126,193.12,126.69,192.35Z" style="fill:#263238"></path><path d="M127.75,220.76a58.86,58.86,0,0,0-5.65,1.8c-1.94.66-3.85,1.38-5.77,2.08s-9.49,3.8-11.39,4.57c-.08,0,0,.16.06.13,1.94-.65,9.62-3.24,11.5-3.94s3.76-1.4,5.62-2.15a61,61,0,0,0,5.65-2.41S127.8,220.75,127.75,220.76Z" style="fill:#263238"></path><path d="M130.39,225.44l.71-.31,0,0q-2.09-7.07-4-14.2l-1.87-7.13-1.79-7.16,0-.07v0a4.32,4.32,0,0,1,.41-.91l.47-.77c.33-.49.66-1,1-1.46.68-1,1.37-1.91,2.08-2.85,1.4-1.89,2.85-3.74,4.33-5.56l-4,5.81c-.66,1-1.32,1.93-2,2.91-.32.49-.63,1-.93,1.49l-.44.74a3.93,3.93,0,0,0-.32.68v-.12l1.88,7.13,1.8,7.15q1.78,7.16,3.38,14.36v0h0Z" style="fill:#263238"></path><path d="M146.72,157.6c.2,1,4.71,7.54,9.22,7.47,1.47,0,1.68-8.06,1.68-8.06l.15-.59,2.12-8.25-9.57-6.55-1.38-.88s-.43,2.3-.94,5.16c0,.13-.05.27-.07.41s-.07.31-.09.46c-.08.43-.16.87-.23,1.3s-.11.66-.16,1-.1.69-.16,1A55.33,55.33,0,0,0,146.72,157.6Z" style="fill:#f7a9a0"></path><path d="M159.89,148.17l-2,7.93a18.26,18.26,0,0,1-10-9.39l.15-.81c.51-2.86.94-5.15.94-5.15l1.38.86Z" style="fill:#263238"></path><path d="M170.89,135.25c1.17,14.9-7.63,17.28-10.84,17.53-2.91.23-12.87.62-15.57-14.07s3.85-20,10.49-20.82S169.72,120.36,170.89,135.25Z" style="fill:#f7a9a0"></path><path d="M168.5,133.11a9.13,9.13,0,0,1-1-.19,1.7,1.7,0,0,1-1-.39.53.53,0,0,1,0-.65,1.32,1.32,0,0,1,1.29-.34,1.92,1.92,0,0,1,1.23.66A.56.56,0,0,1,168.5,133.11Z" style="fill:#263238"></path><path d="M158.38,133.07a8.72,8.72,0,0,0,1-.24,1.69,1.69,0,0,0,1-.43.53.53,0,0,0,0-.65,1.28,1.28,0,0,0-1.3-.28,1.89,1.89,0,0,0-1.2.71A.57.57,0,0,0,158.38,133.07Z" style="fill:#263238"></path><path d="M160.59,136s-.08.05-.08.09c.08,1,0,2.19-.9,2.57,0,0,0,.07,0,.06C160.74,138.49,160.83,136.93,160.59,136Z" style="fill:#263238"></path><path d="M159.63,135c-1.64-.05-1.61,3.24-.09,3.28S161,135,159.63,135Z" style="fill:#263238"></path><path d="M159,135.14c-.29.19-.57.52-.91.55s-.71-.3-1-.62c0,0-.06,0-.06,0,0,.63.25,1.28.92,1.37s1.06-.48,1.21-1.12C159.21,135.24,159.1,135.06,159,135.14Z" style="fill:#263238"></path><path d="M166.29,135.81s.08,0,.08.09c0,1,.14,2.18,1.07,2.5a0,0,0,0,1,0,.06C166.31,138.32,166.11,136.77,166.29,135.81Z" style="fill:#263238"></path><path d="M167.18,134.73c1.63-.16,1.82,3.12.31,3.26S165.81,134.86,167.18,134.73Z" style="fill:#263238"></path><path d="M167.87,134.9c.27.16.55.46.86.46s.6-.36.81-.72c0,0,.05,0,.05,0,.06.62-.11,1.29-.71,1.44s-1-.37-1.16-1C167.69,135,167.76,134.84,167.87,134.9Z" style="fill:#263238"></path><path d="M161.4,144.33c.27.22.54.52.91.53a2.81,2.81,0,0,0,1.07-.35,0,0,0,0,1,0,.05,1.37,1.37,0,0,1-1.24.66,1.12,1.12,0,0,1-.87-.84S161.37,144.3,161.4,144.33Z" style="fill:#263238"></path><path d="M160.87,141.63a3.37,3.37,0,0,0,2.39,1.29,4.17,4.17,0,0,0,1.22-.06l.23-.05.21-.05a.25.25,0,0,0,.18-.24h0a.3.3,0,0,0,0-.1h0v-.08c0-.77-.23-1.92-.23-1.92.29.11,1.77.62,1.71.22a51.1,51.1,0,0,0-2.27-10.09c0-.1-.2-.06-.18.05.36,3.17,1.28,6.25,1.7,9.44a6.16,6.16,0,0,0-1.64-.34c-.1,0,.39,2.22.39,2.57v0a4.71,4.71,0,0,1-3.6-.76C160.87,141.48,160.8,141.56,160.87,141.63Z" style="fill:#263238"></path><path d="M144.68,137.88c3.54.07,3.57-5.51,3.57-5.51s4-.33,4.38-6.8a9.81,9.81,0,0,0,7.32,4.78c1.15.18-2.68-2.84-2.68-2.84s4.58,4.23,13.19,2.73c.61-.11-.59-9.18-7.3-12.34s-12.8-1.47-17,2.74a8.17,8.17,0,0,0-4.39,6.33C141.16,131.64,143.3,137.85,144.68,137.88Z" style="fill:#263238"></path><path d="M146.93,139.67s-3.22-4.7-5.35-3.55.27,7.93,2.75,8.87a2.53,2.53,0,0,0,3.4-1.33Z" style="fill:#f7a9a0"></path><path d="M142.32,138.05s0,0,0,.06a6.38,6.38,0,0,1,3.26,4,1.39,1.39,0,0,0-2.08-.4c-.05,0,0,.1,0,.09a1.53,1.53,0,0,1,1.7.56,7.42,7.42,0,0,1,.81,1.39c.08.16.36.07.3-.11v0C146.4,141.41,144.7,138.29,142.32,138.05Z" style="fill:#263238"></path><path d="M146.05,144.33a.74.74,0,1,1-.73-.74A.74.74,0,0,1,146.05,144.33Z" style="fill:#fff"></path></g><g id="freepik--character-2--inject-820"><path d="M340.55,161.56c-8.58,13.3-18.93,29.59-27.93,45.56-3.93,7-13.31,21.42-15.67,25.18-3.12,4.94,23.89,15.12,25.65,11.52,1.15-2.35,6.49-16.26,10.72-28.12,5.43-15.25,13.91-35.16,15-49.79C349.22,152.84,343.87,156.41,340.55,161.56Z" style="fill:#ad6359"></path><path d="M311.83,253.2c1.31-1.1,1.89-.42,1.28,2.56S307.52,270,311.6,271.4s10.85-14.59,11.5-19.63-.07-13.41-.07-13.41C321.09,241.21,315.71,247.67,311.83,253.2Z" style="fill:#ad6359"></path><path d="M301,226.15c-5.49,8.27-12.48,18.42-12.82,29.38a5.45,5.45,0,0,0,1,3.42c-.24,4.91,2,6.5,2,6.5,1.18,4.64,3.7,5.94,3.7,5.94s-.22,5.77,3.25,6.48c3.88.8,3.42-7.45,6-12.15,5.78-10.75,17-24.42,19-27.36Z" style="fill:#ad6359"></path><path d="M302.18,250.19a77.69,77.69,0,0,0-4.53,9.7,77.34,77.34,0,0,0-2.7,11.42.1.1,0,0,1-.19,0A41.62,41.62,0,0,1,302,250.11C302.13,250,302.26,250,302.18,250.19Z" style="fill:#263238"></path><path d="M296.19,245.75c-1.42,3.21-3.88,8.85-4.94,19.71,0,0-.06,0-.06,0A37.19,37.19,0,0,1,296,245.69C296.15,245.49,296.29,245.54,296.19,245.75Z" style="fill:#263238"></path><path d="M292.93,243.43c-2.21,5.54-2.9,9.31-3.78,15.5,0,0-.06,0-.06,0,.25-7.15,1.15-9.71,3.66-15.6C292.84,243.13,293,243.21,292.93,243.43Z" style="fill:#263238"></path><path d="M322.23,183.24l20.56,7.89s5.5-16.18,7-26.42S348,150.46,338.19,162A219.57,219.57,0,0,0,322.23,183.24Z" style="fill:#ECEFF1"></path><path d="M322.23,183.24l20.56,7.89s5.5-16.18,7-26.42S348,150.46,338.19,162A219.57,219.57,0,0,0,322.23,183.24Z" style="fill:#ECEFF1"></path><path d="M343,187.18q-4.17-2.06-8.44-3.92c-1.4-.6-2.79-1.23-4.21-1.81s-3-1.11-4.42-1.71c-.1,0-.18.11-.08.16,1.39.63,2.73,1.36,4.12,2s2.88,1.27,4.32,1.9c2.85,1.24,5.74,2.41,8.64,3.51C343,187.34,343.06,187.22,343,187.18Z" style="fill:#263238"></path><path d="M325.91,184.66l16.88,6.48s5.51-16.19,7-26.43c.85-5.75.16-9.54-2.34-9.7C342.59,161.56,331.39,176.66,325.91,184.66Z" style="opacity:0.1"></path><path d="M359.44,389.26s2.8,38.85,2.8,38.88c0,7.61-.06,14.28-.43,17.73a.11.11,0,0,1,0,.05,5.3,5.3,0,0,1-.55,2.35l0,.05c-2.26,1.55-63.06,3.63-65.21,3s-.48-6.81,1.81-8.77S323,429.37,323,429.37l-2.43-38.84Z" style="fill:#ad6359"></path><path d="M296,451.31c2.15.64,62.94-1.44,65.2-3,0,0,0,0,.05-.05a5.28,5.28,0,0,0,.55-2.34.13.13,0,0,0,0-.06c.37-3.45.47-10.12.44-17.73,0,0-.49-6.74-1.05-14.6l-39,1.82.87,14s-22.91,11.21-25.21,13.17S293.85,450.67,296,451.31Z" style="fill:#ebebeb"></path><path d="M295.73,451.41c2.18.64,63.93-1.07,66.23-2.65.87-.59,1.07-21.3-.17-31.79L322,418.53s.06,10.66-.42,10.91c-3.91,2-22,11.28-24,13.06C295.22,444.5,293.55,450.77,295.73,451.41Z" style="fill:#ECEFF1"></path><path d="M296.52,448.91c10.34-.65,52.08-2.28,62.34-2.13.09,0,.09.06,0,.07-10.23.86-52,2.15-62.34,2.23C296.31,449.08,296.3,448.92,296.52,448.91Z" style="fill:#263238"></path><path d="M301.43,440.13a8.31,8.31,0,0,1,6.28,2.29,8.07,8.07,0,0,1,2.52,5.44c0,.06-.11.06-.12,0a9.61,9.61,0,0,0-8.68-7.6A.07.07,0,0,1,301.43,440.13Z" style="fill:#263238"></path><path d="M319.13,430.22c4.14-.21,9,1.06,11.69,4.35.11.13-.08.28-.2.22a57.52,57.52,0,0,0-11.54-4.06A.26.26,0,0,1,319.13,430.22Z" style="fill:#263238"></path><path d="M316,431.59c4.14-.22,9,1.06,11.69,4.35.11.13-.07.27-.2.22a57.52,57.52,0,0,0-11.54-4.06A.26.26,0,0,1,316,431.59Z" style="fill:#263238"></path><path d="M312.83,433c4.14-.21,9,1.07,11.69,4.36.11.12-.07.27-.2.21a57.49,57.49,0,0,0-11.54-4A.26.26,0,0,1,312.83,433Z" style="fill:#263238"></path><path d="M309.68,434.32c4.14-.21,9,1.07,11.7,4.35.1.13-.08.28-.21.22a57.3,57.3,0,0,0-11.54-4.06A.26.26,0,0,1,309.68,434.32Z" style="fill:#263238"></path><path d="M355.37,421.05c4.64-.16,4.9,7.06.25,7.22S350.71,421.21,355.37,421.05Z" style="fill:#263238"></path><path d="M314.8,425.39a22.63,22.63,0,0,0,5.79,4.56l.47.28c.87.53,1.75,1,2.58,1.58a.38.38,0,0,0,.32.05.54.54,0,0,0,.4-.42.11.11,0,0,0,.14-.11c0-.14,0-.28-.07-.43a.19.19,0,0,0,0-.14,3.33,3.33,0,0,0-.07-.54,22.53,22.53,0,0,0-2.34-6.74,18.68,18.68,0,0,0-1.67-2.6c-1.36-1.76-4.07-3.36-6.09-1.53S313.42,423.76,314.8,425.39Zm-.32-3.42c.23-4.52,4.43-1.2,5.39.12a24.18,24.18,0,0,1,1.6,2.74c.16.31.33.63.46.94.77,1.57,1.36,3.21,2,4.83a.05.05,0,0,1,0,0l.09.23-.23-.16-.21-.14c-.62-.46-1.27-.88-1.92-1.3l-2-1.32C317.9,426.78,314.34,424.47,314.48,422Z" style="fill:#263238"></path><path d="M323.93,431.86h0c1.46.17,3,.42,4.46.61a20.27,20.27,0,0,0,6.41,0c2.1-.39,4.67-1.79,4.26-4.34s-3.53-3.16-5.69-2.65a22,22,0,0,0-9.06,4.75l-.41.38,0,0-.08.08-.24.23a.12.12,0,0,0,0,.18A.51.51,0,0,0,323.93,431.86Zm1.12-.92-.62,0-.22,0,.2-.12h0a57.35,57.35,0,0,1,5.59-2.95,24.37,24.37,0,0,1,3-1.11c1.58-.43,6.91-.35,4.25,3.32-1.47,2-5.7,1.56-7.78,1.36C328,431.25,326.52,431.06,325.05,430.94Z" style="fill:#263238"></path><path d="M362.31,411.28l-43.46,1.79s-2-60.69-1.05-86.22c1.05-27.74,13-110.26,13-110.26h35.94s-9.19,82.85-9.38,110.59C357.15,352.9,362.31,411.28,362.31,411.28Z" style="fill:#37474f"></path><path d="M337.83,216.59l21.59,74.7c2.56-35.35,7.29-74.7,7.29-74.7Z" style="fill:#263238"></path><path d="M359.89,220.66l-2.29,24.63-2.11,24.65c-1.35,16.44-2.64,32.88-3.62,49.35-.24,4.12-.38,8.26-.32,12.39s.25,8.26.46,12.38q.63,12.36,1.59,24.69c.62,8.23,2.92,32.44,2.92,32.44s-1.67-24.26-2.2-32.49-1.08-16.45-1.46-24.68c-.19-4.12-.34-8.23-.42-12.35s.12-8.21.37-12.33c.9-16.45,2.2-32.9,3.4-49.34Z" style="fill:#263238"></path><path d="M320.2,404.92c6.63-.45,4.72-.42,11.36-.79,3.24-.19,24.58-1.38,27.64-1,.07,0,.07.12,0,.14-3,.64-24.36,1.46-27.61,1.58-6.64.25-4.74.11-11.38.28A.1.1,0,0,1,320.2,404.92Z" style="fill:#263238"></path><path d="M428.5,367.22s19.82,33.54,19.84,33.56c3.42,6.8,6.31,12.82,7.51,16.07a.43.43,0,0,1,0,0,5.22,5.22,0,0,1,.56,2.35.64.64,0,0,1,0,.07c-1.33,2.39-54.83,31.34-57,31.72s-3.47-5.87-2.29-8.65,16.72-23,16.72-23l-19.48-33.69Z" style="fill:#ad6359"></path><path d="M399.36,451.05c2.21-.39,55.71-29.34,57-31.74,0,0,0,0,0-.06a5.3,5.3,0,0,0-.55-2.35s0,0,0,0c-1.21-3.26-4.09-9.27-7.51-16.06l-7.45-12.61-34.13,19,7,12.15s-15.52,20.24-16.71,23S397.15,451.43,399.36,451.05Z" style="fill:#ebebeb"></path><path d="M399.16,451.26c2.24-.4,56.76-29.45,58.11-31.89.52-.92-8.53-19.54-14.31-28.38L408,410.11s4.8,9.52,4.48,9.95c-2.6,3.53-14.64,19.89-15.71,22.41C395.63,445.3,396.92,451.66,399.16,451.26Z" style="fill:#ECEFF1"></path><path d="M398.76,448.66c9-5.18,45.61-25.24,54.86-29.68.08,0,.1,0,0,.06-8.77,5.33-45.58,25.09-54.81,29.77C398.64,448.91,398.57,448.77,398.76,448.66Z" style="fill:#263238"></path><path d="M399.24,438.62a8.28,8.28,0,0,1,6.64-.75,8.05,8.05,0,0,1,4.68,3.74c0,.06-.07.11-.11.06a9.61,9.61,0,0,0-11.15-2.94A.06.06,0,1,1,399.24,438.62Z" style="fill:#263238"></path><path d="M410.67,421.86c3.61-2,8.52-3.05,12.41-1.31.15.06.05.28-.09.28a57.13,57.13,0,0,0-12.14,1.51A.26.26,0,0,1,410.67,421.86Z" style="fill:#263238"></path><path d="M408.46,424.49c3.61-2,8.52-3.06,12.41-1.32.15.07.05.28-.09.29A57.13,57.13,0,0,0,408.64,425,.26.26,0,0,1,408.46,424.49Z" style="fill:#263238"></path><path d="M406.25,427.11c3.61-2,8.52-3.05,12.41-1.31.15.07,0,.28-.09.28a57.14,57.14,0,0,0-12.14,1.52A.26.26,0,0,1,406.25,427.11Z" style="fill:#263238"></path><path d="M404,429.74c3.61-2,8.52-3.05,12.41-1.31.15.07.05.28-.09.28a57.13,57.13,0,0,0-12.14,1.51A.26.26,0,0,1,404,429.74Z" style="fill:#263238"></path><path d="M439,397.5c4.09-2.21,7.54,4.13,3.44,6.35S434.93,399.72,439,397.5Z" style="fill:#263238"></path><path d="M404.64,419.47a23.18,23.18,0,0,0,7.22,1.5l.54,0c1,.08,2,.16,3,.26a.38.38,0,0,0,.31-.1.54.54,0,0,0,.18-.55.11.11,0,0,0,.07-.16l-.25-.35a.18.18,0,0,0-.08-.12,4.5,4.5,0,0,0-.31-.45,22.34,22.34,0,0,0-5.09-5,18.49,18.49,0,0,0-2.66-1.59c-2-1-5.13-1.19-6.13,1.34S402.68,418.62,404.64,419.47Zm-1.82-2.92c-1.8-4.16,3.44-3.06,4.89-2.29a23.18,23.18,0,0,1,2.65,1.73c.29.21.57.42.83.64,1.39,1.06,2.65,2.27,3.95,3.43l0,0,.18.16-.27,0-.25,0c-.76-.13-1.53-.22-2.3-.31l-2.42-.28C408,419.33,403.82,418.84,402.82,416.55Z" style="fill:#263238"></path><path d="M415.7,421.19l0,0c1.39-.49,2.84-.94,4.27-1.44a20.17,20.17,0,0,0,5.74-2.86c1.69-1.29,3.38-3.68,1.87-5.78s-4.56-1.26-6.27.16a22,22,0,0,0-6,8.29c-.07.17-.13.34-.19.52,0,0,0,0,0,0l0,.11a2.39,2.39,0,0,0-.11.32c0,.07,0,.12.09.15A.51.51,0,0,0,415.7,421.19Zm.59-1.33c-.2.08-.39.16-.57.25a.76.76,0,0,0-.21.08l.13-.2h0a58.5,58.5,0,0,1,3.68-5.14,24,24,0,0,1,2.19-2.32c1.22-1.09,6-3.39,5.28,1.08-.42,2.46-4.4,3.93-6.36,4.68C419.05,418.83,417.66,419.31,416.29,419.86Z" style="fill:#263238"></path><path d="M334.44,216.56v0c.16.74,2.67,12.4,5.28,22.41,1.89,7.32,3.84,13.75,5,14.42s7.44,3.48,9.51,4.34c0,0,13.88,69.29,21.21,90.78,6.76,19.83,25.86,57.7,25.86,57.7l39.47-21.81s-21.69-37.36-25-47c-5.16-15-24.53-88-24.53-88s.15-22.87-7.55-32.85Z" style="fill:#37474f"></path><path d="M399.58,397.24c5.8-3.24,4.09-2.39,9.93-5.57,2.86-1.55,21.64-11.75,24.56-12.73.06,0,.11.08.06.12-2.45,1.87-21.4,11.73-24.29,13.23-5.89,3.07-4.23,2.12-10.17,5.12A.1.1,0,0,1,399.58,397.24Z" style="fill:#263238"></path><path d="M380.77,243.05c-1.12-.28-2.3-.37-3.44-.55-.91-.15-1.83-.31-2.73-.51a11.82,11.82,0,0,1-4.83-2,11.39,11.39,0,0,1-3.12-4.86c-.46-1.06-.92-2.11-1.39-3.16-.23-.51-.46-1-.7-1.52a17.84,17.84,0,0,1-.85-1.83c0-.09-.18,0-.14,0A11.58,11.58,0,0,1,364,230c.16.51.3,1,.46,1.53.28.91.56,1.82.86,2.73A22.06,22.06,0,0,0,367.2,239c1.68,2.67,4.67,3.74,7.67,4.12.86.11,1.73.17,2.59.22a18.8,18.8,0,0,0,3.27,0A.15.15,0,0,0,380.77,243.05Z" style="fill:#263238"></path><path d="M341.41,251.79a81.19,81.19,0,0,1,12.72,5.93.14.14,0,0,1-.12.26c-4.28-1.84-8.66-3.6-12.84-5.68A.28.28,0,0,1,341.41,251.79Z" style="fill:#263238"></path><path d="M340.12,222.43c0-.15.27-.18.27,0a140.92,140.92,0,0,0,.72,14.32c.19,2.21,2,14.41,5.8,13.52.64-.15,1-.78,1.07-1.74a15.53,15.53,0,0,0-.51-3.75c-.43-2.55-.77-5.11-1-7.69a69.69,69.69,0,0,1,.16-14.44.13.13,0,0,1,.25,0,132.67,132.67,0,0,0,1.16,19.92c.48,3.18,2.08,8-1.24,8.44s-5.57-7.5-6-9.69A72.87,72.87,0,0,1,340.12,222.43Z" style="fill:#263238"></path><path d="M346.81,250.58a22.15,22.15,0,0,1,.86,2.53,6,6,0,0,1,.36,2.08.15.15,0,0,1-.27.05,7.06,7.06,0,0,1-.89-2c-.29-.78-.6-1.56-.87-2.35A.43.43,0,0,1,346.81,250.58Z" style="fill:#263238"></path><path d="M430.91,379c-5.78-10.88-14.86-27.86-17.67-33.25a96.47,96.47,0,0,1-6.42-16.62q-5.37-17.42-10.16-35t-9-35.34c-.71-3-1.48-5.91-2.05-8.9a27.31,27.31,0,0,1,0-9.11,29.46,29.46,0,0,0,.07-8.49,56.2,56.2,0,0,0-2-8.29c-.44-1.43-.93-2.85-1.42-4.26-.06-.16-.3-.09-.25.07,1.75,5.73,3.54,11.52,3.16,17.59-.18,2.91-.95,5.78-.9,8.71a42,42,0,0,0,1.47,8.61q4.14,17.85,8.9,35.54t10,35.24c1.72,5.68,3.33,11.46,5.78,16.88s11.7,22.07,17.92,32.69c.78,1.34,1.58,2.69,2.37,4C430.83,379.17,431,379.09,430.91,379Z" style="fill:#263238"></path><path d="M389.68,230.61c-.15.15-61.9.32-62.49-.3-.1-.11,5.82-49.33,16.89-72.58,1.9-4,12-6.88,17.07-1.47C374.81,170.83,389.83,230.46,389.68,230.61Z" style="fill:#ECEFF1"></path><g style="opacity:0.1"><path d="M361.19,156.3h-16a6.58,6.58,0,0,1,1.08-.86h14a8.47,8.47,0,0,1,.88.82Z"></path><path d="M363.53,159.22H343.4c.12-.29.26-.58.39-.86H362.9C363.11,158.63,363.32,158.92,363.53,159.22Z"></path><path d="M365.42,162.14H342.16c.11-.29.23-.58.35-.86h22.38C365.07,161.56,365.25,161.84,365.42,162.14Z"></path><path d="M367.09,165.06h-26c.1-.29.2-.58.32-.86h25.25C366.78,164.48,366.93,164.77,367.09,165.06Z"></path><path d="M368.6,168H340c.09-.29.19-.57.29-.85h27.86C368.31,167.41,368.46,167.69,368.6,168Z"></path><path d="M370,170.9H339.06c.09-.29.18-.57.28-.85H369.6C369.73,170.33,369.87,170.61,370,170.9Z"></path><path d="M371.31,173.82H338.17c.09-.29.17-.57.25-.85h32.52Z"></path><path d="M372.55,176.74H337.34c.08-.28.15-.57.23-.85h34.62C372.32,176.17,372.43,176.45,372.55,176.74Z"></path><path d="M373.74,179.66H336.55c.07-.29.15-.57.22-.85H373.4C373.51,179.09,373.63,179.37,373.74,179.66Z"></path><path d="M374.88,182.58H335.79c.08-.28.15-.57.22-.85h38.54Z"></path><path d="M376,185.5h-40.9c.07-.28.13-.56.21-.85h40.38Z"></path><path d="M377,188.42H334.4c.06-.29.13-.57.19-.85h42.14C376.84,187.85,376.94,188.14,377,188.42Z"></path><path d="M378.07,191.34H333.74c.07-.28.13-.56.19-.85h43.85C377.88,190.78,378,191.06,378.07,191.34Z"></path><path d="M379.07,194.26H333.12c.06-.28.12-.57.17-.85h45.5C378.88,193.7,379,194,379.07,194.26Z"></path><path d="M380.06,197.19H332.52c.05-.29.11-.57.17-.86h47.08C379.86,196.62,380,196.9,380.06,197.19Z"></path><path d="M381,200.11H331.94c.05-.29.11-.57.17-.86h48.61C380.82,199.54,380.91,199.82,381,200.11Z"></path><path d="M381.93,203H331.38c.06-.29.11-.57.17-.86h50.11Z"></path><path d="M382.83,206h-52c0-.28.1-.57.16-.86h51.56C382.66,205.38,382.75,205.67,382.83,206Z"></path><path d="M383.72,208.87H330.33l.15-.86h53C383.55,208.3,383.64,208.59,383.72,208.87Z"></path><path d="M384.59,211.79H329.84l.15-.86h54.35C384.42,211.22,384.51,211.5,384.59,211.79Z"></path><path d="M385.44,214.71H329.36c.05-.28.1-.56.14-.85h55.7Z"></path><path d="M386.27,217.63H328.91c0-.28.08-.56.13-.85h57Z"></path><path d="M387.08,220.55H328.47l.12-.85h58.26C386.93,220,387,220.27,387.08,220.55Z"></path><path d="M387.88,223.47H328.05c0-.27.08-.56.12-.85h59.48C387.73,222.91,387.8,223.19,387.88,223.47Z"></path><path d="M388.65,226.39h-61c0-.27.07-.55.11-.85h60.66C388.5,225.83,388.58,226.12,388.65,226.39Z"></path><path d="M389.39,229.31h-62.1c0-.24.06-.53.1-.85h61.79Z"></path></g><path d="M347,164.73c3.35.62,9.48-5.17,11.53-9.38.13-.29-.44-3.23-1-6.84-.32-2.19-.62-4.63-.73-6.88l-14,4.12a36,36,0,0,1,1.79,8.58,5.62,5.62,0,0,1-.05.93s0,.09,0,.15C344.37,157.18,343.72,164.13,347,164.73Z" style="fill:#ad6359"></path><path d="M344.58,155.26s0,.09,0,.15a9.93,9.93,0,0,0,1.45,0c8.16-.59,9.6-10.68,9.83-13.51l-3.49,1-9.52,2.81a36,36,0,0,1,1.79,8.58A4.71,4.71,0,0,1,344.58,155.26Z" style="fill:#263238"></path><path d="M356.74,125.21c1.81,5-.17,19.93-3.64,23.4-5,5-13.65,5.91-18-.23-4.23-5.95-1.31-25.32,2.61-28.51C343.46,115.17,354.07,117.77,356.74,125.21Z" style="fill:#ad6359"></path><path d="M342.7,135.17s.07.06.06.1c-.16,1-.17,2.17.69,2.62,0,0,0,.07,0,.06C342.35,137.65,342.39,136.09,342.7,135.17Z" style="fill:#263238"></path><path d="M343.73,134.24c1.63.08,1.34,3.34-.17,3.26S342.36,134.17,343.73,134.24Z" style="fill:#263238"></path><path d="M337.1,134.59s-.08,0-.08.08c-.06,1-.3,2.16-1.24,2.41,0,0,0,.06,0,.06C336.91,137.08,337.21,135.55,337.1,134.59Z" style="fill:#263238"></path><path d="M336.29,133.45c-1.61-.26-2,3-.53,3.22S337.64,133.68,336.29,133.45Z" style="fill:#263238"></path><path d="M345.15,132.86c-.44-.15-.81-.36-1.23-.55a2.16,2.16,0,0,1-1.13-.81.68.68,0,0,1,.18-.82,1.72,1.72,0,0,1,1.74,0,2.54,2.54,0,0,1,1.35,1.21A.74.74,0,0,1,345.15,132.86Z" style="fill:#263238"></path><path d="M335.18,131.7a11.72,11.72,0,0,0,1.32-.22,2.19,2.19,0,0,0,1.31-.48.69.69,0,0,0,0-.85,1.72,1.72,0,0,0-1.67-.47,2.48,2.48,0,0,0-1.61.83A.73.73,0,0,0,335.18,131.7Z" style="fill:#263238"></path><path d="M343.08,144.42c-.27.22-.54.52-.9.52a2.55,2.55,0,0,1-1.07-.35,0,0,0,0,0,0,0,1.35,1.35,0,0,0,1.23.66,1.08,1.08,0,0,0,.87-.82A.06.06,0,0,0,343.08,144.42Z" style="fill:#263238"></path><path d="M342.28,141.31a3.44,3.44,0,0,1-2.42,1.33,4.31,4.31,0,0,1-1.24-.06l-.24,0-.21-.06a.26.26,0,0,1-.19-.24h0s0-.06,0-.1h0V142c.05-.77.23-1.95.23-1.95-.3.12-1.8.64-1.74.24A52.16,52.16,0,0,1,338.75,130a.09.09,0,0,1,.18,0c-.35,3.23-1.27,6.38-1.67,9.62a6,6,0,0,1,1.66-.35c.11,0-.38,2.26-.38,2.61a.1.1,0,0,0,0,0,4.76,4.76,0,0,0,3.65-.79C342.28,141.16,342.35,141.24,342.28,141.31Z" style="fill:#263238"></path><path d="M339.07,142.47a4,4,0,0,0,1.58,1.28,1.83,1.83,0,0,0,1.09.09c.8-.19.83-.92.7-1.54a4.22,4.22,0,0,0-.34-1A5.16,5.16,0,0,1,339.07,142.47Z" style="fill:#263238"></path><path d="M340.65,143.75a1.83,1.83,0,0,0,1.09.09c.8-.19.83-.92.7-1.54A1.85,1.85,0,0,0,340.65,143.75Z" style="fill:#ff98b9"></path><path d="M357.39,137.78c-2.76-.68-4.48-9.75-4.48-9.75s.17,3.87-.56,3.8-3.9-5.21-4.38-9a29.75,29.75,0,0,1-6.76,3.62c-3.41,1.16-7.24,1.07-7.26.48-.07-1.74,1.35-6.36,3.66-8.06a12.33,12.33,0,0,1,12.21-2c5.71,1.94,7.32,5.51,8.26,8.28S358.4,138,357.39,137.78Z" style="fill:#263238"></path><path d="M353.72,137.42s3.21-4.87,5.41-3.74-.11,8.13-2.63,9.15a2.59,2.59,0,0,1-3.51-1.29Z" style="fill:#ad6359"></path><path d="M358.42,135.67s.05.05,0,.07c-1.76.77-2.65,2.45-3.26,4.19a1.43,1.43,0,0,1,2.13-.45s0,.1-.05.09a1.61,1.61,0,0,0-1.74.61,7.47,7.47,0,0,0-.8,1.44c-.08.16-.37.09-.31-.1v0C354.3,139.2,356,136,358.42,135.67Z" style="fill:#263238"></path><path d="M342,116.89a22,22,0,0,1,6.19-1.65c2.38-.23,9.85.58,11.6,2.13s2,8.62,2,9.66-.63,7.25-2.94,8.69-2.2-9.16-5.66-12.78S342,116.89,342,116.89Z" style="fill:#ECEFF1"></path><path d="M342,116.89s7.76,2.43,11.22,6,3.36,14.22,5.67,12.78c1-.63,1.52-1.6,2-3.25-.38-3.11-1.49-8-4-11.35-2.32-3.19-6.43-4.89-10.87-5.53A25.12,25.12,0,0,0,342,116.89Z" style="opacity:0.1"></path><path d="M358.08,142c-.12-2.83-2.76-10.47-5.64-14.9s-11.67-7.21-12.91-7.18c-3,.08-3.6,1.59-4.06,1.31s2.23-3.08,3.09-3.56,3.18-1.61,4.48-1.54,9.34,1.11,12.16,4.64,6.68,13.27,5.85,15.71c-.2.59-1,.95-1.27,1.78-.36,1.09-.63,2.35-1,3.11S358.09,142.24,358.08,142Z" style="fill:#ECEFF1"></path><path d="M351.8,125.13a14.43,14.43,0,0,0,2-1.37,10.48,10.48,0,0,0,1.72-1.74s.11,0,.08,0a7.87,7.87,0,0,1-1.58,2,6.67,6.67,0,0,1-2.16,1.25C351.77,125.31,351.72,125.17,351.8,125.13Z" style="fill:#263238"></path><path d="M358.19,139.17c.09-.2.23-.38.33-.57a3.44,3.44,0,0,0,.28-.69,6.34,6.34,0,0,1,.36-1.36,5.67,5.67,0,0,1,.69-.92,1.84,1.84,0,0,0,.59-1.13c0-.06.1-.06.1,0,0,.86-.62,1.45-1,2.16a8.06,8.06,0,0,0-.43,1.45,2.25,2.25,0,0,1-.79,1.16C358.26,139.3,358.16,139.24,358.19,139.17Z" style="fill:#263238"></path><path d="M357.31,136.09a12.11,12.11,0,0,0,.82-.93,8.54,8.54,0,0,0,.64-1c.19-.35.35-.72.53-1.08s.48-.82.67-1.25a0,0,0,0,1,.08.05c-.2.44-.32.93-.51,1.38a10.1,10.1,0,0,1-.57,1.14,5.71,5.71,0,0,1-.7,1,2.9,2.9,0,0,1-.93.78S357.29,136.11,357.31,136.09Z" style="fill:#263238"></path><path d="M356.36,133.3a8,8,0,0,0,1.59-1.69c.43-.62.83-1.28,1.21-1.93,0,0,.11,0,.09,0a9.41,9.41,0,0,1-1,2.11,4.85,4.85,0,0,1-.75.88,5.13,5.13,0,0,1-1,.67S356.32,133.34,356.36,133.3Z" style="fill:#263238"></path><path d="M355.33,130.62a2.82,2.82,0,0,0,.77-.73c.25-.31.5-.62.73-.95s.47-.61.69-.92a2.72,2.72,0,0,0,.54-1s.1,0,.09,0a2.85,2.85,0,0,1-.36,1.1,6.7,6.7,0,0,1-.67,1.08,8.31,8.31,0,0,1-.82,1,1.75,1.75,0,0,1-.92.59A.07.07,0,0,1,355.33,130.62Z" style="fill:#263238"></path><path d="M354.62,127.25c.27-.25.54-.5.78-.77s.49-.55.72-.83.49-.59.71-.9c0,0,.11,0,.08,0a6.59,6.59,0,0,1-.55,1,6.76,6.76,0,0,1-.71.89,7.46,7.46,0,0,1-.8.79,2.8,2.8,0,0,1-.94.62.07.07,0,0,1-.07-.1A5.53,5.53,0,0,1,354.62,127.25Z" style="fill:#263238"></path><path d="M349.68,123.46c.29-.34.57-.67.89-1s.68-.61,1-.88a11.93,11.93,0,0,1,2.24-1.42s.1,0,.06.08c-1.37,1.1-2.79,2.15-4.15,3.27A0,0,0,0,1,349.68,123.46Z" style="fill:#263238"></path><path d="M348.05,121a5.87,5.87,0,0,1,1-.88,12.73,12.73,0,0,1,2.46-1.27c.06,0,.1,0,.05.08-.75.46-1.5.92-2.22,1.42a10.11,10.11,0,0,0-1,.8c-.33.29-.59.64-.9.94,0,0-.07,0-.06,0A3.32,3.32,0,0,1,348.05,121Z" style="fill:#263238"></path><path d="M345.73,119.82a6.38,6.38,0,0,1,.91-.89,7,7,0,0,1,2.1-1.14c.05,0,.08.06,0,.08a14.2,14.2,0,0,0-2,1.35l-.91.79a10.06,10.06,0,0,1-.89.84s-.05,0,0,0A6.8,6.8,0,0,1,345.73,119.82Z" style="fill:#263238"></path><path d="M344.07,118.36c.31-.24.62-.45.94-.66a3.43,3.43,0,0,1,1-.53c.05,0,.07.06,0,.09-.59.44-1.17.9-1.75,1.35a9.42,9.42,0,0,0-1.37,1.52,0,0,0,0,1-.05,0A3.54,3.54,0,0,1,344.07,118.36Z" style="fill:#263238"></path><path d="M342,117.84a5.87,5.87,0,0,1,1.92-1.12c.05,0,.08.07,0,.09a6.87,6.87,0,0,0-1.75,1.24,9.49,9.49,0,0,0-1.4,1.63,0,0,0,0,1-.06,0A4.85,4.85,0,0,1,342,117.84Z" style="fill:#263238"></path><path d="M339.16,119a2.91,2.91,0,0,1,.25-.42,4.67,4.67,0,0,1,.65-.75,10.09,10.09,0,0,1,1.64-1.19c.05,0,.1,0,.05.08a8.66,8.66,0,0,0-1.54,1.23,7.33,7.33,0,0,0-.63.73c-.09.13-.18.26-.26.39a2.7,2.7,0,0,1-.25.4.05.05,0,0,1-.08,0A1.21,1.21,0,0,1,339.16,119Z" style="fill:#263238"></path><path d="M337.45,119.12a8,8,0,0,1,.54-.62,7.7,7.7,0,0,1,.6-.54c.22-.18.45-.34.66-.53.05,0,.11,0,.05.08a5.49,5.49,0,0,0-.61.57c-.18.2-.37.39-.55.58l-.54.57a6.31,6.31,0,0,1-.55.6s-.08,0-.06,0A3.79,3.79,0,0,1,337.45,119.12Z" style="fill:#263238"></path><path d="M227,385.86l-.66-.76c.18-.15,17.47-15.32,36.53-35.29,17.2-18,69.36-118.19,69.89-119.2l.08-.12c2.32-2.42,4.93-3.43,7.79-3,5.38.82,10.11,6.59,11.83,10,2.28,4.56,6.64,11.67,6.68,11.74l-.85.53c0-.07-4.43-7.22-6.72-11.82-1.38-2.76-5.89-8.71-11.09-9.5a7.7,7.7,0,0,0-6.87,2.65c-1.59,3-52.9,101.43-70,119.37C244.49,370.5,227.17,385.71,227,385.86Z" style="fill:#263238"></path><rect x="351.03" y="230.25" width="6" height="23.3" transform="translate(-73.71 212.09) rotate(-30.36)" style="fill:#ECEFF1"></rect><path d="M368.35,163.06c11.42,12.24,31.69,44.05,27.44,50-9,12.7-28.44,24.66-35.87,28-3.21,1.43-18.26-21.28-15.37-23.68,3.47-2.87,26.42-15.47,26.39-16.65s-6.69-17.31-9.86-30.21C357.15,154.49,363.59,158,368.35,163.06Z" style="fill:#ad6359"></path><path d="M321.55,234.66a4.12,4.12,0,0,0,3.58,3,6.13,6.13,0,0,0,0,4.15c1,2.32,5.05,1.78,5.05,1.78A7.53,7.53,0,0,0,331,248c1.17,2.11,5.34,2.15,5.34,2.15a6.6,6.6,0,0,0,3.07,3.44c3.83,1.82,9.29-1.67,12.78-3.85s11.35-11.64,13-13.29l-15.05-21.62s-17.19,4.43-20.93,7.57C326.06,225.05,320.85,231.52,321.55,234.66Z" style="fill:#ad6359"></path><path d="M325.06,237.52c2.68-3.62,6.28-6.25,9.72-9.09.07-.06.17.06.1.12-3.46,2.78-6.32,6.21-9.66,9.12C325.13,237.75,325,237.62,325.06,237.52Z" style="fill:#263238"></path><path d="M330.11,243.29a11.52,11.52,0,0,1,2.34-2c.87-.65,1.75-1.28,2.65-1.9,1.79-1.24,3.61-2.44,5.46-3.58.08-.05.18.06.1.12-1.79,1.24-3.55,2.5-5.28,3.82-.86.65-1.72,1.32-2.58,2a14.18,14.18,0,0,1-2.5,1.78A.16.16,0,0,1,330.11,243.29Z" style="fill:#263238"></path><path d="M336.38,250.1a8.09,8.09,0,0,1,2.2-1.68l2.47-1.66c1.64-1.12,3.28-2.23,4.89-3.4a.08.08,0,1,1,.09.12c-1.62,1.2-3.22,2.42-4.86,3.6-.8.58-1.6,1.16-2.41,1.73a7.84,7.84,0,0,1-2.32,1.38C336.39,250.2,336.36,250.14,336.38,250.1Z" style="fill:#263238"></path><path d="M325.22,237.67a3.49,3.49,0,0,1-2-.33,3.74,3.74,0,0,1-1.51-1.39,4.69,4.69,0,0,1-.45-.93,3.64,3.64,0,0,1-.15-1.07,5.87,5.87,0,0,1,.42-2,15.23,15.23,0,0,1,1.94-3.46,20.73,20.73,0,0,1,2.59-2.94c-.73,1.09-1.44,2.16-2.11,3.26a22.6,22.6,0,0,0-1.72,3.4,5.41,5.41,0,0,0-.41,1.77,3.07,3.07,0,0,0,.06.86,8.78,8.78,0,0,0,.33.85A3.7,3.7,0,0,0,325.22,237.67Z" style="fill:#263238"></path><path d="M386.19,184.49l-20.56,7.89s-5.5-16.18-7-26.42,1.86-14.25,11.63-2.7A218.13,218.13,0,0,1,386.19,184.49Z" style="fill:#ECEFF1"></path><path d="M365.44,188.43q4.17-2.07,8.44-3.92c1.4-.61,2.79-1.24,4.21-1.82s3-1.1,4.42-1.7c.1-.05.18.11.08.15-1.39.64-2.73,1.37-4.12,2s-2.88,1.27-4.33,1.89c-2.84,1.25-5.73,2.41-8.64,3.51C365.42,188.58,365.36,188.47,365.44,188.43Z" style="fill:#263238"></path><path d="M367.76,191.56c-.69.33-1.39.64-2.08.95l-.14.06-.05-.15q-1.89-5.28-3.41-10.67c-.51-1.8-1-3.6-1.42-5.43s-.85-3.64-1.15-5.49l1.67,5.35c.56,1.78,1.08,3.57,1.61,5.36,1,3.58,2,7.18,3,10.8l-.18-.09C366.3,192,367,191.77,367.76,191.56Z" style="fill:#263238"></path><path d="M359.51,173.92a16.94,16.94,0,0,1,.94,2c.28.67.54,1.32.85,2a3.24,3.24,0,0,1-.78-.83,4.94,4.94,0,0,1-.53-1A6,6,0,0,1,359.51,173.92Z" style="fill:#263238"></path><path d="M227.58,421.32c3.07,3.08,1.42,18,1.54,19.47s6.46,4.29,6,6.3-5.38,4.24-7.77,3.93-7.4-5.07-8.35-7a20.37,20.37,0,0,1-1.54-5.84c0-.68-10.58-9.95-11-12.5S223.87,417.6,227.58,421.32Z" style="fill:#ECEFF1"></path><path d="M227.58,421.32c3.07,3.08,1.42,18,1.54,19.47s6.46,4.29,6,6.3-5.38,4.24-7.77,3.93-7.4-5.07-8.35-7a20.37,20.37,0,0,1-1.54-5.84c0-.68-10.58-9.95-11-12.5S223.87,417.6,227.58,421.32Z" style="opacity:0.5"></path><path d="M267.41,425c.21,1.4-2.54,12.69-4.51,15.95s-10.07,9.14-11.93,9.5-6.51,1.7-7.28.56.26-4,.94-4.41a40.56,40.56,0,0,1,3.81-2.48c.54-.14,3-6.39,2.88-7.16s-7-8.69-5.51-12.6S267.41,425,267.41,425Z" style="fill:#ECEFF1"></path><path d="M267.41,425c.21,1.4-2.54,12.69-4.51,15.95s-10.07,9.14-11.93,9.5-6.51,1.7-7.28.56.26-4,.94-4.41a40.56,40.56,0,0,1,3.81-2.48c.54-.14,3-6.39,2.88-7.16s-7-8.69-5.51-12.6S267.41,425,267.41,425Z" style="opacity:0.5"></path><path d="M271.62,394c2.26.18,8.68,6.8,17,6.11s12-6.11,12-6.11A17.7,17.7,0,0,1,288,405.57c-10.2,2.58-16.37-2.43-16.37-2.43Z" style="fill:#ECEFF1"></path><path d="M271.62,394c2.26.18,8.68,6.8,17,6.11s12-6.11,12-6.11A17.7,17.7,0,0,1,288,405.57c-10.2,2.58-16.37-2.43-16.37-2.43Z" style="opacity:0.30000000000000004"></path><path d="M199.44,361.12c-.44-1.8-3.85-2.41-4.68-2.94a16.32,16.32,0,0,0-4.65-2.25c-2.59-.62-11.58,9-14.55,10.55s-9.17,1.36-10.34,4.3c-1.29,3.21,7.69,11.88,13.05,12.84s11.46-9.94,12.42-11.78S199.88,362.86,199.44,361.12Z" style="fill:#ECEFF1"></path><path d="M199.44,361.12c-.44-1.8-3.85-2.41-4.68-2.94a16.32,16.32,0,0,0-4.65-2.25c-2.59-.62-11.58,9-14.55,10.55s-9.17,1.36-10.34,4.3c-1.29,3.21,7.69,11.88,13.05,12.84s11.46-9.94,12.42-11.78S199.88,362.86,199.44,361.12Z" style="opacity:0.5"></path><path d="M209.19,354.53c-6.66-2.44-20,.07-22.63,3.17s-4.32,14.07-5.65,15.63-10.3,7.6-10.78,9.58,6.68,11.36,10.67,11.69,14-2.51,14.48-2.29.92,16.25,2.59,20.57,17.84,21.61,24.26,22.61,28.48-8.82,32.25-10,19.09-3.16,20.75-4.28,1.18-24.91-2.8-26.9-42-4.18-44.57-6.61S214,356.31,209.19,354.53Z" style="fill:#ECEFF1"></path><path d="M209.19,354.53c-6.66-2.44-20,.07-22.63,3.17s-4.32,14.07-5.65,15.63-10.3,7.6-10.78,9.58,6.68,11.36,10.67,11.69,14-2.51,14.48-2.29.92,16.25,2.59,20.57,17.84,21.61,24.26,22.61,28.48-8.82,32.25-10,19.09-3.16,20.75-4.28,1.18-24.91-2.8-26.9-42-4.18-44.57-6.61S214,356.31,209.19,354.53Z" style="opacity:0.30000000000000004"></path><path d="M193.84,373.72c0-.07.15.06.15.13.1,1.62.51,3.45,2.17,3.83a0,0,0,0,1,0,.09C194.17,377.71,193.65,375.27,193.84,373.72Z" style="fill:#263238"></path><path d="M195.26,371.88c2.82-.47,3.55,4.71.93,5.15S192.89,372.28,195.26,371.88Z" style="fill:#263238"></path><path d="M183.94,373c0-.07-.13.06-.14.12-.19,1.61-.66,3.43-2.14,3.77,0,0,0,.09,0,.09C183.41,377,184,374.59,183.94,373Z" style="fill:#263238"></path><path d="M182.8,371.17c-2.47-.53-3.42,4.61-1.13,5.11S184.87,371.62,182.8,371.17Z" style="fill:#263238"></path><path d="M174.09,387.3a13.22,13.22,0,0,0,1.18,1.7,2.31,2.31,0,0,0,.84.72.54.54,0,0,0,.19,0,.33.33,0,0,0,.25-.13.64.64,0,0,0,.12-.33,2.56,2.56,0,0,0,0-.55,12.87,12.87,0,0,0-.26-2.07c-.13-.68-.28-1.35-.45-2l-.56.21c.45.89,1,1.75,1.46,2.6.27.42.54.83.84,1.24a5.34,5.34,0,0,0,1,1.15.81.81,0,0,0,.48.17,1.51,1.51,0,0,0,.42-.11,4.37,4.37,0,0,0,.68-.36c.43-.26.84-.54,1.24-.84.79-.6,1.56-1.22,2.3-1.88-.82.56-1.62,1.13-2.46,1.65-.42.26-.83.53-1.26.75a4.6,4.6,0,0,1-.64.3.93.93,0,0,1-.29.06.45.45,0,0,1-.2-.1,6.49,6.49,0,0,1-.87-1.1c-.27-.4-.52-.82-.77-1.24-.5-.84-1-1.71-1.43-2.57l-1.19-2.19.63,2.41c.17.65.33,1.32.49,2s.29,1.33.37,2a2.54,2.54,0,0,1,0,.47.3.3,0,0,1,0,.15s0,0,0,0a2.54,2.54,0,0,1-.76-.55A18.07,18.07,0,0,1,174.09,387.3Z" style="fill:#263238"></path><path d="M175.89,385.16c.82-.06,4.7-2.3,4.27-3.28-.74-1.7-8.32-1.53-9-.2C170.64,382.55,174.83,385.23,175.89,385.16Z" style="fill:#263238"></path><path d="M204.13,389a.05.05,0,0,0,0-.09c-.75.27-1.49.58-2.23.89s-1.56.56-2.35.84c-1.54.55-3.06,1.15-4.62,1.67a0,0,0,0,0,0,.09,12.3,12.3,0,0,0,4.69-1.11c.81-.22,1.61-.44,2.41-.69a.06.06,0,1,0,0-.11c-.59.15-1.17.32-1.76.49l1.64-.83C202.62,389.82,203.39,389.44,204.13,389Z" style="fill:#ECEFF1"></path><path d="M229.57,427.9c-.72,4.3-12.28,14.57-16,16.8s-9,6.82-10.54,7.81-10.8,0-11.91-1.73,1-4.06,2.12-4.81c.86-.56,4.35-.87,4.89-1.32,1.19-1,5.77-9.13,5.52-10.37s-5.56-16-5.78-21.4S230.32,423.51,229.57,427.9Z" style="fill:#ECEFF1"></path><path d="M229.57,427.9c-.72,4.3-12.28,14.57-16,16.8s-9,6.82-10.54,7.81-10.8,0-11.91-1.73,1-4.06,2.12-4.81c.86-.56,4.35-.87,4.89-1.32,1.19-1,5.77-9.13,5.52-10.37s-5.56-16-5.78-21.4S230.32,423.51,229.57,427.9Z" style="opacity:0.30000000000000004"></path><path d="M192.57,447.77a4.3,4.3,0,0,0-1.15,1.43,2.59,2.59,0,0,0-.19,1.81.1.1,0,0,0,.19,0,7.07,7.07,0,0,1,1.22-3.18A0,0,0,1,0,192.57,447.77Z" style="fill:#ECEFF1"></path><path d="M194.49,448.82a3.75,3.75,0,0,0-1.08,1.44,3.19,3.19,0,0,0-.15,1.76.09.09,0,0,0,.17,0,11.32,11.32,0,0,1,.45-1.61,7,7,0,0,1,.68-1.53S194.52,448.78,194.49,448.82Z" style="fill:#ECEFF1"></path><path d="M272.7,408.68c3.22,2.95,5.6,18.22,5.46,22.55s.61,12.47,1.23,14.15c.24.65-9,6.66-10.39,6.5-1.18-.14-1.88-3.33-1.88-4.72,0-1,2.36-3.41,2.27-4.11-.19-1.53-4.19-8.65-5.37-9.12-.7-.27-5.59,2.11-11.08.48-3.72-1.11-8.17-6.11-10-7.2C238.29,424.5,269.41,405.68,272.7,408.68Z" style="fill:#ECEFF1"></path><path d="M272.7,408.68c3.22,2.95,5.6,18.22,5.46,22.55s.61,12.47,1.23,14.15c.24.65-9,6.66-10.39,6.5-1.18-.14-1.88-3.33-1.88-4.72,0-1,2.36-3.41,2.27-4.11-.19-1.53-4.19-8.65-5.37-9.12-.7-.27-5.59,2.11-11.08.48-3.72-1.11-8.17-6.11-10-7.2C238.29,424.5,269.41,405.68,272.7,408.68Z" style="opacity:0.30000000000000004"></path><path d="M269.07,448.37a4.4,4.4,0,0,0-.11,1.84,2.62,2.62,0,0,0,.9,1.59.1.1,0,0,0,.15-.12,7.07,7.07,0,0,1-.85-3.29A0,0,0,1,0,269.07,448.37Z" style="fill:#ECEFF1"></path><path d="M271.27,447.09a3.74,3.74,0,0,0,0,1.79,3.11,3.11,0,0,0,.9,1.52c.06.07.17,0,.14-.1a11.41,11.41,0,0,1-.58-1.57,7.11,7.11,0,0,1-.32-1.64C271.36,447,271.28,447,271.27,447.09Z" style="fill:#ECEFF1"></path><g style="opacity:0.5"><path d="M267.88,408.11c-2.78,1-9.74-3.26-10.87-7.1s6.56-7.54,11-5.47S271.71,406.79,267.88,408.11Z" style="fill:#ECEFF1"></path><path d="M252.77,405.15c1.48-.61,2.32-4,.54-5.65a3.7,3.7,0,0,0-5.81.92C246.33,402.64,249.44,406.51,252.77,405.15Z" style="fill:#ECEFF1"></path><path d="M265.77,412.06c-.24.78.85,2.21,2.06,2a1.88,1.88,0,0,0,1.49-2.59C268.82,410.32,266.3,410.31,265.77,412.06Z" style="fill:#ECEFF1"></path></g><path d="M195.8,396.63c1.84-.28,10-.56,15.73-2.56s12.85-10,13.31-10.64,2.87,2,3.11,2.64-7.85,10.26-15.21,12.19-16.64,2.6-17.06,2.18S194.92,396.76,195.8,396.63Z" style="fill:#263238"></path><path d="M203.12,354.69c1-1.66,4.68-1.14,5.69-1.39s2.28-.05,4.39.13c2.81.24,9.69,12,12.14,14.61s8.51,6.86,8.71,10.2c.22,3.66-11.3,8.48-17,7.66s-8.33-15.34-8.68-17.52S202.11,356.29,203.12,354.69Z" style="fill:#ECEFF1"></path><path d="M203.12,354.69c1-1.66,4.68-1.14,5.69-1.39s2.28-.05,4.39.13c2.81.24,9.69,12,12.14,14.61s8.51,6.86,8.71,10.2c.22,3.66-11.3,8.48-17,7.66s-8.33-15.34-8.68-17.52S202.11,356.29,203.12,354.69Z" style="opacity:0.5"></path></g></svg>