<svg xmlns="http://www.w3.org/2000/svg" viewBox="0 0 500 500"><g id="freepik--background-complete--inject-903"><rect x="62.37" y="50.75" width="177.77" height="376.71" style="fill:#ebebeb"></rect><rect x="259.86" y="50.75" width="177.77" height="376.71" style="fill:#ebebeb"></rect><g style="opacity:0.5"><polygon points="152.91 50.75 62.37 114.28 62.37 78.4 101.77 50.75 152.91 50.75" style="fill:#fff"></polygon><polygon points="62.37 340.56 240.14 215.83 240.14 251.71 62.37 376.44 62.37 340.56" style="fill:#fff"></polygon><polygon points="437.63 77.27 437.63 113.15 259.86 237.88 259.86 202 437.63 77.27" style="fill:#fff"></polygon><polygon points="437.63 373.68 437.63 409.56 412.11 427.46 360.97 427.46 437.63 373.68" style="fill:#fff"></polygon><polygon points="240.14 52.93 240.14 64.74 62.37 189.47 62.37 177.66 240.14 52.93" style="fill:#fff"></polygon><polygon points="260.08 50.75 259.86 50.91 259.86 50.75 260.08 50.75" style="fill:#fff"></polygon><polygon points="79.91 427.46 240.14 315.04 240.14 326.85 96.74 427.46 79.91 427.46" style="fill:#fff"></polygon><polygon points="437.63 176.48 437.63 188.29 259.86 313.02 259.86 301.21 437.63 176.48" style="fill:#fff"></polygon><polygon points="437.63 319.91 437.63 331.72 301.17 427.46 284.34 427.46 437.63 319.91" style="fill:#fff"></polygon><polygon points="225.71 50.75 62.37 165.35 62.37 162.97 222.31 50.75 225.71 50.75" style="fill:#fff"></polygon><polygon points="62.37 302.16 240.14 177.43 240.14 179.82 62.37 304.54 62.37 302.16" style="fill:#fff"></polygon><polygon points="424.1 50.75 259.86 165.98 259.86 163.6 420.7 50.75 424.1 50.75" style="fill:#fff"></polygon><polygon points="120.3 427.46 240.14 343.38 240.14 345.77 123.71 427.46 120.3 427.46" style="fill:#fff"></polygon><polygon points="437.63 204.82 437.63 207.21 259.86 331.94 259.86 329.55 437.63 204.82" style="fill:#fff"></polygon><polygon points="437.63 298.51 437.63 300.89 259.86 425.62 259.86 423.24 437.63 298.51" style="fill:#fff"></polygon></g><rect x="83.68" width="8.9" height="463.27" style="fill:#c7c7c7"></rect><rect x="81.7" y="457.38" width="12.86" height="5.89" style="fill:#a6a6a6"></rect><rect x="40.37" y="463.27" width="95.53" height="4.32" style="fill:#c7c7c7"></rect><rect x="407.42" width="8.9" height="463.27" style="fill:#c7c7c7"></rect><rect x="405.44" y="457.38" width="12.86" height="5.89" style="fill:#a6a6a6"></rect><rect x="364.1" y="463.27" width="95.53" height="4.32" style="fill:#c7c7c7"></rect></g><g id="freepik--Floor--inject-903"><path d="M40.37,467.85c134.3-.61,285-.62,419.26,0-134.3.61-285,.61-419.26,0Z" style="fill:#263238"></path></g><g id="freepik--Plants--inject-903"><path d="M323.38,446.49c-2.41-3.1-5.14-6.52-5-10.64.15-3.81,1.43-8,4.92-10.05,1-.57,1.72-.77,2,.51.49,1.95-.34,4.33-.76,6.23a40.38,40.38,0,0,0-1,7.42c-.05,1.76.07,3.52.06,5.28,0,.22,0,.44,0,.66v.26l.06.09a.2.2,0,0,1,0,.18s0,.05,0,.06A.2.2,0,0,1,323.38,446.49Z" style="fill:#ECEFF1"></path><path d="M323.7,446.49c-2-2.83-4.26-5.76-4-9.36a16.1,16.1,0,0,1,1.29-4.87c.3-.7,1.17-2.8,2.08-2.85,1.66-.09-.55,6.56-.66,7.34a16.77,16.77,0,0,0,1.23,8.49c0,.22,0,.44,0,.66A18.71,18.71,0,0,1,322.1,440c-.25-2.84.71-5.2,1.23-7.93.11-.59.57-2.46-.44-2.31-.67.1-1.54,2.14-1.72,2.58a15.8,15.8,0,0,0-1.23,4.62c-.35,3.63,1.88,6.59,3.8,9.49C323.73,446.45,323.72,446.48,323.7,446.49Z" style="fill:#fff"></path><path d="M322.7,449.64l-.43.19h0a.11.11,0,0,1-.11,0,.17.17,0,0,1,0-.21.11.11,0,0,1,.07-.06l.07,0,.13,0h0l0,0c1.7-2.08,3.73-3.87,5.41-6s3.07-4.14,4.83-6c1.11-1.19,7-6.76,8.21-3.32.55,1.53-.66,3.72-1.41,5a16.33,16.33,0,0,1-3.91,4.41C331.72,446.57,327.07,447.71,322.7,449.64Z" style="fill:#ECEFF1"></path><path d="M331.44,444.74a19.07,19.07,0,0,0,4.08-3.63c.41-.49,2.35-2.83,1.71-3.59-.42-.5-1.51.15-1.88.35a16.91,16.91,0,0,0-3.92,3.68,72.79,72.79,0,0,1-7.92,7.29l-.6.33c-.18.08-.34.18-.51.27l-.17.09-.13.08a.17.17,0,0,0,0,.21l.39-.21-.28.22h0l.35-.16.08,0,.47-.36A78.82,78.82,0,0,0,331.44,444.74Zm-7.25,3.75c1.65-1.3,3.22-2.69,4.74-4.15,1.22-1.17,2.38-2.4,3.52-3.65a16.93,16.93,0,0,1,2-2c.57-.45,2.82-1.94,2.28.17-.4,1.52-2.36,3.23-3.5,4.19a27.56,27.56,0,0,1-4.09,2.83C327.56,446.8,325.86,447.63,324.19,448.49Z" style="fill:#fff"></path><path d="M315.2,457.64h0a.66.66,0,0,1-.1-.11c-2-3-5-6.7-4.83-10.5.14-2.81,1.68-6.59,4.48-7.74,3.15-1.29,2.53,4.66,2.45,6.18a112.15,112.15,0,0,1-1.81,12.12l0,.07v0C315.33,457.74,315.26,457.69,315.2,457.64Z" style="fill:#ECEFF1"></path><path d="M315.35,457.68c0-.24,0-.49,0-.73-.17-2.78-.23-5.57-.14-8.36,0-.7.58-6.07-.82-5.82-.84.16-1.35,2.17-1.54,2.82a11.4,11.4,0,0,0-.38,3.63c.19,2.81,1.62,5.35,2.62,8,.05.12.1.24.14.37a.15.15,0,0,0,0,.07h0C315.26,457.69,315.33,457.73,315.35,457.68Zm-2.48-6.95a11.18,11.18,0,0,1-.11-3.74c.11-.82.62-3.79,1.66-3.85.55,0,.5.32.6.95a6.25,6.25,0,0,1,.09.87c0,.72,0,1.44-.05,2.15-.07,1.26-.1,2.51-.11,3.77,0,2.07.06,4.12.2,6.18C314.43,454.93,313.32,452.93,312.87,450.73Z" style="fill:#fff"></path><path d="M325,458.64a21.16,21.16,0,0,1-12.3,1.28l-.07,0a.15.15,0,0,1,0-.19.15.15,0,0,1,.17-.11l.26.05c4.3-2.37,8.62-4.67,12.88-7.12,1-.57,7.48-4.12,7.83-1.6.21,1.56-2.17,3.39-3.2,4.28A21.48,21.48,0,0,1,325,458.64Z" style="fill:#ECEFF1"></path><path d="M329.56,453.77c.26-.34.48-.76,0-1-1-.39-4,1.34-4.82,1.78-3.54,1.81-7.15,3.26-10.83,4.74l-.93.38h-.37a.17.17,0,0,0,.06.19l.09,0h.5a24.94,24.94,0,0,0,7.69-1.16,24.17,24.17,0,0,0,4.52-2A13.79,13.79,0,0,0,329.56,453.77Zm-16.12,5.93h-.23l.39-.13a70.25,70.25,0,0,0,8.54-3.45c1.41-.68,2.76-1.45,4.18-2.09.6-.27,2.28-1.08,2.84-.82s0,.67-.34,1-.66.52-.88.69A24.74,24.74,0,0,1,313.44,459.7Z" style="fill:#fff"></path><path d="M304.53,466.54l-.42-.58c.51-.38,1-.76,1.51-1.14,2-1.55,4-3.13,6-4.74,1.13-.91,2.24-1.84,3.31-2.8l.11-.09.26-.24.28-.26a31.17,31.17,0,0,0,6.16-7.47c.53-1,1-1.91,1.5-2.9.05-.09.09-.19.14-.28l0-.08.14-.3c0-.07.07-.14.1-.22,1.4-3.05,2.56-6.22,3.79-9.32.35-.89.7-1.78,1.06-2.66a.77.77,0,0,1,.07-.16,1.59,1.59,0,0,1,.07-.2c1.58-3.91,3.2-7.82,4.67-11.77.05-.15.27,0,.22.1-1,2.64-1.86,5.31-2.77,8-.12.36-.25.71-.37,1.07l-.72,2.1c-.49,1.4-1,2.79-1.51,4.18a101.85,101.85,0,0,1-4.82,11.59c-.14.28-.29.55-.44.83s-.19.34-.29.5-.22.4-.34.59a33,33,0,0,1-7.75,8.55l-.64.52-.29.24-.16.13-.2.16h0l-.15.12-.55.43c-2,1.58-4,3.12-6.06,4.65C305.82,465.54,305.18,466,304.53,466.54Z" style="fill:#ECEFF1"></path><path d="M329.48,422.23c1-3.14,3.95-8.36,7.94-7.67a3.09,3.09,0,0,1,2.64,3.15c0,1.89-1.3,3.67-2.41,5.08-3,3.77-6.29,7.23-9,11.22,0,0-.23.34-.29.43s-.18,0-.12-.1.17-.26.26-.39C328.52,430.09,328.3,425.94,329.48,422.23Z" style="fill:#ECEFF1"></path><path d="M328.67,434a.32.32,0,0,1,0-.09,33.92,33.92,0,0,1,1.7-3.48,67.6,67.6,0,0,1,4.49-6.71c.62-.83,3.74-4.81,1.15-5.09-1.08-.11-2.19.81-2.93,1.49A12.15,12.15,0,0,0,330.3,424a22.07,22.07,0,0,0-1.72,9.26c0,.15,0,.29,0,.44l-.06.13,0,.08s0,0,0,.06.09.11.14.08S328.66,434.07,328.67,434Zm0-.94a26.22,26.22,0,0,1,1.27-7.72,14,14,0,0,1,1.93-3.6,12.09,12.09,0,0,1,1.22-1.36,8.66,8.66,0,0,1,1.06-.86c.83-.56,1.95-.86,2.38-.44s.33,1-.07,1.84a6.42,6.42,0,0,1-.46.86,23.16,23.16,0,0,1-1.39,2c-.8,1.08-1.59,2.16-2.35,3.27-.51.75-1,1.52-1.47,2.3a33,33,0,0,0-2.14,4.19C328.63,433.43,328.64,433.27,328.65,433.1Z" style="fill:#fff"></path><path d="M202.23,441.48c1.94,1.79,3.76,3.7,5.55,5.63l3,3.3c1.13,1.2,2.18,2.55,3.76,3.14h0s.19.11.2.12v0a.2.2,0,0,1-.25.24l-.1,0h0a6.73,6.73,0,0,1-1.43-.33,35,35,0,0,1-3.83-1.14,32.61,32.61,0,0,1-7.3-3.66,27.82,27.82,0,0,1-5.48-4.85c-1.27-1.48-3.19-3.67-3.55-5.67-.32-1.81,2-1.45,3.09-1.13C198.36,437.85,200.39,439.79,202.23,441.48Z" style="fill:#ECEFF1"></path><path d="M196.35,440.16c-.56.78,1.55,3.13,2.43,4.18a26.8,26.8,0,0,0,4.75,4.4,34.33,34.33,0,0,0,10.43,5l.45.14h0l.1,0a.2.2,0,0,0,.25-.24c-.3-.14-.58-.28-.87-.44s-.51-.28-.75-.43a46.1,46.1,0,0,1-7.34-6C203.14,444.36,197.09,439.13,196.35,440.16Zm17.23,13.16c.37.21.75.4,1.13.57l-.9-.29a38.16,38.16,0,0,1-9.23-4.39,27,27,0,0,1-4.44-3.69,23.73,23.73,0,0,1-2-2.35c-.26-.35-1.95-2.41-1.51-2.82s2.26,1,2.3,1c.39.24.78.52,1.15.79.78.57,1.52,1.18,2.25,1.8,1.58,1.36,3.09,2.8,4.62,4.21A36.34,36.34,0,0,0,213.58,453.32Z" style="fill:#fff"></path><path d="M216.84,433.46c1.77,3.42,2.18,7.34,2.23,11.12,0,2,0,4.06-.06,6.08a26.73,26.73,0,0,0,.19,5.42,2,2,0,0,0,.05.24,7,7,0,0,0,.48,1.44.12.12,0,0,1,0,.1l.09.13a0,0,0,0,1-.06.05l-.12-.11h0a.11.11,0,0,1-.11-.07l0-.06-.12-.11c-3-2.73-4.62-7.35-5.75-11.06a21.35,21.35,0,0,1-.67-11.45c.25-.95.67-3.21,1.82-3.54S216.47,432.74,216.84,433.46Z" style="fill:#ECEFF1"></path><path d="M215.28,435.67c-1.16.2-.91,3.38-.88,4.16a41.12,41.12,0,0,0,1.06,7,36.85,36.85,0,0,0,3.86,10.72h0a.93.93,0,0,1,0,.13l.13.12s0,0,0,.06a.11.11,0,0,0,.11.07c0-.07,0-.12,0-.18-.13-.47-.24-.94-.34-1.42a2,2,0,0,1-.05-.24,80.15,80.15,0,0,1-1-10.05,37.15,37.15,0,0,0-1-7C217,438.49,216.26,435.51,215.28,435.67Zm1.05,1.69c1.58,3.68,1.54,8.05,1.8,12a42.37,42.37,0,0,0,1.1,7.88,39.14,39.14,0,0,1-3.37-9.77,54.85,54.85,0,0,1-1.05-5.81,21.31,21.31,0,0,1-.17-3.2,7.73,7.73,0,0,1,.24-1.9C215.28,435.38,216.05,436.73,216.33,437.36Z" style="fill:#fff"></path><path d="M226,463a.21.21,0,0,1,0,.2h.07a.07.07,0,0,1,0,.13c-4.57.71-9.64.92-14.13-.3a18.09,18.09,0,0,1-5.34-2.4c-1.12-.76-3.36-2.27-3.49-3.78-.25-3,7.77.12,9,.6,2.2.86,4.33,1.92,6.51,2.83,2.39,1,4.85,1.81,7.3,2.63A.2.2,0,0,1,226,463Z" style="fill:#ECEFF1"></path><path d="M226,463l-.74-.08a38.82,38.82,0,0,1-11.55-3.14,35.67,35.67,0,0,0-5.65-2.14c-.48-.12-2.27-.68-2,.46.15.6,3.08,2.29,3.88,2.67a24.87,24.87,0,0,0,5.76,1.81,40.66,40.66,0,0,0,10.1.69h.29a.06.06,0,0,0-.06-.06H226A.21.21,0,0,0,226,463Zm-8.58-.36a28.61,28.61,0,0,1-5.82-1.43,20.19,20.19,0,0,1-2.19-1,13.15,13.15,0,0,1-1.61-1c-1.23-.9-1.48-1.22-1.38-1.46s.33-.23,1.34-.07a10.37,10.37,0,0,1,1.88.55c.87.33,1.73.69,2.58,1.06,1.71.74,3.42,1.5,5.17,2.11a30.6,30.6,0,0,0,7.81,1.63A47.26,47.26,0,0,1,217.45,462.59Z" style="fill:#fff"></path><path d="M225.55,449.84a11.32,11.32,0,0,1,2.36,4.3c1,3.1,1.41,6.39,2.23,9.55.12.47.25.95.4,1.41,0,0,.33.57.29.54a5.37,5.37,0,0,1-.41-.42h0c-1.23-1.3-4.91-5.28-6.32-8A24,24,0,0,1,222,452c-.2-.87-.57-2.86.3-3.53S225,449.22,225.55,449.84Z" style="fill:#ECEFF1"></path><path d="M223.68,450.61c-1.22.51,1.31,5.88,1.63,6.58a32.13,32.13,0,0,0,4.5,7.28c.19.26.4.5.61.75l.41.43s-.27-.5-.29-.55,0-.16-.08-.24c-.11-.39-.22-.78-.32-1.16-.8-2.12-1.57-4.26-2.42-6.37a30.39,30.39,0,0,0-2.14-4.41C225.39,452.61,224.22,450.38,223.68,450.61Zm1,1.11c2.74,3.92,3.73,8.64,5.53,13l.09.21c-.07-.09-.16-.19-.23-.29a37.28,37.28,0,0,1-3.81-6,35,35,0,0,1-1.72-4,16.09,16.09,0,0,1-.76-2.25c-.08-.33-.24-1.26,0-1.38S224.5,451.46,224.68,451.72Z" style="fill:#fff"></path><path d="M201.88,419c4.3,7.18,2.11,16.39,5.92,23.79l0,0c.11.23.24.45.36.67a.15.15,0,0,1-.11.23.1.1,0,0,1-.11-.06.65.65,0,0,1-.09-.16,40.09,40.09,0,0,1-8.21-11.63c-1.76-3.62-2.92-7.69-2.32-11.73.15-1,.37-3,1.58-3.36S201.35,418.15,201.88,419Z" style="fill:#ECEFF1"></path><path d="M200.4,421.68c-.51.16-.57.9-.63,1.31a13.15,13.15,0,0,0-.07,3.07,21,21,0,0,0,1.57,6.08,43.66,43.66,0,0,0,5.08,9.5c.48.65,1,1.29,1.52,1.9l.2.22a.16.16,0,0,0,.12-.23c-.13-.21-.24-.42-.36-.64l0-.06a25.83,25.83,0,0,1-2.17-4.49,62.3,62.3,0,0,1-1.92-7.52C203.49,429.83,202.13,421.1,200.4,421.68Zm1.13,1.46a28.91,28.91,0,0,1,1.61,6c.45,2,.88,4.06,1.36,6.08a30.53,30.53,0,0,0,1.55,4.71,23.4,23.4,0,0,0,1.94,3.63,31.79,31.79,0,0,1-2.36-3.29s0,0,0-.05a56.48,56.48,0,0,1-3.37-6.39l0-.08a26.49,26.49,0,0,1-2-6,15.83,15.83,0,0,1-.29-3.44c.07-1.31.25-2.36.69-2.37S201.28,422.59,201.53,423.14Z" style="fill:#fff"></path><path d="M202.41,433.76c1.18,2.08,2.4,4.13,3.64,6.19l1.74,2.88,0,.06.63,1a68.63,68.63,0,0,0,6.16,9.23,30.87,30.87,0,0,0,4.23,4l.47.38h0l.27.2.14.11c1.34,1,2.73,2,4.08,2.92,1.89,1.3,3.85,2.46,5.82,3.6l.18.1a2.26,2.26,0,0,0,.26.16l.14.08.25.15,1.9,1.11-.4.57a45.63,45.63,0,0,1-6-3.24.5.5,0,0,1-.12-.08l-.56-.35c-.23-.15-.46-.29-.68-.45-.55-.36-1.09-.72-1.62-1.09a47.42,47.42,0,0,1-8.74-7.23l-.21-.24a.39.39,0,0,1-.08-.1c-.06-.05-.1-.11-.15-.16l-.23-.28c-.14-.16-.27-.33-.4-.5l-.12-.15a73.59,73.59,0,0,1-5.33-8.56c-.3-.53-.6-1.05-.89-1.59l-.49-.88-.72-1.35s0,0,0-.05c-1.13-2.12-2.22-4.27-3.37-6.39C202.19,433.76,202.35,433.66,202.41,433.76Z" style="fill:#ECEFF1"></path></g><g id="freepik--Character--inject-903"><path d="M382.28,205.17c-5.74,11.05-14.5,23.36-14.67,36.27-.12,10.12,5.16,19.42,11.66,26.83,14.28,16.28,39,29,59.83,17,8.32-4.8,16.06-19.24,10.24-28.54-3-4.77-7.79-7.77-12-11.32a22.77,22.77,0,0,1-8.74-17.7c-.4-14.25,4.51-15.75,9.21-28.79.86-2.42,1.55-11.41.16-14.43a17.46,17.46,0,0,0-5.52-7.57,17.38,17.38,0,0,0-7-4.79c-5.81-2-13.51.66-19.28,1.86s-9.39,3.66-12.26,9C389.9,190.27,386.14,197.75,382.28,205.17Z" style="fill:#263238"></path><path d="M378.42,209.84c5.91-9.79,12-19.46,18.05-29.17,0-.06.14,0,.1.05-4.74,8.13-9.36,16.33-14.21,24.4-4.75,7.92-10.17,15.73-14.21,24-9.07,18.64,6.72,35.26,23.14,41.75.74.29.19,1.45-.56,1.13-14.23-6.16-28.79-18.74-26-36C366.33,226.61,373.58,217.85,378.42,209.84Z" style="fill:#263238"></path><path d="M437.51,191a.17.17,0,0,1,.31.15c-4.33,10.56-10.35,22.47-8.64,34.2a29,29,0,0,0,7.4,15.46c3.15,3.38,7.2,5.42,10.89,8.1,14.44,10.48,4.65,32-10.76,35-.32.06-.44-.49-.12-.57,11.12-2.71,19.25-13.23,16.63-24.94-2.11-9.39-13.33-11.92-18.85-19C423,224.71,430.23,205.9,437.51,191Z" style="fill:#263238"></path><path d="M365.08,179.35c-7.62-2.69-77.45-32.13-85.35-37.89-3.48-2.54,12.46-30.47,16.65-28.55,12.57,5.78,64.29,44.6,79.39,55.77C391.45,180.28,381.78,185.24,365.08,179.35Z" style="fill:#f7a9a0"></path><path d="M256.49,129c5.07,5.39,22.57,13,26.75,13.32s16.7-24.68,14.87-28.61S277.82,93,270.37,92,251.24,123.41,256.49,129Z" style="fill:#f7a9a0"></path><path d="M295.48,110.38a47.87,47.87,0,0,1-3-12.78c-1-8.31,2.05-14-1.23-14-6.73.07-10,18.4-10,18.4s1.46,11.47,8.15,12.07C293.58,114.49,295.48,110.38,295.48,110.38Z" style="fill:#f7a9a0"></path><path d="M365.08,179.35c-3.91-1.38-24.19-9.8-44.08-18.44l59,11.31C389.27,181.23,380,184.6,365.08,179.35Z" style="opacity:0.1"></path><path d="M307.39,191.49l22.94-8s.9-10.7,10.53-14c4.88-1.66,27.74.69,37.42,2.47,9.09,1.67,20.12,11.5,14.5,19.62-7.28,10.52-23.57,21.22-41.93,31.18,0,0-8,11.86-12.52,16.34Z" style="fill:#f7a9a0"></path><path d="M366.45,213.73c-4.9,3.06-10.16,6.08-15.6,9,0,0-.48.71-1.27,1.84-3-6.49-14.28-30.43-15.21-31.73s-6.12-6.25-8-8l3.95-1.38s.9-10.7,10.53-14a19.24,19.24,0,0,1,5.19-.56c1.37,2.42,1,12.32,1,12.32s13,5.89,14.26,8.38C364,195.08,366,210,366.45,213.73Z" style="fill:#ECEFF1"></path><path d="M338.66,187.83a42.85,42.85,0,0,1,4.11,6.88c.56,1.22,1.05,2.48,1.51,3.76.23.63.48,1.26.74,1.88a6.83,6.83,0,0,0,1,1.81c0,.05-.05.13-.09.08a8.9,8.9,0,0,1-2.22-3.11c-.58-1.24-1.1-2.51-1.66-3.75-1.15-2.51-2.29-5-3.64-7.38C338.37,187.89,338.59,187.73,338.66,187.83Z" style="fill:#263238"></path><path d="M332,185.14a45,45,0,0,1,4.75,4.51,29.73,29.73,0,0,1,2,2.56c.31.43.6.86.89,1.29s.56,1,.89,1.5c0,.05-.05.13-.09.09-.32-.44-.74-.8-1.1-1.21l-1.07-1.23c-.71-.82-1.44-1.63-2.15-2.46-1.41-1.66-2.84-3.29-4.33-4.89C331.76,185.22,331.92,185.07,332,185.14Z" style="fill:#263238"></path><path d="M380.47,193.45c-4.07,8.08-15.26,34.56-18.44,47-3.08,12-5.52,32.15-6.24,47.25-.2,4.3,31.53-5.55,31.23-10.15-.66-9.88-.37-30.55.09-34s4.22-31.74,6.8-46.44C396.75,181,388,178.5,380.47,193.45Z" style="fill:#f7a9a0"></path><path d="M373.09,303.08c-1.87-1-2.42-.05-.94,3.43s10.3,16,5.67,18.72S361,310.08,359,304.09s-3.2-16.38-3.2-16.38C358.86,290.71,367,297.27,373.09,303.08Z" style="fill:#f7a9a0"></path><path d="M380.22,267.68c8.33,8.76,19.24,19.16,22.33,32.45a6.77,6.77,0,0,1-.36,4.41c1.49,5.93-.86,8.42-.86,8.42-.31,6-3.06,8.16-3.06,8.16s1.67,7-2.38,8.69c-4.54,1.94-6-8.25-10.23-13.36-9.69-11.71-26.74-25.64-29.87-28.74Z" style="fill:#f7a9a0"></path><path d="M384.13,297a98.87,98.87,0,0,1,7.9,10.74,96.34,96.34,0,0,1,6.08,13.27.12.12,0,0,0,.23-.08,51.57,51.57,0,0,0-14.06-24.05C384.13,296.77,384,296.87,384.13,297Z" style="fill:#263238"></path><path d="M390.34,290.17c2.52,3.56,6.91,9.84,10.85,22.83,0,0,.09,0,.08,0a46.37,46.37,0,0,0-10.76-22.94C390.34,289.84,390.18,289.93,390.34,290.17Z" style="fill:#263238"></path><path d="M393.75,286.54c4.06,6.21,5.82,10.64,8.4,18,0,0,.09,0,.08,0-2.05-8.65-3.78-11.55-8.28-18.13C393.79,286.14,393.59,286.29,393.75,286.54Z" style="fill:#263238"></path><path d="M372.83,209.91a79.17,79.17,0,0,1,8.66-18.55c-2.29,5.47-6.09,13.11-8.66,18.55Z" style="fill:#263238"></path><path d="M379.77,192.47c-.53,1.46-.83,3-1.3,4.45a9.78,9.78,0,0,1,1.3-4.45Z" style="fill:#263238"></path><path d="M321,196.57a4.39,4.39,0,0,0-3.59,2.17c-.18.29-.21.54-.1.67s.4.11.63,0a2.91,2.91,0,0,0,1.33-1.7,2.39,2.39,0,0,1-1.68,2.47c-1,.1-1.32-1.1-.82-1.8.82-1.37,2.66-2.56,4.23-1.8Z" style="fill:#263238"></path><path d="M387.34,189.25c-1.28-.29-6.63-9.68-6.51-13.67.07-2.2,6.34-.37,6.34-.37l11.53-2.66L408,187S387.88,189.36,387.34,189.25Z" style="fill:#f7a9a0"></path><path d="M394.71,188.52c-4.89-7.33-.9-14.84-.9-14.84l4.89-1.13L408,187Z" style="fill:#263238"></path><path d="M427.16,168.16c-12.85-14.51-23-8.46-26.12-5.68-2.84,2.51-12.18,11.45-.9,27.21s22.09,14.38,28.88,9S440,182.67,427.16,168.16Z" style="fill:#f7a9a0"></path><path d="M426.77,173.55a10.37,10.37,0,0,0-.76,1.11,2.11,2.11,0,0,0-.56,1.27.69.69,0,0,0,.58.61,1.73,1.73,0,0,0,1.5-.88,2.51,2.51,0,0,0,.53-1.73A.74.74,0,0,0,426.77,173.55Z" style="fill:#263238"></path><path d="M417.38,182.37c.37-.27.75-.47,1.14-.7a2.17,2.17,0,0,1,1.3-.5.7.7,0,0,1,.58.61,1.71,1.71,0,0,1-.95,1.46,2.48,2.48,0,0,1-1.75.44A.74.74,0,0,1,417.38,182.37Z" style="fill:#263238"></path><path d="M408.45,169.13a2,2,0,0,1,.13-1.35,3.51,3.51,0,0,1,1.17-.87s0-.08,0-.08a1.77,1.77,0,0,0-1.63.81,1.43,1.43,0,0,0,.22,1.55C408.37,169.25,408.45,169.2,408.45,169.13Z" style="fill:#263238"></path><path d="M415.71,168.41s-1.24-1.55-1.92-2.19c-.06-.06-.25.07-.48.29l0,0a4.44,4.44,0,0,0-1.76,4.26c0,.1.17.09.19,0a6.63,6.63,0,0,1,1.94-3.72c.23.13,2,2.73,2.15,2.63a7.88,7.88,0,0,0,1.1-1.86c2.69,3.17,4.84,6.73,7.56,9.84a.13.13,0,0,0,.21-.13A66.87,66.87,0,0,0,417,166.58C416.66,166.16,415.85,168,415.71,168.41Z" style="fill:#263238"></path><path d="M413.06,167a4.78,4.78,0,0,0-2.41.29,2.16,2.16,0,0,0-1,.86c-.5.84.09,1.47.74,1.88a5.22,5.22,0,0,0,1.1.52A6.23,6.23,0,0,1,413.06,167Z" style="fill:#263238"></path><path d="M410.65,167.32a2.16,2.16,0,0,0-1,.86c-.5.84.09,1.47.74,1.88A2.22,2.22,0,0,0,410.65,167.32Z" style="fill:#ff9bbc"></path><path d="M421.26,171.87s0-.11,0-.15c-.86-.95-1.68-2.17-1.07-3.24,0,0,0-.08-.06,0C419.19,169.49,420.29,171.11,421.26,171.87Z" style="fill:#263238"></path><path d="M423.54,170.65a3.5,3.5,0,0,0-.47-.54,1.85,1.85,0,0,1-.08-.56,1,1,0,0,1,.5-.91c.69-.35,1.4.13,1.87.76,0,0,0,.09,0,.08-.49-.17-1-.31-1.36,0s-.3.76-.42,1.14l0,0Z" style="fill:#263238"></path><path d="M420.33,170.84a2,2,0,0,1-.27-1,1.42,1.42,0,0,1,.49-1,1.25,1.25,0,0,1,1.11-.24,2.14,2.14,0,0,1,.89.49,5.93,5.93,0,0,1,.43.44,2.81,2.81,0,0,1,.57,1.13,4.47,4.47,0,0,0-.62-.68,6.15,6.15,0,0,0-.66-.51c-.48-.3-1-.45-1.33-.15a1.08,1.08,0,0,0-.17,1.31,8.26,8.26,0,0,0,.85,1.56A4,4,0,0,1,420.33,170.84Z" style="fill:#263238"></path><path d="M415.88,177c0,.05-.11,0-.14,0-.78-1-1.83-2.05-3-1.65,0,0-.08,0,0-.06C413.93,174.52,415.31,175.9,415.88,177Z" style="fill:#263238"></path><path d="M414.27,179a3.28,3.28,0,0,1-.44-.56,2.32,2.32,0,0,0-.54-.19,1,1,0,0,0-1,.33c-.47.62-.12,1.4.41,2,0,0,.08,0,.08,0-.07-.51-.12-1.06.25-1.34s.81-.15,1.2-.2c0,0,0,0,0,0Z" style="fill:#263238"></path><path d="M415,175.89a2,2,0,0,0-.93-.45,1.42,1.42,0,0,0-1.08.3,1.25,1.25,0,0,0-.43,1,2.19,2.19,0,0,0,.32,1,3.52,3.52,0,0,0,.36.5,2.77,2.77,0,0,0,1,.77,4.36,4.36,0,0,1-.56-.74,4.65,4.65,0,0,1-.37-.74c-.22-.52-.26-1.07.09-1.33a1.09,1.09,0,0,1,1.32.07,9.41,9.41,0,0,1,1.38,1.12A4.06,4.06,0,0,0,415,175.89Z" style="fill:#263238"></path><path d="M398,186.38c3.43-2.6,9.62,5.07,9.62,5.07s2.58-.78,8,1.28c0,0-4.21-2.15-7.54-1.79-.56.06,12-7.81,20.07.28,0,0-3.28-9.76,2.79-18.7.2-.28,5.46,8.64,5.2,11.86a21.5,21.5,0,0,1-1.11,5.47,21.16,21.16,0,0,1-9.79,12.66c-8,4.52-18.52.62-21.46-2C398,195.21,396.37,187.61,398,186.38Z" style="fill:#263238"></path><path d="M408.29,190.46c6.59-4.66,14.8-4.52,20.38,1.57.14.16.38,0,.28-.22-4.25-7.26-15.14-6.57-20.81-1.42C408,190.51,408.14,190.57,408.29,190.46Z" style="fill:#263238"></path><path d="M428.25,191.56a0,0,0,0,0,.08,0c-1-4.62-3.9-11.83,1-15.27a.12.12,0,0,0-.13-.21C424.2,178.93,425.76,187.45,428.25,191.56Z" style="fill:#263238"></path><path d="M402.06,186.24s1.1,7.3-1.93,8.1-6.76-7.76-5.25-10.85a3.28,3.28,0,0,1,4.4-1.74Z" style="fill:#f7a9a0"></path><path d="M399.12,191.86s-.09,0-.07-.05c1-2.22.43-4.56-.46-6.71a1.81,1.81,0,0,1-1.62,2.22.07.07,0,0,1,0-.13,2,2,0,0,0,1.12-2,10.21,10.21,0,0,0-.46-2c-.07-.22.27-.39.38-.17,0,0,0,0,0,.05C400,185.06,401.17,189.52,399.12,191.86Z" style="fill:#263238"></path><path d="M145.1,360.29l-43-25.77s58.08-108.1,82.54-121.19c16.68-8.92,122.75-21.84,122.75-21.84l21.77,56.7s-109.91,12.66-113.53,15C211.75,265.8,145.1,360.29,145.1,360.29Z" style="fill:#f7a9a0"></path><path d="M40.29,402.31c.77,1,91.09-10.86,94.1-13.07s5.48-18.64,5.66-19.94c.6-4.57,25.37-38.66,25.37-38.66l-49-21.83L87,359.28s-33.59,22.1-37.83,23.85C45.56,384.61,38.07,399.34,40.29,402.31Z" style="fill:#f7a9a0"></path><path d="M329.16,248.19s-109.91,12.66-113.53,15c-1.09.72-7.11,8.67-15.22,19.74L175.3,221a41.55,41.55,0,0,1,9.34-7.68c16.68-8.92,122.75-21.84,122.75-21.84Z" style="opacity:0.2"></path><rect x="262.43" width="8.9" height="463.27" style="fill:#455a64"></rect><rect x="260.45" y="457.38" width="12.86" height="5.89" style="fill:#37474f"></rect><rect x="219.12" y="463.27" width="95.53" height="4.32" style="fill:#455a64"></rect><path d="M215.42,378.15c1.25-.32,48.33-79.89,48.34-83.62s-13-10.63-13.73-11.74c-2-3.23-8.43-42.15-8.43-42.15l-42.93,28.21L210.82,316s-1.64,43.54-2.32,45.59C207.28,365.26,212.64,378.88,215.42,378.15Z" style="fill:#f7a9a0"></path><path d="M307.39,191.49s-51.34-40.3-87.31-51.93c-11.34-3.66-43.25-16.56-46.14,12-3.3,32.7,31.83,140.89,31.83,140.89l40.34-26.35S244.06,218.4,234.43,209c-8.56-8.4,31.65,44,52.54,50,32.25,9.37,51.36-19.88,51.36-19.88Z" style="fill:#f7a9a0"></path><path d="M256,235.35l0,0c-7.25-7.49-13.78-15.16-18-20.45h0l-9.94-24.62Z" style="opacity:0.1"></path><path d="M307.39,191.49s27,45.29,1.95,68.16c0,0,21-2.33,29-20.55,0,0-19-37.06-20.34-39.38s-7.37-9.36-7.37-9.36Z" style="fill:#ECEFF1"></path><path d="M278.43,97.15c1.62,3.7-3.68,3.49-3.68,3.49s7.55,2.14,7.74,6.6-6.21,3.83-6.66,3.8c.39.11,7.28,2.26,7,6.77-.28,4.68-6.61,3.1-7,3,.34.23,4.81,3.33,3.83,6.7-1.69,5.81-13.32-1.79-18.07-.58L260,131.14s-8.49-2.71-9.76-9.19a4.22,4.22,0,0,1,2.39-4.72s-3.87-1.86-3.77-5.41c.06-1.83,3-3.36,3-3.36s-3-1.62-2.75-4.77c.22-2.52,3.16-3.67,3.16-3.67s-2.19-2.9-1.13-5.41C253.27,89.56,275,89.22,278.43,97.15Z" style="fill:#f7a9a0"></path><path d="M252.71,99.77a.06.06,0,0,1,0-.12,37.63,37.63,0,0,1,22.35,1c.23.09.18.49-.08.44A77.3,77.3,0,0,0,252.71,99.77Z" style="fill:#263238"></path><path d="M251.75,108.42c-.09,0-.1-.14,0-.16,7.33-1.87,16.75-1.45,24.32,2.57.26.14.35.52,0,.39C270.87,108.92,258.72,107.71,251.75,108.42Z" style="fill:#263238"></path><path d="M276.25,121.27c-7.4-3.58-15.21-4.42-23.35-4.14-.11,0-.1-.15,0-.17,3.95-1.23,9.16-.87,13.19-.25a21.71,21.71,0,0,1,10.31,4.3C276.5,121.1,276.41,121.34,276.25,121.27Z" style="fill:#263238"></path><path d="M274.87,100.56c.27.11-.18.39.09.5,1.12.48,7.64,4,7.15,6.55-.4,2.07-3.47,3-4.78,2.86l-3.3-.3,3,1.43a13.48,13.48,0,0,1,3.63,2.47,4.82,4.82,0,0,1,1.71,3.57,2.78,2.78,0,0,1-2.15,2.75,8.49,8.49,0,0,1-4.2-.21l-3.78-1,3.22,2.21a12.81,12.81,0,0,1,2.43,2.17,5.24,5.24,0,0,1,1.35,2.71,2.51,2.51,0,0,1-1.1,2.39,5.43,5.43,0,0,1-3.05.47,42.92,42.92,0,0,1-6.69-1.3c-1.11-.27-2.24-.54-3.37-.76a8.2,8.2,0,0,0-3.45-.11,8.82,8.82,0,0,1,3.38.42c1.1.3,2.19.66,3.29,1A37,37,0,0,0,275,130a6.44,6.44,0,0,0,3.68-.46,3.53,3.53,0,0,0,1.76-3.46,6.44,6.44,0,0,0-1.59-3.41,13.76,13.76,0,0,0-2.66-2.45l-.57,1.17a9.65,9.65,0,0,0,5,.29,4,4,0,0,0,2.28-1.48,4.54,4.54,0,0,0,.84-2.55,6.12,6.12,0,0,0-2.16-4.53,14.94,14.94,0,0,0-4-2.65l-.31,1.13c1.68.09,5.21-.54,6.24-3.68C284.16,103.67,276.34,101,274.87,100.56Z" style="fill:#263238"></path><path d="M274.75,100.64a8.24,8.24,0,0,0,2.37-.75,1.88,1.88,0,0,0,1.08-1.57,3.77,3.77,0,0,0-.76-2,24.58,24.58,0,0,0-1.52-2.05,6.31,6.31,0,0,1,2.21,1.49,3.79,3.79,0,0,1,1.2,2.64,2.78,2.78,0,0,1-.58,1.5,2.9,2.9,0,0,1-1.28.83A4.42,4.42,0,0,1,274.75,100.64Z" style="fill:#263238"></path></g><g id="freepik--Sparkles--inject-903"><polygon points="369.98 275.64 363.02 276.92 361.47 284.25 359.92 276.92 352.96 275.63 359.89 273.94 361.47 267.02 363.06 273.94 369.98 275.64" style="fill:#ECEFF1"></polygon><polygon points="147.04 182.86 140.08 184.15 138.53 191.47 136.97 184.15 130.02 182.85 136.94 181.16 138.53 174.24 140.11 181.16 147.04 182.86" style="fill:#ECEFF1"></polygon><polygon points="356.77 299.79 352.88 300.51 352.01 304.61 351.14 300.51 347.26 299.79 351.13 298.85 352.01 294.98 352.9 298.85 356.77 299.79" style="fill:#ECEFF1"></polygon><polygon points="198.82 327.08 194.93 327.8 194.06 331.89 193.19 327.8 189.31 327.07 193.18 326.13 194.06 322.26 194.95 326.13 198.82 327.08" style="fill:#ECEFF1"></polygon><polygon points="242.76 75.73 238.87 76.45 238 80.55 237.13 76.45 233.25 75.73 237.12 74.78 238 70.91 238.89 74.78 242.76 75.73" style="fill:#ECEFF1"></polygon><polygon points="325.95 188.76 322.06 189.48 321.19 193.57 320.32 189.48 316.44 188.76 320.31 187.81 321.19 183.94 322.08 187.81 325.95 188.76" style="fill:#ECEFF1"></polygon><path d="M205.35,272.78a1.13,1.13,0,0,0,0,2.25A1.13,1.13,0,0,0,205.35,272.78Z" style="fill:#ECEFF1"></path><path d="M327.22,166.09a1.13,1.13,0,0,0,0,2.25A1.13,1.13,0,0,0,327.22,166.09Z" style="fill:#ECEFF1"></path><path d="M360.17,306a.8.8,0,0,0,0,1.6A.8.8,0,0,0,360.17,306Z" style="fill:#ECEFF1"></path><path d="M216.43,173.81a.8.8,0,0,0,0,1.59A.8.8,0,0,0,216.43,173.81Z" style="fill:#ECEFF1"></path><path d="M160,169.81a.8.8,0,0,0,0,1.6A.8.8,0,0,0,160,169.81Z" style="fill:#ECEFF1"></path><path d="M343.17,287.6a.8.8,0,0,0,0,1.6A.8.8,0,0,0,343.17,287.6Z" style="fill:#ECEFF1"></path><path d="M299.59,325.48a.8.8,0,0,0,0,1.6A.8.8,0,0,0,299.59,325.48Z" style="fill:#ECEFF1"></path><path d="M245.46,94a.8.8,0,0,0,0,1.6A.8.8,0,0,0,245.46,94Z" style="fill:#ECEFF1"></path></g></svg>
