<svg xmlns="http://www.w3.org/2000/svg" viewBox="0 0 500 500"><g id="freepik--background-complete--inject-38"><path d="M448.19,254.78l5.51-8.88L451,244.22a2.49,2.49,0,0,1-1.15-2.34c0-.51.06-1,.05-1.56a2.45,2.45,0,0,1,1.29-2.25l2.82-1.51-4.94-9.21-2.82,1.51a2.47,2.47,0,0,1-2.59-.16,14.06,14.06,0,0,0-1.33-.83,2.49,2.49,0,0,1-1.31-2.25l.11-3.19-10.44-.33-.1,3.21a2.48,2.48,0,0,1-1.45,2.16c-.24.11-.46.22-.69.35s-.45.24-.67.38a2.49,2.49,0,0,1-2.59,0l-2.74-1.7-5.5,8.87,2.72,1.69a2.49,2.49,0,0,1,1.15,2.34,13.55,13.55,0,0,0-.05,1.56,2.49,2.49,0,0,1-1.3,2.25l-2.82,1.51,4.94,9.2,2.82-1.51a2.47,2.47,0,0,1,2.59.17,15.19,15.19,0,0,0,1.32.82,2.47,2.47,0,0,1,1.31,2.25l-.09,3.2,10.43.32.1-3.2a2.48,2.48,0,0,1,1.46-2.15l.69-.35.67-.38a2.46,2.46,0,0,1,2.6,0Zm-8.84-6.59a8.55,8.55,0,1,1,3.5-11.58A8.54,8.54,0,0,1,439.35,248.19Z" style="fill:#dbdbdb"></path><path d="M127.73,83.24l-3.66-6.34L122.13,78a1.73,1.73,0,0,1-1.82-.06c-.31-.2-.62-.38-1-.55a1.73,1.73,0,0,1-1-1.55V73.62h-7.32v2.24a1.75,1.75,0,0,1-1,1.55c-.33.17-.64.35-1,.55a1.73,1.73,0,0,1-1.82.06l-1.94-1.12-3.66,6.34,2,1.12a1.74,1.74,0,0,1,.85,1.61c0,.18,0,.36,0,.54s0,.36,0,.54a1.73,1.73,0,0,1-.85,1.6l-2,1.13,3.66,6.34L107.35,95a1.75,1.75,0,0,1,1.83.06,9.64,9.64,0,0,0,.94.55,1.75,1.75,0,0,1,1,1.54v2.24h7.32V97.15a1.73,1.73,0,0,1,1-1.54c.32-.17.64-.35.94-.55a1.75,1.75,0,0,1,1.83-.06l1.94,1.12,3.66-6.34-2-1.12a1.74,1.74,0,0,1-.85-1.61c0-.18,0-.36,0-.54s0-.36,0-.54a1.74,1.74,0,0,1,.85-1.61Zm-7,3.27a6,6,0,1,1-6-6A6,6,0,0,1,120.73,86.51Z" style="fill:#dbdbdb"></path><path d="M333.46,124.35,329.8,118l-1.94,1.12a1.73,1.73,0,0,1-1.82-.06,9,9,0,0,0-1-.55,1.73,1.73,0,0,1-1-1.55v-2.24h-7.32V117a1.75,1.75,0,0,1-1,1.55,9,9,0,0,0-1,.55,1.73,1.73,0,0,1-1.82.06L311.14,118l-3.66,6.33,1.95,1.13a1.71,1.71,0,0,1,.85,1.61c0,.18,0,.36,0,.54s0,.36,0,.54a1.73,1.73,0,0,1-.85,1.6l-1.95,1.13,3.66,6.34,1.94-1.12a1.75,1.75,0,0,1,1.83.06,9.64,9.64,0,0,0,.94.55,1.75,1.75,0,0,1,1,1.54v2.24h7.32v-2.24a1.73,1.73,0,0,1,1-1.54c.32-.17.64-.35.94-.55a1.75,1.75,0,0,1,1.83-.06l1.94,1.12,3.66-6.34-1.95-1.12a1.74,1.74,0,0,1-.85-1.61c0-.18,0-.36,0-.54s0-.36,0-.54a1.73,1.73,0,0,1,.85-1.61Zm-7,3.28a6,6,0,1,1-6-6A6,6,0,0,1,326.46,127.63Z" style="fill:#dbdbdb"></path><path d="M84.23,120.89a30.87,30.87,0,1,0,30.87,30.87A30.86,30.86,0,0,0,84.23,120.89Zm0,45.29a14.42,14.42,0,1,1,14.42-14.42A14.41,14.41,0,0,1,84.23,166.18Z" style="fill:#ebebeb"></path><polygon points="90.16 122.17 78.29 122.17 78.95 113.77 89.51 113.77 90.16 122.17" style="fill:#ebebeb"></polygon><polygon points="67.57 126.17 59.17 134.56 53.69 128.16 61.16 120.69 67.57 126.17" style="fill:#ebebeb"></polygon><polygon points="54.42 144.98 54.42 156.85 46.01 156.19 46.01 145.63 54.42 144.98" style="fill:#ebebeb"></polygon><polygon points="58.42 167.57 66.81 175.97 60.4 181.45 52.94 173.98 58.42 167.57" style="fill:#ebebeb"></polygon><polygon points="77.22 180.72 89.09 180.72 88.44 189.13 77.88 189.13 77.22 180.72" style="fill:#ebebeb"></polygon><polygon points="99.82 176.72 108.21 168.33 113.69 174.74 106.22 182.2 99.82 176.72" style="fill:#ebebeb"></polygon><polygon points="112.97 157.92 112.97 146.04 121.37 146.7 121.37 157.26 112.97 157.92" style="fill:#ebebeb"></polygon><polygon points="108.97 135.32 100.57 126.92 106.98 121.45 114.45 128.91 108.97 135.32" style="fill:#ebebeb"></polygon><path d="M408,64.32a30.87,30.87,0,1,0,30.88,30.87A30.87,30.87,0,0,0,408,64.32Zm0,45.28a14.42,14.42,0,1,1,14.43-14.41A14.42,14.42,0,0,1,408,109.6Z" style="fill:#ebebeb"></path><polygon points="413.93 65.6 402.06 65.6 402.71 57.2 413.27 57.2 413.93 65.6" style="fill:#ebebeb"></polygon><polygon points="391.33 69.6 382.94 77.99 377.46 71.59 384.93 64.12 391.33 69.6" style="fill:#ebebeb"></polygon><polygon points="378.18 88.41 378.18 100.28 369.78 99.62 369.78 89.06 378.18 88.41" style="fill:#ebebeb"></polygon><polygon points="382.18 111 390.58 119.4 384.17 124.87 376.7 117.41 382.18 111" style="fill:#ebebeb"></polygon><polygon points="400.99 124.15 412.86 124.15 412.2 132.56 401.65 132.56 400.99 124.15" style="fill:#ebebeb"></polygon><polygon points="423.59 120.15 431.98 111.76 437.46 118.16 429.99 125.63 423.59 120.15" style="fill:#ebebeb"></polygon><polygon points="436.74 101.34 436.74 89.47 445.14 90.13 445.14 100.69 436.74 101.34" style="fill:#ebebeb"></polygon><polygon points="432.74 78.75 424.34 70.35 430.75 64.88 438.21 72.34 432.74 78.75" style="fill:#ebebeb"></polygon></g><g id="freepik--piggy-bank--inject-38"><path d="M325.53,207.42s52.5-20.21,97.72-2.62c15.57,6.06-21.15,32.84-29.6,59.72Z" style="fill:#ECEFF1"></path><path d="M325.53,207.42s52.5-20.21,97.72-2.62c15.57,6.06-21.15,32.84-29.6,59.72Z" style="fill:#fff;opacity:0.2"></path><path d="M117.46,266.13c-.09-3.62-.37-6.83-.77-10.23A98.75,98.75,0,0,0,115,245.82a58.79,58.79,0,0,0-3.21-10.17,25.5,25.5,0,0,0-7.05-9.89,14.82,14.82,0,0,0-6.6-3,14.57,14.57,0,0,0-3.59-.18,16.62,16.62,0,0,0-3.31.58,20.13,20.13,0,0,0-10,6.89,31.47,31.47,0,0,0-5.27,9.65,28.65,28.65,0,0,0-1.65,10.86,12.42,12.42,0,0,0,1.91,6.24,7.24,7.24,0,0,0,3.27,2.66,7.4,7.4,0,0,0,4,.4,7,7,0,0,0,3.68-1.8,8.31,8.31,0,0,0,2-3.05,14.91,14.91,0,0,0,.79-5.75,30.07,30.07,0,0,0-2.34-10.1,24.78,24.78,0,0,0-5.67-8.6,11.54,11.54,0,0,0-4.69-2.77,8.53,8.53,0,0,0-5.52.29c-3.38,1.41-5.61,4.12-7.36,6.86A54.43,54.43,0,0,0,57.82,253a54.21,54.21,0,0,1,7.72-17.25c1.84-2.45,4.16-4.72,6.86-5.49s5.27.4,7.12,2.56a21.19,21.19,0,0,1,4,7.73,25.32,25.32,0,0,1,1.16,8.63,9.57,9.57,0,0,1-.81,3.62,2.5,2.5,0,0,1-.7.89,1.12,1.12,0,0,1-.61.14c-.3,0-.66-.08-.71-.17a1.11,1.11,0,0,1-.29-.44,6.63,6.63,0,0,1-.43-2.91,23.94,23.94,0,0,1,6.52-14.52,11,11,0,0,1,5.8-3.33,8.72,8.72,0,0,1,1.43-.09,4.34,4.34,0,0,1,3,1.37,15.48,15.48,0,0,1,3.29,6,47.52,47.52,0,0,1,1.84,8.28,83.68,83.68,0,0,1,.74,8.89c.11,3,.1,6.13-.06,8.9Z" style="fill:#ECEFF1"></path><path d="M117.46,266.13c-.09-3.62-.37-6.83-.77-10.23A98.75,98.75,0,0,0,115,245.82a58.79,58.79,0,0,0-3.21-10.17,25.5,25.5,0,0,0-7.05-9.89,14.82,14.82,0,0,0-6.6-3,14.57,14.57,0,0,0-3.59-.18,16.62,16.62,0,0,0-3.31.58,20.13,20.13,0,0,0-10,6.89,31.47,31.47,0,0,0-5.27,9.65,28.65,28.65,0,0,0-1.65,10.86,12.42,12.42,0,0,0,1.91,6.24,7.24,7.24,0,0,0,3.27,2.66,7.4,7.4,0,0,0,4,.4,7,7,0,0,0,3.68-1.8,8.31,8.31,0,0,0,2-3.05,14.91,14.91,0,0,0,.79-5.75,30.07,30.07,0,0,0-2.34-10.1,24.78,24.78,0,0,0-5.67-8.6,11.54,11.54,0,0,0-4.69-2.77,8.53,8.53,0,0,0-5.52.29c-3.38,1.41-5.61,4.12-7.36,6.86A54.43,54.43,0,0,0,57.82,253a54.21,54.21,0,0,1,7.72-17.25c1.84-2.45,4.16-4.72,6.86-5.49s5.27.4,7.12,2.56a21.19,21.19,0,0,1,4,7.73,25.32,25.32,0,0,1,1.16,8.63,9.57,9.57,0,0,1-.81,3.62,2.5,2.5,0,0,1-.7.89,1.12,1.12,0,0,1-.61.14c-.3,0-.66-.08-.71-.17a1.11,1.11,0,0,1-.29-.44,6.63,6.63,0,0,1-.43-2.91,23.94,23.94,0,0,1,6.52-14.52,11,11,0,0,1,5.8-3.33,8.72,8.72,0,0,1,1.43-.09,4.34,4.34,0,0,1,3,1.37,15.48,15.48,0,0,1,3.29,6,47.52,47.52,0,0,1,1.84,8.28,83.68,83.68,0,0,1,.74,8.89c.11,3,.1,6.13-.06,8.9Z" style="fill:#fff;opacity:0.4"></path><path d="M123.61,408.58c10.28,12,8.19,58.28,14.41,63.41s70,4.59,74.31,1.58,2.27-23.89,7.09-26C221.31,446.72,123.61,408.58,123.61,408.58Z" style="fill:#ECEFF1"></path><path d="M123.61,408.58c10.28,12,8.19,58.28,14.41,63.41s70,4.59,74.31,1.58,2.27-23.89,7.09-26C221.31,446.72,123.61,408.58,123.61,408.58Z" style="fill:#fff;opacity:0.4"></path><path d="M219.42,447.55c-4.83,2.13-2.79,23-7.09,26-2.33,1.63-22.14,2.54-40.8,2.21,41.45,0,30.27-22.31,28.07-25.36-3.65-5.08-22.1-20.56-22.1-20.56C199.77,438.76,220.3,447.16,219.42,447.55Z" style="fill:#ECEFF1;opacity:0.4"></path><path d="M366.54,408.58c-10.28,12-8.19,58.28-14.41,63.41s-70,4.59-74.31,1.58-2.27-23.89-7.09-26C268.84,446.72,366.54,408.58,366.54,408.58Z" style="fill:#ECEFF1"></path><path d="M366.54,408.58c-10.28,12-8.19,58.28-14.41,63.41s-70,4.59-74.31,1.58-2.27-23.89-7.09-26C268.84,446.72,366.54,408.58,366.54,408.58Z" style="fill:#fff;opacity:0.4"></path><path d="M366.54,408.58c-10.28,12-8.19,58.28-14.41,63.41-3.37,2.79-23.73,3.91-42.32,3.86,22.74-4.31,28.94-16.3,28.94-25.43s-11-22-29.77-19.09C335.68,420.63,366.54,408.58,366.54,408.58Z" style="fill:#ECEFF1;opacity:0.4"></path><path d="M435.86,398.28c-4.27,3.27-46.94.17-59.57,10.42l.07-.18c-25.19,24.77-66.44,41.9-130.82,41.9-129.18,0-155.83-81.37-155.83-129.26,0-48.52,37.53-131.45,155.83-131.45,116.85,0,163.19,65.92,165.19,126.27,0,8.13,20.47-.58,25.76,3.13C444.82,324.94,443.49,392.44,435.86,398.28Z" style="fill:#ECEFF1"></path><path d="M435.86,398.28c-4.27,3.27-46.94.17-59.57,10.42l.07-.18c-25.19,24.77-66.44,41.9-130.82,41.9-129.18,0-155.83-81.37-155.83-129.26,0-48.52,37.53-131.45,155.83-131.45,116.85,0,163.19,65.92,165.19,126.27,0,8.13,20.47-.58,25.76,3.13C444.82,324.94,443.49,392.44,435.86,398.28Z" style="fill:#fff;opacity:0.4"></path><path d="M435.86,398.28c-4.27,3.27-46.94.17-59.57,10.42l.07-.18c-25.19,24.77-66.44,41.9-130.82,41.9-69.5,0-109.33-23.56-131.28-52.78l0,0c17.44,16.64,50.58,39.63,126.16,39.63,83,0,120.64-45.52,130.71-48.84,16.42-5.42,49.51.42,57.91-2.54,7-2.48,12.53-20.06,13.07-34.59C442.49,371.82,440.19,395,435.86,398.28Z" style="fill:#ECEFF1;opacity:0.4"></path><path d="M303.4,201.28s47.16-30.67,95.05-22.85c16.49,2.7-13.87,36.52-16.56,64.57Z" style="fill:#ECEFF1"></path><g style="opacity:0.4"><path d="M303.4,201.28s47.16-30.67,95.05-22.85c16.49,2.7-13.87,36.52-16.56,64.57Z" style="fill:#fff"></path></g><path d="M367.23,358.09c4.55.09,7.89-2.44,10-6.24-1.5,4.9-4.29,8.89-9.1,11-.33.15-.27.73.14.67,12.41-2.5,13.83-19.22,11.43-30.42-.12-.62-.25-1.24-.42-1.84-1.64-6.53-5.49-11.7-11.37-11.81C348.6,319.09,349.31,357.77,367.23,358.09Z" style="fill:#263238"></path><path d="M437.61,357.59c0,17.31-1.75,31.34-3.9,31.34s-3.9-14-3.9-31.34,1.74-31.35,3.9-31.35S437.61,340.28,437.61,357.59Z" style="fill:#ECEFF1;opacity:0.7000000000000001"></path><path d="M197.8,216.17c0-.26,44.87-15.06,86.12-2.58q2.49-5.9,5.07-11.78c-46.78-14.26-95.58,2-97,2.84q3,5.74,5.86,11.52c-1-1.92-1.93-3.85-2.91-5.77C195.88,212.32,196.84,214.25,197.8,216.17Z" style="fill:#ECEFF1"></path><path d="M287.68,204.83q-1.9,4.38-3.76,8.76c-40.86-12.36-85.27,2-86.11,2.58h0l-.82-1.65-.33-.66-1.29-2.54c-.64-1.27-1.28-2.54-1.94-3.81C202,204.63,245.45,192.48,287.68,204.83Z" style="opacity:0.2"></path><g style="opacity:0.5"><path d="M128.56,375.71C96,310.72,140.14,256.33,142.11,254a7.85,7.85,0,0,0-11.93-10.2,132.51,132.51,0,0,0-22.28,41.47c-10.92,33.2-7.72,67.09,13.29,95C127.52,388.69,132.75,384.06,128.56,375.71Z" style="fill:#fff"></path><path d="M144.71,229.55a8.53,8.53,0,1,0,10.38-6.13A8.52,8.52,0,0,0,144.71,229.55Z" style="fill:#fff"></path></g><path d="M321.08,198.54c8.87-8.14,32.47-19,63.85-18.22,9.34.25,10.12,8.47-2.71,8.12-16-.43-32.69.69-57.35,12.33C321.25,202.47,318.61,200.81,321.08,198.54Z" style="fill:#fff;opacity:0.5"></path></g><g id="freepik--Hourglass--inject-38"><g style="opacity:0.4"><path d="M124.5,437.76C127.71,449.29,127,468,127,468H46.6s-.7-18.7,2.5-30.23,32.09-26.67,34.23-32.25a12.33,12.33,0,0,0,0-8.67c-2.15-5.58-31-20.72-34.23-32.25s-2.51-30.23-2.51-30.23H127s.7,18.7-2.51,30.23-32.08,26.67-34.23,32.25a12.33,12.33,0,0,0,0,8.67C92.42,411.09,121.31,426.23,124.5,437.76Z" style="fill:#ebebeb"></path><path d="M124.5,437.76C127,447.6,127.19,457.88,127,468c-.06.06-80.42.05-80.52.07-.16-10.27-.05-20.82,2.63-30.8,2.89-7.94,15.19-16.19,22-21.34,2.76-2,5.55-4,8.19-6.23,1.55-1.39,3.43-2.71,4.1-4.76a11.61,11.61,0,0,0-.51-8.65,18.88,18.88,0,0,0-3.59-3.61c-8.34-7-26.57-17.67-30.21-27.56A60.7,60.7,0,0,1,47.19,355a154,154,0,0,1-.74-20.6v-.15c.24.09,80.6-.11,80.66.15.17,9.78,0,19.7-2.27,29.26-1.88,9.31-19.17,20.05-26.71,25.95-1.12.84-2.23,1.69-3.32,2.57a18.54,18.54,0,0,0-4.38,4.46,12.16,12.16,0,0,0-.36,8.2c.57,2.06,2.41,3.4,3.94,4.77,2.14,1.8,4.4,3.46,6.65,5.12,7.11,5.46,21.2,14.59,23.84,23.07Zm0,0c-2.64-8.46-16.77-17.6-23.87-23-3.32-2.54-6.91-4.87-9.68-8-1.63-2.24-1.73-5.48-1.22-8.11a6.59,6.59,0,0,1,1.9-3.69,56.31,56.31,0,0,1,6.44-5.4c4.48-3.36,9.06-6.59,13.43-10.09,2.18-1.75,4.33-3.56,6.33-5.51,2.47-2.44,4.92-5.06,6.27-8.3,1.53-4.65,2-9.59,2.44-14.44.54-5.7.35-11.62.47-16.69.08,0-81.08.24-80.26-.09a153.32,153.32,0,0,0,.77,20.55A61.17,61.17,0,0,0,49.42,365a15.87,15.87,0,0,0,2.48,4.43c5.34,6.73,12.56,11.65,19.38,16.77,2.76,2,5.55,4.05,8.2,6.25,1.45,1.27,3.08,2.49,4,4.26a12.42,12.42,0,0,1,0,8.92c-.88,1.77-2.51,3-4,4.26-8,6.48-16.86,11.91-24.22,19.15-2.37,2.42-4.76,5-5.9,8.29a60.45,60.45,0,0,0-1.9,10.09A151.75,151.75,0,0,0,46.68,468c-.55-.08,80.58-.07,80.31,0,.17-10.1,0-20.39-2.49-30.23Z" style="fill:#263238"></path></g><g style="opacity:0.4"><path d="M52.4,437.32c-2.93,10.53-2.29,27.62-2.29,27.62h73.4s.64-17.09-2.29-27.62S90.92,412.94,89,407.84a18.19,18.19,0,0,1,0-13.33c2-5.11,29.34-18.94,32.27-29.48s2.29-27.62,2.29-27.62H50.11s-.65,17.08,2.28,27.62,30.3,24.37,32.27,29.48A20,20,0,0,1,86,401.17a19.68,19.68,0,0,1-1.33,6.67C82.7,412.94,55.32,426.78,52.4,437.32Z" style="fill:#ebebeb"></path><path d="M52.4,437.32c-2.27,9-2.43,18.39-2.28,27.62-.1,0,73.62-.1,73.34,0,.14-9,0-18.14-2.13-26.93a10.3,10.3,0,0,0-.81-2.3,27.69,27.69,0,0,0-6.25-7.52c-7.29-6.66-16-11.52-23.49-17.94a10.82,10.82,0,0,1-1.64-1.86,11,11,0,0,1-.85-2.33,18.23,18.23,0,0,1,.35-11,6.77,6.77,0,0,1,2.13-3A47.81,47.81,0,0,1,94.6,389c7.33-5.73,23.87-15.42,26.52-24.05,2.26-9,2.43-18.32,2.29-27.51.71.14-73.76.15-73.24,0a119.26,119.26,0,0,0,1.5,24.25,16,16,0,0,0,2.93,7.45c3.3,4.3,7.65,7.66,11.94,10.92,5.37,4.11,11.19,7.65,16.27,12.12A6.9,6.9,0,0,1,85,395.49a17.05,17.05,0,0,1,.79,8,19.67,19.67,0,0,1-1.18,4.41,4.9,4.9,0,0,1-.85,1.26,54.22,54.22,0,0,1-7.88,6.37c-4.4,3.15-8.87,6.22-13.09,9.62a60.72,60.72,0,0,0-6,5.43,17.71,17.71,0,0,0-4.41,6.73Zm0,0a17.72,17.72,0,0,1,4.4-6.74,60.82,60.82,0,0,1,6-5.44c4.22-3.4,8.68-6.47,13.08-9.62,2.19-1.59,4.4-3.16,6.43-4.95a9.39,9.39,0,0,0,2.28-2.67A17.47,17.47,0,0,0,85,395.51a5.7,5.7,0,0,0-.84-1.82,24.94,24.94,0,0,0-4.5-4.08c-7.58-6-23.71-15.31-27.1-24-2.55-9.14-2.61-18.8-2.5-28.23,0-.18,73.41,0,73.57-.1v.1c.15,9.21,0,18.59-2.26,27.58-2.67,8.71-19.27,18.4-26.64,24.14-1.31,1-2.61,2-3.81,3.11a6.7,6.7,0,0,0-2.09,2.93A18.21,18.21,0,0,0,88.45,406a11.32,11.32,0,0,0,.84,2.28,11.17,11.17,0,0,0,1.61,1.83c7.47,6.42,16.18,11.28,23.46,18a27.64,27.64,0,0,1,6.28,7.56,10.06,10.06,0,0,1,.81,2.33c2.11,8.82,2.27,18,2.11,27,0,0-73.46-.05-73.47-.05-.14-9.23,0-18.63,2.31-27.62Z" style="fill:#263238"></path></g><path d="M54.59,334.36h9.76s-.6,16.76,0,24.57c.51,6.59,6.52,19.38,17,27.48,0,0-17.12-10.06-22.37-18.62S54.59,334.36,54.59,334.36Z" style="fill:#fff"></path><path d="M123.51,465H50.11S66.57,442.07,78,432.36a13.31,13.31,0,0,1,17.57,0C107,442.07,123.51,465,123.51,465Z" style="fill:#ECEFF1"></path><path d="M96.65,387.36s-6.91,5-7.81,6.48-1.63,6.48-1.63,6.48H86.4s-.72-4.95-1.63-6.48-7.8-6.48-7.8-6.48Z" style="fill:#ECEFF1"></path><path d="M86.81,423.05c-3.39,0-4.44-3-4.09-5.78.47-3.79,4.09-8.94,4.09-8.94s3.62,5.15,4.08,8.94C91.24,420.09,90.19,423.05,86.81,423.05Z" style="fill:#ECEFF1"></path><g style="opacity:0.5"><path d="M123.51,465H50.11S66.57,442.07,78,432.36a13.31,13.31,0,0,1,17.57,0C107,442.07,123.51,465,123.51,465Z" style="fill:#fff"></path><path d="M96.65,387.36s-6.91,5-7.81,6.48-1.63,6.48-1.63,6.48H86.4s-.72-4.95-1.63-6.48-7.8-6.48-7.8-6.48Z" style="fill:#fff"></path><path d="M86.81,423.05c-3.39,0-4.44-3-4.09-5.78.47-3.79,4.09-8.94,4.09-8.94s3.62,5.15,4.08,8.94C91.24,420.09,90.19,423.05,86.81,423.05Z" style="fill:#fff"></path></g><path d="M57.75,433.18s2-4.13,11.11-10.74c5.57-4.05,13.07-8.85,14.26-11.41,0,0-2.48,6.83-11.71,12.91C65.89,427.58,59.85,430.4,57.75,433.18Z" style="fill:#fff"></path><rect x="40.37" y="326.5" width="92.88" height="7.86" style="fill:#ECEFF1"></rect><rect x="40.37" y="326.5" width="92.88" height="7.86" style="opacity:0.5"></rect><rect x="40.37" y="467.99" width="92.88" height="7.86" style="fill:#ECEFF1"></rect><rect x="40.37" y="467.99" width="92.88" height="7.86" style="opacity:0.5"></rect></g><g id="freepik--Clocks--inject-38"><circle cx="342.15" cy="443.03" r="32.81" transform="translate(-199.31 585.03) rotate(-67.02)" style="fill:#455a64"></circle><circle cx="343.65" cy="443.76" r="31.31" style="opacity:0.1"></circle><circle cx="343.65" cy="443.76" r="29.33" transform="translate(-152.36 706.43) rotate(-80.15)" style="fill:#fff"></circle><path d="M372.32,437.54C359,445.63,337,458.91,324.74,466.19a29.32,29.32,0,0,1-8-10.78L357.3,417.8A29.35,29.35,0,0,1,372.32,437.54Z" style="fill:#ebebeb;opacity:0.5"></path><path d="M373,444.79a29,29,0,0,1-1.94,9.53l-36.58,17.3a28.69,28.69,0,0,1-4.62-2C340.87,463.25,361.06,451.63,373,444.79Z" style="fill:#ebebeb;opacity:0.5"></path><rect x="343.37" y="416.56" width="0.57" height="4.45" style="fill:#263238"></rect><rect x="330.88" y="419.91" width="0.57" height="4.45" transform="translate(-166.69 222.12) rotate(-30)" style="fill:#263238"></rect><rect x="321.73" y="429.05" width="0.57" height="4.45" transform="translate(-212.49 494.48) rotate(-60)" style="fill:#263238"></rect><rect x="316.45" y="443.48" width="4.45" height="0.57" style="fill:#263238"></rect><rect x="319.79" y="455.97" width="4.45" height="0.57" transform="translate(-185 222.16) rotate(-30)" style="fill:#263238"></rect><rect x="328.94" y="465.12" width="4.45" height="0.57" transform="translate(-237.43 519.9) rotate(-60.04)" style="fill:#263238"></rect><rect x="343.37" y="466.52" width="0.57" height="4.45" style="fill:#263238"></rect><rect x="355.86" y="463.18" width="0.57" height="4.45" transform="translate(-184.99 240.43) rotate(-30)" style="fill:#263238"></rect><rect x="365" y="454.03" width="0.57" height="4.45" transform="translate(-212.49 544.44) rotate(-60)" style="fill:#263238"></rect><rect x="366.41" y="443.48" width="4.45" height="0.57" style="fill:#263238"></rect><rect x="363.06" y="430.99" width="4.45" height="0.57" transform="translate(-166.68 240.36) rotate(-29.99)" style="fill:#263238"></rect><rect x="353.92" y="421.85" width="4.45" height="0.57" transform="translate(-187.46 519.77) rotate(-60.03)" style="fill:#263238"></rect><polygon points="356.49 422.09 343.88 446.17 341.48 444.76 355.84 421.71 356.49 422.09" style="fill:#ECEFF1"></polygon><polygon points="333.62 426.73 345.87 444.62 343.47 446.03 332.96 427.11 333.62 426.73" style="fill:#455a64"></polygon><path d="M344.6,443.76a1,1,0,1,1-1-.95A.95.95,0,0,1,344.6,443.76Z" style="fill:#c7c7c7"></path><circle cx="413.44" cy="427.64" r="32.81" transform="translate(-94.48 737.19) rotate(-77.33)" style="fill:#455a64"></circle><circle cx="414.95" cy="428.37" r="31.31" style="opacity:0.1"></circle><circle cx="414.95" cy="428.37" r="29.33" style="fill:#fff"></circle><path d="M443.61,422.14c-13.35,8.1-35.31,21.37-47.58,28.65A29.33,29.33,0,0,1,388,440L428.6,402.4A29.36,29.36,0,0,1,443.61,422.14Z" style="fill:#ebebeb;opacity:0.5"></path><path d="M444.26,429.39a29,29,0,0,1-1.94,9.53l-36.59,17.31a29.12,29.12,0,0,1-4.62-2C412.17,447.85,432.36,436.24,444.26,429.39Z" style="fill:#ebebeb;opacity:0.5"></path><rect x="414.66" y="401.16" width="0.57" height="4.45" style="fill:#263238"></rect><rect x="402.17" y="404.51" width="0.57" height="4.45" transform="translate(-149.44 255.7) rotate(-30)" style="fill:#263238"></rect><rect x="393.03" y="413.66" width="0.57" height="4.45" transform="translate(-163.51 548.53) rotate(-60)" style="fill:#263238"></rect><rect x="387.74" y="428.09" width="4.45" height="0.57" style="fill:#263238"></rect><rect x="391.09" y="440.58" width="4.45" height="0.57" transform="translate(-167.75 255.75) rotate(-30)" style="fill:#263238"></rect><rect x="400.23" y="449.72" width="4.45" height="0.57" transform="translate(-188.4 573.93) rotate(-60.04)" style="fill:#263238"></rect><rect x="414.66" y="451.13" width="0.57" height="4.45" style="fill:#263238"></rect><rect x="427.15" y="447.78" width="0.57" height="4.45" transform="matrix(0.87, -0.5, 0.5, 0.87, -167.74, 274.02)" style="fill:#263238"></rect><rect x="436.3" y="438.64" width="0.57" height="4.45" transform="translate(-163.51 598.49) rotate(-60)" style="fill:#263238"></rect><rect x="437.7" y="428.09" width="4.45" height="0.57" style="fill:#263238"></rect><rect x="434.36" y="415.59" width="4.45" height="0.57" transform="matrix(0.87, -0.5, 0.5, 0.87, -149.43, 273.95)" style="fill:#263238"></rect><rect x="425.21" y="406.45" width="4.45" height="0.57" transform="translate(-138.45 573.78) rotate(-60.02)" style="fill:#263238"></rect><polygon points="423.89 451.92 412.92 427.05 415.52 426.05 424.59 451.65 423.89 451.92" style="fill:#ECEFF1"></polygon><polygon points="395.27 430.3 416.66 426.71 416.93 429.49 395.34 431.05 395.27 430.3" style="fill:#455a64"></polygon><path d="M415.9,428.37a.95.95,0,1,1-1.9,0,.95.95,0,1,1,1.9,0Z" style="fill:#c7c7c7"></path><rect x="380.63" y="460.47" width="65.63" height="5.13" style="fill:#455a64"></rect><polygon points="446.26 465.59 380.63 465.59 380.63 463.03 446.26 463.94 446.26 465.59" style="fill:#37474f"></polygon><rect x="383.64" y="465.59" width="65.63" height="5.13" style="fill:#455a64"></rect><polygon points="449.26 470.72 383.63 470.72 383.63 468.16 449.26 469.07 449.26 470.72" style="fill:#37474f"></polygon><rect x="375.49" y="470.72" width="65.63" height="5.13" style="fill:#455a64"></rect><polygon points="441.12 475.85 375.49 475.85 375.49 473.28 441.12 474.2 441.12 475.85" style="fill:#37474f"></polygon></g><g id="freepik--Floor--inject-38"><path d="M40.37,475.85c134.3-.61,285-.62,419.26,0-134.3.61-285,.61-419.26,0Z" style="fill:#263238"></path></g><g id="freepik--Character--inject-38"><polygon points="242.96 475.85 236.24 475.85 200.73 211.11 133.82 211.11 147.83 475.85 141.19 475.85 126.86 204.98 206.63 204.98 242.96 475.85" style="fill:#ECEFF1"></polygon><polygon points="242.96 475.85 236.24 475.85 200.73 211.11 133.82 211.11 147.83 475.85 141.19 475.85 126.86 204.98 206.63 204.98 242.96 475.85" style="opacity:0.6000000000000001"></polygon><polygon points="210.25 198.95 122.9 198.95 122.41 205.9 209.76 205.9 210.25 198.95" style="fill:#ECEFF1"></polygon><polygon points="210.25 198.95 122.9 198.95 122.41 205.9 209.76 205.9 210.25 198.95" style="opacity:0.4"></polygon><polygon points="206.63 205.9 193.56 475.85 186.93 475.85 199.68 212.5 132.75 212.5 98.53 475.85 91.82 475.85 126.9 205.9 206.63 205.9" style="fill:#ECEFF1"></polygon><polygon points="202.95 270.54 125.69 270.54 125.34 263.94 202.61 263.94 202.95 270.54" style="fill:#ECEFF1"></polygon><polygon points="195.08 324.07 117.82 324.07 117.47 317.46 194.74 317.46 195.08 324.07" style="fill:#ECEFF1"></polygon><polygon points="192.65 377.6 109.24 377.6 108.9 370.99 192.3 370.99 192.65 377.6" style="fill:#ECEFF1"></polygon><polygon points="191.41 431.12 103.29 431.12 102.95 424.52 191.06 424.52 191.41 431.12" style="fill:#ECEFF1"></polygon><g style="opacity:0.4"><polygon points="206.63 205.9 193.56 475.85 186.93 475.85 199.68 212.5 132.75 212.5 98.53 475.85 91.82 475.85 126.9 205.9 206.63 205.9"></polygon><polygon points="202.95 270.54 125.69 270.54 125.34 263.94 202.61 263.94 202.95 270.54"></polygon><polygon points="195.08 324.07 117.82 324.07 117.47 317.46 194.74 317.46 195.08 324.07"></polygon><polygon points="192.65 377.6 109.24 377.6 108.9 370.99 192.3 370.99 192.65 377.6"></polygon><polygon points="191.41 431.12 103.29 431.12 102.95 424.52 191.06 424.52 191.41 431.12"></polygon></g><path d="M152.89,99.36s6.16,4.38,7.83,10.88,3,38.88,4.42,45.54,18.67,39.4,18.67,39.4-9.81,8.65-12.59,10.35c-3.87,2.38-17.32,5.43-17.32,5.43s-6.54-47.13-7.09-52S152.89,99.36,152.89,99.36Z" style="fill:#ECEFF1"></path><g style="opacity:0.1"><path d="M152.89,99.36s6.16,4.38,7.83,10.88,3,38.88,4.42,45.54,18.67,39.4,18.67,39.4-9.81,8.65-12.59,10.35c-3.87,2.38-17.32,5.43-17.32,5.43s-6.54-47.13-7.09-52S152.89,99.36,152.89,99.36Z"></path></g><path d="M121.38,291.65s-23,43.31-23,43.34C97,343.17,96,350.37,95.81,354.15c0,0,0,0,0,.06a5.77,5.77,0,0,0,.19,2.62.09.09,0,0,0,0,.06c2.16,2.05,67.25,14.69,69.67,14.37s1.69-7.24-.45-9.75S140.36,343,140.36,343L163,299.66Z" style="fill:#ad6359"></path><path d="M102.66,326.35,98.37,335C97,343.17,96,350.37,95.81,354.15c0,0,0,0,0,.06a11.15,11.15,0,0,0,.19,2.62.09.09,0,0,0,0,.06c2.16,2.05,67.25,14.69,69.67,14.37s1.69-7.24-.45-9.75S140.36,343,140.36,343l4.43-8.75Z" style="fill:#ebebeb"></path><path d="M145,344.05c-4.17-1.65-9.59-2-13.49.42-.15.1,0,.31.14.29a61.49,61.49,0,0,1,13.22-.16A.29.29,0,0,0,145,344.05Z" style="fill:#263238"></path><path d="M147.76,346.54c-4.17-1.65-9.58-2-13.48.42-.16.1,0,.31.13.29a62.24,62.24,0,0,1,13.23-.17A.28.28,0,0,0,147.76,346.54Z" style="fill:#263238"></path><path d="M150.51,349c-4.16-1.65-9.58-2-13.48.42-.15.09,0,.31.13.29a62.24,62.24,0,0,1,13.23-.17A.28.28,0,0,0,150.51,349Z" style="fill:#263238"></path><path d="M165.88,371.36c-2.43.32-67.59-12.38-69.76-14.44-.84-.77.46-10.37,2.36-21.93l.06-.36,42.34,7.76-.16.71s22.56,16,24.71,18.5S168.3,371,165.88,371.36Z" style="fill:#263238"></path><path d="M165.63,368.69c-10.93-2.41-55.25-11.11-66.24-12.66-.09,0-.1.05,0,.07,10.78,2.63,55.17,11,66.22,12.77C165.83,368.9,165.86,368.74,165.63,368.69Z" style="fill:#fff"></path><path d="M167.38,368.77c1.09.67.12,4.55-.78,4.71s-72-13.15-73.21-13.65.07-4.75,1.52-4.71S167.38,368.77,167.38,368.77Z" style="fill:#ECEFF1"></path><path d="M167.38,368.77c1.09.67.12,4.55-.78,4.71s-72-13.15-73.21-13.65.07-4.75,1.52-4.71S167.38,368.77,167.38,368.77Z" style="opacity:0.2"></path><path d="M112,344.27c-5.27-1.11-7,7.07-1.73,8.19S117.27,345.39,112,344.27Z" style="fill:#fff"></path><path d="M104.32,320.24l48.21,5.57s51.17-78.64,46-105.82c-2.83-15-53.68-38.44-53.68-38.44l-5.14-10.33H103.87S89.25,192.77,99.74,213c7.14,13.76,46.33,24.25,47.77,28.67C149.41,247.51,104.32,320.24,104.32,320.24Z" style="fill:#37474f"></path><path d="M110.57,313.92a37.74,37.74,0,0,1,3.83.16c1.42.07,2.83.13,4.25.24,2.72.21,5.44.49,8.15.81q8.21.94,16.38,2.16c3.1.48,6.19,1,9.28,1.53a.1.1,0,0,1,0,.19c-5.45-.45-10.88-1-16.32-1.57s-10.86-1.1-16.26-1.85c-1.55-.22-3.11-.42-4.65-.7s-3.14-.38-4.63-.78C110.48,314.08,110.46,313.93,110.57,313.92Z" style="fill:#263238"></path><path d="M148.39,313.19c4.26-6.51,27.18-47.93,30.61-54.9,1.72-3.49,3.37-7,4.87-10.58a95.32,95.32,0,0,0,4-10.9c1-3.68,2-7.55,1.19-11.21a15.79,15.79,0,0,0-2.18-5.17,26.6,26.6,0,0,0-1.64-2.34c-.62-.73-1.23-1.47-1.9-2.15-5.37-5.52-12.08-9.61-18.83-13.39s-13.87-7-20.92-10.3c-1.76-.84-3.52-1.67-5.26-2.56-.86-.45-1.72-.92-2.56-1.42a5.74,5.74,0,0,1-2.2-2,27.6,27.6,0,0,1-3.14-11.19,27.76,27.76,0,0,0,3.38,11,5.51,5.51,0,0,0,2.14,1.82c.84.48,1.71.91,2.58,1.34,1.75.84,3.52,1.63,5.3,2.43,7.1,3.18,14.23,6.34,21.11,10a107.76,107.76,0,0,1,10.07,6,57.91,57.91,0,0,1,9.11,7.45c.69.7,1.32,1.46,2,2.21a27.34,27.34,0,0,1,1.72,2.43,15.78,15.78,0,0,1,2.47,11.52c-.18,1-.32,2-.54,2.92s-.46,1.92-.74,2.86a96.7,96.7,0,0,1-4.06,11c-1.53,3.6-3.2,7.12-4.94,10.61C176.47,265.74,152.81,306.78,148.39,313.19Z" style="fill:#263238"></path><path d="M142.64,355.86S139,399.22,139,399.25c0,8.3.2,15.57.64,19.32a.13.13,0,0,0,0,.06,5.62,5.62,0,0,0,.62,2.56.1.1,0,0,0,0,.05c2.48,1.67,68.76,3.39,71.09,2.67s.47-7.42-2-9.54-27.61-14.13-27.61-14.13L185,356.9Z" style="fill:#ad6359"></path><path d="M139.7,390.38s-.75,8.84-.75,8.87c0,8.3.2,15.57.64,19.32a.13.13,0,0,0,0,.06,10.63,10.63,0,0,0,.62,2.56.1.1,0,0,0,0,.05c2.48,1.67,68.76,3.39,71.09,2.67s.47-7.42-2-9.54-27.61-14.13-27.61-14.13l.68-9Z" style="fill:#ebebeb"></path><path d="M186.16,400.08c-4.38-.9-9.78-.32-13.2,2.76-.13.12,0,.31.18.26a61.66,61.66,0,0,1,13-2.46A.28.28,0,0,0,186.16,400.08Z" style="fill:#263238"></path><path d="M189.31,402.05c-4.39-.9-9.79-.32-13.21,2.76-.13.12,0,.31.19.26a61.57,61.57,0,0,1,13-2.46A.28.28,0,0,0,189.31,402.05Z" style="fill:#263238"></path><path d="M192.45,404c-4.39-.9-9.78-.32-13.2,2.76-.13.12,0,.31.18.27a61.67,61.67,0,0,1,13-2.47A.28.28,0,0,0,192.45,404Z" style="fill:#263238"></path><path d="M211.47,423.34c-2.34.74-68.71-.43-71.21-2.08-1-.61-1.35-10.29-1.49-22v-.36l43,.27,0,.73s25,11.81,27.55,13.91S213.8,422.61,211.47,423.34Z" style="fill:#263238"></path><path d="M210.76,420.75c-11.18-.47-56.34-1.32-67.43-.94-.09,0-.09.07,0,.07,11.07.71,56.23,1.19,67.43,1.05C211,420.93,211,420.76,210.76,420.75Z" style="fill:#fff"></path><path d="M212.5,420.53c1.19.46.91,4.45.05,4.77s-73.24-.41-74.47-.7-.75-4.69.68-4.91S212.5,420.53,212.5,420.53Z" style="fill:#ECEFF1"></path><path d="M212.5,420.53c1.19.46.91,4.45.05,4.77s-73.24-.41-74.47-.7-.75-4.69.68-4.91S212.5,420.53,212.5,420.53Z" style="opacity:0.2"></path><path d="M153.7,406c-5.38-.18-5.66,8.18-.28,8.36S159.09,406.22,153.7,406Z" style="fill:#fff"></path><path d="M124.67,217.12s19.68,62,20,73.42c.31,9.71-8.45,95.45-8.45,95.45l48.32.3s4.79-87.71,4-97.84c-1.46-18.94-18.05-70.92-29.91-117.23H105s.47,24.25,11.5,41.79C116.48,213,121.47,215.32,124.67,217.12Z" style="fill:#37474f"></path><path d="M141.82,375.31c5.07-.19,10.32-.38,15.4-.33s10.07.06,15.1.27c2.85.11,5.69.16,8.54.38a.07.07,0,1,1,0,.13c-5.07.32-10.16.33-15.23.34s-10.07,0-15.1-.11c-2.85-.08-5.7-.17-8.55-.31C141.68,375.66,141.51,375.32,141.82,375.31Z" style="fill:#263238"></path><path d="M137,218.32a43.79,43.79,0,0,1-7.4-.67,71,71,0,0,1-7.16-2,57.53,57.53,0,0,0-7-1.15,24.67,24.67,0,0,1-6.89-2,.09.09,0,0,0-.08.16,43.85,43.85,0,0,0,6.6,2.86c2.36.74,4.83.85,7.22,1.43a60.22,60.22,0,0,0,7.38,1.7,26.9,26.9,0,0,0,7.39-.13C137.11,218.47,137.08,218.32,137,218.32Z" style="fill:#263238"></path><path d="M184.6,267.09c-1.85-6.39-3.6-12.8-5.34-19.22l-5.16-19.26L169,209.33q-1.25-4.83-2.59-9.62c-.9-3.2-1.71-6.43-2.9-9.53,2.67,6.11,4.44,12.55,6.37,18.91s3.59,12.81,5.33,19.22,3.33,12.88,4.89,19.34S183.22,260.59,184.6,267.09Z" style="fill:#263238"></path><path d="M124.67,217.12c4.45,13.63,8.74,27.31,12.74,41.08,2.88,10.39,6.18,20.67,7.72,31.38.12,3.63-.26,7.2-.48,10.81-1.1,14.3-2.45,28.57-3.86,42.84-1,10.63-3.33,32.14-4.54,42.76L140,343.16c1.41-17.83,3.59-35.65,4.16-53.5-1.46-10.58-4.79-20.92-7.5-31.25-3.86-13.8-7.9-27.56-12-41.29Z" style="fill:#263238"></path><path d="M151.27,175.1c.83,6.13.86,12.47,2.81,18.37l1.9,5.92c8.31,27.27,17.72,56,24.27,83.62.86,3.6.13,8.81.1,12.51-.63,14.49-2,35-2.93,49.66L175.69,370c.85-16.69,3-58.42,3.75-74.51,0-3.68.72-8.71-.14-12.28-6.6-27.54-15.83-56.37-23.78-83.67l-1.78-6c-1.85-5.93-1.76-12.32-2.47-18.47Z" style="fill:#263238"></path><path d="M97.78,170.65c.11.19,67.06,12.93,67.76,12.4.07-.05,2.67-1.72,2.86-6.84,0-1.41-2.29-7.25-2.68-11.68-1.36-15.52-3-44.4-8.44-59.57-1.46-4.07-10.8-8.14-15.48-4.73C120.7,115.59,97.64,170.4,97.78,170.65Z" style="fill:#ebebeb"></path><path d="M148.18,97.9s5.31,21.12,6.55,32c.31,2.74,3.16,37,6.27,56.7,1.19,7.56,2.16,22.85,2.16,22.85S114,202,106.6,197.76c-4.28-2.44-14.23-13.61-14.23-13.61s11.94-33.24,19.2-45.91,23.53-33.71,30.23-38C146.06,97.49,148.18,97.9,148.18,97.9Z" style="fill:#ECEFF1"></path><path d="M157,114.27c-3.77-.59-7.65-10.07-8.23-15.29,0-.36,1.21-2.18,3.12-5.8,1.15-2.19,2.38-4.67,3.33-7l13.22,9.57a40.38,40.38,0,0,0-5.1,8.4,5.62,5.62,0,0,0-.29,1,1.36,1.36,0,0,1,0,.17C162.6,107.25,160.69,114.84,157,114.27Z" style="fill:#ad6359"></path><path d="M161.62,107.48c.26.12.52.21.77.31.32-1.05.54-2,.66-2.48,0-.06,0-.13,0-.17a6.24,6.24,0,0,1,.29-1,40.48,40.48,0,0,1,5.1-8.39l-13.22-9.57c-.21.49-.41,1-.64,1.48C153.59,92.93,152.77,103.63,161.62,107.48Z" style="fill:#263238"></path><path d="M157.78,71.44c-3.25,4.9-5.05,21.3-2.26,25.92,4,6.68,13,9.88,19.27,4.48,6.07-5.24,8-26.66,4.7-31.09C174.57,64.22,162.58,64.21,157.78,71.44Z" style="fill:#ad6359"></path><path d="M170.17,85.92s-.09,0-.1.08c-.15,1.11-.51,2.34-1.57,2.53a0,0,0,0,0,0,.07C169.74,88.64,170.2,87,170.17,85.92Z" style="fill:#263238"></path><path d="M169.39,84.61c-1.73-.44-2.48,3.07-.87,3.48S170.85,85,169.39,84.61Z" style="fill:#263238"></path><path d="M176.42,87.31s.08.07.07.11c-.27,1.08-.39,2.36.51,2.93,0,0,0,.07,0,.06C175.82,90,176,88.29,176.42,87.31Z" style="fill:#263238"></path><path d="M177.64,86.38c1.77.24,1.16,3.78-.48,3.55S176.15,86.18,177.64,86.38Z" style="fill:#263238"></path><path d="M168.45,82.05a11.84,11.84,0,0,0,1.46-.15,2.36,2.36,0,0,0,1.47-.43.76.76,0,0,0,.1-.92,1.88,1.88,0,0,0-1.8-.64,2.79,2.79,0,0,0-1.83.78A.81.81,0,0,0,168.45,82.05Z" style="fill:#263238"></path><path d="M179.62,83.72c-.47-.19-.88-.44-1.32-.66a2.42,2.42,0,0,1-1.22-.93.76.76,0,0,1,.24-.9,1.85,1.85,0,0,1,1.9,0,2.77,2.77,0,0,1,1.44,1.38A.81.81,0,0,1,179.62,83.72Z" style="fill:#263238"></path><path d="M166.68,95.3c.21.31.4.71.78.83a3,3,0,0,0,1.23,0,0,0,0,0,1,0,.06,1.52,1.52,0,0,1-1.51.3,1.19,1.19,0,0,1-.65-1.15C166.57,95.26,166.65,95.25,166.68,95.3Z" style="fill:#263238"></path><path d="M168.52,92.29a3.78,3.78,0,0,0,2.12,2.17,5,5,0,0,0,1.32.35l.26,0h.25a.28.28,0,0,0,.27-.19h0a.41.41,0,0,0,0-.11h0l0-.1c.2-.83.39-2.12.39-2.12.28.22,1.69,1.25,1.76.81a57.47,57.47,0,0,0,1-11.51.1.1,0,0,0-.2,0c-.68,3.51-.73,7.11-1.35,10.63a7.06,7.06,0,0,0-1.64-.9c-.12,0-.32,2.5-.44,2.87l0,0a5.22,5.22,0,0,1-3.57-2C168.58,92.13,168.48,92.19,168.52,92.29Z" style="fill:#263238"></path><path d="M153.71,83.85c4.09,1.21,7.36-3.26,7.27-7.47,0,0,10.73,3.91,13.22-4.84a10.38,10.38,0,0,0,6.76,5.9l.13,3.2c1.2-.08,3-3,.84-6.16A10.81,10.81,0,0,0,180,66.64a6.18,6.18,0,0,0-6.3-2.35,9.35,9.35,0,0,0-6.3-3.12,8,8,0,0,0-6.68,3s-5.71-.17-7.51,3.52a8.24,8.24,0,0,0-.35,6.73s-1.72,1.23-1.75,4.7C151.12,81.32,152.48,83.49,153.71,83.85Z" style="fill:#263238"></path><path d="M174.13,70.7a11.3,11.3,0,0,1-.45,2.17,9,9,0,0,1-.87,2,5.7,5.7,0,0,1-3.26,2.61,9.18,9.18,0,0,1-4.3.13c-.72-.18-1.45-.31-2.15-.54s-1.4-.48-2.12-.7c.67.33,1.35.63,2,1s1.44.45,2.15.68a9.18,9.18,0,0,0,4.54,0,6,6,0,0,0,3.46-2.92A9,9,0,0,0,174.13,70.7Z" style="fill:#263238"></path><path d="M160.76,64.14a10.46,10.46,0,0,0-4.28,0,6.29,6.29,0,0,0-3.72,2.19,6.93,6.93,0,0,0-1,2,6.37,6.37,0,0,0-.37,2.16,5.82,5.82,0,0,0,1.49,4,6.46,6.46,0,0,1-1.09-4,7.08,7.08,0,0,1,1.37-3.81,5.2,5.2,0,0,1,1.5-1.34,7.92,7.92,0,0,1,1.9-.78A13.26,13.26,0,0,1,160.76,64.14Z" style="fill:#263238"></path><path d="M173.74,64.29a10.69,10.69,0,0,1,3.39.09,6,6,0,0,1,4.78,4.11,11.58,11.58,0,0,1,.65,3.33,8.63,8.63,0,0,0-.27-3.46,5.85,5.85,0,0,0-5.1-4.38A8.2,8.2,0,0,0,173.74,64.29Z" style="fill:#263238"></path><path d="M178.7,77.08a11.77,11.77,0,0,1-3-2.54,7,7,0,0,1-1-1.64,8.2,8.2,0,0,1-.56-1.88,4.64,4.64,0,0,0,.18,2,5.22,5.22,0,0,0,1,1.82,6.63,6.63,0,0,0,1.52,1.38A6.07,6.07,0,0,0,178.7,77.08Z" style="fill:#263238"></path><path d="M166.63,92.18a4.85,4.85,0,1,1,6-4.84h0a4.87,4.87,0,0,1-4.74,5A5.34,5.34,0,0,1,166.63,92.18Zm2-8.83a4,4,0,0,0-1-.1,4.18,4.18,0,1,0,1,.1Z" style="fill:#ECEFF1"></path><path d="M177.72,93.35c-1.81-.42-3-2.66-2.75-5.17a5.83,5.83,0,0,1,1.39-3.27,3,3,0,0,1,5.15.57,5.8,5.8,0,0,1,.65,3.49c-.3,2.66-2.15,4.65-4.13,4.43Zm1.55-8.92-.25,0a2.62,2.62,0,0,0-2.18,1,5.22,5.22,0,0,0-1.23,2.9c-.25,2.3.86,4.33,2.49,4.5s3.16-1.55,3.41-3.85a5.06,5.06,0,0,0-.57-3.1A2.7,2.7,0,0,0,179.27,84.43Z" style="fill:#ECEFF1"></path><path d="M172.36,87.88l-.36-.54c.8-.53,2.58-1.17,3.62.22l-.52.39C174.17,86.7,172.43,87.83,172.36,87.88Z" style="fill:#ECEFF1"></path><path d="M150.72,86.75l-.54-.36c.16-.25,1.68-2.46,3.14-2.54s9.93,1.7,10.3,1.78l-.14.63c-2.45-.51-9.07-1.81-10.12-1.76S151.12,86.14,150.72,86.75Z" style="fill:#ECEFF1"></path><path d="M157.38,85.63s-2.13-6-4.78-5.42-2,8.7.4,10.45a2.85,2.85,0,0,0,4.09-.46Z" style="fill:#ad6359"></path><path d="M152.84,82.52a0,0,0,0,0,0,.07c1.68,1.29,2.19,3.32,2.39,5.33a1.57,1.57,0,0,0-2.15-1,.06.06,0,0,0,0,.11,1.75,1.75,0,0,1,1.69,1.1,8.9,8.9,0,0,1,.48,1.75c0,.2.37.19.36,0v0C156.3,87.37,155.36,83.48,152.84,82.52Z" style="fill:#263238"></path><path d="M139.56,113.5c.86,19.41,8.76,53.86,13.35,59.07,4.06,4.61,25.31,11.4,37.36,14.79,3.93,1.1,11.27-28.57,7-29.52-5.79-1.3-26.92-7-27.76-8.07s-10.77-25.66-18.21-39.16C144.57,98.37,139.24,106.15,139.56,113.5Z" style="fill:#ad6359"></path><path d="M200.66,157.08c8.7.23,10.9,1.63,18.36-2.08,4.88-2.43,8.54-.35,5.21,4.25-5.44,7.53-16.73,9.59-20.85,9.18Z" style="fill:#ad6359"></path><circle cx="244.24" cy="173.42" r="32.81" transform="translate(-10.78 330.56) rotate(-67.02)" style="fill:#455a64"></circle><circle cx="245.75" cy="174.15" r="31.31" style="opacity:0.1"></circle><circle cx="245.75" cy="174.15" r="29.33" style="fill:#fff"></circle><path d="M274.41,167.93c-13.35,8.09-35.31,21.37-47.58,28.65a29.41,29.41,0,0,1-8-10.78l40.58-37.61A29.34,29.34,0,0,1,274.41,167.93Z" style="fill:#ebebeb;opacity:0.5"></path><path d="M275.06,175.18a29,29,0,0,1-1.94,9.53L236.53,202a29.08,29.08,0,0,1-4.62-2C243,193.64,263.16,182,275.06,175.18Z" style="fill:#ebebeb;opacity:0.5"></path><rect x="245.46" y="146.95" width="0.57" height="4.45" style="fill:#263238"></rect><rect x="232.97" y="150.3" width="0.57" height="4.45" transform="translate(-45.01 137.05) rotate(-30)" style="fill:#263238"></rect><rect x="223.83" y="159.44" width="0.57" height="4.45" transform="translate(-27.96 274.9) rotate(-60)" style="fill:#263238"></rect><rect x="218.54" y="173.87" width="4.45" height="0.57" style="fill:#263238"></rect><rect x="221.89" y="186.36" width="4.45" height="0.57" transform="translate(-63.3 137.07) rotate(-30)" style="fill:#263238"></rect><rect x="231.03" y="195.51" width="4.45" height="0.57" transform="translate(-52.85 300.13) rotate(-60.05)" style="fill:#263238"></rect><rect x="245.46" y="196.91" width="0.57" height="4.45" style="fill:#263238"></rect><rect x="257.95" y="193.57" width="0.57" height="4.45" transform="translate(-63.3 155.35) rotate(-30)" style="fill:#263238"></rect><rect x="267.1" y="184.42" width="0.57" height="4.45" transform="translate(-27.96 324.86) rotate(-60)" style="fill:#263238"></rect><rect x="268.5" y="173.87" width="4.45" height="0.57" style="fill:#263238"></rect><rect x="265.16" y="161.38" width="4.45" height="0.57" transform="matrix(0.87, -0.5, 0.5, 0.87, -45.01, 155.32)" style="fill:#263238"></rect><rect x="256.01" y="152.24" width="4.45" height="0.57" transform="translate(-2.88 300.05) rotate(-60.03)" style="fill:#263238"></rect><polygon points="246.17 148.96 247.14 176.13 244.35 176.1 245.42 148.95 246.17 148.96" style="fill:#ECEFF1"></polygon><polygon points="225.98 173.9 247.63 172.7 247.59 175.48 225.97 174.65 225.98 173.9" style="fill:#455a64"></polygon><path d="M246.69,174.15a.95.95,0,1,1-.94-1A.94.94,0,0,1,246.69,174.15Z" style="fill:#c7c7c7"></path><path d="M176.7,161.51s10.44-3.71,19.74-4.39c6.43-.46,20.54.09,31.49,15.92,2.6,3.75,3.64,11-2.83,6.35-4.6-3.26-6.53-6.72-9.55-8.13,0,0,.24,9.31-3.62,11.77a84.73,84.73,0,0,1-10.56,5.69,17.46,17.46,0,0,1-1.24-1.88s-3.82,2-10.14.28Z" style="fill:#ad6359"></path><path d="M202.65,157.66c2.7,2,8.35,6.44,11.72,11.65,3.74,5.79,9.39,17.95,5.09,20.67-3.16,2-5.72-2.46-5.72-2.46s1.27,5.52-2,6.69c-3,1.08-4.73-2.49-4.73-2.49s.2,3.48-2.85,4c-3.66.58-3.48-6.81-7.7-9.42C195.54,185.68,202.65,157.66,202.65,157.66Z" style="fill:#ad6359"></path><path d="M207.59,172.24a27.46,27.46,0,0,1,6.22,15.15c0,.14-.1.22-.13.1a67.5,67.5,0,0,0-6.14-15.21S207.57,172.22,207.59,172.24Z" style="fill:#263238"></path><path d="M201.86,176.19c1.71,2.21,5.22,9.17,5.3,15.49,0,.14-.11.22-.14.09a72.29,72.29,0,0,0-5.22-15.55S201.84,176.16,201.86,176.19Z" style="fill:#263238"></path><path d="M151,171.12c6.28,9,36.24,17.52,36.24,17.52l5.28-33.57s-22-5-22.72-6c-1.53-2.17-11.61-29.63-19.8-41.57-6.89-10-11.75-3-11,9.18C139.88,131.4,148.74,167.94,151,171.12Z" style="fill:#ECEFF1"></path><path d="M184.89,156.34c-.72,2.24-2.24,11.56-2.6,13.92s-1.43,11.82-1.69,14.18c0,.11.19.11.21,0,.45-2.36,4.24-25.75,4.2-28.09C185,156.3,184.91,156.28,184.89,156.34Z" style="fill:#263238"></path><path d="M139.33,122.26c3.39,14.84,6.54,32.63,11.19,47,.93,3.2,4.18,4.56,6.71,6.35,2.72,1.7,5.54,3.26,8.41,4.72s5.78,2.85,8.77,4.07a104.78,104.78,0,0,1-17.49-8.3c-2.65-1.73-6.1-3.34-7-6.6-3.19-9.17-5-18.73-7-28.2-1-4.71-2.73-14.28-3.53-19Z" style="fill:#263238"></path><path d="M138.89,123.65a36.1,36.1,0,0,0,1.48,3.91,7.13,7.13,0,0,1-1.48-3.91Z" style="fill:#263238"></path><path d="M156.14,118.41c4.33,8.65,9.2,20.37,13.26,29.22a11.64,11.64,0,0,0,.63,1.18c2.8,1.08,5.79,1.71,8.68,2.54L192.5,155h0v0l-.29,1.53.2-1.54,0,.05c-7.55-1.69-15.16-3.21-22.55-5.57a1.32,1.32,0,0,1-.76-.79c-4.74-9.94-8.68-20.23-13-30.34Z" style="fill:#263238"></path></g><g id="freepik--speech-bubble--inject-38"><path d="M241.74,53.14a26.17,26.17,0,0,1-41.78,21l-12.83,3.28,5.34-12a26.18,26.18,0,1,1,49.27-12.35Z" style="fill:#fff"></path><path d="M241.74,53.14c-.13,22.13-25.35,33.78-41.69,21.37l-12.81,3.35-.88.23.37-.83,5.3-12,0,.42C186,55,189,40.53,198.46,32.84c17.21-14.18,43.21-2,43.28,20.3Zm0,0c.08-16.73-16.3-29.52-32.48-25.1a25.88,25.88,0,0,0-16.37,37.23l.12.21-.1.21-5.38,11.93L187,77l12.85-3.19c17.5,12.66,41.45,1.16,41.87-20.68Z" style="fill:#263238"></path><polygon points="211.31 68.72 199.58 56.85 203.52 52.95 210.38 59.89 224.62 37.56 229.29 40.54 211.31 68.72" style="fill:#ECEFF1"></polygon></g></svg>
