<svg xmlns="http://www.w3.org/2000/svg" viewBox="0 0 500 500"><g id="freepik--background-complete--inject-528"><path d="M222.36,62.46c-.06.95.89,269.25.85,270.1h-.85a12.12,12.12,0,0,0-12.05,12.06v.87h-.87l-146.22.12h-1a12,12,0,0,0-11.92-12.9h-1v-1c.06-67.11.16-202.16.33-269.25v-.67h.66A12.26,12.26,0,0,0,59,58.22a12.44,12.44,0,0,0,3.61-9.3h.62c36.44.16,109.79.31,146.22.54.23,7.09,5.52,12.93,12.92,13Zm0,0c-7,.2-13.33-6.24-12.92-12.83-36.45.24-109.78.4-146.22.54l.62-.62A13.55,13.55,0,0,1,50.32,63.13l.67-.67c.18,67.11.28,202.16.33,269.25l-1-1a14,14,0,0,1,13.89,13.91l-1-1,146.22.12-.87.86a13.78,13.78,0,0,1,13.79-13.76c-2.23,5.28.66-269.53,0-268.4Z" style="fill:#ebebeb"></path><path d="M61.23,320.91c-.25-62.17-.74-186.34-.86-248.5a11.14,11.14,0,0,0,11.87-11v-.86h.87l126.49-.12h1v1a10.93,10.93,0,0,0,3.19,7.7,11.17,11.17,0,0,0,8.69,3.18v1c0,61.72-.17,185.94-.33,247.65v.67h-.66a11.3,11.3,0,0,0-11.25,11.22v.61h-.62c-31.57-.15-95-.31-126.57-.53a11.9,11.9,0,0,0-11.79-12Zm0,0a11.92,11.92,0,0,1,8.43,3.44c2.11,2.08,3.79,5.73,3.44,8.35,31.53-.23,95-.4,126.49-.53l-.61.62a12.58,12.58,0,0,1,12.48-12.55c-2.1-57.15-.3-186.6-1-247l1,1a12.94,12.94,0,0,1-12.85-12.88l1,1L73.1,62.25l.87-.87A12.74,12.74,0,0,1,61.23,74.11l.85-.85c-.11,61.72-.6,185.93-.85,247.65Z" style="fill:#ebebeb"></path><path d="M449.68,62.46c-.06.95.89,269.25.85,270.1h-.85a12.12,12.12,0,0,0-12.05,12.06v.87h-.87l-146.22.12h-1a12,12,0,0,0-11.92-12.9h-1v-1c.06-67.11.17-202.16.33-269.25v-.67h.66a12.26,12.26,0,0,0,8.67-3.57,12.44,12.44,0,0,0,3.61-9.3h.62c36.44.16,109.79.31,146.22.54.23,7.09,5.52,12.93,12.92,13Zm0,0c-7,.2-13.33-6.24-12.92-12.83-36.45.24-109.78.4-146.22.54l.62-.62a13.55,13.55,0,0,1-13.52,13.58l.67-.67c.18,67.11.28,202.16.33,269.25l-1-1a14,14,0,0,1,13.88,13.91l-1-1,146.22.12-.87.86a13.76,13.76,0,0,1,13.79-13.76c-2.23,5.28.66-269.53,0-268.4Z" style="fill:#ebebeb"></path><path d="M288.54,320.91c-.25-62.17-.73-186.34-.85-248.5a11.14,11.14,0,0,0,11.87-11v-.86h.87l126.49-.12h1v1a10.93,10.93,0,0,0,3.19,7.7,11.17,11.17,0,0,0,8.69,3.18v1c0,61.72-.17,185.94-.33,247.65v.67h-.67a11.3,11.3,0,0,0-11.24,11.22v.61h-.62c-31.57-.15-95-.31-126.57-.53a11.91,11.91,0,0,0-11.8-12Zm0,0a11.92,11.92,0,0,1,8.44,3.44c2.11,2.08,3.79,5.73,3.44,8.35,31.53-.23,95-.4,126.49-.53l-.61.62a12.57,12.57,0,0,1,12.47-12.55c-2.09-57.15-.29-186.6-1-247l1,1a12.93,12.93,0,0,1-12.84-12.88l1,1-126.49-.11.87-.87a12.74,12.74,0,0,1-12.75,12.73l.86-.85c-.11,61.72-.6,185.93-.86,247.65Z" style="fill:#ebebeb"></path><rect x="80.77" y="64.86" width="11.04" height="377.16" style="fill:#c7c7c7"></rect><path d="M91.82,59.34a5.53,5.53,0,0,1-11,0c0-3.05,5.52-23.45,5.52-23.45S91.82,56.29,91.82,59.34Z" style="fill:#c7c7c7"></path><polygon points="91.83 64.86 51.82 298.58 70.05 308.11 57.11 442.02 153.52 442.02 91.83 64.86" style="fill:#ebebeb"></polygon><polygon points="70.05 308.11 77.8 217.31 59.72 302.71 70.05 308.11" style="opacity:0.1"></polygon></g><g id="freepik--Table--inject-528"><path d="M44.45,441.79c131.69-.61,279.41-.62,411.1,0-131.69.61-279.41.61-411.1,0Z" style="fill:#263238"></path></g><g id="freepik--judge-gavel--inject-528"><rect x="318.72" y="456.97" width="112.78" height="14.14" style="fill:#ECEFF1"></rect><rect x="318.72" y="456.97" width="112.78" height="14.14" style="opacity:0.6000000000000001"></rect><rect x="325.02" y="452.93" width="100.18" height="4.03" style="fill:#ECEFF1"></rect><rect x="325.02" y="452.93" width="100.18" height="4.03" style="opacity:0.8"></rect></g><g id="freepik--Book--inject-528"><polygon points="48.13 447.34 122.07 454.38 122.07 470.62 48.13 463.58 48.13 447.34" style="fill:#ECEFF1"></polygon><polygon points="48.13 447.34 122.07 454.38 122.07 470.62 48.13 463.58 48.13 447.34" style="opacity:0.2"></polygon><rect x="122.07" y="454.38" width="102.25" height="16.24" transform="translate(346.39 925) rotate(180)" style="fill:#ECEFF1"></rect><rect x="118.88" y="454.38" width="3.19" height="16.24" transform="translate(240.95 925) rotate(180)" style="fill:#ECEFF1"></rect><rect x="122.07" y="456.06" width="102.25" height="12.87" transform="translate(346.39 925) rotate(180)" style="fill:#fff"></rect><path d="M217.05,466.29q-13.12.09-26.24.14l-16.25,0-26.25,0q-13.11,0-26.24-.14,13.13-.1,26.24-.14l26.25,0,16.25,0Q203.94,466.18,217.05,466.29Z" style="fill:#dbdbdb"></path><path d="M217.05,463.76q-13.12.11-26.24.14l-16.25,0-26.25,0q-13.11,0-26.24-.14,13.13-.11,26.24-.14l26.25,0,16.25,0Q203.94,463.67,217.05,463.76Z" style="fill:#dbdbdb"></path><path d="M217.05,461.24q-13.12.09-26.24.13l-16.25.05-26.25-.05q-13.11,0-26.24-.13,13.13-.11,26.24-.14l26.25,0,16.25,0Q203.94,461.13,217.05,461.24Z" style="fill:#dbdbdb"></path><path d="M217.05,458.71q-13.12.1-26.24.14l-16.25,0-26.25,0q-13.11,0-26.24-.14,13.13-.1,26.24-.14l26.25,0,16.25,0Q203.94,458.62,217.05,458.71Z" style="fill:#dbdbdb"></path><path d="M205.27,460.27v10.84l-10.21-5.39-10.21,5.39V460.27c0-.91-1.17-1.66-2.62-1.66h20.43C204.1,458.61,205.27,459.36,205.27,460.27Z" style="fill:#455a64"></path><polygon points="224.32 454.38 118.88 454.38 48.13 447.34 153.56 447.34 224.32 454.38" style="fill:#ECEFF1"></polygon><polygon points="224.32 454.38 118.88 454.38 48.13 447.34 153.56 447.34 224.32 454.38" style="opacity:0.1"></polygon></g><g id="freepik--Character--inject-528"><path d="M312.21,192.25H146a41,41,0,0,0-41,41l10,208.24H343.2l10-208.24A41,41,0,0,0,312.21,192.25Z" style="fill:#ECEFF1"></path><g style="opacity:0.5"><path d="M312.21,192.25H146a41,41,0,0,0-41,41l10,208.24H343.2l10-208.24A41,41,0,0,0,312.21,192.25Z"></path></g><path d="M315.79,192.25H169.61a41,41,0,0,0-41,41l10,208.24H346.78l10-208.24A41,41,0,0,0,315.79,192.25Z" style="fill:#ECEFF1"></path><g style="opacity:0.4"><path d="M315.79,192.25H169.61a41,41,0,0,0-41,41l10,208.24H346.78l10-208.24A41,41,0,0,0,315.79,192.25Z"></path></g><path d="M291.84,234.9C353,291.14,398.1,359.34,394.47,376.13c-6.78,31.24-48.15,36.69-54.24,29.74-24.64-28.13-50-82-77.45-142.15-21.45-47-6.17-48.66,12.93-35C278.44,230.68,289.33,232.58,291.84,234.9Z" style="fill:#263238"></path><path d="M394.46,376.13c-6.77,31.24-48.14,36.69-54.23,29.74-24.64-28.12-50-82-77.45-142.15-10.38-22.77-12.66-36.89-8.15-40.9L394.08,369.87A14.46,14.46,0,0,1,394.46,376.13Z" style="opacity:0.1"></path><path d="M289.78,235.67c-5.22,6.27-10.79,12.79-13.52,20.5-2.5,7.9-3.42,16.18-4.74,24.37a73.22,73.22,0,0,1,2.86-25c2.92-8,9-14.51,15.4-19.86Z" style="fill:#455a64"></path><path d="M281.8,244.56c3.53.5,7,1.09,10.17,2.82a46.55,46.55,0,0,1,8.49,10.33,49.16,49.16,0,0,1-4.54-3.78c-1.76-1.6-3.45-3.39-5.15-5-2.84-1.62-6.11-2.67-9-4.39Z" style="fill:#455a64"></path><path d="M279.6,247.58c2.42,1.44,4.27,3.53,6.54,5a15.1,15.1,0,0,1,4.66,3.79,35.61,35.61,0,0,1-5.48-2,13.27,13.27,0,0,1-5.72-6.78Z" style="fill:#455a64"></path><path d="M273.57,262.72c3.14,3.08,4.94,7,6.65,11-2.05-1-3.38-2.92-4.51-4.8a16.14,16.14,0,0,1-2.14-6.19Z" style="fill:#455a64"></path><path d="M278.58,249.15s8.16,13.4,12.13,15.79,13.76,11,15.48,8.15-8-16.22-11.58-19.21-14-7.74-14-7.74Z" style="fill:#455a64;opacity:0.1"></path><path d="M349.47,398.62c-12.71-16.4-8.43-50.54.44-132.34,1.23-11.32,86.42-16.55,85.73-4.39-.87,15.31-13,76.26-16.48,85.31C402,391.49,358.09,409.75,349.47,398.62Z" style="fill:#f7a9a0"></path><path d="M438.66,230.1c2,16.45-7.1,51.69-12.56,59.34s-65.88-5.8-70-14.53-6.52-64.64,2.39-79S436.6,213.06,438.66,230.1Z" style="fill:#f7a9a0"></path><path d="M349.25,220.75c8.1,3.4,10.46-3.42,10.46-3.42S356,234,364.37,238.93c8,4.76,13.7-7.94,14.12-8.84-.19.88-3.17,16.25,5.72,20.38,9.24,4.28,12.73-9.44,13-10.33.09.89,1.41,12.61,8.87,14.21,12.84,2.74,10.29-27.31,17.48-35.14,0,0,14.66,10.67,15.15,10.89,0,0-1.84-28.64-12.93-37.75-5.85-4.8-11.48-.29-11.48-.29s.43-9.3-6.47-12.77c-3.55-1.78-9.54,2.32-9.54,2.32s0-7.46-6.29-10.17c-5.05-2.18-10.27,2.27-10.27,2.27s7.81-37.25-1.73-40.43c-16.41-5.48-28.64,75.13-35.47,78.55C341.09,213.53,345.72,219.28,349.25,220.75Z" style="fill:#f7a9a0"></path><path d="M380.75,174.28a.12.12,0,0,0-.19-.16c-10.86,11.67-19.22,27.82-21.18,43.74-.07.52,1,2.71,1.14,2.13C363.24,205.49,371.33,188.33,380.75,174.28Z" style="fill:#263238"></path><path d="M398.27,181.36c.11-.16-.14-.33-.28-.18-11.12,12.08-20,30.53-20.14,49.14,0,.64.64,1.22.7.48C379.55,218.43,389.73,194,398.27,181.36Z" style="fill:#263238"></path><path d="M397.6,241.44c.79-17.84,7.22-33.64,16.15-48.91.12-.2-.17-.34-.32-.2-6.4,6.28-11.08,16.61-14,24.95A47.12,47.12,0,0,0,397,241.42C397,241.74,397.59,241.82,397.6,241.44Z" style="fill:#263238"></path><path d="M359.45,217.47c-.08.63,1.59-.38,1.53.25-.56,6.84-1,19.13,4.48,20.85,4.38,1.37,9.26-3.57,10.39-6.2l2.84-6.61-.37,7.2a29.4,29.4,0,0,0,1,9.49c.85,3,2.51,5.77,5.08,7a6,6,0,0,0,7.46-1.3,18.08,18.08,0,0,0,3.92-8.23l1.91-8.31.91,8.44a27.75,27.75,0,0,0,1.64,6.87,11.36,11.36,0,0,0,3.8,5.37,5.43,5.43,0,0,0,5.7.37c1.77-1.05,3-3.2,4-5.35,2-4.41,3.08-9.31,4.39-14.12.64-2.41,1.28-4.83,2-7.23s1.6-4.85,3.32-6.71c-1.51,2-2,4.52-2.65,6.9s-1,4.86-1.47,7.32a80.25,80.25,0,0,1-3.73,14.66c-1,2.34-2.18,4.86-4.65,6.56a7.7,7.7,0,0,1-8.43-.21,14,14,0,0,1-4.9-6.54,30.21,30.21,0,0,1-1.93-7.63l2.81.13a20.82,20.82,0,0,1-4.54,9.78,8.65,8.65,0,0,1-5.17,2.83,9.86,9.86,0,0,1-5.75-1c-3.6-1.78-5.52-5.44-6.43-8.8a32.12,32.12,0,0,1-.91-10.46l2.47.59c-1.55,3.29-6.4,9.4-13.45,8.13C355.82,238.43,358.69,220.68,359.45,217.47Z" style="fill:#263238"></path><path d="M356.12,274.91S328,238.74,329,223.28s31.34-31.75,43.33-35.92c16.55-5.77,19,6.68,13.54,14.41-6.33,9-19.89,18.68-20.82,19.37,0,0,24.22,11.62,26.3,31.07S356.12,274.91,356.12,274.91Z" style="fill:#f7a9a0"></path><path d="M350.21,198.65a116.86,116.86,0,0,1,18.06-10.32c4.82-2.11,10.22-4.37,15.54-2.66a8.37,8.37,0,0,1,5.71,9c-.43,4.6-3.24,8.45-6.09,11.87a75.4,75.4,0,0,1-9.31,9.26,62.6,62.6,0,0,1-8.59,6.11l-.13-1.61c12.15,5.22,22.13,15.82,25.44,28.72-4.39-12.84-15.1-23.1-27.76-27.71a66.72,66.72,0,0,0,9.8-7,76.42,76.42,0,0,0,9-9.06,31.67,31.67,0,0,0,4.32-6.16c2.25-4.15,2.23-10.13-3-11.82-4.85-1.65-9.85.41-14.51,2.16a149.23,149.23,0,0,0-18.53,9.2Z" style="fill:#263238"></path><path d="M456.74,318.64l-111.4-20.11S324.59,388.18,338,403.8c6,7,25.78,26.35,41.49,21,21.84-7.49,54.87-36.13,61.54-58.35C444.6,354.37,456.74,318.64,456.74,318.64Z" style="fill:#263238"></path><path d="M354,321.63c10.46,2.53,21,4.5,31.6,6.44s21.16,3.91,31.79,5.59c6,.95,12,1.93,18,2.67.16,0,.23-.24.07-.28-10.44-2.53-21-4.55-31.56-6.56s-21.17-3.91-31.78-5.72c-6-1-12-1.93-18-2.67C353.79,321.06,353.66,321.55,354,321.63Z" style="fill:#455a64"></path><path d="M344.47,297.39a.68.68,0,0,0-.45.52c-1.4,5.83-2.3,11.83-3.19,17.75s-1.63,11.72-2.3,17.6c-.35,3.16-.65,6.33-.85,9.5a33.76,33.76,0,0,0-2.8,12.39c0,.21.37.23.38,0A42.49,42.49,0,0,1,337.61,344a77.52,77.52,0,0,0,1.8,23.1s.08,0,.07,0c-2.53-11.31-.27-23.36,1-34.69.65-5.67,1.43-11.33,2.24-17s1.84-11.25,2.58-16.9C346.62,298,346,297,344.47,297.39Z" style="fill:#455a64"></path><path d="M297.65,116.58V130.9H251.73c-3.25,0-5.18-3.2-5.18-7.16s1.93-7.16,5.18-7.16Z" style="fill:#c7c7c7"></path><path d="M297.64,129.53v1.36H251.73c-3.26,0-5.19-3.2-5.19-7.16a9.19,9.19,0,0,1,.76-3.91,10.5,10.5,0,0,0,10.08,9.37C263.66,129.63,297.64,129.53,297.64,129.53Z" style="opacity:0.1"></path><path d="M302.66,123.75c0,4-2.24,7.16-5,7.16s-5-3.2-5-7.16,2.24-7.16,5-7.16S302.66,119.79,302.66,123.75Z" style="fill:#dbdbdb"></path><path d="M294.42,102.25v14.32h-40.2c-3.26,0-5.19-3.2-5.19-7.16s1.93-7.16,5.19-7.16Z" style="fill:#c7c7c7"></path><path d="M294.42,115.2v1.37H254.21c-3.25,0-5.18-3.2-5.18-7.16a9.28,9.28,0,0,1,.75-3.91,10.5,10.5,0,0,0,10.08,9.36C266.15,115.31,294.42,115.2,294.42,115.2Z" style="opacity:0.1"></path><path d="M299.43,109.42c0,4-2.24,7.17-5,7.17s-5-3.21-5-7.17,2.24-7.16,5-7.16S299.43,105.46,299.43,109.42Z" style="fill:#dbdbdb"></path><path d="M296.92,130.91v14.32H249.24c-3.26,0-5.18-3.2-5.18-7.16s1.92-7.16,5.18-7.16Z" style="fill:#c7c7c7"></path><path d="M296.92,143.86v1.37H249.23c-3.25,0-5.18-3.2-5.18-7.16a9.28,9.28,0,0,1,.75-3.91,10.51,10.51,0,0,0,10.09,9.36C261.17,144,296.92,143.86,296.92,143.86Z" style="opacity:0.1"></path><path d="M301.94,138.08c0,4-2.25,7.17-5,7.17s-5-3.21-5-7.17,2.25-7.16,5-7.16S301.94,134.13,301.94,138.08Z" style="fill:#dbdbdb"></path><path d="M296.92,145.23v14.32H248.15c-3.25,0-5.18-3.2-5.18-7.16s1.93-7.16,5.18-7.16Z" style="fill:#c7c7c7"></path><path d="M296.92,158.18v1.36H248.15c-3.26,0-5.18-3.2-5.18-7.16a9.34,9.34,0,0,1,.75-3.91,10.5,10.5,0,0,0,10.08,9.37C260.08,158.28,296.92,158.18,296.92,158.18Z" style="opacity:0.1"></path><path d="M301.93,152.4c0,3.95-2.24,7.16-5,7.16s-5-3.21-5-7.16,2.24-7.17,5-7.17S301.93,148.44,301.93,152.4Z" style="fill:#dbdbdb"></path><path d="M296.92,159.56v14.32H248.15c-3.25,0-5.18-3.2-5.18-7.16s1.93-7.16,5.18-7.16Z" style="fill:#c7c7c7"></path><path d="M296.92,172.51v1.37H248.15c-3.26,0-5.18-3.2-5.18-7.16a9.28,9.28,0,0,1,.75-3.91,10.5,10.5,0,0,0,10.08,9.36C260.08,172.62,296.92,172.51,296.92,172.51Z" style="opacity:0.1"></path><path d="M301.83,166.73c0,4-2.25,7.17-5,7.17s-5-3.21-5-7.17,2.25-7.16,5-7.16S301.83,162.78,301.83,166.73Z" style="fill:#dbdbdb"></path><path d="M296.92,173.88V188.2H248.15c-3.25,0-5.18-3.2-5.18-7.16s1.93-7.16,5.18-7.16Z" style="fill:#c7c7c7"></path><path d="M296.92,186.83v1.36H248.15c-3.26,0-5.18-3.2-5.18-7.16a9.34,9.34,0,0,1,.75-3.91,10.5,10.5,0,0,0,10.08,9.37C260.08,186.93,296.92,186.83,296.92,186.83Z" style="opacity:0.1"></path><path d="M301.79,181.05c0,3.95-2.25,7.16-5,7.16s-5-3.21-5-7.16,2.25-7.17,5-7.17S301.79,177.09,301.79,181.05Z" style="fill:#dbdbdb"></path><path d="M297.48,188.21v14.32H248.71c-3.26,0-5.18-3.2-5.18-7.16s1.92-7.16,5.18-7.16Z" style="fill:#c7c7c7"></path><path d="M297.47,201.16v1.37H248.7c-3.25,0-5.18-3.2-5.18-7.17a9.27,9.27,0,0,1,.75-3.9,10.51,10.51,0,0,0,10.09,9.36C260.64,201.27,297.47,201.16,297.47,201.16Z" style="opacity:0.1"></path><path d="M302.28,195.38c0,4-2.24,7.16-5,7.16s-5-3.2-5-7.16,2.24-7.16,5-7.16S302.28,191.42,302.28,195.38Z" style="fill:#dbdbdb"></path><path d="M298.81,202.54v14.33H250c-3.26,0-5.19-3.2-5.19-7.17s1.93-7.16,5.19-7.16Z" style="fill:#c7c7c7"></path><path d="M298.8,215.5v1.36H250c-3.25,0-5.18-3.2-5.18-7.16a9.34,9.34,0,0,1,.75-3.91,10.51,10.51,0,0,0,10.09,9.36C262,215.6,298.8,215.5,298.8,215.5Z" style="opacity:0.1"></path><path d="M303.61,209.71c0,4-2.24,7.17-5,7.17s-5-3.21-5-7.17,2.24-7.16,5-7.16S303.61,205.76,303.61,209.71Z" style="fill:#dbdbdb"></path><path d="M302.59,216.88V231.2H253.82c-3.26,0-5.18-3.2-5.18-7.16s1.92-7.16,5.18-7.16Z" style="fill:#c7c7c7"></path><path d="M302.59,229.83v1.36H253.81c-3.25,0-5.18-3.2-5.18-7.16a9.34,9.34,0,0,1,.75-3.91,10.51,10.51,0,0,0,10.09,9.37C265.75,229.93,302.59,229.83,302.59,229.83Z" style="opacity:0.1"></path><path d="M307.39,224.05c0,3.95-2.24,7.16-5,7.16s-5-3.21-5-7.16,2.24-7.17,5-7.17S307.39,220.09,307.39,224.05Z" style="fill:#dbdbdb"></path><path d="M309.77,231.21v14.32H261c-3.25,0-5.18-3.2-5.18-7.16s1.93-7.16,5.18-7.16Z" style="fill:#c7c7c7"></path><path d="M309.77,244.16v1.37H261c-3.26,0-5.19-3.2-5.19-7.16a9.13,9.13,0,0,1,.76-3.91,10.5,10.5,0,0,0,10.08,9.36C272.93,244.27,309.77,244.16,309.77,244.16Z" style="opacity:0.1"></path><path d="M314.58,238.38c0,4-2.25,7.17-5,7.17s-5-3.21-5-7.17,2.25-7.16,5-7.16S314.58,234.43,314.58,238.38Z" style="fill:#dbdbdb"></path><path d="M353.19,441.44S328.49,326.38,318.92,299c-11.59-33.14-26.45-59-49.05-75.67-26.6-19.63-52.12-1.56-62.05,11.9-19.88,26.94-54,89.23-68.34,206.23Z" style="fill:#263238"></path><path d="M183.24,282.41c26.43-2.53,53.63-4.59,80.19-5.47,16.11.14,32.14,1.55,48.15,3.18-11.39-.33-37.14-1.53-48.13-1.33-26.29,1.2-53.9,3.06-80.21,3.62Z" style="fill:#455a64"></path><path d="M207.5,280.92c-3.17,22.34-7.08,44.63-10.87,66.88-1.39,7.41-1.73,14.83-2.24,22.35-.63,10-1.28,20-2,30.05,0-15.09.15-30.14,1.27-45.21,3.55-24.86,8.55-49.54,13.86-74.07Z" style="fill:#455a64"></path><path d="M213.78,280.92c-.51,12.76-2,25.44-3,38.15-.51,7.64-.4,15.26-1.11,22.91a221.34,221.34,0,0,1-.78-23,304.07,304.07,0,0,1,4.93-38Z" style="fill:#455a64"></path><path d="M295.89,279c5.7,9.53,11.14,19.43,13.94,30.26.79,5,.55,10.18.45,15.25-.18,5.38-.53,10.74-1.14,16.08-.22-5.37-.31-10.73-.42-16.08-.26-5.21.06-10.76-1.08-15.79-2.82-10.26-7.68-19.88-11.75-29.72Z" style="fill:#455a64"></path><path d="M291.53,279a122.16,122.16,0,0,1,8,24.12,93.69,93.69,0,0,1,.22,15.26c-.91-5-1.34-10-2.1-15-1.9-8.11-4.65-16.14-6.14-24.4Z" style="fill:#455a64"></path><path d="M187.82,236.39c-54.09,51.39-123.6,160.94-112,184C88.63,446,164,374,163.84,369.61c-.11-3.29,27.75-70.3,48.81-119S201.2,223.68,187.82,236.39Z" style="fill:#f7a9a0"></path><path d="M164.33,369.71c2.46-7.18,40.27-95.51,51.17-123.47,9.78-25.1,6.6-33.79-16.21-20.62-2.75,1.59-17.45,5.72-22,10.08-27.88,26.61-97.59,104-113.34,149.43-15.17,43.81,21.4,48.62,52.13,29.19C141.21,398.42,164.33,369.71,164.33,369.71Z" style="fill:#263238"></path><path d="M159.49,381.13Q178.35,330.64,201,281.7q-18.84,50.49-41.52,99.43Z" style="fill:#455a64"></path><path d="M193.32,301.08a62.46,62.46,0,0,1,8.06-11.64,40.27,40.27,0,0,1-8.06,11.64Z" style="fill:#455a64"></path><path d="M188.55,242.64a19,19,0,0,0-9.26,4c-4,3.43-12.64,16.71-10.25,20.14s5.85-1.82,9.76-5.66,12.09-15.55,12.09-15.55Z" style="fill:#455a64;opacity:0.1"></path><path d="M195.88,255.71a5.53,5.53,0,0,0-2.7,1.16c-1.17,1-3.68,4.86-3,5.86s2.46.22,3.6-.9,2.76-5.28,2.76-5.28Z" style="fill:#455a64;opacity:0.1"></path><path d="M180.12,234.16c6.71,5,13.07,11.22,16.4,19.06A73.68,73.68,0,0,1,200.65,278c-1.74-8.11-3.08-16.32-6-24.09-3.12-7.56-9-13.79-14.55-19.79Z" style="fill:#455a64"></path><path d="M188.55,242.64c-2.77,1.87-6,3.08-8.74,4.84-1.62,1.68-3.21,3.55-4.89,5.23a47.25,47.25,0,0,1-4.33,4A46.41,46.41,0,0,1,178.53,246c3.08-1.89,6.52-2.66,10-3.34Z" style="fill:#455a64"></path><path d="M190.89,245.55a13.25,13.25,0,0,1-5.35,7.06,37.24,37.24,0,0,1-5.38,2.31,16.25,16.25,0,0,1,4.75-4.22c2-1.62,3.76-3.65,6-5.15Z" style="fill:#455a64"></path><path d="M197.7,260.35a16.31,16.31,0,0,1-1.83,6.3c-1,1.93-2.26,3.92-4.26,5,1.51-4.08,3.1-8.07,6.09-11.32Z" style="fill:#455a64"></path><path d="M208.26,221.15l55.23,56,10.61-49.31s-14.39-13-32.93-13C225.07,214.87,208.26,221.15,208.26,221.15Z" style="fill:#ebebeb"></path><path d="M282.8,277s29.35,47.83,28.49,52.39S307.78,339.9,301,340c-2.83.06-10.86,1.09-12.79,1.89s-10.63,7.88-14.62,8.43-10.88-3.16-14.13-3.32-10.54,5.38-14.73,5.79-9.18-6.18-12-6.86-10,3.82-15.59-2,14.21-60.71,14.21-60.71Z" style="fill:#ebebeb"></path><path d="M283.8,311.92a149.54,149.54,0,0,1-10-33.62,149.39,149.39,0,0,1,10,33.62Z" style="fill:#c7c7c7"></path><path d="M289.67,331.66a20,20,0,0,1-3.61-12.12,19.88,19.88,0,0,1,3.61,12.12Z" style="fill:#c7c7c7"></path><path d="M273.22,343a371.62,371.62,0,0,1-10.56-54.33A371.87,371.87,0,0,1,273.22,343Z" style="fill:#c7c7c7"></path><path d="M244.77,305.91a72.19,72.19,0,0,1,.35-24.36,72.45,72.45,0,0,1-.35,24.36Z" style="fill:#c7c7c7"></path><path d="M244.19,346.91a145,145,0,0,1,.49-34.59,145.56,145.56,0,0,1-.49,34.59Z" style="fill:#c7c7c7"></path><path d="M235.14,301.59A129.43,129.43,0,0,1,230,333.82a129.82,129.82,0,0,1,5.12-32.23Z" style="fill:#c7c7c7"></path><path d="M292.2,292.63c-3.33,1.91-7.43.8-9,1.58-2.06,1-4.78,7-8.1,7.44s-10-2.6-12.47-1.9-7.21,4.8-10.41,5.08-11.21-3.69-12.85-4-8.07.33-10.28.79a7.5,7.5,0,0,1-3.86-.16c3.27-10.25,6.17-18.28,6.17-18.28L282.8,277S287,283.85,292.2,292.63Z" style="opacity:0.1"></path><path d="M231.2,249.87s-9.87,37.81-8.54,40.87,4.13,6.8,8.87,5.82a45.69,45.69,0,0,1,9.25-.72c1.47.25,8.69,3.83,11.56,3.58s7.11-3.94,9.37-4.57,8.23,2.09,11.22,1.71,5.44-5.79,7.29-6.7,7.59,1.08,10.58-3.91S273,245.55,273,245.55Z" style="fill:#ebebeb"></path><path d="M239.12,274.15A77.17,77.17,0,0,1,240.78,249a77.71,77.71,0,0,1-1.66,25.12Z" style="fill:#c7c7c7"></path><path d="M238.14,288.89a10.54,10.54,0,0,1,.6-9.05,10.54,10.54,0,0,1-.6,9.05Z" style="fill:#c7c7c7"></path><path d="M251.46,294.21a190.78,190.78,0,0,1-1.25-39.68,192.17,192.17,0,0,1,1.25,39.68Z" style="fill:#c7c7c7"></path><path d="M265.47,263.74a37.62,37.62,0,0,1-4.12-17,37.59,37.59,0,0,1,4.12,17Z" style="fill:#c7c7c7"></path><path d="M272.39,292.33a75.22,75.22,0,0,1-5.84-24.12,75.29,75.29,0,0,1,5.84,24.12Z" style="fill:#c7c7c7"></path><path d="M271.52,259.18a67.06,67.06,0,0,1,8.7,21.74,66.75,66.75,0,0,1-8.7-21.74Z" style="fill:#c7c7c7"></path><path d="M259.62,250.69c-3.72,1.39-31.81-4.49-41.76-19.44-.67-1,0-12.52.15-26.51.06-8.49-.08-18-.82-26.57l55.2,8.46s-3.75,18.53-2.36,33.55a19.67,19.67,0,0,0,.68,3.51c0,.16.1.35.13.58C272.51,230.89,267.08,247.9,259.62,250.69Z" style="fill:#f7a9a0"></path><path d="M217.19,178.18c.33,3.9.55,8,.67,12,10.59,23.29,43.82,24.42,51.89,24.35a150.22,150.22,0,0,1,2.64-27.94Z" style="fill:#263238"></path><path d="M204.33,102.53c-6.54,19,1.69,74.94,14.94,87.8,19.2,18.65,51.61,21.49,67.69-1.81,15.6-22.59,3.59-95.27-11.3-107C253.73,64.1,214,74.43,204.33,102.53Z" style="fill:#f7a9a0"></path><path d="M214.63,148.22s-12.3-18.16-20.52-13.79S195,165,204.47,168.69s13.13-5.05,13.13-5.05Z" style="fill:#f7a9a0"></path><path d="M196.89,141.87a.13.13,0,0,0,0,.25c6.67,2.82,10.11,9.1,12.49,15.59-2-2.51-4.65-3.91-8-1.59-.17.13,0,.4.18.37,2.76-.55,4.74-.05,6.56,2.18a29.51,29.51,0,0,1,3.08,5.38c.3.61,1.39.3,1.17-.39a1,1,0,0,0-.05-.16C212.55,154.94,206.07,142.86,196.89,141.87Z" style="fill:#263238"></path><path d="M204.16,151.26s-12.21-27.11-10.75-47.2S214.05,73.7,218.55,72s19.14-2,19.14-2,10.59-4.81,18.18-3.5,20.92,10.7,25.84,19.66,7.45,25.28,7.45,25.28-3-10.73-11.47-17.12c-8.1-6.12-43.07-1.6-56.61,17-10.67,14.69-9.76,43.76-9.76,43.76Z" style="fill:#dbdbdb"></path><path d="M237.69,70c6.56,4.25,14.71,13.47,16.38,21.24a2.89,2.89,0,0,1-.24,1.79,3.07,3.07,0,0,0,0-1.75c-1.28-4-3.95-7.36-6.41-10.69A76.73,76.73,0,0,0,237.69,70Z" style="fill:#c7c7c7"></path><path d="M221.64,116.62v14.32H183.73c-3.26,0-5.18-3.2-5.18-7.16s1.92-7.16,5.18-7.16Z" style="fill:#c7c7c7"></path><path d="M221.64,129.57v1.36H183.72c-3.25,0-5.18-3.19-5.18-7.15a9.28,9.28,0,0,1,.75-3.91,10.5,10.5,0,0,0,10.08,9.36C195.65,129.68,221.64,129.57,221.64,129.57Z" style="opacity:0.1"></path><path d="M226.65,123.79c0,4-2.24,7.16-5,7.16s-5-3.2-5-7.16,2.25-7.16,5-7.16S226.65,119.84,226.65,123.79Z" style="fill:#dbdbdb"></path><path d="M222.72,102.24v14.32H188.56c-3.26,0-5.18-3.2-5.18-7.16s1.92-7.16,5.18-7.16Z" style="fill:#c7c7c7"></path><path d="M222.71,115.19v1.36H188.55c-3.25,0-5.18-3.19-5.18-7.15a9.28,9.28,0,0,1,.75-3.91,10.5,10.5,0,0,0,10.08,9.36C200.48,115.3,222.71,115.19,222.71,115.19Z" style="opacity:0.1"></path><path d="M227.73,109.41c0,4-2.25,7.16-5,7.16s-5-3.2-5-7.16,2.24-7.16,5-7.16S227.73,105.46,227.73,109.41Z" style="fill:#dbdbdb"></path><path d="M220.92,131v14.32H181.23c-3.25,0-5.18-3.2-5.18-7.16S178,131,181.23,131Z" style="fill:#c7c7c7"></path><path d="M220.91,143.9v1.36H181.23c-3.26,0-5.18-3.2-5.18-7.15a9.28,9.28,0,0,1,.75-3.91,10.5,10.5,0,0,0,10.08,9.36C193.16,144,220.91,143.9,220.91,143.9Z" style="opacity:0.1"></path><path d="M225.93,138.12c0,4-2.24,7.16-5,7.16s-5-3.2-5-7.16,2.24-7.16,5-7.16S225.93,134.17,225.93,138.12Z" style="fill:#dbdbdb"></path><path d="M220.92,145.26v14.32H180.15c-3.26,0-5.18-3.2-5.18-7.16s1.92-7.16,5.18-7.16Z" style="fill:#c7c7c7"></path><path d="M220.91,158.21v1.36H180.14c-3.25,0-5.18-3.2-5.18-7.16a9.27,9.27,0,0,1,.75-3.9,10.5,10.5,0,0,0,10.08,9.36C192.07,158.31,220.91,158.21,220.91,158.21Z" style="opacity:0.1"></path><path d="M225.92,152.43c0,4-2.24,7.16-5,7.16s-5-3.2-5-7.16,2.24-7.16,5-7.16S225.92,148.48,225.92,152.43Z" style="fill:#dbdbdb"></path><path d="M220.92,159.59v14.32H180.15c-3.26,0-5.18-3.2-5.18-7.16s1.92-7.16,5.18-7.16Z" style="fill:#c7c7c7"></path><path d="M220.91,172.54v1.36H180.14c-3.25,0-5.18-3.2-5.18-7.16a9.27,9.27,0,0,1,.75-3.9,10.5,10.5,0,0,0,10.08,9.36C192.07,172.64,220.91,172.54,220.91,172.54Z" style="opacity:0.1"></path><path d="M225.82,166.76c0,4-2.24,7.16-5,7.16s-5-3.21-5-7.16,2.24-7.16,5-7.16S225.82,162.8,225.82,166.76Z" style="fill:#dbdbdb"></path><path d="M220.92,173.9v14.32H180.15c-3.26,0-5.18-3.2-5.18-7.16s1.92-7.16,5.18-7.16Z" style="fill:#c7c7c7"></path><path d="M220.91,186.85v1.36H180.14c-3.25,0-5.18-3.2-5.18-7.16a9.27,9.27,0,0,1,.75-3.9,10.5,10.5,0,0,0,10.08,9.36C192.07,187,220.91,186.85,220.91,186.85Z" style="opacity:0.1"></path><path d="M225.78,181.07c0,4-2.24,7.16-5,7.16s-5-3.21-5-7.16,2.24-7.16,5-7.16S225.78,177.11,225.78,181.07Z" style="fill:#dbdbdb"></path><path d="M219,188.24v14.31H178.27c-3.25,0-5.18-3.2-5.18-7.15s1.93-7.16,5.18-7.16Z" style="fill:#c7c7c7"></path><path d="M219,201.18v1.37H178.27c-3.26,0-5.18-3.2-5.18-7.16a9.34,9.34,0,0,1,.75-3.91,10.5,10.5,0,0,0,10.08,9.36C190.2,201.29,219,201.18,219,201.18Z" style="opacity:0.1"></path><path d="M223.84,195.4c0,4-2.24,7.17-5,7.17s-5-3.21-5-7.17,2.24-7.16,5-7.16S223.84,191.45,223.84,195.4Z" style="fill:#dbdbdb"></path><path d="M214.8,202.57v14.31H174c-3.25,0-5.18-3.2-5.18-7.16s1.93-7.15,5.18-7.15Z" style="fill:#c7c7c7"></path><path d="M214.79,215.51v1.37H174c-3.26,0-5.18-3.2-5.18-7.16a9.34,9.34,0,0,1,.75-3.91,10.5,10.5,0,0,0,10.08,9.36C186,215.62,214.79,215.51,214.79,215.51Z" style="opacity:0.1"></path><path d="M219.6,209.73c0,4-2.25,7.16-5,7.16s-5-3.2-5-7.16,2.24-7.16,5-7.16S219.6,205.78,219.6,209.73Z" style="fill:#dbdbdb"></path><path d="M209.86,216.89V231.2H169.09c-3.25,0-5.18-3.19-5.18-7.15s1.93-7.16,5.18-7.16Z" style="fill:#c7c7c7"></path><path d="M209.86,229.83v1.37H169.09c-3.26,0-5.18-3.2-5.18-7.16a9.34,9.34,0,0,1,.75-3.91,10.5,10.5,0,0,0,10.08,9.36C181,229.94,209.86,229.83,209.86,229.83Z" style="opacity:0.1"></path><path d="M214.66,224.06c0,3.95-2.24,7.16-5,7.16s-5-3.21-5-7.16,2.24-7.17,5-7.17S214.66,220.1,214.66,224.06Z" style="fill:#dbdbdb"></path><path d="M202,231.22v14.31H161.26c-3.25,0-5.18-3.2-5.18-7.15s1.93-7.16,5.18-7.16Z" style="fill:#c7c7c7"></path><path d="M202,244.16v1.37H161.26c-3.26,0-5.18-3.2-5.18-7.16a9.34,9.34,0,0,1,.75-3.91,10.5,10.5,0,0,0,10.08,9.36C173.19,244.27,202,244.16,202,244.16Z" style="opacity:0.1"></path><path d="M206.83,238.38c0,4-2.24,7.17-5,7.17s-5-3.21-5-7.17,2.24-7.16,5-7.16S206.83,234.43,206.83,238.38Z" style="fill:#dbdbdb"></path><path d="M250.76,139.44c0-.14-.26.24-.23.39.83,3.8,1.15,8.3-2.08,10.21-.1.06,0,.25.07.21C252.63,148.87,252.16,142.91,250.76,139.44Z" style="fill:#263238"></path><path d="M246.61,136.08c-6.24.67-4.43,13.1,1.35,12.47S251.84,135.51,246.61,136.08Z" style="fill:#263238"></path><path d="M273,137.28c0-.15.32.13.34.29.44,3.87,1.59,8.22,5.26,9,.11,0,.13.22,0,.22C274.28,146.81,272.81,141,273,137.28Z" style="fill:#263238"></path><path d="M275.87,132.76c6.12-1.37,8.41,11,2.74,12.24S270.74,133.91,275.87,132.76Z" style="fill:#263238"></path><path d="M240.63,132.85a46.65,46.65,0,0,0,5.15.18c2,.05,3.55.29,5.29-.82a2.65,2.65,0,0,0,.77-3.15c-1.14-2.24-3.55-2.9-5.93-3a9.68,9.68,0,0,0-6.71,1.86C237.16,129.32,238.32,132.56,240.63,132.85Z" style="fill:#263238"></path><path d="M281.7,126a49.68,49.68,0,0,1-4.58,2.38c-1.76.89-3.07,1.78-5.12,1.53a2.65,2.65,0,0,1-2.06-2.5c.07-2.52,2-4.15,4-5.31a9.68,9.68,0,0,1,6.87-1.21C283.31,121.32,283.65,124.74,281.7,126Z" style="fill:#263238"></path><path d="M249.68,175.59c1,.81,2.06,2,3.47,1.95a10.31,10.31,0,0,0,4.07-1.38.14.14,0,0,1,.19.19,5.25,5.25,0,0,1-4.71,2.58c-1.78-.14-2.8-1.57-3.38-3.13C249.24,175.58,249.53,175.47,249.68,175.59Z" style="fill:#263238"></path><path d="M269,157.24s1,5.91,1.09,8.71c0,.26-8-.16-16.11,2.86-1.21.45-1.24-.59.12-1.46,2.72-1.75,6.22-3.52,13.5-3.76.18-.78-1.71-9.07-1.26-9.12,1.52-.18,4.57.77,6.4,1.25-1.73-12.38-5.44-24.37-7-36.72a.38.38,0,0,1,.73-.2c4.77,12.3,7.08,26.49,9.19,39.22C275.94,159.61,270.11,157.68,269,157.24Z" style="fill:#263238"></path><path d="M263.28,166.53s-2.48,6.82-6.68,7.57c-4.82.86-6.55-5-1.26-7.58C258.11,165.16,263.28,166.53,263.28,166.53Z" style="fill:#263238"></path><path d="M261.33,170.33c-1.13,1.69-2.76,3.41-4.74,3.76-2.54.46-4.23-1-4.47-2.78v0c0-.06,0-.09,0-.16C257,168.32,259.81,169,261.33,170.33Z" style="fill:#ff99ba"></path><path d="M269.84,218.36,256.09,250l-38.61-41.6-11.62,12.67s37.06,65.39,37.39,62.5l14-27.2,18.49,19.72-.19-48.2Z" style="fill:#ebebeb"></path><path d="M277,252.25c-.3-8-.37-16-1-23.92,0-.28-.46-.41-.54-.09-1.81,7.63-.51,38.05-.75,45.33l-.08-.09c-.77-.85-17.16-17.37-17.33-17.12-3,4.3-13.23,24.1-13.94,25.91-5.86-10.39-30.82-51.39-37.82-61.25a.28.28,0,0,0-.49.26c5.13,10.94,37.35,65,37.83,64.9.32.26,13-24.13,14.61-28.76,2.75,3.57,19.24,22.16,19.33,21A250.66,250.66,0,0,0,277,252.25Z" style="fill:#263238"></path><polygon points="235.72 414.2 298.38 317.1 287.18 309.55 220.6 404 235.72 414.2" style="fill:#ECEFF1"></polygon><polygon points="235.72 414.2 298.38 317.1 287.18 309.55 220.6 404 235.72 414.2" style="opacity:0.6000000000000001"></polygon><rect x="278.43" y="251.03" width="65.11" height="70.61" transform="matrix(-0.56, 0.83, -0.83, -0.56, 722.28, 188.67)" style="fill:#ECEFF1"></rect><rect x="278.43" y="251.03" width="65.11" height="70.61" transform="matrix(-0.56, 0.83, -0.83, -0.56, 722.28, 188.67)" style="opacity:0.6000000000000001"></rect><rect x="278.43" y="270.89" width="65.11" height="30.9" transform="translate(722.28 188.67) rotate(124.01)" style="fill:#ECEFF1;opacity:0.6000000000000001"></rect><rect x="316.8" y="308.05" width="76.09" height="15.75" transform="translate(815.19 198.45) rotate(124.01)" style="fill:#ECEFF1"></rect><rect x="316.8" y="308.05" width="76.09" height="15.75" transform="translate(815.19 198.45) rotate(124.01)" style="opacity:0.6000000000000001"></rect><rect x="313.09" y="304.78" width="59.23" height="5.91" transform="matrix(-0.56, 0.83, -0.83, -0.56, 789.48, 195.75)" style="fill:#ECEFF1"></rect><rect x="313.09" y="304.78" width="59.23" height="5.91" transform="matrix(-0.56, 0.83, -0.83, -0.56, 789.48, 195.75)" style="opacity:0.8"></rect><polygon points="369.59 279.98 361.72 284.84 328.6 333.94 327.04 343.06 369.59 279.98" style="fill:#ECEFF1"></polygon><polygon points="369.59 279.98 361.72 284.84 328.6 333.94 327.04 343.06 369.59 279.98" style="opacity:0.7000000000000001"></polygon><rect x="229.09" y="248.87" width="76.09" height="15.75" transform="translate(-95.11 334.6) rotate(-55.99)" style="fill:#ECEFF1"></rect><rect x="229.09" y="248.87" width="76.09" height="15.75" transform="translate(-95.11 334.6) rotate(-55.99)" style="opacity:0.6000000000000001"></rect><rect x="249.65" y="261.98" width="59.23" height="5.91" transform="translate(-96.55 348.27) rotate(-55.99)" style="fill:#ECEFF1"></rect><rect x="249.65" y="261.98" width="59.23" height="5.91" transform="translate(-96.55 348.27) rotate(-55.99)" style="opacity:0.8"></rect><polygon points="252.38 292.69 260.25 287.83 293.38 238.73 294.94 229.61 252.38 292.69" style="fill:#ECEFF1"></polygon><polygon points="252.38 292.69 260.25 287.83 293.38 238.73 294.94 229.61 252.38 292.69" style="opacity:0.7000000000000001"></polygon><rect x="277.81" y="310" width="19.2" height="22.55" transform="matrix(-0.56, 0.83, -0.83, -0.56, 714.49, 262.71)" style="fill:#ECEFF1"></rect><rect x="277.81" y="310" width="19.2" height="22.55" transform="matrix(-0.56, 0.83, -0.83, -0.56, 714.49, 262.71)" style="opacity:0.7000000000000001"></rect><path d="M76.07,418.5c14.36,14.75,46.56,12.75,128.13,15.34,11.29.36,35.25-78.62,23.21-79.62-15.16-1.26-74.25-2.87-78.59-2.45C112.25,355.38,66.33,408.49,76.07,418.5Z" style="fill:#f7a9a0"></path><path d="M305.07,361.66c2.62,8.2-4.67,13.33-4.67,13.33s5.36,4.29,6.18,10.85c.93,7.5-10.43,12.25-10.43,12.25s4.53,5.48,4.69,12.48c.17,7.28-10.6,13.7-10.6,13.7s1.42,7.42-2.79,13.58c-7.18,10.53-26.64,9.74-39,9.37s-47.11-13-54-14.76L196.18,353s55.95-14.11,70.43-11.6C278.81,343.55,302.14,352.45,305.07,361.66Z" style="fill:#f7a9a0"></path><path d="M299.88,373.7c-12.44-5.35-25.78-6.74-39-8.88a.23.23,0,0,0-.07.46c13.19,2,25.81,6.54,38.9,9A.33.33,0,0,0,299.88,373.7Z" style="fill:#263238"></path><path d="M295.92,397.05c-2.85-1.13-6.06-1.31-9.08-1.65q-4.87-.54-9.77-.91c-6.53-.51-13.07-.87-19.62-1-.29,0-.37.43-.07.45,6.51.52,13,1.14,19.49,1.92q4.86.6,9.71,1.27c3,.41,6.15,1.1,9.2.83A.46.46,0,0,0,295.92,397.05Z" style="fill:#263238"></path><path d="M290,424.25c-2.43-1.08-5.63-.9-8.25-1.05-3-.17-6-.35-8.94-.56-5.95-.4-11.9-.81-17.84-1.42-.29,0-.37.43-.07.46,6,.65,12.05,1.39,18.08,2,3,.3,5.93.58,8.89.84,2.53.22,5.65.78,8.13.05A.17.17,0,0,0,290,424.25Z" style="fill:#263238"></path><path d="M212.69,344.91,153.84,463.16s-77.92-28-88.07-44.42C58.51,407,107,356.69,147.34,351.38Z" style="fill:#263238"></path><path d="M102,374.53c5-6.28,22.12-19.81,45.41-23.22.2,0,.3.29.09.34-17.1,4.22-39.93,17.49-45.27,23.12C102.06,374.92,101.85,374.69,102,374.53Z" style="fill:#455a64"></path><path d="M143.92,431.44c4.59-10.61,9.74-21,14.93-31.31s10.35-20.72,15.79-30.94c3.08-5.77,6.12-11.57,9.4-17.24.08-.14.35,0,.28.13-4.58,10.59-9.7,21-14.8,31.35s-10.35,20.72-15.67,31c-3,5.81-6.12,11.56-9.4,17.23C144.29,432,143.78,431.75,143.92,431.44Z" style="fill:#455a64"></path><path d="M212.54,343.9a101.16,101.16,0,0,0-13.47.62q-6.73.59-13.45,1.34c-8.9,1-27.89,2.08-43.62,6.48-.17.05.95.64,1.12.59,7.39-2.48,64.06-6.66,68.56-7.56a6.85,6.85,0,0,0-.22,1c0,.25.26.47.45.25.45-.53.71-1.1,1.12-1.65A.66.66,0,0,0,212.54,343.9Z" style="fill:#455a64"></path><path d="M379.2,278.26a103.77,103.77,0,0,1,15.74-32.08,103.77,103.77,0,0,1-15.74,32.08Z" style="fill:#263238"></path><path d="M379.2,278.26a103.77,103.77,0,0,1,15.74-32.08,103.77,103.77,0,0,1-15.74,32.08Z" style="fill:#263238"></path><path d="M388.63,285.26a103.6,103.6,0,0,1,32.88-14,103.92,103.92,0,0,1-32.88,14Z" style="fill:#263238"></path><path d="M390.64,296.72a103.9,103.9,0,0,1,33.86,11.41,103.58,103.58,0,0,1-33.86-11.41Z" style="fill:#263238"></path></g><g id="freepik--speech-bubble--inject-528"><polygon points="412.43 95.14 425.05 111.22 400.64 111.78 401.44 128.77 374.74 120.71 366.3 132.65 348.86 124.93 308.88 146.22 325.32 119.63 310.63 118.46 317.33 104.91 292.64 91.41 314.58 78.51 300.45 57.06 331.15 55.64 340.6 29 361.8 51.63 388.07 29 386.6 55.35 412.73 50.77 402.25 67.25 429.04 77.43 412.43 95.14" style="fill:#fff"></polygon><path d="M412.43,95.14l12.66,16,.08.1h-.12l-24.41.66.15-.16.92,17,0,.37-.36-.11-26.72-8,.33-.11-8.43,12-.15.21-.23-.1-17.44-7.72c1.31-.25-40,21.31-39.67,21.32l-1.19.64.7-1.15L325,119.42l.3.59-14.69-1.14-.61-.05.27-.55L317,104.72l.18.57L292.41,91.82l-.72-.39.71-.42,21.92-12.93-.16.7L300.07,57.31l-.45-.68.81,0,30.7-1.38-.38.29,9.48-26.63.22-.62.44.48,21.18,22.65-.51,0,26.3-22.59.57-.49,0,.75-1.5,26.35-.34-.3,26.13-4.56.6-.1-.33.5L402.46,67.38l-.12-.36,26.73,10.31.15,0-.11.12L412.43,95.14Zm0,0L429,77.35l0,.18L402.16,67.47l-.28-.1.16-.26,10.47-16.48.27.4-26.13,4.61-.36.06,0-.36L387.75,29l.53.26L362,51.91l-.27.23-.24-.26L340.31,29.27l.67-.14-9.43,26.65-.09.27-.29,0-30.69,1.45.36-.72L315,78.23l.29.44-.45.26-22,12.88V91l24.68,13.53.37.2-.19.37L311,118.64l-.34-.6,14.69,1.2.63.05-.33.54-16.46,26.58-.48-.51,40-21.25.14-.08.14.07,17.43,7.73-.38.1,8.45-11.93.13-.17.2.06,26.7,8.09-.34.26-.7-17v-.16h.16l24.41-.46c0,.48-12.6-16.13-12.61-16Z" style="fill:#263238"></path><path d="M379.37,87a4.37,4.37,0,1,0,4.37-4.37A4.37,4.37,0,0,0,379.37,87Z" style="fill:#263238"></path><path d="M357.56,87a4.37,4.37,0,1,0,4.37-4.37A4.37,4.37,0,0,0,357.56,87Z" style="fill:#263238"></path><path d="M335.75,87a4.37,4.37,0,1,0,4.37-4.37A4.37,4.37,0,0,0,335.75,87Z" style="fill:#263238"></path></g></svg>
