<svg xmlns="http://www.w3.org/2000/svg" viewBox="0 0 750 500"><g id="freepik--background-complete--inject-939"><path d="M692.37,294.22l-13.12.28-6.66.11c-2.23.05-4.47,0-6.7.06h-.44v-.45L665.39,283v-.5h.5l13.24.06c4.42,0,8.83.11,13.24.16h.28V283c0,1.9-.08,3.79-.13,5.66Zm0,0-.14-5.65c-.05-1.86-.11-3.7-.13-5.54l.27.28c-4.41.05-8.82.16-13.24.16l-13.24.06.5-.5,0,11.19-.45-.44c2.18,0,4.36,0,6.55.05L679,294Z" style="fill:#ebebeb"></path><path d="M677.6,308.33l-13.12.28-6.67.11c-2.22,0-4.46,0-6.69.06h-.44v-.45l0-11.19v-.5h.5l13.24.07c4.41,0,8.83.11,13.24.16h.28v.27c0,1.9-.08,3.79-.13,5.66Zm0,0-.14-5.65c-.05-1.86-.11-3.7-.13-5.54l.27.28c-4.41.05-8.83.16-13.24.16l-13.24.06.5-.5,0,11.19-.45-.44c2.18,0,4.36,0,6.55.05l6.57.12Z" style="fill:#ebebeb"></path><path d="M707.14,308.33l-13.12.28-6.66.11c-2.23,0-4.47,0-6.7.06h-.44v-.45l-.06-11.19v-.5h.5l13.24.07c4.42,0,8.83.11,13.24.16h.28v.27c0,1.9-.09,3.79-.13,5.66Zm0,0-.14-5.65c0-1.86-.11-3.7-.13-5.54l.27.28c-4.41.05-8.82.16-13.24.16l-13.24.06.5-.5,0,11.19-.45-.44c2.19,0,4.36,0,6.55.05l6.58.12Z" style="fill:#ebebeb"></path><path d="M314.79,161.07l-13.12.28-6.66.11c-2.23,0-4.47,0-6.7,0h-.44v-.45l-.06-11.19v-.5h.5l13.24.06c4.42,0,8.83.11,13.24.16h.28v.27c0,1.9-.09,3.78-.14,5.65Zm0,0-.14-5.66c0-1.86-.11-3.7-.13-5.53l.27.27c-4.41,0-8.82.16-13.24.16l-13.24.07.5-.5-.05,11.19-.45-.45c2.18,0,4.36,0,6.55.06l6.58.11Z" style="fill:#ebebeb"></path><path d="M300,175.18l-13.12.28-6.67.11c-2.22,0-4.46,0-6.69.05h-.44v-.45L273,164v-.5h.5l13.24.06c4.41,0,8.83.11,13.24.16h.28V164c0,1.9-.08,3.78-.13,5.65Zm0,0-.14-5.66c-.05-1.86-.11-3.7-.13-5.53l.27.27c-4.41.05-8.83.16-13.24.16l-13.24.07.5-.5L274,175.18l-.45-.45c2.18,0,4.36,0,6.55.06l6.57.11Z" style="fill:#ebebeb"></path><path d="M329.56,175.18l-13.12.28-6.66.11c-2.23,0-4.46,0-6.7.05h-.44v-.45L302.58,164v-.5h.5l13.24.06c4.42,0,8.83.11,13.24.16h.28V164c0,1.9-.09,3.78-.13,5.65Zm0,0-.14-5.66c0-1.86-.11-3.7-.13-5.53l.27.27c-4.41.05-8.82.16-13.24.16l-13.24.07.5-.5-.05,11.19-.45-.45c2.19,0,4.36,0,6.55.06l6.58.11Z" style="fill:#ebebeb"></path><path d="M98.88,235.11l-13.12.28-6.67.11c-2.22,0-4.46,0-6.69.05H72v-.45l0-11.19v-.5h.5l13.24.06c4.41,0,8.83.11,13.24.16h.28v.27c0,1.9-.08,3.78-.13,5.65Zm0,0-.14-5.66c0-1.86-.11-3.7-.13-5.53l.27.27c-4.41.05-8.83.16-13.24.16l-13.24.07.5-.5-.05,11.19-.45-.45c2.18,0,4.36,0,6.55.06l6.57.11Z" style="fill:#ebebeb"></path><path d="M537.86,161.06l-13.12.28-6.66.11c-2.23.05-4.47,0-6.7.05h-.44v-.45l-.06-11.19v-.5h.5l13.24.06c4.42,0,8.83.12,13.24.17h.28v.27c0,1.9-.08,3.79-.13,5.65Zm0,0-.14-5.65c-.05-1.87-.11-3.71-.13-5.54l.27.27c-4.41.05-8.82.16-13.24.17l-13.24.06.5-.5-.05,11.19-.45-.45c2.18,0,4.36,0,6.55.06l6.58.11Z" style="fill:#ebebeb"></path><path d="M690.84,52.38l-13.12.28-6.67.11c-2.22,0-4.46,0-6.69.06h-.44v-.45l0-11.19v-.5h.5l13.24.06c4.41,0,8.83.12,13.24.17h.28v.27c0,1.9-.08,3.79-.13,5.65Zm0,0-.14-5.65c-.05-1.87-.11-3.71-.13-5.54l.27.27c-4.41,0-8.83.16-13.24.17l-13.24.06.5-.5-.05,11.19-.45-.45c2.18,0,4.36,0,6.55.06l6.57.11Z" style="fill:#ebebeb"></path><path d="M705.61,66.49l-13.12.28-6.66.11c-2.23.05-4.47,0-6.7.05h-.44v-.45l-.06-11.19v-.5h.5l13.24.06c4.42,0,8.83.12,13.24.17h.28v.27c0,1.9-.09,3.79-.14,5.65Zm0,0-.14-5.65c0-1.87-.11-3.71-.13-5.54l.27.27c-4.41,0-8.82.16-13.24.17l-13.24.06.5-.5,0,11.19-.45-.45c2.18,0,4.36,0,6.55.06l6.58.11Z" style="fill:#ebebeb"></path><path d="M69.34,52.39l-13.13.28-6.66.11c-2.22,0-4.46,0-6.69.06h-.45v-.45l0-11.19v-.5h.51l13.24.07c4.41,0,8.82.11,13.24.16h.27v.27c0,1.9-.09,3.79-.13,5.66Zm0,0-.15-5.65c0-1.87-.11-3.71-.13-5.54l.28.27c-4.42.06-8.83.16-13.24.17l-13.24.06.5-.5L43.3,52.39,42.86,52c2.18,0,4.35,0,6.54,0l6.58.11Z" style="fill:#ebebeb"></path><rect x="219.06" width="1" height="32.77" style="fill:#c7c7c7"></rect><rect x="216.03" y="28.78" width="7.06" height="7.64" style="fill:#dbdbdb"></rect><path d="M234,60.82h-28.9c.59-11,5.83-28.61,14.45-28.61S233.44,49.82,234,60.82Z" style="fill:#dbdbdb"></path><rect x="275.47" width="1" height="32.77" style="fill:#c7c7c7"></rect><rect x="272.44" y="28.78" width="7.06" height="7.64" style="fill:#dbdbdb"></rect><path d="M290.42,60.82h-28.9c.58-11,5.82-28.61,14.45-28.61S289.84,49.82,290.42,60.82Z" style="fill:#dbdbdb"></path><rect x="331.87" width="1" height="32.77" style="fill:#c7c7c7"></rect><rect x="328.84" y="28.78" width="7.06" height="7.64" style="fill:#dbdbdb"></rect><path d="M346.82,60.82h-28.9c.58-11,5.82-28.61,14.45-28.61S346.24,49.82,346.82,60.82Z" style="fill:#dbdbdb"></path><rect x="388.27" width="1" height="32.77" style="fill:#c7c7c7"></rect><rect x="385.24" y="28.78" width="7.06" height="7.64" style="fill:#dbdbdb"></rect><path d="M403.22,60.82h-28.9c.59-11,5.83-28.61,14.45-28.61S402.64,49.82,403.22,60.82Z" style="fill:#dbdbdb"></path><rect x="642.7" y="158.51" width="33.23" height="33.23" transform="translate(834.44 -484.19) rotate(90)" style="fill:#dbdbdb"></rect><rect x="647.85" y="163.66" width="22.93" height="22.93" transform="translate(834.44 -484.19) rotate(90)" style="fill:#fff"></rect><polygon points="647.85 163.66 670.78 163.66 670.78 186.59 647.85 163.66" style="fill:#ebebeb"></polygon><rect x="601.83" y="158.51" width="33.23" height="33.23" transform="translate(793.57 -443.32) rotate(90)" style="fill:#dbdbdb"></rect><rect x="606.98" y="163.66" width="22.93" height="22.93" transform="translate(793.57 -443.32) rotate(90)" style="fill:#fff"></rect><polygon points="613.72 163.66 629.91 163.66 629.91 179.86 613.72 163.66" style="fill:#ebebeb"></polygon><rect x="617.3" y="184.23" width="43.43" height="74.37" transform="translate(860.43 -417.6) rotate(90)" style="fill:#dbdbdb"></rect><rect x="622.67" y="189.66" width="32.69" height="63.52" transform="translate(860.43 -417.6) rotate(90)" style="fill:#fff"></rect><polygon points="629.14 205.07 670.78 205.07 670.78 226.5 629.14 205.07" style="fill:#ebebeb"></polygon><rect x="601.83" y="76.38" width="74.37" height="74.37" transform="translate(752.59 -525.45) rotate(90)" style="fill:#dbdbdb"></rect><rect x="607.26" y="81.81" width="63.52" height="63.51" style="fill:#fff"></rect><path d="M670.78,127.54c-9.66-9.6-37-36.82-45.81-45.73h45.81Z" style="fill:#ebebeb"></path></g><g id="freepik--Shadow--inject-939"><ellipse cx="269.73" cy="448.8" rx="207.91" ry="19.42" style="fill:#ebebeb"></ellipse><ellipse cx="590.03" cy="450.59" rx="90.63" ry="15.18" style="fill:#ebebeb"></ellipse></g><g id="freepik--Floor--inject-939"><polygon points="48.03 378.04 129.77 377.79 211.51 377.71 375 377.54 538.49 377.7 620.23 377.79 701.97 378.04 620.23 378.28 538.49 378.37 375 378.54 211.51 378.37 129.77 378.28 48.03 378.04" style="fill:#263238"></polygon></g><g id="freepik--Bar--inject-939"><rect x="57.8" y="198.45" width="481.37" height="179.25" style="fill:#ebebeb"></rect><path d="M135.74,350.64l-28.65.33c-9.6.13-19.26.22-28.93.28h-.61v-.61l-.18-26-.1-26-.11-51.93v-1h1l57.58.13h.87v.87c0,17.42-.22,34.81-.34,52.15Zm0,0-.53-52.15c-.11-17.28-.33-34.51-.34-51.71l.87.87-57.58.13,1-1L79,298.71l-.1,26-.17,26-.61-.61q14.28.08,28.65.28Z" style="fill:#dbdbdb"></path><path d="M86.55,256.6l20.27-.31c6.8-.11,13.66-.23,20.53-.27h.57v.58l.18,21c.08,7,.1,14,.12,21.06l.12,42.11v1h-1l-40.8-.12h-.88v-.88c0-7.07,0-14.15.12-21.2L86,298.48Zm0,0,.54,42.33.22,21c.09,7,.1,13.94.12,20.91l-.88-.88,40.8-.12-1,1,.12-42.11q0-10.53.12-21.06l.18-21,.58.57c-6.73,0-13.48-.15-20.27-.27Z" style="fill:#dbdbdb"></path><path d="M212.36,350.64,183.7,351c-9.6.13-19.26.22-28.93.28h-.6v-.61l-.17-26-.1-26-.12-51.93v-1h1l57.59.13h.87v.87c0,17.42-.23,34.81-.34,52.15Zm0,0-.53-52.15c-.12-17.28-.34-34.51-.34-51.71l.87.87-57.59.13,1-1-.12,51.93-.09,26-.18,26-.61-.61c9.53.05,19.06.14,28.66.28Z" style="fill:#dbdbdb"></path><path d="M289,350.64l-28.65.33c-9.6.13-19.26.22-28.93.28h-.61v-.61l-.18-26-.1-26-.11-51.93v-1h1l57.58.13h.87v.87c0,17.42-.22,34.81-.34,52.15Zm0,0-.53-52.15c-.11-17.28-.33-34.51-.34-51.71l.87.87-57.58.13,1-1-.11,51.93-.1,26-.18,26-.6-.61q14.28.08,28.65.28Z" style="fill:#dbdbdb"></path><path d="M365.59,350.64l-28.66.33c-9.6.13-19.26.22-28.93.28h-.6v-.61l-.17-26-.1-26L307,246.78v-1h1l57.59.13h.87v.87c0,17.42-.23,34.81-.34,52.15Zm0,0-.53-52.15c-.12-17.28-.34-34.51-.34-51.71l.87.87-57.59.13,1-1-.12,51.93-.09,26-.18,26L308,350c9.53.05,19.06.14,28.66.28Z" style="fill:#dbdbdb"></path><path d="M442.2,350.64l-28.65.33c-9.6.13-19.26.22-28.93.28H384v-.61l-.18-26-.1-26-.11-51.93v-1h1l57.58.13h.87v.87c0,17.42-.22,34.81-.34,52.15Zm0,0-.53-52.15c-.11-17.28-.33-34.51-.34-51.71l.87.87-57.58.13,1-1-.11,51.93-.1,26-.18,26-.6-.61c9.52.05,19.05.14,28.65.28Z" style="fill:#dbdbdb"></path><path d="M518.82,350.64l-28.66.33c-9.6.13-19.26.22-28.93.28h-.6v-.61l-.17-26-.1-26-.12-51.93v-1h1l57.59.13h.87v.87c0,17.42-.23,34.81-.34,52.15Zm0,0-.53-52.15c-.12-17.28-.34-34.51-.34-51.71l.87.87-57.59.13,1-1-.12,51.93-.09,26-.18,26-.61-.61c9.53.05,19.06.14,28.66.28Z" style="fill:#dbdbdb"></path><path d="M163.17,256.6l20.27-.31c6.8-.11,13.65-.23,20.52-.27h.58v.58l.18,21q.12,10.53.12,21.06l.12,42.11v1h-1l-40.79-.12h-.89v-.88c0-7.07,0-14.15.12-21.2l.22-21.14Zm0,0,.54,42.33.22,21c.08,7,.1,13.94.12,20.91l-.88-.88,40.79-.12-1,1,.12-42.11q0-10.53.11-21.06l.19-21,.57.57c-6.73,0-13.47-.15-20.27-.27Z" style="fill:#dbdbdb"></path><path d="M239.78,256.6l20.27-.31c6.8-.11,13.66-.23,20.53-.27h.57v.58l.19,21c.08,7,.1,14,.12,21.06l.12,42.11v1h-1l-40.8-.12h-.88v-.88c0-7.07,0-14.15.12-21.2l.22-21.14Zm0,0,.54,42.33.22,21c.09,7,.1,13.94.12,20.91l-.88-.88,40.8-.12-1,1,.12-42.11q0-10.53.12-21.06l.18-21,.58.57c-6.73,0-13.48-.15-20.27-.27Z" style="fill:#dbdbdb"></path><path d="M316.39,256.6l20.28-.31c6.8-.11,13.65-.23,20.52-.27h.57v.58l.18,21q.12,10.53.12,21.06l.12,42.11v1h-1l-40.79-.12h-.89v-.88c0-7.07,0-14.15.12-21.2l.22-21.14Zm0,0,.55,42.33.22,21c.08,7,.1,13.94.12,20.91l-.88-.88,40.79-.12-1,1,.12-42.11q0-10.53.11-21.06l.19-21,.57.57c-6.73,0-13.47-.15-20.27-.27Z" style="fill:#dbdbdb"></path><path d="M393,256.6l20.27-.31c6.8-.11,13.66-.23,20.53-.27h.57v.58l.19,21c.08,7,.1,14,.12,21.06l.12,42.11v1h-1L393,341.7h-.89v-.88c0-7.07,0-14.15.12-21.2l.22-21.14Zm0,0,.54,42.33.22,21c.09,7,.1,13.94.12,20.91l-.88-.88,40.8-.12-1,1,.12-42.11q0-10.53.12-21.06l.18-21,.58.57c-6.73,0-13.48-.15-20.27-.27Z" style="fill:#dbdbdb"></path><path d="M469.62,256.6l20.28-.31c6.8-.11,13.65-.23,20.52-.27H511v.58l.18,21q.12,10.53.12,21.06l.12,42.11v1h-1l-40.8-.12h-.88v-.88c0-7.07,0-14.15.12-21.2l.22-21.14Zm0,0,.55,42.33.22,21c.08,7,.1,13.94.12,20.91l-.89-.88,40.8-.12-1,1,.13-42.11q0-10.53.11-21.06l.19-21,.57.57c-6.73,0-13.47-.15-20.27-.27Z" style="fill:#dbdbdb"></path><rect x="57.8" y="198.45" width="481.37" height="27.59" style="fill:#dbdbdb"></rect><rect x="41.98" y="196.5" width="513.01" height="20.47" style="fill:#ebebeb"></rect><rect x="450.7" y="368.16" width="44.83" height="3.29" style="fill:#c7c7c7"></rect><polygon points="491.78 243.72 492.02 259.32 493.54 368.16 493.59 371.45 494.25 414.86 496.79 414.86 497.46 371.45 497.51 368.16 499.02 259.32 499.26 243.72 491.78 243.72" style="fill:#c7c7c7"></polygon><polygon points="499.26 243.72 491.78 243.72 492.02 259.32 499.02 259.32 499.26 243.72" style="fill:#a6a6a6"></polygon><polygon points="446.96 243.72 447.2 259.32 449.43 414.86 451.96 414.86 452.63 371.45 452.68 368.16 454.2 259.32 454.44 243.72 446.96 243.72" style="fill:#c7c7c7"></polygon><polygon points="446.96 243.72 447.2 259.32 454.2 259.32 454.44 243.72 446.96 243.72" style="fill:#a6a6a6"></polygon><rect x="473.9" y="368.16" width="44.01" height="3.29" style="fill:#c7c7c7"></rect><polygon points="514.18 243.72 514.41 259.32 515.93 368.16 515.98 371.45 516.64 414.86 519.18 414.86 521.41 259.32 521.65 243.72 514.18 243.72" style="fill:#c7c7c7"></polygon><polygon points="521.65 243.72 514.18 243.72 514.41 259.32 521.41 259.32 521.65 243.72" style="fill:#a6a6a6"></polygon><polygon points="470.17 243.72 470.4 259.32 471.92 368.16 471.97 371.45 472.64 414.86 475.17 414.86 475.84 371.45 475.89 368.16 477.4 259.32 477.64 243.72 470.17 243.72" style="fill:#c7c7c7"></polygon><polygon points="477.64 243.72 470.17 243.72 470.4 259.32 477.4 259.32 477.64 243.72" style="fill:#a6a6a6"></polygon><rect x="443.07" y="236.46" width="81.55" height="8.54" style="fill:#ECEFF1"></rect><rect x="460.1" y="236.46" width="64.52" height="8.54" style="fill:#263238;opacity:0.1"></rect><rect x="184.64" y="368.16" width="44.83" height="3.29" style="fill:#c7c7c7"></rect><polygon points="225.72 243.72 225.96 259.32 227.48 368.16 227.53 371.45 228.19 414.86 230.73 414.86 231.4 371.45 231.44 368.16 232.96 259.32 233.2 243.72 225.72 243.72" style="fill:#c7c7c7"></polygon><polygon points="233.2 243.72 225.72 243.72 225.96 259.32 232.96 259.32 233.2 243.72" style="fill:#a6a6a6"></polygon><polygon points="180.9 243.72 181.14 259.32 183.37 414.86 185.91 414.86 186.57 371.45 186.62 368.16 188.13 259.32 188.37 243.72 180.9 243.72" style="fill:#c7c7c7"></polygon><polygon points="180.9 243.72 181.14 259.32 188.13 259.32 188.37 243.72 180.9 243.72" style="fill:#a6a6a6"></polygon><rect x="207.84" y="368.16" width="44.01" height="3.29" style="fill:#c7c7c7"></rect><polygon points="248.12 243.72 248.35 259.32 249.87 368.16 249.92 371.45 250.59 414.86 253.12 414.86 255.35 259.32 255.59 243.72 248.12 243.72" style="fill:#c7c7c7"></polygon><polygon points="255.59 243.72 248.12 243.72 248.35 259.32 255.35 259.32 255.59 243.72" style="fill:#a6a6a6"></polygon><polygon points="204.11 243.72 204.34 259.32 205.86 368.16 205.91 371.45 206.58 414.86 209.11 414.86 209.78 371.45 209.83 368.16 211.34 259.32 211.58 243.72 204.11 243.72" style="fill:#c7c7c7"></polygon><polygon points="211.58 243.72 204.11 243.72 204.34 259.32 211.34 259.32 211.58 243.72" style="fill:#a6a6a6"></polygon><rect x="177.01" y="236.46" width="81.55" height="8.54" style="fill:#ECEFF1"></rect><rect x="194.04" y="236.46" width="64.52" height="8.54" style="fill:#263238;opacity:0.1"></rect><rect x="271.52" y="368.16" width="44.83" height="3.29" style="fill:#c7c7c7"></rect><polygon points="312.61 243.72 312.85 259.32 314.36 368.16 314.41 371.45 315.08 414.86 317.61 414.86 318.28 371.45 318.33 368.16 319.84 259.32 320.08 243.72 312.61 243.72" style="fill:#c7c7c7"></polygon><polygon points="320.08 243.72 312.61 243.72 312.85 259.32 319.84 259.32 320.08 243.72" style="fill:#a6a6a6"></polygon><polygon points="267.78 243.72 268.02 259.32 270.25 414.86 272.79 414.86 273.45 371.45 273.5 368.16 275.02 259.32 275.26 243.72 267.78 243.72" style="fill:#c7c7c7"></polygon><polygon points="267.78 243.72 268.02 259.32 275.02 259.32 275.26 243.72 267.78 243.72" style="fill:#a6a6a6"></polygon><rect x="294.73" y="368.16" width="44.01" height="3.29" style="fill:#c7c7c7"></rect><polygon points="335 243.72 335.24 259.32 336.75 368.16 336.8 371.45 337.47 414.86 340 414.86 342.24 259.32 342.47 243.72 335 243.72" style="fill:#c7c7c7"></polygon><polygon points="342.47 243.72 335 243.72 335.24 259.32 342.24 259.32 342.47 243.72" style="fill:#a6a6a6"></polygon><polygon points="290.99 243.72 291.23 259.32 292.74 368.16 292.79 371.45 293.46 414.86 296 414.86 296.66 371.45 296.71 368.16 298.23 259.32 298.46 243.72 290.99 243.72" style="fill:#c7c7c7"></polygon><polygon points="298.46 243.72 290.99 243.72 291.23 259.32 298.23 259.32 298.46 243.72" style="fill:#a6a6a6"></polygon><rect x="263.9" y="236.46" width="81.55" height="8.54" style="fill:#ECEFF1"></rect><rect x="280.92" y="236.46" width="64.52" height="8.54" style="fill:#263238;opacity:0.1"></rect><rect x="55.29" y="368.16" width="44.83" height="3.29" style="fill:#c7c7c7"></rect><polygon points="96.38 243.72 96.62 259.32 98.14 368.16 98.19 371.45 98.85 414.86 101.39 414.86 102.05 371.45 102.1 368.16 103.62 259.32 103.86 243.72 96.38 243.72" style="fill:#c7c7c7"></polygon><polygon points="103.86 243.72 96.38 243.72 96.62 259.32 103.62 259.32 103.86 243.72" style="fill:#a6a6a6"></polygon><polygon points="51.56 243.72 51.8 259.32 54.03 414.86 56.56 414.86 57.23 371.45 57.28 368.16 58.79 259.32 59.03 243.72 51.56 243.72" style="fill:#c7c7c7"></polygon><polygon points="51.56 243.72 51.8 259.32 58.79 259.32 59.03 243.72 51.56 243.72" style="fill:#a6a6a6"></polygon><rect x="78.5" y="368.16" width="44.01" height="3.29" style="fill:#c7c7c7"></rect><polygon points="118.77 243.72 119.01 259.32 120.53 368.16 120.58 371.45 121.24 414.86 123.78 414.86 126.01 259.32 126.25 243.72 118.77 243.72" style="fill:#c7c7c7"></polygon><polygon points="126.25 243.72 118.77 243.72 119.01 259.32 126.01 259.32 126.25 243.72" style="fill:#a6a6a6"></polygon><polygon points="74.77 243.72 75 259.32 76.52 368.16 76.57 371.45 77.23 414.86 79.77 414.86 80.44 371.45 80.49 368.16 82 259.32 82.24 243.72 74.77 243.72" style="fill:#c7c7c7"></polygon><polygon points="82.24 243.72 74.77 243.72 75 259.32 82 259.32 82.24 243.72" style="fill:#a6a6a6"></polygon><rect x="47.67" y="236.46" width="81.55" height="8.54" style="fill:#ECEFF1"></rect><rect x="64.7" y="236.46" width="64.52" height="8.54" style="fill:#263238;opacity:0.1"></rect></g><g id="freepik--Plant--inject-939"><path d="M655.12,303.73a60.49,60.49,0,0,1,1.93,10.89c-.1.19-.08.86,0,.68,0,.59.93.49.93-.1,0-.39,0-.77,0-1.15,2.13-2.64,5.23-4.32,7.72-6.61a14.42,14.42,0,0,0,4.23-6.74c2.08-7.14.13-14.71,2.63-21.83,2.15-6.15,6-11.49,9.26-17.05,3.44-5.89,6-12.07,6.24-19,.2-5.28-.43-12.31-4.45-16.26-4.26-4.2-9.54-1.06-12.81,2.69-9.46,10.85-13.84,24.58-15.61,38.61-1,7.76-2,15.58-1.75,23.41A63.35,63.35,0,0,0,655.12,303.73Z" style="fill:#ECEFF1"></path><path d="M657,317.48a133.54,133.54,0,0,1,.26-22s0-.05,0-.08c-.12-5.95-.59-11.87-.36-17.83a106.24,106.24,0,0,1,2.62-19.12c0-.07.13-.05.12,0a123.7,123.7,0,0,0-2.07,18.7c-.12,3.36-.1,6.72.08,10.08.06,1.09.16,2.19.23,3.29h0a117.84,117.84,0,0,1,17.69-46.82c.13-.19.47,0,.35.21a122.06,122.06,0,0,0-14.4,34.72c4.55-8.43,11.42-15.36,16.52-23.46,0-.05.1,0,.08,0-4.58,9-12.15,16.12-17,25-.84,3.62-1.53,7.27-2,10.95A123.07,123.07,0,0,0,658,306.41c2.77-5.18,5.64-10.14,7.91-15.62.06-.14.27,0,.22.1-1.93,5.69-4.52,11.82-8.15,16.68,0,3.6.09,7.2.3,10.8.57,9.61,2.21,19.08,3,28.66a.22.22,0,0,1-.44,0A218.27,218.27,0,0,1,657,317.48Z" style="fill:#263238"></path><path d="M667.21,243.4a.06.06,0,0,1,.1,0c-1.75,4.85-2.74,9.77-4,14.74a.18.18,0,0,1-.36-.06C663.45,253.09,665.26,248.06,667.21,243.4Z" style="fill:#263238"></path><path d="M622.66,263.74a75.45,75.45,0,0,0,4,8.29c3.16,5.73,6.46,11,7,17.67a41.8,41.8,0,0,0,1.27,8.85,27,27,0,0,0,3.53,6.93c3.43,5,7.71,9.29,10.88,14.46a61,61,0,0,1,7.23,17.43c.07.33.6.24.52-.09l0-.08a.12.12,0,0,0,0-.07c.5-14.32-.64-28.76-5-42.48A147.18,147.18,0,0,0,645.24,277a41.72,41.72,0,0,0-9.37-13.47c-2.67-2.41-8.45-7-12.24-4.55C621.81,260.12,621.94,262,622.66,263.74Z" style="fill:#ECEFF1"></path><path d="M637.05,296.21a117.23,117.23,0,0,0,8.33,12c1.38,1.81,2.79,3.61,4.18,5.42.65.86,1.38,1.71,2,2.63-.38-1.51-.74-3-1.13-4.52-1.85-7.24-3.62-14.54-6.38-21.5a144.66,144.66,0,0,0-9.94-19.49c-.1-.17.17-.29.27-.13,3,5,6.1,9.95,8.64,15.2a80.62,80.62,0,0,1,3.67,9,140,140,0,0,0-4.88-19.26c0-.06.06-.1.08,0a66,66,0,0,1,5.07,20s0,0,0,0q.93,2.79,1.72,5.63c2.26,8,4.24,16.11,6.08,24.24a86.86,86.86,0,0,0-1.38-15.93c0-.12.15-.15.18,0a50.52,50.52,0,0,1,1.39,16.79q1,4.64,2,9.27c1.4,6.61,3.13,13.33,4,20a.14.14,0,0,1-.27.05c-1-3.62-1.57-7.36-2.38-11s-1.63-7.34-2.49-11q-1.86-8-3.87-15.95c-.89-1.95-2.6-3.67-3.89-5.31s-2.82-3.58-4.19-5.4a79.79,79.79,0,0,1-6.89-10.66A.07.07,0,1,1,637.05,296.21Z" style="fill:#263238"></path><path d="M636.44,290.08A74.71,74.71,0,0,1,644.59,303c0,.06-.06.12-.1.07-2.74-4.3-5.44-8.63-8.17-12.93C636.27,290.09,636.39,290,636.44,290.08Z" style="fill:#263238"></path><path d="M697.41,277.32c-1.85,3.19-4,7-3.17,10.87.5,2.43,2.28,4.4,2.6,6.88.72,5.47-4.73,9.09-8.68,11.67-9.83,6.45-23.32,12.21-25.11,25.38-.07.47-.87.36-.81-.1,0,0,0-.06,0-.09s0,0,0-.08a50.3,50.3,0,0,1,.18-20.12c1.47-6.8,4.43-12.9,7.93-18.87,5.92-10.09,12.19-20.43,21.14-28.17,2.48-2.14,7.55-6,9.52-1.15S699.69,273.42,697.41,277.32Z" style="fill:#ECEFF1"></path><path d="M688.41,298.72c-6.52,7.06-16.88,11-22.5,18.93a79.19,79.19,0,0,1,17.3-32.49.25.25,0,0,0-.36-.35,64,64,0,0,0-14.14,20.46,92.28,92.28,0,0,1,6.09-15.56c.09-.19-.18-.36-.29-.17A59.45,59.45,0,0,0,668,307c-7.39,17.91-8.08,38.91-6.53,57.78a.22.22,0,0,0,.43,0c-.43-14.87-.19-30,3.38-44.53.07-.3.15-.6.23-.9,6.11-8.52,16.43-12.46,23.07-20.54C688.59,298.76,688.48,298.65,688.41,298.72Z" style="fill:#263238"></path><path d="M689.92,292.66c-3.42,3.14-6.79,6.35-10.22,9.49,0,0,0,.09,0,.07a50,50,0,0,0,10.38-9.35C690.24,292.72,690.06,292.53,689.92,292.66Z" style="fill:#263238"></path><path d="M690.47,279.06a107,107,0,0,1-10.25,14.08.06.06,0,0,0,.09.09,49.67,49.67,0,0,0,10.34-14.07A.1.1,0,0,0,690.47,279.06Z" style="fill:#263238"></path><polygon points="675.05 378.12 645.07 378.12 649.11 337.78 670.44 337.78 675.05 378.12" style="fill:#455a64"></polygon><polygon points="671.19 344.33 648.45 344.33 649.11 337.78 670.44 337.78 671.19 344.33" style="fill:#263238"></polygon><rect x="646.01" y="333.31" width="28.1" height="6.44" style="fill:#455a64"></rect></g><g id="freepik--character-4--inject-939"><path d="M656.51,452c-2.17.7-64.11-.1-66.45-1.63-.9-.57-1.31-9.6-1.49-20.53v-.34c0-2.25-.07-4.57-.08-6.92,0-.33,0-.65,0-1-.09-15.77.16-32.14.16-32.14l41.44.42-1.25,31.83,0,1.26-.25,6.59,0,.68s23.57,10.91,26,12.86S658.68,451.28,656.51,452Z" style="fill:#dd6a57"></path><path d="M656.51,452c-2.17.7-64.11-.1-66.45-1.63-.9-.57-1.31-9.6-1.49-20.53v-.34c0-2.25-.07-4.57-.08-6.92,0-.33,0-.65,0-1l40.35.11,0,1.26-.25,6.59,0,.68s23.57,10.91,26,12.86S658.68,451.28,656.51,452Z" style="fill:#ebebeb"></path><path d="M656.51,452c-1.34.43-25.34.29-44.13-.24-11.73-.32-21.42-.8-22.32-1.39s-1.3-9.34-1.48-20.07c0-.15,0-.3,0-.46s0-.23,0-.35l40,.08,0,.68s23.58,10.91,26,12.86S658.68,451.28,656.51,452Z" style="fill:#ECEFF1"></path><path d="M655.84,449.56c-10.44-.39-52.58-1-62.92-.58-.09,0-.09.06,0,.06,10.33.62,52.47.87,62.92.69C656.06,449.72,656.06,449.57,655.84,449.56Z" style="fill:#263238"></path><path d="M633,429.71c-4.1-.82-9.13-.25-12.31,2.63-.12.12,0,.29.17.25A57.37,57.37,0,0,1,633,430.23.26.26,0,0,0,633,429.71Z" style="fill:#263238"></path><path d="M635.92,431.54c-4.09-.82-9.13-.26-12.31,2.63-.12.11,0,.28.18.24a57.9,57.9,0,0,1,12.11-2.35A.26.26,0,0,0,635.92,431.54Z" style="fill:#263238"></path><path d="M638.87,433.36c-4.1-.82-9.13-.25-12.31,2.63-.13.12,0,.29.17.25a57.41,57.41,0,0,1,12.11-2.36A.26.26,0,0,0,638.87,433.36Z" style="fill:#263238"></path><path d="M638.44,420.82c-1.58-2.25-4.6-1.28-6.34.13a22,22,0,0,0-6.45,9.33.11.11,0,0,0,.1.15.5.5,0,0,0,.64.52c3.4-1.21,7.2-2.08,10.13-4.3C638.24,425.35,639.94,422.94,638.44,420.82Zm-7.26,7.24c-1.66.64-3.35,1.19-5,1.89,1.27-1.82,2.45-3.68,3.89-5.37a23.05,23.05,0,0,1,2.21-2.32c1.23-1.1,6.11-3.4,5.32,1.09C637.18,425.83,633.16,427.3,631.18,428.06Z" style="fill:#263238"></path><path d="M615.22,429.08c3.37,1.48,7.26,1.46,10.86,1.86a.51.51,0,0,0,.5-.66.11.11,0,0,0,.06-.17,22,22,0,0,0-8.42-7.59c-2-1-5.18-1.22-6.2,1.33S613.26,428.21,615.22,429.08Zm-1.81-3c-1.8-4.2,3.47-3.07,4.93-2.29a24.64,24.64,0,0,1,2.68,1.75c1.79,1.31,3.37,2.85,5,4.33-1.76-.3-3.52-.45-5.29-.69C618.65,428.94,614.4,428.44,613.41,426.12Z" style="fill:#263238"></path><path d="M612.38,451.73c-11.73-.32-21.42-.8-22.32-1.39s-1.3-9.34-1.48-20.07C593.4,434.56,605.34,445.22,612.38,451.73Z" style="fill:#263238"></path><path d="M575.93,211s9.3,104.66,10.82,112.65c.35,1.82.57,11.71.71,24.43.32,27.74.13,77.78.13,77.78h43.66S630,339.18,628,323.22,613.73,211,613.73,211Z" style="fill:#263238"></path><path d="M629.28,418.28c-6.81-.15-4.86-.2-11.67-.27-3.34,0-25.25-.22-28.36.3a.07.07,0,0,0,0,.13c3.11.52,25,.33,28.36.3,6.81-.07,4.86-.12,11.67-.27A.1.1,0,1,0,629.28,418.28Z" style="fill:#37474f"></path><path d="M595.88,368.71q-.06-9.49-.14-19c0-6.13,0-12.27-.33-18.4-.59-12.41-3.1-24.61-4.89-36.87s-3.29-24.6-4.64-36.93c-1.52-13.83-2.86-27.68-4.28-41.52,0-.1-.16-.1-.15,0,2.06,24.72,4.36,49.43,7.78,74q1.28,9.17,2.79,18.29c1,6.17,2,12.33,2.52,18.56s.55,12.22.61,18.34q.11,9.49.19,19c.14,14.06.27,35.7.41,49.76a.21.21,0,0,0,.42,0C596.08,401.37,596,381.25,595.88,368.71Z" style="fill:#37474f"></path><path d="M566.73,211s18.5,104.66,20,112.65c.35,1.82.57,11.71.71,24.43v0L608.28,211Z" style="fill:#37474f"></path><path d="M605.81,455.66c-2.22.55-63.95-4.64-66.17-6.33-.86-.63-.63-9.67,0-20.58,0-.12,0-.23,0-.35.12-2.25.25-4.56.41-6.91q0-.48.06-1c1-15.74,2.44-32,2.44-32l41.3,3.35-3.5,31.67-.13,1.25-.72,6.56-.07.67s22.74,12.56,25,14.67S608,455.12,605.81,455.66Z" style="fill:#dd6a57"></path><path d="M605.81,455.66c-2.22.55-63.95-4.64-66.17-6.33-.86-.63-.63-9.67,0-20.58,0-.12,0-.23,0-.35.12-2.25.25-4.56.41-6.91q0-.48.06-1l40.24,3-.13,1.25-.72,6.56-.07.67s22.74,12.56,25,14.67S608,455.12,605.81,455.66Z" style="fill:#ebebeb"></path><path d="M605.81,455.66c-2.22.55-63.95-4.64-66.17-6.33-.86-.63-.63-9.67,0-20.58,0-.12,0-.23,0-.35l39.86,2.91-.07.67s22.74,12.56,25,14.67S608,455.12,605.81,455.66Z" style="fill:#ECEFF1"></path><path d="M605.31,453.21c-10.38-1.13-52.37-4.71-62.72-5-.09,0-.09.06,0,.07,10.27,1.34,52.28,4.58,62.72,5.14C605.52,453.39,605.53,453.23,605.31,453.21Z" style="fill:#263238"></path><path d="M583.91,431.79c-4-1.11-9.09-.9-12.46,1.76-.13.1,0,.28.15.25a58.05,58.05,0,0,1,12.25-1.49A.26.26,0,0,0,583.91,431.79Z" style="fill:#263238"></path><path d="M586.72,433.82c-4-1.11-9.09-.9-12.47,1.76-.13.1,0,.28.16.25a58.05,58.05,0,0,1,12.25-1.49A.27.27,0,0,0,586.72,433.82Z" style="fill:#263238"></path><path d="M589.53,435.85c-4-1.11-9.1-.9-12.47,1.76-.13.1,0,.28.15.25a58.06,58.06,0,0,1,12.26-1.49A.27.27,0,0,0,589.53,435.85Z" style="fill:#263238"></path><path d="M590,423.31c-1.42-2.35-4.5-1.61-6.33-.31a21.94,21.94,0,0,0-7.1,8.84.12.12,0,0,0,.09.16.51.51,0,0,0,.6.57c3.48-1,7.33-1.57,10.41-3.58C589.47,427.81,591.34,425.53,590,423.31ZM582.23,430c-1.7.52-3.42,1-5.1,1.53a64.56,64.56,0,0,1,4.25-5.08,23,23,0,0,1,2.37-2.16c1.31-1,6.33-3,5.23,1.47C588.38,428.22,584.26,429.4,582.23,430Z" style="fill:#263238"></path><path d="M566.25,429.9c3.25,1.72,7.14,2,10.69,2.63a.52.52,0,0,0,.55-.62c.07,0,.11-.09.07-.16a22,22,0,0,0-7.86-8.18c-1.94-1.12-5.08-1.58-6.28.89S564.35,428.9,566.25,429.9Zm-1.61-3.07c-1.49-4.32,3.68-2.83,5.08-1.94a22.84,22.84,0,0,1,2.55,1.94,64.71,64.71,0,0,1,4.7,4.67c-1.73-.43-3.48-.7-5.22-1.06C569.67,430,565.47,429.2,564.64,426.83Z" style="fill:#263238"></path><path d="M581.27,428.24l-43.62-1.85s11.91-95.72,12.13-101.6C550.35,309.52,560.49,211,560.49,211h53.28s-3.36,22.75-9.11,37.17a67.11,67.11,0,0,0-11.15,5.09s-5,65.17-5.17,73.3C588,342.6,581.27,428.24,581.27,428.24Z" style="fill:#263238"></path><path d="M580.11,420.25c-6.8-.43-4.84-.41-11.65-.76-3.33-.17-25.21-1.29-28.35-.91a.07.07,0,0,0,0,.14c3.09.65,25,1.38,28.32,1.49,6.81.23,4.86.09,11.67.24A.1.1,0,0,0,580.11,420.25Z" style="fill:#37474f"></path><path d="M564.4,216.82c-2,24.82-4,49.64-6.28,74.43s-4.94,49.73-8.19,74.5c-1.81,13.84-3.83,33.34-6,47.13,0,.09.12.13.14,0,4.4-24.51,7.63-54.91,10.38-79.65s5-49.54,7-74.34c1.13-14,2.15-28.07,3.23-42.11C564.73,216.62,564.42,216.62,564.4,216.82Z" style="fill:#37474f"></path><path d="M606.56,247.16a83.63,83.63,0,0,0-13,6.08.15.15,0,0,0,.13.27c4.39-1.89,8.87-3.7,13.16-5.82A.29.29,0,0,0,606.56,247.16Z" style="fill:#37474f"></path><path d="M608,217c0-.15-.28-.18-.28,0a145.35,145.35,0,0,1-.73,14.69c-.21,2.26-2,14.77-6,13.86-.65-.15-1-.8-1.09-1.79a15.37,15.37,0,0,1,.52-3.84c.43-2.62.78-5.24,1-7.89a71.77,71.77,0,0,0-.16-14.8.13.13,0,0,0-.25,0,137,137,0,0,1-1.2,20.44c-.49,3.25-2.13,8.15,1.27,8.65s5.71-7.7,6.14-9.94A75.24,75.24,0,0,0,608,217Z" style="fill:#37474f"></path><path d="M601.1,245.87a19.74,19.74,0,0,0-.88,2.59,5.8,5.8,0,0,0-.37,2.13c0,.14.2.15.27.06a7.54,7.54,0,0,0,.91-2.07c.3-.81.62-1.6.89-2.41A.44.44,0,0,0,601.1,245.87Z" style="fill:#37474f"></path><path d="M583.33,221.1a7.39,7.39,0,0,0-.16-1.63.08.08,0,0,0-.16,0,6.65,6.65,0,0,0-.19,1.41c-.05.54-.12,1.07-.18,1.61a24.07,24.07,0,0,1-.58,3.27,11.62,11.62,0,0,1-3,5.39,15.75,15.75,0,0,1-5.07,3.34,58.91,58.91,0,0,1-6.51,1.86.08.08,0,0,0,0,.16,18.74,18.74,0,0,0,7-1.38,15.15,15.15,0,0,0,5.29-3.38,11.77,11.77,0,0,0,3.08-5.54,16.38,16.38,0,0,0,.43-3.28A16,16,0,0,0,583.33,221.1Z" style="fill:#37474f"></path><path d="M636.14,217.41c.72,9.74,2.22,21.81-2.65,31.7a5.45,5.45,0,0,1-2.48,2.57c-2.1,4.47-4.84,4.82-4.84,4.82-3.23,3.56-6.08,3.53-6.08,3.53s-2.53,5.22-5.94,4.21c-3.82-1.11.47-8.22.44-13.57-.06-12.27-3.61-31.5-4-35Z" style="fill:#dd6a57"></path><path d="M623.54,237.78a78.62,78.62,0,0,1-.55,10.74,78.63,78.63,0,0,1-3,11.4.09.09,0,1,0,.17.07,41.64,41.64,0,0,0,3.53-22.21C623.69,237.6,623.54,237.59,623.54,237.78Z" style="fill:#263238"></path><path d="M630.94,236.66c-.24,3.51-.72,9.68-4.9,19.81,0,0,0,.07.06,0a37.43,37.43,0,0,0,5-19.83C631.11,236.45,631,236.43,630.94,236.66Z" style="fill:#263238"></path><path d="M634.93,236.13c-.65,6-1.81,9.63-3.95,15.54a0,0,0,0,0,.06,0c3.14-6.45,3.55-9.15,4.1-15.56C635.16,235.91,635,235.9,634.93,236.13Z" style="fill:#263238"></path><path d="M613.58,235.89c-.64-1.6-1.48-1.27-2.34,1.66s-1.75,15.27-6,14.59-2-17.83-1-22.83A34.92,34.92,0,0,1,611,215C611.42,218.39,612.74,229.14,613.58,235.89Z" style="fill:#dd6a57"></path><path d="M610.37,216.67c-.17-3.65,1.38-20.15,1.69-27.4.11-2.42-9.55-25.43-12.1-34.4-2.4-8.42.22-9.43,6.58-3.77s21.81,29.25,24.89,36.08,5.93,32.39,4.2,37.89C634.46,228.81,610.54,220.27,610.37,216.67Z" style="fill:#dd6a57"></path><path d="M609.91,211.79,638,221.3s-2.09-27.2-6.64-35.79-13.84-22.62-22.73-33.63-13.06-4.55-7.54,8.37c4.4,10.3,9.91,28.56,9.92,30S609.91,211.79,609.91,211.79Z" style="fill:#ECEFF1"></path><path d="M636.5,214.88a23.35,23.35,0,0,0-3-1.26q-1.49-.59-3-1.14c-2-.71-3.94-1.44-5.93-2.12-4-1.36-7.91-2.72-12-3.72-.09,0-.13.12,0,.16,3.89,1.68,7.9,3.06,11.9,4.46l6,2.06c1,.34,1.95.66,2.93,1a23.64,23.64,0,0,0,3,.89C636.6,215.22,636.65,215,636.5,214.88Z" style="fill:#263238"></path><path d="M609.91,211.79s1.08-20,1.06-21.51-5.52-19.73-9.92-30c-3.67-8.58-3-14.31.38-14l32.35,73.59Z" style="fill:#263238"></path><path d="M616.49,216.3c-.92,1-59.69,2.11-60,1.74-.88-1,14.18-61.7,27.72-72.92,2.91-2.41,13.45-1.92,14.91-1.12,3.37,1.86,6.43,5.63,8.8,12.45C612.65,170.11,617.29,215.38,616.49,216.3Z" style="fill:#ECEFF1"></path><path d="M576.27,156c-14.21,24.07-20.18,68.69-10.27,70.47,9.06,1.63,34.43-7.62,44.58-12.65,3-1.48-9-24.47-12.18-22.89-3.85,1.9-13.93,5.8-14.36,5.87-.92.14,2.42-29.41,3.07-40.61C588,140.59,581.61,147,576.27,156Z" style="fill:#dd6a57"></path><path d="M630.8,176.84a4.11,4.11,0,0,1,.71,4.63,6.09,6.09,0,0,1,3.5,2.21c1.44,2-1.14,5.21-1.14,5.21a7.54,7.54,0,0,1,3.32,2.92c1.18,2.1-1,5.66-1,5.66a6.59,6.59,0,0,1,1.3,4.41c-.46,4.2-6.27,7-9.95,8.82s-17,3.65-19.29,4.21L597.59,191.3s14.17-12.85,18.8-14.38C620.29,175.64,628.5,174.6,630.8,176.84Z" style="fill:#dd6a57"></path><path d="M631.15,181.17c-4.47.38-8.59,2.05-12.8,3.49-.09,0,0,.18.06.14,4.16-1.47,8.57-2.11,12.79-3.42C631.31,181.35,631.27,181.16,631.15,181.17Z" style="fill:#263238"></path><path d="M633.64,188.62a11.71,11.71,0,0,0-2.92.94c-1,.4-2,.82-3,1.25q-3,1.31-5.9,2.76c-.08,0,0,.18,0,.14,2-.86,4-1.69,6-2.47l3-1.15a14,14,0,0,0,2.82-1.19A.15.15,0,0,0,633.64,188.62Z" style="fill:#263238"></path><path d="M636.14,197.51a7.87,7.87,0,0,0-2.58,1l-2.7,1.23c-1.81.81-3.61,1.62-5.45,2.37-.09,0,0,.18.06.14,1.86-.75,3.74-1.47,5.59-2.24.92-.37,1.83-.75,2.74-1.14a7.74,7.74,0,0,0,2.38-1.25S636.18,197.5,636.14,197.51Z" style="fill:#263238"></path><path d="M584.82,195.79c-1.54-.8,2.78-28.9,2.89-41.26s-5.17-10.47-11.58.94c-6.87,12.23-17,38.1-15.21,61.94.57,7.45.29,12.92,16.86,8.81a196.55,196.55,0,0,0,28.31-9.16l-9.68-25.49S585.27,196,584.82,195.79Z" style="fill:#ECEFF1"></path><path d="M600.16,218.19c-4.52-9.92-7.77-21-8.47-22.93,0-.09.12-.13.14,0,.6,1.9,5.69,14.19,8.49,22.92C600.35,218.25,600.21,218.28,600.16,218.19Z" style="fill:#263238"></path><path d="M572.64,200.75a21.28,21.28,0,0,1,3-1.37l2.81-1.21,1.22-.51-.13,0-1.75.14c-.59.05-1.18.05-1.76.14-.1,0-.12-.14,0-.15.58-.05,1.15-.19,1.73-.28l1.79-.29c.53-.08,1.06-.13,1.59-.19.91-.37,1.82-.74,2.74-1.09,0-2,.21-4,.36-5.92s.34-4.08.56-6.12.47-4,.76-6c.15-1,.78-7.06,1.06-8.67,0-.1.15-.09.15,0,0,1.57-.66,7.79-.73,8.79,0,.73-.11,1.46-.16,2.19l.06-.12.78-1.79c.53-1.2,1.05-2.42,1.46-3.67a.09.09,0,0,1,.17,0c-.37,1.29-.7,2.59-1.11,3.87-.21.63-.43,1.26-.67,1.88a9.37,9.37,0,0,1-.82,1.79l0,0c-.05.6-.09,1.2-.14,1.8-.16,2-.33,4-.48,6-.14,1.84-.2,3.71-.42,5.54,1.88-.71,3.78-1.38,5.66-2.07l2.9-1c1-.36,2.15-.62,3.15-1,.09,0,.16.11.07.14-1,.36-2,.92-3,1.34l-2.82,1.19c-2,.83-4,1.67-6,2.47s-4,1.5-6,2.21l-3,1a19.25,19.25,0,0,1-3,1C572.61,200.86,572.59,200.78,572.64,200.75Z" style="fill:#263238"></path><path d="M561,218.11a35.17,35.17,0,0,1-.56-6.31c0-2.12.09-4.23.23-6.34s.43-4.21.76-6.3l.54-3.12c.23-1,.44-2.06.69-3.09-.19,2.11-.45,4.2-.66,6.29s-.45,4.18-.58,6.28-.32,4.19-.41,6.28c0,1-.07,2.1-.07,3.15S560.91,217.06,561,218.11Z" style="fill:#263238"></path><path d="M598.62,153c-3.31,1-9.41-3.72-12-7.72-.18-.27.24-11.73.09-14,0-.47,14.55,2.51,14.55,2.51a36.64,36.64,0,0,0-.79,8.85C600.54,143,601.81,152.06,598.62,153Z" style="fill:#dd6a57"></path><path d="M601.3,133.82s-.21.94-.42,2.34c-4.37,4.79-10.9,5-14.21,4.69.06-3.56.18-8.19.08-9.54C586.71,130.84,601.3,133.82,601.3,133.82Z" style="fill:#263238"></path><path d="M600.61,143.42l-3.12,8.63-11-10.4-2.87,3.56s10.94,16.75,11,16l3.25-7.46,5.24,4.93-.86-12.8Z" style="fill:#ebebeb"></path><path d="M603.07,152.3c-.21-2.11-.36-4.24-.68-6.33,0-.08-.12-.11-.14,0-.35,2.06.51,10.12.56,12.05l0,0c-.22-.21-4.85-4.33-4.89-4.26-.72,1.2-3.11,6.63-3.27,7.12-1.73-2.66-8.34-12.32-10.37-14.82-.06-.07-.17,0-.12.08,1.54,2.82,10.3,15.83,10.43,15.79A83,83,0,0,0,598,154c.79.91,5.48,5.57,5.48,5.25A64.6,64.6,0,0,0,603.07,152.3Z" style="fill:#263238"></path><path d="M586.34,106.28s-4.7,2-5.56,6.72.21,9.77.63,10S586.34,106.28,586.34,106.28Z" style="fill:#263238"></path><path d="M604.73,112.35c1.65,5.05-.75,19.78-4.31,23.12-5.15,4.85-13.73,5.46-17.89-.76-4-6-.56-25.17,3.42-28.22C591.82,102,602.29,104.88,604.73,112.35Z" style="fill:#dd6a57"></path><path d="M592.13,122s.08,0,.07.09c-.12,1-.08,2.19.81,2.61,0,0,0,.06,0,0C591.89,124.45,591.86,122.89,592.13,122Z" style="fill:#263238"></path><path d="M593.13,121c1.64,0,1.49,3.3,0,3.29S591.75,121,593.13,121Z" style="fill:#263238"></path><path d="M586.66,121.18s-.08,0-.08.09c0,1-.18,2.18-1.12,2.49,0,0,0,.06,0,0C586.6,123.7,586.82,122.15,586.66,121.18Z" style="fill:#263238"></path><path d="M585.8,120.09c-1.63-.19-1.89,3.08-.38,3.26S587.16,120.24,585.8,120.09Z" style="fill:#263238"></path><path d="M592.44,130.12c-.24.24-.49.57-.86.6a2.64,2.64,0,0,1-1.09-.26s-.06,0,0,.06a1.37,1.37,0,0,0,1.29.55,1.08,1.08,0,0,0,.8-.9C592.55,130.11,592.48,130.09,592.44,130.12Z" style="fill:#263238"></path><path d="M587.33,125.89s-.29,1.51-.34,2.23a14.65,14.65,0,0,1,4.11.84c.3.12.32-.14,0-.38a6.12,6.12,0,0,0-3.42-1.05c0-.2.5-2.31.38-2.33a6.41,6.41,0,0,0-1.64.28c.53-3.15,1.56-6.2,2-9.35a.1.1,0,0,0-.19,0,52.14,52.14,0,0,0-2.62,10C585.54,126.45,587,126,587.33,125.89Z" style="fill:#263238"></path><path d="M595.09,118.87a10.9,10.9,0,0,0-1.22-.52,2.15,2.15,0,0,0-1.35-.29.68.68,0,0,0-.47.69,1.72,1.72,0,0,0,1.14,1.28,2.58,2.58,0,0,0,1.79.17A.73.73,0,0,0,595.09,118.87Z" style="fill:#263238"></path><path d="M584,115.65a13.2,13.2,0,0,1,1.25-.44,2.09,2.09,0,0,1,1.36-.21.69.69,0,0,1,.44.71,1.7,1.7,0,0,1-1.22,1.21,2.54,2.54,0,0,1-1.8.07A.73.73,0,0,1,584,115.65Z" style="fill:#263238"></path><path d="M603.17,126.42c-1.81.22-2.89-5.31-3.11-7.41-.18-1.84.22-7.52.2-7.92s-8.39,3.62-12.52,1.59-6.35-6.44-6.09-8.28,6.47-5.51,11.18-4.93,10,7.63,10,7.63a22.47,22.47,0,0,1-1.59-3.14c.11-.2,2.92,1.53,3.1,3.78,0,0-.13-2.8.11-2.81s2.18,2.71,1.34,4.37c0,0,2.31,2.83,2.11,5.45S605.31,126.15,603.17,126.42Z" style="fill:#263238"></path><path d="M584.81,111.23a15,15,0,0,0,3.85,2.19,9.87,9.87,0,0,0,4.83.07,14.89,14.89,0,0,0,4.54-1.72c1.24-.7,2.4-1.61,3.7-2.21.32-.15.59.33.36.57a15.94,15.94,0,0,1-8.91,4.43,9.11,9.11,0,0,1-8.39-3.3S584.79,111.22,584.81,111.23Z" style="fill:#263238"></path><path d="M601.6,125.09s3.33-4.75,5.49-3.56-.35,8.06-2.88,9a2.57,2.57,0,0,1-3.45-1.38Z" style="fill:#dd6a57"></path><path d="M606.32,123.48s0,0,0,.07a6.5,6.5,0,0,0-3.36,4.06,1.41,1.41,0,0,1,2.12-.38s0,.1,0,.09a1.6,1.6,0,0,0-1.75.55,7.15,7.15,0,0,0-.83,1.41c-.09.16-.37.07-.31-.11v0C602.13,126.87,603.89,123.71,606.32,123.48Z" style="fill:#263238"></path><path d="M598.83,122.84c-1.29,0-.6-2.44-.33-3.29a15.44,15.44,0,0,0,.33-2.74,14.81,14.81,0,0,0,.34,2.74C599.44,120.4,600.13,122.84,598.83,122.84Z" style="fill:#fff"></path></g><g id="freepik--character-2--inject-939"><path d="M180.15,437.29c2.22.72,67.68-.1,70.06-1.67.92-.57-3.68-62.16-3.68-62.16l-42.3.42,4.5,41.21s-24.06,11.14-26.51,13.13S177.93,436.58,180.15,437.29Z" style="fill:#774442"></path><path d="M180.15,437.29c2.21.72,67.68-.11,70.06-1.67.43-.26-.32-13.48-1.25-27.65H208l.78,7.11s-24.07,11.14-26.51,13.14S177.92,436.58,180.15,437.29Z" style="fill:#fff"></path><path d="M179.43,438.19c2.33.76,68.43.14,70.95-1.5,1-.6-.43-22.4-.43-22.52H209.06l0,.73s-25.41,11.64-28,13.74S177.09,437.44,179.43,438.19Z" style="fill:#a6a6a6"></path><path d="M179.61,435.6c11.23-.38,56.57-.86,67.7-.38.09,0,.09.06,0,.07-11.12.62-56.47.73-67.7.49C179.37,435.78,179.37,435.61,179.61,435.6Z" style="fill:#263238"></path><path d="M204.28,414.33c4.41-.86,9.83-.24,13.23,2.88.14.12,0,.31-.18.27a62.16,62.16,0,0,0-13-2.59A.28.28,0,0,1,204.28,414.33Z" style="fill:#263238"></path><path d="M201.11,416.29c4.41-.87,9.82-.24,13.23,2.88.13.12,0,.3-.19.26a61.94,61.94,0,0,0-13-2.59A.28.28,0,0,1,201.11,416.29Z" style="fill:#263238"></path><path d="M197.93,418.24c4.42-.87,9.83-.24,13.24,2.88.13.12,0,.31-.19.26a62,62,0,0,0-13-2.58A.28.28,0,0,1,197.93,418.24Z" style="fill:#263238"></path><path d="M203.45,387.34H249a22.65,22.65,0,0,0,1.72-11.2c-1.82-21.84-8.33-68.41-8.06-69.83.46-2.38,3.15-13.15,6.73-27.22,1.12-4.4,2.33-9.12,3.58-14,3.4-13.24,7.14-27.7,10.4-40.28,4.9-18.86,8.72-33.5,8.72-33.5h-38.6s-4.5,14.26-10.17,32.81c-9.23,30.15-21.58,71.65-22.8,81.74-1.48,12.22-2.4,51.53-1.11,70.63A21.22,21.22,0,0,0,203.45,387.34Z" style="fill:#455a64"></path><path d="M205.57,379c6.94-.14,5-.2,11.89-.27,3.4,0,25.74-.22,28.91.3a.07.07,0,0,1,0,.14c-3.17.53-25.51.33-28.91.3-6.94-.07-5-.12-11.89-.27A.1.1,0,0,1,205.57,379Z" style="fill:#263238"></path><path d="M265.07,196.53,258,221.46l-6.9,25c-2.3,8.33-4.52,16.68-6.74,25s-4.4,16.71-6.44,25.11c-.49,2.11-1,4.21-1.41,6.35-.11.53-.18,1.08-.28,1.62,0,.3-.05.62-.05.91l.07.8.25,3.23,1,12.92,2,25.83,1.76,24,0,.27.51-.31-1.48-24-1.9-25.85-1-12.92-.24-3.23-.06-.81c0-.25,0-.46,0-.7.1-.53.17-1,.28-1.57.42-2.1.93-4.2,1.42-6.3,4-16.78,8.56-33.47,12.95-50.17Z" style="fill:#263238"></path><path d="M234.42,191.3c2.68,20.73,12.37,55.17,16.1,83.37,8.7-34.17,21.57-83.37,21.57-83.37Z" style="fill:#263238"></path><path d="M327.44,437c-2.23.7-57.22,1-59.6-.65-.91-.59-1.24-9.86-1.31-21.07v-.36c0-2.31-5.33-41.14-5.33-41.14l41.53.85,4.81,40.79,0,.69s15.51,9.72,17.94,11.75S329.68,436.27,327.44,437Z" style="fill:#774442"></path><path d="M265.76,408c.47,3.71.77,6.36.77,6.91v.36c.07,11.21.39,20.48,1.31,21.07,2.38,1.59,57.37,1.35,59.61.66s.42-7.13-2-9.15-17.94-11.75-17.94-11.75l0-.7-.87-7.4Z" style="fill:#fff"></path><path d="M330.16,438.19c-2.34.76-61.47.14-64-1.5-1-.6.43-22.4.43-22.52h40.89l0,.73s18.44,11.64,21,13.74S332.5,437.44,330.16,438.19Z" style="fill:#a6a6a6"></path><path d="M330,435.6c-11.23-.38-49.61-.86-60.74-.38-.09,0-.09.06,0,.07,11.13.62,49.5.73,60.74.49C330.22,435.78,330.22,435.61,330,435.6Z" style="fill:#263238"></path><path d="M304.17,415.54c-5.6-1.55-12.57-1.54-17.12,1.54-.17.12,0,.35.22.32a87.31,87.31,0,0,1,16.84-1.23A.32.32,0,0,0,304.17,415.54Z" style="fill:#263238"></path><path d="M308.12,418.15c-5.6-1.55-12.57-1.54-17.12,1.54-.17.12,0,.35.22.32a88.05,88.05,0,0,1,16.84-1.23A.32.32,0,0,0,308.12,418.15Z" style="fill:#263238"></path><path d="M312.07,420.76c-5.6-1.54-12.57-1.53-17.12,1.54-.18.12,0,.36.22.33A87.25,87.25,0,0,1,312,421.39C312.42,421.4,312.47,420.88,312.07,420.76Z" style="fill:#263238"></path><path d="M234.42,191.3s5.85,35.67,6.25,36.82c0,0,2.17,1,6.1,2.84,0,0,10.16,111.71,10.16,144.66,0,5.53,3.84,11.54,3.84,11.54l45.76.18s3.38-6.65,3.2-12.47c-1.38-46.31-25.37-183.57-25.37-183.57Z" style="fill:#455a64"></path><path d="M262.34,379c7-.12,5-.18,12-.22,3.43,0,25.91-.12,29.1.42.07,0,.07.14,0,.15-3.2.51-25.68.22-29.1.17-7-.09-5-.14-12-.32A.1.1,0,0,1,262.34,379Z" style="fill:#263238"></path><path d="M238.77,227a85.23,85.23,0,0,1,13.08,6.85c.16.1,0,.36-.14.27-4.41-2.14-8.92-4.21-13.21-6.59A.3.3,0,0,1,238.77,227Z" style="fill:#263238"></path><path d="M240.45,206.57c.72,4.27,1.12,8.61,1.6,12.91.12,1,.24,2.06.35,3.09a6,6,0,0,0,.74,2.72c.93,1.44,2.59,2.11,4.1,2.77.17.08.1.35-.09.29a10.06,10.06,0,0,1-4.35-2.3c-1.37-1.45-1.33-3.65-1.54-5.52a120.33,120.33,0,0,1-1-13.93C240.26,206.49,240.43,206.46,240.45,206.57Z" style="fill:#263238"></path><path d="M245.64,207.88c.15,3.08.5,6.15.75,9.22.13,1.52.23,3,.33,4.55s.27,3.12.22,4.66a.1.1,0,0,1-.19,0c-.25-1.46-.28-3-.4-4.45s-.24-3.11-.32-4.67c-.18-3.1-.26-6.23-.54-9.33C245.48,207.78,245.64,207.79,245.64,207.88Z" style="fill:#263238"></path><polygon points="247.7 235.53 250.16 256.46 252.71 277.39 257.98 319.21 265.32 374.87 258.95 319.08 253.45 277.29 250.63 256.4 247.7 235.53" style="fill:#263238"></polygon><path d="M249.91,140.87c-5.07,8.71-23.87,40.22-36.35,40.71-7.51.3-33.48-11.5-39.27-15.62-6.78-4.81,10.24-21.37,14.83-19.67,5.68,2.09,21.33,10.41,24.9,10.27,3.2-.12,11.94-10.74,28.88-22.76C251.61,127.63,254.28,133.35,249.91,140.87Z" style="fill:#774442"></path><path d="M175,166.42c-2.4-1-13-6.75-15.59-9s-9.59-9.27-8.07-11.43,3.73-.27,3.73-.27-2.48-3.43-.75-5.47,5.07,1,5.07,1-2.29-3.71-.42-5.62,4.72,1.73,4.72,1.73-2.26-3.29-.06-4.22c2.65-1.11,6.13,5.44,9.18,7.71.69.51,14.78,9.44,14.78,9.44Z" style="fill:#774442"></path><path d="M163.39,137.07c2.56,4.81,4.52,6.47,9.18,9.12.09.05,0,.2-.07.15-4.8-2.18-7.55-3.9-9.35-9.15C163.06,136.93,163.26,136.85,163.39,137.07Z" style="fill:#263238"></path><path d="M159.14,140.89c3.11,4.75,5.21,6.57,9.89,9.71.06,0,0,.16-.08.12-4.84-2.69-7.55-4.48-10-9.64C158.82,140.85,159,140.67,159.14,140.89Z" style="fill:#263238"></path><path d="M155.26,145.87c3.34,4.39,5.56,6.49,10.49,8.95a.1.1,0,1,1-.08.18,18.31,18.31,0,0,1-10.53-9C155,145.69,155.05,145.6,155.26,145.87Z" style="fill:#263238"></path><path d="M192.49,149.61s-2.17-6.47-3.76-9.1-11.09-10.26-12.85-8.3c-2.28,2.53,2.34,8,5,10.41,0,0-5.28,5.85-2.81,10.5S192.49,149.61,192.49,149.61Z" style="fill:#774442"></path><path d="M175.48,133.11c-.42,3.8,3.22,6.72,5.58,9.23a.31.31,0,0,1-.08.51c-2,2.6-4.18,6.87-3.17,10.21a.08.08,0,0,1-.15.06c-1.57-3.44.18-7.8,2.61-10.5-2.47-2.54-6-5.63-4.83-9.52C175.45,133.08,175.48,133.08,175.48,133.11Z" style="fill:#263238"></path><path d="M221.82,147.77l17.4,14.36s9.11-11.9,12.64-23.06-5.88-9.47-12.42-4.76S221.82,147.77,221.82,147.77Z" style="fill:#ECEFF1"></path><path d="M240.94,158.42a156.54,156.54,0,0,1-14.73-12.6c-.07,0,0-.15.09-.09,1.25,1.17,8.92,7.21,14.74,12.59C241.1,158.38,241,158.47,240.94,158.42Z" style="fill:#263238"></path><path d="M251.86,139.07c-3.53,11.16-12.64,23.05-12.64,23.05l-8-6.61c4.84-7.3,12.67-19.07,16.57-24.78C251.49,130.35,254,132.45,251.86,139.07Z" style="fill:#263238"></path><path d="M225.9,209.64c1,1.06,62.9,3.1,63.22,2.7.88-1.08-6.9-41.4-13.37-56.84-8.29-19.8-13-21.62-15.88-22.83-3.62-1.54-13.27-1.38-14.88-.73-1.82.73-6.75,9.6-9.18,16.71C230.92,162.94,225,208.7,225.9,209.64Z" style="fill:#ECEFF1"></path><path d="M269.05,146.33c4.28,18.6,8.92,40.69,5.32,48.13-5.45,11.29-22.62,21.22-30.13,24.95-3.13,1.55-18.59-21.14-15.23-22.76,7.17-3.45,22.82-10.4,24-12.36s2.7-21.28,4-36.43C258.59,129.63,266.56,135.56,269.05,146.33Z" style="fill:#774442"></path><path d="M232.79,194.6s-9.35,5-15.32,8.59c-3.32,2-8.72,5.91-10.5,8.49-2.65,3.86-11.29,21.7-7,23.89,3.87,2,9.35-14.29,9.35-14.29s-7,15.93-1.88,17.45,8.85-17.67,8.85-17.67-6.8,16.52-1.29,17.26c4.17.57,8.54-16.64,8.54-16.64s-5.75,14.25-1.49,15c4.7.84,9.74-14.79,9.74-14.79,11.15.12,16.79-3.1,20.22-6.76C252,215.14,239,200.36,232.79,194.6Z" style="fill:#774442"></path><path d="M211.37,215.61c-.89,1.85-1.8,3.7-2.52,5.62s-1.38,3.85-1.91,5.82a34.25,34.25,0,0,0-1.37,7.88c.62-4.72,3.09-11.61,3.81-13.52s1.34-3.86,2.06-5.77C211.46,215.59,211.39,215.57,211.37,215.61Z" style="fill:#263238"></path><path d="M218.33,218.09c-1.75,2.26-4.71,9.79-5.41,14.51,0,.2.07.16.13,0,.85-2.46,4.37-12,5.34-14.46C218.4,218.07,218.35,218.06,218.33,218.09Z" style="fill:#263238"></path><path d="M224.68,219.14a31.6,31.6,0,0,0-3.85,11.36c0,.2.1.13.17-.06,1.2-3.8,2.13-6.79,3.81-11.24C224.83,219.14,224.72,219.07,224.68,219.14Z" style="fill:#263238"></path><path d="M252.92,167.35l22.46-2.12s-1.95-14.86-7.33-25.25-10.85-2.55-12.16,5.4S252.92,167.35,252.92,167.35Z" style="fill:#ECEFF1"></path><path d="M273.66,161.12A157.42,157.42,0,0,1,254.37,163c-.09,0-.09-.12,0-.13,1.72-.09,11.39-1.42,19.29-1.88C273.75,161,273.75,161.1,273.66,161.12Z" style="fill:#263238"></path><path d="M254.19,159.16c.34-2.68.92-6.54,1.11-9.24,0,0-.06,0-.06,0-.32,1.45-.56,2.93-.79,4.41v-.25c0-.79-.12-1.57-.23-2.35,0,0-.05,0-.05,0,0,.8,0,1.6,0,2.4,0,.49.06,1,.11,1.48-.11.79-.43,2.71-.53,3.49-.18,1.31-1.24,8.48-1.1,8.48s2.27-.3,2.68-.33c.12,0,.09-.19,0-.16-.39.1-2.12.21-2.28.22.14-1.36.4-2.73.6-4.09S254,160.51,254.19,159.16Z" style="fill:#263238"></path><path d="M273.17,150.55c0,.7,0,1.39.06,2.08,0,.24,0,.47.08.7-.46-1.6-1-3.19-1.61-4.74a0,0,0,1,0-.06,0c.85,2.68,1.46,5.41,2.06,8.15.29,1.33.56,2.67.81,4,.13.69.25,1.38.39,2.07s.44,2.33.44,2.33c-.39,0-1.69.17-2.15.25-.1,0-.08.11,0,.1.4,0,2.41-.14,2.4-.18-.14-.72-.19-1.61-.29-2.33s-.21-1.33-.33-2c-.24-1.42-.51-2.85-.81-4.26-.17-.78-.36-1.55-.56-2.32,0-.61,0-1.23-.07-1.85s-.12-1.37-.21-2.06C273.32,150.43,273.17,150.46,273.17,150.55Z" style="fill:#263238"></path><path d="M246.3,141.92c3.4,1.18,9.91-3.53,12.71-7.61.19-.28.06-3.44.07-7.29,0-2.33.1-4.93.34-7.3.05-.49-15.22,2.1-15.22,2.1a37.67,37.67,0,0,1,.51,9.24,5.62,5.62,0,0,1-.2,1,1.23,1.23,0,0,0,0,.16C244,134,243,140.78,246.3,141.92Z" style="fill:#774442"></path><path d="M258.5,119.69c-1.1,3.93-4.57,13.35-12.51,12.72a9.06,9.06,0,0,1-1.51-.23.57.57,0,0,1,0-.16,7.08,7.08,0,0,0,.21-1,38.1,38.1,0,0,0-.52-9.25S255.22,120,258.5,119.69Z" style="fill:#263238"></path><path d="M261.11,100.7c1.8,5.23-.44,20.61-4.08,24.15-5.27,5.14-14.18,5.93-18.62-.47-4.29-6.21-1-26.2,3.07-29.45C247.5,90.15,258.44,93,261.11,100.7Z" style="fill:#774442"></path><path d="M247.16,110.63s.07.06.07.11c-.18,1-.21,2.24.68,2.72,0,0,0,.06,0,.05C246.77,113.19,246.82,111.58,247.16,110.63Z" style="fill:#263238"></path><path d="M248.24,109.68c1.68.11,1.34,3.47-.22,3.37S246.82,109.59,248.24,109.68Z" style="fill:#263238"></path><path d="M241.18,110s-.09,0-.09.09c-.08,1-.33,2.23-1.31,2.48,0,0,0,.06,0,.06C241,112.6,241.27,111,241.18,110Z" style="fill:#263238"></path><path d="M240.36,108.84c-1.67-.3-2.14,3-.6,3.33S241.75,109.09,240.36,108.84Z" style="fill:#263238"></path><path d="M249.72,108.28c-.45-.16-.83-.39-1.26-.59a2.22,2.22,0,0,1-1.16-.85.71.71,0,0,1,.2-.85,1.76,1.76,0,0,1,1.79,0,2.6,2.6,0,0,1,1.38,1.27A.76.76,0,0,1,249.72,108.28Z" style="fill:#263238"></path><path d="M239.23,107c.47,0,.9-.14,1.37-.21a2.25,2.25,0,0,0,1.35-.49.71.71,0,0,0,.05-.87,1.77,1.77,0,0,0-1.72-.51,2.63,2.63,0,0,0-1.68.83A.76.76,0,0,0,239.23,107Z" style="fill:#263238"></path><path d="M246.73,120.39c-.28.22-.56.53-.94.52a2.62,2.62,0,0,1-1.09-.37s-.07,0-.06,0a1.45,1.45,0,0,0,1.27.7,1.12,1.12,0,0,0,.91-.84A.06.06,0,0,0,246.73,120.39Z" style="fill:#263238"></path><path d="M246,117.16a3.57,3.57,0,0,1-2.53,1.34,4.59,4.59,0,0,1-1.28-.07l-.24-.05-.23-.06a.26.26,0,0,1-.18-.26h0a.43.43,0,0,1,0-.11h0v-.09c.06-.8.26-2,.26-2-.31.11-1.87.64-1.8.22a52.75,52.75,0,0,1,2.46-10.6.09.09,0,0,1,.18.05c-.4,3.33-1.39,6.58-1.85,9.92a6.44,6.44,0,0,1,1.73-.34c.11,0-.43,2.33-.43,2.7v0a5,5,0,0,0,3.79-.77C245.94,117,246,117.08,246,117.16Z" style="fill:#263238"></path><path d="M242.64,118.13a4.29,4.29,0,0,0,1.62,1.41,1.87,1.87,0,0,0,1.15.13c.85-.17.91-.93.79-1.6a4.58,4.58,0,0,0-.31-1A5.51,5.51,0,0,1,242.64,118.13Z" style="fill:#263238"></path><path d="M244.26,119.54a1.87,1.87,0,0,0,1.15.13c.85-.17.91-.93.79-1.6A2,2,0,0,0,244.26,119.54Z" style="fill:#ff9bbc"></path><path d="M261.34,111.86c-1-.59-2.86-4.2-3.67-5.68s-.37-8.46-.18-10.52a11,11,0,0,1,3.62,5C261.92,103,261.92,107.42,261.34,111.86Z" style="fill:#263238;opacity:0.2"></path><path d="M243.62,100.07a5.38,5.38,0,0,0,4.7,2.33,5.49,5.49,0,0,0,4.55-2.81s.11,0,.08,0a5.43,5.43,0,0,1-4.6,3.21,5.55,5.55,0,0,1-4.84-2.7A.07.07,0,0,1,243.62,100.07Z" style="fill:#263238"></path><path d="M250.57,87.43a8.5,8.5,0,0,1,6.67,4.65,6,6,0,0,1,.17,4s-.12,0-.11,0a6.64,6.64,0,0,0-2.48-6.3,8.55,8.55,0,0,0-7.43-1.7,5.4,5.4,0,0,0-3.13,2c-.08.1-.3,0-.24-.1C245.07,88.11,247.76,87.07,250.57,87.43Z" style="fill:#263238"></path><path d="M231.82,92.25a6.87,6.87,0,0,1,3.31-3.37c2-1,4.16-.58,6.28-.13a0,0,0,0,1,0,.09,9.4,9.4,0,0,0-5.41,0,6.72,6.72,0,0,0-3.46,2.95,6.59,6.59,0,0,0,1.85,8.43,6.68,6.68,0,0,0,5.2,1.09c.07,0,.11.1,0,.11a6.82,6.82,0,0,1-7.94-4.26A6.9,6.9,0,0,1,231.82,92.25Z" style="fill:#263238"></path><path d="M261.72,103.93s3.52-5.25,1.38-8.72c-1.22-2-5.88-2.19-5.88-2.19a8.39,8.39,0,0,0-5-4.09c-3.79-1.28-8.64.52-8.64.52s-3.47-2.48-7.12-.86c-5.09,2.26-5.23,9.66-.63,12.5,3.24,2,8.16-.54,8.16-.54.44.1,4.71,3.31,8.56-.4,0,0,2.55,2.76,5.23,1.27A4.08,4.08,0,0,0,261.72,103.93Z" style="fill:#263238"></path><path d="M258.29,113.27s3.38-5,5.64-3.81-.22,8.41-2.84,9.43a2.67,2.67,0,0,1-3.61-1.38Z" style="fill:#774442"></path><path d="M263.17,111.51a0,0,0,0,1,0,.07c-1.83.78-2.77,2.51-3.43,4.3a1.48,1.48,0,0,1,2.21-.44c.05,0,0,.11,0,.1a1.64,1.64,0,0,0-1.8.6,7.48,7.48,0,0,0-.85,1.48c-.08.17-.38.08-.32-.11v0C258.87,115.12,260.65,111.79,263.17,111.51Z" style="fill:#263238"></path></g><g id="freepik--character-3--inject-939"><path d="M309.27,447.85c2.24.73,66.35.14,68.77-1.44.93-.58,1.39-9.93,1.62-21.24v-.35c.06-2.33.09-4.73.11-7.16,0-.34-2.94-34.26-2.94-34.26l-41.9.27,3.14,34.25.23,6.82,0,.71s-24.43,11.2-26.92,13.21S307,447.12,309.27,447.85Z" style="fill:#d3766a"></path><path d="M379.52,431c-.27,8.52-.71,14.9-1.48,15.38-2.42,1.56-66.53,2.17-68.78,1.43s-.32-7.19,2.15-9.18a95.39,95.39,0,0,1,10-5.27c-2.51,2.73-3.78,5.75,2.95,5.75C336.33,439.15,357.21,437.18,379.52,431Z" style="fill:#263238"></path><path d="M336.27,424.16h46.17s-9.3-107.82-8.94-109.7c.46-2.42,3.19-13.33,6.82-27.59,1.13-4.46,2.36-9.25,3.64-14.21,3.44-13.41,7.23-28.07,10.54-40.83,5-19.11,8.83-34,8.83-34H364.21s-4.56,14.46-10.31,33.27C344.54,261.7,332,303.77,330.79,314,328.79,330.51,336.27,424.16,336.27,424.16Z" style="fill:#a6a6a6"></path><path d="M338.31,416.29c7.05-.15,5-.21,12.08-.28,3.45,0,26.13-.23,29.35.31a.07.07,0,0,1,0,.14c-3.22.54-25.9.34-29.35.3-7.05-.06-5-.12-12.08-.27A.1.1,0,0,1,338.31,416.29Z" style="fill:#263238"></path><path d="M364.82,307.87c1.51-6.68,3.77-13.22,5.74-19.77q6-20,12.08-39.91,3-10,6.09-19.94,1.54-5,3.11-10.05c1-3.28,2.2-6.53,3.12-9.83.38-1.35.59-.61.1,1.1-1,3.44-1.93,6.89-2.94,10.32q-3,10.22-6,20.4-6,20.3-12.11,40.54-3,10.17-6.11,20.32a85.25,85.25,0,0,0-2.5,9.83,45.64,45.64,0,0,0-.4,10.51c.44,7.07,1.26,14.12,1.91,21.16s1.31,14.13,2,21.19q2,21.08,3.87,42.16c.16,1.78.31,3.56.45,5.35.05.59-.37.67-.44.09-1.52-13.89-3.16-27.95-4.47-41.87s-2.6-27.7-3.89-41.55c-.33-3.47-.7-7-.7-10.45A43.06,43.06,0,0,1,364.82,307.87Z" style="fill:#263238"></path><path d="M368.65,197.87c2.71,21,7.89,60.42,11.67,89,8.82-34.63,23-89,23-89Z" style="fill:#263238"></path><path d="M359,447.85c2.24.73,66.35.14,68.77-1.44.93-.58,1.39-9.93,1.62-21.24v-.35c.06-2.33.09-4.73.11-7.16,0-.34,0-.67,0-1,.15-16.32-1-33.25-1-33.25l-41.91.27,1.17,32.95,0,1.3.23,6.82,0,.71s-24.44,11.2-26.92,13.21S356.79,447.12,359,447.85Z" style="fill:#d3766a"></path><path d="M429.29,431c-.27,8.52-.71,14.9-1.48,15.38-2.42,1.56-66.53,2.17-68.78,1.43s-.32-7.19,2.15-9.18a95.39,95.39,0,0,1,10-5.27c-2.51,2.73-3.78,5.75,2.95,5.75C386.1,439.15,407,437.18,429.29,431Z" style="fill:#263238"></path><path d="M365.47,197.87s.9,18.72,5.19,33.55c.34,1.23.71,2.43,1.12,3.59a69.88,69.88,0,0,1,11.27,5.79s.45,15.07.91,31.86c.5,18.78,1,39.73.91,44.17-.4,16.62,2.08,108,2.08,108l46.15.19S424.76,323,424.82,316.88c.08-9.79-2.24-53-4-84.59a249.15,249.15,0,0,0-4.32-34.42Z" style="fill:#a6a6a6"></path><path d="M388.53,416.63c7.05-.12,5-.18,12.08-.22,3.45,0,26.12-.12,29.34.43a.07.07,0,0,1,0,.14c-3.22.52-25.9.23-29.35.18-7.05-.1-5-.15-12.07-.33A.1.1,0,1,1,388.53,416.63Z" style="fill:#263238"></path><path d="M414.91,204.56c.85,25.75,1.75,51.51,2.9,77.25s7.22,118.27,8.77,132.64c0,.09-.14.13-.15,0-3.36-25.55-5.23-63.36-6.89-89.06s-2.77-51.45-3.64-77.19c-.5-14.56-.88-29.12-1.31-43.68C414.58,204.34,414.9,204.36,414.91,204.56Z" style="fill:#263238"></path><path d="M369.86,233.89a86.68,86.68,0,0,1,13.19,6.91.16.16,0,0,1-.14.28c-4.45-2.17-9-4.25-13.32-6.66A.3.3,0,0,1,369.86,233.89Z" style="fill:#263238"></path><path d="M369.6,218c.3,1.64.7,3.27,1.06,4.9s.57,3.09,1,4.6a7.79,7.79,0,0,0,2.14,3.86c.6.56,1.26,1,1.9,1.56.35.28.72.54,1.08.82q-.08-.33-.12-.66c-.11-.62-.22-1.24-.32-1.87-.24-1.38-.46-2.76-.67-4.15-.41-2.72-.8-5.47-1.37-8.17,0-.11.15-.15.17,0,.68,2.67,1.43,5.31,2,8,.29,1.32,1.33,7.84,1.37,8.3s.09,1,.1,1.43a5.57,5.57,0,0,1,0,1.47c0,.12-.18.1-.23,0h0a5.6,5.6,0,0,1-.42-1.41c-.12-.47-.22-.94-.31-1.42,0-.17-.05-.34-.07-.52-.65-.39-1.24-.9-1.84-1.34s-1.31-.92-1.92-1.44a7.27,7.27,0,0,1-2.35-3.66,26.4,26.4,0,0,1-.76-4.68c-.21-1.86-.36-3.72-.62-5.57C369.41,217.94,369.58,217.9,369.6,218Z" style="fill:#263238"></path><path d="M349.41,170.8l7.2,1.54a22.57,22.57,0,0,0,4.83-12.84c.08-1.07,1.41,5.4-1.17,13.63,7.6,1.64,17.94,3.85,27,5.71.84-3.51,1.79-6.73,1.79-6.73a40.31,40.31,0,0,0,.17,7.14l3.62.73a140.66,140.66,0,0,1,3.54-15A49.11,49.11,0,0,0,398,181c5.76,1.12,9.57,1.74,9.38,1.43-6.82-11.66.65-16.2-.15-25.47-1-11.12-9.75-14.52-8-22.39,1.42-6.41,4.45-17.95-3.22-22a16,16,0,0,0-16.41-6.5c-13.8,2.48-12.48,23.33-14.13,27.21-2.35,5.54-5.48,7.05-8.79,13.25s-1.16,11.27-1.67,15.85S348,170.51,349.41,170.8Z" style="fill:#263238"></path><path d="M407.9,181.05a23,23,0,0,1-1.72-6.18,12,12,0,0,1,1.17-6.05,64.11,64.11,0,0,0,2.27-6.16,17.26,17.26,0,0,0,.63-6.76,15.08,15.08,0,0,0-2.39-6.38,39.66,39.66,0,0,0-4.15-5.14,24.34,24.34,0,0,1-3.77-5.11,11.82,11.82,0,0,1-1.22-6.2,11,11,0,0,0,.5,6.52,22.14,22.14,0,0,0,3.51,5.62,49.87,49.87,0,0,1,3.79,5.14,14.26,14.26,0,0,1,2,5.75,16.78,16.78,0,0,1-.54,6.12c-.51,2-1.28,4-2,6.13a22.74,22.74,0,0,0-.83,3.25,9.52,9.52,0,0,0,.11,3.41A18.7,18.7,0,0,0,407.9,181.05Z" style="fill:#263238"></path><path d="M371,112.09a33,33,0,0,0-3.21,7.36c-.82,2.55-1.52,5.14-2.19,7.72l-1,3.85a19.18,19.18,0,0,1-1.3,3.62,21,21,0,0,1-4.78,6,29.79,29.79,0,0,0-2.75,3,18.67,18.67,0,0,0-2.17,3.58,29.53,29.53,0,0,0-1.33,3.91,17.85,17.85,0,0,0-.55,4.12c0,1.39.12,2.73.2,4a20.28,20.28,0,0,1-.12,3.9,8.17,8.17,0,0,1-4.42,6,8.33,8.33,0,0,0,5.24-5.9,20,20,0,0,0,.42-4.07c0-1.36-.06-2.68,0-4a21.3,21.3,0,0,1,2-7.39,18.52,18.52,0,0,1,2-3.22,28.21,28.21,0,0,1,2.64-2.86,39.85,39.85,0,0,0,2.79-3,16.48,16.48,0,0,0,2.25-3.54A20.58,20.58,0,0,0,366,131.4c.33-1.3.6-2.61.87-3.92.56-2.61,1.07-5.22,1.69-7.8A38.9,38.9,0,0,1,371,112.09Z" style="fill:#263238"></path><path d="M384.2,160.33c-14.64,16.09-26.54,23.82-38.3,23.82-11.18,0-35.07-27.14-36.82-30.72-1.51-3.09,18.1-20,21.11-17.89,5.05,3.52,21.39,23.91,23.12,24s8.09-4.12,23.43-11.3C386,143.9,394.34,149.18,384.2,160.33Z" style="fill:#d3766a"></path><path d="M311.33,156.11c-2.17-2.34-11.17-13.94-12.95-17.73s-6.11-15.06-3.35-16.72,4.3,1.54,4.3,1.54-1.08-5,1.85-6.47,5.16,3.64,5.16,3.64-.73-5.27,2.3-6.47,4.41,4.25,4.41,4.25-.89-4.78,2-4.72c3.5.07,4.14,9.07,6.42,13.11.52.91,11.82,17.82,11.82,17.82Z" style="fill:#d3766a"></path><path d="M312.92,117.69c.49,6.62,1.85,9.43,5.73,14.69.08.1-.06.24-.15.14-4.27-4.8-6.48-8.09-5.9-14.82C312.62,117.37,312.89,117.37,312.92,117.69Z" style="fill:#263238"></path><path d="M306.31,119.84c1.11,6.84,2.55,9.9,6.22,15.7.05.09-.08.18-.14.1-4.07-5.39-6.21-8.71-6.42-15.69C306,119.64,306.26,119.53,306.31,119.84Z" style="fill:#263238"></path><path d="M299.52,123.49c1.55,6.54,3,10,7.28,15.14a.12.12,0,0,1-.18.17c-4.88-4.86-6.71-9.12-7.29-15.24C299.29,123.14,299.42,123.08,299.52,123.49Z" style="fill:#263238"></path><path d="M338.34,146s-.14-8.32-1-12-9.11-16-11.88-14.39c-3.59,2.1-.24,10.18,1.92,13.93,0,0-8.29,4.85-7.14,11.17S338.34,146,338.34,146Z" style="fill:#d3766a"></path><path d="M324.65,120.5c-1.88,4.27,1.27,9,3.09,12.79a.38.38,0,0,1-.29.56c-3.34,2.27-7.38,6.44-7.44,10.7a.1.1,0,0,1-.19,0c-.57-4.57,3.08-9,6.89-11.24-1.93-3.86-4.87-8.74-2.1-12.84C324.63,120.46,324.66,120.48,324.65,120.5Z" style="fill:#263238"></path><path d="M359,154.86l11.75,21.92s15.93-15.47,18.47-21.92-.2-11.13-11.53-7.68A99.78,99.78,0,0,0,359,154.86Z" style="fill:#455a64"></path><path d="M373.43,172.2c-.58-1.19-1.09-2.41-1.69-3.6s-1.21-2.34-1.84-3.5c-1.26-2.34-2.53-4.68-3.86-7q-1.12-2-2.36-3.84c0-.05-.14,0-.11,0,2.16,4.82,4.77,9.45,7.38,14,.75,1.33,1.61,2.6,2.4,3.9C373.38,172.31,373.46,172.26,373.43,172.2Z" style="fill:#263238"></path><path d="M389.19,154.87c-2.55,6.45-18.47,21.91-18.47,21.91L362.8,162l26.11-14.44C390.41,149.17,390.39,151.82,389.19,154.87Z" style="fill:#263238"></path><path d="M420.16,206.35c-1.85.86-58.9-2.24-58.9-2.24l6.29-19.75s-3.59-5.7-3.19-11.8a9.38,9.38,0,0,1,.38-1.95c.08-.28.18-.56.28-.87,1.72-4.81,6.39-11.72,10.25-16.45a37.73,37.73,0,0,1,4.12-4.47c4.22-3.61,8.54-4.09,12.59-2.53h0a18.13,18.13,0,0,1,5.07,3.1,38.26,38.26,0,0,1,8.88,11.68c2.54,4.88,5.05,11.93,7.23,19,.08.25.15.5.22.74C417.32,193.64,420.16,206.35,420.16,206.35Z" style="fill:#455a64"></path><path d="M372.71,156.6c-1.21,1.82-2.53,3.57-3.79,5.36.53-1.28,1.06-2.57,1.64-3.83,0,0,0,0,0,0a26.53,26.53,0,0,0-2.23,4.77,37.09,37.09,0,0,0-2.55,4.23,17.43,17.43,0,0,0-1.84,5.62,14.51,14.51,0,0,0,.56,5.89,38.51,38.51,0,0,0,2.65,6.33c.14.27.52,0,.41-.23-1.49-3.59-3.14-7.37-2.79-11.35s2.35-7.47,4.3-10.81a55.05,55.05,0,0,1,3.81-5.87C372.9,156.61,372.77,156.52,372.71,156.6Z" style="fill:#263238"></path><path d="M395.25,148H380.39c.41-.3.82-.57,1.23-.82h12.3C394.37,147.45,394.81,147.72,395.25,148Zm3.59,3H377.19c-.23.26-.47.53-.71.82h23.14C399.37,151.57,399.1,151.3,398.84,151Zm3.25,3.82H374l-.63.82h29.28C402.49,155.39,402.29,155.12,402.09,154.85Zm2.52,3.83h-33.4l-.56.82h34.43C404.93,159.22,404.78,159,404.61,158.68Zm2.05,3.83h-38l-.5.82H407C406.92,163.05,406.79,162.78,406.66,162.51Zm1.69,3.82H366.53c-.14.28-.28.55-.4.82h42.55Zm1.49,3.83h-45c-.05.15-.1.3-.14.45s-.07.25-.1.37h45.51C410,170.71,409.94,170.43,409.84,170.16ZM411.2,174H364.34a7.52,7.52,0,0,0,.05.82h47.09C411.39,174.53,411.29,174.26,411.2,174Zm1.26,3.83H364.88c.06.28.14.55.22.82h47.62C412.63,178.35,412.55,178.08,412.46,177.81Zm1.19,3.83H366.17c.13.29.25.57.37.82H413.9C413.81,182.19,413.73,181.91,413.65,181.64Zm1.12,3.82H367.2l-.26.82H415Zm1.09,3.83H366l-.26.82h50.36C416,189.84,415.93,189.57,415.86,189.29Zm1,3.82H364.76l-.26.82h52.6Zm1,3.83H363.54l-.26.82h54.81Zm1,3.83H362.32l-.26.82h57C419,201.33,418.91,201.05,418.84,200.77Zm.91,3.82H370.37c4.58.24,10.45.53,16.54.82h33C419.89,205.18,419.83,204.9,419.75,204.59Z" style="fill:#263238"></path><path d="M390,148.24c-.26,1-5.23,7.32-9.79,7C378.71,155.08,379,147,379,147l-.12-.61-1.61-8.47,10.08-6,1.45-.79s.29,2.34.62,5.27c0,.13,0,.27.05.41l.06.48c.05.43.11.88.15,1.33s.07.66.1,1l.09,1.06A55.44,55.44,0,0,1,390,148.24Z" style="fill:#d3766a"></path><path d="M389.42,136.34a17.28,17.28,0,0,1-10.54,10l-1.61-8.47,10.08-6,1.45-.79S389.09,133.41,389.42,136.34Z" style="fill:#263238"></path><path d="M365.66,123.29c-3,14.83,5.59,18.28,8.79,18.92,2.91.57,12.87,2.17,17.35-12.28s-1.49-20.52-8.06-22.19S368.62,108.45,365.66,123.29Z" style="fill:#d3766a"></path><path d="M368.22,122.46a8.93,8.93,0,0,0,1-.08,1.76,1.76,0,0,0,1.05-.29.54.54,0,0,0,.08-.65,1.32,1.32,0,0,0-1.26-.48,2,2,0,0,0-1.31.53A.57.57,0,0,0,368.22,122.46Z" style="fill:#263238"></path><path d="M378.3,123.38c-.35-.09-.65-.23-1-.35a1.63,1.63,0,0,1-.94-.54.53.53,0,0,1,.09-.65,1.31,1.31,0,0,1,1.34-.14,1.91,1.91,0,0,1,1.13.84A.57.57,0,0,1,378.3,123.38Z" style="fill:#263238"></path><path d="M375.72,126s.07.06.06.1c-.18,1-.23,2.21.64,2.69,0,0,0,.06,0,0C375.3,128.49,375.38,126.91,375.72,126Z" style="fill:#263238"></path><path d="M376.79,125.05c1.65.13,1.29,3.43-.25,3.32S375.4,125,376.79,125.05Z" style="fill:#263238"></path><path d="M377.42,125.3c.26.22.51.58.85.66s.75-.23,1.05-.53c0,0,.05,0,.05,0-.06.63-.38,1.26-1.07,1.27s-1-.59-1.1-1.24C377.19,125.38,377.31,125.21,377.42,125.3Z" style="fill:#263238"></path><path d="M370.08,124.86s-.08,0-.08.08c-.08,1-.34,2.19-1.3,2.44a0,0,0,0,0,0,.05C369.85,127.39,370.18,125.84,370.08,124.86Z" style="fill:#263238"></path><path d="M369.28,123.69c-1.63-.29-2.11,3-.59,3.27S370.65,123.94,369.28,123.69Z" style="fill:#263238"></path><path d="M368.56,123.81c-.28.14-.58.42-.9.39s-.58-.42-.76-.79c0,0,0,0,0,0-.11.63,0,1.32.59,1.52s1-.29,1.26-.89C368.74,123.94,368.68,123.75,368.56,123.81Z" style="fill:#263238"></path><path d="M374.78,134.63c-.26.22-.53.54-.9.55a2.83,2.83,0,0,1-1.09-.34s-.07,0-.05,0a1.38,1.38,0,0,0,1.27.65,1.1,1.1,0,0,0,.87-.86C374.9,134.62,374.82,134.6,374.78,134.63Z" style="fill:#263238"></path><path d="M371,130.41s-.4,1.5-.49,2.22c0,.06.16.12.4.16h0a3.46,3.46,0,0,0,3.48-.87c.06-.06,0-.15-.09-.11a5.22,5.22,0,0,1-3.24.51c0-.21.77-2.55.66-2.57a6.31,6.31,0,0,0-1.68.16c.74-3.15,2-6.15,2.67-9.3a.1.1,0,0,0-.18-.07,52.82,52.82,0,0,0-3.31,9.9C369.11,130.85,370.66,130.49,371,130.41Z" style="fill:#263238"></path><path d="M371,132.54a4.14,4.14,0,0,0,1.41,1.57,1.88,1.88,0,0,0,1.11.28c.85-.06,1-.8,1-1.47a4.41,4.41,0,0,0-.18-1A5.42,5.42,0,0,1,371,132.54Z" style="fill:#263238"></path><path d="M372.4,134.11a1.88,1.88,0,0,0,1.11.28c.85-.06,1-.8,1-1.47A1.94,1.94,0,0,0,372.4,134.11Z" style="fill:#ff9bbc"></path><path d="M391.7,130.75a6.27,6.27,0,0,1-3.25-5.26,16.34,16.34,0,0,1-6.38-5.67c.09.32.71,2.61,1.07,3.77-9.53-2.27-12.15-9.77-12.15-9.77a16.63,16.63,0,0,0-4.48,5.89s.21-5.9,3.44-9.7a9.5,9.5,0,0,1,9-3.49A13.6,13.6,0,0,1,392,111.25C397.9,118.36,391.7,130.75,391.7,130.75Z" style="fill:#263238"></path><path d="M375.91,121.64a17.94,17.94,0,0,0,4.84,2s0,0,0,0a15.07,15.07,0,0,1-6.84-4.61,14.39,14.39,0,0,1-1.94-3,10,10,0,0,1-1.1-3.73c0-.1-.15-.09-.14,0a11.52,11.52,0,0,0,.57,3.83,10.62,10.62,0,0,0,2,3.29,12.56,12.56,0,0,0,2.63,2.19" style="fill:#263238"></path><path d="M389.21,130.6s3.8-4.33,5.8-2.93-1.22,7.94-3.82,8.59a2.55,2.55,0,0,1-3.26-1.74Z" style="fill:#d3766a"></path><path d="M394,129.52a0,0,0,0,1,0,.07,6.48,6.48,0,0,0-3.77,3.65,1.41,1.41,0,0,1,2.14-.15c.05,0,0,.11-.05.09a1.59,1.59,0,0,0-1.79.36,7.33,7.33,0,0,0-1,1.3c-.1.14-.38,0-.3-.14l0,0C389.53,132.42,391.62,129.48,394,129.52Z" style="fill:#263238"></path><path d="M399.47,152.56c6.53,7.53,24.82,34.8,20.58,42.17-4.07,7.07-13.3,9.06-18.61-.43-3.81-6.8-10.25-27.06-11.85-36.77C388.3,149.65,393.44,145.59,399.47,152.56Z" style="fill:#d3766a"></path><path d="M393.37,176.7,415,168.75S402.86,152.14,397.27,149s-10.24-1.26-8.53,9.59A91.43,91.43,0,0,0,393.37,176.7Z" style="fill:#455a64"></path><path d="M411.15,165.67c-1.16.38-2.36.69-3.52,1.09s-2.31.81-3.45,1.23c-2.32.87-4.63,1.73-6.92,2.65-1.28.52-2.56,1.08-3.82,1.67a.05.05,0,0,0,0,.1c4.7-1.35,9.28-3.15,13.83-4.95,1.32-.52,2.59-1.15,3.89-1.7A0,0,0,0,0,411.15,165.67Z" style="fill:#263238"></path><path d="M394.59,176.2a8.15,8.15,0,0,0-1.25.38,81.75,81.75,0,0,1-2.31-8.34c-.65-2.87-1.19-5.78-1.86-8.65a.08.08,0,0,0-.15,0c.21,1.59.45,3.18.73,4.76-.29-.75-.57-1.52-.82-2.28,0,0-.08,0-.07,0a24.76,24.76,0,0,0,1,2.82c.23,2.94,2.91,12.31,3,12.27.43-.2,1.39-.66,1.79-.92C394.68,176.25,394.64,176.19,394.59,176.2Z" style="fill:#263238"></path><path d="M383.89,120.75,377.74,147c-.27.78.13,1.39.88,1.38l11.76,2.4a2.22,2.22,0,0,0,1.85-1.43l6.15-26.28c.27-.77-.13-1.39-.88-1.37l-11.76-2.4A2.2,2.2,0,0,0,383.89,120.75Z" style="fill:#a6a6a6"></path><path d="M384.9,120.89l-6.15,26.28c-.27.78.13,1.39.88,1.38l11.75,2.39a2.17,2.17,0,0,0,1.85-1.42l6.16-26.28c.27-.77-.13-1.39-.88-1.37l-11.76-2.4A2.19,2.19,0,0,0,384.9,120.89Z" style="fill:#dbdbdb"></path><path d="M388.62,122a1.15,1.15,0,1,1-1.14-1.15A1.13,1.13,0,0,1,388.62,122Z" style="fill:#263238"></path><path d="M404.58,196.68c3.82,7.09,13.94,3,15.47-2,3.6-11.69,1.37-31.13-.78-42-.69-3.5-24.41,0-24.27,3.77C395.17,161.08,397.08,182.77,404.58,196.68Z" style="fill:#d3766a"></path><path d="M419,157.93a36.86,36.86,0,0,0,.21-15.67c-1.25-5.65-5.33-17.64-21.74-23-3.9-1.27-10.34-.32-4.74,4.06,4,3.12,7.44,3.89,9.43,6.13,0,0-8.06,2.18-9.18,6.13a75.52,75.52,0,0,0-2.2,10.53,16.34,16.34,0,0,0,1.94.58,15.64,15.64,0,0,0,2.27,9.83Z" style="fill:#d3766a"></path><path d="M417.17,137.05c-2.44-1.8-7.67-5.52-13-7.09-5.93-1.73-17.83-3.47-19.06.92-.91,3.22,3.57,4.29,3.57,4.29s-5.07.31-5.25,3.4c-.16,2.82,3.36,3.43,3.36,3.43s-3,.73-2.68,3.47c.43,3.3,6.74,1.24,10.07,4.2C394.9,150.34,417.17,137.05,417.17,137.05Z" style="fill:#d3766a"></path><path d="M403.37,136.54a24.61,24.61,0,0,0-14.62-1.46c-.12,0-.16.14,0,.13a60.78,60.78,0,0,1,14.64,1.39S403.39,136.55,403.37,136.54Z" style="fill:#263238"></path><path d="M401.44,142.48c-2.33-.91-9.21-2.14-14.67-.59-.12,0-.16.15,0,.14a64.73,64.73,0,0,1,14.7.51A0,0,0,0,0,401.44,142.48Z" style="fill:#263238"></path><path d="M402.41,191.75c-.17-.57-.35-1.15-.54-1.71-.38-1.16-.72-2.34-1.06-3.51-.7-2.37-1.37-4.75-1.95-7.15a125.9,125.9,0,0,1-2.64-14.54c-.17-1.36-.3-2.71-.46-4.07s-.19-2.76-.45-4.11c0-.07-.69-1.11-1-1.62a13.55,13.55,0,0,1-.73-1.65,15.66,15.66,0,0,1-.9-3.58c0-.05-.07,0-.07,0a11.37,11.37,0,0,0,.52,4.1,7.3,7.3,0,0,0,1.83,3c0,.18,0,2.34.1,3.58s.19,2.43.32,3.65c.28,2.44.62,4.87,1.05,7.29A111,111,0,0,0,400,185.84c0,.07,0,.15.07.23s0,.35,0,.53a9.5,9.5,0,0,0,.11,1.3,12.91,12.91,0,0,0,.63,2.52,0,0,0,0,0,.09,0,16.09,16.09,0,0,1-.43-2.59c0-.3-.07-.6-.1-.9.32,1,.66,1.91,1,2.86.23.66.48,1.3.75,1.94s.48,1.27.8,1.87c0,.05.09,0,.08,0C402.83,192.93,402.59,192.35,402.41,191.75Z" style="fill:#263238"></path></g><g id="freepik--character-1--inject-939"><path d="M206.17,450.46c-2.17.65-63.45-1.41-65.73-3-.88-.58-1.1-9.53-1.05-20.35v-.33c0-2.23,0-4.53.07-6.85,0-.33,0-.65,0-1,.24-15.61.82-31.8.82-31.8l40.47,1-1.36,31.73-.07,1.25-.39,6.52,0,.67s23.1,11.28,25.43,13.26S208.33,449.82,206.17,450.46Z" style="fill:#eb9481"></path><path d="M189,432.69c-.15-.05-.22-.09-.24-.13Z" style="fill:#ECEFF1"></path><path d="M207.36,450.89c-1.43.42-28-.31-47.25-1.32-4.46-.24-8.54-.49-11.84-.73-4.53-.36-7.57-.7-8.06-1-.83-.58-1.35-25.62-1-28.56l40.41,1.34-.07,7.71s23.6,11.54,26,13.56S209.56,450.22,207.36,450.89Z" style="fill:#ECEFF1"></path><path d="M206,448.34c-10.49-.62-52.83-2.12-63.24-1.93-.08,0-.09.06,0,.06,10.38.84,52.73,2,63.23,2C206.18,448.51,206.19,448.35,206,448.34Z" style="fill:#263238"></path><path d="M180.5,426c-4.11-.91-9.18-.45-12.43,2.38-.13.11,0,.29.16.25a58.86,58.86,0,0,1,12.23-2.11A.26.26,0,0,0,180.5,426Z" style="fill:#263238"></path><path d="M183.42,427.9c-4.11-.91-9.18-.45-12.43,2.38-.13.11,0,.29.16.25a58.21,58.21,0,0,1,12.23-2.11A.26.26,0,0,0,183.42,427.9Z" style="fill:#263238"></path><path d="M186.33,429.8c-4.1-.91-9.17-.45-12.43,2.38-.12.11,0,.29.17.25a58.21,58.21,0,0,1,12.23-2.11A.26.26,0,0,0,186.33,429.8Z" style="fill:#263238"></path><path d="M189.25,431.7c-4.1-.92-9.17-.45-12.43,2.38-.12.11,0,.29.17.25a57.57,57.57,0,0,1,12.23-2.11A.26.26,0,0,0,189.25,431.7Z" style="fill:#263238"></path><path d="M188.45,416.71c-1.55-2.29-4.6-1.38-6.38,0a22,22,0,0,0-6.68,9.25c0,.08,0,.13.09.15,0,.31.28.65.63.54,3.46-1.15,7.29-1.95,10.29-4.12C188.15,421.26,189.91,418.88,188.45,416.71ZM181,423.84c-1.68.6-3.39,1.12-5.05,1.79,1.31-1.8,2.54-3.65,4-5.31a24.54,24.54,0,0,1,2.27-2.29c1.27-1.08,6.22-3.29,5.33,1.22C187.08,421.73,183,423.12,181,423.84Z" style="fill:#263238"></path><path d="M164.93,424.52c3.36,1.56,7.27,1.63,10.88,2.1.37.05.57-.34.52-.65a.11.11,0,0,0,.06-.16,22,22,0,0,0-8.31-7.82c-2-1-5.17-1.34-6.26,1.2S163,423.6,164.93,424.52Zm-1.76-3c-1.72-4.26,3.56-3,5-2.2a23.13,23.13,0,0,1,2.66,1.82c1.78,1.36,3.33,2.94,5,4.46-1.76-.34-3.53-.53-5.3-.81C168.38,424.45,164.12,423.86,163.17,421.51Z" style="fill:#263238"></path><path d="M117.86,208.8s21.33,107.1,22.83,115c.25,1.27-5.38,44.21-5.66,68.12a29.3,29.3,0,0,0,4.49,16.35l42.29,1.9s4.63-6.27,4.73-12.71c.32-20.68-3.74-63.48-5.2-75.53-1.91-15.8-26.06-113.14-26.06-113.14Z" style="fill:#37474f"></path><path d="M141.78,400.43c6.75.09,4.81,0,11.56.13,3.3.08,25,.63,28,1.25a.07.07,0,0,1,0,.13c-3.1.41-24.77-.52-28.07-.66-6.74-.29-4.8-.28-11.53-.65A.1.1,0,0,1,141.78,400.43Z" style="fill:#263238"></path><path d="M146.22,324.14c-.48-5.9-1.83-11.75-2.94-17.55s-2.26-11.9-3.38-17.85c-2.24-11.78-4.43-23.57-6.69-35.34-2.56-13.32-6.2-26.33-8.89-39.61-.06-.31-.52-.17-.47.14,4.18,23.62,9.73,46.89,14.19,70.47q1.69,8.93,3.38,17.85c1.1,5.8,2.34,11.59,3.28,17.42a49.31,49.31,0,0,1,.66,9.16c-.08,2.88-.38,5.76-.65,8.63q-.83,9.06-1.63,18.11-.87,10-1.72,19.92c-.57,6.75-1.2,13.51-1.54,20.28,0,.08.14.1.15,0,1.59-11.92,2.53-23.93,3.66-35.89q.87-9.06,1.69-18.12C145.85,335.94,146.69,330,146.22,324.14Z" style="fill:#263238"></path><path d="M150.81,208.8,137.5,307.57c-6.34-32-19.64-98.77-19.64-98.77Z" style="fill:#263238"></path><path d="M135,453.12c-2.19.54-63.29-4.6-65.49-6.27-.85-.62-.62-9.57,0-20.37,0-.12,0-.23,0-.34.11-2.23.25-4.52.41-6.84l.06-1,7.59-31.71,40.89,3.31-8.65,31.34-.14,1.24-.71,6.49-.07.67s22.51,12.43,24.74,14.52S137.16,452.59,135,453.12Z" style="fill:#eb9481"></path><path d="M118.74,434.51c-.14-.06-.21-.1-.22-.14Z" style="fill:#ECEFF1"></path><path d="M136.13,453.6c-1.45.35-27.9-1.71-47.12-3.69-4.45-.46-8.51-.91-11.79-1.32-4.51-.58-7.53-1.08-8-1.43-.8-.62-.06-25.66.4-28.58L109.91,422l-.46,7.69s23,12.71,25.26,14.85S138.36,453.05,136.13,453.6Z" style="fill:#ECEFF1"></path><path d="M134.87,451c-10.44-1.14-52.66-4.76-63.06-5.1-.09,0-.09.06,0,.07,10.32,1.36,52.57,4.64,63.05,5.21C135.08,451.17,135.09,451,134.87,451Z" style="fill:#263238"></path><path d="M110.55,427.4c-4-1.12-9.14-.91-12.53,1.75-.14.11,0,.29.15.26a57.34,57.34,0,0,1,12.32-1.49A.27.27,0,0,0,110.55,427.4Z" style="fill:#263238"></path><path d="M113.37,429.44c-4.05-1.12-9.14-.91-12.53,1.76-.14.1,0,.28.15.25A58.62,58.62,0,0,1,113.31,430,.27.27,0,0,0,113.37,429.44Z" style="fill:#263238"></path><path d="M116.19,431.48c-4-1.11-9.14-.91-12.53,1.76-.14.1,0,.29.15.26a58,58,0,0,1,12.32-1.5A.27.27,0,0,0,116.19,431.48Z" style="fill:#263238"></path><path d="M119,433.52c-4.05-1.11-9.14-.91-12.53,1.76-.14.1,0,.29.15.26A58,58,0,0,1,119,434,.27.27,0,0,0,119,433.52Z" style="fill:#263238"></path><path d="M119,418.52c-1.43-2.36-4.53-1.62-6.37-.32a22.08,22.08,0,0,0-7.14,8.9c0,.08,0,.13.09.15a.51.51,0,0,0,.6.57c3.51-1,7.38-1.57,10.48-3.59C118.43,423.05,120.31,420.76,119,418.52Zm-7.81,6.74c-1.71.52-3.44.95-5.13,1.54a65.39,65.39,0,0,1,4.28-5.11,24.62,24.62,0,0,1,2.39-2.17c1.31-1,6.36-3,5.26,1.48C117.34,423.46,113.2,424.64,111.15,425.26Z" style="fill:#263238"></path><path d="M95.08,425.13c3.27,1.74,7.18,2,10.76,2.65.37.07.59-.31.55-.62a.11.11,0,0,0,.07-.16,22.12,22.12,0,0,0-7.9-8.23c-2-1.13-5.11-1.59-6.32.89S93.17,424.12,95.08,425.13ZM93.47,422c-1.5-4.34,3.71-2.83,5.11-1.94a24.13,24.13,0,0,1,2.57,1.95c1.7,1.44,3.17,3.1,4.72,4.7-1.74-.43-3.5-.71-5.25-1.07C98.53,425.24,94.3,424.43,93.47,422Z" style="fill:#263238"></path><path d="M112.81,413.88l-41.07-4.56s-4-10.79-1.53-21c5.2-21.61,20-54.84,21-58.65,1.61-5.81,5.2-52.61,8.69-81.54,0,0-6.61-15.66,5.76-39.32h49.62s-3.33,22.51-9,36.79c0,0,1-.81-5.64,2.88,0,0-4.11,73.5-7.11,87.42-2.48,11.48-6.8,48.3-11.93,66.91C119.81,409.35,112.81,413.88,112.81,413.88Z" style="fill:#37474f"></path><path d="M74.51,400.28c6.71.62,4.79.35,11.5,1.05,3.29.34,24.86,2.6,27.86,3.46.07,0,.06.13,0,.13-3.12.16-24.65-2.48-27.93-2.88-6.69-.83-4.76-.66-11.45-1.57C74.36,400.46,74.38,400.27,74.51,400.28Z" style="fill:#263238"></path><path d="M148.18,244.58a81.83,81.83,0,0,0-12.91,6,.15.15,0,0,0,.12.27c4.35-1.87,8.78-3.66,13-5.76A.29.29,0,0,0,148.18,244.58Z" style="fill:#263238"></path><path d="M149.56,214.72c0-.15-.27-.18-.27,0a142.36,142.36,0,0,1-.73,14.54c-.2,2.24-2,14.63-5.89,13.72-.65-.15-1-.79-1.09-1.77a16,16,0,0,1,.52-3.8c.43-2.59.78-5.19,1-7.81a70.33,70.33,0,0,0-.16-14.65.13.13,0,0,0-.25,0,134.08,134.08,0,0,1-1.18,20.23c-.49,3.22-2.11,8.07,1.26,8.56s5.65-7.61,6.07-9.84A74.13,74.13,0,0,0,149.56,214.72Z" style="fill:#263238"></path><path d="M142.77,243.3a20.85,20.85,0,0,0-.87,2.56,5.72,5.72,0,0,0-.36,2.11c0,.14.19.15.26.06a7.55,7.55,0,0,0,.91-2.05c.29-.8.61-1.58.88-2.39A.44.44,0,0,0,142.77,243.3Z" style="fill:#263238"></path><path d="M108.92,211.17a41.59,41.59,0,0,0-5.44,15.05,46.1,46.1,0,0,0,.51,16.1,36,36,0,0,1,.73,9.43c-.23,3.23-.67,6.45-1,9.67q-1.06,9.46-2.1,18.92c-1.4,12.57-2.67,25.16-4.32,37.69a154.87,154.87,0,0,1-3.46,18.25c-1.53,5.94-3.34,11.79-5.15,17.64-3.75,12.07-7.51,24.14-11.11,36.25-.45,1.51-.89,3-1.32,4.55,0,.12.15.16.2,0,4.07-11.89,7.67-24,11.44-36,3.69-11.73,7.43-23.42,9.35-35.6,1-6.19,1.63-12.43,2.34-18.66s1.43-12.61,2.14-18.92,1.43-12.49,2.12-18.73c.35-3.16.7-6.31,1-9.47a64.16,64.16,0,0,0,.65-9.08,69.14,69.14,0,0,0-1.31-8.93,41.53,41.53,0,0,1-.47-8.26,42.9,42.9,0,0,1,3.85-16c.56-1.24.88-2.53,1.55-3.71C109.32,211,109.12,210.84,108.92,211.17Z" style="fill:#263238"></path><path d="M123.56,213.28c-.79,2.1-1.7,4.16-2.66,6.19a15.62,15.62,0,0,1-3.31,5,12.38,12.38,0,0,1-5,2.55,27.68,27.68,0,0,1-3.25.71,22.84,22.84,0,0,0-3.3.61.22.22,0,0,0,0,.42,14.54,14.54,0,0,0,3.55.09,20.3,20.3,0,0,0,3.4-.46,12.33,12.33,0,0,0,5.5-2.8,14.53,14.53,0,0,0,3.36-5.49,36,36,0,0,0,2-6.76A.15.15,0,0,0,123.56,213.28Z" style="fill:#263238"></path><path d="M140.66,248.44c0-.14-.25-.17-.28,0-.39,1.71-1,8.78-1.22,10.56-.34,3.59-.58,7.19-.85,10.78-.54,7.09-1.53,32.91-1.58,34.94,0,.12.19.11.21,0,.2-1.77,1.39-19.24,1.66-22.79.55-7.14,1.08-14.28,1.55-21.42C140.28,258.49,140.79,250.45,140.66,248.44Z" style="fill:#263238"></path><path d="M146.33,245.48c.07,0,0,.05,0,.07A.19.19,0,0,1,146.33,245.48Zm-71.85,155c6.69.91,4.76.74,11.45,1.57,3.28.4,24.81,3,27.93,2.88.07,0,.08-.11,0-.13-3-.86-24.57-3.12-27.86-3.46-6.71-.7-4.79-.43-11.5-1.05C74.38,400.27,74.36,400.46,74.48,400.47Zm73.7-155.89a81.83,81.83,0,0,0-12.91,6,.15.15,0,0,0,.12.27c4.35-1.87,8.78-3.66,13-5.76A.29.29,0,0,0,148.18,244.58Zm1.38-29.86c0-.15-.27-.18-.27,0a142.36,142.36,0,0,1-.73,14.54c-.2,2.24-2,14.63-5.89,13.72-.65-.15-1-.79-1.09-1.77a16,16,0,0,1,.52-3.8c.43-2.59.78-5.19,1-7.81a70.33,70.33,0,0,0-.16-14.65.13.13,0,0,0-.25,0,134.08,134.08,0,0,1-1.18,20.23c-.49,3.22-2.11,8.07,1.26,8.56s5.65-7.61,6.07-9.84A74.13,74.13,0,0,0,149.56,214.72Zm-6.79,28.58a20.85,20.85,0,0,0-.87,2.56,5.72,5.72,0,0,0-.36,2.11c0,.14.19.15.26.06a7.55,7.55,0,0,0,.91-2.05c.29-.8.61-1.58.88-2.39A.44.44,0,0,0,142.77,243.3Zm-33.85-32.13a41.59,41.59,0,0,0-5.44,15.05,46.1,46.1,0,0,0,.51,16.1,36,36,0,0,1,.73,9.43c-.23,3.23-.67,6.45-1,9.67q-1.06,9.46-2.1,18.92c-1.4,12.57-2.67,25.16-4.32,37.69a154.87,154.87,0,0,1-3.46,18.25c-1.53,5.94-3.34,11.79-5.15,17.64-3.75,12.07-7.51,24.14-11.11,36.25-.45,1.51-.89,3-1.32,4.55,0,.12.15.16.2,0,4.07-11.89,7.67-24,11.44-36,3.69-11.73,7.43-23.42,9.35-35.6,1-6.19,1.63-12.43,2.34-18.66s1.43-12.61,2.14-18.92,1.43-12.49,2.12-18.73c.35-3.16.7-6.31,1-9.47a64.16,64.16,0,0,0,.65-9.08,69.14,69.14,0,0,0-1.31-8.93,41.53,41.53,0,0,1-.47-8.26,42.9,42.9,0,0,1,3.85-16c.56-1.24.88-2.53,1.55-3.71C109.32,211,109.12,210.84,108.92,211.17Zm14.64,2.11c-.79,2.1-1.7,4.16-2.66,6.19a15.62,15.62,0,0,1-3.31,5,12.38,12.38,0,0,1-5,2.55,27.68,27.68,0,0,1-3.25.71,22.84,22.84,0,0,0-3.3.61.22.22,0,0,0,0,.42,14.54,14.54,0,0,0,3.55.09,20.3,20.3,0,0,0,3.4-.46,12.33,12.33,0,0,0,5.5-2.8,14.53,14.53,0,0,0,3.36-5.49,36,36,0,0,0,2-6.76A.15.15,0,0,0,123.56,213.28Zm17.1,35.16c0-.14-.25-.17-.28,0-.39,1.71-1,8.78-1.22,10.56-.34,3.59-.58,7.19-.85,10.78-.54,7.09-1.53,32.91-1.58,34.94,0,.12.19.11.21,0,.2-1.77,1.39-19.24,1.66-22.79.55-7.14,1.08-14.28,1.55-21.42C140.28,258.49,140.79,250.45,140.66,248.44Z" style="opacity:0.1"></path><path d="M92,175.57c4.71,9.06,15.17,14.4,24.75,17.09,9.77,2.75,21.11,4.22,31,1.66a24.46,24.46,0,0,0,11.66-6.42c3.32-3.46,4.52-7.58,2.68-11.88-1.49-3.46-5.68-6.61-5.1-9.37s3.36-4.45,4.57-7c2.06-4.3.29-8.23-2.31-11.86-6.15-8.61-2.09-17.38-4.93-27.06-1.61-5.5-7.21-16.22-21.63-15-5.49.48-10,4.32-13.12,8.62-3.66,5.07-3.49,12.8-7.66,17.54-3.56,4-7.49,4-11,8.24-1.52,1.86-2.55,4.18-1.35,9.59.44,2,.73,4.86-.48,6.82-1.68,2.71-5.51,3.3-7.34,6.11C89.25,166.61,89.88,171.57,92,175.57Z" style="fill:#263238"></path><path d="M156.15,188.42c4.8.24,8.14-5.62,5.89-9.46-1.43-2.43-4-4-5.47-6.39-2.36-4,1-6.42,3.39-9.34,5.12-6.34,1.23-12.17-3-17.66-3.23-4.17-3.21-8.16-2.42-13.11,0-.08.15-.06.14,0-.41,3.69-.66,7.35,1.31,10.72,1.6,2.74,4,4.9,5.56,7.71,2.54,4.72,2,9.14-1.34,13.2-1,1.17-2.58,2.38-3.17,3.75-1.37,3.24.84,5.53,3,7.71,1.61,1.68,3.39,3.53,3.62,5.94.35,3.63-3.75,7.6-7.43,7.21C156,188.69,156,188.41,156.15,188.42Z" style="fill:#263238"></path><path d="M152.88,191.33c3.21-1.09,6.63-2,8.94-4.59,3.41-3.85,1-7.81-1.22-11.52-1-1.6-1.72-3.15-1.25-5,.69-2.8,3.28-4.72,4.21-7.44,2.24-6.48-3.61-11.92-5.95-17.51s-2.27-11.78-2.31-17.81a.11.11,0,0,1,.21,0c.09,7.71.85,15.1,5,21.89,2.87,4.74,5.9,9.86,3,15.23-.72,1.32-1.84,2.42-2.53,3.75-1.36,2.63-1,4.6.48,7s3.09,4.7,2.85,7.5c-.45,5.44-6.57,7.82-11.22,9A.24.24,0,0,1,152.88,191.33Z" style="fill:#263238"></path><path d="M90.87,160.82c3-2.75,7-3.61,6.93-8.41,0-3.3-1.27-6.19.06-9.42,1.09-2.68,3.34-4.47,5.86-5.87,3.19-1.77,6.57-3.05,9.16-5.68,2.83-2.87,4.58-6.56,6.34-10.1,0-.06.16,0,.13.06-2.08,4.88-4.41,9.84-9.1,12.86-2.45,1.57-5.24,2.58-7.66,4.18-4.37,2.88-5.13,6.84-4.45,11.67.31,2.21.54,4.42-.85,6.34s-3.69,2.81-5.47,4.29c-7.56,6.3-.12,17.65,7.32,20.55.33.13.19.65-.16.52-5.6-2-10.68-8.33-10.86-14.16A8.86,8.86,0,0,1,90.87,160.82Z" style="fill:#263238"></path><path d="M90.33,164.88c.72-3.35,3.22-4.79,5.39-7.1,3.42-3.63,1.52-8.24,2.06-12.68a10.88,10.88,0,0,1,4.49-7.28c3.17-2.49,6.9-4,9.69-7a21.82,21.82,0,0,0,5.47-11.58c0-.08.12,0,.12,0a20.81,20.81,0,0,1-8.63,14.82c-3.13,2.22-7.06,3.75-9.22,7.12-2.29,3.57-1,7.5-1.2,11.45a8.57,8.57,0,0,1-2.94,6.17c-1.32,1.24-2.85,2.3-3.77,3.92a10.39,10.39,0,0,0-.7,7.34c1.73,7.67,8.45,13.58,15.44,16.13.25.09.15.49-.1.4A25.67,25.67,0,0,1,91.79,173.7,14,14,0,0,1,90.33,164.88Z" style="fill:#263238"></path><path d="M141,159.89c11,13.87,27.16,26.25,34.17,26.14,8.12-.12,22.5-7.64,36.07-17.92,3-2.25-14.59-24.21-16.51-22.42-6.54,6.15-21.52,14.8-22.88,15.24-1.56.5-14.54-5.42-22.65-10.2C136.41,143.2,133.18,150.07,141,159.89Z" style="fill:#eb9481"></path><path d="M189.45,150.73c7.08-6.73,15.48-15.52,26.22-18a5.51,5.51,0,0,1,3.56.29c4.79-1.2,6.79.7,6.79.7,4.8.25,6.59,2.48,6.59,2.48s5.63-1.34,7,1.93c1.56,3.67-6.66,4.84-10.79,8.25-9.46,7.81-22.11,22.73-24.61,25.25Z" style="fill:#eb9481"></path><path d="M213.18,147.6a79.22,79.22,0,0,1,8.67-6.38,80.28,80.28,0,0,1,10.72-4.9.09.09,0,0,0-.06-.18,41.74,41.74,0,0,0-19.43,11.33C213,147.59,213,147.71,213.18,147.6Z" style="fill:#263238"></path><path d="M207.64,142.57c2.87-2,8-5.57,18.44-8.74,0,0,0-.07,0-.06a37.39,37.39,0,0,0-18.53,8.66C207.37,142.58,207.45,142.71,207.64,142.57Z" style="fill:#263238"></path><path d="M204.71,139.82c5-3.27,8.6-4.7,14.53-6.77,0,0,0-.08,0-.07-7,1.66-9.33,3.05-14.65,6.68C204.39,139.78,204.51,139.94,204.71,139.82Z" style="fill:#263238"></path><path d="M218,156.51c-.83,1.5-.05,2,2.76.75s12.94-8.3,15.12-4.56-12.57,12.8-17.08,15.19a34.85,34.85,0,0,1-15.41,3.84C205.84,169.25,213.33,161.42,218,156.51Z" style="fill:#eb9481"></path><path d="M167.91,185.67l2.87-25.46s-12-6.26-24.93-11.7-14.08,1.06-3.23,15A98.74,98.74,0,0,0,167.91,185.67Z" style="fill:#dbdbdb"></path><path d="M149.82,151.56a1.68,1.68,0,1,1-1.7-1.65A1.68,1.68,0,0,1,149.82,151.56Zm-14,.23a.58.58,0,0,0-.19,0,18.14,18.14,0,0,0,1.24,3,1.7,1.7,0,0,0,.65-1.36A1.67,1.67,0,0,0,135.82,151.79Zm7.92,7.51a1.68,1.68,0,1,0,1.7,1.65A1.69,1.69,0,0,0,143.74,159.3Zm22.09,4.95a1.68,1.68,0,1,0,1.7,1.65A1.69,1.69,0,0,0,165.83,164.25Zm-12.47,2.59a1.68,1.68,0,1,0,1.7,1.65A1.68,1.68,0,0,0,153.36,166.84Zm3.13-9.42a1.68,1.68,0,1,0,1.71,1.65A1.68,1.68,0,0,0,156.49,157.42Zm6.23,17.36a1.68,1.68,0,1,0,1.71,1.65A1.68,1.68,0,0,0,162.72,174.78Z" style="fill:#fff"></path><path d="M162.79,179.22A183,183,0,0,1,165.62,159c0-.08.14,0,.12,0-.31,1.62-1.42,12.73-2.81,20.22C162.91,179.35,162.79,179.3,162.79,179.22Z" style="fill:#263238"></path><path d="M169.69,169.83l-1.79,15.84a98.79,98.79,0,0,1-25.28-22.2c-4-5.09-6.33-9.18-7.09-12.05Z" style="fill:#263238"></path><path d="M159.32,191.71,161,218.62l-60.7-.13s12.6-52.51,26.3-66.81c6.86-7.15,14.72-6.45,19.64-1.25,1.25,1.31,14.87,19.46,16.31,27.15C163.84,184.36,159.32,191.71,159.32,191.71Z" style="fill:#dbdbdb"></path><path d="M124.74,155a1.68,1.68,0,0,1-1.66,1.71.89.89,0,0,1-.28,0c.57-.87,1.14-1.7,1.72-2.47A1.51,1.51,0,0,1,124.74,155Zm-1.08,17.46a1.68,1.68,0,1,0,1.7,1.65A1.67,1.67,0,0,0,123.66,172.44Zm6.17,17.7a1.68,1.68,0,1,0,1.71,1.66A1.69,1.69,0,0,0,129.83,190.14Zm9.3,6.76a1.68,1.68,0,1,0,1.7,1.65A1.66,1.66,0,0,0,139.13,196.9Zm19.24,4.61a1.68,1.68,0,1,0,1.7,1.65A1.67,1.67,0,0,0,158.37,201.51ZM133,205.38a1.68,1.68,0,1,0,1.7,1.65A1.68,1.68,0,0,0,133,205.38Zm-7.48,9.41a1.68,1.68,0,1,0,1.7,1.66A1.68,1.68,0,0,0,125.51,214.79ZM106.3,204a1.68,1.68,0,0,0,0,3.35,1.68,1.68,0,1,0,0-3.35Zm24-41.17A1.68,1.68,0,1,0,132,164.5,1.68,1.68,0,0,0,130.29,162.85Zm16.36-12a1.61,1.61,0,0,0-.18.76,1.67,1.67,0,0,0,1.7,1.64,1.53,1.53,0,0,0,.3,0C147.68,152.17,147.05,151.35,146.65,150.86Zm-7.21,17.88a1.68,1.68,0,1,0,1.71,1.65A1.68,1.68,0,0,0,139.44,168.74Zm-5.53,10a1.68,1.68,0,1,0,1.7,1.65A1.67,1.67,0,0,0,133.91,178.77Zm-21,14.6a1.68,1.68,0,1,0,1.71,1.65A1.69,1.69,0,0,0,113,193.37Zm3.6,15.17a1.68,1.68,0,1,0,1.71,1.66A1.68,1.68,0,0,0,116.55,208.54Zm-8.14,6.08a1.68,1.68,0,1,0,1.7,1.65A1.69,1.69,0,0,0,108.41,214.62Zm35.14-28.56a1.68,1.68,0,1,0,1.7,1.65A1.68,1.68,0,0,0,143.55,186.06Zm8.8,6.68a1.68,1.68,0,1,0,1.71,1.65A1.68,1.68,0,0,0,152.35,192.74Zm2.21,19a1.68,1.68,0,1,0,1.7,1.66A1.68,1.68,0,0,0,154.56,211.75Zm-7.26-7.69a1.68,1.68,0,1,0,1.71,1.65A1.68,1.68,0,0,0,147.3,204.06Zm-6.23,9.37a1.68,1.68,0,1,0,1.7,1.65A1.67,1.67,0,0,0,141.07,213.43Zm-23-48.23c-.29.6-.58,1.2-.85,1.82a1.65,1.65,0,0,0,.89-1.49C118.14,165.42,118.13,165.31,118.11,165.2Zm17.7-13.41a1.68,1.68,0,1,0,1.71,1.65A1.68,1.68,0,0,0,135.81,151.79Zm7.93,7.51a1.68,1.68,0,1,0,1.7,1.65A1.69,1.69,0,0,0,143.74,159.3Zm-22.67,24.85a1.68,1.68,0,0,0,.05,3.36,1.68,1.68,0,1,0-.05-3.36Zm1,15.1a1.68,1.68,0,1,0,0,3.36,1.68,1.68,0,0,0,0-3.36Zm31.27-32.41a1.68,1.68,0,1,0,1.7,1.65A1.68,1.68,0,0,0,153.36,166.84Zm-4.81,10a1.68,1.68,0,1,0,1.7,1.65A1.67,1.67,0,0,0,148.55,176.86ZM159,184a1.68,1.68,0,1,0,1.7,1.65A1.68,1.68,0,0,0,159,184Zm3.63-6.42a15.05,15.05,0,0,0-.75-2.52,1.64,1.64,0,0,0-.76,1.42,1.66,1.66,0,0,0,1.6,1.65C162.64,177.94,162.62,177.77,162.58,177.58Zm-49.2-1.34c-.3.76-.59,1.53-.88,2.29a1.67,1.67,0,0,0,1.06-1.58A1.69,1.69,0,0,0,113.38,176.24Z" style="fill:#fff"></path><path d="M122.1,153.05c-23.13,15-48,51.9-40,57.83,7.29,5.41,34.15,9.68,45.34,9.69,3.28,0,2.57-28.55-1-28.56-4.24,0-15,.66-15.42.53-.87-.27,15.06-24.95,20.55-34.57C139.26,144.57,130.79,147.4,122.1,153.05Z" style="fill:#eb9481"></path><path d="M161.65,194.67a4.24,4.24,0,0,1-1.47,4.62,6.33,6.33,0,0,1,2.23,3.66c.39,2.56-3.46,4.31-3.46,4.31a7.77,7.77,0,0,1,1.74,4.23c.13,2.49-3.5,4.81-3.5,4.81a6.8,6.8,0,0,1-.82,4.68c-2.36,3.68-9,3.61-13.29,3.6s-16.29-4-18.66-4.52l-.21-27.26s19-5.4,24-4.68C152.46,188.72,160.55,191.54,161.65,194.67Z" style="fill:#eb9481"></path><path d="M160,198.85c-4.32-1.71-8.91-2-13.47-2.66a.08.08,0,0,0,0,.16c4.54.55,8.92,2,13.43,2.71C160.06,199.09,160.1,198.9,160,198.85Z" style="fill:#263238"></path><path d="M158.86,206.9a11.8,11.8,0,0,0-3.13-.47c-1.12-.09-2.24-.17-3.36-.22-2.24-.11-4.49-.17-6.74-.16-.1,0-.12.16,0,.16q3.36.16,6.71.46l3.34.34a14,14,0,0,0,3.16.19A.16.16,0,0,0,158.86,206.9Z" style="fill:#263238"></path><path d="M157.09,216.29a8.43,8.43,0,0,0-2.84-.28l-3.07-.1c-2.05-.08-4.09-.16-6.13-.31a.08.08,0,1,0,0,.16c2.07.16,4.14.35,6.22.5l3.06.2a7.86,7.86,0,0,0,2.78-.07S157.13,216.31,157.09,216.29Z" style="fill:#263238"></path><path d="M111.75,192.51a32.76,32.76,0,0,0-5,.43c-1.67.21-3.33.52-5,.87a59.64,59.64,0,0,0-9.47,3,.09.09,0,1,0,.06.16c3.26-.95,6.56-1.69,9.87-2.46,1.6-.37,3.22-.7,4.83-1s3.2-.5,4.75-.89C111.84,192.6,111.81,192.51,111.75,192.51Z" style="fill:#263238"></path><path d="M93.7,177l24.57,4.43a234.45,234.45,0,0,0,14.17-23.58c6.41-12.47,1.09-12.93-13.59-3.17A131.44,131.44,0,0,0,93.7,177Z" style="fill:#dbdbdb"></path><path d="M124.74,155a1.68,1.68,0,1,1-1.71-1.65A1.69,1.69,0,0,1,124.74,155Zm-19.09,12.51a1.68,1.68,0,1,0,1.71,1.65A1.68,1.68,0,0,0,105.65,167.49Zm18,4.95a1.66,1.66,0,0,0-1.64,1.7,1.59,1.59,0,0,0,.37,1c.52-.82,1.09-1.72,1.68-2.67A1.77,1.77,0,0,0,123.65,172.44Zm5-7.89a.42.42,0,0,0,0,.19c.33-.57.65-1.16,1-1.75A1.66,1.66,0,0,0,128.64,164.55Zm-12.2-.67a1.68,1.68,0,1,0,1.7,1.65A1.66,1.66,0,0,0,116.44,163.88Zm17.72-10.39a1.76,1.76,0,0,0,.06.4,16.86,16.86,0,0,0,.58-1.74A1.65,1.65,0,0,0,134.16,153.49ZM111.85,175.3a1.68,1.68,0,1,0,1.71,1.65A1.68,1.68,0,0,0,111.85,175.3Z" style="fill:#fff"></path><path d="M119.18,176.86a184.27,184.27,0,0,1-20.1-3.57c-.08,0,0-.14,0-.12,1.61.37,12.67,1.88,20.11,3.56C119.32,176.74,119.27,176.87,119.18,176.86Z" style="fill:#263238"></path><path d="M128.2,167.57l-1.45,1.59-.31.36c1-1.9,2-3.83,3-5.77a0,0,0,0,0-.07,0c-1.83,2.95-3.7,5.89-5.5,8.87s-3.73,5.75-5.34,8.76l-1.13-.16a.09.09,0,0,0,0,.17l1.23.39a.22.22,0,0,0,.19-.05,76.24,76.24,0,0,0,5.68-8.65c.49-.81,1-1.64,1.43-2.47l.12-.12c.16-.18.32-.37.49-.55a26.37,26.37,0,0,0,1.8-2.27S128.24,167.52,128.2,167.57Z" style="fill:#263238"></path><path d="M134.83,150.73c.42.93,6.3,6.3,10.69,5.21,1.42-.36-.18-8.24-.18-8.24v-.61l.2-8.53-10.81-4.24-1.55-.54s.1,2.34.25,5.25l0,.41c0,.16,0,.32,0,.47,0,.44,0,.88.07,1.32s0,.67.07,1,.06.7.08,1.05A55.4,55.4,0,0,0,134.83,150.73Z" style="fill:#eb9481"></path><path d="M133.44,139a17.13,17.13,0,0,0,11.91,8.06l.2-8.53-10.81-4.24-1.55-.54S133.29,136.12,133.44,139Z" style="fill:#263238"></path><path d="M155.48,124.55c3.67,14.51-4.61,18.35-7.74,19.13-2.84.72-12.6,2.79-17.75-11.26s.44-20.35,6.86-22.33S151.82,110,155.48,124.55Z" style="fill:#eb9481"></path><path d="M152.67,121.49a8.88,8.88,0,0,1-1,.05,1.69,1.69,0,0,1-1.06-.16.53.53,0,0,1-.16-.63,1.32,1.32,0,0,1,1.19-.62,2,2,0,0,1,1.35.36A.57.57,0,0,1,152.67,121.49Z" style="fill:#263238"></path><path d="M143.16,124a8.82,8.82,0,0,0,.93-.45,1.74,1.74,0,0,0,.86-.65.55.55,0,0,0-.16-.63,1.36,1.36,0,0,0-1.34,0,2,2,0,0,0-1,1A.56.56,0,0,0,143.16,124Z" style="fill:#263238"></path><path d="M144.09,127.63a.93.93,0,0,1-.2.3.66.66,0,0,1-.51.23c-.61,0-.93-.61-1-1.21,0,0,0-.08,0,0,.28.29.6.58.94.5s.4-.29.57-.49A3.3,3.3,0,0,0,144.09,127.63Z" style="fill:#263238"></path><path d="M143.83,127.5a1.49,1.49,0,0,1,.16-.81,1.13,1.13,0,0,1,.71-.55,1,1,0,0,1,.89.23,1.65,1.65,0,0,1,.46.67,2.57,2.57,0,0,1,.15.47,2.34,2.34,0,0,1,0,1,2.78,2.78,0,0,0-.21-.71,3.81,3.81,0,0,0-.29-.61c-.23-.39-.56-.68-.9-.58s-.55.42-.59.88a6.32,6.32,0,0,0,.05,1.43A3.24,3.24,0,0,1,143.83,127.5Z" style="fill:#263238"></path><path d="M153.53,125.21a.94.94,0,0,0,.33.14.7.7,0,0,0,.56-.09,1.22,1.22,0,0,0,.18-1.58s0-.05-.06,0c-.07.39-.18.82-.51.93a1.29,1.29,0,0,1-.74-.09A3.23,3.23,0,0,1,153.53,125.21Z" style="fill:#263238"></path><path d="M153.68,125a1.56,1.56,0,0,0-.58-.59,1.13,1.13,0,0,0-.9-.07,1,1,0,0,0-.61.68,1.63,1.63,0,0,0,0,.82,2.54,2.54,0,0,0,.14.47,2.19,2.19,0,0,0,.55.85,2.7,2.7,0,0,1-.22-.7,4,4,0,0,1-.09-.67c0-.45.09-.88.43-1s.69,0,1,.41a6.94,6.94,0,0,1,.74,1.22A3.24,3.24,0,0,0,153.68,125Z" style="fill:#263238"></path><path d="M147.8,135.05c.29.19.59.47,1,.43a2.72,2.72,0,0,0,1-.46s.06,0,.05,0a1.39,1.39,0,0,1-1.17.78,1.06,1.06,0,0,1-.95-.74C147.69,135.06,147.76,135,147.8,135.05Z" style="fill:#263238"></path><path d="M151.05,130.45s.57,1.42.74,2.12c0,.06-.14.14-.38.21h0a3.42,3.42,0,0,1-3.53-.44c-.06,0,0-.15.08-.12a5.14,5.14,0,0,0,3.24.11c0-.2-1.06-2.41-1-2.44a6.11,6.11,0,0,1,1.67,0c-1.1-3-2.68-5.81-3.74-8.82,0-.1.12-.18.17-.09a51.69,51.69,0,0,1,4.43,9.33C152.92,130.66,151.36,130.49,151.05,130.45Z" style="fill:#263238"></path><path d="M151.28,132.31a4.14,4.14,0,0,1-1.11,1.78,1.77,1.77,0,0,1-1,.46c-.84.08-1.12-.62-1.2-1.28a4.49,4.49,0,0,1,0-1.05A5.4,5.4,0,0,0,151.28,132.31Z" style="fill:#263238"></path><path d="M150.17,134.09a1.77,1.77,0,0,1-1,.46c-.84.08-1.12-.62-1.2-1.28A2,2,0,0,1,150.17,134.09Z" style="fill:#ff9bbc"></path><path d="M130.45,131.81c3.53-.83,2.15-6.38,2.15-6.38s3.9-1.33,2.63-7.85a10.06,10.06,0,0,0,8.47,2.9c1.19-.11-3.37-2.15-3.37-2.15s5.61,3,13.77-.61c.58-.26-2.45-10-9.9-11.44s-13.52,2.81-16.64,8c0,0-5.54,4.73-5,9.51S129.07,132.13,130.45,131.81Z" style="fill:#263238"></path><path d="M133.76,131.82s-4-4.09-5.88-2.6,1.61,7.78,4.21,8.3a2.53,2.53,0,0,0,3.13-1.89Z" style="fill:#eb9481"></path><path d="M128.93,131s0,.06,0,.07c1.84.41,3,1.86,3.91,3.42a1.4,1.4,0,0,0-2.13-.05s0,.11.06.09a1.55,1.55,0,0,1,1.78.26,7.62,7.62,0,0,1,1,1.24c.11.14.37,0,.29-.16l0,0C133.53,133.63,131.33,130.84,128.93,131Z" style="fill:#263238"></path></g><g id="freepik--speech-bubbles--inject-939"><path d="M269.06,87.29a11.69,11.69,0,0,1-2-6.46c0-8.18,9-14.82,20.07-14.82s20.06,6.64,20.06,14.82-9,14.83-20.06,14.83a24.07,24.07,0,0,1-13.85-4.11l-6.91,1.76Z" style="fill:#fff"></path><path d="M269.06,87.29a11.7,11.7,0,0,1-2.12-6.1,11.83,11.83,0,0,1,1.57-6.33A15.81,15.81,0,0,1,272.93,70a21.13,21.13,0,0,1,5.86-3,26.7,26.7,0,0,1,6.45-1.32,27.46,27.46,0,0,1,6.59.32,21.87,21.87,0,0,1,11.78,5.72,14,14,0,0,1,3.54,5.66,11.58,11.58,0,0,1,.06,6.7,14,14,0,0,1-3.46,5.71,19.35,19.35,0,0,1-5.41,3.83A25.77,25.77,0,0,1,285.47,96a23.94,23.94,0,0,1-12.32-4.22l.19,0-6.94,1.65-.25.06.11-.23Zm0,0-2.58,6.07-.14-.17,6.89-1.86.1,0,.09.07a23.45,23.45,0,0,0,12.09,3.87,26.21,26.21,0,0,0,6.38-.45,22.88,22.88,0,0,0,6.06-2,18.7,18.7,0,0,0,5.14-3.68,13,13,0,0,0,3.19-5.34,10.5,10.5,0,0,0-.09-6.13,13,13,0,0,0-3.26-5.28,20.94,20.94,0,0,0-11.25-5.54,26.79,26.79,0,0,0-12.67.81,18.13,18.13,0,0,0-10.13,7.42,11.46,11.46,0,0,0-1.7,6.1A11.82,11.82,0,0,0,269.06,87.29Z" style="fill:#263238"></path><path d="M294.34,80.83a2.09,2.09,0,1,0,2.09-2.08A2.09,2.09,0,0,0,294.34,80.83Z" style="fill:#263238"></path><circle cx="287.13" cy="80.83" r="2.08" style="fill:#263238"></circle><path d="M275.74,80.83a2.09,2.09,0,1,0,2.09-2.08A2.09,2.09,0,0,0,275.74,80.83Z" style="fill:#263238"></path><path d="M161.34,103.41a11.69,11.69,0,0,1-2-6.46c0-8.18,9-14.82,20.07-14.82S199.48,88.77,199.48,97s-9,14.82-20.07,14.82a24.06,24.06,0,0,1-13.84-4.1l-6.91,1.76Z" style="fill:#fff"></path><path d="M161.34,103.41A11.45,11.45,0,0,1,160.79,91a15.84,15.84,0,0,1,4.43-4.86,21.21,21.21,0,0,1,5.85-3,26.87,26.87,0,0,1,6.46-1.32,27.46,27.46,0,0,1,6.59.32,21.84,21.84,0,0,1,11.77,5.72,14,14,0,0,1,3.54,5.66,11.42,11.42,0,0,1,.06,6.7A13.85,13.85,0,0,1,196,105.9a19.49,19.49,0,0,1-5.41,3.83,25.79,25.79,0,0,1-12.88,2.35,23.91,23.91,0,0,1-12.31-4.22l.19,0-6.94,1.65-.25.06.11-.23Zm0,0-2.57,6.07-.14-.17,6.88-1.86.1,0,.09.07a23.61,23.61,0,0,0,12.1,3.87,26.28,26.28,0,0,0,6.38-.45,23.37,23.37,0,0,0,6.06-2,19,19,0,0,0,5.14-3.68,13,13,0,0,0,3.19-5.34,10.58,10.58,0,0,0-.09-6.13,12.9,12.9,0,0,0-3.27-5.28A20.87,20.87,0,0,0,184,83a26.68,26.68,0,0,0-12.67.81,18.14,18.14,0,0,0-10.12,7.42,11.46,11.46,0,0,0-1.7,6.1A11.9,11.9,0,0,0,161.34,103.41Z" style="fill:#263238"></path><path d="M186.63,97a2.08,2.08,0,1,0,2.08-2.08A2.08,2.08,0,0,0,186.63,97Z" style="fill:#263238"></path><path d="M177.33,97a2.08,2.08,0,1,0,2.08-2.08A2.08,2.08,0,0,0,177.33,97Z" style="fill:#263238"></path><path d="M168,97a2.08,2.08,0,1,0,2.08-2.08A2.08,2.08,0,0,0,168,97Z" style="fill:#263238"></path><path d="M355.94,108.68a11.69,11.69,0,0,0,2-6.46c0-8.19-9-14.83-20.07-14.83S317.8,94,317.8,102.22s9,14.82,20.07,14.82a24.13,24.13,0,0,0,13.84-4.1l6.92,1.76Z" style="fill:#fff"></path><path d="M355.94,108.68a11.87,11.87,0,0,0,1.87-6.12,11.42,11.42,0,0,0-1.7-6.1A18.2,18.2,0,0,0,346,89a26.67,26.67,0,0,0-12.67-.8,21,21,0,0,0-11.25,5.53,13,13,0,0,0-3.27,5.28,10.53,10.53,0,0,0-.08,6.14,12.84,12.84,0,0,0,3.18,5.33A18.59,18.59,0,0,0,327,114.2a22.76,22.76,0,0,0,6.06,2,26.84,26.84,0,0,0,6.39.46,23.56,23.56,0,0,0,12.09-3.88l.09-.06.1,0,6.89,1.86-.14.17Zm0,0,2.8,6,.1.22-.24-.06-6.94-1.65.18,0a23.91,23.91,0,0,1-12.31,4.22A25.84,25.84,0,0,1,326.66,115a19.43,19.43,0,0,1-5.42-3.84,13.78,13.78,0,0,1-3.45-5.71,11.39,11.39,0,0,1,.06-6.69,13.94,13.94,0,0,1,3.54-5.66,21.89,21.89,0,0,1,11.78-5.73,26.39,26.39,0,0,1,13,1,21.1,21.1,0,0,1,5.85,3,15.8,15.8,0,0,1,4.43,4.85,11.82,11.82,0,0,1,1.56,6.33A11.69,11.69,0,0,1,355.94,108.68Z" style="fill:#263238"></path><path d="M330.65,102.22a2.08,2.08,0,1,1-2.08-2.08A2.08,2.08,0,0,1,330.65,102.22Z" style="fill:#263238"></path><path d="M340,102.22a2.08,2.08,0,1,1-2.08-2.08A2.08,2.08,0,0,1,340,102.22Z" style="fill:#263238"></path><path d="M349.25,102.22a2.08,2.08,0,1,1-2.08-2.08A2.08,2.08,0,0,1,349.25,102.22Z" style="fill:#263238"></path></g><g id="freepik--Line--inject-939"><path d="M609.62,75.55a5,5,0,0,0-.22-3.42,4.88,4.88,0,0,0-3.76-2.45,24.13,24.13,0,0,0-5.36-.47A25,25,0,0,0,590,71.72a17.11,17.11,0,0,0-4.22,2.82l-.13.14q-.52.34-1,.72a13.17,13.17,0,0,0-3.28,3.38,10,10,0,0,0-.69,1.25,8.06,8.06,0,0,0-.77,2,4.29,4.29,0,0,0,1.34,4.26,7.31,7.31,0,0,0,4.67,1.62,27.25,27.25,0,0,0,4.33-.2c.83,0,1.66-.13,2.46-.24l1.57-.25a23.89,23.89,0,0,0,1.87,6.13c0,.05.1,0,.08,0a21.18,21.18,0,0,1-1.7-6.15,29.56,29.56,0,0,0,7.73-2.29,15.15,15.15,0,0,0,4-2.72,5.3,5.3,0,0,0,2-3.77,6.59,6.59,0,0,0,1.13-1.8A4.19,4.19,0,0,0,609.62,75.55ZM590.54,87a13.51,13.51,0,0,1-7.14-1.13,22.73,22.73,0,0,0,4.5.66,24.8,24.8,0,0,0,5.09-.32l.55,0a6,6,0,0,0,.61-.08c0,.11,0,.22,0,.33-.9.2-1.8.36-2.71.49C591.15,87,590.85,87,590.54,87Zm8.67-15.57a13.44,13.44,0,0,1,4.46,1,3.6,3.6,0,0,1,2.43,3.06c0,.07,0,.13,0,.19a6.7,6.7,0,0,0-1.47-.4l-.41,0a7.84,7.84,0,0,0-1.82-.75,7,7,0,0,0-3.25-2.22,11.39,11.39,0,0,0-3.58-.6c.46-.11.93-.21,1.4-.3A18.94,18.94,0,0,1,599.21,71.44Zm6.43,7.68a2.83,2.83,0,0,0-.42-.43,5.85,5.85,0,0,0,.45-.54A3.15,3.15,0,0,1,605.64,79.12Zm-9.76,6.66c.77-.15,1.54-.32,2.3-.51a32.46,32.46,0,0,1-3.73,1.09v-.31C594.93,86,595.41,85.87,595.88,85.78Zm-1-2.16s0-.05,0-.07a.24.24,0,0,0,.27.07,48.76,48.76,0,0,0,5.14-1.78,16,16,0,0,0,4.35-2.64,1.64,1.64,0,0,1,.56.77c-.37.24-.74.46-1.12.67A33,33,0,0,1,594.8,84Zm.24-.56a6,6,0,0,1,2.6-2.72,15.81,15.81,0,0,1,4.44-1.49,3.67,3.67,0,0,1,2,.06l-.44.35C601.23,81.17,598.15,82.14,595.16,83.06Zm.56,1.39a35.86,35.86,0,0,0,5.37-1.66,29.23,29.23,0,0,1-4.84,2c-.32.1-.65.19-1,.27l-.71.15h0c0-.19.06-.38.1-.56Zm-1.54.84a8.06,8.06,0,0,1-1.55.15,3.12,3.12,0,0,1-1.38-.3c1-.09,2-.22,3-.4C594.21,84.92,594.2,85.11,594.18,85.29Zm10.31-3.85c0,.06-.1.13-.16.19s-.18.19-.27.29l-.59.37a14.57,14.57,0,0,1-2,1.07l-.24.09A29.81,29.81,0,0,0,604.49,81.44Zm.25-3.06-.06,0a4.13,4.13,0,0,0-2.67-.11,16,16,0,0,0-4.63,1.69,6.46,6.46,0,0,0-2.86,3.59q-.09.28-.15.57a33.23,33.23,0,0,1-3.72.5,1.9,1.9,0,0,1-.2-1.39,5,5,0,0,1,1-2,22.51,22.51,0,0,0,8.59-3,18.48,18.48,0,0,0,2.07-1.42,1.85,1.85,0,0,0,.66-.87,7.9,7.9,0,0,1,1.46,0,3.39,3.39,0,0,1,1.25,1.5A5.92,5.92,0,0,1,604.74,78.38Zm-20.15-1.52.07-.12a24.44,24.44,0,0,1,7.11-3.91l.18-.06a12.45,12.45,0,0,1,7.57.38,6.44,6.44,0,0,1,1.67,1l.11.1a15.35,15.35,0,0,0-4.17-.24,16.43,16.43,0,0,0-8.56,3.22,11.46,11.46,0,0,0-3.15,3.32,2,2,0,0,1-.87-.4C583.6,79.37,584.06,77.79,584.59,76.86Zm17.56-1.53a18.46,18.46,0,0,0-2.95.64c-3,.86-6.12,2.17-8.17,4.64l0,.07c-.6.07-1.22.12-1.83.14a19.4,19.4,0,0,1-2.41-.06L586,80.7a7.24,7.24,0,0,1,.81-1.08,14.56,14.56,0,0,1,3.31-2.75,15.85,15.85,0,0,1,8.09-2.34A13.73,13.73,0,0,1,602,75,1.3,1.3,0,0,1,602.15,75.33Zm-.09.67a4,4,0,0,1-.84.69c-.34.25-.68.49-1,.71a18.76,18.76,0,0,1-2,1.14,21.8,21.8,0,0,1-6.1,2c.3-.3.61-.58.91-.83a14.79,14.79,0,0,1,3.85-2.22,24.34,24.34,0,0,1,4.43-1.34Zm-16.34,5.26a18.51,18.51,0,0,0,4.76.08h0a3.62,3.62,0,0,0-.68,3.3l-.5,0c-1.13,0-2.58-.06-3.39-1A2.15,2.15,0,0,1,585.72,81.26Zm19.79-4.85c-.07-.09-.16-.17-.23-.26a6.22,6.22,0,0,1,.68.25,4.13,4.13,0,0,1-.17.45A3,3,0,0,0,605.51,76.41Zm-23.75,8.24a3.75,3.75,0,0,1-1-1.77,3.34,3.34,0,0,1,.4-2.29,11.14,11.14,0,0,1,2.46-2.94,3.42,3.42,0,0,0-.15.65,2.83,2.83,0,0,0,.25,1.79,2.26,2.26,0,0,0,1.45,1,3.12,3.12,0,0,0-.23,1.81,2.55,2.55,0,0,0,1.14,1.61,6.68,6.68,0,0,0,4,.66h0a2.36,2.36,0,0,0,.76.61,23.49,23.49,0,0,1-3.56,0,21.13,21.13,0,0,1-4.39-.76,7.38,7.38,0,0,1-1.12-.38Zm24.37-5.27a3.73,3.73,0,0,0-.06-1.85,5.13,5.13,0,0,0,.4-.86,2.25,2.25,0,0,1,1,1.39,13.15,13.15,0,0,1-1.12,1.12ZM608,77.45A3.1,3.1,0,0,0,606.62,76a3.43,3.43,0,0,0,0-1A4.32,4.32,0,0,0,603.86,72a13.24,13.24,0,0,0-3.67-1l.26,0a13.94,13.94,0,0,1,5,.11,4.88,4.88,0,0,1,3.24,2.47,3.32,3.32,0,0,1,.1,2.53A7,7,0,0,1,608,77.45Zm-16-6a24.4,24.4,0,0,1,9.67-1.65,18.28,18.28,0,0,1,4.88.71,4,4,0,0,1,1.9,1.21,3.2,3.2,0,0,1,.46.83,2.43,2.43,0,0,0-.2-.28c-2.26-2.76-6.29-2.3-9.43-1.88-.92.12-1.85.28-2.78.46a21.32,21.32,0,0,0-2.56.36,22.61,22.61,0,0,0-4.29,1.32A22.66,22.66,0,0,1,592,71.46ZM581,85.11c-.08-.12-.15-.24-.22-.36a1.09,1.09,0,0,1,.1.11,2.63,2.63,0,0,0,.63.41,7.3,7.3,0,0,0,1.13.88,9.77,9.77,0,0,0,2.51,1.08l-.28,0A5.49,5.49,0,0,1,581,85.11Zm22.74-1.84a17,17,0,0,1-2.47,1.29c.36-.18.72-.38,1.06-.59s.57-.36.84-.55a10.57,10.57,0,0,0,2.1-1.47,2.2,2.2,0,0,0,.82-1.71h0l.08-.08a11.36,11.36,0,0,0,1.28-1,3.94,3.94,0,0,1-.48,1.09A10,10,0,0,1,603.73,83.27Z" style="fill:#263238"></path></g></svg>