<svg xmlns="http://www.w3.org/2000/svg" viewBox="0 0 500 500"><g id="freepik--background-complete--inject-768"><rect x="437.01" y="188.01" width="1" height="6.15" style="fill:#c7c7c7"></rect><rect x="442.47" y="193.87" width="6.15" height="1" transform="translate(-6.94 371.98) rotate(-45)" style="fill:#c7c7c7"></rect><rect x="445.84" y="201.87" width="6.15" height="1" style="fill:#c7c7c7"></rect><rect x="445.14" y="207.34" width="1" height="6.15" transform="translate(-18.26 376.74) rotate(-45)" style="fill:#c7c7c7"></rect><rect x="437.13" y="210.71" width="1" height="6.15" style="fill:#c7c7c7"></rect><rect x="426.51" y="210.01" width="6.15" height="1" transform="translate(-23.03 365.42) rotate(-45)" style="fill:#c7c7c7"></rect><rect x="423.14" y="202" width="6.15" height="1" style="fill:#c7c7c7"></rect><rect x="429" y="191.38" width="1" height="6.15" transform="translate(-11.71 360.63) rotate(-45)" style="fill:#c7c7c7"></rect><rect x="61.87" y="322.06" width="1" height="6.15" style="fill:#c7c7c7"></rect><rect x="67.34" y="327.91" width="6.15" height="1" transform="translate(-211.6 145.98) rotate(-45)" style="fill:#c7c7c7"></rect><rect x="70.71" y="335.92" width="6.15" height="1" style="fill:#c7c7c7"></rect><rect x="70" y="341.39" width="1" height="6.15" transform="translate(-222.92 150.74) rotate(-45)" style="fill:#c7c7c7"></rect><rect x="61.99" y="344.76" width="1" height="6.15" style="fill:#c7c7c7"></rect><rect x="51.37" y="344.05" width="6.15" height="1" transform="translate(-227.69 139.42) rotate(-45)" style="fill:#c7c7c7"></rect><rect x="48.01" y="336.04" width="6.15" height="1" style="fill:#c7c7c7"></rect><rect x="53.86" y="325.42" width="1" height="6.15" transform="translate(-216.37 134.67) rotate(-45)" style="fill:#c7c7c7"></rect><rect x="216.14" y="128.46" width="1" height="6.15" style="fill:#c7c7c7"></rect><rect x="221.61" y="134.32" width="6.15" height="1" transform="translate(-29.52 198.36) rotate(-45)" style="fill:#c7c7c7"></rect><rect x="224.98" y="142.33" width="6.15" height="1" style="fill:#c7c7c7"></rect><rect x="224.27" y="147.8" width="1" height="6.15" transform="translate(-40.85 203.11) rotate(-45)" style="fill:#c7c7c7"></rect><rect x="216.26" y="151.16" width="1" height="6.15" style="fill:#c7c7c7"></rect><rect x="205.64" y="150.46" width="6.15" height="1" transform="translate(-45.61 191.8) rotate(-45)" style="fill:#c7c7c7"></rect><rect x="202.28" y="142.45" width="6.15" height="1" style="fill:#c7c7c7"></rect><rect x="208.13" y="131.83" width="1" height="6.15" transform="translate(-34.29 187.04) rotate(-45)" style="fill:#c7c7c7"></rect><rect x="119.87" y="52.34" width="1" height="3.4" style="fill:#c7c7c7"></rect><rect x="123.11" y="55.35" width="3.4" height="1" transform="translate(-2.93 104.61) rotate(-45)" style="fill:#c7c7c7"></rect><rect x="124.97" y="59.77" width="3.4" height="1" style="fill:#c7c7c7"></rect><rect x="124.36" y="63.01" width="1" height="3.4" transform="translate(-9.19 107.24) rotate(-45)" style="fill:#c7c7c7"></rect><rect x="119.94" y="64.87" width="1" height="3.4" style="fill:#c7c7c7"></rect><rect x="114.3" y="64.26" width="3.4" height="1" transform="translate(-11.82 100.99) rotate(-45)" style="fill:#c7c7c7"></rect><rect x="112.44" y="59.84" width="3.4" height="1" style="fill:#c7c7c7"></rect><rect x="115.45" y="54.2" width="1" height="3.4" transform="translate(-5.57 98.35) rotate(-44.99)" style="fill:#c7c7c7"></rect><rect x="385.38" y="258.4" width="1" height="3.4" style="fill:#c7c7c7"></rect><rect x="388.62" y="261.41" width="3.4" height="1" transform="translate(-70.88 352.71) rotate(-45)" style="fill:#c7c7c7"></rect><rect x="390.48" y="265.83" width="3.4" height="1" style="fill:#c7c7c7"></rect><rect x="389.87" y="269.07" width="1" height="3.4" transform="translate(-77.13 355.34) rotate(-45)" style="fill:#c7c7c7"></rect><rect x="385.45" y="270.93" width="1" height="3.4" style="fill:#c7c7c7"></rect><rect x="379.81" y="270.32" width="3.4" height="1" transform="translate(-79.76 349.09) rotate(-45)" style="fill:#c7c7c7"></rect><rect x="377.95" y="265.9" width="3.4" height="1" style="fill:#c7c7c7"></rect><rect x="380.96" y="260.26" width="1" height="3.4" transform="translate(-73.51 346.46) rotate(-45)" style="fill:#c7c7c7"></rect><rect x="84.89" y="288.11" width="1" height="3.4" style="fill:#c7c7c7"></rect><rect x="88.13" y="291.11" width="3.4" height="1" transform="translate(-179.89 148.93) rotate(-45)" style="fill:#c7c7c7"></rect><rect x="89.99" y="295.53" width="3.4" height="1" style="fill:#c7c7c7"></rect><rect x="89.38" y="298.78" width="1" height="3.4" transform="translate(-186.14 151.56) rotate(-45)" style="fill:#c7c7c7"></rect><rect x="84.96" y="300.64" width="1" height="3.4" style="fill:#c7c7c7"></rect><rect x="79.32" y="300.02" width="3.4" height="1" transform="translate(-188.77 145.31) rotate(-45)" style="fill:#c7c7c7"></rect><rect x="77.46" y="295.6" width="3.4" height="1" style="fill:#c7c7c7"></rect><rect x="80.47" y="289.97" width="1" height="3.4" transform="translate(-182.55 142.74) rotate(-45.01)" style="fill:#c7c7c7"></rect><rect x="391.65" y="107.91" width="1" height="3.4" style="fill:#c7c7c7"></rect><rect x="394.89" y="110.92" width="3.4" height="1" transform="translate(37.37 313.06) rotate(-45)" style="fill:#c7c7c7"></rect><rect x="396.75" y="115.34" width="3.4" height="1" style="fill:#c7c7c7"></rect><rect x="396.14" y="118.58" width="1" height="3.4" transform="translate(31.12 315.69) rotate(-45)" style="fill:#c7c7c7"></rect><rect x="391.72" y="120.44" width="1" height="3.4" style="fill:#c7c7c7"></rect><rect x="386.08" y="119.83" width="3.4" height="1" transform="translate(28.49 309.44) rotate(-45)" style="fill:#c7c7c7"></rect><rect x="384.22" y="115.41" width="3.4" height="1" style="fill:#c7c7c7"></rect><rect x="387.23" y="109.77" width="1" height="3.4" transform="translate(34.74 306.81) rotate(-45)" style="fill:#c7c7c7"></rect><path d="M346.79,478.07s30.25-6.27,64-43.28c34.77-38.09,47.27-78.63,47.27-78.63a183.49,183.49,0,0,0-24.63,13.23v0a239.2,239.2,0,0,0-49.38,41q-3.45,3.76-6.46,7.44C349.84,451.42,346.79,478.07,346.79,478.07Z" style="fill:#c7c7c7"></path><path d="M235.46,356.16s12.5,40.54,47.27,78.63l0,0s.05,0,.07.07c33.75,36.94,63.94,43.19,63.94,43.19s-3.5-30.68-37.29-67.69a235.06,235.06,0,0,0-38.68-33.88C250.81,362.47,235.46,356.16,235.46,356.16Z" style="fill:#c7c7c7"></path><path d="M307.12,409.5c1,3.41,2,6.67,3.14,9.81v0c14.6,42,36.22,58.74,36.22,58.74s10.58-29.77-3.81-79C327.85,348.45,299.05,316,299.05,316s-.53,3.35-1,9.28A245,245,0,0,0,307.12,409.5Z" style="fill:#c7c7c7"></path><path d="M259.07,327.1s3.81,44.7,31.15,91.86c.64,1.1,1.28,2.17,1.92,3.25l0,0c20.09,33.25,41.56,48.4,50.35,53.59,2.62,1.55,4.12,2.23,4.12,2.23s.05-.64.11-1.84c.22-7.09-.46-34-20-70.41v0c-1.05-2-2.18-4-3.37-6a251.5,251.5,0,0,0-36.83-48.46c-3.93-4.05-7.63-7.62-11-10.67-2.86-2.6-5.45-4.84-7.67-6.7l0,0c-5-4.18-8.24-6.45-8.68-6.78Z" style="fill:#dbdbdb"></path><path d="M347.07,478.07s25-19.38,39.36-68.57C401.25,358.86,394.5,316,394.5,316a163.73,163.73,0,0,0-11.77,15.68,245.61,245.61,0,0,0-31.83,67.45c-1.21,4.1-2.23,8.08-3.1,11.89v0C338.19,453.06,347.07,478.07,347.07,478.07Z" style="fill:#c7c7c7"></path><path d="M346.81,476.23c.06,1.2.11,1.84.11,1.84s1.5-.68,4.12-2.23c9.08-5.36,31.67-21.33,52.29-56.88,27.34-47.16,31.15-91.86,31.15-91.86l-.05,0c-.44.33-3.67,2.6-8.68,6.78-2.24,1.88-4.83,4.12-7.71,6.74-3.36,3.05-7.06,6.62-11,10.67a251.5,251.5,0,0,0-36.83,48.46c-1.19,2-2.32,4-3.37,6v0C347.27,442.21,346.59,469.14,346.81,476.23Z" style="fill:#dbdbdb"></path><path d="M326.74,394.83c0,.74,0,1.49,0,2.22.51,54,20,81,20,81s20.06-27.73,20.06-83.24c0-57.14-20.06-99.67-20.06-99.67S326.74,337.69,326.74,394.83Z" style="fill:#ebebeb"></path><path d="M346.79,478s24.51,2.24,58.85-18.09C441,439,460,411,460,411s-14.05,1.33-33.52,7.93A185.86,185.86,0,0,0,391,435.1a145.57,145.57,0,0,0-22.22,16C352.13,465.71,346.79,478,346.79,478Z" style="fill:#ebebeb"></path><path d="M233.6,411s19,28,54.31,48.93c1.07.64,2.13,1.24,3.19,1.84l0,0C323.79,480.09,346.76,478,346.76,478S337,455.43,302.6,435.1a185.85,185.85,0,0,0-30.92-14.6C249.88,412.51,233.6,411,233.6,411Z" style="fill:#ebebeb"></path><path d="M342.16,301.36a44.65,44.65,0,0,0-2.91,6.59c-.43,1.12-.76,2.26-1.14,3.38s-.68,2.28-1,3.42l2.35-.76c-.92-.75-1.85-1.48-2.81-2.19s-1.9-1.42-2.91-2.06a44,44,0,0,0-6.23-3.62,44.12,44.12,0,0,0,4.78,5.39c.84.86,1.74,1.63,2.61,2.44s1.79,1.56,2.7,2.31l1.78,1.47.57-2.23c.29-1.15.58-2.3.83-3.46s.49-2.32.66-3.51A43.56,43.56,0,0,0,342.16,301.36Z" style="fill:#ebebeb"></path><path d="M333.48,299.57a16.55,16.55,0,0,0,.17,4.24,26.69,26.69,0,0,0,1,4,25.4,25.4,0,0,0,1.56,3.79,16.54,16.54,0,0,0,2.36,3.54,16.61,16.61,0,0,0-.17-4.25,25.77,25.77,0,0,0-1-4,27,27,0,0,0-1.57-3.79A16.49,16.49,0,0,0,333.48,299.57Z" style="fill:#ebebeb"></path><path d="M380.67,416.72a44,44,0,0,0-7.1-1.29c-1.18-.16-2.37-.22-3.55-.32s-2.37-.12-3.56-.16l1.29,2.11c.51-1.08,1-2.15,1.48-3.24s.93-2.19,1.32-3.32a43.79,43.79,0,0,0,2.06-6.91,44.89,44.89,0,0,0-4.12,5.92c-.64,1-1.18,2.07-1.77,3.1s-1.09,2.11-1.61,3.17l-1,2.07,2.3,0c1.19,0,2.37,0,3.56,0s2.38-.06,3.56-.17A45.19,45.19,0,0,0,380.67,416.72Z" style="fill:#ebebeb"></path><path d="M380.38,407.86a16.69,16.69,0,0,0-4.09,1.16,26.13,26.13,0,0,0-3.65,1.87,24.42,24.42,0,0,0-3.32,2.41,16,16,0,0,0-2.89,3.12,16.14,16.14,0,0,0,4.09-1.16,26.13,26.13,0,0,0,3.65-1.87,26.72,26.72,0,0,0,3.32-2.41A17,17,0,0,0,380.38,407.86Z" style="fill:#ebebeb"></path><path d="M308.93,421.24a45.46,45.46,0,0,0-2.76,6.66c-.4,1.13-.71,2.27-1.06,3.41s-.62,2.29-.9,3.44l2.33-.82c-.94-.72-1.89-1.43-2.86-2.12s-1.94-1.37-3-2a44.31,44.31,0,0,0-6.32-3.46,45.57,45.57,0,0,0,4.91,5.27c.86.83,1.78,1.58,2.66,2.38s1.83,1.51,2.77,2.24l1.81,1.42.51-2.24c.27-1.15.53-2.31.75-3.48s.44-2.33.58-3.52A45,45,0,0,0,308.93,421.24Z" style="fill:#ebebeb"></path><path d="M300.2,419.66a16.91,16.91,0,0,0,.28,4.24,26.23,26.23,0,0,0,1.06,4,25.54,25.54,0,0,0,1.65,3.76,16,16,0,0,0,2.45,3.47,16.89,16.89,0,0,0-.27-4.24,25.13,25.13,0,0,0-1.07-4,26,26,0,0,0-1.65-3.75A16.79,16.79,0,0,0,300.2,419.66Z" style="fill:#ebebeb"></path><path d="M450.8,350.53a45.62,45.62,0,0,0-4.71,5.46c-.73.94-1.38,1.94-2.07,2.9s-1.31,2-1.94,3l2.47-.05c-.67-1-1.34-2-2.05-2.91s-1.41-1.91-2.19-2.82a43.44,43.44,0,0,0-4.91-5.27,44.17,44.17,0,0,0,3,6.54c.55,1.07,1.19,2.07,1.78,3.1s1.26,2,1.92,3l1.27,1.91,1.2-2c.61-1,1.22-2,1.79-3.07s1.16-2.08,1.66-3.16A44,44,0,0,0,450.8,350.53Z" style="fill:#c7c7c7"></path><path d="M443,346.29A16.1,16.1,0,0,0,442,350.4a26.71,26.71,0,0,0,.15,8.18,16.08,16.08,0,0,0,1.23,4.07,16,16,0,0,0,1.07-4.11,26.3,26.3,0,0,0-.16-8.18A16.9,16.9,0,0,0,443,346.29Z" style="fill:#c7c7c7"></path><path d="M445.45,448.5a44.64,44.64,0,0,0-5.58-4.56c-.95-.72-2-1.34-2.95-2s-2-1.26-3-1.86l.11,2.46c1-.69,1.92-1.39,2.86-2.12s1.87-1.46,2.76-2.26a44.48,44.48,0,0,0,5.15-5,43.64,43.64,0,0,0-6.47,3.18c-1.05.57-2,1.23-3.05,1.85s-2,1.32-2.95,2l-1.88,1.32,2,1.14c1,.59,2.06,1.17,3.12,1.72s2.1,1.1,3.2,1.58A44.91,44.91,0,0,0,445.45,448.5Z" style="fill:#ebebeb"></path><path d="M449.49,440.61a16.36,16.36,0,0,0-4.13-1,26.34,26.34,0,0,0-8.18.36,16.42,16.42,0,0,0-4,1.33,16,16,0,0,0,4.14,1,24.44,24.44,0,0,0,4.1.13,25.57,25.57,0,0,0,4.07-.5A16,16,0,0,0,449.49,440.61Z" style="fill:#ebebeb"></path><path d="M261.53,342.63a44,44,0,0,0,.34,7.2c.11,1.19.32,2.36.48,3.54s.42,2.33.65,3.5l1.76-1.73c-1.16-.26-2.32-.5-3.49-.71s-2.34-.42-3.52-.54a43,43,0,0,0-7.2-.45,44.9,44.9,0,0,0,6.69,2.68c1.13.39,2.28.68,3.42,1s2.3.59,3.45.86l2.25.51-.49-2.24c-.25-1.16-.5-2.32-.8-3.47s-.6-2.3-1-3.43A45.29,45.29,0,0,0,261.53,342.63Z" style="fill:#dbdbdb"></path><path d="M253,344.91a16.68,16.68,0,0,0,2,3.72,27.42,27.42,0,0,0,2.64,3.14,26.58,26.58,0,0,0,3.1,2.69,16.19,16.19,0,0,0,3.69,2.11,16.75,16.75,0,0,0-2.05-3.73,25.64,25.64,0,0,0-2.65-3.13,26.68,26.68,0,0,0-3.09-2.7A16.77,16.77,0,0,0,253,344.91Z" style="fill:#dbdbdb"></path><path d="M242.06,429.12a45.63,45.63,0,0,0,5.43,4.74c.94.74,1.93,1.4,2.89,2.09s2,1.32,3,2l0-2.47c-1,.66-2,1.33-2.93,2s-1.92,1.4-2.83,2.17a44.23,44.23,0,0,0-5.3,4.88,44.24,44.24,0,0,0,6.56-3c1.07-.54,2.07-1.18,3.11-1.76s2-1.25,3-1.9l1.92-1.27-2-1.2c-1-.62-2-1.24-3.06-1.82s-2.07-1.16-3.15-1.67A44,44,0,0,0,242.06,429.12Z" style="fill:#ebebeb"></path><path d="M237.77,436.88a17.07,17.07,0,0,0,4.11,1.1,26.71,26.71,0,0,0,8.18-.11,16.21,16.21,0,0,0,4.08-1.21,17.07,17.07,0,0,0-4.11-1.1,26.82,26.82,0,0,0-4.09-.25,25.59,25.59,0,0,0-4.09.37A16.6,16.6,0,0,0,237.77,436.88Z" style="fill:#ebebeb"></path><path d="M140,148.41a15.07,15.07,0,0,0-6.1-1.21c-2.05-.35-4-1.19-6.06-1.47a21.4,21.4,0,0,0-4.17-.26l0,.1c3.24,1.48,6.75,1.47,10.19,1.94a15.3,15.3,0,0,0,6.15,1v-.1Z" style="fill:#c7c7c7"></path><path d="M149.32,68.77a10.56,10.56,0,0,0-3.22-4c-1.12-1.3-1.85-2.93-3-4.19a14,14,0,0,0-2.58-2.33l-.07.06c1.15,2.76,3.47,4.55,5.43,6.67a10.6,10.6,0,0,0,3.4,3.89l.07-.07Z" style="fill:#c7c7c7"></path><path d="M204.19,200.85a10.53,10.53,0,0,0-5.09.83c-1.69.34-3.47.18-5.15.59a14.8,14.8,0,0,0-3.29,1.1l0,.1c3,.35,5.67-.8,8.47-1.47a10.49,10.49,0,0,0,5.06-1.06l0-.09Z" style="fill:#c7c7c7"></path><path d="M143.15,228.87a10.67,10.67,0,0,0-5.14.56c-1.7.25-3.47,0-5.16.3a14.93,14.93,0,0,0-3.35.93v.1c3,.51,5.7-.49,8.55-1a10.42,10.42,0,0,0,5.1-.78v-.1Z" style="fill:#c7c7c7"></path><path d="M140.78,371.44a10.39,10.39,0,0,0-5.13.56c-1.7.24-3.47,0-5.17.3a15.07,15.07,0,0,0-3.35.93l0,.1c2.94.51,5.7-.49,8.54-1a10.57,10.57,0,0,0,5.11-.78l0-.1Z" style="fill:#c7c7c7"></path><path d="M97.37,176.81a10.48,10.48,0,0,0-5.16.09c-1.72.1-3.46-.32-5.18-.16a15.23,15.23,0,0,0-3.42.63v.1c2.89.77,5.72,0,8.6-.24a10.48,10.48,0,0,0,5.15-.33v-.09Z" style="fill:#c7c7c7"></path><path d="M85.44,182.86a10.41,10.41,0,0,0,5.14-.38c1.71-.18,3.47.14,5.18-.12a14.47,14.47,0,0,0,3.38-.81v-.1c-2.93-.61-5.72.29-8.58.71a10.54,10.54,0,0,0-5.12.6v.1Z" style="fill:#c7c7c7"></path><path d="M140.67,152.46a7,7,0,0,0-4.16-.11c-1.39,0-2.78-.46-4.17-.37a10.08,10.08,0,0,0-2.78.48v.1c2.3.89,4.61.26,6.95.12a6.88,6.88,0,0,0,4.16-.12v-.1Z" style="fill:#c7c7c7"></path><path d="M200.48,206a6.83,6.83,0,0,0-4.17-.11c-1.39,0-2.78-.46-4.17-.37a9.6,9.6,0,0,0-2.77.48v.1c2.3.89,4.6.25,6.94.11a7,7,0,0,0,4.17-.11V206Z" style="fill:#c7c7c7"></path><path d="M52.34,119.84A10.38,10.38,0,0,0,56,123.5c1.25,1.18,2.16,2.72,3.46,3.84a14.4,14.4,0,0,0,2.82,2l.07-.07c-1.44-2.62-3.95-4.15-6.13-6a10.45,10.45,0,0,0-3.79-3.5l-.07.07Z" style="fill:#c7c7c7"></path><path d="M58.72,119.84a7,7,0,0,0,2.33,3.46c.83,1.12,1.24,2.53,2.12,3.61a9.89,9.89,0,0,0,2,2l.08,0c-.61-2.39-2.47-3.9-3.94-5.72a6.88,6.88,0,0,0-2.52-3.32l-.08,0Z" style="fill:#c7c7c7"></path><path d="M202.19,87.84a10.48,10.48,0,0,0-5,1.42c-1.64.53-3.43.58-5,1.17A14.48,14.48,0,0,0,189,91.91l0,.09c3,0,5.54-1.44,8.25-2.43a10.57,10.57,0,0,0,4.9-1.63l0-.1Z" style="fill:#c7c7c7"></path><path d="M199.1,93.43a6.84,6.84,0,0,0-4.15.37c-1.38.18-2.81-.14-4.19.11a9.91,9.91,0,0,0-2.7.79v.1c2.39.62,4.61-.27,6.91-.68a7,7,0,0,0,4.13-.59v-.1Z" style="fill:#c7c7c7"></path><path d="M143.15,143.38a7,7,0,0,0-4.17-.11c-1.38,0-2.77-.46-4.16-.37a10,10,0,0,0-2.78.48v.1c2.3.89,4.61.26,6.94.12a6.91,6.91,0,0,0,4.17-.12v-.1Z" style="fill:#c7c7c7"></path><path d="M254.72,250.62a15.3,15.3,0,0,0-3.24-5.32c-1.13-1.74-1.83-3.75-3-5.45a20.79,20.79,0,0,0-2.63-3.25l-.08.05c1.09,3.39,3.48,6,5.46,8.82a15.22,15.22,0,0,0,3.42,5.2l.09,0Z" style="fill:#c7c7c7"></path><path d="M252.36,252.52a6.93,6.93,0,0,0-2.82-3.07c-1-1-1.61-2.31-2.64-3.25a9.79,9.79,0,0,0-2.28-1.65l-.07.07c1,2.27,3,3.48,4.75,5.06a7,7,0,0,0,3,2.91l.08-.07Z" style="fill:#c7c7c7"></path><path d="M258.07,245.39a6.89,6.89,0,0,0-.8-4.09c-.33-1.35-.16-2.81-.55-4.14a10,10,0,0,0-1.08-2.61l-.1,0c-.36,2.44.76,4.56,1.41,6.8a7,7,0,0,0,1,4l.1,0Z" style="fill:#c7c7c7"></path><path d="M200.72,407.37a15.16,15.16,0,0,0-6.11-1.22c-2-.34-4-1.18-6.06-1.46a20.6,20.6,0,0,0-4.17-.26v.1c3.23,1.48,6.74,1.47,10.19,1.94a15.07,15.07,0,0,0,6.14,1l0-.09Z" style="fill:#c7c7c7"></path><path d="M194.09,410.66a7,7,0,0,0-4.16-.11c-1.39,0-2.78-.46-4.17-.37a10.08,10.08,0,0,0-2.78.48v.1c2.3.89,4.61.26,7,.11a6.8,6.8,0,0,0,4.16-.11v-.1Z" style="fill:#c7c7c7"></path><path d="M196.57,401.58a7,7,0,0,0-4.17-.11c-1.38,0-2.77-.46-4.16-.37a9.67,9.67,0,0,0-2.78.48v.1c2.3.89,4.61.26,6.94.11a6.83,6.83,0,0,0,4.17-.11v-.1Z" style="fill:#c7c7c7"></path><path d="M40.07,241.9a15.29,15.29,0,0,0,6.09-1.28c2-.48,4.15-.48,6.15-1a22,22,0,0,0,3.94-1.39l0-.1c-3.56-.1-6.79,1.29-10.14,2.2a15.16,15.16,0,0,0-6,1.5l0,.1Z" style="fill:#c7c7c7"></path><path d="M92.73,289A15,15,0,0,0,95,283.15c.69-2,1.85-3.74,2.48-5.72a22.13,22.13,0,0,0,1-4.07l-.09,0c-2,2.94-2.6,6.4-3.65,9.71a15.29,15.29,0,0,0-2,5.89l.09,0Z" style="fill:#c7c7c7"></path><path d="M44.41,230.09a6.91,6.91,0,0,0,4.16.34c1.39.06,2.74.61,4.14.6a9.66,9.66,0,0,0,2.8-.33v-.1c-2.24-1-4.58-.51-6.92-.49a6.9,6.9,0,0,0-4.17-.12v.1Z" style="fill:#c7c7c7"></path><path d="M46.15,245.59A6.91,6.91,0,0,0,50,244.06c1.27-.56,2.73-.66,4-1.29a9.83,9.83,0,0,0,2.36-1.53l0-.1c-2.46.09-4.34,1.58-6.43,2.62a7,7,0,0,0-3.79,1.74l0,.09Z" style="fill:#c7c7c7"></path><path d="M123.52,278.5a15.28,15.28,0,0,0-1.27,6.09c-.37,2-1.23,4-1.53,6.05a21.3,21.3,0,0,0-.31,4.16l.1,0c1.52-3.22,1.54-6.73,2.06-10.17a15.21,15.21,0,0,0,1.05-6.13l-.1,0Z" style="fill:#c7c7c7"></path><path d="M117.7,282.59a6.88,6.88,0,0,0-.16,4.16c0,1.39-.49,2.77-.41,4.16a9.68,9.68,0,0,0,.45,2.79h.1c.91-2.29.3-4.61.18-6.94a6.9,6.9,0,0,0-.06-4.17Z" style="fill:#c7c7c7"></path><path d="M268.94,304.77a15.09,15.09,0,0,0,5.7,2.5c1.92.78,3.65,2,5.6,2.74a21.58,21.58,0,0,0,4,1.15l0-.09c-2.84-2.15-6.28-2.89-9.53-4.1a15.26,15.26,0,0,0-5.79-2.29l0,.09Z" style="fill:#c7c7c7"></path><path d="M271.74,311.31a6.87,6.87,0,0,0,4.05,1c1.36.28,2.61,1.05,4,1.26a10.1,10.1,0,0,0,2.81.13l0-.1c-2.05-1.37-4.44-1.24-6.75-1.61a7,7,0,0,0-4.09-.78l0,.09Z" style="fill:#c7c7c7"></path><path d="M139.52,359a7,7,0,0,0-4.17-.11c-1.38,0-2.77-.46-4.16-.37a9.67,9.67,0,0,0-2.78.48v.1c2.3.89,4.61.26,6.94.11a6.83,6.83,0,0,0,4.17-.11V359Z" style="fill:#c7c7c7"></path><path d="M131,363.42a7,7,0,0,0,4.1-.74c1.36-.3,2.81-.11,4.16-.48a10.23,10.23,0,0,0,2.62-1l0-.1c-2.43-.4-4.57.69-6.82,1.3a6.93,6.93,0,0,0-4.06,1l0,.1Z" style="fill:#c7c7c7"></path><path d="M228.07,318.7a6.93,6.93,0,0,0-2.11-3.59c-.76-1.17-1.08-2.6-1.9-3.73a9.55,9.55,0,0,0-1.88-2.1l-.08.05c.46,2.42,2.22,4.05,3.58,5.95a6.86,6.86,0,0,0,2.3,3.47l.09-.05Z" style="fill:#c7c7c7"></path><path d="M219.77,313.85a6.94,6.94,0,0,0,2.8,3.09c1,1,1.59,2.32,2.61,3.27a10,10,0,0,0,2.27,1.67l.07-.07c-.94-2.27-3-3.51-4.71-5.09a6.94,6.94,0,0,0-3-2.94l-.08.07Z" style="fill:#c7c7c7"></path><path d="M196.57,301.11a7,7,0,0,0-4.17-.11c-1.38,0-2.77-.46-4.16-.37a9.67,9.67,0,0,0-2.78.48v.1c2.3.89,4.61.26,6.94.11a6.83,6.83,0,0,0,4.17-.11v-.1Z" style="fill:#c7c7c7"></path><path d="M223.69,350.92a6.9,6.9,0,0,0-1.36,3.94c-.4,1.33-1.28,2.5-1.61,3.86a9.5,9.5,0,0,0-.38,2.79l.1,0c1.54-1.92,1.63-4.32,2.19-6.59a6.88,6.88,0,0,0,1.15-4l-.09,0Z" style="fill:#c7c7c7"></path><path d="M204.31,119.91a6.88,6.88,0,0,0-4.16-.12c-1.39,0-2.78-.46-4.17-.37a9.68,9.68,0,0,0-2.78.49v.1c2.3.89,4.61.25,7,.11a7,7,0,0,0,4.16-.11v-.1Z" style="fill:#c7c7c7"></path><path d="M191,357.05s32.71,1.85,44.44-2.67,28.18-13.17,34.35-23.25,9.47-24.48,9.47-32.3.2-20,0-26.95,2.88-33.74-17.28-34.15-17.9,21.8-17.7,32.5,1.86,30.86-4.93,40.33-23.25,9.46-28,9.87-20.37.26-20.37.26c-2.26.87-8.69,10.85-9,18.46S188.83,357,191,357.05Z" style="fill:#ebebeb"></path><path d="M269.7,243.72c1.85,3.08,2.75,6.63,3.62,10.08,1.74,7,1.79,14.18,1.33,21.37-.31,6.43-.52,15.25-.9,21.56-.21,3.59-.43,7.19-.94,10.74s-1.9,6.9-3.39,10.15c-3.71,7.59-8.17,15.1-14.44,20.84a24.45,24.45,0,0,1-5.61,3.48,121.66,121.66,0,0,1-20.16,7.38c-6.93,1.79-14.22,1.66-21.33,2.26-7.18.34-14.38.78-21.56.62,10.51.9,21.67,0,32.39-.4a48.76,48.76,0,0,0,10.76-1.48,111.62,111.62,0,0,0,20.31-7.53,23.93,23.93,0,0,0,4.69-2.82c4.24-3.44,7.39-8,10.22-12.64a90,90,0,0,0,7.12-14.56,23.81,23.81,0,0,0,1.34-5.25c1-7.15,1.46-14.34,1.9-21.53.39-10.76,1.75-21.77-1.23-32.31a34.78,34.78,0,0,0-4-10l-.08.06Z" style="fill:#c7c7c7"></path><path d="M257.8,240.35c-5.76,1.72-7.1,9.31-8.12,14.44A132.46,132.46,0,0,0,248.33,272c.41,11.38,2.24,23.12-1.26,34.19-1.58,5.57-5.55,9.91-10.37,12.93s-10.43,4.43-16.08,5c-11.41,1.36-22.85,2.09-34.31,3.05a335.58,335.58,0,0,0,34.41-2c11.34-.75,23.86-7,26.87-18.79,3.07-11.2,1.58-22.91,1.56-34.33.32-5.72.42-11.47,1.28-17.12.91-5.32,2-12.21,7.37-14.56Z" style="fill:#c7c7c7"></path><path d="M182.45,335.64c18,.79,36.91.4,53.33-7.81,6.61-3.37,13.8-7.64,16.65-14.87,3.12-9.31,6.07-18.93,6.24-28.82-.05-.77-.05-1.54-.17-2.32a100.4,100.4,0,0,1-1.81-17.94c.11-5.88,0-12.33,3.22-17.46l-.08-.06a11.28,11.28,0,0,0-1.21,1.92c-2.3,4.82-2.55,10.34-2.71,15.6A90.32,90.32,0,0,0,257.47,282c.63,8.94-2,17.89-4.35,26.46-.89,2.84-1.53,5.83-3.34,8.26-3.49,4.89-8.78,8.28-14.15,10.84-16.5,7.78-35.51,7.49-53.18,8.12Z" style="fill:#c7c7c7"></path><path d="M265.38,247.63c2.05,6.26,2,13.06,2.53,19.6.32,6.61.63,13.19-.48,19.74-.94,8.21-1.33,16.56-3.84,24.47-1.84,4.57-4.69,8.75-7.16,13a26.55,26.55,0,0,1-6.47,7.31c-8.27,5.36-18.14,7.92-27.73,9.78-13.08,1.93-26.37,2.22-39.57,2.93,6.39.31,13.32-.13,19.89-.3a169.86,169.86,0,0,0,19.85-1.62,90.19,90.19,0,0,0,19.19-5.45,41.27,41.27,0,0,0,8.84-4.72,27.45,27.45,0,0,0,6.46-7.63c1.74-2.85,3.2-5.82,4.85-8.69a22.38,22.38,0,0,0,2.14-4.5c2.5-7.93,3.25-16.29,4.38-24.47,1.21-6.53.83-13.28.41-19.89a123.08,123.08,0,0,0-1.79-14.82,21.52,21.52,0,0,0-1.41-4.78l-.09,0Z" style="fill:#c7c7c7"></path><path d="M181.9,339.15c-.36,7.62,6.93,17.8,9,17.9,0,0,2.74.15,6.92.28l6.3-36.65c-6.09.07-13.22,0-13.22,0C188.68,321.57,182.26,331.54,181.9,339.15Z" style="opacity:0.1"></path><path d="M187.25,478.07s-1.24-34.16,0-38.68,7.4-63,6.17-86.82-2.56-100,.16-115.21,2.72-71.18,1.9-98.34,9.87-83.53-24.69-86S134.58,92,134.17,113s3.29,70.5,2.47,83.67-2.47,109.86-2.47,120.55,0,90.53-.41,96.29-5.35,64.6-5.35,64.6Z" style="fill:#ebebeb"></path><path d="M170.77,53.07c10.1,5.27,15.31,16.68,17.64,27.36,1.91,11,.22,22.47-.35,33.59-1.41,17.86.8,36.07.68,54,.32,13.53-2,26.89-2.84,40.36-1.43,15.87-3.28,38.2-3.73,53.9-.39,13.52-1.32,27.06,0,40.57,1.53,13.37,1.53,26.93,1.8,40.39.05,11.24.27,22.5-.47,33.71-1.71,15.65-3,31.38-4.1,47.09-1.07,17.91-2.54,36.25-1.68,54-.23-18,1.09-36,2.41-53.93,1.17-15.3,2.75-31.77,4.39-47.07.74-11.25.59-22.54.49-33.8-.33-13.52-.35-27.06-2-40.52-1.38-13.38-.56-27-.29-40.41.83-27,3.35-53.91,6.27-80.76,1.13-18-.18-36-.57-54-.23-9,.9-18,1.23-26.94s.73-18.25-2.49-26.81c-3-8.26-8.21-17.14-16.38-20.71Z" style="fill:#c7c7c7"></path><path d="M158,54.67c-3.31,2.15-5.62,5.47-7.47,8.89A63.52,63.52,0,0,0,145.4,77.7a109.88,109.88,0,0,0-3.18,26.54c-.07,17.84.54,35.65,1.19,53.46.38,15.79,1.82,37.88.92,53.42-.6,15.48-1.73,37.72-2.45,53.41-1,26.69-3.55,53.43-2.19,80.16.72,26.7,4.05,53.37,1.8,80.06-1,15.86-2.74,37.36-3.94,53.31,2-17.47,3.25-35.55,4.67-53.26.64-8.89,1.33-17.83.94-26.74-.58-17.82-1.74-35.6-2.43-53.41-1.45-17.67,1-61.78,1.69-80.1.68-15.79,1.51-37.87,2.28-53.42,1-15.48-.25-37.76-.54-53.45s-1.25-38-1.25-53.43c-.1-14.6,3.14-40.45,15.11-49.58Z" style="fill:#c7c7c7"></path><path d="M149.11,478.07c1.48-35.23,3.52-70.56,1.65-105.81-.36-8.8-.44-17.62-.52-26.43-.22-25.18.26-54,.81-79.37.75-44.89,5.13-90.61,5.6-135.48.22-16.54-3.29-33-2.4-49.51.55-8.62,2-18,8.2-24.47-6.43,6-8.07,15.9-8.7,24.44-1.05,16.57,2.3,33,1.95,49.54-.67,36.36-3.23,72.67-4.66,109-.75,41.23-1.89,91.19-1,132.3,1.75,34.7-.3,71.18-.89,105.78Z" style="fill:#c7c7c7"></path><path d="M171,57c3.18,3.07,4.39,7.61,5.75,11.7,3.83,12.7,4.55,26,3.82,39.21-.65,17.61-2.28,35.2-2.06,52.89.26,8.8-.24,17.61-.72,26.41-.88,17.62-2.92,35.17-3.73,52.79-.52,26.45.21,52.93.07,79.37-1,34.7-3.39,71.08-3.82,105.76,0,17.59-.05,35.54.54,52.93,0-16,0-37.26.17-52.92.81-34.74,3.21-71,4.06-105.75.06-15.21-.46-37.48-.62-52.93,0-13.22-.44-26.46.74-39.65,1.66-21.86,4.23-44.11,4-66-.14-8.8.44-17.62.86-26.41.73-21.9,3.91-44.51-3-65.78a43.58,43.58,0,0,0-3.9-9.13,10.18,10.18,0,0,0-2.13-2.54L171,57Z" style="fill:#c7c7c7"></path><path d="M165.53,60.3c4.46,25.84,3.62,52.12,1.33,78.13-2.24,34.79-2.24,69.68-4.24,104.48-2.64,34.77-.22,69.7-.64,104.52-1.62,39.16-3.08,78.38-3,117.58,0,3.24.13,6.58.3,9.81.07,1.09.22,2.17.33,3.25h.1a123.59,123.59,0,0,1-.41-13.05c.39-38.77,2.18-78.73,3.7-117.56.36-34.85-2.46-69.71,0-104.52,1.76-34.81,2.54-69.66,4.71-104.44,2-25.93,3.08-52.75-2.19-78.19Z" style="fill:#c7c7c7"></path><path d="M128.41,478.07h38.52c-7.25,0-16.12-160.39-15.64-181.46s-6.36-87.23-7-102-8.45-81.79-6.71-113.71c-2.87,11.15-3.25,23.39-3.43,32.1-.4,21,3.3,70.5,2.48,83.67s-2.48,109.86-2.48,120.55,0,90.52-.4,96.29S128.41,478.07,128.41,478.07Z" style="opacity:0.1"></path><path d="M137.6,287.45s-31.28.41-40.46-1.24-37.86-18-40.46-21.81S50.91,253.57,50,243.28s-6.3-41.69-5.21-50.06-.27-28.25,2.47-43.48,11.39-28.25,26.06-29.35,17.14,11.25,18.38,20-.41,80.78.69,85.85,18.24,16.74,23.17,17.42,22.09.55,22.09.55c8-.55,11.19,7.82,12.07,11.93s.2,14.95-1.85,19.89C146.39,279.52,139.79,287.42,137.6,287.45Z" style="fill:#ebebeb"></path><path d="M79.54,124.61c4.94,5.64,6.36,13.11,6,20.41s-.92,14.64-1,21.95c-.16,13-.89,31.14-.73,44a90.44,90.44,0,0,0,.71,11,29.61,29.61,0,0,0,3.9,10.38c3.76,6.34,8.56,12.35,15.11,16,3.32,1.81,7.24,1.77,10.9,2.1s7.33.38,11,.47c7.31,0,14.75.54,22-.7-7.09.61-14.7.24-22,0-6.33-.38-12.79-.49-19-1.75-4.28-1.39-7.69-4.59-10.74-7.85C91,235.26,86.65,229,85.32,221.83c-2.2-18.16-.69-36.59,0-54.83.21-7.33.79-14.61,1-22a37,37,0,0,0-1.19-11,22,22,0,0,0-5.56-9.44Z" style="fill:#c7c7c7"></path><path d="M67.33,124.53c-8.26,5-12.65,14.57-14.51,23.74-1.69,9.26-.29,19-.51,28.45.43,23.59-1.79,47.77,5,70.71,1.32,3.93,2.91,8.16,6.25,10.86,4.49,2.89,8.66,6.13,12.94,9.38,7.56,5.65,16,11.09,25.73,11.82a417.07,417.07,0,0,0,42.64,1.2c-9.47-.25-18.94-.54-28.4-1.05-27.67-.73-29.59-6.41-50.89-21.15-7.22-4.09-9.31-17.42-10.77-25.07-3.41-18.75-1.8-37.78-1.69-56.71q0-7.11-.14-14.22a59.75,59.75,0,0,1,.61-14.08c1.66-9.14,6.07-18.57,13.74-23.88Z" style="fill:#c7c7c7"></path><path d="M150,259.41c-7.87.59-15.76,1-23.65,1.1-5.86,0-11.84.08-17.56-1.24-12.8-4.1-25.87-12-31.33-24.84a31.59,31.59,0,0,1-2.24-11.5A227.54,227.54,0,0,1,76,199.3c.54-7.88,1.32-15.73,2-23.6.86-11.8,2.72-23.68,1.45-35.52-.45-3.84-.56-8.22-3.3-11.23l-.08.06a10.49,10.49,0,0,1,2.23,5.35,110.24,110.24,0,0,1,.94,11.77c-.09,9.15-1.56,20.26-2.28,29.47-1.34,15.74-2.91,31.55-2.24,47.36.28,18.7,17.26,32,33.82,37.17,5.83,1.37,11.87,1.19,17.81,1.14A208.6,208.6,0,0,0,150,259.41Z" style="fill:#c7c7c7"></path><path d="M68,129.8c-4.6,7.25-6.38,16-6.39,24.48-.26,8.5-.16,17,0,25.51.2,6.36.49,19.13.6,25.49.25,8.51.21,17.06,1.55,25.49,2.05,8.38,7.1,15.68,12.85,21.95a43.42,43.42,0,0,0,9.92,8.17,63,63,0,0,0,11.91,4.79,118.31,118.31,0,0,0,25.07,5c8.54,0,17-.11,25.52-.25.23-.25-25.51-.38-25.48-.45a92.2,92.2,0,0,1-12.52-2c-8.17-1.92-16.57-4-24-7.95-9.82-5.82-19.74-18.25-22.68-29.34-2.6-16.77-1.75-33.92-2.07-50.85,0-8.5-.07-17,.09-25.48a60.89,60.89,0,0,1,1.25-12.59A54,54,0,0,1,68,129.8Z" style="fill:#c7c7c7"></path></g><g id="freepik--Bottle--inject-768"><polygon points="319.06 425.11 329.02 435.15 329.02 472.53 322.26 478.07 177.73 478.07 170.97 472.53 170.97 435.15 180.94 425.11 156.02 200.8 219.73 153.37 219.73 120.83 223.65 109.06 223.65 75.83 276.34 75.83 276.34 109.06 280.26 120.83 280.26 153.37 343.98 200.8 319.06 425.11" style="fill:#ECEFF1;opacity:0.8"></polygon><g style="opacity:0.5"><path d="M312.42,427.67l9.16,9.23V465l-5.18,5.09S267,461.46,250,461.46s-66.41,8.63-66.41,8.63L178.41,465V436.9l9.17-9.23L163.64,203.85l62.71-45.66V122l3.6-10.82v-.35H270v.35l3.6,10.82v36.15l62.72,45.66Z" style="fill:#ECEFF1;opacity:0.8"></path><path d="M312.42,427.67l9.16,9.23V465l-5.18,5.09S267,461.46,250,461.46s-66.41,8.63-66.41,8.63L178.41,465V436.9l9.17-9.23L163.64,203.85l62.71-45.66V122l3.6-10.82v-.35H270v.35l3.6,10.82v36.15l62.72,45.66Z" style="opacity:0.2"></path></g><g style="opacity:0.2"><path d="M167.61,201.14c27.08-5.64,54.69-9.19,82.39-9.46,27.69.28,55.29,3.9,82.39,9.46-6.87-.81-13.72-1.66-20.59-2.33-20.52-2.16-41.19-4.05-61.8-4.13-27.53.16-55.05,3.17-82.39,6.46Z"></path><path d="M185.1,425.11c43.06-2.05,86.74-2.07,129.8,0-43.06,2.06-86.74,2.05-129.8,0Z"></path><path d="M223.64,152.91a205.35,205.35,0,0,1,26.36-1.5,202.1,202.1,0,0,1,26.36,1.5,202.1,202.1,0,0,1-26.36,1.5,207.17,207.17,0,0,1-26.36-1.5Z"></path></g><polygon points="284.08 50.26 284.08 73.56 279.13 81.76 220.87 81.76 215.92 73.56 215.92 50.26 224.61 40.24 250 37.35 275.39 40.24 284.08 50.26" style="fill:#ECEFF1"></polygon><polygon points="284.08 50.26 284.08 73.56 279.13 81.76 220.87 81.76 215.92 73.56 215.92 50.26 224.61 40.24 250 37.35 275.39 40.24 284.08 50.26" style="opacity:0.5"></polygon><path d="M222.43,53.89a110,110,0,0,1,0,21.24,109.23,109.23,0,0,1,0-21.24Z" style="fill:#263238"></path><path d="M231.62,53.89a110,110,0,0,1,0,21.24,109.23,109.23,0,0,1,0-21.24Z" style="fill:#263238"></path><path d="M240.81,53.89a110,110,0,0,1,0,21.24,109.23,109.23,0,0,1,0-21.24Z" style="fill:#263238"></path><path d="M250,53.89a110,110,0,0,1,0,21.24,110,110,0,0,1,0-21.24Z" style="fill:#263238"></path><path d="M219.91,50.51c20-.67,40.16-.67,60.18,0-20,.68-40.17.68-60.18,0Z" style="fill:#263238"></path><path d="M259.19,53.89a109.23,109.23,0,0,1,0,21.24,110,110,0,0,1,0-21.24Z" style="fill:#263238"></path><path d="M268.38,53.89a109.23,109.23,0,0,1,0,21.24,110,110,0,0,1,0-21.24Z" style="fill:#263238"></path><path d="M277.57,53.89a109.23,109.23,0,0,1,0,21.24,110,110,0,0,1,0-21.24Z" style="fill:#263238"></path><g style="opacity:0.4"><polygon points="233.17 81.76 233.21 112.96 229.62 124.12 229.62 160.27 166.91 205.93 190.85 427.67 188.37 215.45 247.82 169.19 247.82 81.76 233.17 81.76" style="fill:#fff"></polygon><polygon points="196.85 338.46 195.84 433.07 264.93 425.11 206.08 425.23 196.85 338.46" style="fill:#fff"></polygon></g><polygon points="276.34 81.76 262.5 81.76 262.5 111.48 267 122.11 267 158.91 319.62 207.69 295.62 427.19 308.2 442.19 308.2 470.09 297.12 478.07 322.26 478.07 329.02 472.53 329.02 435.15 319.06 425.11 343.98 200.8 280.26 153.37 280.26 120.83 276.34 109.06 276.34 81.76" style="opacity:0.1"></polygon><path d="M312,264.06l-8.4,126.65H196.43L188,264.06s15.17-31,62-31S312,264.06,312,264.06Z" style="fill:#fff"></path><path d="M299.06,385.62H200.94l-7.62-119.41.12-.23c.14-.29,14.38-28.44,56.56-28.44s56.43,28.15,56.56,28.44l.12.23,0,.27Zm-96.25-2h94.37l7.47-117c-1.42-2.61-15.76-27.09-54.65-27.09S196.77,264,195.35,266.63Z" style="fill:#ECEFF1"></path><path d="M214.68,273.43l-2.84,1.34,4.51,9.55a1.09,1.09,0,0,1-2,.93l-4.51-9.55L207.05,277a1.1,1.1,0,0,1-1.46-.54,1.08,1.08,0,0,1,.52-1.45l7.63-3.6a1.08,1.08,0,0,1,1.45.51A1.12,1.12,0,0,1,214.68,273.43Z" style="fill:#263238"></path><path d="M223,281.56l-3.28-11.19a1.07,1.07,0,0,1,.74-1.35h0l0,0,6.15-1.8a1.1,1.1,0,0,1,1.35.74,1.12,1.12,0,0,1-.74,1.37l-5.14,1.51,1,3.47,4.42-1.3a1.1,1.1,0,0,1,.62,2.11l-4.43,1.29,1,3.49,5.14-1.5a1.1,1.1,0,0,1,.61,2.11l-6.14,1.8s0,0,0,0v0A1.09,1.09,0,0,1,223,281.56Z" style="fill:#263238"></path><path d="M248.13,279.94a5.39,5.39,0,0,1-3.1,1.6H245a7,7,0,0,1-3.73-.77,2.54,2.54,0,0,0-1.23-.16,3.42,3.42,0,0,0-1.36.5,1.05,1.05,0,0,1-1.15.07s-.06,0-.12,0,0,0,0,0a1.4,1.4,0,0,1-.33-.42,1.14,1.14,0,0,1,.36-1.58l0,0a8.87,8.87,0,0,1-2.35-1.25,7.71,7.71,0,0,1-2.54-4.9,7.53,7.53,0,0,1,1.38-5.29,6.68,6.68,0,0,1,4.67-2.74,6.52,6.52,0,0,1,5.12,1.62,7.43,7.43,0,0,1,2.58,4.84,7.55,7.55,0,0,1-1.42,5.36,7.72,7.72,0,0,1-2,1.8l-.43.23a4.84,4.84,0,0,0,2.28.45,2.93,2.93,0,0,0,1.84-1,1.15,1.15,0,0,1,1.62,0A1.16,1.16,0,0,1,248.13,279.94Zm-11.53-3.86a4.35,4.35,0,0,0,3.37,1.05,4.59,4.59,0,0,0,3.08-1.79,5.16,5.16,0,0,0,.95-3.69,5,5,0,0,0-1.75-3.34,4.47,4.47,0,0,0-3.41-1.07,4.28,4.28,0,0,0-3,1.8,5,5,0,0,0-1,3.65A5.18,5.18,0,0,0,236.6,276.08Z" style="fill:#263238"></path><path d="M255.81,278.47a5.69,5.69,0,0,1-5.33-6.07l.45-7a1.07,1.07,0,0,1,1.16-1,1.1,1.1,0,0,1,1,1.16l-.45,7a3.52,3.52,0,1,0,7,.46l.46-7a1.1,1.1,0,0,1,2.19.14l-.46,7A5.7,5.7,0,0,1,255.81,278.47Z" style="fill:#263238"></path><path d="M267.2,267a1.07,1.07,0,0,1,1.26-.87,1.08,1.08,0,0,1,.89,1.27l-2.1,11.47a1.09,1.09,0,0,1-1.28.87,1.07,1.07,0,0,1-.88-1.26Z" style="fill:#263238"></path><path d="M270.65,279.54l3.3-11.19a1.07,1.07,0,0,1,1.35-.73,1.09,1.09,0,0,1,.76,1.35l-3,10.13,5.14,1.52a1.11,1.11,0,0,1,.73,1.37,1.1,1.1,0,0,1-1.35.73l-6.14-1.81h-.06A1.1,1.1,0,0,1,270.65,279.54Z" style="fill:#263238"></path><path d="M288.25,283.85l-4.35-2.05-2,1.92a1.13,1.13,0,0,1-1.22.19,1.07,1.07,0,0,1-.32-.22,1.12,1.12,0,0,1,0-1.56l8.91-8.68a1.1,1.1,0,0,1,1.24-.18,1.07,1.07,0,0,1,.65,1.07l-1,12.4a1.12,1.12,0,0,1-1.19,1,1.18,1.18,0,0,1-.37-.11,1.06,1.06,0,0,1-.62-1.05Zm.19-2.32.36-4.52-3.26,3.16Z" style="fill:#263238"></path><polygon points="254.8 336.34 250 358.4 243.21 343.76 244.06 315.59 250.35 295.16 254.06 319.74 254.8 336.34" style="fill:#37474f"></polygon><polygon points="255.72 340.19 250 358.4 246.41 333.05 249.78 312.04 250.35 295.16 255.93 318.61 255.72 340.19" style="fill:#455a64"></polygon><polygon points="243.81 338.85 250.43 358.12 237.66 350.15 224.78 328.1 220.21 309.36 235.19 326.45 243.81 338.85" style="fill:#37474f"></polygon><polygon points="243.81 338.85 250.43 358.12 235.19 340.38 227.87 322.6 220.21 309.36 235.19 326.45 243.81 338.85" style="fill:#455a64"></polygon><polygon points="238.22 347.65 250.94 358.48 238.96 358.73 220.85 348.83 209.74 337.42 227.12 342.74 238.22 347.65" style="fill:#37474f"></polygon><polygon points="238.22 347.65 250.94 358.48 233.1 352.82 220.56 343.4 209.74 337.42 227.12 342.74 238.22 347.65" style="fill:#455a64"></polygon><polygon points="256.19 338.85 249.57 358.12 262.34 350.15 275.22 328.1 279.79 309.36 264.81 326.45 256.19 338.85" style="fill:#37474f"></polygon><polygon points="256.19 338.85 249.57 358.12 264.81 340.38 272.13 322.6 279.79 309.36 264.81 326.45 256.19 338.85" style="fill:#455a64"></polygon><polygon points="261.78 347.65 249.06 358.48 261.05 358.73 279.15 348.83 290.26 337.42 272.88 342.74 261.78 347.65" style="fill:#37474f"></polygon><polygon points="261.78 347.65 249.06 358.48 266.9 352.82 279.44 343.4 290.26 337.42 272.88 342.74 261.78 347.65" style="fill:#455a64"></polygon><path d="M213.83,358.12c24.06-.68,48.27-.68,72.34,0-24.07.67-48.28.67-72.34,0Z" style="fill:#263238"></path></g><g id="freepik--Glass--inject-768"><g style="opacity:0.30000000000000004"><path d="M163.23,394.31c-1.59,23.15-1.49,83.75-1.49,83.75H97.28s.12-60.6-1.48-83.75c-2.54-36.9-15-85.68-15-85.68h97.54S165.78,357.41,163.23,394.31Z" style="fill:#ebebeb"></path><path d="M162,478.31H97v-.25c0-.6.1-60.85-1.48-83.74-2.51-36.44-14.92-85.14-15-85.62l-.08-.32h98.19l-.08.32c-.12.48-12.53,49.18-15.05,85.62-1.58,22.89-1.49,83.14-1.49,83.74Zm-64.45-.5h64c0-4.28,0-61.37,1.49-83.52l.25,0-.25,0c2.42-35,13.92-81.16,15-85.41H81.07c1.07,4.25,12.57,50.45,15,85.41C97.58,416.44,97.54,473.53,97.54,477.81Z" style="fill:#263238"></path></g><g style="opacity:0.30000000000000004"><path d="M155.26,393.33c-1.22,17.48-1.13,63.23-1.13,63.23s-10.87,9.53-24.61,9.53c-14.41,0-24.62-9.53-24.62-9.53s.09-45.75-1.13-63.23c-1.94-27.85-15.6-84.7-15.6-84.7h83.58S157.21,365.48,155.26,393.33Z" style="fill:#dbdbdb"></path><path d="M129.52,466.34c-14.35,0-24.68-9.51-24.79-9.6l-.08-.07v-.11c0-.46.08-45.94-1.13-63.21-1.92-27.51-15.46-84.09-15.59-84.66l-.08-.31h84.22l-.08.31c-.14.57-14.56,57.15-16.48,84.66-1.2,17.27-1.14,62.75-1.13,63.21v.11l-.09.07C154.18,456.84,143.2,466.34,129.52,466.34Zm-24.37-9.89c1,.87,10.89,9.39,24.37,9.39,12.85,0,23.31-8.52,24.36-9.4,0-2.58,0-46.27,1.14-63.13l.24,0-.24,0c1.84-26.49,15.25-79.84,16.41-84.43H88.49c1.08,4.57,13.68,57.94,15.53,84.43C105.2,410.18,105.16,453.92,105.15,456.45Z" style="fill:#263238"></path></g><path d="M155.27,393.32c-1.22,17.48-1.14,63.23-1.14,63.23s-10.87,9.53-24.61,9.53c-14.41,0-24.61-9.53-24.61-9.53s.08-45.75-1.14-63.23c-.48-6.9-1.43-14.36-2.58-21.67h56.66C156.7,379,155.75,386.42,155.27,393.32Z" style="fill:#ECEFF1"></path><path d="M155.27,393.32c-1.22,17.48-1.14,63.23-1.14,63.23s-10.87,9.53-24.61,9.53c-14.41,0-24.61-9.53-24.61-9.53s.08-45.75-1.14-63.23c-.48-6.9-1.43-14.36-2.58-21.67h56.66C156.7,379,155.75,386.42,155.27,393.32Z" style="opacity:0.1"></path><g style="opacity:0.4"><path d="M90.9,308.63s16.79,75.07,16.79,79.62v59.52L116.5,439V386.48l-15.66-77.85Z" style="fill:#fff"></path><path d="M119.6,364.14l-2.48,6.13c-4.9-23.56-13.42-61.64-13.42-61.64h3.77S114.63,340.66,119.6,364.14Z" style="fill:#fff"></path></g><path d="M163.23,394.31c-1.59,23.15-1.49,83.76-1.49,83.76H97.28l52.13-18.15s.18-58.7,0-66.57,13.48-84.72,13.48-84.72h15.4S165.78,357.41,163.23,394.31Z" style="opacity:0.1"></path></g><g id="freepik--Lemons--inject-768"><path d="M380.49,354.18,365.16,475.7a109.88,109.88,0,0,0,32.23,2c13.95-1.25,24.12-2.93,30-7.43,3.46-2.67,13.29-13.3,16.45-15.33s12.84-4.21,14-9.43-7.21-11.76-8.11-15.36-7.89-44.18-24.34-57.48S387.47,355.76,380.49,354.18Z" style="fill:#ECEFF1"></path><g style="mix-blend-mode:multiply;opacity:0.1"><path d="M429.66,401.65a1.68,1.68,0,1,0,1.68-1.67A1.68,1.68,0,0,0,429.66,401.65Z"></path><path d="M403.75,392.49a1.68,1.68,0,1,0,1.68-1.67A1.67,1.67,0,0,0,403.75,392.49Z"></path><path d="M387.78,467.08a1.68,1.68,0,1,0-.3-2.35A1.68,1.68,0,0,0,387.78,467.08Z"></path><path d="M452.33,442.6a1.68,1.68,0,1,0,1.67-1.67A1.68,1.68,0,0,0,452.33,442.6Z"></path><path d="M427.07,418.94a2.27,2.27,0,1,0,2.27-2.26A2.27,2.27,0,0,0,427.07,418.94Z"></path><path d="M396.21,473a2.26,2.26,0,1,0-.41-3.18A2.27,2.27,0,0,0,396.21,473Z"></path><path d="M423.71,414.61a1,1,0,1,0,1-1A1,1,0,0,0,423.71,414.61Z"></path><circle cx="433.15" cy="441.14" r="0.98"></circle><path d="M379.42,420.51a1,1,0,1,0,1-1A1,1,0,0,0,379.42,420.51Z"></path><path d="M406.12,368.18a1,1,0,1,0,1-1A1,1,0,0,0,406.12,368.18Z"></path><path d="M432,457.33a1,1,0,1,0,1-1A1,1,0,0,0,432,457.33Z"></path></g><path d="M457.79,445.5c-1.12,5.22-10.82,7.4-14,9.43s-13,12.66-16.46,15.32c-5.85,4.51-16,6.19-30,7.45a110.08,110.08,0,0,1-32.23-2l3.3-26.23c11.17,3.69,43.41,13.92,52.54,12.14,11.1-2.16,16.9-10,20.53-11.34s12.67-1.9,14.14-4,1-6.24-1.25-9.18C456.51,439.88,458.36,442.85,457.79,445.5Z" style="opacity:0.1"></path><path d="M383.49,354.46c13.49,2.92,35.7,26,31.26,66-3.81,34.35-32.85,61.21-62.94,54.32s-36.39-38-29.83-70.66S352,347.65,383.49,354.46Z" style="fill:#ECEFF1"></path><path d="M383.49,354.46c13.49,2.92,35.7,26,31.26,66-3.81,34.35-32.85,61.21-62.94,54.32s-36.39-38-29.83-70.66S352,347.65,383.49,354.46Z" style="fill:#fff;opacity:0.5"></path><g style="opacity:0.5"><path d="M364,423c-3.21,1.22-2.61,18.78-3.07,24.57s-3.89,23.13.82,23.76,15.72-5.94,19-8.09,8.45-6.69,8.74-10.88S370.76,420.41,364,423Z" style="fill:#ECEFF1"></path><path d="M368.81,415.6c-1,4,8.18,10.92,11.29,13.25s11,9.81,16.06,7.77,8.3-10.95,9.38-19.86S406.88,398.17,402,398s-12.17,5.9-15.95,7.27S369.8,411.48,368.81,415.6Z" style="fill:#ECEFF1"></path><path d="M366.36,408.93c2.31,1.77,9.56-3.95,12-6s21.87-10.28,23.26-16.42-13.38-24-18.9-22.22-8.93,16.7-9.88,20.47S363.17,406.5,366.36,408.93Z" style="fill:#ECEFF1"></path><path d="M359.92,407c2.51-.13,6.7-14.27,7.92-20.43s7.45-17.59,5.55-22-8.45-4.93-16.46-2.25-10.71,8.42-10.08,10.74,5,11.37,5.31,14.47S356.63,407.19,359.92,407Z" style="fill:#ECEFF1"></path><path d="M354.56,411.45c1-1.76-3.36-15.23-5.25-19s-5.88-17.39-9.21-16.87-8.24,11.49-9.5,15.67-3.54,11.16-2.52,13.58c.71,1.65,11.54,4,13.62,5.2S353.35,413.57,354.56,411.45Z" style="fill:#ECEFF1"></path><path d="M356.56,423.6c-3.69-1.1-11.92,14.26-13.64,16.22s-10.44,7.09-11.27,12.21,6.22,8.38,8.45,10.86c2,2.26,8.84,7.13,11.19,4.34s3.5-21,3.94-23.4S360.3,424.72,356.56,423.6Z" style="fill:#ECEFF1"></path><path d="M352.84,418.19c.32,2.93-5.74,8.7-8.06,11.22s-13.92,17.11-17.66,13.35-4.16-24.2-1-27.35S352.54,415.36,352.84,418.19Z" style="fill:#ECEFF1"></path><path d="M347.66,422.49c.31,1.2-7.37,6.38-8.44,2.26S347.34,421.29,347.66,422.49Z" style="fill:#fff;opacity:0.5"></path><path d="M357.1,387.87c-1.22.09-4.77-8.56-.58-8.84S358.32,387.79,357.1,387.87Z" style="fill:#fff;opacity:0.5"></path><path d="M360.69,398.68c-1.16-.39-1.22-9.75,2.76-8.41S361.85,399.08,360.69,398.68Z" style="fill:#fff;opacity:0.5"></path><path d="M367.81,430.64c1.22-.13,5.06,8.39.88,8.81S366.6,430.76,367.81,430.64Z" style="fill:#fff;opacity:0.5"></path><path d="M377.73,414.77c-.09-1.24,8.4-4.89,8.7-.64S377.81,416,377.73,414.77Z" style="fill:#fff;opacity:0.5"></path><path d="M383.88,390.41c-.82-.92,3.62-9.12,6.45-6S384.7,391.33,383.88,390.41Z" style="fill:#fff;opacity:0.5"></path></g><path d="M409.25,365.67s13,5.87,20.09,13.94,12.78,32.2,12.78,32.2-13-28.08-16.26-31.38S409.25,365.67,409.25,365.67Z" style="fill:#fff;opacity:0.5"></path><path d="M239.4,427.76A61,61,0,1,0,359.27,405.6l-4.71.87-52.32,9.66-.14.05-2.5.44-.06,0-.24,0h-.05l-.21,0H299l-3.93.73-50.92,9.41Z" style="fill:#ECEFF1"></path><path d="M244.1,426.88a56.17,56.17,0,1,0,110.46-20.41l-52.32,9.66-.14.05-2.5.44-.06,0-.24,0h-.05l-.21,0H299l-3.93.73Z" style="fill:#fff;opacity:0.5"></path><path d="M299.6,416.62a1.64,1.64,0,0,1-.25.32v0h0c.17-.07,1.17-.35,2.73-.79Z" style="fill:#ECEFF1"></path><path d="M346.46,412.2c-3.8-.38-47.11,4.75-47.11,4.75s38.14,21.47,41.79,22.58,7.83-5.68,9.14-12.4S350.25,412.58,346.46,412.2Z" style="fill:#ECEFF1;opacity:0.5"></path><path d="M336.17,447c-2.43-3-36.82-30-36.82-30s11.95,42.13,13.76,45.5,9.57,1.55,15.24-2.25S338.6,449.94,336.17,447Z" style="fill:#ECEFF1;opacity:0.5"></path><path d="M304.31,464.18c.36-3.81-5-47.23-5-47.23S278.11,455.07,277,458.73s5.71,7.87,12.42,9.21S304,468,304.31,464.18Z" style="fill:#ECEFF1;opacity:0.5"></path><path d="M269.55,453.71c2.94-2.42,29.8-36.76,29.8-36.76s-42,11.78-45.35,13.58-1.5,9.58,2.32,15.28S266.61,456.13,269.55,453.71Z" style="fill:#ECEFF1;opacity:0.5"></path><path d="M295,417.47c2.46-.3,4.06-.47,4.3-.51,0,0,0,0,0,0s-.19-.09-.36-.2Z" style="fill:#ECEFF1"></path><path d="M299,416.73l.27.21s0,0,0,0h0v0s0-.12-.09-.23Z" style="fill:#ECEFF1"></path><path d="M299.3,416.68l0,.24v0c0-.05.09-.16.19-.3Z" style="fill:#ECEFF1"></path><path d="M287.65,422.92c.47.88-4.61,6.38-6.24,3.38S287.17,422.05,287.65,422.92Z" style="fill:#fff;opacity:0.5"></path><path d="M278.27,435.38c.78.63-1.78,7.67-4.44,5.53S277.5,434.76,278.27,435.38Z" style="fill:#fff;opacity:0.5"></path><path d="M306.37,430.14c.88-.48,6.39,4.59,3.4,6.22S305.5,430.61,306.37,430.14Z" style="fill:#fff;opacity:0.5"></path><path d="M321.12,422.49c.05-1,7.27-3,7.08.39S321.06,423.48,321.12,422.49Z" style="fill:#fff;opacity:0.5"></path><path d="M294.55,444.19c1,.09,2.76,7.37-.63,7.06S293.56,444.1,294.55,444.19Z" style="fill:#fff;opacity:0.5"></path><path d="M56.54,377.5a61,61,0,1,0,93.39,78.34l-3.67-3.08-40.76-34.2-.12-.08-1.94-1.64,0,0-.18-.16,0,0-.17-.14-.07-.06-3.06-2.56L60.21,380.56Z" style="fill:#ECEFF1"></path><path d="M60.21,380.56a56.17,56.17,0,1,0,86,72.2l-40.76-34.2-.12-.08-1.94-1.64,0,0-.18-.16,0,0-.17-.14-.07-.06-3.06-2.56Z" style="fill:#fff;opacity:0.5"></path><path d="M103.44,416.84a1.54,1.54,0,0,1-.39,0h0v0c.17.09,1,.68,2.35,1.6Z" style="fill:#ECEFF1"></path><path d="M136.68,450.16C134.56,447,103,416.85,103,416.85s7.73,43.08,9.2,46.6,9.36,2.43,15.38-.85S138.81,453.32,136.68,450.16Z" style="fill:#ECEFF1;opacity:0.5"></path><path d="M103.31,464.37c.73-3.76-.28-47.52-.28-47.52s-24.88,36-26.33,39.58,4.9,8.36,11.44,10.32S102.58,468.12,103.31,464.37Z" style="fill:#ECEFF1;opacity:0.5"></path><path d="M69.77,450.74C72.93,448.6,103,416.85,103,416.85s-42.92,7.88-46.43,9.37-2.44,9.41.8,15.44S66.61,452.89,69.77,450.74Z" style="fill:#ECEFF1;opacity:0.5"></path><path d="M55.72,417.27c3.73.72,47.31-.42,47.31-.42S67.22,392,63.69,390.52s-8.34,4.94-10.3,11.52S52,416.54,55.72,417.27Z" style="fill:#ECEFF1;opacity:0.5"></path><path d="M99.88,413.85c1.79,1.7,2.94,2.82,3.13,3,0,0,0,0,0,0s0-.2-.07-.4Z" style="fill:#ECEFF1"></path><path d="M103,416.47a1.75,1.75,0,0,1,0,.34s0,0,0,0v0h0v0s.07-.1.13-.21Z" style="fill:#ECEFF1"></path><path d="M103.21,416.64l-.16.18v0l.34,0Z" style="fill:#ECEFF1"></path><path d="M91,411.63c-.37.92-7.85.5-6.58-2.66S91.35,410.71,91,411.63Z" style="fill:#fff;opacity:0.5"></path><path d="M75.4,412.33c0,1-7,3.51-7.09.1S75.39,411.34,75.4,412.33Z" style="fill:#fff;opacity:0.5"></path><path d="M97.34,430.66c.92.37.52,7.85-2.64,6.58S96.41,430.29,97.34,430.66Z" style="fill:#fff;opacity:0.5"></path><path d="M112.62,437.16c.8-.59,6.95,3.69,4.2,5.71S111.82,437.75,112.62,437.16Z" style="fill:#fff;opacity:0.5"></path><path d="M79,430.49c.56.82-3.92,6.82-5.85,4S78.41,429.67,79,430.49Z" style="fill:#fff;opacity:0.5"></path></g><g id="freepik--Table--inject-768"><path d="M41.62,478.07c133.5-.61,283.26-.62,416.76,0-133.5.62-283.26.61-416.76,0Z" style="fill:#263238"></path></g></svg>
