<svg xmlns="http://www.w3.org/2000/svg" viewBox="0 0 500 500"><g id="freepik--background-complete--inject-471"><path d="M463.43,418.42c-10.92,0-194.6,1.21-206.15.84-.83,0-1.27-1.24-.45-1.65,7.28-3.6,15.54-2.88,23.1-5.43,4.45-1.5,7.18-4.41,10.27-7.74a21.19,21.19,0,0,1,9.56-6.24,20.16,20.16,0,0,1,10.4-.33c3.73.89,7,3,10.52,4.37,8.82,3.33,17.4.16,23.7-6.37,5.2-5.38,10.3-10.46,17.37-13.35,5.91-2.43,12.48-2.94,18.4-.26,6.74,3.05,11.36,9.19,17.69,12.88,7.5,4.39,16.47,3.35,24.76,4.67s14.64,8.31,21.91,12.32c2.48,1.38,5,2.53,7.92,2.46,1.63,0,3.22-.48,4.83-.68,2.5-.31,4.87-.24,6.56,1.85C464.23,416.26,464.14,418.42,463.43,418.42Z" style="fill:#ebebeb;opacity:0.5"></path><path d="M263.42,67.74c-10.91,0-194.59,1.21-206.14.84-.83,0-1.27-1.24-.45-1.65,7.28-3.6,15.53-2.88,23.1-5.43,4.45-1.5,7.18-4.41,10.26-7.74a21.25,21.25,0,0,1,9.56-6.24,20.2,20.2,0,0,1,10.41-.33c3.73.89,7,3,10.52,4.37,8.82,3.33,17.4.16,23.7-6.37,5.19-5.38,10.3-10.46,17.37-13.35,5.91-2.43,12.48-2.94,18.4-.26,6.73,3.05,11.36,9.19,17.68,12.88,7.51,4.39,16.48,3.35,24.76,4.67s14.65,8.31,21.92,12.32c2.48,1.38,5,2.53,7.92,2.46,1.62,0,3.22-.48,4.82-.68,2.51-.31,4.88-.24,6.56,1.85C264.22,65.58,264.14,67.74,263.42,67.74Z" style="fill:#ebebeb"></path><path d="M186.92,345.75c-8,0-142.08.89-150.51.62-.6,0-.93-.91-.32-1.21,5.31-2.63,11.34-2.1,16.86-4,3.25-1.1,5.24-3.22,7.49-5.66a15.59,15.59,0,0,1,7-4.55,14.74,14.74,0,0,1,7.6-.24c2.72.65,5.08,2.21,7.68,3.19,6.44,2.43,12.7.12,17.3-4.65,3.8-3.93,7.53-7.64,12.68-9.75a16.85,16.85,0,0,1,13.44-.19c4.92,2.23,8.29,6.71,12.91,9.41,5.48,3.2,12,2.44,18.08,3.41s10.69,6.06,16,9a11.19,11.19,0,0,0,5.78,1.79c1.19,0,2.35-.35,3.52-.49,1.83-.23,3.56-.18,4.79,1.35C187.5,344.18,187.44,345.75,186.92,345.75Z" style="fill:#ebebeb;opacity:0.5"></path><path d="M463.77,137.48c-8,0-142.08.89-150.5.62-.61,0-.93-.91-.33-1.21,5.31-2.63,11.34-2.1,16.86-4,3.25-1.1,5.24-3.22,7.5-5.66a15.51,15.51,0,0,1,7-4.55,14.74,14.74,0,0,1,7.6-.24c2.72.65,5.09,2.21,7.68,3.19,6.44,2.43,12.7.12,17.3-4.65,3.8-3.93,7.53-7.64,12.68-9.75a16.85,16.85,0,0,1,13.44-.19c4.92,2.23,8.29,6.71,12.91,9.41,5.48,3.2,12,2.44,18.08,3.41s10.69,6.06,16,9a11.19,11.19,0,0,0,5.78,1.79c1.19,0,2.35-.35,3.53-.49,1.82-.23,3.56-.18,4.78,1.35C464.35,135.91,464.29,137.48,463.77,137.48Z" style="fill:#ebebeb;opacity:0.5"></path><path d="M288.45,462c-8,0-142.08.89-150.5.62-.61,0-.93-.91-.33-1.21,5.31-2.63,11.34-2.1,16.86-4,3.25-1.1,5.24-3.22,7.5-5.66a15.51,15.51,0,0,1,7-4.55,14.74,14.74,0,0,1,7.6-.24c2.72.65,5.09,2.21,7.68,3.19,6.44,2.43,12.7.12,17.3-4.65,3.8-3.93,7.53-7.63,12.68-9.75a16.89,16.89,0,0,1,13.44-.19c4.92,2.23,8.29,6.71,12.91,9.41,5.48,3.2,12,2.44,18.08,3.41s10.69,6.06,16,9a11.19,11.19,0,0,0,5.78,1.79c1.19,0,2.35-.35,3.53-.49,1.82-.23,3.56-.18,4.79,1.35C289,460.38,289,462,288.45,462Z" style="fill:#ebebeb"></path><path d="M347,180.71c-8,0-142.07.89-150.5.62-.61,0-.93-.91-.33-1.21,5.31-2.63,11.34-2.1,16.86-4,3.25-1.1,5.24-3.22,7.5-5.66a15.54,15.54,0,0,1,7-4.55,14.7,14.7,0,0,1,7.59-.24c2.73.65,5.09,2.21,7.68,3.19,6.45,2.43,12.71.12,17.31-4.65,3.79-3.93,7.52-7.64,12.68-9.75a16.86,16.86,0,0,1,13.43-.19c4.92,2.23,8.3,6.71,12.92,9.41,5.47,3.2,12,2.44,18.07,3.41s10.7,6.06,16,9a11.2,11.2,0,0,0,5.79,1.79c1.18,0,2.35-.35,3.52-.49,1.82-.23,3.56-.18,4.79,1.35C347.6,179.14,347.53,180.71,347,180.71Z" style="fill:#ebebeb;opacity:0.5"></path><path d="M191.66,162.3s.29-2.62.93-8c.61-5,2.24-18.07,5.22-23.37,7.84-13.93,27.78-17.15,41.2-29.07,7.34-6.53,7.24-9.73,9.54-9.39s.52,17.11-12.38,25.69c0,0,6.91,2.23,6.91,4.54s-5.82,4.25-9.86,4.1c0,0,6.74,6.39,5.67,9.3s-8.75,1.85-11.9.59c0,0,3.84,4.58,2.65,6.66-1.83,3.21-9.09-.36-9.09-.36s2.37,3.17,1.09,4.46c-1.75,1.75-7.64-.65-7.64-.65s-1,6.63-8.68,4c0,0-1.32,5-7,2.42a12,12,0,0,0-3.14,4.45C194.37,160.06,192.66,162.49,191.66,162.3Z" style="fill:#ebebeb"></path><path d="M194.06,155.66a3.52,3.52,0,0,1,1.09-1.36c1.35-1.14,2.72-2.71,2-5l-.15.26c2.28.13,4.09-1.5,3.51-4.63a13.35,13.35,0,0,0-.67-2.33l-.37.46c6.58,4.54,7.77,1,4-6.26l-.49.65c6.74,5.25,9.64,4.81,5.88-5.7l-.49.62a5.25,5.25,0,0,0,1.65.61c3.61.71,4.71-3.22,5.28-6.92a8.8,8.8,0,0,1,3.61-6.17,12.92,12.92,0,0,1,6.16-1.91,19.25,19.25,0,0,1,3.22,0,15.93,15.93,0,0,0-3.23-.24c-4.51.06-9.18,1.8-10.35,8.09-.4,2-.71,4-1.86,5.35s-2.84,1.05-4.16.32l-.9-.5.41,1.12c.42,1.17,2.37,6.89,1.23,7.58-1.58.39-4.66-2-6.07-3.06l-1.38-1.1c.85,1.72,3.43,6.28,2.83,8.26-.8,1.32-4.13-.75-5.11-1.38L199,142c.64,1.59,1.53,3.52,1,5.32a3.07,3.07,0,0,1-3.21,1.92c.88,2.27-.38,3.71-1.7,5a3.61,3.61,0,0,0-1,1.45Z" style="fill:#c7c7c7"></path><path d="M215.07,132.84a29.3,29.3,0,0,1,1,3.23,6,6,0,0,1,.13,2.84c-.9,2-3.64,1.26-5.1.78l-.4-.15a15.92,15.92,0,0,1,.43,3.15c.12,3.8-3.73,1.57-5.19.65l.16.67c.31,1.23.63,3.74-.75,3.93a7.75,7.75,0,0,1-3.74-1.32l-.24-.14c.37,1.32.14,3-.92,3.64a2.85,2.85,0,0,1-1,.43c1.62-.16,2.56-1.81,2.2-3.83l-.17.18c1.18.7,3.15,2,4.43,1.36,1.21-.9.93-3,.62-4.44l-.33.36a7.59,7.59,0,0,0,3.16,1.26c2.74.3,2.41-3.22,1.87-5.55l-.29.37c1.66.52,4.57,1.19,5.52-1.17.51-1.81-.71-4.65-1.37-6.25Z" style="fill:#c7c7c7"></path><path d="M196.74,138.15c.79-5.43,4.13-10.16,8-13.87,3.59-3.19,7.9-5.44,12-7.78,3.9-2.1,9.49-5,13.28-7.22,4.31-2.54,8.73-5.07,12-8.91A23.63,23.63,0,0,1,237,106a91.32,91.32,0,0,1-12.72,8.34c-4.39,2.48-8.88,4.79-13.21,7.35A35.2,35.2,0,0,0,205,125.9a27.05,27.05,0,0,0-8.24,12.25Z" style="fill:#fff"></path><path d="M208.72,150.77s12.43-12,2-26.36-25.38-5.17-25.38-5.17A75,75,0,0,0,208.72,150.77Z" style="fill:#dbdbdb"></path><path d="M208.71,150.77a75.07,75.07,0,0,1-23.33-31.53S201.61,131.14,208.71,150.77Z" style="fill:#dbdbdb"></path><path d="M208.13,126.36h0a1.76,1.76,0,0,0,2.46.41l2-1.45a1.77,1.77,0,0,0,.42-2.47h0a1.77,1.77,0,0,0-2.47-.41l-2.05,1.45A1.77,1.77,0,0,0,208.13,126.36Z" style="fill:#dbdbdb"></path><path d="M208.13,126.36h0a1.76,1.76,0,0,0,2.46.41l2-1.45a1.77,1.77,0,0,0,.42-2.47h0a1.77,1.77,0,0,0-2.47-.41l-2.05,1.45A1.77,1.77,0,0,0,208.13,126.36Z" style="fill:#fff;opacity:0.4"></path><path d="M208.71,150.77a75.07,75.07,0,0,1-23.33-31.53S201.61,131.14,208.71,150.77Z" style="opacity:0.2"></path><path d="M192.93,138.56h0a1.76,1.76,0,0,0,2.46.41l7.08-5-2.05-2.89-7.07,5A1.77,1.77,0,0,0,192.93,138.56Z" style="fill:#dbdbdb"></path><path d="M192.93,138.56h0a1.76,1.76,0,0,0,2.46.41l7.08-5-2.05-2.89-7.07,5A1.77,1.77,0,0,0,192.93,138.56Z" style="opacity:0.30000000000000004"></path><path d="M208.71,150.77c-7.1-19.63-23.33-31.53-23.33-31.53s15-9.19,25.38,5.17S208.71,150.77,208.71,150.77Z" style="fill:#dbdbdb"></path><path d="M208.71,150.77c-7.1-19.63-23.33-31.53-23.33-31.53s15-9.19,25.38,5.17S208.71,150.77,208.71,150.77Z" style="fill:#fff;opacity:0.4"></path><g style="opacity:0.30000000000000004"><path d="M208.12,121.33c-5.92-1.88-12.87.9-16.9,3-1.21-1.18-2.3-2.17-3.19-3,12-6.06,19.68-.39,20.07-.1Z" style="fill:#fff"></path><path d="M209.12,122.37a33.33,33.33,0,0,0-15.5,4.45c-.36-.39-.72-.76-1.07-1.12A29,29,0,0,1,209.12,122.37Z" style="fill:#fff"></path></g><path d="M208.72,150.77A69.93,69.93,0,0,0,196,129.5c3,3.42,11.11,12,14.21,11.14,2.66-.71,4.09-8,2.49-13C219.35,140.5,208.72,150.77,208.72,150.77Z" style="opacity:0.1"></path><path d="M113.62,154.68a41,41,0,0,0,34.19,47.11L161.56,204l10.36-81.42L163,121.15q-1-.23-2.1-.39A41,41,0,0,0,113.62,154.68Z" style="fill:#dbdbdb"></path><path d="M113.62,154.68a41,41,0,0,0,34.19,47.11L161.56,204l10.36-81.42L163,121.15q-1-.23-2.1-.39A41,41,0,0,0,113.62,154.68Z" style="opacity:0.2"></path><g style="opacity:0.05"><path d="M163.13,191.7l-36.53,0h0a41,41,0,0,1-8.08-10l45.88,0Z"></path><path d="M164.74,179l-47.64-.05c-.48-1-.91-2-1.31-3l49.34.05Z"></path></g><ellipse cx="164.79" cy="163.03" rx="41.14" ry="38.04" transform="translate(-12.24 312.67) rotate(-84.9)" style="fill:#dbdbdb"></ellipse><ellipse cx="167.29" cy="164.33" rx="39.25" ry="35.35" transform="translate(-11.26 316.35) rotate(-84.9)" style="opacity:0.1"></ellipse><ellipse cx="167.29" cy="164.33" rx="36.77" ry="33.12" transform="translate(-11.26 316.35) rotate(-84.9)" style="fill:#fff"></ellipse><path d="M200.43,162.53c-16.51,7.25-43.64,19.15-58.78,25.61a37.66,37.66,0,0,1-6.68-15l52.85-38.13A37.43,37.43,0,0,1,200.43,162.53Z" style="fill:#ebebeb;opacity:0.5"></path><path d="M199.65,171.62A39.67,39.67,0,0,1,195.53,183l-44.22,13.86a32.16,32.16,0,0,1-4.72-3.41C160.18,187.83,185,177.63,199.65,171.62Z" style="fill:#ebebeb;opacity:0.5"></path><path d="M173,131.74l-.56,3.36-.3-.06-.31,0,.56-3.37Z" style="fill:#263238"></path><path d="M158.65,136.4l-.59.25-1-3.19.59-.24Z" style="fill:#263238"></path><path d="M147.13,145.2c-.14.17-.27.35-.4.53l-2.34-2.17.4-.53Z" style="fill:#263238"></path><path d="M141,159.45c0,.12,0,.23-.05.34l-3-.56.11-.68,3,.56Z" style="fill:#263238"></path><path d="M142.15,175.07l-2.9,1.2-.21-.65,2.9-1.19C142,174.64,142.07,174.86,142.15,175.07Z" style="fill:#263238"></path><path d="M150.13,187.47l-2,2.63-.47-.44,2-2.63C149.81,187.19,150,187.33,150.13,187.47Z" style="fill:#263238"></path><path d="M162.71,193.67l-.56,3.36-.61-.11.56-3.37.3.06Z" style="fill:#263238"></path><path d="M177.54,195.2l-.58.24-1-3.19.59-.24Z" style="fill:#263238"></path><path d="M190.19,185.09l-.4.53-2.34-2.16.41-.53Z" style="fill:#263238"></path><path d="M196.7,169.42l-.11.68-3-.56c0-.11,0-.23.06-.34l.06-.34Z" style="fill:#263238"></path><path d="M195.54,153l-2.9,1.2c-.06-.22-.13-.43-.2-.65l2.89-1.19Z" style="fill:#263238"></path><path d="M186.92,139l-2,2.63-.48-.44,2-2.63Z" style="fill:#263238"></path><polygon points="186.03 140.19 167.05 167.35 164.67 165.12 185.38 139.58 186.03 140.19" style="fill:#c7c7c7"></polygon><polygon points="159.66 141.22 169.58 165.84 166.63 167.09 158.85 141.55 159.66 141.22" style="fill:#dbdbdb"></polygon><path d="M168.35,164.52a1.11,1.11,0,0,1-1.25,1,1.16,1.16,0,0,1-.86-1.37,1.11,1.11,0,0,1,1.25-1A1.17,1.17,0,0,1,168.35,164.52Z" style="fill:#c7c7c7"></path><path d="M168.18,163.49a1.39,1.39,0,0,1-.15,1.81,1.08,1.08,0,0,1-1.63-.14,1.38,1.38,0,0,1,.16-1.81A1.07,1.07,0,0,1,168.18,163.49Z" style="fill:#dbdbdb"></path><polygon points="167.67 163.97 182.16 183.75 181.9 184 166.91 164.68 167.67 163.97" style="fill:#dbdbdb"></polygon><path d="M142.83,126.83h0a2,2,0,0,1-2.75-.89l-2.8-5.51,3.65-1.85,2.8,5.5A2,2,0,0,1,142.83,126.83Z" style="fill:#dbdbdb"></path><path d="M142.83,126.83h0a2,2,0,0,1-2.75-.89l-2.8-5.51,3.65-1.85,2.8,5.5A2,2,0,0,1,142.83,126.83Z" style="opacity:0.30000000000000004"></path><path d="M119.88,131.29s-6.29-19,12.08-28.12,28.8,8.36,28.8,8.36S142.64,126.16,119.88,131.29Z" style="fill:#dbdbdb"></path><path d="M119.88,131.29s-6.29-19,12.08-28.12,28.8,8.36,28.8,8.36S142.64,126.16,119.88,131.29Z" style="fill:#fff;opacity:0.4"></path><g style="opacity:0.30000000000000004"><path d="M128,129c-1.47.49-3,.95-4.52,1.36-3.68-17.55,5.74-25.58,6.09-25.88h0C125.07,112.79,126.91,124.22,128,129Z" style="fill:#fff"></path><path d="M131.78,127.68l-1.81.67-.09-.35A44,44,0,0,1,131,103.69,46.81,46.81,0,0,0,131.78,127.68Z" style="fill:#fff"></path></g><path d="M160.76,111.53A116.82,116.82,0,0,1,136.08,126c8.83-4.62,17.21-11.65,17.71-15.54.26-1.91-.38-6-9.94-9.82C154.76,101.47,160.76,111.53,160.76,111.53Z" style="opacity:0.1"></path><path d="M133.61,106.59h0a2,2,0,0,1-2.75-.9l-1.32-2.6a2,2,0,0,1,.9-2.75h0a2,2,0,0,1,2.75.9l1.32,2.6A2,2,0,0,1,133.61,106.59Z" style="fill:#dbdbdb"></path><path d="M133.61,106.59h0a2,2,0,0,1-2.75-.9l-1.32-2.6a2,2,0,0,1,.9-2.75h0a2,2,0,0,1,2.75.9l1.32,2.6A2,2,0,0,1,133.61,106.59Z" style="fill:#fff;opacity:0.4"></path><path d="M124,155s.54-2.79,1.56-8.48c1-5.38,3.35-19.29,1.33-26C121.59,103,96.87,90.83,83.61,72.8c-7.26-9.88-6-13.08-9.11-13.75s-6.61,17.1,7.15,31.51c0,0-9.73-.81-10.54,1.53s6.08,6.89,11.36,8.53c0,0-10.94,3.48-10.56,6.91s10.7,5.76,15.22,5.88c0,0-6.56,2.93-5.74,5.57,1.25,4.06,11.9,3.68,11.9,3.68s-4.17,2.14-3,4c1.65,2.56,10.12,2.74,10.12,2.74s-1,7.14,9.87,7.89c0,0,0,5.68,8.29,5.57,0,0,2.36,3.17,2.53,5.91S122.68,154.75,124,155Z" style="fill:#ebebeb"></path><path d="M124.62,147.16a4.4,4.4,0,0,0-1-1.86c-1.36-1.75-2.58-4-.89-5.94l.1.34c-3-.89-4.78-3.34-2.94-6.25a11.22,11.22,0,0,1,1.67-2.07l.33.63c-10.1,1.68-10.43-2.41-3.06-8.13l.41.88c-10.55,2.32-14.16.58-5.64-8.39l.41.85a8.78,8.78,0,0,1-2.35-.11c-4.92-.89-5-5.36-4.45-9.36a9.27,9.27,0,0,0-2.54-7.85,21.21,21.21,0,0,0-7.31-4.67,33.66,33.66,0,0,0-4.18-1.41A29.9,29.9,0,0,1,97.49,95c5.83,2.07,11.27,5.91,10.61,12.8-.16,2.16-.45,4.32.56,6.24s3.32,2.33,5.29,2.17l1.33-.1-.92,1c-1,1-5.45,5.92-4.22,7.11,1.91,1.11,6.73,0,8.92-.39l2.18-.5c-1.71,1.37-6.63,4.83-6.53,7.1.58,1.7,5.6,1.08,7.1.88l1.17-.17c-1.38,1.33-3.2,2.87-3.18,4.93.1,1.77,2,2.85,3.49,3.36-1.91,1.92-.79,3.93.48,5.83a4.3,4.3,0,0,1,.85,1.93Z" style="fill:#c7c7c7"></path><path d="M105.3,114.72a25.48,25.48,0,0,0-2.37,2.84,5,5,0,0,0-1.15,2.82c.46,2.45,4.28,2.9,6.34,3.06l.56,0a13,13,0,0,0-1.64,3c-1.48,3.8,4.28,3.25,6.5,3l-.45.6c-.82,1.11-2.11,3.51-.38,4.32a12.76,12.76,0,0,0,5.3.32l.36,0a3.09,3.09,0,0,0-.07,4.1,4.71,4.71,0,0,0,1.12.86,3.19,3.19,0,0,1-1.52-4.86l.15.26c-1.76.19-4.76.62-6.21-.59-1.25-1.44-.16-3.45.74-4.77l.3.52a12.54,12.54,0,0,1-4.53-.14c-3.66-.91-2-4.32-.5-6.45l.24.5c-2.32-.2-6.33-.82-6.74-3.64,0-2.05,2.53-4.38,4-5.71Z" style="fill:#c7c7c7"></path><path d="M124,155c-1.36-.25-2.73-3.47-2.9-6.21s-2.53-5.91-2.53-5.91c-8.32.11-8.29-5.57-8.29-5.57-10.92-.75-9.87-7.89-9.87-7.89,2.09,5.63,10.69,6.21,10.69,6.21,2.15,6.54,8.09,6,8.09,6a25.72,25.72,0,0,0,2.84,1.67c1.27.6,2.58-7.64,3.26-14.05.64-6.06-2.6-17.12-5-20.29l0,0a34.5,34.5,0,0,1,6.54,11.62c2,6.69-.36,20.6-1.33,26C124.58,152.22,124,155,124,155Z" style="opacity:0.1"></path><path d="M82.9,89.65c-6.22-5.9-10.66-14.56-10.21-23.29A19.62,19.62,0,0,1,73.42,62a1.89,1.89,0,0,1,.42-.91c.61-.52,1.17.33,1.41.81a19.3,19.3,0,0,1,.9,2c-.43-.57-.84-1.17-1.28-1.71-.15-.18-.45-.54-.63-.58,0,0,.1,0,.09,0a2.39,2.39,0,0,0-.11.59c-1.33,9.91,3.32,19.37,8.68,27.44Z" style="fill:#fff"></path><path d="M73.15,91.7c1,1.89,3.06,2.86,4.76,4a53.46,53.46,0,0,1,5.47,3.63,14.24,14.24,0,0,1-9-4.43c-.71-.89-1.49-2.05-1.24-3.23Z" style="fill:#fff"></path><path d="M81.91,102.44a24.14,24.14,0,0,1-4.3,2.69c-1.38.82-3,1.27-4,2.62a2.94,2.94,0,0,1,1-2.53,10.11,10.11,0,0,1,7.25-2.78Z" style="fill:#fff"></path><path d="M110.17,105.17a24,24,0,0,1,.41,5c.09,1.6-.27,3.28.48,4.74-.93-.21-1.47-1.25-1.76-2.08a10.11,10.11,0,0,1,.87-7.71Z" style="fill:#fff"></path></g><g id="freepik--Lines--inject-471"><path d="M117.84,366.61c23.64-15.22,50.32-31.49,74.66-45.6-23.67,15.22-50.32,31.51-74.66,45.6Z" style="fill:#263238"></path><path d="M57.14,448.43c45-28.26,95.92-59.35,141.63-86.5-45,28.27-95.93,59.35-141.63,86.5Z" style="fill:#263238"></path><path d="M181,412.51c18.37-12,37.21-23.51,56.28-34.37-18.37,12-37.21,23.51-56.28,34.37Z" style="fill:#263238"></path><path d="M91.27,399.9c18.37-12,37.21-23.51,56.28-34.37-18.37,12-37.21,23.51-56.28,34.37Z" style="fill:#263238"></path><path d="M135.53,412.51a347.6,347.6,0,0,1,32.29-19.72,353.32,353.32,0,0,1-32.29,19.72Z" style="fill:#263238"></path><path d="M232.13,407.76A352,352,0,0,1,264.42,388a350.25,350.25,0,0,1-32.29,19.72Z" style="fill:#263238"></path><path d="M189.78,338.07a353.48,353.48,0,0,1,32.3-19.72,349.08,349.08,0,0,1-32.3,19.72Z" style="fill:#263238"></path></g><g id="freepik--Clock--inject-471"><path d="M394.38,270.07s-2.15-5.95-6.4-18.09c-4-11.48-14.23-41.2-13.4-55.73,2.17-38.19,41.63-66.13,57.91-105.89,8.92-21.77,5.32-28.55,10.63-30.24s19.15,36.23.44,68.26c0,0,17.2-2.48,19.66,2.48s-8.05,15.27-16.88,19.19c0,0,21.21,6.65,22,14s-16.85,13.19-25,13.79c0,0,13.08,5.8,12.72,11.53-.54,8.82-19.91,8.81-19.91,8.81s8.43,4.29,7,8.42c-1.9,5.62-17.1,6.66-17.1,6.66S431,228.55,411.63,231c0,0,2.46,12.2-12.59,12.61,0,0-2.92,7-2.06,12.88S396.72,269.41,394.38,270.07Z" style="fill:#ebebeb"></path><path d="M392.52,253.26a8.45,8.45,0,0,1,.93-4.07c1.7-3.87,3-8.68-.92-12.82l0,.71c5-2.13,7.21-7.54,2.66-13.64a30,30,0,0,0-3.89-4.32l-.32,1.39c18.93,2.83,17.79-6,2.07-17.71l-.37,1.91c20,4.19,25.8.18,6.63-18.44l-.39,1.86a12.86,12.86,0,0,0,4.19-.43c8.51-2.28,6.73-11.9,4.06-20.45-1.89-6.16-1.6-12.44,1.26-17.05a30.72,30.72,0,0,1,11.22-10.59,44.3,44.3,0,0,1,6.94-3.34,39.16,39.16,0,0,0-7.18,2.88c-9.63,4.89-17.84,13.55-13.72,28.3,1.2,4.63,2.63,9.26,1.64,13.46-1.05,4-5,5.25-8.62,5.07l-2.45-.13,2,2c2.14,2,12.35,12.3,10.64,15-3,2.51-12.13.62-16.26-.18l-4.14-.89c3.66,2.8,14,9.87,14.79,14.76-.34,3.68-9.66,2.73-12.44,2.42l-2.19-.28c3.05,2.75,7,5.93,7.83,10.35.57,3.81-2.32,6.28-4.88,7.5,4.27,4,3.1,8.38,1.61,12.55a9,9,0,0,0-.71,4.22Z" style="fill:#c7c7c7"></path><path d="M413.64,182.09a68.35,68.35,0,0,1,5.47,5.92c1.34,1.79,2.94,3.73,3.27,6,.2,5.3-6.5,6.56-10.14,7.05l-1,.1a36.22,36.22,0,0,1,4.23,6.31c4.27,8.05-6.35,7.3-10.46,6.88l1.06,1.26c1.95,2.32,5.29,7.38,2.52,9.25-2.68,1.43-6.26,1.24-9.43,1.09l-.66,0c2.17,2.43,3.45,6.27,1.85,8.79a6.9,6.9,0,0,1-1.64,2c3.31-2.06,3.59-6.57.68-10.56l-.17.57c3.27.27,8.85,1,11-1.74,1.64-3.19-1.16-7.42-3.35-10.19l-.33,1.13a18.38,18.38,0,0,0,8.12-.64c6.21-2.23,1.77-9.44-1.83-13.9l-.23,1.1c4.11-.62,11.08-2.25,10.63-8.33-.82-4.42-6.43-9.24-9.54-12Z" style="fill:#c7c7c7"></path><path d="M379.85,212.8c-4-12.49-1.84-26.19,2.64-38.28,4.35-10.63,11.25-20,17.68-29.41,6.17-8.61,15.08-20.85,20.95-29.49,6.58-10,13.41-20.11,16.48-31.83-.59,6-2.74,11.89-5.21,17.44-5.06,11.08-11.75,21.3-18.55,31.34s-14,19.65-20.64,29.69a85.58,85.58,0,0,0-8.56,15.54c-4.43,11-6.88,23.19-4.79,35Z" style="fill:#fff"></path><path d="M418.88,227.31s14.07-38.9-23.39-58.81-60,15.64-60,15.64S366.29,215.64,418.88,227.31Z" style="fill:#C6C6C6"></path><path d="M418.87,227.31c-52.58-11.67-83.37-43.17-83.37-43.17S382.92,192.62,418.87,227.31Z" style="fill:#C6C6C6"></path><path d="M391.89,175.46h0a4.22,4.22,0,0,0,5.74-1.7l2.87-5.29a4.24,4.24,0,0,0-1.7-5.74h0a4.24,4.24,0,0,0-5.74,1.7l-2.87,5.29A4.24,4.24,0,0,0,391.89,175.46Z" style="fill:#C6C6C6"></path><path d="M391.89,175.46h0a4.22,4.22,0,0,0,5.74-1.7l2.87-5.29a4.24,4.24,0,0,0-1.7-5.74h0a4.24,4.24,0,0,0-5.74,1.7l-2.87,5.29A4.24,4.24,0,0,0,391.89,175.46Z" style="fill:#fff;opacity:0.4"></path><path d="M418.87,227.31c-52.58-11.67-83.37-43.17-83.37-43.17S382.92,192.62,418.87,227.31Z" style="opacity:0.2"></path><path d="M377.12,194.21H379a3.31,3.31,0,0,1,3.31,3.31v21.69a0,0,0,0,1,0,0h-8.47a0,0,0,0,1,0,0V197.52A3.31,3.31,0,0,1,377.12,194.21Z" transform="matrix(-0.88, -0.48, 0.48, -0.88, 611.72, 568.7)" style="fill:#C6C6C6"></path><path d="M377.12,194.21H379a3.31,3.31,0,0,1,3.31,3.31v21.69a0,0,0,0,1,0,0h-8.47a0,0,0,0,1,0,0V197.52A3.31,3.31,0,0,1,377.12,194.21Z" transform="matrix(-0.88, -0.48, 0.48, -0.88, 611.72, 568.7)" style="opacity:0.30000000000000004"></path><path d="M418.87,227.31c-35.95-34.69-83.37-43.17-83.37-43.17s22.54-35.56,60-15.64S418.87,227.31,418.87,227.31Z" style="fill:#C6C6C6"></path><path d="M418.87,227.31c-35.95-34.69-83.37-43.17-83.37-43.17s22.54-35.56,60-15.64S418.87,227.31,418.87,227.31Z" style="fill:#fff;opacity:0.4"></path><g style="opacity:0.30000000000000004"><path d="M386.57,164.66c-14.7,2.19-26.69,15.5-33.13,24.33-3.84-1.27-7.21-2.25-10-3,19.39-25.67,41.9-21.58,43-21.36Z" style="fill:#fff"></path><path d="M389.83,165.85a79.74,79.74,0,0,0-28.63,25.9c-1.19-.46-2.36-.88-3.5-1.29C371.92,171.27,389.83,165.85,389.83,165.85Z" style="fill:#fff"></path></g><path d="M418.87,227.3c-16-15.44-34.32-25.71-49.67-32.33,10.15,4.13,36.49,14,42.27,9,5-4.33.34-21.56-8.37-30.65C430.92,194,418.87,227.3,418.87,227.3Z" style="opacity:0.1"></path><path d="M218.61,335.91a98.21,98.21,0,0,0,123.12,65.24l31.9-9.7-63.52-185.9-20.63,6.23q-2.46.61-4.94,1.37A98.22,98.22,0,0,0,218.61,335.91Z" style="fill:#C6C6C6"></path><path d="M218.61,335.91a98.21,98.21,0,0,0,123.12,65.24l31.9-9.7-63.52-185.9-20.63,6.23q-2.46.61-4.94,1.37A98.22,98.22,0,0,0,218.61,335.91Z" style="opacity:0.2"></path><g style="opacity:0.05"><path d="M364,363.33l-78.54,38.41h0a98.11,98.11,0,0,1-27.91-13l98.65-48.25Z"></path><path d="M354.1,334.29,251.64,384.4q-3.09-2.43-6-5.12l106.1-51.89Z"></path></g><ellipse cx="337.38" cy="299.94" rx="91.04" ry="98.47" transform="translate(-85.12 140.94) rotate(-21.02)" style="fill:#C6C6C6"></ellipse><ellipse cx="344.13" cy="300.1" rx="84.62" ry="93.96" transform="translate(-84.73 143.37) rotate(-21.01)" style="opacity:0.1"></ellipse><ellipse cx="344.13" cy="300.1" rx="79.27" ry="88.02" transform="translate(-84.73 143.36) rotate(-21.01)" style="fill:#fff"></ellipse><path d="M413.46,261.32c-27.85,33-73.63,87.13-99.34,117A90.17,90.17,0,0,1,284,353.18l73.41-137.64C380.5,221.47,401.26,238,413.46,261.32Z" style="fill:#ebebeb;opacity:0.5"></path><path d="M421.36,281.68a94.83,94.83,0,0,1,3.13,28.8l-80.44,76.37a76.24,76.24,0,0,1-13.73-2.34C353.62,358.11,396.24,310,421.36,281.68Z" style="fill:#ebebeb;opacity:0.5"></path><path d="M322.16,224l2.33,7.82-.72.19-.71.21-2.34-7.82Z" style="fill:#263238"></path><path d="M296.14,249.19c-.34.37-.68.75-1,1.14l-5.56-5.78,1-1.14Z" style="fill:#263238"></path><path d="M280.64,280.22c-.11.52-.21,1-.31,1.57L273,279.6l.31-1.57Z" style="fill:#263238"></path><path d="M282.39,317.36c.08.27.16.53.25.79l-7.09,2-.48-1.58,7.09-2C282.24,316.83,282.32,317.1,282.39,317.36Z" style="fill:#263238"></path><path d="M301.4,349.69l-5,5.62-1.12-1.17,5-5.62Z" style="fill:#263238"></path><path d="M331.63,367.93l-1.52,7.75-1.48-.44,1.52-7.76C330.64,367.65,331.13,367.79,331.63,367.93Z" style="fill:#263238"></path><path d="M365.19,368l2.34,7.82-1.43.4-2.34-7.82.72-.2Z" style="fill:#263238"></path><path d="M398.69,355.64l-1,1.14L392.12,351c.34-.37.68-.75,1-1.13Z" style="fill:#263238"></path><path d="M415.22,320.6l-.3,1.57-7.3-2.19c.11-.52.21-1,.3-1.57Z" style="fill:#263238"></path><path d="M412.71,280.06l.47,1.58-7.09,2c-.08-.27-.15-.53-.23-.79l-.24-.79Z" style="fill:#263238"></path><path d="M393,246.06l-5,5.62c-.37-.4-.74-.78-1.13-1.17l5-5.62Z" style="fill:#263238"></path><path d="M359.63,225l-1.52,7.77c-.5-.17-1-.31-1.48-.45l1.52-7.76Z" style="fill:#263238"></path><polygon points="358.97 228.47 346.79 306.85 339.33 304.56 356.94 227.84 358.97 228.47" style="fill:#37474f"></polygon><polygon points="303.36 258.47 350.65 300.94 345.61 306.74 301.99 260.04 303.36 258.47" style="fill:#455a64"></polygon><path d="M346.6,299.41a2.67,2.67,0,0,1-1.66,3.42,2.78,2.78,0,0,1-3.29-2,2.66,2.66,0,0,1,1.66-3.42A2.78,2.78,0,0,1,346.6,299.41Z" style="fill:#c7c7c7"></path><path d="M345.17,297.36a3.32,3.32,0,0,1,1.56,4.06,2.57,2.57,0,0,1-3.65,1.41,3.32,3.32,0,0,1-1.56-4.06A2.57,2.57,0,0,1,345.17,297.36Z" style="fill:#C6C6C6"></path><polygon points="344.57 298.93 396.55 326.18 396.24 326.99 343.68 301.27 344.57 298.93" style="fill:#C6C6C6"></polygon><path d="M239.29,229.54h9.8a0,0,0,0,1,0,0V245.9a3.31,3.31,0,0,1-3.31,3.31H242.6a3.31,3.31,0,0,1-3.31-3.31V229.54A0,0,0,0,1,239.29,229.54Z" transform="translate(-93.92 290.49) rotate(-53.03)" style="fill:#C6C6C6"></path><path d="M239.29,229.54h9.8a0,0,0,0,1,0,0V245.9a3.31,3.31,0,0,1-3.31,3.31H242.6a3.31,3.31,0,0,1-3.31-3.31V229.54A0,0,0,0,1,239.29,229.54Z" transform="translate(-93.92 290.49) rotate(-53.03)" style="opacity:0.30000000000000004"></path><path d="M207.42,279s-33.53-34.19-3.66-73.16,70.69-12.38,70.69-12.38S250.93,244,207.42,279Z" style="fill:#C6C6C6"></path><path d="M207.42,279s-33.53-34.19-3.66-73.16,70.69-12.38,70.69-12.38S250.93,244,207.42,279Z" style="fill:#fff;opacity:0.4"></path><g style="opacity:0.30000000000000004"><path d="M222.45,265.65c-2.66,2.6-5.42,5.18-8.28,7.69-26.41-33.86-14.63-61-14.18-62a0,0,0,0,1,0,0C199.09,233.81,215.07,256.44,222.45,265.65Z" style="fill:#fff"></path><path d="M229.2,258.74c-1,1.12-2.11,2.23-3.2,3.36-.18-.22-.36-.45-.55-.67-21.21-25.84-23.27-53.4-23.27-53.4C208.63,234.72,222.46,251.72,229.2,258.74Z" style="fill:#fff"></path></g><path d="M274.46,193.51a278.83,278.83,0,0,1-37.86,57c14.11-19.22,24.72-43.16,21.71-52.06-1.47-4.37-7.14-12.49-31.73-10.62C251,178.2,274.46,193.51,274.46,193.51Z" style="opacity:0.1"></path><rect x="199.3" y="198.05" width="9.8" height="16.77" rx="4.57" transform="translate(-83.54 245.42) rotate(-53.03)" style="fill:#C6C6C6"></rect><rect x="199.3" y="198.05" width="9.8" height="16.77" rx="4.57" transform="translate(-83.54 245.42) rotate(-53.03)" style="fill:#fff;opacity:0.4"></rect><path d="M241.35,325.63s-1.79-6.56-5.59-19.85c-3.6-12.58-13.11-45-24.52-57.25-30-32.19-95.9-32.2-143.4-57-26-13.58-26.71-21.77-34.09-19.95s3.83,43.7,48.59,60.19c0,0-21.76,8.52-21,14.39s20.32,8.42,33.4,6.37c0,0-19.84,19-15.42,26s29.06,1.11,38.9-3.4c0,0-11,13.22-6.48,18,7,7.4,29.46-4.64,29.46-4.64s-6.69,9-2.11,11.77c6.24,3.75,24.63-4.77,24.63-4.77s5.27,16.44,29.54,6.55c0,0,5.91,12.24,23.69,3.25,0,0,8.41,4.32,11.65,10S238.15,326.51,241.35,325.63Z" style="fill:#ebebeb"></path><path d="M234.32,308.16c-.89-1.47-2.57-2.17-4-3-4.75-2.34-9.7-5.77-8.16-11.83l.57.61c-7.39,1.26-13.8-2.14-12.9-10.33a27.45,27.45,0,0,1,1.4-6.21l1.38,1c-19.94,14.24-25,5.78-15.14-14.26l1.81,1.44c-20.23,16.11-29.83,16.18-21-12.07l1.79,1.39a21.39,21.39,0,0,1-5.17,2.23c-11.52,3.27-16.38-6.27-19.43-15.44a22.24,22.24,0,0,0-13.72-14.19c-6.55-2.38-13.72-2.78-20.65-2.33a82.05,82.05,0,0,0-10.46,1.38,69.38,69.38,0,0,1,10.41-1.93c14.7-1.68,30.45.82,36.28,16.32,2,4.82,3.6,9.77,7.78,12.84,4.1,2.86,9.6,1.5,13.66-.91l2.75-1.63-1,3c-1,3.13-5.48,18.47-1.58,19.76,5.26.36,14.52-7,18.76-10.26l4.16-3.36c-2.23,4.73-9.15,17.36-6.55,22.14,3,3,13.17-3.6,16.17-5.59l2.34-1.61c-1.55,4.31-3.85,9.56-1.64,13.95,2.08,3.69,7.22,4.07,11.06,3.56-2.1,6.13,2.43,9.28,7.16,12,1.4.91,3,1.73,3.86,3.25Z" style="fill:#c7c7c7"></path><path d="M158.61,258.8a59.87,59.87,0,0,0-2.09,8.6c-.27,2.4-.73,5.1.5,7.27,3.57,4.77,12.26,1.72,16.84-.11l1.25-.54a30.73,30.73,0,0,0-.37,8.17c.82,9.72,12.61,2.47,17.08-.46l-.32,1.77c-.6,3.24-.83,9.76,3.73,9.67,4.14-.4,8.15-2.79,11.73-4.89l.74-.45c-.78,3.49.5,7.65,4.17,8.88a11.28,11.28,0,0,0,3.31.68c-5.32.26-8.89-3.54-8.39-8.84l.61.39c-3.6,2.27-9.59,6.34-14,5.28-4.21-1.78-4-7.24-3.45-11l1.2.79a29.46,29.46,0,0,1-9.88,4.48c-8.81,1.91-8.86-7.18-7.88-13.34l1.06.83c-5.21,2-14.48,4.91-18.33-.71-2.23-4.39.82-12.11,2.46-16.44Z" style="fill:#c7c7c7"></path><path d="M241.35,325.62c-3.2.89-9.54-4.59-12.79-10.29s-11.65-10-11.65-10c-17.78,9-23.69-3.25-23.69-3.25-24.27,9.89-29.54-6.55-29.54-6.55,10.43,9.89,29.53,2.07,29.53,2.07,11.51,11.79,23.64,4.27,23.64,4.27a59.33,59.33,0,0,0,7.88.6c3.37-.05-2.51-19.14-7.81-33.64-5-13.7-23.62-34.05-32.07-38.36l.08,0c10.28,4.74,19.27,10.52,26.3,18.06,11.42,12.24,20.94,44.68,24.53,57.25C239.56,319.07,241.35,325.62,241.35,325.62Z" style="opacity:0.1"></path><path d="M84.06,228.51c-19.59-6.13-38.26-20.06-46.49-39.31a47.94,47.94,0,0,1-3-10,4.59,4.59,0,0,1,0-2.39c.75-1.77,2.85-.54,3.88.24a47.71,47.71,0,0,1,4,3.3c-1.53-.78-3-1.64-4.55-2.34a4.67,4.67,0,0,0-2-.58s.21-.11.19-.1a5.6,5.6,0,0,0,.38,1.39C44.08,201.38,64,216.8,84.06,228.51Z" style="fill:#fff"></path><path d="M65.26,243.18c4.12,3,9.6,2.92,14.49,3.65,4.64.51,11.07.89,15.58,2a34.22,34.22,0,0,1-24-.05c-2.45-1.17-5.35-2.82-6.06-5.64Z" style="fill:#fff"></path><path d="M95.4,257A56.6,56.6,0,0,1,89,267.36c-2.1,3.2-5.18,5.92-5.82,9.82-1.49-1.76-1.05-4.51-.42-6.54A24.22,24.22,0,0,1,95.4,257Z" style="fill:#fff"></path><path d="M159,233.13a56.24,56.24,0,0,1,6.22,10.43c1.87,3.34,2.88,7.32,6,9.68-2.25.52-4.49-1.14-6-2.63A24.25,24.25,0,0,1,159,233.13Z" style="fill:#fff"></path></g></svg>
