<svg xmlns="http://www.w3.org/2000/svg" viewBox="0 0 500 500"><g id="freepik--background-complete--inject-659"><rect x="402.07" y="386.25" width="35.16" height="11.19" transform="translate(839.3 783.7) rotate(180)" style="fill:#ebebeb"></rect><rect x="321.62" y="325.86" width="35.16" height="11.19" transform="translate(678.39 662.91) rotate(180)" style="fill:#ebebeb"></rect><path d="M421.68,411.55l17.7-.29,8.75-.12,8.71,0-.46.45,0-11.19.5.5-17.58-.06-8.79-.09-8.79-.11.24-.24Zm0,0-.23-11.19v-.23h.24l8.79-.11,8.79-.09,17.58-.07h.5v.5l0,11.19V412h-.45L448,412l-8.83-.12Z" style="fill:#ebebeb"></path><path d="M104.15,268.79l17.7-.3,8.74-.12,8.72,0-.46.46,0-11.19.5.5L121.73,258l-8.79-.09-8.79-.11.24-.23Zm0,0-.24-11.19v-.24h.24l8.79-.11,8.79-.09,17.58-.06h.5v.51l0,11.19v.45h-.45l-8.87,0-8.83-.12Z" style="fill:#ebebeb"></path><path d="M123.76,282.9l17.7-.3,8.75-.12,8.71,0-.46.46,0-11.19.5.5-17.58-.07-8.79-.09-8.79-.11.24-.23Zm0,0-.24-11.19v-.24h.24l8.79-.11,8.79-.09,17.58-.06h.5v.51l0,11.19v.45h-.45l-8.87,0-8.83-.12Z" style="fill:#ebebeb"></path><rect x="143.29" y="257.6" width="35.16" height="11.19" transform="translate(321.75 526.38) rotate(180)" style="fill:#ebebeb"></rect><rect x="43.16" y="400.36" width="35.16" height="11.19" transform="translate(121.48 811.92) rotate(180)" style="fill:#ebebeb"></rect><rect x="62.77" y="87.06" width="35.16" height="11.19" transform="translate(160.7 185.3) rotate(180)" style="fill:#ebebeb"></rect><path d="M43.16,112.35l17.7-.29,8.75-.12,8.71,0-.46.45,0-11.18.5.49-17.58-.06L52,101.51l-8.79-.11.24-.23Zm0,0-.24-11.18v-.24h.24l8.79-.11,8.79-.09,17.58-.06h.5v.51l0,11.18v.46h-.45l-8.87,0-8.83-.12Z" style="fill:#ebebeb"></path><path d="M402.07,98.25l17.7-.3,8.75-.12,8.71,0-.46.45,0-11.18.5.49-17.58-.06-8.79-.09-8.79-.11.24-.23Zm0,0-.24-11.19v-.24h.24l8.79-.11,8.79-.09,17.58-.06h.5v.51l-.05,11.18v.46h-.45l-8.87,0-8.83-.12Z" style="fill:#ebebeb"></path><rect x="137.65" y="115.21" width="56.37" height="68.37" style="fill:#dbdbdb"></rect><rect x="144.09" y="121.45" width="43.49" height="55.89" style="fill:#fff"></rect><rect x="144.09" y="121.45" width="1.7" height="55.89" style="fill:#c7c7c7"></rect><rect x="194.01" y="115.21" width="1.7" height="68.37" style="fill:#c7c7c7"></rect><rect x="166.8" y="134.38" width="10.25" height="30.55" transform="translate(343.85 299.3) rotate(180)" style="fill:#dbdbdb"></rect><path d="M182,144.62H153.69v-16H182Zm-27.34-1H181v-14H154.69Z" style="fill:#ebebeb"></path><rect x="304.29" y="115.21" width="56.37" height="68.37" style="fill:#dbdbdb"></rect><rect x="310.73" y="121.45" width="43.49" height="55.89" style="fill:#fff"></rect><rect x="310.73" y="121.45" width="1.7" height="55.89" style="fill:#c7c7c7"></rect><rect x="360.66" y="115.21" width="1.7" height="68.37" style="fill:#c7c7c7"></rect><rect x="325.3" y="134.38" width="10.25" height="30.55" style="fill:#dbdbdb"></rect><path d="M348.67,144.62H320.33v-16h28.34Zm-27.34-1h26.34v-14H321.33Z" style="fill:#ebebeb"></path><rect x="220.97" y="115.21" width="56.37" height="68.37" style="fill:#dbdbdb"></rect><rect x="227.41" y="121.45" width="43.49" height="55.89" style="fill:#fff"></rect><rect x="227.41" y="121.45" width="1.7" height="55.89" style="fill:#c7c7c7"></rect><rect x="277.34" y="115.21" width="1.7" height="68.37" style="fill:#c7c7c7"></rect><rect x="244.94" y="135.9" width="8.78" height="22.21" style="fill:#ebebeb"></rect><path d="M263.47,165.21H238.88V148.9h24.59Zm-23.59-1h22.59V149.9H239.88Z" style="fill:#dbdbdb"></path><path d="M161.2,409.23a5.46,5.46,0,0,0,.88,2.73,4,4,0,0,1,.11-.56c0-.19.1-.39.16-.59a11.14,11.14,0,0,1,2.13-3.67l.32-.37.08-.09h0l.16-.17c8.61-10.91,16.81,6.77,17,7.17h0s.47-17.63-8.93-18.12C165.73,395.18,160.77,403.78,161.2,409.23Z" style="fill:#ebebeb"></path><path d="M162.08,412a3.53,3.53,0,0,0,.77.82c4.49,3.43,18.27,1.07,19.13.92h0c-13,1.25-16.52-3.47-17.14-7l-.08.09-.32.37a11.43,11.43,0,0,0-2.13,3.67c-.06.2-.11.4-.16.59A4,4,0,0,0,162.08,412Z" style="fill:#ebebeb"></path><path d="M162.08,412a3.53,3.53,0,0,0,.77.82c4.49,3.43,18.27,1.07,19.13.92h0c-13,1.25-16.52-3.47-17.14-7l-.08.09-.32.37a11.43,11.43,0,0,0-2.13,3.67c-.06.2-.11.4-.16.59A4,4,0,0,0,162.08,412Z" style="opacity:0.2"></path><path d="M203.17,411.24a5.44,5.44,0,0,1-1.13,2.63,5.51,5.51,0,0,0-.06-.57,4.62,4.62,0,0,0-.11-.61,10.93,10.93,0,0,0-1.77-3.85l-.27-.4-.08-.1h0l-.14-.18c-7.53-11.68-17.37,5.13-17.58,5.52h0s1.21-17.6,10.62-17.19C200,396.82,204.12,405.85,203.17,411.24Z" style="fill:#ebebeb"></path><path d="M202,413.87a3.49,3.49,0,0,1-.84.74c-4.8,3-18.3-.68-19.14-.91h0c12.79,2.48,16.77-1.88,17.73-5.35l.08.1.27.4a11.39,11.39,0,0,1,1.77,3.85c0,.21.08.41.11.61A5.51,5.51,0,0,1,202,413.87Z" style="fill:#ebebeb"></path><path d="M202,413.87a3.49,3.49,0,0,1-.84.74c-4.8,3-18.3-.68-19.14-.91h0c12.79,2.48,16.77-1.88,17.73-5.35l.08.1.27.4a11.39,11.39,0,0,1,1.77,3.85c0,.21.08.41.11.61A5.51,5.51,0,0,1,202,413.87Z" style="opacity:0.2"></path><polygon points="156.81 472.31 206.93 472.31 202.79 415.78 161.81 417.53 156.81 472.31" style="fill:#dbdbdb"></polygon><polygon points="145.24 472.31 160.8 472.31 162.98 417.53 148.02 418.83 145.24 472.31" style="fill:#a6a6a6"></polygon><polygon points="207.61 415.78 207.61 426.82 162.98 425.45 162.98 412.82 207.61 415.78" style="fill:#c7c7c7"></polygon><polygon points="146.19 426.82 162.98 425.45 162.98 412.82 145.24 415.78 146.19 426.82" style="fill:#dbdbdb"></polygon><polygon points="178.19 472.31 188.68 472.31 189.73 414.59 177.35 413.77 178.19 472.31" style="fill:#ebebeb"></polygon><polygon points="154.38 472.31 150.81 472.31 151.12 414.79 156.11 413.96 154.38 472.31" style="fill:#ebebeb"></polygon><path d="M303.21,397.14a4.74,4.74,0,0,1-.77,2.39,4.26,4.26,0,0,0-.1-.49,3.67,3.67,0,0,0-.14-.52,9.73,9.73,0,0,0-1.86-3.21l-.28-.32-.07-.08h0a.87.87,0,0,1-.13-.15c-7.54-9.54-14.71,5.92-14.86,6.28h0s-.41-15.42,7.81-15.85C299.25,384.86,303.59,392.38,303.21,397.14Z" style="fill:#ebebeb"></path><path d="M302.44,399.53a3.23,3.23,0,0,1-.67.71c-3.93,3-16,.94-16.74.81h0c11.33,1.09,14.44-3,15-6.13l.07.08.28.32a9.92,9.92,0,0,1,1.86,3.21c.06.18.1.35.14.52A4.26,4.26,0,0,1,302.44,399.53Z" style="fill:#ebebeb"></path><path d="M302.44,399.53a3.23,3.23,0,0,1-.67.71c-3.93,3-16,.94-16.74.81h0c11.33,1.09,14.44-3,15-6.13l.07.08.28.32a9.92,9.92,0,0,1,1.86,3.21c.06.18.1.35.14.52A4.26,4.26,0,0,1,302.44,399.53Z" style="opacity:0.2"></path><path d="M266.5,398.9a4.83,4.83,0,0,0,1,2.3c0-.16,0-.33.05-.5s.06-.35.1-.53a9.64,9.64,0,0,1,1.54-3.37l.25-.35.06-.09h0a1,1,0,0,0,.12-.16C276.2,386,284.81,400.7,285,401h0s-1.06-15.39-9.28-15C269.27,386.29,265.67,394.19,266.5,398.9Z" style="fill:#ebebeb"></path><path d="M267.49,401.2a3,3,0,0,0,.74.64c4.19,2.62,16-.59,16.73-.79h0c-11.18,2.17-14.67-1.64-15.51-4.68l-.06.09-.25.35a10.11,10.11,0,0,0-1.54,3.37c0,.18-.07.36-.1.53S267.5,401,267.49,401.2Z" style="fill:#ebebeb"></path><path d="M267.49,401.2a3,3,0,0,0,.74.64c4.19,2.62,16-.59,16.73-.79h0c-11.18,2.17-14.67-1.64-15.51-4.68l-.06.09-.25.35a10.11,10.11,0,0,0-1.54,3.37c0,.18-.07.36-.1.53S267.5,401,267.49,401.2Z" style="opacity:0.2"></path><polygon points="307.05 472.31 263.21 472.31 266.83 402.87 302.67 404.4 307.05 472.31" style="fill:#dbdbdb"></polygon><polygon points="317.17 472.31 303.56 472.31 301.65 404.4 314.74 405.54 317.17 472.31" style="fill:#a6a6a6"></polygon><polygon points="262.62 402.87 262.62 412.52 301.65 411.33 301.65 400.28 262.62 402.87" style="fill:#c7c7c7"></polygon><polygon points="316.33 412.52 301.65 411.33 301.65 400.28 317.17 402.87 316.33 412.52" style="fill:#dbdbdb"></polygon><polygon points="288.35 472.31 279.18 472.31 278.26 401.83 289.09 401.11 288.35 472.31" style="fill:#ebebeb"></polygon><polygon points="309.18 472.31 312.3 472.31 312.02 402.01 307.66 401.28 309.18 472.31" style="fill:#ebebeb"></polygon><path d="M200.36,434.66a5.16,5.16,0,0,0,1.13,2.45,4.9,4.9,0,0,1,0-.54,5.62,5.62,0,0,1,.09-.57,10.38,10.38,0,0,1,1.56-3.66l.26-.38.06-.09h0l.13-.17c6.79-11.14,16.43,4.4,16.63,4.76h0S218.71,420,209.9,420.59C203,421.06,199.34,429.64,200.36,434.66Z" style="fill:#dbdbdb"></path><path d="M201.49,437.11a3.29,3.29,0,0,0,.81.67c4.57,2.69,17.15-1.07,17.93-1.31h0c-11.94,2.63-15.79-1.36-16.77-4.59l-.06.09-.26.38a10.76,10.76,0,0,0-1.56,3.66,5.62,5.62,0,0,0-.09.57A4.9,4.9,0,0,0,201.49,437.11Z" style="fill:#a6a6a6"></path><path d="M239.7,431.78a5.09,5.09,0,0,1-.76,2.58,4.87,4.87,0,0,0-.12-.52,3.86,3.86,0,0,0-.17-.55,10.43,10.43,0,0,0-2.09-3.4q-.13-.17-.3-.33l-.08-.09h0l-.15-.15c-8.34-10-15.61,6.75-15.76,7.13h0s-.87-16.53,7.94-17.22C235.11,418.71,240,426.66,239.7,431.78Z" style="fill:#dbdbdb"></path><path d="M238.94,434.36a3.26,3.26,0,0,1-.7.78c-4.13,3.34-17.13,1.45-17.93,1.33h0c12.19.86,15.41-3.65,15.91-7l.08.09q.17.17.3.33a10.6,10.6,0,0,1,2.09,3.4c.07.18.12.37.17.55A4.87,4.87,0,0,1,238.94,434.36Z" style="fill:#a6a6a6"></path><polygon points="243.06 472.19 196.62 472.19 198.32 439.3 238.43 437.87 243.06 472.19" style="fill:#ebebeb"></polygon><polygon points="243.06 472.19 196.62 472.19 198.32 439.3 238.43 437.87 243.06 472.19" style="fill:#fff;opacity:0.6000000000000001"></polygon><polygon points="252.56 472.19 239.37 472.19 237.34 437.87 250.95 440.41 252.56 472.19" style="fill:#ebebeb"></polygon><polygon points="195.99 438 195.99 449.47 237.34 448.05 237.34 434.92 195.99 438" style="fill:#ebebeb"></polygon><polygon points="195.99 438 195.99 449.47 237.34 448.05 237.34 434.92 195.99 438" style="fill:#fff;opacity:0.4"></polygon><polygon points="252.9 449.47 237.34 448.05 237.34 434.92 253.78 438 252.9 449.47" style="fill:#ebebeb"></polygon><polygon points="252.9 449.47 237.34 448.05 237.34 434.92 253.78 438 252.9 449.47" style="opacity:0.1"></polygon><polygon points="209.31 437 209.72 472.19 220.69 472.19 220.86 436.14 209.31 437" style="fill:#dbdbdb"></polygon><polygon points="243.9 436.14 248.02 436.92 248.02 472.19 244.57 472.19 243.9 436.14" style="fill:#dbdbdb"></polygon><path d="M310,440.77a4.23,4.23,0,0,0,.94,2.05c0-.15,0-.3,0-.45a4,4,0,0,1,.08-.48,8.71,8.71,0,0,1,1.31-3.07l.21-.31.06-.08h0l.1-.15c5.68-9.33,13.75,3.69,13.93,4h0S325.4,428.48,318,429C312.24,429.38,309.18,436.56,310,440.77Z" style="fill:#dbdbdb"></path><path d="M311,442.82a2.82,2.82,0,0,0,.68.56c3.82,2.25,14.36-.9,15-1.09h0c-10,2.2-13.21-1.14-14-3.85l-.06.08-.21.31a8.9,8.9,0,0,0-1.31,3.07,4,4,0,0,0-.08.48C311,442.52,311,442.67,311,442.82Z" style="fill:#a6a6a6"></path><path d="M343,438.36a4.23,4.23,0,0,1-.64,2.16,3.82,3.82,0,0,0-.09-.44,4.11,4.11,0,0,0-.15-.46,8.63,8.63,0,0,0-1.74-2.84l-.26-.29-.07-.07h0l-.12-.13c-7-8.4-13.07,5.66-13.2,6h0s-.72-13.85,6.65-14.42C339.13,427.41,343.2,434.07,343,438.36Z" style="fill:#dbdbdb"></path><path d="M342.33,440.52a2.58,2.58,0,0,1-.58.65c-3.46,2.79-14.34,1.21-15,1.11h0c10.21.72,12.91-3.06,13.32-5.86l.07.07.26.29a8.91,8.91,0,0,1,1.74,2.84c.06.15.1.31.15.46A3.82,3.82,0,0,1,342.33,440.52Z" style="fill:#a6a6a6"></path><polygon points="345.79 472.19 306.91 472.19 308.33 444.66 341.9 443.46 345.79 472.19" style="fill:#ebebeb"></polygon><polygon points="345.79 472.19 306.91 472.19 308.33 444.66 341.9 443.46 345.79 472.19" style="fill:#fff;opacity:0.6000000000000001"></polygon><polygon points="353.74 472.19 342.69 472.19 341 443.46 352.39 445.58 353.74 472.19" style="fill:#ebebeb"></polygon><polygon points="306.38 443.56 306.38 453.17 341 451.98 341 440.99 306.38 443.56" style="fill:#ebebeb"></polygon><polygon points="306.38 443.56 306.38 453.17 341 451.98 341 440.99 306.38 443.56" style="fill:#fff;opacity:0.4"></polygon><polygon points="354.02 453.17 341 451.98 341 440.99 354.76 443.56 354.02 453.17" style="fill:#ebebeb"></polygon><polygon points="354.02 453.17 341 451.98 341 440.99 354.76 443.56 354.02 453.17" style="opacity:0.1"></polygon><polygon points="317.53 442.73 317.87 472.19 327.05 472.19 327.2 442.01 317.53 442.73" style="fill:#dbdbdb"></polygon><polygon points="346.48 442.01 349.94 442.66 349.94 472.19 347.05 472.19 346.48 442.01" style="fill:#dbdbdb"></polygon></g><g id="freepik--Floor--inject-659"><polygon points="36.95 472.31 90.22 472.07 143.48 471.98 250 471.81 356.52 471.98 409.78 472.07 463.05 472.31 409.78 472.56 356.52 472.64 250 472.81 143.48 472.64 90.22 472.56 36.95 472.31" style="fill:#263238"></polygon></g><g id="freepik--Garland--inject-659"><path d="M184.14,35.93a9.43,9.43,0,0,1-.77,7.65,10.39,10.39,0,0,1-2.76,3.11c-.68.5-3.13,1.05-3.47,1.45-.61.71-.56,2.9-1.14,3.92A8,8,0,0,1,173.18,55a6.6,6.6,0,0,1-4.93.87,18.3,18.3,0,0,1-4.35,7.67,13.61,13.61,0,0,1-10.7,4.13,5.28,5.28,0,0,1-2.58,4.07,3.83,3.83,0,0,1-2.7.33,13.8,13.8,0,0,1-4.42,4c-2.44,1.32-6.65,1.92-8.74-.27a.84.84,0,0,1-.19.3,2,2,0,0,1-1.84.34A3.31,3.31,0,0,1,131,78.21a3.21,3.21,0,0,1-2.73-.13c-1.55,3.9-7.54,5.12-10.76,2.31a11.47,11.47,0,0,1-6.28,3.24,6.8,6.8,0,0,1-6.87-2.44c-6.89,5.14-17.82,5.43-21.72-2.79-2.93,2.24-7,1.09-9.6-1.56A11.55,11.55,0,0,1,61,76.4c-2.5-1.59-4.34-4.58-3.94-7.36a4.1,4.1,0,0,1-4-1.16,3.52,3.52,0,0,1-.73-1.25,6.68,6.68,0,0,1-5.18-2A5.06,5.06,0,0,1,46,59.46c-.2-.21-.4-.41-.59-.63a2.38,2.38,0,0,1-2.05.57,5.45,5.45,0,0,1-4-4.35,5.72,5.72,0,0,1,.05-2.11c-4-.28-6.91-3.74-8.14-7.74h0c-1.37-4.49-.58-9.67,3.41-11.78.41-2.66,1.61-4.56,3.65-5,6.5-3.81,11.57.95,14.56,6.72a5.81,5.81,0,0,1,1.43-.25,6.46,6.46,0,0,1,3.93,1.27,6.69,6.69,0,0,1,2.52,4c4.08-.27,8,.8,9.21,4.76a6.85,6.85,0,0,1,7.77-.42,8.65,8.65,0,0,1,3.53,5c0,.14.07.3.11.45a10.3,10.3,0,0,1,3.35,1.35,16.67,16.67,0,0,1,3.16,2.83l.23.06a6.13,6.13,0,0,1,3.2-1.25c2.56-.24,4.09.85,5.93,2.19a4.84,4.84,0,0,1,4.94,1.11c.77,0,1.52,0,2.28,0s1.4,0,2.09-.06A3.08,3.08,0,0,1,108.73,55a3.12,3.12,0,0,1,2.19.65,9.18,9.18,0,0,1,3.51-2.56,7.74,7.74,0,0,1,5.2,0c2.27-7.09,13.12-10.82,18.09-5.28,2.64-2.91,5.63-4.54,9.79-2.69l.35-.2a1.74,1.74,0,0,1-.05-.39c0-5,4.24-6.65,8.53-6.51,2-4.51,6.38-6.49,11.21-6.8.16-.13.32-.25.47-.39.38-4.13,2.55-8.25,7-9a7.44,7.44,0,0,1,3.39.23,7.56,7.56,0,0,1,5.17,5.43C187,28.14,187.62,33.78,184.14,35.93Z" style="fill:#37474f"></path><path d="M171.18,40.61c-17.25,1.56-20.1,15.31-20.1,15.31-11-2.63-17.59,6.32-17.59,6.32-14.68-5.08-22.42,6.13-22.42,6.13C100.24,57.83,86.6,62.66,86.6,62.66c-4.53-9.79-14.72-6-14.72-6-8-12.91-21.74-6-21.74-6-1.33-5-3.82-10.38-9.37-11.75a7.41,7.41,0,0,0-9.46,6.26c-1.37-4.49-.58-9.67,3.41-11.78.41-2.66,1.61-4.56,3.65-5,6.5-3.81,11.57.95,14.56,6.72a5.81,5.81,0,0,1,1.43-.25,6.46,6.46,0,0,1,3.93,1.27,6.69,6.69,0,0,1,2.52,4c4.08-.27,8,.8,9.21,4.76a6.85,6.85,0,0,1,7.77-.42,8.65,8.65,0,0,1,3.53,5c0,.14.07.3.11.45a10.3,10.3,0,0,1,3.35,1.35,16.67,16.67,0,0,1,3.16,2.83l.23.06a6.13,6.13,0,0,1,3.2-1.25c2.56-.24,4.09.85,5.93,2.19a4.84,4.84,0,0,1,4.94,1.11c.77,0,1.52,0,2.28,0s1.4,0,2.09-.06A3.08,3.08,0,0,1,108.73,55a3.12,3.12,0,0,1,2.19.65,9.18,9.18,0,0,1,3.51-2.56,7.74,7.74,0,0,1,5.2,0c2.27-7.09,13.12-10.82,18.09-5.28,2.64-2.91,5.63-4.54,9.79-2.69l.35-.2a1.74,1.74,0,0,1-.05-.39c0-5,4.24-6.65,8.53-6.51,2-4.51,6.38-6.49,11.21-6.8.16-.13.32-.25.47-.39.38-4.13,2.55-8.25,7-9a7.44,7.44,0,0,1,3.39.23C169.08,26.71,171.18,40.61,171.18,40.61Z" style="fill:#455a64"></path><path d="M467,35.93a9.43,9.43,0,0,1-.77,7.65,10.49,10.49,0,0,1-2.75,3.11c-.69.5-3.13,1.05-3.47,1.45-.61.71-.57,2.9-1.15,3.92A8,8,0,0,1,456,55a6.6,6.6,0,0,1-4.93.87,18.3,18.3,0,0,1-4.35,7.67A13.61,13.61,0,0,1,436,67.67a5.28,5.28,0,0,1-2.58,4.07,3.83,3.83,0,0,1-2.7.33,13.7,13.7,0,0,1-4.42,4c-2.44,1.32-6.65,1.92-8.74-.27a.84.84,0,0,1-.19.3,2,2,0,0,1-1.84.34,3.28,3.28,0,0,1-1.69,1.76,3.21,3.21,0,0,1-2.73-.13c-1.55,3.9-7.54,5.12-10.76,2.31a11.47,11.47,0,0,1-6.28,3.24,6.78,6.78,0,0,1-6.86-2.44c-6.89,5.14-17.82,5.43-21.73-2.79-2.93,2.24-7,1.09-9.59-1.56a11.57,11.57,0,0,1-12.08-.44c-2.5-1.59-4.34-4.58-3.93-7.36a4.12,4.12,0,0,1-4-1.16,3.52,3.52,0,0,1-.73-1.25,6.68,6.68,0,0,1-5.18-2,5.06,5.06,0,0,1-1.16-5.16c-.19-.21-.4-.41-.59-.63a2.37,2.37,0,0,1-2.05.57,5.45,5.45,0,0,1-4-4.35,5.72,5.72,0,0,1,0-2.11c-3.95-.28-6.91-3.74-8.14-7.74h0c-1.37-4.49-.57-9.67,3.41-11.78.42-2.66,1.61-4.56,3.65-5,6.51-3.81,11.57.95,14.56,6.72a5.81,5.81,0,0,1,1.43-.25,6.46,6.46,0,0,1,3.93,1.27,6.64,6.64,0,0,1,2.52,4c4.08-.27,8,.8,9.21,4.76a6.86,6.86,0,0,1,7.78-.42,8.68,8.68,0,0,1,3.52,5c0,.14.07.3.11.45a10.3,10.3,0,0,1,3.35,1.35,16.67,16.67,0,0,1,3.16,2.83l.23.06a6.16,6.16,0,0,1,3.2-1.25c2.56-.24,4.09.85,5.93,2.19a4.86,4.86,0,0,1,4.95,1.11c.76,0,1.51,0,2.27,0s1.4,0,2.1-.06A3.06,3.06,0,0,1,391.56,55a3.12,3.12,0,0,1,2.19.65,9.14,9.14,0,0,1,3.52-2.56,7.71,7.71,0,0,1,5.19,0c2.27-7.09,13.12-10.82,18.09-5.28,2.64-2.91,5.63-4.54,9.79-2.69l.35-.2a1.74,1.74,0,0,1-.05-.39c0-5,4.25-6.65,8.53-6.51,2-4.51,6.39-6.49,11.21-6.8.16-.13.32-.25.47-.39.39-4.13,2.56-8.25,7-9a7.43,7.43,0,0,1,3.39.23,7.56,7.56,0,0,1,5.17,5.43C469.86,28.14,470.45,33.78,467,35.93Z" style="fill:#37474f"></path><path d="M454,40.61c-17.25,1.56-20.11,15.31-20.11,15.31-11-2.63-17.59,6.32-17.59,6.32-14.68-5.08-22.42,6.13-22.42,6.13-10.83-10.54-24.47-5.71-24.47-5.71-4.53-9.79-14.72-6-14.72-6-8-12.91-21.74-6-21.74-6-1.33-5-3.82-10.38-9.36-11.75a7.41,7.41,0,0,0-9.47,6.26c-1.37-4.49-.57-9.67,3.41-11.78.42-2.66,1.61-4.56,3.65-5,6.51-3.81,11.57.95,14.56,6.72a5.81,5.81,0,0,1,1.43-.25,6.46,6.46,0,0,1,3.93,1.27,6.64,6.64,0,0,1,2.52,4c4.08-.27,8,.8,9.21,4.76a6.86,6.86,0,0,1,7.78-.42,8.68,8.68,0,0,1,3.52,5c0,.14.07.3.11.45a10.3,10.3,0,0,1,3.35,1.35,16.67,16.67,0,0,1,3.16,2.83l.23.06a6.16,6.16,0,0,1,3.2-1.25c2.56-.24,4.09.85,5.93,2.19a4.86,4.86,0,0,1,4.95,1.11c.76,0,1.51,0,2.27,0s1.4,0,2.1-.06A3.06,3.06,0,0,1,391.56,55a3.12,3.12,0,0,1,2.19.65,9.14,9.14,0,0,1,3.52-2.56,7.71,7.71,0,0,1,5.19,0c2.27-7.09,13.12-10.82,18.09-5.28,2.64-2.91,5.63-4.54,9.79-2.69l.35-.2a1.74,1.74,0,0,1-.05-.39c0-5,4.25-6.65,8.53-6.51,2-4.51,6.39-6.49,11.21-6.8.16-.13.32-.25.47-.39.39-4.13,2.56-8.25,7-9a7.43,7.43,0,0,1,3.39.23C451.92,26.71,454,40.61,454,40.61Z" style="fill:#455a64"></path><path d="M329.67,40.78a12.75,12.75,0,0,1-2.13,3,9.69,9.69,0,0,1-2.13,1.77c1.61,4.38-2.48,10.93-7.08,11.18a16.84,16.84,0,0,1,0,2.65,12.35,12.35,0,0,1-2.52,6.72c-2.44,3.14-7.14,5.3-10.87,3.26a3.37,3.37,0,0,1-1.39,1.88,3.24,3.24,0,0,1-1.9.44,2.26,2.26,0,0,1-.9-.27A5.82,5.82,0,0,1,294,75.34a4.59,4.59,0,0,1-3.86,3.71,5.68,5.68,0,0,1-5.2-2.31c-1.45,3.93-6.14,6.74-9.11,7.53-5.53,1.49-12.49-.77-15.31-3.78,0,0-3.08,3.63-6.85,4.15-2.49.34-6.16-1.08-7.32-3.7-3,2.3-7.5.81-10.1-2.28A10.24,10.24,0,0,1,224,74.55c-.88-.34-1.75-.68-2.61-1a2.21,2.21,0,0,1-1.6.62,2.24,2.24,0,0,1-2.29-2c-4.45,1.37-10.63-.27-11.16-5a2.77,2.77,0,0,1-3.14-1.24,2.28,2.28,0,0,1-.23-1.56,4.73,4.73,0,0,1-4.64-2.17A9,9,0,0,1,190,60.58c-2.21-1.77-3.29-4.88-2.11-7.17a7.66,7.66,0,0,1-4.39-2.32,5.69,5.69,0,0,1-1.4-4.87,10.06,10.06,0,0,1-8.14-6c-1.37-3.44-.61-9,2.68-11.27l.16-.11a3.74,3.74,0,0,1,.17-3.33,5.39,5.39,0,0,1,4.38-2.41A7.55,7.55,0,0,1,187,24.67,5.47,5.47,0,0,1,188.68,27a3.23,3.23,0,0,1,1.69,0,3.75,3.75,0,0,1,2.53,2.75,8.26,8.26,0,0,1,8.88,1.85,11.17,11.17,0,0,1,3.34,5.63,10,10,0,0,1,.13,1.93,4.8,4.8,0,0,1,1.85.25,5.67,5.67,0,0,1,3.21,3.39,4.65,4.65,0,0,1,4-.47A5.83,5.83,0,0,1,218,46.45c6-5.37,15.41-.74,18.52,6.14a4.45,4.45,0,0,1,2.51-.93,6.53,6.53,0,0,1,5.8,3,5.85,5.85,0,0,1,4.7.85,6.36,6.36,0,0,1,4.63-2.39A8.49,8.49,0,0,1,260,54.9c1.28-5.74,11-7.28,14.72-2.73A5.06,5.06,0,0,1,280,50.49a6.22,6.22,0,0,1,2.6-4.82,7.29,7.29,0,0,1,6-.93A11.7,11.7,0,0,1,292.8,39a13.12,13.12,0,0,1,10.68-1.8,5.08,5.08,0,0,1,1.36-2.47,6.45,6.45,0,0,1,6-1.46,4,4,0,0,1,2-3.21,5.63,5.63,0,0,1,4.32-.52c.23-.12.43-.21.65-.31a4.42,4.42,0,0,1,2.25-1.7c3.14-1,7-.31,9.13,2.36C331.5,32.9,331.28,37.55,329.67,40.78Z" style="fill:#37474f"></path><path d="M329.67,40.78a12.75,12.75,0,0,1-2.13,3,1.18,1.18,0,0,1-.46-1.13c.49-4.56-.05-10.08-5.95-10-4.45,0-6.91,5-8.16,8.56-.21.6-12.57.14-12.77,12.27,0,.61-13.85-2.88-16.05,12.08-.11.73-12.08-8.49-20.43,4.71-.49.76-2.57-9.41-14.28-5.71,0,0-6.2-7.33-13.75-2.74-.62.38-5.47-12.89-17.88-6.9-.77.37-.49-7-8.65-6-.36,0-2.77-7.2-8.95-4.27-.45.21-3.85-9.92-13.08-5.82-1.22.55-4-8.78-7.77-9.76a6,6,0,0,0-2.7-.08l.16-.11a3.74,3.74,0,0,1,.17-3.33,5.39,5.39,0,0,1,4.38-2.41A7.55,7.55,0,0,1,187,24.67,5.47,5.47,0,0,1,188.68,27a3.23,3.23,0,0,1,1.69,0,3.75,3.75,0,0,1,2.53,2.75,8.26,8.26,0,0,1,8.88,1.85,11.17,11.17,0,0,1,3.34,5.63,10,10,0,0,1,.13,1.93,4.8,4.8,0,0,1,1.85.25,5.67,5.67,0,0,1,3.21,3.39,4.65,4.65,0,0,1,4-.47A5.83,5.83,0,0,1,218,46.45c6-5.37,15.41-.74,18.52,6.14a4.45,4.45,0,0,1,2.51-.93,6.53,6.53,0,0,1,5.8,3,5.85,5.85,0,0,1,4.7.85,6.36,6.36,0,0,1,4.63-2.39A8.49,8.49,0,0,1,260,54.9c1.28-5.74,11-7.28,14.72-2.73A5.06,5.06,0,0,1,280,50.49a6.22,6.22,0,0,1,2.6-4.82,7.29,7.29,0,0,1,6-.93A11.7,11.7,0,0,1,292.8,39a13.12,13.12,0,0,1,10.68-1.8,5.08,5.08,0,0,1,1.36-2.47,6.45,6.45,0,0,1,6-1.46,4,4,0,0,1,2-3.21,5.63,5.63,0,0,1,4.32-.52c.23-.12.43-.21.65-.31a4.42,4.42,0,0,1,2.25-1.7c3.14-1,7-.31,9.13,2.36C331.5,32.9,331.28,37.55,329.67,40.78Z" style="fill:#455a64"></path><path d="M44.72,35.65a1.57,1.57,0,1,1-1.56-1.56A1.56,1.56,0,0,1,44.72,35.65Z" style="fill:#ECEFF1"></path><circle cx="59.23" cy="57.57" r="1.56" style="fill:#ECEFF1"></circle><path d="M69,55.43a.58.58,0,0,1-1.16,0,.58.58,0,0,1,1.16,0Z" style="fill:#ECEFF1"></path><path d="M111,70.87a.58.58,0,1,1-.58-.58A.58.58,0,0,1,111,70.87Z" style="fill:#ECEFF1"></path><path d="M132.4,70.87a.58.58,0,1,1-.58-.58A.58.58,0,0,1,132.4,70.87Z" style="fill:#ECEFF1"></path><path d="M145.76,50.58a.58.58,0,1,1-.58-.58A.58.58,0,0,1,145.76,50.58Z" style="fill:#ECEFF1"></path><path d="M148.86,63a.57.57,0,0,1-.58.57.56.56,0,0,1-.57-.57.57.57,0,0,1,.57-.58A.58.58,0,0,1,148.86,63Z" style="fill:#ECEFF1"></path><path d="M167.25,50a.58.58,0,1,1-.58-.58A.58.58,0,0,1,167.25,50Z" style="fill:#ECEFF1"></path><path d="M123.2,56.83a.58.58,0,1,1-.57-.58A.58.58,0,0,1,123.2,56.83Z" style="fill:#ECEFF1"></path><path d="M59.23,42.57a.58.58,0,1,1-1.15,0,.58.58,0,0,1,1.15,0Z" style="fill:#ECEFF1"></path><path d="M83.23,69a.58.58,0,1,1-.58-.58A.58.58,0,0,1,83.23,69Z" style="fill:#ECEFF1"></path><path d="M96,77.09a.58.58,0,0,1-1.16,0,.58.58,0,0,1,1.16,0Z" style="fill:#ECEFF1"></path><path d="M43.73,43.15a.58.58,0,1,1-.57-.58A.58.58,0,0,1,43.73,43.15Z" style="fill:#ECEFF1"></path><path d="M78.35,70.87a1.57,1.57,0,1,1-1.57-1.56A1.56,1.56,0,0,1,78.35,70.87Z" style="fill:#ECEFF1"></path><path d="M104.54,67.69A1.56,1.56,0,1,1,103,66.13,1.56,1.56,0,0,1,104.54,67.69Z" style="fill:#ECEFF1"></path><circle cx="130.26" cy="58.38" r="1.56" style="fill:#ECEFF1"></circle><path d="M163.71,43.73a1.57,1.57,0,1,1-1.56-1.56A1.56,1.56,0,0,1,163.71,43.73Z" style="fill:#ECEFF1"></path><path d="M155,59.13a1.57,1.57,0,1,1-1.56-1.56A1.56,1.56,0,0,1,155,59.13Z" style="fill:#ECEFF1"></path><path d="M192.58,35.65A1.57,1.57,0,1,1,191,34.09,1.56,1.56,0,0,1,192.58,35.65Z" style="fill:#ECEFF1"></path><path d="M208.66,60.69a1.57,1.57,0,1,1-1.57-1.56A1.56,1.56,0,0,1,208.66,60.69Z" style="fill:#ECEFF1"></path><path d="M216.87,55.43a.58.58,0,0,1-1.16,0,.58.58,0,0,1,1.16,0Z" style="fill:#ECEFF1"></path><path d="M258.87,70.87a.58.58,0,1,1-.58-.58A.58.58,0,0,1,258.87,70.87Z" style="fill:#ECEFF1"></path><path d="M289.7,69.53a.58.58,0,1,1-.58-.58A.58.58,0,0,1,289.7,69.53Z" style="fill:#ECEFF1"></path><path d="M299.11,53.29a.58.58,0,0,1-1.16,0,.58.58,0,0,1,1.16,0Z" style="fill:#ECEFF1"></path><path d="M292.19,47.49a.58.58,0,1,1-.58-.58A.58.58,0,0,1,292.19,47.49Z" style="fill:#ECEFF1"></path><path d="M314.53,42.17a.58.58,0,0,1-.58.58.58.58,0,0,1,0-1.16A.58.58,0,0,1,314.53,42.17Z" style="fill:#ECEFF1"></path><path d="M271.06,56.83a.57.57,0,0,1-.57.58.58.58,0,1,1,0-1.16A.57.57,0,0,1,271.06,56.83Z" style="fill:#ECEFF1"></path><path d="M207.09,42.57a.58.58,0,1,1-1.15,0,.58.58,0,0,1,1.15,0Z" style="fill:#ECEFF1"></path><path d="M231.09,69a.58.58,0,1,1-.58-.58A.58.58,0,0,1,231.09,69Z" style="fill:#ECEFF1"></path><path d="M243.89,77.09a.58.58,0,0,1-.58.58.57.57,0,0,1-.57-.58.56.56,0,0,1,.57-.57A.57.57,0,0,1,243.89,77.09Z" style="fill:#ECEFF1"></path><path d="M231.67,53.86a.58.58,0,1,1-1.16,0,.58.58,0,0,1,1.16,0Z" style="fill:#ECEFF1"></path><path d="M270.49,79.14a.58.58,0,1,1-.58-.58A.58.58,0,0,1,270.49,79.14Z" style="fill:#ECEFF1"></path><path d="M191.59,43.15a.57.57,0,0,1-.57.58.58.58,0,1,1,0-1.16A.57.57,0,0,1,191.59,43.15Z" style="fill:#ECEFF1"></path><circle cx="226.21" cy="64.63" r="1.56" style="fill:#ECEFF1"></circle><circle cx="250.69" cy="62.43" r="1.56" style="fill:#ECEFF1"></circle><path d="M279.45,66.19a1.57,1.57,0,1,1-1.57-1.56A1.56,1.56,0,0,1,279.45,66.19Z" style="fill:#ECEFF1"></path><path d="M38.46,51.56A1.56,1.56,0,1,1,40.07,50,1.56,1.56,0,0,1,38.46,51.56Z" style="fill:#ECEFF1"></path><path d="M463.06,26.22a1.57,1.57,0,1,1-1.56-1.56A1.56,1.56,0,0,1,463.06,26.22Z" style="fill:#ECEFF1"></path><circle cx="345.96" cy="57.57" r="1.56" style="fill:#ECEFF1"></circle><path d="M355.73,55.43a.58.58,0,0,1-1.15,0,.58.58,0,1,1,1.15,0Z" style="fill:#ECEFF1"></path><circle cx="397.15" cy="70.87" r="0.58" style="fill:#ECEFF1"></circle><path d="M419.12,70.87a.58.58,0,1,1-.58-.58A.58.58,0,0,1,419.12,70.87Z" style="fill:#ECEFF1"></path><path d="M432.48,50.58a.58.58,0,1,1-.58-.58A.58.58,0,0,1,432.48,50.58Z" style="fill:#ECEFF1"></path><path d="M460.51,37.22a.57.57,0,0,1-.58.57.56.56,0,0,1-.57-.57.57.57,0,0,1,.57-.58A.58.58,0,0,1,460.51,37.22Z" style="fill:#ECEFF1"></path><path d="M435.58,63a.56.56,0,0,1-.57.57.57.57,0,0,1-.58-.57.58.58,0,0,1,.58-.58A.57.57,0,0,1,435.58,63Z" style="fill:#ECEFF1"></path><path d="M454,50a.58.58,0,0,1-.58.58.58.58,0,0,1,0-1.16A.58.58,0,0,1,454,50Z" style="fill:#ECEFF1"></path><path d="M409.93,56.83a.58.58,0,1,1-.58-.58A.58.58,0,0,1,409.93,56.83Z" style="fill:#ECEFF1"></path><path d="M346,42.57a.58.58,0,1,1-1.16,0,.58.58,0,0,1,1.16,0Z" style="fill:#ECEFF1"></path><path d="M370,69a.58.58,0,1,1-.58-.58A.58.58,0,0,1,370,69Z" style="fill:#ECEFF1"></path><path d="M382.75,77.09a.57.57,0,0,1-.57.58.58.58,0,0,1-.58-.58.57.57,0,0,1,.58-.57A.56.56,0,0,1,382.75,77.09Z" style="fill:#ECEFF1"></path><path d="M330.46,43.15a.58.58,0,1,1-.58-.58A.58.58,0,0,1,330.46,43.15Z" style="fill:#ECEFF1"></path><path d="M365.07,70.87a1.57,1.57,0,1,1-1.56-1.56A1.56,1.56,0,0,1,365.07,70.87Z" style="fill:#ECEFF1"></path><path d="M391.27,67.69a1.57,1.57,0,1,1-1.57-1.56A1.57,1.57,0,0,1,391.27,67.69Z" style="fill:#ECEFF1"></path><circle cx="416.98" cy="58.38" r="1.56" style="fill:#ECEFF1"></circle><path d="M450.43,43.73a1.56,1.56,0,1,1-1.56-1.56A1.56,1.56,0,0,1,450.43,43.73Z" style="fill:#ECEFF1"></path><path d="M441.7,59.13a1.56,1.56,0,1,1-1.56-1.56A1.56,1.56,0,0,1,441.7,59.13Z" style="fill:#ECEFF1"></path><path d="M325.18,51.56A1.56,1.56,0,1,1,326.79,50,1.56,1.56,0,0,1,325.18,51.56Z" style="fill:#ECEFF1"></path><path d="M320.39,35.65a1.57,1.57,0,1,1-1.57-1.56A1.57,1.57,0,0,1,320.39,35.65Z" style="fill:#ECEFF1"></path><circle cx="307.9" cy="59.94" r="1.56" style="fill:#ECEFF1"></circle><path d="M249.3,70.85c-1,2.16-1.78,4.34-2.49,6.47a176.57,176.57,0,0,0-5.35,20.28s-3-6.36-3.63-6.44a48.69,48.69,0,0,0-5,.75c.93-4,3.34-8.75,5.76-12.81A64,64,0,0,1,244.88,70,42.9,42.9,0,0,1,249.3,70.85Z" style="fill:#ECEFF1"></path><path d="M249.3,70.85c-1,2.16-1.78,4.34-2.49,6.47a9.18,9.18,0,0,0-1.42-.1,17.93,17.93,0,0,0-6.84,1.88A64,64,0,0,1,244.88,70,42.9,42.9,0,0,1,249.3,70.85Z" style="opacity:0.1"></path><path d="M250.7,70.85c1,2.16,1.78,4.34,2.49,6.47a176.57,176.57,0,0,1,5.35,20.28s3-6.36,3.63-6.44a48.69,48.69,0,0,1,5,.75c-.93-4-3.34-8.75-5.76-12.81A64,64,0,0,0,255.12,70,42.9,42.9,0,0,0,250.7,70.85Z" style="fill:#ECEFF1"></path><path d="M250.7,70.85c1,2.16,1.78,4.34,2.49,6.47a9.18,9.18,0,0,1,1.42-.1,17.93,17.93,0,0,1,6.84,1.88A64,64,0,0,0,255.12,70,42.9,42.9,0,0,0,250.7,70.85Z" style="opacity:0.1"></path><path d="M247.53,62.69c0-.62-9.91-16.41-16.41-15.38s1.14,18,.93,18.79-2.48,6.7,0,9.28,10.84-.72,15.48-5.47Z" style="fill:#ECEFF1"></path><path d="M248,66.89a.62.62,0,0,1-.21.53c-2.3,2.26-8.63,3.27-9.22-1.22a3.35,3.35,0,0,1,2.77-3.49c2.07-.51,3.9.69,5.47,1.86a.87.87,0,0,1,.22.26,2.64,2.64,0,0,1,.65.68A1.86,1.86,0,0,1,248,66.89Z" style="opacity:0.1"></path><path d="M252.47,62.69c0-.62,9.91-16.41,16.41-15.38s-1.14,18-.93,18.79,2.48,6.7,0,9.28-10.84-.72-15.48-5.47Z" style="fill:#ECEFF1"></path><path d="M252.2,66.89a.62.62,0,0,0,.21.53c2.3,2.26,8.63,3.27,9.22-1.22a3.34,3.34,0,0,0-2.77-3.49c-2.07-.51-3.9.69-5.47,1.86a.87.87,0,0,0-.22.26,2.64,2.64,0,0,0-.65.68A1.86,1.86,0,0,0,252.2,66.89Z" style="opacity:0.1"></path><path d="M255,66.37c0,1.76-.48,4.41-2.48,5.09-.68.24-1.9-.4-2.47-.4h0c-.57,0-1.8.63-2.48.39-2-.68-2.48-3.33-2.48-5.09s.86-4.61,2.1-5a5.81,5.81,0,0,1,2.86.31,5.77,5.77,0,0,1,2.85-.31C254.17,61.76,255,64.62,255,66.37Z" style="fill:#ECEFF1"></path></g><g id="freepik--Character--inject-659"><path d="M345.64,472.34c2.15.7,65.07.13,67.38-1.37.89-.56-3.75-60.21-3.75-60.21l-40,.26,4.17,39.92s-23.35,10.7-25.73,12.62S343.5,471.65,345.64,472.34Z" style="fill:#ad6359"></path><path d="M345.64,472.34c2.15.7,65.07.13,67.38-1.38.28-.17.44-6.21-.46-14.1-11.43,1.76-52.22,7.51-55.37,5.6-2.19-1.33-.21-3.33,1.62-4.68-5.23,2.53-10.11,5-11.13,5.79C345.33,465.48,343.5,471.65,345.64,472.34Z" style="fill:#263238"></path><path d="M370.28,440.34h44.11s-8.3-93.92-8-95.71c.44-2.31,3.05-12.74,6.52-26.36,1.08-4.26,2.25-8.84,3.47-13.58,3.29-12.81,6.92-26.82,10.07-39,4.74-18.26,8.44-32.44,8.44-32.44H397.55s-4.35,13.81-9.84,31.78c-8.95,29.2-20.91,69.39-22.09,79.16C363.71,360,370.28,440.34,370.28,440.34Z" style="fill:#37474f"></path><path d="M372.24,432.82c6.73-.14,4.8-.2,11.53-.26,3.3,0,25-.22,28.05.29a.07.07,0,0,1,0,.13c-3.08.51-24.75.32-28.05.29-6.73-.06-4.8-.12-11.53-.26A.1.1,0,1,1,372.24,432.82Z" style="fill:#263238"></path><path d="M398.13,338.33c1.45-6.38,3.61-12.63,5.49-18.88q5.75-19.08,11.54-38.14,2.89-9.53,5.82-19.05c1-3.2,2-6.41,3-9.6s2.1-6.24,3-9.4c.36-1.28.56-.58.09,1.06-.93,3.29-1.84,6.58-2.8,9.86q-2.85,9.75-5.74,19.49-5.73,19.38-11.57,38.74-2.91,9.7-5.84,19.41a77.76,77.76,0,0,0-2.38,9.39,43.24,43.24,0,0,0-.39,10c.42,6.75,1.2,13.49,1.82,20.22s1.25,13.5,1.88,20.24c1.24,13.43,1.91,17.75,3.12,31.18.15,1.71.3,3.41.43,5.11,0,.57-.82.53-.88,0-1.45-13.28-2-17.49-3.24-30.79s-2.48-26.46-3.71-39.7c-.31-3.32-.67-6.65-.67-10A41.62,41.62,0,0,1,398.13,338.33Z" style="fill:#263238"></path><path d="M401.8,233.24c2.59,20.07,7.54,57.72,11.15,85,8.43-33.09,22-85,22-85Z" style="fill:#263238"></path><path d="M392.61,472.08c2.15.7,65.07.13,67.38-1.38.89-.55-1-60.2-1-60.2l-40,.26,1.41,39.91S397,461.38,394.66,463.3,390.47,471.38,392.61,472.08Z" style="fill:#ad6359"></path><path d="M392.61,472.08c2.15.69,65.07.12,67.38-1.38.28-.17.29-6.06.17-14.11-11.43,1.77-52.85,7.51-56,5.61-2.19-1.33-.21-3.34,1.62-4.68-5.23,2.52-10.11,5-11.13,5.78C392.3,465.21,390.47,471.39,392.61,472.08Z" style="fill:#263238"></path><path d="M398.76,233.24s.86,17.88,5,32.05c.32,1.17.68,2.32,1.07,3.43a66.14,66.14,0,0,1,10.77,5.53s.43,14.4.86,30.44c.48,17.95,1,38,.87,42.2-.37,15.88,1.56,93.27,1.56,93.27l44.1.18s-7.54-87.58-7.49-93.4c.09-9.35-2.19-76.74-1.78-78.25,5.37-19.82-6.43-35.45-6.43-35.45Z" style="fill:#37474f"></path><path d="M420.36,432.32c6.74-.11,4.8-.17,11.54-.21,3.3,0,25-.12,28,.41a.07.07,0,0,1,0,.13c-3.08.5-24.74.22-28,.18-6.74-.1-4.8-.15-11.54-.31A.1.1,0,0,1,420.36,432.32Z" style="fill:#263238"></path><path d="M403,267.65a83.09,83.09,0,0,1,12.61,6.6c.16.1,0,.35-.13.26-4.26-2.06-8.6-4.05-12.74-6.35A.29.29,0,0,1,403,267.65Z" style="fill:#263238"></path><path d="M409.59,261.65c-.14-2-.29-4-.47-6-.4-4.59-.88-9.2-1.68-13.74-.07-.36-.57-.22-.54.12.31,3.57.72,7.13,1.05,10.7s.77,7.11.83,10.66c0,1.07-.06,2.89-1.37,3.18-1.76.4-2.6-1.92-3-3.19a59.77,59.77,0,0,1-2.22-9.72c-.58-3.74-.88-7.54-1.24-11.31,0-.13-.24-.11-.24,0,0,7.49.08,15.32,2.88,22.38.54,1.38,1.5,2.78,3.09,3h.08a.34.34,0,0,0,0,.14c0,.21.09.41.12.62s.07.35.11.52c.07.37.13.73.22,1.1a.27.27,0,0,0,.54-.07.26.26,0,0,0,.16-.22,6.3,6.3,0,0,0-.49-2.12,2.63,2.63,0,0,0,1.93-1.62A9.31,9.31,0,0,0,409.59,261.65Z" style="fill:#263238"></path><path d="M446.86,271.29a82.86,82.86,0,0,1,1.88-8.93c1.46-6.73,0-13.48-1.57-20.05a.14.14,0,0,1,.27-.07c1.58,5.6,3.19,11.28,2.58,17.17a80.05,80.05,0,0,1-1.69,8.23,37.78,37.78,0,0,0-.77,9c.12,6,.52,12,.79,17.95q.42,9.24.83,18.47,1.63,36.54,3.16,73.1c.57,13.66,1.1,27.32,1.5,41,0,.13-.19.12-.2,0-1.45-24.36-2.53-48.75-3.63-73.12s-2.17-48.5-3.2-72.74A66.62,66.62,0,0,1,446.86,271.29Z" style="fill:#263238"></path><path d="M427.63,242.78c.45,2.09.8,4.2,1.37,6.27a8.62,8.62,0,0,0,3,4.84,12.82,12.82,0,0,0,5.28,2.19,23.29,23.29,0,0,0,7.68.12.08.08,0,1,1,0,.16c-1.33.28-2.64.74-4,.9a17,17,0,0,1-4,.21,11.11,11.11,0,0,1-6.08-2.26,9.35,9.35,0,0,1-3.06-5.46,35.17,35.17,0,0,1-.59-6.94C427.3,242.64,427.59,242.61,427.63,242.78Z" style="fill:#263238"></path><path d="M384.19,200c.54,0,3.06.23,6.74.53a20.79,20.79,0,0,0,2.83-12.27c-.07-1,1.93,4.74.59,12.54,7.11.56,16.79,1.32,25.24,1.9.35-3.3.82-6.34.82-6.34a37.05,37.05,0,0,0,1,6.47c1.16.09,2.29.15,3.38.22a128.74,128.74,0,0,1,1.39-14,45.37,45.37,0,0,0,3.42,14.34c5.37.31,8.91.42,8.7.15-7.62-9.76-1.38-14.81-3.24-23.14-2.24-10-10.63-12-10-19.39.52-6,1.86-16.86-5.6-19.61a14.65,14.65,0,0,0-15.71-3.9c-12.25,3.94-8.52,22.73-9.54,26.46-1.46,5.32-4.13,7.08-6.37,13.12s.31,10.39.4,14.62S382.84,199.87,384.19,200Z" style="fill:#263238"></path><path d="M438.63,202.15a21.18,21.18,0,0,1-2.32-5.4,10.91,10.91,0,0,1,.33-5.65,59.34,59.34,0,0,0,1.31-5.88,15.74,15.74,0,0,0-.25-6.22,13.7,13.7,0,0,0-2.95-5.51,35.18,35.18,0,0,0-4.4-4.17,22.28,22.28,0,0,1-4.05-4.19,10.73,10.73,0,0,1-1.86-5.49,10.1,10.1,0,0,0,1.24,5.87,20,20,0,0,0,3.88,4.68,46,46,0,0,1,4.07,4.22,13.17,13.17,0,0,1,2.54,5,15.39,15.39,0,0,1,.26,5.63c-.22,1.92-.68,3.83-1.05,5.82a20.18,20.18,0,0,0-.36,3,9,9,0,0,0,.51,3.09A17.23,17.23,0,0,0,438.63,202.15Z" style="fill:#263238"></path><path d="M396.63,144a30.51,30.51,0,0,0-2,7.08c-.44,2.42-.76,4.86-1.05,7.29l-.46,3.62a17.31,17.31,0,0,1-.74,3.45,19.54,19.54,0,0,1-3.61,6,26.69,26.69,0,0,0-2.14,3.11,17.36,17.36,0,0,0-1.53,3.51,25.73,25.73,0,0,0-.73,3.72,15.18,15.18,0,0,0,0,3.81c.15,1.27.44,2.47.67,3.65a19.37,19.37,0,0,1,.37,3.56,7.52,7.52,0,0,1-3.29,6,7.61,7.61,0,0,0,4.05-6,18.78,18.78,0,0,0-.11-3.75c-.15-1.24-.39-2.43-.46-3.6a19.46,19.46,0,0,1,.94-7,17.15,17.15,0,0,1,1.44-3.18A26.49,26.49,0,0,1,390,172.4a37,37,0,0,0,2.18-3.05,15.23,15.23,0,0,0,1.61-3.5,19.7,19.7,0,0,0,.69-3.73c.14-1.23.22-2.46.31-3.68.19-2.44.34-4.88.59-7.3A35,35,0,0,1,396.63,144Z" style="fill:#263238"></path><path d="M407.44,189c-4.36,7.15-23.33,32.69-34,33-12,.3-32.55-12.69-45.76-21.59-4.73-3.19,11.16-18.6,17.21-19.62,3.63-.61,25,16,30.22,17,2.95.55,11.64-9.06,26.71-16.84C410.05,176.58,413.32,179.32,407.44,189Z" style="fill:#ad6359"></path><path d="M331.08,202.07c-2.91-1.47-19.33-9.76-22.39-12.75s-11.21-12.27-9.16-14.84,4.67,0,4.67,0-2.83-4.46-.52-6.86,6.23,1.66,6.23,1.66-2.57-4.79-.09-7,5.73,2.51,5.73,2.51-2.55-4.27.26-5.25c3.38-1.18,7.2,7.23,10.82,10.28.82.7,17.66,12.88,17.66,12.88Z" style="fill:#ad6359"></path><path d="M315.27,164.32c2.82,6.17,5.12,8.38,10.72,12,.11.07,0,.25-.1.18-5.8-3.08-9.09-5.43-10.93-12.1C314.87,164.11,315.13,164,315.27,164.32Z" style="fill:#263238"></path><path d="M309.7,168.73c3.49,6.16,6,8.58,11.54,12.84.08.06,0,.2-.1.15-5.82-3.72-9-6.15-11.73-12.76C309.29,168.66,309.54,168.45,309.7,168.73Z" style="fill:#263238"></path><path d="M304.49,174.64c3.81,5.71,6.41,8.49,12.36,11.93a.13.13,0,0,1-.12.22c-6.4-2.92-9.67-6.35-12.4-12C304.14,174.39,304.25,174.28,304.49,174.64Z" style="fill:#263238"></path><path d="M345,248.13l1.12.11a.34.34,0,0,1,.27-.23c.71-.09,1.43-.09,2.15-.11l-.23-.09A12.58,12.58,0,0,1,343,246a.27.27,0,0,1,.27-.47,8.43,8.43,0,0,0,1.69.66,25.81,25.81,0,0,1-7.16-4c-.14-.12,0-.31.18-.24,1,.45,2,.92,3,1.39-.61-.51-1.21-1.06-1.8-1.63-.06-.06-.1-.12-.16-.17a16.48,16.48,0,0,1-2.07-1.5c-1.65-1.42-3.28-4.55-5.31-5.27-.1,0-.1-.23,0-.21,1.66.19,2.44,1.49,3.57,2.61l.67.64a29.11,29.11,0,0,1-2.27-3.88,8.33,8.33,0,0,1-3.11-2.22c-.13-.16,0-.43.23-.31a10.42,10.42,0,0,0,2.22,1.05,1,1,0,0,1-.07-.15c-1.06-.88-1.88-2.12-2.83-3.06-.32-.31.15-.76.47-.48s1,.76,1.49,1.14c-.09-.29-.19-.57-.28-.86a13,13,0,0,1-3-5c-.07-.22.3-.39.39-.16a9.79,9.79,0,0,0,2.06,3c-.16-.68-.3-1.36-.42-2.05l-.42-.76a27.32,27.32,0,0,1-1.63-3.3c-.13-.33.39-.53.56-.24.41.67.78,1.35,1.16,2-.12-1-.21-1.94-.32-2.93a7.41,7.41,0,0,0-2-.4c-.29,0-.43-.49-.08-.56a3.28,3.28,0,0,1,2,.28v-.05c-.05-.07-.09-.14-.14-.2a9,9,0,0,0-2.52-2.17.36.36,0,0,1,.36-.63c.37.17.79.4,1.23.66a4.64,4.64,0,0,0-2.57-1.53c-.27-.06-.23-.51,0-.48a6,6,0,0,1,3,1.27,11.36,11.36,0,0,0-.94-1,9.88,9.88,0,0,0-2.35-1.58c-.53-.27-.08-1,.45-.79l.49.24a.39.39,0,0,1,0-.28c-1.09-1.09-2.6-2.4-4.07-2.09a.31.31,0,0,1-.16-.59c1.46-.56,3.31.25,4.6,1.38a8.45,8.45,0,0,0-1.49-1.43,9,9,0,0,0-1.89-1.05,6,6,0,0,0-1.84-.08,3.94,3.94,0,0,1-3.05-.28.22.22,0,0,1,.16-.4,4,4,0,0,0,1.57-.1,17.94,17.94,0,0,0-3,0c-.21,0-.27-.34-.06-.37q.72-.12,1.47-.21l-.56-.09a14.39,14.39,0,0,1-4.41-1,.25.25,0,0,1,.18-.45,9.69,9.69,0,0,0,1.66.31c-.41-.18-.83-.35-1.24-.54-.28,0-.55-.09-.83-.12a15,15,0,0,1-4.22-.71c-.29-.12-.09-.6.2-.51a9.39,9.39,0,0,0,2.88.34l-.76-.42a8.93,8.93,0,0,0-2.13-.33,26.46,26.46,0,0,1-2.66.13c-.35,0-.35-.54-.1-.7a4.22,4.22,0,0,1,2.92-.42c-.35-.27-.7-.54-1-.84a12.63,12.63,0,0,1-4.07-2.27c-.24-.23.09-.69.37-.48a6.42,6.42,0,0,0,1.83.92l-.15-.16a9.55,9.55,0,0,1-4.23-3.28c-.2-.25.2-.51.42-.32l.38.32c-1-1.17-1.72-3.2-3.37-3.58a.2.2,0,0,1,.1-.39,5.06,5.06,0,0,1,3,2c.17.2.36.38.55.57-.22-.45-.44-.91-.63-1.37-.85-1.2-1.65-2.73-3-3a.24.24,0,0,1-.1-.42c-.33-.11-.67-.21-1-.3a.33.33,0,0,1,.08-.65A4,4,0,0,1,302,190.6l-.32-.65c-.34-.67-.64-1.36-.94-2a.34.34,0,0,1,.15-.45,12.62,12.62,0,0,1-2.06-4.89.34.34,0,0,1,.66-.18,11,11,0,0,0,1.55,3.3,8.57,8.57,0,0,0,.66.83c0-.47-.06-.94-.06-1.42a4.68,4.68,0,0,1-.5-1c-.27-.66-.54-1.33-.83-2s.51-1,.77-.45.4.76.61,1.13c-.07-.24-.11-.51-.16-.77-.13-.65-.26-1.29-.41-1.94a.45.45,0,0,1,.29-.53c-.05-.12-.11-.25-.16-.38-.12-.32.35-.55.56-.34a12.57,12.57,0,0,1-.5-1.18,11.87,11.87,0,0,1-.59-3.69c0-.51.73-.5.78,0a9.66,9.66,0,0,0,1.06,3.34l.22.36c.08-.25.14-.5.23-.75a7.88,7.88,0,0,1-.56-2.74.42.42,0,0,1,.83-.12,10.73,10.73,0,0,0,.35,1.23l.12-.32a4.17,4.17,0,0,1,0-1.17q0-.76,0-1.53a.39.39,0,0,1,.76-.11c.07.27.12.54.18.82.2-.38.4-.76.62-1.12a14,14,0,0,1,.66-4.28c.06-.17.37-.17.35,0a27.46,27.46,0,0,0-.14,2.85c.51-.76,1-1.52,1.63-2.24.12-.68.27-1.35.41-2,.08-.34.59-.21.53.13s-.09.6-.13.9c.23-.26.45-.53.69-.79.14-.48.27-1,.39-1.45a.23.23,0,0,1,.45.12c0,.19-.06.39-.1.59l.07-.07a24.42,24.42,0,0,1,.42-2.49.31.31,0,0,1,.6.07c0,.46,0,.93,0,1.39.4-.78.86-1.54,1.3-2.25a.25.25,0,0,1,.44.25c-.2.35-.38.72-.55,1.09.47-.37.95-.72,1.44-1.07.76-1.19,1.62-2.34,2.32-3.49.23-.36.82,0,.59.34-.37.61-.73,1.28-1.08,1.95.93-.58,1.87-1.13,2.84-1.64.47-.4.95-.78,1.4-1.14a.39.39,0,0,1,.27-.07c.68-.68,1.42-1.29,2.06-1.82.37-.3.88.12.67.48.67-.59,1.35-1.17,2-1.72.32-.26.79.19.46.46s-.66.59-1,.9l1.67-.78a16.48,16.48,0,0,1,6.31-4,.14.14,0,0,1,.14.24c-.68.59-1.39,1.14-2.08,1.7a8.27,8.27,0,0,1,5.31-.23,11.81,11.81,0,0,1,2.78.16c.3,0,.22.48-.06.5l-.94.09a9.31,9.31,0,0,1,2.19,1.76,4.39,4.39,0,0,1,2.23,1.51.61.61,0,0,1,0,.6l-.07.14a.4.4,0,0,1-.45.19l-.1,0c.09.19.17.38.25.58.17-.06.42,0,.39.25a2.22,2.22,0,0,1-.11.56c.07.22.12.43.17.65.17-.19.35-.39.51-.6.28-.39.94,0,.67.37s-.64,1-1,1.52a8.26,8.26,0,0,1-.11,1.92,4.21,4.21,0,0,0,1.25-1.41c.21-.38.89-.14.73.29a5.72,5.72,0,0,1-2.53,2.88,7.67,7.67,0,0,1-.66,1.18l.6-.16c.35-.11.48.41.15.54l-1.53.6a9.88,9.88,0,0,1-1.4,1.22l.42-.11a.39.39,0,0,1,.21.76c-.92.31-1.84.61-2.76.89-.45.14-.92.3-1.39.4l-1.1.52a9.67,9.67,0,0,0,1.94-.05.29.29,0,0,1,.15.57,17.13,17.13,0,0,1-3.56.7c-.63.1-1.27.25-1.91.38-.69.34-1.39.69-2.08,1.06a3.84,3.84,0,0,1,1.4.14.23.23,0,0,1,0,.43c-1.12.46-2.29.66-3.39,1.19-.59.29-1.19.7-1.81,1a5.42,5.42,0,0,1,.57,0,.36.36,0,0,1,.1.71,13.09,13.09,0,0,0-2.19.65c-.38.16-.81.51-1.24.69l-.06.07a2.31,2.31,0,0,1,1.32-.19c.24,0,.33.45.08.56a9.54,9.54,0,0,0-2.34,1.43c-.17.14-.33.3-.49.46a7,7,0,0,0-.53,3.82.07.07,0,0,1,0,.05,4.48,4.48,0,0,1,.85-1.9c.19-.25.49.07.4.3a5,5,0,0,0,.9,4,7.65,7.65,0,0,0,1.55,1.16,4.72,4.72,0,0,1-1-2.18.33.33,0,0,1,.61-.17,6,6,0,0,0,2.95,2.57,2.78,2.78,0,0,1-.41-.78.2.2,0,0,1,.28-.23,11.56,11.56,0,0,1,1.76,1.53c.48.41,1,.8,1.48,1.23l.9.36a13.06,13.06,0,0,1-1.13-1.76.27.27,0,0,1,.46-.27,16.2,16.2,0,0,0,4.07,3.6l.84.46a11.08,11.08,0,0,0-2.47-1.87c-.36-.2-.06-.71.3-.55a13.18,13.18,0,0,1,5.33,4.52l.44.36c-.35-.71-.71-1.41-1.06-2.13a.33.33,0,0,1,.57-.33,25.45,25.45,0,0,1,1.89,3c.25.45.54.93.76,1.42l.15.17a13.23,13.23,0,0,0-.22-1.66.31.31,0,0,1,.6-.17,22.45,22.45,0,0,1,.59,2.42,6.66,6.66,0,0,0,.25.8c.24.31.47.63.7.94a6.44,6.44,0,0,0-.14-1.23c-.09-.41.53-.59.63-.18a15.7,15.7,0,0,1,.38,2.64,25.91,25.91,0,0,1,1.38,2.3,10.61,10.61,0,0,0,.66-1.74.22.22,0,0,1,.42.1,18,18,0,0,1-.62,2.51c.1.21.18.42.28.62h0c0-.24.36-.35.45-.12a8.73,8.73,0,0,1,.39,1.05,3.74,3.74,0,0,0,.36-1.91c0-.48.68-.48.74,0a6.39,6.39,0,0,1-.7,3.61c.08.39.14.78.21,1.17,0,.13.06.25.1.38,0-.55.05-1.11,0-1.66a.25.25,0,0,1,.49,0,28.73,28.73,0,0,1,.21,4.74c.07.37.15.74.21,1.12,0,0,0,.09,0,.13.06-.66.11-1.33.13-2a.3.3,0,0,1,.6,0c0,1.59.07,3.44-.07,5.24.16-.23.51,0,.4.26a5.13,5.13,0,0,0-.06,3.72c.4,1.07,1.18,1.92,1.68,2.94a.47.47,0,0,1-.73.56,6.3,6.3,0,0,1-.78-.93,14.24,14.24,0,0,0,.75,2.17,11.32,11.32,0,0,0,3.53,4.44,11.34,11.34,0,0,1-2.14-4.11c0-.16.21-.28.28-.12a14.18,14.18,0,0,0,5.44,5.86,7,7,0,0,1-1.32-1.9.28.28,0,0,1,.49-.28,5.9,5.9,0,0,0,2.34,2.23c-.28-.23-.54-.47-.79-.72a.25.25,0,0,1,.36-.36,7.77,7.77,0,0,0,1.46,1,8.91,8.91,0,0,0,5.41-.65,5.47,5.47,0,0,1,3.51-.47.32.32,0,0,1-.07.62c-1.76.09-3.39.91-5,1.34a24.61,24.61,0,0,0,4.68-.79,13.23,13.23,0,0,0,2.32-1.16c1.29-.82,2.62-2.16,4.25-1.52a.26.26,0,0,1-.06.5,6.23,6.23,0,0,0-3.09,1.14l.39-.08c2.1-1,4.9-1.07,6.66.6.35.34-.09.83-.49.65a11.1,11.1,0,0,0-2.66-.89,8.39,8.39,0,0,1,3,2,7.51,7.51,0,0,1,4.33,4.56c.07.26-.28.51-.47.28-.78-.89-1.41-1.83-2.23-2.65a11,11,0,0,1,.8,1.78,8.71,8.71,0,0,1,1.59,3.81c.06.46-.59.47-.74.11l-.27-.71a7.45,7.45,0,0,1-1.39,4.53,11.51,11.51,0,0,0,1.58-1.11c.17-.14.43.1.25.26a15.24,15.24,0,0,1-3,2.09,8.06,8.06,0,0,1-1.75,1.06c-.52.23-1.06.44-1.59.65,1-.19,2-.47,3-.7a.2.2,0,0,1,.1.38,17,17,0,0,1-6,1.34l-.73.21a11.44,11.44,0,0,0,2.26.35.18.18,0,0,1,0,.36,15.35,15.35,0,0,1-4-.25l-1.09.25c.56.19,1.13.37,1.71.53.2.05.12.34-.08.31-1-.15-2.07-.31-3.12-.55l-.51.08a26,26,0,0,0,5.11.68c.32,0,.43.53.08.58a17.69,17.69,0,0,1-7.34-1l-.53.05a11.09,11.09,0,0,1,2.25.89.3.3,0,0,1-.22.55c-2.25-.61-4.58-.87-6.85-1.33a33.31,33.31,0,0,1-4.45-.51l1,.53a24,24,0,0,0,4.21,1.28.24.24,0,0,1-.05.46,11.34,11.34,0,0,1-4.68-.81c-1.41-.6-2.69-1.54-4.12-2a22.75,22.75,0,0,1-6.43-.59C344.72,248.56,344.75,248.11,345,248.13Z" style="fill:#ECEFF1"></path><path d="M349.76,183.18s-3.62-8.53-6.1-11.44-15.74-10.35-17.5-7.58c-2.29,3.57,4.51,9.37,8.22,11.78,0,0-5.29,8.27-1.31,13.49S349.76,183.18,349.76,183.18Z" style="fill:#ad6359"></path><path d="M325.85,165.35c.27,4.76,5.33,7.6,8.75,10.21a.38.38,0,0,1,0,.64c-2,3.62-3.73,9.29-1.8,13.19a.1.1,0,0,1-.17.11c-2.64-3.9-1.38-9.62,1.05-13.44-3.54-2.62-8.5-5.69-7.88-10.71C325.81,165.32,325.85,165.32,325.85,165.35Z" style="fill:#263238"></path><path d="M378.67,225.09l-.94-29.22a255.06,255.06,0,0,1,23.57-16c11.73-6.82,16.36-5,7.4,9.4S387.48,220,378.67,225.09Z" style="fill:#ECEFF1"></path><path d="M378.67,225.09l-.94-29.22a255.06,255.06,0,0,1,23.57-16c11.73-6.82,16.36-5,7.4,9.4S387.48,220,378.67,225.09Z" style="fill:#ECEFF1"></path><path d="M381.35,195.92c.35,4,.56,8.06.62,12.11,0,2,0,4.06,0,6.09s-.18,4.14-.25,6.21c0,.11-.16.09-.16,0,0-4.07-.12-8.15-.18-12.22s-.13-8.11-.19-12.17A.07.07,0,0,1,381.35,195.92Z" style="fill:#263238"></path><path d="M408.7,189.31c-8.95,14.39-21.22,30.72-30,35.78l-.39-12,34.92-35.73C413.93,179.15,412.61,183,408.7,189.31Z" style="opacity:0.1"></path><path d="M394.24,239.68l57.2-2.22s-16.71-46-29-58c-5.61-5.47-10.81-4.36-15.07-.49-1.07,1-14,19-14.87,25.11-.79,5.41,3.84,11.16,3.84,11.16Z" style="fill:#ECEFF1"></path><path d="M415.09,199.55a1,1,0,0,0-1.22.8c-2.4-.12-4.82-.13-7.22-.18h0a19.87,19.87,0,0,0,2.75-3.44.81.81,0,0,0,1.19-.28.91.91,0,0,0-.52-1.26.87.87,0,0,0-1.14.79.53.53,0,0,0,.23.44c-.84.87-1.7,1.73-2.56,2.57-.09-1.86-.24-3.69-.42-5.45a1.27,1.27,0,0,0,.55-.34,1.13,1.13,0,0,0-.89-1.8,1.09,1.09,0,0,0-1,.61,1.6,1.6,0,0,0-.11.91,1,1,0,0,0,.83.67c-.21,1.94-.4,4-.49,6-1.08-.91-2.17-1.78-3.29-2.63l.06-.07a.85.85,0,0,0-.51-1.27.79.79,0,0,0-.82.34.92.92,0,0,0-.1.74.59.59,0,0,0,.13.23s0,.05,0,.08a.67.67,0,0,0,1,.15c.92,1,1.86,2,2.83,2.91a34.84,34.84,0,0,0-6.54.3l0-.12a1.16,1.16,0,0,0-1.89-.47,1.12,1.12,0,0,0,.42,1.86l.13,0,.07,0a1,1,0,0,0,1.26-.79,33,33,0,0,0,6.36.32,17.59,17.59,0,0,0-3.12,3.28.88.88,0,0,0-1.25.8.68.68,0,0,0,.23.47.89.89,0,0,0,.29.32.75.75,0,0,0,1-.07,1,1,0,0,0,.19-1A34.26,34.26,0,0,0,405,201.8a40.53,40.53,0,0,0,.29,5.33,1,1,0,0,0-.38.49.94.94,0,0,0-.23.87,1.27,1.27,0,1,0,2-1.32,1.15,1.15,0,0,0-.33-.17,37.51,37.51,0,0,0,.31-4.78c1,.92,2.09,1.8,3.18,2.65a.76.76,0,0,0,.14.89c.57.61,1.5,0,1.49-.73a.86.86,0,0,0-.64-.81.72.72,0,0,0-.67.19q-1.59-1.68-3.31-3.22c2.32,0,4.65-.06,7-.17l0,.13a1,1,0,0,0,1.8.22A1.26,1.26,0,0,0,415.09,199.55Z" style="fill:#fff"></path><path d="M423.71,212.86a.65.65,0,0,0-.56.82c-1.54.55-3.06,1.18-4.58,1.78h0a13.24,13.24,0,0,0,.82-2.89.54.54,0,0,0,.67-.48.61.61,0,0,0-.65-.66.6.6,0,0,0-.51.8.37.37,0,0,0,.26.21c-.3.77-.61,1.53-.93,2.29-.54-1.14-1.12-2.26-1.7-3.31a.83.83,0,0,0,.26-.36c.22-.59-.5-1.12-1-.9a.76.76,0,0,0-.48.65,1.11,1.11,0,0,0,0,.17.59.59,0,0,0,.16.43.68.68,0,0,0,.69.2c.38,1.28.8,2.61,1.28,3.93-.91-.29-1.83-.55-2.75-.79,0,0,0,0,0-.06A.58.58,0,0,0,414,214a.52.52,0,0,0-.42.42.64.64,0,0,0,.13.5.45.45,0,0,0,.14.1l.05,0a.46.46,0,0,0,.67-.17c.84.38,1.68.74,2.54,1.08a23.21,23.21,0,0,0-4,1.91.18.18,0,0,0-.05-.07.78.78,0,0,0-1.3.2.75.75,0,0,0,.74,1h.15a.71.71,0,0,0,.58-.83,22.8,22.8,0,0,0,4.08-1.46,11.41,11.41,0,0,0-1.1,2.87.61.61,0,0,0-.58.84.51.51,0,0,0,.27.23.55.55,0,0,0,.27.12.5.5,0,0,0,.61-.3.7.7,0,0,0-.14-.69,21.68,21.68,0,0,0,1.31-3,27.31,27.31,0,0,0,1.58,3.26.77.77,0,0,0-.11.41.64.64,0,0,0,.09.61.86.86,0,1,0,.9-1.35.69.69,0,0,0-.25,0,26.8,26.8,0,0,0-1.05-3.09c.88.31,1.78.59,2.68.84a.55.55,0,0,0,.33.52c.52.23.94-.39.74-.85a.56.56,0,0,0-.61-.34.46.46,0,0,0-.37.29c-1-.42-1.93-.8-2.92-1.15,1.44-.63,2.9-1.25,4.32-1.93l0,.07a.68.68,0,0,0,1.19-.33A.86.86,0,0,0,423.71,212.86Z" style="fill:#fff"></path><path d="M403.15,223.53a.4.4,0,0,0,.34.51c-.05,1-.06,2-.08,3.05h0a9,9,0,0,0-1.45-1.16.35.35,0,0,0-.12-.5.38.38,0,0,0-.53.22.36.36,0,0,0,.33.48.23.23,0,0,0,.19-.09q.56.53,1.08,1.08c-.78,0-1.56.1-2.3.17a.55.55,0,0,0-.14-.23.48.48,0,0,0-.76.38.46.46,0,0,0,.25.42l.1,0a.41.41,0,0,0,.29,0,.42.42,0,0,0,.28-.35c.82.09,1.69.17,2.56.21-.39.45-.75.91-1.11,1.38l0,0a.36.36,0,0,0-.54.21.34.34,0,0,0,.14.35.39.39,0,0,0,.32,0l.09,0,0,0a.28.28,0,0,0,.06-.42q.63-.59,1.23-1.2a14.15,14.15,0,0,0,.13,2.76h-.06a.49.49,0,0,0-.19.8.47.47,0,0,0,.78-.18.07.07,0,0,0,0-.05l0,0a.44.44,0,0,0-.34-.53,14.28,14.28,0,0,0,.14-2.69,7.48,7.48,0,0,0,1.38,1.32.38.38,0,0,0,.34.53.3.3,0,0,0,.2-.1.53.53,0,0,0,.14-.12.33.33,0,0,0,0-.43.45.45,0,0,0-.43-.08,13.56,13.56,0,0,0-1.38-1.46,16.61,16.61,0,0,0,2.25-.12.42.42,0,0,0,.21.16.4.4,0,0,0,.37.09.55.55,0,0,0,.3-.84.56.56,0,0,0-.86,0,.37.37,0,0,0-.07.14,15,15,0,0,0-2-.13c.39-.44.76-.88,1.12-1.34a.34.34,0,0,0,.38-.06c.25-.24,0-.63-.31-.63a.34.34,0,0,0-.34.27.29.29,0,0,0,.07.28c-.47.45-.92.91-1.35,1.4,0-1,0-2-.08-2.94h.06a.42.42,0,0,0,.09-.76A.53.53,0,0,0,403.15,223.53Z" style="fill:#fff"></path><path d="M442.81,224.68a.4.4,0,0,0-.18.59c-.81.61-1.6,1.26-2.4,1.89h0a7.72,7.72,0,0,0,0-1.86.35.35,0,0,0,.32-.41.39.39,0,0,0-.51-.28.38.38,0,0,0-.16.57.24.24,0,0,0,.19.08c0,.51-.08,1-.14,1.53-.52-.58-1.07-1.14-1.6-1.66a.62.62,0,0,0,.09-.26.48.48,0,0,0-.78-.35.46.46,0,0,0-.16.47.3.3,0,0,0,0,.1.38.38,0,0,0,.17.23.43.43,0,0,0,.45,0c.45.69.94,1.41,1.47,2.1-.59,0-1.19,0-1.78,0v0a.36.36,0,0,0-.51-.27.32.32,0,0,0-.17.33.4.4,0,0,0,.17.27.17.17,0,0,0,.1,0l0,0a.28.28,0,0,0,.37-.22c.57.07,1.14.14,1.71.18a14.47,14.47,0,0,0-2.05,1.86l0,0a.49.49,0,0,0-.74.36.47.47,0,0,0,.64.49l.05,0h0a.44.44,0,0,0,.2-.59,14.69,14.69,0,0,0,2.15-1.61,7.23,7.23,0,0,0-.13,1.91.36.36,0,0,0-.19.59.25.25,0,0,0,.2.09.36.36,0,0,0,.18,0,.33.33,0,0,0,.31-.3.42.42,0,0,0-.21-.37,13.32,13.32,0,0,0,.24-2,18.8,18.8,0,0,0,1.53,1.66.46.46,0,0,0,0,.26.41.41,0,0,0,.16.34.53.53,0,1,0,.3-1,.41.41,0,0,0-.16,0,16.52,16.52,0,0,0-1.18-1.64c.58,0,1.16,0,1.74,0a.34.34,0,0,0,.29.25c.35,0,.49-.4.29-.64a.37.37,0,0,0-.43-.09.35.35,0,0,0-.17.24c-.64-.08-1.29-.13-1.94-.15.75-.64,1.5-1.27,2.22-1.93l0,0a.43.43,0,0,0,.65-.41A.54.54,0,0,0,442.81,224.68Z" style="fill:#fff"></path><path d="M427.37,191.9c2.42,21.57,5.91,39.73.3,47.15-8.4,11.12-35.8,25.44-43.75,26.19-3.42.32-10.2-25.55-6.76-26.87,4.13-1.59,31.62-13.59,32.76-15.53,2-3.33,2.68-11.37,8.11-31.51C422.23,175.71,426.43,183.6,427.37,191.9Z" style="fill:#ad6359"></path><path d="M387.28,238s-5.54-2.93-11.21-6.8c-3.16-2.15-8.91-5.37-12-5.89-4.56-.78-24.12-1.13-24.3,3.61-.17,4.29,16.67,2.46,16.67,2.46s-17.16.35-16.41,5.55,19.5.61,19.5.61-17.63.75-16,6c1.23,4,18.45.76,18.45.76s-15.15.75-14.06,4.88c1.19,4.56,17.27,2.6,17.27,2.6,4.52,10,13.33,15.17,20.51,13.29C386.89,264.73,387.28,238,387.28,238Z" style="fill:#ad6359"></path><path d="M362.41,230.85c-2,0-4.06-.08-6.08.07s-4,.36-6,.7a34.88,34.88,0,0,0-7.62,2c4.48-1.39,11.68-2,13.69-2.18s4-.4,6-.54A0,0,0,0,0,362.41,230.85Z" style="fill:#263238"></path><path d="M363.07,238.11c-2.58.07-5.14,0-7.71.23s-5,.58-7.53.94c-.19,0-.11.12.09.1,2.55-.25,4.93-.29,7.49-.52s5.11-.56,7.67-.69C363.12,238.17,363.11,238.11,363.07,238.11Z" style="fill:#263238"></path><path d="M364.76,244.24A57.6,57.6,0,0,0,353,245.49c-.19,0-.08.15.12.12,3.91-.49,7-.9,11.65-1.24C364.83,244.37,364.84,244.24,364.76,244.24Z" style="fill:#263238"></path><path d="M430.33,239.81l-20.31-21a256,256,0,0,1,6.76-27.65c4.1-12.93,8.77-14.68,11.79,2S433.46,230.14,430.33,239.81Z" style="fill:#ECEFF1"></path><path d="M413.63,198.88a14.36,14.36,0,0,1-.09,2.62c0,.3-.05.59-.08.89.42-1.53.84-3,1.28-4.57,0-.1.19-.08.17,0-.81,3.52-4.65,20-4.87,20.83.07,0,1.06,1.18,1.11,1.2s-.09.15-.11.1-1.53-1.36-1.53-1.37c0-.83,3.17-13.32,3.57-14.82a1.92,1.92,0,0,1,0-.24c0-.23,0-.46,0-.7,0-.43.06-.86.1-1.29a16.93,16.93,0,0,1,.32-2.67C413.55,198.82,413.63,198.82,413.63,198.88Z" style="fill:#263238"></path><path d="M411.71,216.2a28.49,28.49,0,0,1,2.52,2.14c.83.73,1.67,1.44,2.49,2.18,1.58,1.42,3.11,2.89,4.64,4.37a126.47,126.47,0,0,1,8.8,9.28c0,.07-.06.16-.12.1-3.16-3-6.18-6.05-9.27-9.08l-4.57-4.45c-.76-.74-1.5-1.5-2.27-2.24s-1.62-1.43-2.3-2.23C411.59,216.22,411.66,216.17,411.71,216.2Z" style="fill:#263238"></path><path d="M428.44,237.86l2,1.88-.17,0a64.83,64.83,0,0,0,1.28-10,84.75,84.75,0,0,0-.08-10.08c-.16-3.37-.46-6.72-.74-10.09s-.65-6.71-1-10.07c.68,3.32,1.17,6.66,1.58,10s.71,6.72.93,10.1a74.89,74.89,0,0,1,0,10.16,53.75,53.75,0,0,1-1.72,10l-.05.17-.12-.13Z" style="fill:#263238"></path><path d="M431.29,203.48a10.83,10.83,0,0,1,.14,2.72,9.13,9.13,0,0,1-.54,2.67,24.22,24.22,0,0,1,0-2.7A17.72,17.72,0,0,1,431.29,203.48Z" style="fill:#263238"></path><path d="M417.5,178.2c-.18,1-4.61,7.81-9.21,7.86-1.5,0-1.93-8.17-1.93-8.17l-.17-.6-2.37-8.35L413.4,162l1.39-.93s.5,2.33,1.09,5.24c0,.13.05.27.08.41s.08.32.11.47c.09.43.18.88.27,1.32s.13.66.18,1,.13.7.19,1.06A55.7,55.7,0,0,1,417.5,178.2Z" style="fill:#ad6359"></path><path d="M415.88,166.31a17.42,17.42,0,0,1-9.69,11l-2.37-8.35L413.4,162l1.39-.93S415.29,163.4,415.88,166.31Z" style="fill:#263238"></path><path d="M391.62,154.25c-3.26,14.89,5.29,18.52,8.5,19.22,2.91.63,12.92,2.42,17.7-12.05s-1.11-20.69-7.7-22.5S394.88,139.36,391.62,154.25Z" style="fill:#ad6359"></path><path d="M394.28,152.14c.36,0,.69,0,1.05,0a1.71,1.71,0,0,0,1.07-.22.54.54,0,0,0,.13-.65,1.34,1.34,0,0,0-1.24-.56,2,2,0,0,0-1.35.44A.59.59,0,0,0,394.28,152.14Z" style="fill:#263238"></path><path d="M404.54,154.11a9.08,9.08,0,0,1-1-.41,1.68,1.68,0,0,1-.91-.61.55.55,0,0,1,.13-.65,1.35,1.35,0,0,1,1.36-.05,2,2,0,0,1,1.09.92A.58.58,0,0,1,404.54,154.11Z" style="fill:#263238"></path><path d="M401.45,157.32s.07.07.06.11c-.25,1-.38,2.2.47,2.74,0,0,0,.06,0,.05C400.87,159.82,401.05,158.23,401.45,157.32Z" style="fill:#263238"></path><path d="M402.59,156.46c1.66.24,1.07,3.53-.47,3.32S401.2,156.26,402.59,156.46Z" style="fill:#263238"></path><path d="M403.21,156.75c.25.24.47.62.82.72s.76-.18,1.08-.47c0,0,.05,0,.05.05-.11.63-.47,1.24-1.16,1.21s-1-.66-1-1.33C403,156.81,403.1,156.66,403.21,156.75Z" style="fill:#263238"></path><path d="M395.81,156.08s-.08,0-.09.08c-.14,1-.48,2.18-1.46,2.36,0,0,0,.06,0,.06C395.41,158.62,395.84,157.08,395.81,156.08Z" style="fill:#263238"></path><path d="M395.08,154.86c-1.62-.41-2.32,2.87-.81,3.25S396.44,155.2,395.08,154.86Z" style="fill:#263238"></path><path d="M394.35,154.93c-.29.12-.61.38-.93.33s-.55-.46-.71-.85c0,0,0,0-.06,0-.15.62-.08,1.32.5,1.56s1-.22,1.32-.81C394.52,155.08,394.47,154.88,394.35,154.93Z" style="fill:#263238"></path><path d="M400.06,165.73c-.28.2-.57.5-.94.48a2.63,2.63,0,0,1-1.07-.4,0,0,0,0,0-.06,0,1.4,1.4,0,0,0,1.24.74,1.11,1.11,0,0,0,.93-.8A.06.06,0,0,0,400.06,165.73Z" style="fill:#263238"></path><path d="M396.51,161.22s-.5,1.49-.64,2.2c0,.07.15.14.39.2h0a3.47,3.47,0,0,0,3.56-.64c.07-.06,0-.15-.09-.12a5.15,5.15,0,0,1-3.28.3c0-.21.94-2.51.83-2.54a6.18,6.18,0,0,0-1.7.06c1-3.12,2.4-6.06,3.31-9.18a.1.1,0,0,0-.18-.08,54,54,0,0,0-4,9.73C394.62,161.55,396.2,161.29,396.51,161.22Z" style="fill:#263238"></path><path d="M416.35,161.69c-2.43-.3-2-5.44-2-5.44s-4.88-1-5.07-8.31a11,11,0,0,0,1,6.24s-8.41-2.65-10.58-10.57c0,0,.71,3.95,1.8,5.53a10.22,10.22,0,0,1-4.57-5s-2.35,3.85-3.74,4.77c0,0,3.39-15,17-10.57,0,0,8.61,2.34,10.36,9.88S416.35,161.69,416.35,161.69Z" style="fill:#263238"></path><path d="M416.65,166.92a3.3,3.3,0,0,1-.73.09,2.27,2.27,0,0,1-.71-.08,2.11,2.11,0,0,1-.84-.39,2.5,2.5,0,0,1-.51-.52,2.75,2.75,0,0,1-.46-.92l1.36-3.93s3.91-4.29,5.89-2.83S419.28,166.31,416.65,166.92Z" style="fill:#ad6359"></path><path d="M419.65,160.18s0,.06,0,.07c-1.85.48-3,2-3.86,3.61a1.42,1.42,0,0,1,2.16-.11s0,.1-.06.08a1.57,1.57,0,0,0-1.8.33,7.47,7.47,0,0,0-1,1.29c-.11.15-.38,0-.3-.15l0,0C415.05,163,417.21,160.09,419.65,160.18Z" style="fill:#263238"></path><path d="M416.52,166.25a.71.71,0,1,1-.44-.89A.71.71,0,0,1,416.52,166.25Z" style="fill:#fff"></path><path d="M418.09,165.38a.5.5,0,0,1-.63.32.51.51,0,0,1-.31-.64.5.5,0,0,1,.94.32Z" style="fill:#fff"></path><path d="M432.14,168c.95,1.36,1.86,4.33-1.53,6.71s-5.79-.37-6.45-1.3-2.15-4.06,1.51-6.6A4.55,4.55,0,0,1,432.14,168Z" style="fill:#fff"></path><path d="M432.14,168a4.68,4.68,0,0,1,.81,3.59,5.32,5.32,0,0,1-2.1,3.09,4.6,4.6,0,0,1-3.63,1.09,5.49,5.49,0,0,1-3.2-2.13,4.92,4.92,0,0,1-.82-3.77,5.14,5.14,0,0,1,2.26-3,4.6,4.6,0,0,1,3.61-.87A5.18,5.18,0,0,1,432.14,168Zm0,0a5.07,5.07,0,0,0-3.08-2,4.36,4.36,0,0,0-3.45,1,4.87,4.87,0,0,0-2,2.94,4.52,4.52,0,0,0,.8,3.38,5.05,5.05,0,0,0,2.88,2,4.31,4.31,0,0,0,3.4-.87,5.05,5.05,0,0,0,2.18-2.91A4.63,4.63,0,0,0,432.14,168Z" style="fill:#263238"></path><path d="M430.17,168.1s-2.88.8-3.18-1.1c0,0,.64-8.07,1-11,.18-1.57-1.68-5.16-1.68-5.16,0,.61,0,1.38-.28,1.57-.46.3-24-15.11-24.13-15.26,0,0,9.4-7.37,13.8-6.3,5.35,1.29,12,3.92,13.38,5.52s4.12,12.48,3.69,18.15A98.14,98.14,0,0,1,430.17,168.1Z" style="fill:#ECEFF1"></path><path d="M426.28,150.86a3.48,3.48,0,0,0-.33-1.05l-.45-1a16.22,16.22,0,0,1-.82-2.09,6.51,6.51,0,0,1,1.28,1.89,5.16,5.16,0,0,1,.36,1.09A1.84,1.84,0,0,1,426.28,150.86Z" style="fill:#263238"></path><path d="M426.31,150.65a3.36,3.36,0,0,1-1.2-.63,3.15,3.15,0,0,1-.87-1,3.24,3.24,0,0,1,1.19.63A3.33,3.33,0,0,1,426.31,150.65Z" style="fill:#263238"></path><path d="M425.2,160.29c-2-2-9.12-6.38-13.93-9.38-6.8-4.24-12.15-7.55-15.45-7.93-1.52-.17,4-5.79,6.05-5.81,1,0,7.17,1.61,12.87,5.29,4.18,2.69,11.2,9,11.44,9.69C426.7,153.69,426,161.07,425.2,160.29Z" style="fill:#fff"></path><path d="M425.2,160.29a34.13,34.13,0,0,0-4-3c-1.4-.94-2.82-1.85-4.24-2.75-2.86-1.8-5.74-3.54-8.62-5.29a87.36,87.36,0,0,0-8.84-4.86,20,20,0,0,0-2.34-.87,10.24,10.24,0,0,0-1.2-.25.83.83,0,0,1-.42-.13.55.55,0,0,1-.16-.51,2,2,0,0,1,.28-.66,15.57,15.57,0,0,1,3.56-3.68,7.39,7.39,0,0,1,2.29-1.26,2.87,2.87,0,0,1,1.35.09c.42.09.83.2,1.24.31a39.43,39.43,0,0,1,4.78,1.73,38.64,38.64,0,0,1,8.7,5.18,96.61,96.61,0,0,1,7.63,6.65c.3.3.6.6.87.93a1,1,0,0,1,.25.58c0,.21,0,.42.07.63a21.33,21.33,0,0,1,0,2.53q-.07,1.26-.27,2.52c-.06.41-.14.83-.24,1.24a4.62,4.62,0,0,1-.19.6.92.92,0,0,1-.16.27A.16.16,0,0,1,425.2,160.29Zm0,0a.16.16,0,0,0,.26,0,1,1,0,0,0,.15-.27,4.31,4.31,0,0,0,.19-.61c.1-.4.17-.82.24-1.24.12-.83.2-1.67.25-2.51a21.21,21.21,0,0,0,0-2.52c0-.21,0-.42-.08-.63a1,1,0,0,0-.24-.56,12.33,12.33,0,0,0-.86-.91,88.6,88.6,0,0,0-7.73-6.5,38.32,38.32,0,0,0-8.72-5,38.71,38.71,0,0,0-4.74-1.68c-.4-.11-.81-.21-1.21-.3a2.72,2.72,0,0,0-1.15-.08,6.91,6.91,0,0,0-2.1,1.19,15.86,15.86,0,0,0-3.46,3.53,1.49,1.49,0,0,0-.22.49c0,.08,0,.09,0,.08l.19,0a10.44,10.44,0,0,1,1.26.27,19,19,0,0,1,2.39.91,84.85,84.85,0,0,1,8.8,5l8.53,5.44c1.42.91,2.83,1.83,4.22,2.78A35.28,35.28,0,0,1,425.2,160.29Z" style="fill:#263238"></path><polygon points="338.2 201.21 341.52 200.59 342.26 197.1 343 200.59 346.31 201.21 343.01 202.01 342.26 205.31 341.5 202.01 338.2 201.21" style="fill:#fff"></polygon><polygon points="305.03 174.19 306.88 173.85 307.29 171.9 307.71 173.85 309.56 174.19 307.71 174.64 307.29 176.49 306.87 174.64 305.03 174.19" style="fill:#fff"></polygon><polygon points="337.53 163.94 339.38 163.6 339.8 161.65 340.21 163.6 342.07 163.95 340.22 164.4 339.8 166.24 339.38 164.4 337.53 163.94" style="fill:#fff"></polygon><polygon points="327.76 209.77 329.61 209.43 330.03 207.48 330.44 209.43 332.29 209.77 330.45 210.22 330.03 212.07 329.6 210.22 327.76 209.77" style="fill:#fff"></polygon><path d="M323.26,162.92a.54.54,0,0,0,0-1.07A.54.54,0,0,0,323.26,162.92Z" style="fill:#fff"></path><path d="M318.59,205.86a.54.54,0,0,0,0-1.08A.54.54,0,0,0,318.59,205.86Z" style="fill:#fff"></path><path d="M344.92,221.17a.38.38,0,0,0,0-.76A.38.38,0,0,0,344.92,221.17Z" style="fill:#fff"></path><path d="M330.43,194.81a.38.38,0,0,0,0-.76A.38.38,0,0,0,330.43,194.81Z" style="fill:#fff"></path><path d="M339.2,241.87a1,1,0,0,0,0-2.06A1,1,0,0,0,339.2,241.87Z" style="fill:#fff"></path><path d="M334.5,198.13a1,1,0,0,0,0-2.06A1,1,0,0,0,334.5,198.13Z" style="fill:#fff"></path></g><g id="freepik--christmas-tree--inject-659"><path d="M265,472.31H235l2.63-80v-.16l.23-6.93v-.39l.31-9.33s0,0,0-.05v-.36l.21-6.26v-.24l.22-6.94.45-13.73h21.77Z" style="fill:#ECEFF1"></path><path d="M265,472.31H235l2.63-80v-.16l.23-6.93v-.39l.31-9.33s0,0,0-.05v-.36l.21-6.26v-.24l.22-6.94.45-13.73h21.77Z" style="opacity:0.5"></path><g style="opacity:0.2"><path d="M244.72,366.18c-6.49,17.31-.56,36-.18,53.92a.07.07,0,1,0,.14,0c-.16-17.85-5.24-36.42.54-53.66C245.33,366.1,244.85,365.84,244.72,366.18Z" style="mix-blend-mode:multiply"></path><path d="M246.62,359.22c0-.06-.12,0-.09.06,5.54,11.31,2.21,27.82,1.43,40.19-.91,14.41-2,28.82-2.69,43.25,0,.46.53.44.57,0,1.3-15.61,2.26-31.29,3.34-46.93C250,383.76,252.36,369.9,246.62,359.22Z" style="mix-blend-mode:multiply"></path><path d="M247.64,378.46c0-.21-.25-.21-.26,0-.16,2.59-.33,5.18-.69,7.75-.49,3.47-.57,5.12-.87-.11s.51-10.1,1.35-15.16c0-.13-.15-.24-.2-.1-2.25,6.31-2.33,13.76-1.23,20.45a.3.3,0,0,0,.6,0A53.55,53.55,0,0,0,247.64,378.46Z" style="mix-blend-mode:multiply"></path><path d="M252.6,422.26c.34-8.28.62-16.45-.59-24.64a.14.14,0,1,0-.27,0c.7,9,.24,18.11-.1,27.16-.31,8.35-.68,17.24,1.27,25.34.1.44.58.25.53-.18A174.47,174.47,0,0,1,252.6,422.26Z" style="mix-blend-mode:multiply"></path><path d="M249.68,472a.3.3,0,0,1-.19.36h-.11a.28.28,0,0,1-.14-.21c-3.39-14.5-1-30.43-.58-45.25,0-.11.13-.1.14,0C249.71,442,247.31,456.86,249.68,472Z" style="mix-blend-mode:multiply"></path><path d="M254.56,472.31h-.91a108.42,108.42,0,0,0-1.42-15c0-.08.08-.12.1,0A56.82,56.82,0,0,1,254.56,472.31Z" style="mix-blend-mode:multiply"></path><path d="M241.25,472.31h-.86c-1.35-16.46.79-32.65,2.63-49,0-.2.27-.15.27,0-.09,8.82-1.64,17.47-2.15,26.23A218.11,218.11,0,0,0,241.25,472.31Z" style="mix-blend-mode:multiply"></path><path d="M245,472.31h-1.06c.16-7.86.06-15.63-.37-23.59,0-.16.19-.21.21-.05A129.42,129.42,0,0,1,245,472.31Z" style="mix-blend-mode:multiply"></path><path d="M256.25,390.62c-1-11-1.49-21.32.22-32.3,0-.2-.2-.28-.24-.08a105.08,105.08,0,0,0-1,29.85c1.05,11,.25,21.61.17,32.6,0,.26.35.34.38.06A152.44,152.44,0,0,0,256.25,390.62Z" style="mix-blend-mode:multiply"></path><path d="M253.16,392.6c0,.4-.45.39-.48,0-1.39-15,1.29-29.79-.87-44.69h.63C255.52,362.35,252.07,377.9,253.16,392.6Z" style="mix-blend-mode:multiply"></path><path d="M258.51,430.85c0-.18-.27-.13-.26,0,.24,4.69.34,9.3-.84,13.81-1.42-5.6-2.06-14.61.91-19.5.08-.13-.09-.27-.17-.17-3.71,4.61-3.1,14.83-1,20.25a.16.16,0,0,0,.1.11.28.28,0,0,0,.55,0A35.73,35.73,0,0,0,258.51,430.85Z" style="mix-blend-mode:multiply"></path><path d="M261.21,440.76c-.52,10.66-2.59,20.89-1.72,31.55h-.62c-1.12-9.59.75-19.29,1.42-28.84.78-11.13-.13-22.52-1-33.59,0-.1.12-.12.13,0C260.61,420.16,261.71,430.32,261.21,440.76Z" style="mix-blend-mode:multiply"></path><path d="M257.1,472.31h-.73c0-1.47,0-2.92,0-4.38-.06-6.1-.33-12.27.06-18.37,0-.14.16-.14.17,0,.51,6.08.38,12.26.44,18.37C257,469.39,257.06,470.84,257.1,472.31Z" style="mix-blend-mode:multiply"></path><path d="M264.4,472.31h-1c-.42-6.73-1.11-13.43-.41-20.13,0-.09.14-.1.14,0C262.66,458.83,264,465.6,264.4,472.31Z" style="mix-blend-mode:multiply"></path><path d="M240.14,409.61c0-.23-.31-.23-.3,0,.79,18.49-4.14,36.63-3.22,55.08,0,.23.29.24.29,0C237.52,446.27,241.22,428.08,240.14,409.61Z" style="mix-blend-mode:multiply"></path><path d="M237.87,384.85a91.46,91.46,0,0,0,2.4,17.25c0,.12-.12.21-.16.09a51.18,51.18,0,0,1-2.48-10Z" style="mix-blend-mode:multiply"></path><path d="M238.6,372.19c-.17,1.09-.31,2.19-.42,3.27l.22-6.64v0c1.19-6.93,2.78-13.73,3.18-20.89h.59C242.09,356.17,239.84,364.13,238.6,372.19Z" style="mix-blend-mode:multiply"></path><path d="M250.48,362.86c0,.18-.2.17-.22,0-.48-4.64-.67-10-1.55-14.95h.51A90.6,90.6,0,0,1,250.48,362.86Z" style="mix-blend-mode:multiply"></path><path d="M243.94,361.33c0,.2-.27.12-.24-.08a76.83,76.83,0,0,0,.79-13.34h.61A61.13,61.13,0,0,1,243.94,361.33Z" style="mix-blend-mode:multiply"></path><path d="M259.94,398.78a.14.14,0,0,1-.27,0c.93-10.09-.69-19.89-.8-29.95-.07-7,.36-13.93.3-20.89h.52c.21,6.65-.13,13.31-.12,20C259.59,378.19,261.24,388.58,259.94,398.78Z" style="mix-blend-mode:multiply"></path></g><path d="M124.28,368.93c-.1,0,0,0,.11-.07Z" style="fill:#455a64"></path><path d="M338.27,364.59C346.78,383.37,355,389,363.79,398c1.09,1.12-32.62-9.05-40.86-21.67,2.46,16.77,5.65,33.42,9.68,50,.31,1.26-34.74-24.2-45.21-41.22a270.07,270.07,0,0,0,.61,59c.18,1.55-22.58-34.77-32.28-52.53C251.84,412.74,248,434,244,455.22c-.23,1.33-20.88-50.32-24-60.68-7.37,16.68-30.05,48.26-30,47,.25-17.48.81-34.93,1.31-52.38-9.09,15.33-36.21,40.16-35.74,39.34a108.47,108.47,0,0,0,14.83-50.79c-12.12,14.83-47.67,34.47-47,33.67a155,155,0,0,0,35.53-62.58c-8.8,10.13-36.09,20.62-34.65,20.15.78-.26,18.63-17.3,24.06-25.84a278.67,278.67,0,0,0,16.94-30.63c9.4-19.86,16.07-40.59,21.36-61.61.14-.51,114.74-.41,114.87.76,2.28,21.46,15.22,54.95,25.67,74.49,11.43,21.33,19.7,39.27,49.38,51.39C378,378.07,349.58,372.05,338.27,364.59Z" style="fill:#455a64"></path><path d="M124.28,368.93c-.1,0,0,0,.11-.07Z" style="fill:#455a64"></path><path d="M298.5,301.39a397.06,397.06,0,0,0,9.37,50.48c.29,1.06-28.39-22.37-35.62-37.76A366.7,366.7,0,0,0,276.06,371c.23,1.57-24.92-33.45-33.43-51.74q-7.69,24.29-15.41,48.58c-.34,1.06-6.37-33.88-7-50.85-6.2,16.51-17,31.12-31.33,43.07-1,.81,6.33-36.83,5.61-55.15-9.81,17.12-43.88,42.16-43.19,41.21,14.84-20.49,28-40.94,28.1-65.32a25.65,25.65,0,0,1-2.82,3.83c3.89-11.12,7.16-22.43,10-33.82.14-.5,114.75-.4,114.87.77,2.28,21.47,15.21,54.95,25.66,74.49,1,1.92,2,3.82,3,5.69C320.76,324.46,305,311.15,298.5,301.39Z" style="fill:#37474f"></path><path d="M309.44,283.7q10.77,19.6,21.5,39.21c.59,1.08-27.19-19.55-36.16-33a367.06,367.06,0,0,0,8.65,46.49c.25,1-26.16-20.6-32.83-34.78a338.58,338.58,0,0,0,3.52,52.43c.21,1.44-23-30.81-30.79-47.66l-14.19,44.75c-.32,1-5.87-31.2-6.44-46.84C217,319.56,207,333,193.85,344c-.9.74,5.83-33.93,5.17-50.8-9,15.76-40.41,38.83-39.79,37.95,13.68-18.87,25.78-37.7,25.89-60.15-7.55,12.81-39,27.48-38.25,26.75,8.88-8.91,17.78-17.88,25-27.94,7.09-9.91,12.15-20.79,16.92-31.71,9.36-21.48,19-43.55,23.14-66.41-.61-.57,58.16-1.08,62-.1,2.56.66,28.95,108.24,79.23,134.71C354.34,307,323,294.42,309.44,283.7Z" style="fill:#455a64"></path><path d="M298.63,252.63c.33,1-26.3-19.27-32.92-33,1.28,25,2.08,32.07,8.58,56.48.37,1.4-25.09-28.53-33.73-53.61-5.62,17.13-31.21,48.85-30.78,47.45,5.42-17.82,9.59-36.78,8.2-55.14-4.84,10-18.86,20.14-31,27.48.61-1.37,1.22-2.74,1.81-4.11,3.21-7.34,6.43-14.74,9.45-22.21a0,0,0,0,1,0,0A82.25,82.25,0,0,0,203,203.36a.13.13,0,0,0,0-.05,199.27,199.27,0,0,0,8.84-31.59c-.62-.57,58.16-1.08,62-.1,1.11.28,6.77,20.93,17,46.3a41.75,41.75,0,0,1-4.79-4.4Q292.34,233.05,298.63,252.63Z" style="fill:#37474f"></path><path d="M330,233.48c1,.81-34.74-12.76-46.51-25.7q5.89,18.3,11.79,36.64c.3.94-24.63-18.06-30.83-30.94,1.19,23.43-.35,27.76,5.73,50.61.35,1.31-21.2-24.44-29.29-47.94-5.27,16-27.26,45.11-26.86,43.81a138.24,138.24,0,0,0,5.71-51c-8.7,17.91-49.1,36.59-48.17,35.73,19.54-18.45,29.84-27.54,35.83-52.5-11.23,15.88-46.86,22.52-45.55,21.9,25.9-12.2,45.07-36.73,58.85-59.47,6.71-11.07,12.95-22.75,18.84-34.11.5-1,2.85-8.24,6.1-9.62,3.79-1.61,6.28-1,8.22,2.83C256.53,118.88,285.21,195.64,330,233.48Z" style="fill:#455a64"></path><path d="M298,191.17a11.12,11.12,0,0,0-2-2.45c.92.48,1.66,1.21,2.59,1.68.19.09.36-.14.29-.31-1.09-2.36-3.38-2.87-5.65-2.73l-.27,0c-1.13,0,0,0-4.42.22l2.36-1c.37-.17.11-.71-.27-.57-1.74.64-3.51,1.16-5.29,1.63-1.11,0-2.22,0-3.33-.08a13.78,13.78,0,0,0,2.52-1.19c.19-.12,0-.44-.16-.33a14.52,14.52,0,0,1-5,1.38c-1.64-.11-3.28-.24-4.9-.42l-.52-.06c1-.17,2-.37,2.93-.58a.18.18,0,0,0-.06-.36c-2.31.23-4.62.33-6.93.43l-.42-.06c1.53-.45,3-1,4.45-1.5.21-.07.1-.42-.12-.38-2.58.54-5,1.1-7.47,1.38-2-.34-3.94-.73-5.88-1.22,1.25.23,2.51.44,3.76.61.37,0,.52-.53.16-.64a39.68,39.68,0,0,0-9.15-1.51c-1.3-.44-2.59-.91-3.88-1.45a18.49,18.49,0,0,0,5.84.77c.45,0,.4-.72,0-.77a57.15,57.15,0,0,1-6.24-.94,31.27,31.27,0,0,0-10-4.7,37.81,37.81,0,0,1-4.69-3.85c1.34.77,2.76,1.43,4,2.14.35.19.79-.2.5-.54-1.76-2.06-4.67-2.49-6.77-4.07a27.16,27.16,0,0,1-1.73-2.41,18.17,18.17,0,0,1-1.52-3.06,15.61,15.61,0,0,0,2.4,3.28c.3.32,1,0,.69-.44a78.65,78.65,0,0,1-4.4-7.48c0-.09,0-.18,0-.26a12.32,12.32,0,0,0,2.19,3c.28.27.89,0,.64-.41a40.82,40.82,0,0,1-3.3-6.09c-.06-.64-.11-1.29-.14-1.94a7.76,7.76,0,0,0,.66,1.36c.16.25.67.18.56-.17a31.54,31.54,0,0,1-1-4.48c.24.08.56,0,.55-.33,0-2.15-.34-4.29-.57-6.44,0-.56.08-1.1.13-1.64.15,1.45.23,2.91.25,4.38,0,.34.53.4.53.05a31.53,31.53,0,0,0-.65-6c0-.31.06-.63.08-.93a1.42,1.42,0,0,0-2.55-1c-.69.9-1.36,1.83-2,2.76a13.71,13.71,0,0,1-3.06,2.34c-1.15.66-2.39,1.15-3.49,1.89-.24.16,0,.58.24.52a14.22,14.22,0,0,0,4.5-2.06q-.74,1.16-1.41,2.34c-2.52,2.87-5.7,6-5.83,9.76a.34.34,0,0,0,.65.15,26.91,26.91,0,0,1,3-5.76,36.31,36.31,0,0,0-2.1,6,.2.2,0,0,0-.21.17c-.87,4.16-3.39,8.6-1.49,12.83a.41.41,0,0,0,.77-.24,17.55,17.55,0,0,1,.1-6.47,24.93,24.93,0,0,0,.55,5.65c.07,3.15.8,6.59,2.88,8.84a.27.27,0,0,0,.45,0,52.08,52.08,0,0,0,2.86,7.95c.2.42.92.22.8-.25-.33-1.33-.77-2.69-1.24-4,.61.83,1.25,1.62,1.92,2.4a13.3,13.3,0,0,0,4.13,6.63c.46.37.92-.28.65-.7-.65-1-1.31-2-1.94-2.95a46.85,46.85,0,0,0,4.46,3.73,35.65,35.65,0,0,0,3.11,4.5,24.2,24.2,0,0,0,6.38,4.6c.33.19.67-.25.35-.48a28.19,28.19,0,0,1-6.51-5.86l-.67-.89c1.42.94,2.88,1.83,4.38,2.64l.27.14c1.17,1.31,2.32,2.63,3.61,3.83s2.75,2.35,4.46,2.33c.19,0,.37-.28.15-.4a22.76,22.76,0,0,1-4.66-3.58c-.32-.3-.64-.58-1-.87a79.85,79.85,0,0,0,7.6,3.23h0c1.62,1.49,3.06,3.34,5.14,4.11.24.09.45-.27.22-.41a26.17,26.17,0,0,1-3.86-3.19c.59.21,1.17.42,1.76.6,1.66.8,3.19,1.86,4.91,2.66a27.14,27.14,0,0,0,7.48,2c.4.06.57-.6.16-.71a54,54,0,0,1-7.13-2.45,66.41,66.41,0,0,0,11.58,1.68,12.09,12.09,0,0,0,6,1,.45.45,0,0,0,0-.89h-.09c.65,0,1.27,0,1.91-.07l2.45.56a12.85,12.85,0,0,0,5.9.42.23.23,0,0,0-.08-.45,13.1,13.1,0,0,1-5.39-.68c1.4-.1,2.76-.24,4.09-.41,2.53.52,5.11,1.29,7.39.08a.32.32,0,0,0-.19-.61,30.75,30.75,0,0,1-3.84,0q1.39-.24,2.73-.54a.15.15,0,0,0,.16.07c2.27-.52,4.64-.59,6.9-1.14a.35.35,0,0,0-.12-.68,11.27,11.27,0,0,0-1.41.16c.59-.21,1.17-.42,1.73-.65h0a.14.14,0,0,0,.2,0,11.64,11.64,0,0,0,2-1.56c.16-.16-.05-.43-.23-.28s-.34.28-.5.43a6,6,0,0,0,.05-4.12c.17.26.33.51.52.75a.36.36,0,0,0,.62-.28A7.67,7.67,0,0,0,298,191.17Z" style="fill:#ECEFF1"></path><path d="M317.44,267.59c-.06-.24-.4-.18-.49,0-.26.55-.45,1.1-.68,1.64a10.29,10.29,0,0,0-3.37-8.31c.89.4,1.74.9,2.66,1.23a.33.33,0,0,0,.38-.51,7.23,7.23,0,0,0-6.38-2.35,5,5,0,0,0-2.9.52c-2.41,1.24-3.83,1.94-4.88,2.4,1.45-.94,2.83-1.94,4.07-2.83.38-.27-.06-.8-.44-.56a50.48,50.48,0,0,1-6.33,3.37,48.38,48.38,0,0,0-4.73,2.07l-1.54.42a20.15,20.15,0,0,0,3.46-3c.22-.25-.18-.64-.42-.41a19.42,19.42,0,0,1-6.93,3.87,8.77,8.77,0,0,0,1.69-2.15c.16-.28-.28-.49-.46-.26-2.26,2.64-5.1,3.2-8.07,4.4-2.15.4-4.3.76-6.46,1,2-.56,4-1.23,5.92-1.91.32-.12.17-.68-.16-.59-4.38,1.14-8.88,1.57-13.29,2.45.43-.11.86-.22,1.27-.35s.14-.53-.13-.48c-5.36.81-10.8.66-16.17,1.24-.37,0-.75-.06-1.12-.11a26.23,26.23,0,0,0,3.26-1c.25-.09.13-.51-.12-.44a34.3,34.3,0,0,1-7.37.85c-1.52-.25-3-.54-4.52-.87.44,0,.89,0,1.33-.09a.51.51,0,0,0,0-1,40,40,0,0,0-6.91-.37c-1.31-.4-2.62-.83-3.94-1.29,2.05.1,4.12.14,6.23.24A.23.23,0,0,0,240,264a59.94,59.94,0,0,0-9.92-1.15,80,80,0,0,1-7.53-3.49c1.86.47,3.65,1.08,5.51,1.56.37.1.6-.5.28-.7-2.68-1.65-5.79-2-8.85-2.59-1.77-1.05-3.5-2.17-5.16-3.37a18,18,0,0,0,3.07,1.16.41.41,0,0,0,.3-.76c-2.55-1.38-5.2-2.52-7.73-3.9-1-.91-2-1.85-2.95-2.82a39.13,39.13,0,0,1-6.8-9.43c1.61,2.49,3.39,4.89,5,7.33.21.32.7,0,.56-.35-1.8-4.42-5.16-7.94-7.57-12-.09-.32-.2-.63-.28-1a22.93,22.93,0,0,1-.6-3.74,13.6,13.6,0,0,0,1.34,2.77c.2.33.65,0,.54-.32a44.44,44.44,0,0,1-1.83-7,67.41,67.41,0,0,1,2.77-12.57c.49-1.7-.53-2.57-1.74-1.25-.75.82-1.52,1.64-2.29,2.46a.23.23,0,0,0-.27,0c-2.51,2.36-6.78,3.9-8.12,7.26a.4.4,0,0,0,.68.39,27.51,27.51,0,0,1,4.14-3.93l.47-.37c-1,1.15-2,2.32-3,3.53-.94,1-1.93,1.88-3,2.78a12.61,12.61,0,0,0-3.58,4.18.39.39,0,0,0,.6.45A22.27,22.27,0,0,0,187,224.3c-.39.69-.76,1.39-1.08,2.11-1.92,3.27-4.5,6.38-4.08,10.28a.49.49,0,0,0,1,0,17.91,17.91,0,0,1,1.42-4.75c-2.31,7.44-2.58,15.62,2.65,22,.37.45,1-.08.7-.56a25.74,25.74,0,0,1-3.71-16.67,32.45,32.45,0,0,0,4,14.8c1.35,5.21,4,10.26,8,13.68.33.28.72-.19.5-.51-1.47-2.14-2.86-4.23-4.1-6.36a59.48,59.48,0,0,0,5.21,5.92c.9,1.55,1.78,3.12,2.68,4.7a9.4,9.4,0,0,0,3.87,4.07c.42.21.78-.44.4-.72a21.68,21.68,0,0,1-5.29-6.46,66.91,66.91,0,0,0,5.25,4.38c2.71,3.39,5.34,7.29,9.44,8.19.28.06.41-.33.2-.49a55.39,55.39,0,0,1-5.74-4.89q2.07,1.38,4.22,2.64a20.47,20.47,0,0,0,5.78,4.67c.2.12.37-.2.19-.34a39.34,39.34,0,0,1-3.14-2.77c2.42,1.3,4.89,2.5,7.37,3.58l.76.87a17.32,17.32,0,0,0,3.18,3.22c.21.13.58-.08.43-.35a15.26,15.26,0,0,0-2.74-3.06l.8.33c.29.2.59.37.89.56l2.41,2.43c.32.32.87-.12.55-.43l-.71-.68c1.39.78,2.78,1.52,4,2.26.26.15.55-.21.29-.39l-3-2.1c2.32.79,4.66,1.48,7,2.09,3.7,1.77,7.34,3.8,11.41,4.11a.29.29,0,0,0,.14-.56c-1.27-.6-2.53-1.25-3.79-1.89.94.17,1.89.3,2.84.44,4.92,2.61,10.87,4.64,16.29,3.34a.37.37,0,0,0,0-.73c-3-.56-6-.54-9-1.17-.53-.11-1.06-.24-1.58-.36,5.72.46,11.47-.44,17.13,1.31a.39.39,0,0,0,.3-.73,15.53,15.53,0,0,0-2.23-.86c2.09-.14,4.16-.34,6.23-.6a31.42,31.42,0,0,1,3.63,1.11.32.32,0,0,0,.24-.6c-.6-.28-1.21-.55-1.84-.8l2-.35c4.61-.13,9.35-1.36,13.92-.85.44,0,.65-.64.2-.78a20.2,20.2,0,0,0-4.12-.73q2.75-.82,5.41-1.8c1.44-.36,2.87-.77,4.33-1,2.27-.43,4.61-.56,6.75-1.49a.32.32,0,0,0-.17-.6c-1.54.21-3.06.37-4.55.55.88-.4,1.76-.81,2.63-1.23,1.69-.45,3.39-.89,5.08-1.39a15.5,15.5,0,0,0,6.7-3.71c.21-.21,0-.56-.29-.37a14.76,14.76,0,0,1-6.45,2.85,41.65,41.65,0,0,0,6.28-3.56,5.35,5.35,0,0,0,.77-.73,4.44,4.44,0,0,0,2.48-4.71Z" style="fill:#ECEFF1"></path><path d="M345.32,351.45a.57.57,0,0,1-.11.11.15.15,0,0,0,0-.07,8.12,8.12,0,0,0,.95-5.12.29.29,0,0,0-.56.07,6.63,6.63,0,0,1-.19,1.91,9,9,0,0,0-5.44-6.91,15.42,15.42,0,0,1,1.68-.16.43.43,0,0,0,0-.85,15,15,0,0,0-8.2,1.31c-1.71.8-3.31,1.78-5,2.64a21.4,21.4,0,0,1,5.91-3.23.38.38,0,0,0-.2-.73c-3.33.74-5.94,2.82-8.87,4.46a45.52,45.52,0,0,1-6,2.71l-.81.23a43.61,43.61,0,0,0,5.83-3.69c.26-.2,0-.63-.27-.45A62.19,62.19,0,0,1,309.33,350c1.15-.78,2.24-1.59,3.23-2.4.26-.21-.08-.63-.36-.46A69.61,69.61,0,0,1,305,351l-.07,0-.34.07a10,10,0,0,0,1.12-1.05.29.29,0,0,0-.41-.41,13.24,13.24,0,0,1-4.24,2.3c-.55.1-1.12.18-1.67.27.75-.45,1.49-.92,2.18-1.42.22-.17,0-.52-.22-.38-1.41.79-2.84,1.49-4.28,2.18-1.61.24-3.21.47-4.82.67a27.83,27.83,0,0,0,4.74-1.88c.37-.2,0-.73-.33-.56-4.16,1.9-8.86,2.24-13.27,3.34l-2.09.17a38,38,0,0,0,6.11-2.3c.5-.25.15-1-.38-.9-3.1.92-6.1,2.23-9.14,3.38-1.37.07-2.74.16-4.11.2a28.53,28.53,0,0,0,3.16-1,.37.37,0,0,0-.2-.72c-2.87.57-5.7,1.25-8.54,1.89q-3.66,0-7.34,0a37.1,37.1,0,0,1,7.79-1c.38,0,.49-.62.1-.69a23.2,23.2,0,0,0-5.89-.16.29.29,0,0,0-.25-.51,31.51,31.51,0,0,0-7.48,1.86l-1,.24q-3.65-.17-7.31-.44a36.85,36.85,0,0,0,6.2-1.61c.28-.11.27-.6-.08-.57-4.53.35-9.09.74-13.64,1.17a25.72,25.72,0,0,1,7.14-1.69.29.29,0,0,0,0-.57,23.81,23.81,0,0,0-8.32,1.58c-.76.26-1.53.48-2.3.68l-.2,0q-4.08-.44-8.21-1h.24a25.84,25.84,0,0,0,8.33-1.32c.42-.15.25-.81-.18-.67-3.17,1.07-6.44.79-9.72.91-1.21.05-2.42.16-3.62.31-.51-.08-1-.16-1.54-.26a.34.34,0,0,0-.1-.62,34.9,34.9,0,0,0-4.23-1.17c1.73-.09,3.48-.19,5.29-.2.26,0,.34-.42.06-.47a36.82,36.82,0,0,0-8.46-.08c-.3,0-.6,0-.9,0-1.88-.28-3.77-.49-5.67-.72a96.35,96.35,0,0,1-13.73-5.06c3.44.84,6.91,1.63,10,3.45a.37.37,0,0,0,.44-.58c-3.88-4-9.92-4.06-15.31-5.31-.48-.27-1-.52-1.45-.8a48.18,48.18,0,0,1-7.75-5.5,29.24,29.24,0,0,0,5.18,2.89c.51.21.78-.58.36-.86-3.45-2.27-6.89-4.39-10.12-6.87a30,30,0,0,1-2.93-4.63c-.54-1.07-1-2.11-1.43-3.12a25.82,25.82,0,0,0,2.95,4.17c.25.28.79,0,.65-.37-1.74-4.4-4.49-8-5.54-12.5a24.69,24.69,0,0,1,.11-3.09,11.92,11.92,0,0,0,1,4c.17.37.71.09.63-.27a37,37,0,0,1-.75-4.7.24.24,0,0,0,.45-.09,50.46,50.46,0,0,1,.21-5.65c.31-.95.64-1.91,1-2.92s-1-1.51-1.59-.92l-.18.18a.33.33,0,0,0-.36.05,38.86,38.86,0,0,1-4.81,3.47,14.93,14.93,0,0,0-4,3,.28.28,0,0,0,.33.44,29.22,29.22,0,0,0,3.7-2.22L161.81,306a62.69,62.69,0,0,0-5.11,5.07c-.23.29.08.82.44.56a34.87,34.87,0,0,0,4.22-3.57c-.39.57-.8,1.12-1.16,1.71-4.19,5.27-8.17,11-5.75,18.1.11.33.64.29.63-.08-.16-4.09,0-7.87,1.91-11.61a1.4,1.4,0,0,0,.09-.17,27.89,27.89,0,0,0-1.34,4.89,21.22,21.22,0,0,0,0,7.2,22.24,22.24,0,0,0,4.45,14.59c.28.36.77-.09.6-.46a48.18,48.18,0,0,1-2.8-7.08,37.19,37.19,0,0,0,3.21,5.53,32.81,32.81,0,0,0,1.61,4.59.3.3,0,0,0,.55-.15,10.76,10.76,0,0,0-.31-2c.53.66,1.08,1.29,1.63,1.91,1,1.46,1.78,3,2.74,4.54a.39.39,0,0,0,.49.12c1.53,3,3.29,5.87,6.32,7.37a.5.5,0,0,0,.51-.87c-2.57-1.84-4.15-4.33-5.67-6.88a61.23,61.23,0,0,0,7.67,5.63,45.65,45.65,0,0,1,6.95,7.48c.31.42,1,.06.72-.41a29.39,29.39,0,0,0-3.21-4.35,32.08,32.08,0,0,1,4.31,4.64c.2.26.62,0,.45-.26a19.13,19.13,0,0,0-2.22-3.2l.25.11c1,.48,1.93,1,2.87,1.49,2,1.12,4.62,2.29,5.85,4.26a.22.22,0,0,0,.38-.22,7.79,7.79,0,0,0-2.25-2.56c1.74.68,3.52,1.3,5.3,1.9,0,0,0,0,0,0l.19,0c.94.32,1.89.63,2.84.93,3.21,1.89,6.54,3.66,9.23,6.15a.27.27,0,0,0,.43-.33,12.36,12.36,0,0,0-3.19-3.41,67.21,67.21,0,0,0,11.57,4.47.39.39,0,0,0,.21-.75,64.18,64.18,0,0,1-8-3.44c2.32.52,4.63,1,6.91,1.4a96.37,96.37,0,0,0,11,3.15.41.41,0,0,0,.21-.79c-1-.33-2-.68-3-1q3.06.43,6.14.81c5.25,1.57,10,4.76,15.89,3.4.49-.12.35-.82-.11-.85-3.8-.21-7.28-.39-10.91-1.71l-1.15-.42c3.43.37,6.87.66,10.31.89,5.08,2,11.41,3.3,16.59,2.64a.41.41,0,0,0,0-.81c-3.51-.37-7-.55-10.43-1.25-.48-.09-1-.2-1.43-.31,2.62.13,5.24.2,7.87.24,4.59.61,9.22,2,13.78.71a.46.46,0,0,0-.24-.88,30.57,30.57,0,0,1-6.41.14q3.1-.08,6.19-.24c4.2,0,8.4.1,12.37,1.72.23.09.4-.3.17-.4a24.87,24.87,0,0,0-5.81-1.81l1.1-.1c3,.14,6,.48,9.13.62a.29.29,0,0,0,.08-.56,27,27,0,0,0-2.68-.8l.28,0c1.86.29,3.69.7,5.54,1.14.37.08.66-.48.27-.65-.78-.36-1.62-.67-2.48-1l2.37-.38a63.4,63.4,0,0,0,10.38-.95c1.87.11,3.74.25,5.64.47.21,0,.24-.3,0-.35q-1.35-.36-2.73-.63c2-.36,3.94-.75,5.84-1.11.31-.06.24-.6-.08-.56-2,.25-4.05.42-6.1.58,2.82-.65,5.6-1.37,8.35-2.14,3.91-.26,7.85-.81,11.69-1.19.33,0,.35-.53,0-.53-1.89,0-3.83-.06-5.78,0l.87-.3c3.74-.36,7.49-1.16,11.17-1.75.34-.05.27-.66-.09-.62-1.9.22-3.83.39-5.77.59,1.68-.59,3.36-1.22,5-1.86,3.92-.57,7.87-1.18,11.25-3,.3-.15.08-.57-.21-.51l-4.53.84,1.84-.8a11.82,11.82,0,0,0,3.25-.91,14.58,14.58,0,0,0,4.55-3.87A.27.27,0,0,0,345.32,351.45Z" style="fill:#ECEFF1"></path><polygon points="272.04 186.59 275.36 185.98 276.1 182.48 276.84 185.98 280.15 186.59 276.85 187.4 276.1 190.7 275.34 187.4 272.04 186.59" style="fill:#fff"></polygon><polygon points="289.76 274.92 293.08 274.31 293.82 270.81 294.56 274.31 297.88 274.92 294.58 275.73 293.82 279.03 293.07 275.73 289.76 274.92" style="fill:#fff"></polygon><polygon points="312.06 363.81 315.38 363.19 316.12 359.7 316.86 363.19 320.18 363.81 316.88 364.62 316.12 367.92 315.37 364.62 312.06 363.81" style="fill:#fff"></polygon><polygon points="193.43 248.56 196.74 247.95 197.48 244.45 198.22 247.95 201.54 248.56 198.24 249.37 197.48 252.67 196.73 249.37 193.43 248.56" style="fill:#fff"></polygon><polygon points="201.47 355.45 204.79 354.84 205.53 351.34 206.27 354.84 209.59 355.45 206.29 356.26 205.53 359.56 204.78 356.26 201.47 355.45" style="fill:#fff"></polygon><polygon points="230.53 360.39 232.38 360.05 232.79 358.09 233.21 360.05 235.06 360.39 233.22 360.84 232.79 362.69 232.37 360.84 230.53 360.39" style="fill:#fff"></polygon><polygon points="225.99 180.61 227.84 180.27 228.26 178.31 228.67 180.27 230.52 180.61 228.68 181.06 228.26 182.91 227.84 181.06 225.99 180.61" style="fill:#fff"></polygon><polygon points="298.31 264.61 300.16 264.27 300.58 262.31 300.99 264.27 302.85 264.61 301 265.06 300.58 266.91 300.16 265.06 298.31 264.61" style="fill:#fff"></polygon><polygon points="321.51 354.77 323.36 354.43 323.78 352.48 324.19 354.43 326.04 354.77 324.2 355.23 323.78 357.07 323.35 355.23 321.51 354.77" style="fill:#fff"></polygon><polygon points="260.39 197.75 262.25 197.41 262.66 195.46 263.07 197.41 264.93 197.75 263.08 198.2 262.66 200.05 262.24 198.2 260.39 197.75" style="fill:#fff"></polygon><polygon points="218.86 154.96 220.71 154.62 221.12 152.67 221.54 154.62 223.39 154.97 221.54 155.42 221.12 157.26 220.7 155.42 218.86 154.96" style="fill:#fff"></polygon><polygon points="246.3 282.89 248.15 282.55 248.56 280.6 248.98 282.55 250.83 282.9 248.99 283.35 248.56 285.19 248.14 283.35 246.3 282.89" style="fill:#fff"></polygon><polygon points="182.41 232.24 184.26 231.89 184.67 229.94 185.09 231.89 186.94 232.24 185.1 232.69 184.67 234.53 184.25 232.69 182.41 232.24" style="fill:#fff"></polygon><polygon points="280.73 369.11 282.58 368.76 283 366.81 283.41 368.76 285.26 369.11 283.42 369.56 283 371.4 282.57 369.56 280.73 369.11" style="fill:#fff"></polygon><polygon points="156.65 315.97 158.5 315.63 158.92 313.68 159.33 315.63 161.19 315.97 159.34 316.43 158.92 318.27 158.5 316.43 156.65 315.97" style="fill:#fff"></polygon><path d="M335.56,345.74a.54.54,0,0,0,0-1.07A.54.54,0,0,0,335.56,345.74Z" style="fill:#fff"></path><path d="M237.63,279.57a.54.54,0,0,0,0-1.08A.54.54,0,0,0,237.63,279.57Z" style="fill:#fff"></path><path d="M268.77,367.35a.54.54,0,0,0,0-1.08A.54.54,0,0,0,268.77,367.35Z" style="fill:#fff"></path><path d="M220.72,367.35a.54.54,0,0,0,0-1.08A.54.54,0,0,0,220.72,367.35Z" style="fill:#fff"></path><path d="M307.18,354.68a.54.54,0,0,0,0-1.07A.54.54,0,0,0,307.18,354.68Z" style="fill:#fff"></path><path d="M191.79,225.62a.54.54,0,0,0,0-1.07A.54.54,0,0,0,191.79,225.62Z" style="fill:#fff"></path><path d="M298.69,279.57a.54.54,0,0,0,0-1.08A.54.54,0,0,0,298.69,279.57Z" style="fill:#fff"></path><path d="M176.53,350.92a.54.54,0,0,0,0-1.08A.54.54,0,0,0,176.53,350.92Z" style="fill:#fff"></path><path d="M233.66,265a.38.38,0,0,0,0-.76A.38.38,0,0,0,233.66,265Z" style="fill:#fff"></path><path d="M212.07,273.52a.38.38,0,0,0,0-.76A.38.38,0,0,0,212.07,273.52Z" style="fill:#fff"></path><path d="M236.4,173.05a.38.38,0,0,0,0-.76A.38.38,0,0,0,236.4,173.05Z" style="fill:#fff"></path><path d="M285.23,196.48a1,1,0,0,0,0-2A1,1,0,0,0,285.23,196.48Z" style="fill:#fff"></path><path d="M171.93,346.23a1,1,0,0,0,0-2.06A1,1,0,0,0,171.93,346.23Z" style="fill:#fff"></path><path d="M231.53,176.55a1,1,0,0,0,0-2.06A1,1,0,0,0,231.53,176.55Z" style="fill:#fff"></path><path d="M276.1,286.22a1,1,0,0,0,0-2.06A1,1,0,0,0,276.1,286.22Z" style="fill:#fff"></path><path d="M277.09,364.84a1,1,0,0,0,0-2.06A1,1,0,0,0,277.09,364.84Z" style="fill:#fff"></path><path d="M203.43,255.54a1,1,0,0,0,0-2.06A1,1,0,0,0,203.43,255.54Z" style="fill:#fff"></path></g><g id="freepik--Plant--inject-659"><path d="M89.4,388.31a68.07,68.07,0,0,0-2.18,12.3c.12.21.09,1,0,.76,0,.68-1,.56-1-.11,0-.44,0-.87,0-1.29-2.4-3-5.9-4.88-8.72-7.47a16.26,16.26,0,0,1-4.77-7.61c-2.35-8.06-.15-16.61-3-24.66-2.42-6.93-6.78-13-10.46-19.25-3.89-6.65-6.76-13.63-7-21.41-.23-6,.48-13.91,5-18.38,4.81-4.73,10.78-1.18,14.46,3,10.69,12.26,15.63,27.76,17.63,43.6,1.1,8.77,2.25,17.6,2,26.45A71.24,71.24,0,0,1,89.4,388.31Z" style="fill:#ECEFF1"></path><path d="M87.27,403.83A151.48,151.48,0,0,0,87,379s0-.05,0-.09c.13-6.72.67-13.4.4-20.13a119.18,119.18,0,0,0-3-21.59c0-.08-.15-.06-.13,0a141.28,141.28,0,0,1,2.33,21.12c.14,3.79.11,7.59-.09,11.38-.06,1.23-.18,2.47-.26,3.72h0a132.8,132.8,0,0,0-20-52.87c-.14-.22-.53,0-.39.23A138.26,138.26,0,0,1,82.21,360c-5.14-9.52-12.9-17.35-18.65-26.5a.05.05,0,0,0-.09.06c5.17,10.18,13.72,18.21,19.16,28.24q1.43,6.14,2.3,12.37a139.24,139.24,0,0,1,1.24,17.19c-3.13-5.85-6.38-11.45-8.94-17.64-.07-.16-.31-.05-.25.12,2.18,6.42,5.1,13.34,9.2,18.83,0,4.06-.1,8.13-.33,12.19-.64,10.85-2.5,21.55-3.35,32.36a.25.25,0,0,0,.49.06A247.46,247.46,0,0,0,87.27,403.83Z" style="fill:#263238"></path><path d="M75.75,320.19c0-.08-.15,0-.12.05,2,5.48,3.1,11,4.53,16.65a.21.21,0,0,0,.41-.07C80,331.12,78,325.44,75.75,320.19Z" style="fill:#263238"></path><path d="M126.06,343.15a81.69,81.69,0,0,1-4.56,9.36c-3.56,6.48-7.29,12.41-8,20-.3,3.36-.41,6.75-1.43,10a30.14,30.14,0,0,1-4,7.83c-3.86,5.63-8.7,10.48-12.28,16.33a68.47,68.47,0,0,0-8.16,19.68c-.09.37-.69.27-.6-.11a.26.26,0,0,0,0-.08.1.1,0,0,1,0-.08c-.57-16.18.72-32.48,5.66-48a167.56,167.56,0,0,1,7.83-20c2.65-5.61,5.94-11,10.58-15.21,3-2.71,9.54-7.85,13.83-5.13C127,339.06,126.87,341.13,126.06,343.15Z" style="fill:#ECEFF1"></path><path d="M109.8,379.81a131,131,0,0,1-9.4,13.52c-1.56,2-3.15,4.07-4.71,6.11-.74,1-1.57,1.94-2.25,3,.43-1.7.85-3.4,1.28-5.1,2.09-8.17,4.09-16.41,7.2-24.27a164,164,0,0,1,11.23-22c.11-.19-.19-.32-.3-.14-3.42,5.62-6.89,11.23-9.76,17.16A88.6,88.6,0,0,0,99,378.22a156,156,0,0,1,5.51-21.75c0-.07-.07-.11-.1-.05a74.53,74.53,0,0,0-5.72,22.63v0c-.7,2.1-1.34,4.22-1.94,6.35-2.55,9.05-4.79,18.2-6.86,27.37a96.84,96.84,0,0,1,1.56-18,.11.11,0,0,0-.22,0,57.12,57.12,0,0,0-1.56,19q-1.17,5.24-2.29,10.48c-1.59,7.45-3.54,15-4.47,22.61a.15.15,0,0,0,.3.05c1.11-4.08,1.78-8.31,2.68-12.44s1.85-8.28,2.82-12.41c1.4-6,2.87-12,4.37-18,1-2.2,2.94-4.15,4.39-6,1.59-2,3.19-4,4.73-6.1A90.44,90.44,0,0,0,110,379.88C110,379.79,109.85,379.73,109.8,379.81Z" style="fill:#263238"></path><path d="M110.49,372.9a84.24,84.24,0,0,0-9.19,14.61c0,.07.07.14.11.07,3.09-4.85,6.14-9.74,9.23-14.59C110.69,372.91,110.55,372.82,110.49,372.9Z" style="fill:#263238"></path><path d="M41.64,358.48c2.1,3.61,4.49,7.95,3.59,12.28-.57,2.75-2.58,5-2.94,7.77-.81,6.18,5.34,10.26,9.8,13.18C63.2,399,78.43,405.5,80.45,420.38c.07.52,1,.39.92-.12a.3.3,0,0,0,0-.1s.05-.05.05-.09a56.86,56.86,0,0,0-.21-22.73c-1.65-7.67-5-14.56-9-21.3-6.69-11.4-13.76-23.08-23.87-31.81-2.8-2.42-8.53-6.76-10.76-1.31S39.07,354.08,41.64,358.48Z" style="fill:#ECEFF1"></path><path d="M51.81,382.66c7.36,8,19.07,12.44,25.41,21.37a89.5,89.5,0,0,0-19.53-36.68c-.25-.28.14-.67.4-.41a72.17,72.17,0,0,1,16,23.11,103.38,103.38,0,0,0-6.87-17.57.19.19,0,0,1,.33-.19A67,67,0,0,1,74.91,392C83.26,412.26,84,436,82.29,457.28c0,.31-.49.32-.48,0C82.29,440.49,82,423.4,78,407c-.08-.34-.18-.68-.26-1-6.9-9.61-18.55-14.07-26.05-23.19C51.61,382.7,51.73,382.57,51.81,382.66Z" style="fill:#263238"></path><path d="M50.1,375.81c3.87,3.55,7.67,7.17,11.54,10.72,0,0,0,.1,0,.07A56.36,56.36,0,0,1,49.87,376,.16.16,0,0,1,50.1,375.81Z" style="fill:#263238"></path><path d="M49.49,360.45a121.7,121.7,0,0,0,11.56,15.9c.06.07,0,.16-.09.1a55.93,55.93,0,0,1-11.68-15.88C49.22,360.43,49.41,360.31,49.49,360.45Z" style="fill:#263238"></path><polygon points="66.89 472.31 100.75 472.31 96.19 426.76 72.11 426.76 66.89 472.31" style="fill:#455a64"></polygon><polygon points="71.26 434.16 96.93 434.16 96.19 426.76 72.11 426.76 71.26 434.16" style="fill:#263238"></polygon><rect x="67.95" y="421.71" width="31.74" height="7.27" transform="translate(167.64 850.7) rotate(180)" style="fill:#455a64"></rect></g></svg>