<svg xmlns="http://www.w3.org/2000/svg" viewBox="0 0 750 500"><g id="freepik--background-complete--inject-193"><path d="M150.54,119.1c-.55,0-.6-1.09,0-1.17,2.59-.33,5.19-2.65,7.77-3a23.07,23.07,0,0,0,7.43-1.77c3.86-1.94,6.25-5.81,10.24-7.66,7-3.26,14.2-1.87,21,1a24,24,0,0,0,12.86,1.9c4-.51,7.85-1.6,11.81-2.17a23.48,23.48,0,0,1,10.61.51c3.55,1.15,6.61,3.37,9.95,5,4.41,2.12,8.76,1.76,13.5,1.9,3.42.1,10.57,2.26,10.57,4.56C266.33,119.76,157.32,119.1,150.54,119.1Z" style="fill:#ebebeb"></path><path d="M673.3,152.13c-4.77,0-123.92-.83-157.58-.83-2.35,0,.62-4.07,1.92-4.36,4.14-.9,8.45-.95,12.65-1.39a41.09,41.09,0,0,0,12.06-3c3.32-1.4,6.62-3,10.21-3.57,6.93-1.09,13,2.67,19.52,4.33a14.74,14.74,0,0,0,11.82-1.62c3-1.8,5.74-4,8.88-5.56a48.75,48.75,0,0,1,38.94-1.78,45.25,45.25,0,0,1,8.51,4.36c3.18,2.08,5.92,4.75,9.11,6.81,7,4.56,15.78,3.08,23.48,5.7C673.24,151.34,673.72,152.13,673.3,152.13Z" style="fill:#ebebeb"></path><path d="M218.07,75.86C213.3,75.86,94.15,75,60.49,75c-2.35,0,.62-4.07,1.92-4.36,4.14-.9,8.45-1,12.65-1.38a41.25,41.25,0,0,0,12.07-3c3.31-1.39,6.61-3,10.2-3.57,6.93-1.09,13,2.67,19.52,4.33a14.7,14.7,0,0,0,11.82-1.62c3-1.8,5.74-4,8.88-5.56a48.79,48.79,0,0,1,38.94-1.78A45.64,45.64,0,0,1,185,62.42c3.17,2.08,5.91,4.75,9.1,6.81,7,4.56,15.78,3.08,23.48,5.7C218,75.07,218.49,75.86,218.07,75.86Z" style="fill:#ebebeb"></path><path d="M424,95.12c-6.31,0-112.54.7-119.22.49-.48,0-.74-.72-.26-1,4.21-2.08,9-1.66,13.36-3.14,2.57-.86,4.15-2.55,5.94-4.48a12.36,12.36,0,0,1,5.52-3.6,11.61,11.61,0,0,1,6-.19c2.16.51,4,1.75,6.08,2.52,5.11,1.93,10.07.1,13.71-3.68,3-3.11,6-6,10.05-7.72a13.31,13.31,0,0,1,10.64-.15c3.89,1.77,6.57,5.32,10.23,7.45,4.34,2.54,9.53,1.94,14.32,2.7s8.47,4.8,12.67,7.13a9.06,9.06,0,0,0,4.58,1.42c.94,0,1.86-.28,2.79-.4,1.45-.18,2.82-.14,3.8,1.07C424.5,93.88,424.45,95.12,424,95.12Z" style="fill:#ebebeb"></path><path d="M545.19,131c-4.61,0-82.16.51-87,.36-.35,0-.54-.53-.19-.7,3.07-1.52,6.56-1.22,9.75-2.29a10.54,10.54,0,0,0,4.34-3.27,8.94,8.94,0,0,1,4-2.64,8.64,8.64,0,0,1,4.4-.14,38.16,38.16,0,0,1,4.44,1.85c3.73,1.4,7.35.07,10-2.69,2.19-2.27,4.35-4.42,7.33-5.64a9.72,9.72,0,0,1,7.77-.11c2.84,1.29,4.8,3.88,7.47,5.44,3.17,1.85,7,1.42,10.45,2s6.19,3.51,9.26,5.21a6.52,6.52,0,0,0,3.34,1,20,20,0,0,0,2-.29,2.79,2.79,0,0,1,2.77.78C545.53,130.1,545.5,131,545.19,131Z" style="fill:#ebebeb"></path><path d="M329.54,147.93c-4.61,0-82.17.51-87,.35a.38.38,0,0,1-.19-.7c3.07-1.52,6.56-1.21,9.75-2.29A10.37,10.37,0,0,0,256.4,142a8.92,8.92,0,0,1,4-2.63,8.42,8.42,0,0,1,4.4-.14,36.43,36.43,0,0,1,4.44,1.84c3.72,1.41,7.34.07,10-2.69,2.2-2.27,4.36-4.41,7.34-5.64a9.77,9.77,0,0,1,7.77-.1c2.84,1.29,4.79,3.88,7.47,5.44,3.16,1.85,6.95,1.41,10.45,2s6.19,3.5,9.25,5.2a6.6,6.6,0,0,0,3.35,1c.68,0,1.36-.21,2-.29a2.79,2.79,0,0,1,2.77.78C329.88,147,329.84,147.93,329.54,147.93Z" style="fill:#ebebeb"></path><path d="M688.47,65.35H556.78c-.53,0-.73-.56-.19-.81,4.71-2.22,10-1.64,14.88-3.18,2.87-.9,4.66-2.73,6.69-4.83a13.68,13.68,0,0,1,6.21-3.87,12.93,12.93,0,0,1,6.68-.07c2.38.62,4.43,2,6.69,2.94,5.61,2.25,11.16.34,15.28-3.77,3.41-3.38,6.75-6.57,11.32-8.33a14.76,14.76,0,0,1,11.8.08c4.29,2,7.17,6,11.18,8.5,4.75,2.91,10.52,2.36,15.82,3.32s9.71,3.25,14.31,5.92a9.91,9.91,0,0,0,5,1.68c1,0,2.07-.27,3.11-.37,1.6-.17,3.13-.09,4.18,1.27C690,64.16,691.57,65.35,688.47,65.35Z" style="fill:#ebebeb"></path><path d="M146.34,369.87s6.92-1.41,10.64-.07,7.81,6.29,7.81,6.53-7,1.37-9.82.4-8.79-6.07-8.79-6.07-4.43,2.16-5.16,1.17,4.1-1.69,4.1-1.69-4.8-2.49-4.09-3.52S146.34,369.87,146.34,369.87Z" style="fill:#ebebeb"></path><path d="M296.67,294.41s6.41-3,10.34-2.51,9,4.32,9.09,4.55-6.47,2.95-9.45,2.65-10-3.89-10-3.89-3.81,3.12-4.75,2.32,3.6-2.57,3.6-2.57-5.24-1.33-4.79-2.5S296.67,294.41,296.67,294.41Z" style="fill:#ebebeb"></path><path d="M174.89,358s6.09-3.58,10.05-3.51,9.42,3.42,9.49,3.65-6.16,3.56-9.15,3.56-10.29-2.9-10.29-2.9-3.49,3.48-4.5,2.77,3.33-2.91,3.33-2.91-5.35-.81-5-2S174.89,358,174.89,358Z" style="fill:#ebebeb"></path><path d="M616,323.89s-6.44-2.91-10.36-2.43-9,4.39-9.06,4.63,6.5,2.89,9.48,2.57,9.92-4,9.92-4,3.84,3.09,4.77,2.28-3.62-2.55-3.62-2.55,5.23-1.37,4.77-2.53S616,323.89,616,323.89Z" style="fill:#ebebeb"></path><path d="M179.83,374.14s3.61-2.4,6.13-2.36,7.17,2.62,7.47,3.1-5.33,3-7.25,2.65a30.08,30.08,0,0,1-6.12-2.57c-.1-.1-2.58,3.16-3.81,2.05s3.06-2.44,3.06-2.44-3.7-1.25-3.37-2.28S178.8,372.72,179.83,374.14Z" style="fill:#ebebeb"></path><path d="M63.52,407.4s3.62-2.4,6.13-2.36,7.18,2.62,7.48,3.1-5.34,3-7.25,2.65a30,30,0,0,1-6.13-2.57c-.1-.1-2.58,3.15-3.81,2S63,407.83,63,407.83s-3.7-1.25-3.38-2.28S62.49,406,63.52,407.4Z" style="fill:#ebebeb"></path><path d="M346.59,270.71s-3.49-2.57-6-2.65-7.29,2.25-7.61,2.72,5.17,3.26,7.11,3a29.33,29.33,0,0,0,6.24-2.26c.1-.1,2.42,3.28,3.7,2.23s-2.94-2.59-2.94-2.59,3.76-1.06,3.49-2.11S347.69,269.34,346.59,270.71Z" style="fill:#ebebeb"></path><path d="M578.24,319.8s-7.69-1.61-11.36-.72-8.41,6.08-8.41,6.08,8.3,1.23,11.59.43,8.38-4.56,8.38-4.56,4,2.24,4.56,1.17-3.82-1.71-3.82-1.71,5.43-1.64,4.59-3.05S578.24,319.8,578.24,319.8Z" style="fill:#ebebeb"></path><path d="M685.38,301.87s-3.4-2.41-5.73-2.86-7,2.55-7,2.55,3.54,3,6.37,3.44,6.07-2,6.07-2,3.8,2.69,4.33,1.79-3.4-2.14-3.4-2.14,4.48-.27,4.39-1.66S685.38,301.87,685.38,301.87Z" style="fill:#ebebeb"></path><path d="M595.28,307.81a15.07,15.07,0,0,0-4.75-1.15c-1.81.07-4.78,3.11-4.78,3.11s3.15,1.65,5.33,1.46,4.17-2.51,4.17-2.51,3.29,1.35,3.54.59-2.9-1-2.9-1,3.28-1,3-2S595.28,307.81,595.28,307.81Z" style="fill:#ebebeb"></path><path d="M677.89,252.64s-50.21-27.16-94.95-27.16c-29.1,0-104,17.82-125.72,19.37-64.27,4.61-185.7,7.79-185.7,7.79Z" style="fill:#dbdbdb"></path><path d="M271.52,252.64s56.87-19.73,87.24-19.73c32.29,0,54.8,4.08,98.46,10.78,16.62,2.55,127,8.95,127,8.95Z" style="fill:#c7c7c7"></path><polygon points="560.05 159.2 561.61 159.2 562.44 231.32 559.5 231.32 560.05 159.2" style="fill:#dbdbdb"></polygon><polygon points="547.58 171.78 547.58 170.89 560.84 170.42 560.84 172.09 547.58 171.78" style="fill:#dbdbdb"></polygon><polygon points="550.94 180.94 550.94 180.05 560.84 179.58 560.84 181.25 550.94 180.94" style="fill:#dbdbdb"></polygon><polygon points="515.27 183.33 516.83 183.33 517.66 231.32 514.72 231.32 515.27 183.33" style="fill:#dbdbdb"></polygon><polygon points="508.64 199.63 508.64 198.94 516.06 198.57 516.06 199.87 508.64 199.63" style="fill:#dbdbdb"></polygon><polygon points="510.52 195.21 510.52 194.52 516.06 194.16 516.06 195.46 510.52 195.21" style="fill:#dbdbdb"></polygon><polygon points="523.48 199.63 523.48 198.94 516.06 198.57 516.06 199.87 523.48 199.63" style="fill:#dbdbdb"></polygon><polygon points="521.6 195.21 521.6 194.52 516.06 194.16 516.06 195.46 521.6 195.21" style="fill:#dbdbdb"></polygon><polygon points="565.6 189.49 565.6 188.6 578.85 188.13 578.85 189.8 565.6 189.49" style="fill:#dbdbdb"></polygon><polygon points="568.96 196.27 568.96 195.39 578.85 194.92 578.85 196.59 568.96 196.27" style="fill:#dbdbdb"></polygon><rect x="578.7" y="191.52" width="49.21" height="41.37" transform="translate(1206.61 424.41) rotate(180)" style="fill:#dbdbdb"></rect><rect x="576.74" y="188.13" width="53.13" height="3.39" transform="translate(1206.61 379.65) rotate(180)" style="fill:#dbdbdb"></rect><polygon points="593.73 232.89 594.27 232.89 594.27 196.02 606.7 196.02 606.7 232.89 607.25 232.89 607.25 195.48 593.73 195.48 593.73 232.89" style="fill:#dbdbdb"></polygon><rect x="609.53" y="195.75" width="11.61" height="25.54" transform="translate(1230.68 417.05) rotate(180)" style="fill:#fff"></rect><rect x="578.7" y="195.75" width="12.81" height="25.54" transform="translate(1170.21 417.05) rotate(180)" style="fill:#fff"></rect><rect x="595.67" y="197.39" width="9.65" height="23.9" transform="translate(1200.98 418.69) rotate(180)" style="fill:#fff"></rect><rect x="623.32" y="195.75" width="4.59" height="25.54" transform="translate(1251.23 417.05) rotate(180)" style="fill:#fff"></rect><polygon points="623.32 197.21 623.32 203.39 627.91 207.98 627.91 201.8 623.32 197.21" style="fill:#ebebeb"></polygon><polygon points="615.68 195.75 621.15 201.22 621.15 195.75 615.68 195.75" style="fill:#ebebeb"></polygon><polygon points="578.7 213.93 578.7 220.1 579.89 221.29 586.07 221.29 578.7 213.93" style="fill:#ebebeb"></polygon><polygon points="618.48 221.29 609.53 212.35 609.53 218.53 612.3 221.29 618.48 221.29" style="fill:#ebebeb"></polygon><polygon points="595.66 198.48 595.66 204.66 605.31 214.3 605.31 208.13 595.66 198.48" style="fill:#ebebeb"></polygon><polygon points="586.76 195.75 591.51 200.5 591.51 195.75 586.76 195.75" style="fill:#ebebeb"></polygon><polygon points="627.91 217.06 623.32 212.47 623.32 215.45 627.91 220.03 627.91 217.06" style="fill:#ebebeb"></polygon><polygon points="609.53 198.68 609.53 201.66 621.15 213.28 621.15 210.29 609.53 198.68" style="fill:#ebebeb"></polygon><polygon points="605.27 197.39 605.31 197.44 605.31 197.39 605.27 197.39" style="fill:#ebebeb"></polygon><polygon points="599.88 221.29 595.66 217.08 595.66 220.06 596.9 221.29 599.88 221.29" style="fill:#ebebeb"></polygon><polygon points="578.7 200.11 578.7 203.09 591.51 215.91 591.51 212.93 578.7 200.11" style="fill:#ebebeb"></polygon><polygon points="623.43 195.75 627.91 200.23 627.91 199.38 624.28 195.75 623.43 195.75" style="fill:#ebebeb"></polygon><polygon points="605.31 218.21 595.66 208.57 595.66 209.41 605.31 219.06 605.31 218.21" style="fill:#ebebeb"></polygon><polygon points="582.01 195.75 591.51 205.26 591.51 204.41 582.85 195.75 582.01 195.75" style="fill:#ebebeb"></polygon><rect x="490.26" y="219.01" width="2.16" height="7.17" transform="translate(-47.99 213.3) rotate(-23.38)" style="fill:#dbdbdb"></rect><rect x="499.62" y="219.01" width="2.16" height="7.17" transform="translate(-47.22 217.02) rotate(-23.39)" style="fill:#dbdbdb"></rect><rect x="509.05" y="218.99" width="2.16" height="7.6" transform="translate(-46.52 220.78) rotate(-23.39)" style="fill:#dbdbdb"></rect><rect x="518.46" y="218.98" width="2.16" height="7.86" transform="translate(-45.8 224.54) rotate(-23.39)" style="fill:#dbdbdb"></rect><rect x="528.21" y="218.83" width="2.16" height="8.65" transform="translate(-43.62 264.64) rotate(-27)" style="fill:#dbdbdb"></rect><rect x="488.9" y="218.27" width="39.34" height="2.16" style="fill:#dbdbdb"></rect><path d="M492,226.42l9.45,25.32H629.19s14.62-12.3,31.74-33.34C660.93,218.4,635,218.36,492,226.42Z" style="fill:#dbdbdb"></path><path d="M648.3,233a235.26,235.26,0,0,1-19.11,18.77H501.47l-5.36-14.35C512.61,236.6,596.3,232.23,648.3,233Z" style="fill:#dbdbdb;opacity:0.1"></path><path d="M500.78,249.9l.69,1.84H629.19s14.62-12.3,31.73-33.33c-.65.62-21.39,20.21-53.74,25.41C581,248,526.35,249.48,500.78,249.9Z" style="fill:#dbdbdb;opacity:0.1"></path><path d="M492.12,227.5c35.57-3.35,167.52-8,168.85-8l-.08-2.16c-1.33,0-133.34,4.67-169,8Z" style="fill:#dbdbdb"></path><rect x="657.44" y="214.3" width="7.17" height="2.16" transform="translate(200.87 736.54) rotate(-66.6)" style="fill:#dbdbdb"></rect><rect x="648.09" y="214.3" width="7.17" height="2.16" transform="translate(195.26 727.98) rotate(-66.61)" style="fill:#dbdbdb"></rect><rect x="638.44" y="214.5" width="7.6" height="2.16" transform="translate(189.39 719.44) rotate(-66.61)" style="fill:#dbdbdb"></rect><rect x="628.9" y="214.62" width="7.86" height="2.16" transform="translate(183.61 710.88) rotate(-66.61)" style="fill:#dbdbdb"></rect><rect x="618.75" y="214.86" width="8.65" height="2.16" transform="translate(147.7 672.97) rotate(-62.99)" style="fill:#dbdbdb"></rect><rect x="624.14" y="211.06" width="39.34" height="2.16" style="fill:#dbdbdb"></rect><polygon points="657.18 219.06 661.15 219.06 666.28 206.62 664.74 206.62 657.18 219.06" style="fill:#dbdbdb"></polygon><path d="M529.37,232a6.38,6.38,0,1,1,6.38,6.38A6.38,6.38,0,0,1,529.37,232Zm3.78,0a2.6,2.6,0,1,0,2.6-2.59A2.6,2.6,0,0,0,533.15,232Z" style="fill:#dbdbdb"></path><rect x="534.66" y="223.72" width="2.16" height="5.83" style="fill:#dbdbdb"></rect><path d="M551.68,231.44a6.38,6.38,0,1,1,6.38,6.38A6.38,6.38,0,0,1,551.68,231.44Zm3.78,0a2.6,2.6,0,1,0,2.6-2.6A2.6,2.6,0,0,0,555.46,231.44Z" style="fill:#dbdbdb"></path><rect x="556.98" y="223.16" width="2.16" height="5.83" style="fill:#dbdbdb"></rect><rect x="577.71" y="152.47" width="0.54" height="44.42" transform="translate(72.59 505.08) rotate(-49.99)" style="fill:#dbdbdb"></rect><rect x="512.74" y="173.04" width="51.68" height="0.54" transform="translate(-14.59 292.11) rotate(-29.96)" style="fill:#dbdbdb"></rect><polygon points="516.24 200.07 560.94 160.79 584.59 189.14 585 188.79 561 160.02 515.88 199.67 516.24 200.07" style="fill:#dbdbdb"></polygon><rect x="481.08" y="202.51" width="42.93" height="0.54" transform="translate(26.53 461.79) rotate(-50.53)" style="fill:#dbdbdb"></rect><rect x="485.77" y="209.34" width="33.42" height="0.54" transform="translate(-27.99 332.2) rotate(-35.66)" style="fill:#dbdbdb"></rect><rect x="582.99" y="185.53" width="6.95" height="0.54" transform="translate(-27.01 231.81) rotate(-21.87)" style="fill:#dbdbdb"></rect><rect x="578.79" y="180.7" width="5.63" height="0.54" transform="translate(-25.72 227.61) rotate(-21.68)" style="fill:#dbdbdb"></rect><rect x="574.64" y="175.88" width="4.24" height="0.54" transform="translate(-21.85 249.28) rotate(-23.95)" style="fill:#dbdbdb"></rect><rect x="570.77" y="171.44" width="3.1" height="0.54" transform="translate(-22.92 223.86) rotate(-21.71)" style="fill:#dbdbdb"></rect><rect x="567.21" y="167.33" width="1.96" height="0.54" transform="translate(-20.91 229.99) rotate(-22.48)" style="fill:#dbdbdb"></rect><rect x="564.37" y="164.05" width="1.05" height="0.54" transform="translate(-17.23 249.42) rotate(-24.54)" style="fill:#dbdbdb"></rect></g><g id="freepik--Boat--inject-193"><polygon points="282.19 64.08 278.75 64.08 276.92 223.23 283.41 223.23 282.19 64.08" style="fill:#263238"></polygon><polygon points="309.72 91.83 309.72 89.88 280.46 88.84 280.46 92.52 309.72 91.83" style="fill:#263238"></polygon><polygon points="302.31 112.04 302.31 110.09 280.46 109.05 280.46 112.73 302.31 112.04" style="fill:#263238"></polygon><polygon points="381.01 117.32 377.57 117.32 375.74 223.23 382.23 223.23 381.01 117.32" style="fill:#263238"></polygon><polygon points="395.65 153.28 395.65 151.76 379.28 150.96 379.28 153.82 395.65 153.28" style="fill:#263238"></polygon><polygon points="391.5 143.54 391.5 142.02 379.28 141.21 379.28 144.08 391.5 143.54" style="fill:#263238"></polygon><polygon points="362.9 153.28 362.9 151.76 379.28 150.96 379.28 153.82 362.9 153.28" style="fill:#263238"></polygon><polygon points="367.05 143.54 367.05 142.02 379.28 141.21 379.28 144.08 367.05 143.54" style="fill:#263238"></polygon><polygon points="269.96 130.91 269.96 128.96 240.7 127.92 240.7 131.6 269.96 130.91" style="fill:#263238"></polygon><polygon points="262.54 145.89 262.54 143.94 240.7 142.9 240.7 146.58 262.54 145.89" style="fill:#263238"></polygon><rect x="132.44" y="135.4" width="108.6" height="91.29" style="fill:#dbdbdb"></rect><rect x="128.11" y="127.92" width="117.25" height="7.48" style="fill:#263238"></rect><polygon points="207.77 226.68 206.77 226.68 206.77 145.24 179.14 145.24 179.14 226.68 178.14 226.68 178.14 144.24 207.77 144.24 207.77 226.68" style="fill:#a6a6a6"></polygon><rect x="147.37" y="144.73" width="25.63" height="56.36" style="fill:#37474f"></rect><rect x="212.77" y="144.73" width="28.27" height="56.36" style="fill:#37474f"></rect><rect x="182.31" y="148.36" width="21.29" height="52.74" style="fill:#37474f"></rect><rect x="132.44" y="144.73" width="10.13" height="56.36" style="fill:#37474f"></rect><polygon points="142.57 147.95 142.57 161.59 132.45 171.72 132.45 158.07 142.57 147.95" style="fill:#455a64"></polygon><polygon points="159.42 144.74 147.36 156.8 147.36 144.74 159.42 144.74" style="fill:#455a64"></polygon><polygon points="241.04 184.84 241.04 198.47 238.41 201.1 224.78 201.1 241.04 184.84" style="fill:#455a64"></polygon><polygon points="153.26 201.1 172.99 181.36 172.99 194.99 166.89 201.1 153.26 201.1" style="fill:#455a64"></polygon><polygon points="203.6 150.75 203.6 164.38 182.31 185.67 182.31 172.04 203.6 150.75" style="fill:#455a64"></polygon><polygon points="223.25 144.74 212.77 155.22 212.77 144.74 223.25 144.74" style="fill:#455a64"></polygon><polygon points="132.45 191.74 142.57 181.62 142.57 188.19 132.45 198.32 132.45 191.74" style="fill:#455a64"></polygon><polygon points="172.99 151.2 172.99 157.77 147.36 183.4 147.36 176.83 172.99 151.2" style="fill:#455a64"></polygon><polygon points="182.41 148.36 182.31 148.46 182.31 148.36 182.41 148.36" style="fill:#455a64"></polygon><polygon points="194.31 201.1 203.6 191.81 203.6 198.37 200.88 201.1 194.31 201.1" style="fill:#455a64"></polygon><polygon points="241.04 154.36 241.04 160.93 212.77 189.21 212.77 182.64 241.04 154.36" style="fill:#455a64"></polygon><polygon points="142.32 144.74 132.45 154.61 132.45 152.75 140.46 144.74 142.32 144.74" style="fill:#455a64"></polygon><polygon points="182.31 194.3 203.6 173.01 203.6 174.87 182.31 196.16 182.31 194.3" style="fill:#455a64"></polygon><polygon points="233.74 144.74 212.77 165.71 212.77 163.84 231.87 144.74 233.74 144.74" style="fill:#455a64"></polygon><rect x="425.9" y="201.97" width="15.82" height="4" transform="translate(74.4 521.18) rotate(-66.61)" style="fill:#263238"></rect><rect x="405.26" y="201.97" width="15.82" height="4" transform="translate(61.96 502.24) rotate(-66.61)" style="fill:#263238"></rect><rect x="383.97" y="202.41" width="16.76" height="4" transform="translate(49 483.39) rotate(-66.61)" style="fill:#263238"></rect><rect x="362.92" y="202.67" width="17.35" height="4" transform="translate(36.21 464.47) rotate(-66.61)" style="fill:#263238"></rect><rect x="340.52" y="203.22" width="19.1" height="4" transform="translate(8.25 423.91) rotate(-62.99)" style="fill:#263238"></rect><rect x="352.4" y="194.82" width="86.81" height="4" style="fill:#263238"></rect><path d="M432.32,212.42l-20.85,55.87H129.61s-32.27-27.15-70-73.58C59.57,194.71,116.76,194.62,432.32,212.42Z" style="fill:#ECEFF1"></path><path d="M87.44,226.87c24.5,26.55,42.17,41.42,42.17,41.42H411.47l11.82-31.67C386.89,234.88,202.2,225.23,87.44,226.87Z" style="opacity:0.1"></path><path d="M413,264.23l-1.52,4.06H129.61s-32.25-27.14-70-73.54c1.41,1.35,47.18,44.58,118.58,56.05C236,260.07,356.57,263.29,413,264.23Z" style="opacity:0.1"></path><path d="M432.14,214.41C353.62,207,62.43,196.81,59.5,196.71l.14-4c2.93.1,294.24,10.32,372.87,17.72Z" style="fill:#263238"></path><rect x="57.36" y="180.14" width="4" height="15.82" transform="translate(-69.78 39.03) rotate(-23.39)" style="fill:#263238"></rect><rect x="78" y="180.14" width="4" height="15.82" transform="translate(-68.09 47.22) rotate(-23.4)" style="fill:#263238"></rect><rect x="98.82" y="180.1" width="4" height="16.76" transform="translate(-66.55 55.52) rotate(-23.39)" style="fill:#263238"></rect><rect x="119.57" y="180.08" width="4" height="17.35" transform="translate(-64.95 63.79) rotate(-23.39)" style="fill:#263238"></rect><rect x="141.1" y="179.75" width="4" height="19.1" transform="translate(-70.37 85.65) rotate(-27.01)" style="fill:#263238"></rect><rect x="53.96" y="178.9" width="86.81" height="4" style="fill:#263238"></rect><polygon points="67.86 196.18 59.09 196.18 47.77 168.72 51.16 168.72 67.86 196.18" style="fill:#263238"></polygon><path d="M335.83,238.11a13.4,13.4,0,1,1,13.4-13.4A13.41,13.41,0,0,1,335.83,238.11Zm0-19.8a6.4,6.4,0,1,0,6.4,6.4A6.41,6.41,0,0,0,335.83,218.31Z" style="fill:#263238"></path><rect x="333.83" y="206.45" width="4" height="12.85" style="fill:#fff"></rect><path d="M286.59,236.89a13.41,13.41,0,1,1,13.4-13.4A13.42,13.42,0,0,1,286.59,236.89Zm0-19.81a6.41,6.41,0,1,0,6.4,6.41A6.41,6.41,0,0,0,286.59,217.08Z" style="fill:#263238"></path><rect x="284.59" y="205.22" width="4" height="12.85" style="fill:#fff"></rect><rect x="193.6" y="97.75" width="98.04" height="1" transform="translate(-6.38 178.97) rotate(-40.01)" style="fill:#263238"></rect><rect x="329.07" y="38.18" width="1" height="114.05" transform="translate(82.5 333.2) rotate(-60.04)" style="fill:#263238"></rect><polygon points="378.95 154.2 280.22 67.45 227.97 130.08 227.2 129.44 280.11 66.02 280.5 66.36 379.61 153.45 378.95 154.2" style="fill:#263238"></polygon><rect x="408.6" y="112.88" width="1" height="94.74" transform="translate(-8.57 296.63) rotate(-39.47)" style="fill:#263238"></rect><rect x="408.74" y="138.44" width="1" height="73.76" transform="translate(28.23 405.64) rotate(-54.34)" style="fill:#263238"></rect><rect x="223.41" y="115.11" width="1" height="15.33" transform="translate(26.57 284.84) rotate(-68.13)" style="fill:#263238"></rect><rect x="234.12" y="105.89" width="1" height="12.43" transform="translate(43.77 288.72) rotate(-68.32)" style="fill:#263238"></rect><rect x="244.82" y="96.79" width="1" height="9.36" transform="translate(53 284.48) rotate(-66.05)" style="fill:#263238"></rect><rect x="254.63" y="88.26" width="1" height="6.83" transform="translate(75.58 294.79) rotate(-68.29)" style="fill:#263238"></rect><rect x="263.73" y="80.45" width="1" height="4.33" transform="translate(86.87 295.18) rotate(-67.52)" style="fill:#263238"></rect><rect x="271" y="74.22" width="1" height="2.32" transform="translate(90.23 291.1) rotate(-65.48)" style="fill:#263238"></rect></g><g id="freepik--Birds--inject-193"><path d="M402.83,139.82a21,21,0,0,1,2.58-1.1,10.49,10.49,0,0,1,2.81-.65,2.33,2.33,0,0,1,.87.1,1.25,1.25,0,0,1,.27.12l.17.13a2.62,2.62,0,0,1,.3.24,14.38,14.38,0,0,1,1,1c.63.71,1.2,1.45,1.76,2.21l-.7-.24a21.54,21.54,0,0,1,2.87-.61,14.72,14.72,0,0,1,1.5-.1,4.44,4.44,0,0,1,.8.06,2.41,2.41,0,0,1,.43.1,4.14,4.14,0,0,1,.43.2,5.35,5.35,0,0,1,1.13,1.09,11.92,11.92,0,0,1,.85,1.2,18.35,18.35,0,0,1,1.34,2.56c-.62-.73-1.21-1.48-1.85-2.18-.31-.35-.63-.69-1-1a4.65,4.65,0,0,0-1-.79,2.6,2.6,0,0,0-1.13-.11,10.74,10.74,0,0,0-1.34.18c-.9.16-1.82.39-2.7.63l-.45.12-.25-.37c-.52-.74-1.08-1.47-1.64-2.17a12.23,12.23,0,0,0-.87-1l-.22-.21-.1-.09,0,0a1.46,1.46,0,0,0-.5-.1,13.82,13.82,0,0,0-2.65.26C404.65,139.46,403.75,139.65,402.83,139.82Z" style="fill:#263238"></path><path d="M413,167.23a29.5,29.5,0,0,1,3.47-2.37,16.06,16.06,0,0,1,3.94-1.78,3.82,3.82,0,0,1,1.31-.11,2,2,0,0,1,.44.11l.28.13a5,5,0,0,1,.52.28,19.72,19.72,0,0,1,1.81,1.22c1.14.86,2.18,1.79,3.23,2.74l-1.1-.16a32.8,32.8,0,0,1,4.05-1.72,18.16,18.16,0,0,1,2.17-.6,8.79,8.79,0,0,1,1.19-.15,5,5,0,0,1,.66,0,4.12,4.12,0,0,1,.69.18,7.47,7.47,0,0,1,2,1.26,21,21,0,0,1,1.6,1.52,26.57,26.57,0,0,1,2.71,3.38c-1.12-.91-2.21-1.83-3.35-2.67a19.53,19.53,0,0,0-1.71-1.2,7,7,0,0,0-1.71-.86,3.89,3.89,0,0,0-1.69.17,14.42,14.42,0,0,0-1.91.66c-1.28.5-2.57,1.1-3.8,1.71l-.61.3-.49-.46c-1-.94-2-1.85-3-2.72a17.23,17.23,0,0,0-1.56-1.21,4.11,4.11,0,0,0-.39-.24l-.17-.1s0,0-.07,0a2.07,2.07,0,0,0-.75,0,20.28,20.28,0,0,0-3.83,1.15C415.55,166.17,414.27,166.72,413,167.23Z" style="fill:#263238"></path><path d="M641.52,113.27a19,19,0,0,1,2.37-1.51,10.62,10.62,0,0,1,2.67-1.1,2.46,2.46,0,0,1,.88,0,1.21,1.21,0,0,1,.28.08l.19.09.34.2c.43.27.8.56,1.18.85.74.6,1.42,1.24,2.1,1.9l-.73-.13a22.65,22.65,0,0,1,2.73-1.06,11.66,11.66,0,0,1,1.47-.35,4.94,4.94,0,0,1,.79-.07,1.66,1.66,0,0,1,.44,0,2.64,2.64,0,0,1,.46.13,5,5,0,0,1,1.3.89,14.43,14.43,0,0,1,1,1,18.61,18.61,0,0,1,1.74,2.31c-.73-.63-1.44-1.26-2.18-1.85-.37-.29-.74-.58-1.12-.83a4.45,4.45,0,0,0-1.12-.61,2.51,2.51,0,0,0-1.13.07,10.62,10.62,0,0,0-1.29.4c-.87.31-1.74.68-2.57,1.06l-.42.19-.31-.32c-.63-.64-1.3-1.27-2-1.88a11.35,11.35,0,0,0-1-.84,1.84,1.84,0,0,0-.25-.17l-.12-.07,0,0a1.54,1.54,0,0,0-.5,0,14.34,14.34,0,0,0-2.58.69C643.27,112.62,642.4,113,641.52,113.27Z" style="fill:#263238"></path><path d="M618.54,101.27a29.55,29.55,0,0,1,2.61-3.3,15.77,15.77,0,0,1,3.24-2.86,3.56,3.56,0,0,1,1.21-.5,2.12,2.12,0,0,1,.45,0l.31,0,.58.11a19.54,19.54,0,0,1,2.09.64c1.34.48,2.61,1,3.9,1.65l-1.1.18a33.62,33.62,0,0,1,3.35-2.85,16.6,16.6,0,0,1,1.9-1.21,7.82,7.82,0,0,1,1.09-.5,5.41,5.41,0,0,1,.64-.17,4.22,4.22,0,0,1,.71,0,7.34,7.34,0,0,1,2.27.62,21.37,21.37,0,0,1,2,1,27.51,27.51,0,0,1,3.59,2.42c-1.34-.53-2.66-1.09-4-1.55-.66-.24-1.33-.47-2-.64a6.77,6.77,0,0,0-1.89-.31,3.86,3.86,0,0,0-1.56.66,14.89,14.89,0,0,0-1.64,1.2c-1.07.85-2.12,1.81-3.11,2.75l-.5.48-.6-.3c-1.21-.6-2.47-1.17-3.71-1.69a16.18,16.18,0,0,0-1.85-.7c-.15,0-.31-.09-.44-.11l-.2,0s0,0-.07,0a2,2,0,0,0-.72.22,20.31,20.31,0,0,0-3.31,2.24C620.69,99.49,619.63,100.39,618.54,101.27Z" style="fill:#263238"></path><path d="M380.18,160.5a31.57,31.57,0,0,1,2.6-3.29,16.39,16.39,0,0,1,3.24-2.87,3.53,3.53,0,0,1,1.22-.5,2.06,2.06,0,0,1,.44,0l.32,0a4.8,4.8,0,0,1,.57.11,18.22,18.22,0,0,1,2.09.63c1.34.48,2.62,1.06,3.9,1.66l-1.09.17a31.41,31.41,0,0,1,3.35-2.84,17.16,17.16,0,0,1,1.9-1.22,7.8,7.8,0,0,1,1.09-.49,3.73,3.73,0,0,1,.64-.17,5.53,5.53,0,0,1,.71,0,7.71,7.71,0,0,1,2.27.62c.69.29,1.33.63,2,1a27.51,27.51,0,0,1,3.59,2.42c-1.34-.53-2.65-1.08-4-1.55a19.22,19.22,0,0,0-2-.63,7.12,7.12,0,0,0-1.89-.32,3.86,3.86,0,0,0-1.56.66,17.91,17.91,0,0,0-1.63,1.2c-1.07.86-2.12,1.81-3.12,2.76l-.49.48-.6-.3c-1.21-.61-2.47-1.17-3.71-1.7a18.35,18.35,0,0,0-1.86-.69,4,4,0,0,0-.43-.12l-.2,0s0,0-.08,0a2.08,2.08,0,0,0-.72.23,21.36,21.36,0,0,0-3.31,2.23C382.32,158.73,381.26,159.62,380.18,160.5Z" style="fill:#263238"></path></g><g id="freepik--Water--inject-193"><path d="M50.16,271.44c30.16,0,60.87-8.57,66.58-8.57,3.36,0,52,5.4,82.42,5.4s64.61-7.14,72.36-7.14c10.93,0,57.4,6.8,103.24,6.8s91.79-7.15,103.14-7.15c7.73,0,69.61,10.66,99.52,10.66,28.24,0,58.4-10.66,68-10.66,11.27,0,33.55,13.89,54.41,13.89" style="fill:#fff"></path><path d="M50.16,271.34c13.65-.18,27.2-2,40.62-4.4,6.71-1.18,13.38-2.59,20.09-3.91,2.48-.45,5.2-1.07,7.78-.75,17.79,1.49,35.78,3.19,53.57,4.16,6.8.36,13.61.72,20.41.88,20.46.54,40.8-1.78,61.05-4.56,6.22-.7,14.3-2.38,20.44-2,34,3.08,67.93,7,102.07,6.57,27.29-.24,54.46-2.91,81.58-5.84,5.93-.56,14.54-1.7,20.51-1.72,6.23.34,14.26,1.68,20.44,2.43,23.63,3.16,47.27,6.74,71.09,8,3.35.16,6.83.27,10.17.19,13.55-.25,27-2.66,40.32-5.53,6.67-1.42,13.29-3.06,20.07-4.22a23.17,23.17,0,0,1,10.38.26c16.39,4.52,31.74,13.38,49.09,13.64v.2c-13.79,0-26.84-5.21-39.63-9.74-6.31-2.19-12.9-4.67-19.62-3.07-20,4.15-39.9,9.93-60.57,10.39-13.73.25-27.35-1.28-41-2.76-16.83-1.9-34-4.35-50.76-6.68-3.35-.43-6.8-.94-10.05-1.12-5.67,0-14.48,1.09-20.29,1.61-54.3,6.66-109.19,6.18-163.51,0-7.63-.66-15.27-1.63-22.91-1.82-5.14.21-12.63,1.62-17.7,2.3-13.49,2.05-27.05,3.91-40.71,4.78-27.36,1.57-54.65-1.4-81.86-3.74l-10.18-1-2.55-.23-1.24-.09a32,32,0,0,0-6.19.72c-6.7,1.22-13.41,2.55-20.16,3.64-13.37,2-27.62,4.07-40.79,3.37Z" style="fill:#455a64"></path><g style="opacity:0.5"><path d="M508.41,283.54a227.66,227.66,0,0,0,31.91-3.39q7.88-1.47,15.65-3.47c5.51-1.28,12.23-3.63,17.91-3.78a36.43,36.43,0,0,1,4.16.43c8.59,1.59,17,4.11,25.51,5.9a182.65,182.65,0,0,0,31.78,4.31,137.55,137.55,0,0,1-16.11-.48c-13.4-1.13-26.45-4.64-39.55-7.44-5.32-1.37-10.26-.44-15.44.94l-7.81,1.95a173,173,0,0,1-48,5Z" style="fill:#455a64"></path><path d="M354,290.44a224.4,224.4,0,0,0,31.91-3.39q7.89-1.46,15.65-3.47c5.51-1.27,12.23-3.62,17.92-3.77a36.46,36.46,0,0,1,4.15.42c8.6,1.59,17,4.11,25.52,5.91a182.39,182.39,0,0,0,31.77,4.3,137.68,137.68,0,0,1-16.11-.48c-13.4-1.13-26.45-4.64-39.55-7.44-5.32-1.36-10.26-.43-15.44,1L402,285.42a173,173,0,0,1-48,5Z" style="fill:#455a64"></path><path d="M79.92,285.23a141.78,141.78,0,0,0,28.24-4.46c3.78-.84,8.13-2.6,12.06-2.19,5.59.82,10.95,2.6,16.44,3.78a119.58,119.58,0,0,0,18.87,2.87,75.36,75.36,0,0,1-9.62-.09,125.74,125.74,0,0,1-19-3.23c-3-.59-6.14-1.65-9.1-1.36-6.11,1-12.44,3.14-18.7,3.88a93,93,0,0,1-19.22.8Z" style="fill:#455a64"></path><path d="M459.43,279.64a141.8,141.8,0,0,0,28.23-4.46c3.78-.84,8.13-2.6,12.07-2.19,5.58.82,10.95,2.59,16.44,3.77A119.24,119.24,0,0,0,535,279.64a77.21,77.21,0,0,1-9.62-.09,126.92,126.92,0,0,1-19-3.23c-3-.6-6.14-1.65-9.1-1.36-6.11,1-12.43,3.14-18.7,3.88a93.65,93.65,0,0,1-19.21.8Z" style="fill:#455a64"></path><path d="M330.66,279.49c-20.53.47-41.38-1.39-61.18-7.39-4.37-1.28-8.64-2-13.11-.74-6.65,1.62-13.07,4.06-19.74,5.75a91.14,91.14,0,0,1-41.18,1.74c-4.54-.8-9-1.86-13.46-3.07-6.59-1.63-13-4.43-19.72-5.24-2.13-.1-4.34.83-6.41,1.47-4.31,1.47-8.66,3-13.1,4.16a98,98,0,0,1-27.23,3.32,102.43,102.43,0,0,0,27-4.23c4.38-1.28,8.65-2.84,13-4.41,2.25-.74,4.41-1.73,6.87-1.67,6.95.69,13.41,3.32,20.11,4.94,4.4,1.18,8.84,2.2,13.31,3a93.44,93.44,0,0,0,40.41-1.79c6.65-1.63,13.12-4,19.83-5.6,4.52-1.28,9.5-.41,13.89,1,19.59,6.26,40.21,8.51,60.78,8.82Z" style="fill:#455a64"></path></g><path d="M619.1,338.47c-4.23.41-8.43-.28-12.52-.8s-8-1.23-11.87-1.82c-11.5-1.75-23-2.87-34.64-1.46-8,.92-15.73,3.16-23.79,4.27-22.12,3.39-40.61-3.92-61.74-4.33-7.26,0-14,1.29-21,2.84-7.74,1.65-16.17,3.87-24.49,3v-.56c8-1.06,14.63-4,22.08-6.54,12.66-4.46,23.82-5.89,37.82-3.51,7.07,1.14,16.61,3.37,23.59,4.84,7.56,1.61,15.27,3.13,23.25,2.41,12.48-.92,22.82-6.73,35.42-7.7,8.59-.72,17.15.71,25.15,2.55,6.73,1.53,13.31,3.83,19.84,5.64l1.41.35,1.44.27v.55Z" style="fill:#455a64;opacity:0.2"></path><path d="M380.43,470.07c-4.23.41-8.42-.28-12.51-.81S360,468,356,467.45c-11.5-1.76-23-2.87-34.64-1.46-8,.91-15.72,3.16-23.79,4.27-22.11,3.38-40.61-3.92-61.74-4.33-7.26,0-14,1.29-21,2.83-7.73,1.65-16.17,3.87-24.49,3v-.56c8-1.06,14.63-4,22.09-6.54,12.65-4.47,23.82-5.89,37.82-3.52,7.06,1.14,16.61,3.37,23.58,4.85,7.56,1.6,15.28,3.13,23.25,2.4,12.49-.92,22.83-6.72,35.42-7.7,8.6-.72,17.15.71,25.16,2.56,6.73,1.53,13.31,3.82,19.83,5.63l1.41.35,1.44.27v.56Z" style="fill:#455a64;opacity:0.30000000000000004"></path><path d="M244.5,314.62c-4.23.41-8.42-.28-12.51-.81s-8-1.22-11.88-1.81c-11.5-1.75-23-2.87-34.64-1.46-8,.92-15.72,3.16-23.79,4.27-22.11,3.38-40.61-3.92-61.74-4.33-7.26,0-14,1.29-21,2.83-7.73,1.66-16.17,3.87-24.49,3v-.56c8-1.06,14.63-4.05,22.08-6.54,12.66-4.47,23.83-5.89,37.83-3.51,7.06,1.13,16.61,3.37,23.58,4.84,7.56,1.6,15.28,3.13,23.25,2.41,12.49-.92,22.83-6.73,35.42-7.71,8.6-.72,17.15.72,25.16,2.56,6.73,1.53,13.31,3.83,19.83,5.64l1.41.34,1.44.27v.56Z" style="fill:#455a64;opacity:0.2"></path><path d="M695.5,419.81c-4.23.41-8.42-.28-12.51-.8s-8-1.23-11.88-1.82c-11.5-1.75-23-2.87-34.64-1.46-8,.92-15.72,3.16-23.79,4.27-22.11,3.38-40.61-3.92-61.74-4.33-7.26,0-14,1.29-21,2.83-7.73,1.66-16.17,3.88-24.49,3V421c8-1.06,14.63-4.05,22.09-6.54,12.65-4.47,23.82-5.89,37.82-3.51,7.06,1.13,16.61,3.37,23.58,4.84,7.56,1.61,15.28,3.13,23.25,2.41,12.49-.92,22.83-6.73,35.42-7.71,8.6-.72,17.15.72,25.16,2.56,6.73,1.53,13.31,3.83,19.83,5.64l1.41.35,1.44.26v.56Z" style="fill:#455a64;opacity:0.2"></path><path d="M686.22,318.7c-6.28.72-12.7-.61-18.76-1.47L650,314.41c-5.74-1-11.67-1.92-17.64-1.31-8.52.82-15.85,4.18-23.81,6.25-16.57,4.13-33.48.18-49.09-3.78-5.79-1.44-11.45-2.72-17.49-3.7v-.56c18.39-2.47,36.34,3.6,54.35,4.44,15.11.4,30-4.12,45-5.7a70,70,0,0,1,10.93-.19c9,.72,17.55,3.18,25.66,5.79,2.09.67,4.12,1.37,6.24,2,.71.22,1.4.34,2.14.53v.56Z" style="fill:#455a64;opacity:0.30000000000000004"></path><path d="M270.77,441.74c-6.28.73-12.71-.61-18.77-1.47l-17.5-2.82c-5.74-1-11.66-1.92-17.64-1.3-8.51.81-15.85,4.17-23.81,6.24-16.57,4.13-33.47.19-49.08-3.78-5.8-1.44-11.45-2.71-17.5-3.7v-.56c18.39-2.47,36.34,3.61,54.36,4.44,15.11.4,30-4.11,45-5.7a71.38,71.38,0,0,1,10.94-.19c9,.72,17.54,3.18,25.66,5.79,2.08.67,4.11,1.37,6.23,2,.71.22,1.4.35,2.15.53v.56Z" style="fill:#455a64;opacity:0.2"></path><path d="M104.22,339.06c3.92-.91,8.32-.44,12.25,0a72.22,72.22,0,0,1,11.1,2.22c3.5,1.07,6.87,2.6,10.61,3.22a35.53,35.53,0,0,0,11.32.09c2.62-.4,5.47-1,8-1.5,4.48-.87,8.59-2.19,13.18-3.2,7.49-1.63,16.33-2.71,24.07-.85v.56c-3.85.95-7.35,1.84-10.78,2.86-3.17.91-7.23,2.23-10.42,3.06-6.42,1.64-13.92,2.88-21,2.43-5-.42-10-1.35-14.91-1.68-3.91-.3-8.07-.1-12-.52a57.92,57.92,0,0,1-11.12-2.55c-3.59-1.09-6.78-2.44-10.35-3.62v-.56Z" style="fill:#455a64;opacity:0.2"></path><path d="M550.78,388.94c-3.92.91-8.32.44-12.25,0a73.44,73.44,0,0,1-11.1-2.23c-3.5-1.07-6.87-2.6-10.61-3.22a35.83,35.83,0,0,0-11.32-.09c-2.61.4-5.47,1-8,1.51-4.48.86-8.59,2.18-13.18,3.19-7.49,1.63-16.33,2.71-24.07.86v-.56c3.85-1,7.35-1.85,10.78-2.86,3.17-.91,7.23-2.24,10.42-3.07A69.79,69.79,0,0,1,502.37,380c5,.43,10,1.35,14.91,1.68,3.91.3,8.07.1,12,.52a57.92,57.92,0,0,1,11.12,2.55c3.59,1.1,6.78,2.44,10.35,3.63v.55Z" style="fill:#455a64;opacity:0.30000000000000004"></path><path d="M255.52,376.39c3.92-.91,8.31-.44,12.25,0a73.44,73.44,0,0,1,11.1,2.23c3.49,1.07,6.87,2.6,10.61,3.22a35.76,35.76,0,0,0,11.31.09c2.62-.4,5.48-1,8-1.51,4.48-.86,8.59-2.18,13.18-3.19,7.49-1.63,16.33-2.71,24.07-.86V377c-3.85,1-7.35,1.85-10.78,2.86-3.18.91-7.24,2.24-10.42,3.07-6.43,1.64-13.93,2.88-20.95,2.43-5-.43-10-1.35-14.91-1.68-3.92-.3-8.07-.1-12-.52a58.19,58.19,0,0,1-11.13-2.55c-3.59-1.1-6.77-2.44-10.34-3.62v-.56Z" style="fill:#455a64;opacity:0.30000000000000004"></path></g><g id="freepik--Fishes--inject-193"><path d="M141.5,313.47c.62.28,12.62-9,20.38-7.74s17.48,8.81,18,9.12-4.1,1.75-3.94,1.9,2.86-.51,3.27-.25-10.6,11.25-18.59,10.39c-9.77-1-19.43-10.62-19.43-10.62s-2.53,7.16-4.71,5.5,2.54-6.22,2.54-6.22a6.75,6.75,0,0,1-4.34-.5c-1.76-1.08-4.45-6.17-3.29-6.78C134.28,306.78,141.5,313.47,141.5,313.47Z" style="fill:#ECEFF1"></path><path d="M170.64,313.87a1.65,1.65,0,0,0-1.36,3A1.65,1.65,0,0,0,170.64,313.87Z" style="fill:#263238"></path><path d="M162.71,316.35c.09-2.4,3.07-5.77,5.49-7.65,0,0,0-.09,0-.06-1.55,1-6.47,4.5-6.26,8.11.17,2.87,4.94,6.61,6.66,7.43.12.06.17,0,.07-.11-1.23-1-6-5.32-5.91-7.72" style="opacity:0.2"></path><path d="M591,434.13s-10.69-8.61-18.77-8.38-16.57,8.24-16.8,8.77,4.52,1.29,4.52,1.29-3.4-.41-3.81.05,8.88,7.44,14.66,8.51,19.75-8.23,19.75-8.23,3,5.85,5.38,3.93c1.52-1.21-4.06-4.65-4.06-4.65s9.93-1.49,8.06-3.79C598.47,429.86,592.91,430.73,591,434.13Z" style="fill:#ECEFF1"></path><path d="M563.1,434.17a1.65,1.65,0,0,1,1.57,2.89A1.65,1.65,0,0,1,563.1,434.17Z" style="fill:#263238"></path><path d="M567.6,442.94c1.16-1.05,5.6-5.73,5.34-8.12s-3.47-5.53-6-7.23a0,0,0,0,1,0-.07c1.62.85,6.78,4,6.83,7.64,0,2.88-4.46,6.95-6.12,7.9C567.56,443.12,567.5,443,567.6,442.94Z" style="opacity:0.2"></path><path d="M563,294s10.27-8.27,18-8,15.91,7.91,16.13,8.43-4.33,1.23-4.33,1.23,3.25-.39,3.65.05-8.53,7.14-14.08,8.17-19-7.9-19-7.9-2.88,5.62-5.17,3.78c-1.45-1.17,3.9-4.47,3.9-4.47s-9.53-1.43-7.73-3.64C555.81,289.86,561.15,290.69,563,294Z" style="fill:#ECEFF1"></path><path d="M589.76,294a1.58,1.58,0,0,0-1.5,2.79A1.58,1.58,0,0,0,589.76,294Z" style="fill:#263238"></path><path d="M585.45,302.42c-1.11-1-5.38-5.5-5.13-7.79s3.33-5.32,5.78-6.95a0,0,0,0,0,0-.07c-1.55.82-6.51,3.87-6.56,7.34,0,2.76,4.28,6.67,5.87,7.58C585.49,302.6,585.54,302.51,585.45,302.42Z" style="opacity:0.2"></path><path d="M284.66,327.83s15.9-12.81,27.91-12.47,24.65,12.26,25,13.06-6.71,1.9-6.71,1.9,5-.59,5.66.08-13.21,11.06-21.8,12.66-29.37-12.25-29.37-12.25-4.46,8.71-8,5.86c-2.25-1.81,6-6.93,6-6.93s-14.76-2.21-12-5.62C273.55,321.48,281.82,322.77,284.66,327.83Z" style="fill:#ECEFF1"></path><path d="M326.14,327.88c-2.77-1.5-5.11,2.81-2.33,4.31S328.92,329.39,326.14,327.88Z" style="fill:#263238"></path><path d="M319.45,340.94c-1.72-1.57-8.33-8.52-7.94-12.08s5.17-8.23,8.95-10.76c.06,0,0-.13-.06-.1-2.41,1.26-10.09,6-10.15,11.36-.06,4.28,6.62,10.33,9.09,11.75C319.51,341.21,319.6,341.07,319.45,340.94Z" style="opacity:0.2"></path><path d="M64.17,344.56s10.27-8.28,18-8.05,15.91,7.91,16.13,8.42S94,346.16,94,346.16s3.26-.38,3.66,0-8.53,7.14-14.08,8.18-19-7.91-19-7.91-2.88,5.62-5.17,3.78c-1.46-1.17,3.9-4.47,3.9-4.47s-9.53-1.43-7.73-3.63C57,340.45,62.34,341.29,64.17,344.56Z" style="fill:#ECEFF1"></path><path d="M91,344.59a1.58,1.58,0,0,0-1.51,2.78A1.58,1.58,0,0,0,91,344.59Z" style="fill:#263238"></path><path d="M86.63,353c-1.11-1-5.38-5.51-5.12-7.8s3.33-5.32,5.77-7c0,0,0-.09,0-.06-1.56.81-6.52,3.86-6.56,7.33,0,2.77,4.28,6.67,5.87,7.58C86.67,353.19,86.73,353.1,86.63,353Z" style="opacity:0.2"></path><path d="M605.16,415.32s-3.87-6.24-8.15-6.8-12.63,4.08-12.62,4.48,3.16,7,8.34,9.16,12.46-5.4,12.46-5.4,1.2,2.28,2.55,2-1.15-2.61-1.15-2.61,3.27-1.37,2.54-3.2C608.7,411.88,606.35,413.1,605.16,415.32Z" style="fill:#ECEFF1"></path><path d="M589.06,415.7a1.26,1.26,0,0,0,1.44-2.07A1.26,1.26,0,0,0,589.06,415.7Z" style="fill:#263238"></path><path d="M591.83,409.77c.69.78,3.27,4.21,2.91,5.76s-2.71,3.39-4.52,4.32a0,0,0,0,0,0,0c1.13-.44,4.78-2.14,5.09-4.53.24-1.89-2.42-4.92-3.44-5.67C591.82,409.65,591.77,409.7,591.83,409.77Z" style="opacity:0.2"></path><path d="M354.08,289.36s-3.87-6.24-8.15-6.8-12.63,4.08-12.62,4.48,3.16,7,8.34,9.16,12.46-5.4,12.46-5.4,1.2,2.28,2.55,2-1.14-2.61-1.14-2.61,3.27-1.37,2.53-3.2C357.63,285.92,355.28,287.14,354.08,289.36Z" style="fill:#ECEFF1"></path><path d="M338,289.74a1.26,1.26,0,0,0,1.45-2.07A1.26,1.26,0,0,0,338,289.74Z" style="fill:#263238"></path><path d="M340.76,283.81c.68.78,3.26,4.21,2.9,5.76s-2.71,3.39-4.52,4.32a0,0,0,0,0,0,.05c1.13-.44,4.78-2.14,5.09-4.53.24-1.89-2.41-4.92-3.43-5.67C340.74,283.68,340.7,283.74,340.76,283.81Z" style="opacity:0.2"></path><path d="M194.51,385.05s3.87-6.24,8.15-6.8,12.63,4.08,12.62,4.49-3.16,7-8.34,9.16-12.46-5.41-12.46-5.41-1.2,2.28-2.55,2,1.14-2.62,1.14-2.62-3.26-1.36-2.53-3.19C191,381.61,193.32,382.83,194.51,385.05Z" style="fill:#ECEFF1"></path><path d="M210.61,385.44a1.26,1.26,0,0,1-1.44-2.07A1.26,1.26,0,0,1,210.61,385.44Z" style="fill:#263238"></path><path d="M207.83,379.5c-.68.79-3.26,4.21-2.9,5.77s2.71,3.39,4.52,4.32c0,0,0,.05,0,0-1.13-.44-4.78-2.14-5.09-4.52-.24-1.9,2.41-4.92,3.44-5.68C207.85,379.38,207.89,379.43,207.83,379.5Z" style="opacity:0.2"></path><path d="M489.65,399.74s3.6-4.54,7-4.6,9.53,4.33,9.48,4.65-3.1,5.2-7.36,6.43-9.27-5.36-9.27-5.36-1.14,1.68-2.17,1.34,1.13-1.95,1.13-1.95-2.44-1.36-1.7-2.73C487.19,396.73,488.92,397.89,489.65,399.74Z" style="fill:#ECEFF1"></path><path d="M502.23,401.48a1,1,0,0,1-.94-1.74A1,1,0,0,1,502.23,401.48Z" style="fill:#263238"></path><path d="M500.59,396.59c-.6.55-2.93,3-2.79,4.25s1.82,2.9,3.15,3.79c0,0,0,.05,0,0-.85-.45-3.55-2.11-3.58-4,0-1.51,2.33-3.64,3.2-4.14C500.61,396.49,500.64,396.54,500.59,396.59Z" style="opacity:0.2"></path><path d="M599.33,364.64s-5.92,10.74-11.41,13-17.76,1.69-17.76,1.69,7.23-10.33,13.25-12.17,14.71-3.71,14.71-3.71,2.08-10.09,4.63-9-2.83,8.49-2.83,8.49,7.83-7.24,9.32-4.78S599.33,364.64,599.33,364.64Z" style="fill:#ECEFF1"></path><path d="M599.33,364.64s-5.92,10.74-11.41,13-17.76,1.69-17.76,1.69,7.23-10.33,13.25-12.17,14.71-3.71,14.71-3.71,2.08-10.09,4.63-9-2.83,8.49-2.83,8.49,7.83-7.24,9.32-4.78S599.33,364.64,599.33,364.64Z" style="opacity:0.30000000000000004"></path><path d="M569.23,366.59s-8.28-1.69-12.72-.09-9.33,7.51-9.32,7.8,8.34,1.65,11.72.48,10.51-7.25,10.51-7.25,5.29,2.58,6.16,1.4-4.89-2-4.89-2,5.73-3,4.88-4.21S569.23,366.59,569.23,366.59Z" style="fill:#ECEFF1"></path><path d="M569.23,366.59s-8.28-1.69-12.72-.09-9.33,7.51-9.32,7.8,8.34,1.65,11.72.48,10.51-7.25,10.51-7.25,5.29,2.58,6.16,1.4-4.89-2-4.89-2,5.73-3,4.88-4.21S569.23,366.59,569.23,366.59Z" style="opacity:0.30000000000000004"></path><path d="M532.26,443.47s-7.66-3.54-12.35-3-10.81,5.16-10.87,5.45,7.74,3.51,11.3,3.16,11.9-4.65,11.9-4.65,4.55,3.73,5.67,2.78-4.3-3.09-4.3-3.09,6.26-1.58,5.72-3S532.26,443.47,532.26,443.47Z" style="fill:#ECEFF1"></path><path d="M532.26,443.47s-7.66-3.54-12.35-3-10.81,5.16-10.87,5.45,7.74,3.51,11.3,3.16,11.9-4.65,11.9-4.65,4.55,3.73,5.67,2.78-4.3-3.09-4.3-3.09,6.26-1.58,5.72-3S532.26,443.47,532.26,443.47Z" style="opacity:0.30000000000000004"></path><path d="M535.12,352.46s-7.28-4.28-12-4.2-11.26,4.09-11.35,4.36,7.36,4.26,10.94,4.25S535,353.41,535,353.41s4.17,4.15,5.38,3.31-4-3.48-4-3.48,6.38-1,6-2.41S535.12,352.46,535.12,352.46Z" style="fill:#ECEFF1"></path><path d="M535.12,352.46s-7.28-4.28-12-4.2-11.26,4.09-11.35,4.36,7.36,4.26,10.94,4.25S535,353.41,535,353.41s4.17,4.15,5.38,3.31-4-3.48-4-3.48,6.38-1,6-2.41S535.12,352.46,535.12,352.46Z" style="opacity:0.30000000000000004"></path><path d="M294.46,403.16s7.69-3.49,12.38-2.91,10.76,5.25,10.82,5.53-7.77,3.46-11.32,3.07-11.86-4.73-11.86-4.73-4.58,3.69-5.69,2.73,4.32-3.05,4.32-3.05-6.25-1.63-5.7-3S294.46,403.16,294.46,403.16Z" style="fill:#ECEFF1"></path><path d="M294.46,403.16s7.69-3.49,12.38-2.91,10.76,5.25,10.82,5.53-7.77,3.46-11.32,3.07-11.86-4.73-11.86-4.73-4.58,3.69-5.69,2.73,4.32-3.05,4.32-3.05-6.25-1.63-5.7-3S294.46,403.16,294.46,403.16Z" style="opacity:0.30000000000000004"></path><path d="M90.58,414.14s7.69-3.49,12.38-2.91,10.76,5.24,10.82,5.53-7.76,3.45-11.32,3.07-11.86-4.74-11.86-4.74-4.58,3.7-5.69,2.73,4.32-3,4.32-3-6.25-1.64-5.7-3S90.58,414.14,90.58,414.14Z" style="fill:#ECEFF1"></path><path d="M90.58,414.14s7.69-3.49,12.38-2.91,10.76,5.24,10.82,5.53-7.76,3.45-11.32,3.07-11.86-4.74-11.86-4.74-4.58,3.7-5.69,2.73,4.32-3,4.32-3-6.25-1.64-5.7-3S90.58,414.14,90.58,414.14Z" style="opacity:0.30000000000000004"></path><path d="M585.33,394.46s-4.32-2.87-7.33-2.81-8.57,3.12-8.92,3.69,6.37,3.59,8.66,3.17a35.54,35.54,0,0,0,7.31-3.07c.12-.12,3.09,3.77,4.55,2.45s-3.66-2.92-3.66-2.92,4.42-1.48,4-2.72S586.56,392.76,585.33,394.46Z" style="fill:#ECEFF1"></path><path d="M585.33,394.46s-4.32-2.87-7.33-2.81-8.57,3.12-8.92,3.69,6.37,3.59,8.66,3.17a35.54,35.54,0,0,0,7.31-3.07c.12-.12,3.09,3.77,4.55,2.45s-3.66-2.92-3.66-2.92,4.42-1.48,4-2.72S586.56,392.76,585.33,394.46Z" style="opacity:0.30000000000000004"></path><path d="M668.17,411.42s-4.33-2.87-7.33-2.81-8.57,3.12-8.93,3.69,6.37,3.59,8.66,3.17,7.2-3,7.32-3.07,3.08,3.77,4.55,2.45-3.66-2.92-3.66-2.92,4.42-1.48,4-2.72S669.4,409.72,668.17,411.42Z" style="fill:#ECEFF1"></path><path d="M668.17,411.42s-4.33-2.87-7.33-2.81-8.57,3.12-8.93,3.69,6.37,3.59,8.66,3.17,7.2-3,7.32-3.07,3.08,3.77,4.55,2.45-3.66-2.92-3.66-2.92,4.42-1.48,4-2.72S669.4,409.72,668.17,411.42Z" style="opacity:0.30000000000000004"></path><path d="M472.62,415.16s4.18-3.08,7.18-3.17,8.71,2.69,9.1,3.25-6.19,3.9-8.5,3.59-7.33-2.59-7.45-2.7-2.9,3.91-4.43,2.67,3.52-3.1,3.52-3.1-4.49-1.26-4.17-2.52S471.31,413.53,472.62,415.16Z" style="fill:#ECEFF1"></path><path d="M472.62,415.16s4.18-3.08,7.18-3.17,8.71,2.69,9.1,3.25-6.19,3.9-8.5,3.59-7.33-2.59-7.45-2.7-2.9,3.91-4.43,2.67,3.52-3.1,3.52-3.1-4.49-1.26-4.17-2.52S471.31,413.53,472.62,415.16Z" style="opacity:0.30000000000000004"></path><path d="M340.53,397.29s9.19-1.92,13.57-.85,10,7.26,10,7.26-9.91,1.47-13.84.51-10-5.45-10-5.45-4.73,2.69-5.45,1.4,4.57-2,4.57-2-6.49-2-5.49-3.65S340.53,397.29,340.53,397.29Z" style="fill:#ECEFF1"></path><path d="M340.53,397.29s9.19-1.92,13.57-.85,10,7.26,10,7.26-9.91,1.47-13.84.51-10-5.45-10-5.45-4.73,2.69-5.45,1.4,4.57-2,4.57-2-6.49-2-5.49-3.65S340.53,397.29,340.53,397.29Z" style="opacity:0.30000000000000004"></path><path d="M211.57,357.55s4.06-2.88,6.84-3.42,8.38,3.05,8.38,3.05-4.22,3.63-7.61,4.11-7.24-2.35-7.24-2.35-4.54,3.21-5.18,2.14,4.06-2.57,4.06-2.57-5.34-.32-5.24-2S211.57,357.55,211.57,357.55Z" style="fill:#ECEFF1"></path><path d="M211.57,357.55s4.06-2.88,6.84-3.42,8.38,3.05,8.38,3.05-4.22,3.63-7.61,4.11-7.24-2.35-7.24-2.35-4.54,3.21-5.18,2.14,4.06-2.57,4.06-2.57-5.34-.32-5.24-2S211.57,357.55,211.57,357.55Z" style="opacity:0.30000000000000004"></path><path d="M559.26,383.05s-4.92.74-7.29,2.28-3.93,8-3.93,8,5.56-.31,8.34-2.32,3.58-6.72,3.58-6.72,5.49-.84,5.21-2.06-4.7,1-4.7,1,3.62-3.93,2.4-5.05S559.26,383.05,559.26,383.05Z" style="fill:#ECEFF1"></path><path d="M559.26,383.05s-4.92.74-7.29,2.28-3.93,8-3.93,8,5.56-.31,8.34-2.32,3.58-6.72,3.58-6.72,5.49-.84,5.21-2.06-4.7,1-4.7,1,3.62-3.93,2.4-5.05S559.26,383.05,559.26,383.05Z" style="opacity:0.30000000000000004"></path><path d="M334.08,380.85s3.52-1.45,5.68-1.37,5.72,3.71,5.72,3.71-3.77,2-6.38,1.75-5-3-5-3-3.93,1.61-4.22.7,3.46-1.21,3.46-1.21-3.92-1.16-3.56-2.37S334.08,380.85,334.08,380.85Z" style="fill:#ECEFF1"></path><path d="M334.08,380.85s3.52-1.45,5.68-1.37,5.72,3.71,5.72,3.71-3.77,2-6.38,1.75-5-3-5-3-3.93,1.61-4.22.7,3.46-1.21,3.46-1.21-3.92-1.16-3.56-2.37S334.08,380.85,334.08,380.85Z" style="opacity:0.30000000000000004"></path><path d="M110.24,430.29s3.52-1.44,5.67-1.36,5.72,3.71,5.72,3.71-3.77,2-6.37,1.75-5-3-5-3-3.93,1.6-4.22.7,3.46-1.21,3.46-1.21-3.92-1.16-3.55-2.37S110.24,430.29,110.24,430.29Z" style="fill:#ECEFF1"></path><path d="M110.24,430.29s3.52-1.44,5.67-1.36,5.72,3.71,5.72,3.71-3.77,2-6.37,1.75-5-3-5-3-3.93,1.6-4.22.7,3.46-1.21,3.46-1.21-3.92-1.16-3.55-2.37S110.24,430.29,110.24,430.29Z" style="opacity:0.30000000000000004"></path></g><g id="freepik--Net--inject-193"><path d="M391.42,327.7c-33.26-60.9-16.31-135.22-16.14-136l1-4.19v4.3c0,.63.41,63.45,35.14,98.8l-.72.7c-29.69-30.23-34.5-80.28-35.27-95.19-3,16.54-11.67,78.79,16.88,131.06Z" style="fill:#a6a6a6"></path><path d="M527.3,462.1c-15.53,0-33.56-9-46.84-17.19a265.19,265.19,0,0,1-52.72-43.85c-15.89-17.34-36.14-72.87-36.35-73.43l-.8-2.21,52,53.88-.72.69-48.67-50.46c4,10.58,21.38,55.64,35.32,70.85,26.61,29,77.21,66.8,106.45,59.87,63.7-15.1,103-14.16,126.4-13.6s32.44.77,37.29-14.22c1.69-5.24.37-12.18-3.84-20.07-14-26.26-58.12-61.32-125.12-80.45-11-3.15-26.15-4.09-40.79-5-16.58-1-33.72-2.11-44.8-6.4-44.56-17.24-64.47-25.4-70.82-28l50,49.33-.7.72-53.75-53,2.44,1c.16.08,17.24,7.39,73.18,29,10.94,4.24,28,5.3,44.5,6.33,14.7.92,29.89,1.86,41,5,67.28,19.2,111.63,54.49,125.73,80.94,4.34,8.13,5.69,15.34,3.91,20.84-5.08,15.71-14.78,15.48-38.27,14.92s-62.57-1.49-126.14,13.58A33.88,33.88,0,0,1,527.3,462.1Z" style="fill:#a6a6a6"></path><path d="M441.85,401.5c-4.14,0-9.51-1.23-15.8-3.69l.37-.93c11.6,4.54,20.13,4.82,22.81.74,2.47-3.74-.36-10.5-7.39-17.63l-.6-.6.82-.23c.48-.13,47.79-13.55,50.41-33.92S467,313.7,466.71,313.58l.37-.93c.29.12,29.08,11.64,26.38,32.72-2.54,19.77-43.79,32.61-50.33,34.52,6.95,7.27,9.61,14.24,6.94,18.29C448.6,400.4,445.78,401.5,441.85,401.5Z" style="fill:#a6a6a6"></path><path d="M477.25,364.88l-.94-.34c4-10.93-13.49-21.85-13.67-22l-.78-.49.83-.39c6.59-3.13,10.16-7.15,10.61-11.94.65-6.92-5.5-14-11-18l.59-.8c5.95,4.33,12.07,11.58,11.38,18.92-.47,5-4,9.11-10.38,12.35C467.38,344.52,481.05,354.42,477.25,364.88Z" style="fill:#a6a6a6"></path><rect x="484.24" y="323.08" width="4.95" height="0.25" transform="translate(-85.98 438.83) rotate(-45)" style="fill:#a6a6a6"></rect><polygon points="425.75 398.2 425.58 398.02 426.3 397.31 426.48 397.49 425.75 398.2" style="fill:#a6a6a6"></polygon><polygon points="443.23 380.74 443.05 380.56 444.88 378.72 445.05 378.9 443.23 380.74" style="fill:#a6a6a6"></polygon><polygon points="490.91 333.04 490.74 332.86 492.46 331.15 499.85 323.74 500.03 323.92 499.56 324.4 490.91 333.04" style="fill:#a6a6a6"></polygon><rect x="431.4" y="402.75" width="6.72" height="0.25" transform="translate(-157.54 425.42) rotate(-45)" style="fill:#a6a6a6"></rect><rect x="445.02" y="379.02" width="26.93" height="0.25" transform="translate(-134.11 431.98) rotate(-44.68)" style="fill:#a6a6a6"></rect><polygon points="493.13 344.69 493.04 344.6 492.91 344.61 492.91 344.55 492.95 344.51 512.3 325.16 512.48 325.33 493.13 344.69" style="fill:#a6a6a6"></polygon><polygon points="439.42 412.24 439.25 412.06 443.98 407.34 450.89 400.41 471.68 379.63 485.53 365.77 492.46 358.86 506.31 345 525.22 326.08 525.4 326.26 513.42 338.26 499.56 352.1 492.64 359.03 478.78 372.88 458 393.67 451.07 400.59 439.42 412.24" style="fill:#a6a6a6"></polygon><rect x="427.56" y="372.77" width="129.76" height="0.25" transform="translate(-119.45 457.43) rotate(-45)" style="fill:#a6a6a6"></rect><polygon points="454.12 425.26 453.94 425.08 550.99 328.02 551.17 328.2 548.05 331.32 454.12 425.26" style="fill:#a6a6a6"></polygon><polygon points="461.83 431.4 461.65 431.22 563.07 329.79 563.25 329.96 561.9 331.32 548.04 345.17 534.19 359.03 520.33 372.88 513.42 379.81 506.49 386.73 478.78 414.45 471.85 421.37 461.83 431.4" style="fill:#a6a6a6"></polygon><polygon points="469.81 437.28 469.63 437.1 574.1 332.63 574.27 332.8 568.83 338.25 554.97 352.1 541.12 365.96 527.26 379.81 485.71 421.38 478.78 428.3 469.81 437.28" style="fill:#a6a6a6"></polygon><rect x="455.89" y="389.29" width="150.89" height="0.25" transform="translate(-119.74 489.77) rotate(-45)" style="fill:#a6a6a6"></rect><polygon points="486.71 448.07 486.53 447.9 492.46 441.98 534.02 400.41 540.95 393.49 561.73 372.7 568.65 365.79 594.81 339.62 594.99 339.8 486.71 448.07" style="fill:#a6a6a6"></polygon><polygon points="495.78 452.87 495.6 452.69 499.38 448.9 540.95 407.34 547.86 400.41 568.65 379.63 582.5 365.77 596.36 351.93 604.72 343.56 604.89 343.74 495.78 452.87" style="fill:#a6a6a6"></polygon><rect x="482.77" y="402.28" width="154.28" height="0.25" transform="translate(-120.55 513.78) rotate(-45)" style="fill:#a6a6a6"></rect><polygon points="516.06 460.3 515.88 460.12 624.07 351.93 624.24 352.1 623.88 352.45 617.32 359.03 603.46 372.88 582.68 393.67 575.75 400.59 534.19 442.16 527.26 449.08 516.06 460.3" style="fill:#a6a6a6"></polygon><rect x="506.81" y="409.24" width="147.68" height="0.25" transform="translate(-119.4 530.48) rotate(-45)" style="fill:#a6a6a6"></rect><polygon points="545.61 458.44 545.44 458.27 641.56 362.15 641.73 362.32 638.09 365.95 545.61 458.44" style="fill:#a6a6a6"></polygon><rect x="544.85" y="411.09" width="123.32" height="0.25" transform="translate(-113.13 549.31) rotate(-45)" style="fill:#a6a6a6"></rect><polygon points="579.7 452.06 579.52 451.89 658.69 372.71 658.87 372.88 658.36 373.4 579.7 452.06" style="fill:#a6a6a6"></polygon><polygon points="595.74 449.88 595.56 449.7 596.36 448.91 617.14 428.12 624.07 421.2 644.85 400.41 651.78 393.49 666 379.26 666.18 379.44 595.74 449.88" style="fill:#a6a6a6"></polygon><polygon points="611.15 448.32 610.97 448.15 673.43 385.68 673.61 385.85 672.73 386.74 611.15 448.32" style="fill:#a6a6a6"></polygon><polygon points="625.92 447.4 625.75 447.22 680.45 392.52 680.63 392.69 679.66 393.67 658.87 414.45 651.95 421.38 625.92 447.4" style="fill:#a6a6a6"></polygon><polygon points="640.17 447.01 639.99 446.83 686.94 399.89 687.12 400.06 686.58 400.59 665.8 421.38 658.87 428.3 640.17 447.01" style="fill:#a6a6a6"></polygon><rect x="645.8" y="427.38" width="55.11" height="0.25" transform="translate(-105.07 601.34) rotate(-45)" style="fill:#a6a6a6"></rect><polygon points="667.51 447.36 667.34 447.19 679.48 435.05 686.4 428.12 697.47 417.06 697.65 417.24 667.51 447.36" style="fill:#a6a6a6"></polygon><rect x="677.91" y="437.71" width="25.63" height="0.25" transform="translate(-107.78 614.46) rotate(-44.84)" style="fill:#a6a6a6"></rect><rect x="674.45" y="366.25" width="0.25" height="44.67" transform="translate(-77.19 590.81) rotate(-45)" style="fill:#a6a6a6"></rect><polygon points="699.75 427.79 686.4 414.45 672.55 400.59 658.69 386.74 637.92 365.95 625.14 353.18 625.23 353.1 625.22 352.97 625.27 352.97 625.32 353 631.16 358.86 651.95 379.63 665.8 393.49 679.66 407.34 693.51 421.2 699.96 427.64 699.96 427.7 699.83 427.7 699.75 427.79" style="fill:#a6a6a6"></polygon><rect x="648.16" y="321.65" width="0.25" height="136.7" transform="translate(-85.9 572.62) rotate(-45)" style="fill:#a6a6a6"></rect><polygon points="689.3 445.06 578.39 334.13 578.56 333.95 689.48 444.88 689.3 445.06" style="fill:#a6a6a6"></polygon><rect x="618.68" y="304.85" width="0.25" height="166.77" transform="translate(-93.28 551.27) rotate(-45)" style="fill:#a6a6a6"></rect><polygon points="663.92 447.32 663.87 447.32 663.82 447.29 544.1 327.55 544.27 327.37 664 447.11 663.92 447.19 663.92 447.32" style="fill:#a6a6a6"></polygon><rect x="589.42" y="301.48" width="0.25" height="170.4" transform="translate(-100.75 530.12) rotate(-45)" style="fill:#a6a6a6"></rect><polygon points="635.9 447.06 630.99 442.16 617.14 428.3 603.28 414.45 589.43 400.59 575.57 386.74 534.02 345.17 527.09 338.26 514.34 325.5 514.52 325.32 636.08 446.88 635.9 447.06" style="fill:#a6a6a6"></polygon><rect x="560.59" y="298.02" width="0.25" height="175.08" transform="translate(-108.4 509.41) rotate(-45)" style="fill:#a6a6a6"></rect><rect x="544.04" y="290.26" width="0.25" height="185.21" transform="translate(-111.35 496.89) rotate(-45)" style="fill:#a6a6a6"></rect><rect x="544.88" y="323.92" width="0.25" height="147.27" transform="translate(-121.49 501.82) rotate(-45)" style="fill:#a6a6a6"></rect><rect x="536.51" y="334.92" width="0.25" height="136.23" transform="translate(-127.82 497.45) rotate(-45)" style="fill:#a6a6a6"></rect><polygon points="572.72 453.15 568.65 449.07 554.79 435.23 540.95 421.37 527.09 407.52 520.17 400.59 513.24 393.67 481.24 361.66 481.42 361.48 572.9 452.98 572.72 453.15" style="fill:#a6a6a6"></polygon><polygon points="560.97 455.25 547.86 442.16 534.02 428.3 520.16 414.45 513.24 407.52 499.38 393.67 472.82 367.1 473 366.93 561.15 455.08 560.97 455.25" style="fill:#a6a6a6"></polygon><polygon points="549.44 457.58 547.88 456 463.63 371.76 463.81 371.58 549.62 457.4 549.44 457.58" style="fill:#a6a6a6"></polygon><rect x="495.93" y="358.26" width="0.25" height="119.2" transform="translate(-150.18 473.14) rotate(-45)" style="fill:#a6a6a6"></rect><polygon points="525.81 461.66 513.24 449.08 499.38 435.23 492.46 428.3 478.6 414.45 464.75 400.59 450.89 386.74 443.49 379.32 443.67 379.15 525.99 461.48 525.81 461.66" style="fill:#a6a6a6"></polygon><rect x="478.71" y="386.28" width="0.25" height="84.15" transform="translate(-162.64 464.04) rotate(-45)" style="fill:#a6a6a6"></rect><polygon points="481.63 445.19 437.03 400.57 437.24 400.43 437.27 400.48 444.15 407.34 458 421.2 471.86 435.05 481.81 445.01 481.63 445.19" style="fill:#a6a6a6"></polygon></g></svg>
