<svg xmlns="http://www.w3.org/2000/svg" viewBox="0 0 750 500"><g id="freepik--background-complete--inject-10"><rect x="49.03" y="130.26" width="71.01" height="104.04" transform="translate(169.08 364.56) rotate(180)" style="fill:#f5f5f5"></rect><rect x="55.13" y="133.3" width="59.37" height="13.87" transform="translate(169.63 280.47) rotate(180)" style="fill:#ebebeb"></rect><polygon points="59.57 130.26 65.82 147.17 55.13 147.17 55.13 130.26 59.57 130.26" style="fill:#e0e0e0"></polygon><rect x="55.13" y="150.21" width="59.37" height="13.87" transform="translate(169.63 314.28) rotate(180)" style="fill:#ebebeb"></rect><polygon points="59.57 147.17 65.82 164.08 55.13 164.08 55.13 147.17 59.57 147.17" style="fill:#e0e0e0"></polygon><rect x="55.13" y="167.45" width="59.37" height="13.87" transform="translate(169.63 348.76) rotate(180)" style="fill:#ebebeb"></rect><polygon points="59.57 164.41 65.82 181.32 55.13 181.32 55.13 164.41 59.57 164.41" style="fill:#e0e0e0"></polygon><rect x="55.13" y="184.33" width="59.37" height="13.87" transform="translate(169.63 382.53) rotate(180)" style="fill:#ebebeb"></rect><polygon points="59.57 181.29 65.82 198.2 55.13 198.2 55.13 181.29 59.57 181.29" style="fill:#e0e0e0"></polygon><rect x="55.13" y="201.21" width="59.37" height="13.87" transform="translate(169.63 416.3) rotate(180)" style="fill:#ebebeb"></rect><polygon points="59.57 198.18 65.82 215.08 55.13 215.08 55.13 198.18 59.57 198.18" style="fill:#e0e0e0"></polygon><rect x="55.13" y="218.1" width="59.37" height="13.87" transform="translate(169.63 450.06) rotate(180)" style="fill:#ebebeb"></rect><polygon points="59.57 215.06 65.82 231.97 55.13 231.97 55.13 215.06 59.57 215.06" style="fill:#e0e0e0"></polygon><rect x="120.05" y="175.46" width="283.65" height="3.38" transform="translate(523.74 354.3) rotate(180)" style="fill:#ebebeb"></rect><rect x="120.05" y="178.95" width="283.65" height="23.96" transform="translate(523.74 381.86) rotate(180)" style="fill:#fafafa"></rect><rect x="119.81" y="205.46" width="283.65" height="23.96" transform="translate(523.26 434.88) rotate(180)" style="fill:#fafafa"></rect><rect x="120.05" y="142.78" width="283.65" height="32.55" transform="translate(523.74 318.12) rotate(180)" style="fill:#fafafa"></rect><rect x="120.05" y="139.8" width="283.65" height="3.38" transform="translate(523.74 282.97) rotate(180)" style="fill:#ebebeb"></rect><rect x="119.81" y="201.91" width="283.65" height="3.38" transform="translate(523.26 407.21) rotate(180)" style="fill:#ebebeb"></rect><rect x="49.03" y="228.56" width="354.42" height="43.91" transform="translate(452.49 501.04) rotate(180)" style="fill:#f5f5f5"></rect><rect x="626.47" y="130.26" width="71.01" height="104.04" style="fill:#f5f5f5"></rect><rect x="632.02" y="133.3" width="59.37" height="13.87" style="fill:#ebebeb"></rect><polygon points="686.95 130.26 680.7 147.17 691.39 147.17 691.39 130.26 686.95 130.26" style="fill:#e0e0e0"></polygon><rect x="632.02" y="150.21" width="59.37" height="13.87" style="fill:#ebebeb"></rect><polygon points="686.95 147.17 680.7 164.08 691.39 164.08 691.39 147.17 686.95 147.17" style="fill:#e0e0e0"></polygon><rect x="632.02" y="167.45" width="59.37" height="13.87" style="fill:#ebebeb"></rect><polygon points="686.95 164.41 680.7 181.32 691.39 181.32 691.39 164.41 686.95 164.41" style="fill:#e0e0e0"></polygon><rect x="632.02" y="184.33" width="59.37" height="13.87" style="fill:#ebebeb"></rect><polygon points="686.95 181.29 680.7 198.2 691.39 198.2 691.39 181.29 686.95 181.29" style="fill:#e0e0e0"></polygon><rect x="632.02" y="201.21" width="59.37" height="13.87" style="fill:#ebebeb"></rect><polygon points="686.95 198.18 680.7 215.08 691.39 215.08 691.39 198.18 686.95 198.18" style="fill:#e0e0e0"></polygon><rect x="632.02" y="218.1" width="59.37" height="13.87" style="fill:#ebebeb"></rect><polygon points="686.95 215.06 680.7 231.97 691.39 231.97 691.39 215.06 686.95 215.06" style="fill:#e0e0e0"></polygon><rect x="342.82" y="175.46" width="283.65" height="3.38" style="fill:#ebebeb"></rect><rect x="342.82" y="178.95" width="283.65" height="23.96" style="fill:#fafafa"></rect><rect x="343.07" y="205.46" width="283.65" height="23.96" style="fill:#fafafa"></rect><rect x="342.82" y="142.78" width="283.65" height="32.55" style="fill:#fafafa"></rect><rect x="342.82" y="139.8" width="283.65" height="3.38" style="fill:#ebebeb"></rect><rect x="343.07" y="201.91" width="283.65" height="3.38" style="fill:#ebebeb"></rect><rect x="343.07" y="228.56" width="354.42" height="43.91" style="fill:#f5f5f5"></rect><path d="M326.27,106.61c.87-6.34-8.09-11.56-14.82-12.11-3.21-.25-6.54.24-9.58-.82-6.59-2.3-9.22-10.81-15.65-13.52-4.81-2-10.34-.22-15,2.12s-9.26,5.3-14.47,5.63c-4.52.29-9.44-1.39-13.4.82-2.95,1.65-4.5,5-7.22,7.06s-6.13,2.38-9.44,2.56-6.72.21-9.72,1.59-5.5,4.55-4.88,7.8Z" style="fill:#f5f5f5"></path><path d="M698.81,92.7c.63-4.59-5.85-8.37-10.71-8.76-2.32-.19-4.74.17-6.93-.6-4.77-1.66-6.67-7.82-11.32-9.78-3.48-1.46-7.48-.16-10.85,1.54s-6.7,3.83-10.46,4.07c-3.28.21-6.83-1-9.7.59-2.13,1.19-3.25,3.65-5.22,5.11s-4.43,1.72-6.82,1.85-4.86.15-7,1.15-4,3.29-3.52,5.64Z" style="fill:#f5f5f5"></path><path d="M164.69,69.05c.7-5-6.41-9.19-11.76-9.62-2.54-.2-5.19.19-7.61-.66C140.09,57,138,50.19,132.9,48c-3.81-1.61-8.21-.18-11.91,1.69s-7.35,4.2-11.48,4.47c-3.6.23-7.5-1.11-10.65.65-2.34,1.31-3.57,4-5.73,5.6s-4.87,1.89-7.49,2-5.33.17-7.72,1.26-4.36,3.62-3.87,6.2Z" style="fill:#f5f5f5"></path><path d="M565.61,69.05c.7-5-6.41-9.19-11.76-9.62-2.55-.2-5.19.19-7.61-.66C541,57,538.92,50.19,533.82,48c-3.82-1.61-8.21-.18-11.91,1.69s-7.35,4.2-11.48,4.47c-3.6.23-7.5-1.11-10.65.65-2.34,1.31-3.57,4-5.73,5.6s-4.87,1.89-7.49,2-5.34.17-7.72,1.26-4.37,3.62-3.87,6.2Z" style="fill:#f5f5f5"></path><path d="M429.84,398.64a21.63,21.63,0,0,1-.46-2.71,56,56,0,0,0-1.4-6.43,55.37,55.37,0,0,0-2.21-6.2,20.21,20.21,0,0,1-1-2.53,10.74,10.74,0,0,1,1.38,2.38,38.6,38.6,0,0,1,3.64,12.74A11.43,11.43,0,0,1,429.84,398.64Z" style="fill:#e0e0e0"></path><path d="M436.77,396.45a27.36,27.36,0,0,1-.12-3.29c0-2-.19-4.83-.54-7.91s-.86-5.83-1.27-7.82a25.47,25.47,0,0,1-.62-3.23,3.53,3.53,0,0,1,.32.83c.18.54.41,1.33.66,2.32A61.38,61.38,0,0,1,437,393.16c0,1-.06,1.84-.11,2.41A2.8,2.8,0,0,1,436.77,396.45Z" style="fill:#e0e0e0"></path><path d="M566.54,398a57.73,57.73,0,0,1-3.7-6.81,58.51,58.51,0,0,1-3.23-7.05,59.52,59.52,0,0,1,3.7,6.81A58.51,58.51,0,0,1,566.54,398Z" style="fill:#e0e0e0"></path><path d="M569.84,376a30.38,30.38,0,0,1-.52,3,64,64,0,0,0-.9,7.35,62.94,62.94,0,0,0,0,7.4,24.93,24.93,0,0,1,.13,3.08,14.69,14.69,0,0,1-.5-3.05,46.28,46.28,0,0,1-.13-7.46A45.16,45.16,0,0,1,569,379,13.62,13.62,0,0,1,569.84,376Z" style="fill:#e0e0e0"></path><path d="M578.6,379a18.73,18.73,0,0,1-.94,2.56,60.09,60.09,0,0,0-3.41,12.62,18.85,18.85,0,0,1-.48,2.69,12.19,12.19,0,0,1,.11-2.74,43.85,43.85,0,0,1,1.23-6.49,41.58,41.58,0,0,1,2.21-6.22A11.72,11.72,0,0,1,578.6,379Z" style="fill:#e0e0e0"></path><path d="M671.85,324.18a77.24,77.24,0,0,1-4-8.07,78.71,78.71,0,0,1-3.47-8.28,77.24,77.24,0,0,1,4,8.07A76.74,76.74,0,0,1,671.85,324.18Z" style="fill:#e0e0e0"></path><path d="M678.38,302.72a29.7,29.7,0,0,1-.74,3.06,58.38,58.38,0,0,0-1.32,7.44,57.69,57.69,0,0,0-.32,7.55,27.35,27.35,0,0,1,0,3.15,3.34,3.34,0,0,1-.18-.83c-.08-.54-.17-1.33-.23-2.3a43.82,43.82,0,0,1,1.66-15.11c.28-.93.53-1.68.73-2.19S678.34,302.71,678.38,302.72Z" style="fill:#e0e0e0"></path><path d="M686.77,305.57a20.62,20.62,0,0,1-1.37,2.37,40.09,40.09,0,0,0-2.8,5.91,39,39,0,0,0-1.74,6.3,23.2,23.2,0,0,1-.51,2.68,10.56,10.56,0,0,1,.15-2.74,30,30,0,0,1,1.61-6.43,30.8,30.8,0,0,1,3-5.92A10.73,10.73,0,0,1,686.77,305.57Z" style="fill:#e0e0e0"></path><path d="M235,396.87a21.1,21.1,0,0,1-1-2.85c-.55-1.78-1.34-4.22-2.29-6.88s-1.91-5.06-2.6-6.78a19.88,19.88,0,0,1-1.07-2.82,15.22,15.22,0,0,1,1.4,2.68c.79,1.69,1.79,4.06,2.76,6.74s1.69,5.15,2.15,7A14.88,14.88,0,0,1,235,396.87Z" style="fill:#e0e0e0"></path><path d="M239.31,375.33a22.4,22.4,0,0,1-.43,3c-.29,1.83-.63,4.37-.82,7.19s-.17,5.39-.11,7.25a26.67,26.67,0,0,1,.05,3,13.25,13.25,0,0,1-.42-3,52.1,52.1,0,0,1,.94-14.53A14,14,0,0,1,239.31,375.33Z" style="fill:#e0e0e0"></path><path d="M247.71,380.79a50.67,50.67,0,0,1-2.82,6.7A51.73,51.73,0,0,1,241.6,394a50.26,50.26,0,0,1,2.82-6.69A51.47,51.47,0,0,1,247.71,380.79Z" style="fill:#e0e0e0"></path><path d="M52.77,301.61a79.27,79.27,0,0,1-4.63-7.88A79.08,79.08,0,0,1,44,285.6a77.86,77.86,0,0,1,4.63,7.88A77.92,77.92,0,0,1,52.77,301.61Z" style="fill:#e0e0e0"></path><path d="M57.28,300.61A63.49,63.49,0,0,1,55,292.84a61.8,61.8,0,0,1-1.77-7.9,63.18,63.18,0,0,1,2.28,7.77A63.84,63.84,0,0,1,57.28,300.61Z" style="fill:#e0e0e0"></path><path d="M65.82,286.38c.15.08-1.32,2.79-2.34,6.42s-1.25,6.7-1.41,6.69a6.43,6.43,0,0,1,0-2,26.07,26.07,0,0,1,.91-4.8,25.7,25.7,0,0,1,1.78-4.56A6.93,6.93,0,0,1,65.82,286.38Z" style="fill:#e0e0e0"></path><path d="M291.25,283.79a18.93,18.93,0,0,1-.87-2.69c-.49-1.68-1.19-4-2.06-6.49s-1.74-4.75-2.39-6.37a18.34,18.34,0,0,1-1-2.65,13.22,13.22,0,0,1,1.32,2.5c.74,1.59,1.67,3.83,2.54,6.35a68.22,68.22,0,0,1,1.93,6.56A13.47,13.47,0,0,1,291.25,283.79Z" style="fill:#e0e0e0"></path><path d="M296.26,261.19c.08,0-.16,1.39-.45,3.62a86.6,86.6,0,0,0-.69,8.75,83.86,83.86,0,0,0,.25,8.78c.18,2.25.35,3.63.27,3.64a3.22,3.22,0,0,1-.24-1c-.12-.62-.26-1.53-.4-2.65a62.5,62.5,0,0,1,.45-17.63c.19-1.11.37-2,.53-2.62A3.79,3.79,0,0,1,296.26,261.19Z" style="fill:#e0e0e0"></path><path d="M307.82,262.94c.07,0-.53,1.23-1.37,3.22a50.87,50.87,0,0,0-3.9,16.33c-.16,2.16-.16,3.5-.24,3.5a3.26,3.26,0,0,1-.11-.94c0-.61-.05-1.49,0-2.58A42.49,42.49,0,0,1,306.11,266c.47-1,.87-1.77,1.19-2.29A3,3,0,0,1,307.82,262.94Z" style="fill:#e0e0e0"></path><path d="M377.9,341.88a20.88,20.88,0,0,1-1.3-2.72c-.76-1.69-1.81-4-3.05-6.57s-2.43-4.81-3.29-6.45a18.29,18.29,0,0,1-1.34-2.7,15.64,15.64,0,0,1,1.66,2.52c.95,1.6,2.19,3.85,3.44,6.4s2.25,4.92,2.92,6.66A15.9,15.9,0,0,1,377.9,341.88Z" style="fill:#e0e0e0"></path><path d="M379.3,317.72c.08,0,.08,1.24.2,3.24a58.89,58.89,0,0,0,1,7.73,58.18,58.18,0,0,0,2,7.53,31.13,31.13,0,0,1,1.05,3.07,2.85,2.85,0,0,1-.44-.76c-.25-.5-.58-1.25-.95-2.18A44.43,44.43,0,0,1,379.13,321c0-1,0-1.82.05-2.38A2.49,2.49,0,0,1,379.3,317.72Z" style="fill:#e0e0e0"></path><path d="M394,321.21a22.17,22.17,0,0,1-1.06,2.75c-.67,1.68-1.54,4-2.32,6.69s-1.31,5.1-1.65,6.89a21.74,21.74,0,0,1-.59,2.88,13.58,13.58,0,0,1,.23-2.94,49.88,49.88,0,0,1,4-13.67A13.37,13.37,0,0,1,394,321.21Z" style="fill:#e0e0e0"></path><path d="M478.66,280.92a82.42,82.42,0,0,1-4.87-7.84,83.49,83.49,0,0,1-4.43-8.1,78.26,78.26,0,0,1,4.88,7.84A84.59,84.59,0,0,1,478.66,280.92Z" style="fill:#e0e0e0"></path><path d="M483.7,279.05a5.73,5.73,0,0,1-.88-1.72,21.07,21.07,0,0,1-1.35-9.21,5.89,5.89,0,0,1,.35-1.91,63.53,63.53,0,0,0,.32,6.51A59.24,59.24,0,0,0,483.7,279.05Z" style="fill:#e0e0e0"></path><path d="M488.52,282.17a7.63,7.63,0,0,1-.47-2.32,21.56,21.56,0,0,1,.21-5.71,21.78,21.78,0,0,1,1.72-5.45,7.8,7.8,0,0,1,1.22-2,38.06,38.06,0,0,0-2.42,7.57A37.51,37.51,0,0,0,488.52,282.17Z" style="fill:#e0e0e0"></path><path d="M446.93,382.38a52.3,52.3,0,0,0-3.84,7.7,49.9,49.9,0,0,0-1.95,8.38,8.45,8.45,0,0,1,.06-2.55,26.71,26.71,0,0,1,1.4-6,27,27,0,0,1,2.75-5.51A9.15,9.15,0,0,1,446.93,382.38Z" style="fill:#e0e0e0"></path></g><g id="freepik--Floor--inject-10"><path d="M728.74,457c0,.15-159.29.27-355.72.27S17.26,457.17,17.26,457s159.25-.26,355.76-.26S728.74,456.88,728.74,457Z" style="fill:#263238"></path></g><g id="freepik--Plants--inject-10"><path d="M388.65,439.31s.26.14.68.46a19.22,19.22,0,0,1,1.64,1.49,24.41,24.41,0,0,1,4.22,6,24,24,0,0,1,2.23,7,15.89,15.89,0,0,1,.21,2.21,2.87,2.87,0,0,1,0,.81c-.09,0-.17-1.14-.54-3a27.93,27.93,0,0,0-2.33-6.79,28.33,28.33,0,0,0-4-6C389.47,440.13,388.6,439.38,388.65,439.31Z" style="fill:#263238"></path><path d="M401.1,434.53a22.36,22.36,0,0,1,0,3.3c-.05,2-.1,4.85-.06,7.95s.19,5.91.3,7.94a22.7,22.7,0,0,1,.12,3.3,19.15,19.15,0,0,1-.48-3.27c-.21-2-.41-4.85-.46-8s.07-5.94.22-8A19.49,19.49,0,0,1,401.1,434.53Z" style="fill:#263238"></path><path d="M409.77,444.52a29.17,29.17,0,0,0-3.06,5.92,28.83,28.83,0,0,0-1.09,6.58,5.46,5.46,0,0,1-.21-2,15.87,15.87,0,0,1,3-9.05A5.59,5.59,0,0,1,409.77,444.52Z" style="fill:#263238"></path><path d="M516.57,447a21.83,21.83,0,0,1,2.15,5,22.49,22.49,0,0,1,1.38,5.25A132.33,132.33,0,0,1,516.57,447Z" style="fill:#263238"></path><path d="M522.82,438a91.38,91.38,0,0,1,.81,9.52,89.92,89.92,0,0,1,.29,9.54,87.52,87.52,0,0,1-.81-9.51A84.08,84.08,0,0,1,522.82,438Z" style="fill:#263238"></path><path d="M549.56,431.11c.15,0,.76,5.71,1.38,12.78s1,12.82.86,12.84-.76-5.72-1.38-12.79S549.42,431.12,549.56,431.11Z" style="fill:#263238"></path><path d="M559.75,433.57a28.67,28.67,0,0,1-.62,3.41c-.41,2.1-.92,5-1.29,8.24s-.53,6.19-.6,8.32a29.39,29.39,0,0,1-.16,3.47,3,3,0,0,1-.12-.93c0-.6-.08-1.47-.09-2.54a70.79,70.79,0,0,1,.46-8.38,68.88,68.88,0,0,1,1.44-8.26c.25-1,.48-1.88.65-2.45A3,3,0,0,1,559.75,433.57Z" style="fill:#263238"></path><path d="M569.66,443.5a25.59,25.59,0,0,0-6.58,13.24,6.82,6.82,0,0,1,.16-2.22A18.8,18.8,0,0,1,568,445,7,7,0,0,1,569.66,443.5Z" style="fill:#263238"></path><path d="M242.53,457a26.86,26.86,0,0,1-.76-3,58,58,0,0,0-5.35-13.84,24.38,24.38,0,0,1-1.45-2.74,14.62,14.62,0,0,1,1.77,2.56,44.3,44.3,0,0,1,3.29,6.74,45.12,45.12,0,0,1,2.1,7.2A13.1,13.1,0,0,1,242.53,457Z" style="fill:#263238"></path><path d="M247.15,424.1a5.73,5.73,0,0,1,.06,1.31V429c0,3,0,7.15.24,11.73s.48,8.71.72,11.7c.12,1.42.22,2.61.29,3.55a5.68,5.68,0,0,1,0,1.31,6.43,6.43,0,0,1-.25-1.29c-.13-.83-.28-2-.45-3.53-.34-3-.7-7.13-.88-11.72s-.18-8.75-.08-11.75c0-1.51.1-2.72.16-3.56A6.47,6.47,0,0,1,247.15,424.1Z" style="fill:#263238"></path><path d="M260.46,438.42a23.9,23.9,0,0,1-1.32,2.63,49.53,49.53,0,0,0-2.71,6.49,48,48,0,0,0-1.71,6.83,27.4,27.4,0,0,1-.51,2.89,11.54,11.54,0,0,1,.15-2.94,36.51,36.51,0,0,1,4.46-13.45A12.65,12.65,0,0,1,260.46,438.42Z" style="fill:#263238"></path><path d="M650.85,438a86.58,86.58,0,0,1,.82,9.52A89.92,89.92,0,0,1,652,457a84.6,84.6,0,0,1-.81-9.51A88.66,88.66,0,0,1,650.85,438Z" style="fill:#263238"></path><path d="M640.22,445.52a7,7,0,0,1,1.6,1.36,31.22,31.22,0,0,1,5.9,8.23,7.19,7.19,0,0,1,.78,2c-.14.06-1.52-2.83-3.82-6S640.11,445.63,640.22,445.52Z" style="fill:#263238"></path><path d="M659.94,446.35c0,.07-.53.45-1.27,1.26a11.67,11.67,0,0,0-2.19,3.65,28,28,0,0,0-1.16,4.16,7.17,7.17,0,0,1-.47,1.75,5.76,5.76,0,0,1,.11-1.82,19,19,0,0,1,1-4.28,10.07,10.07,0,0,1,2.42-3.72A3.48,3.48,0,0,1,659.94,446.35Z" style="fill:#263238"></path><path d="M60,438a88.21,88.21,0,0,1,.81,9.52,83.94,83.94,0,0,1,.29,9.54,90.65,90.65,0,0,1-.81-9.51A90.07,90.07,0,0,1,60,438Z" style="fill:#263238"></path><path d="M49.41,445.52a7.21,7.21,0,0,1,1.6,1.36,31,31,0,0,1,3.28,3.88,30.62,30.62,0,0,1,2.62,4.35,7.19,7.19,0,0,1,.78,2c-.15.06-1.52-2.83-3.82-6S49.29,445.63,49.41,445.52Z" style="fill:#263238"></path><path d="M69.13,446.35c.05.07-.54.45-1.28,1.26a11.67,11.67,0,0,0-2.18,3.65,26.81,26.81,0,0,0-1.16,4.16,6.87,6.87,0,0,1-.48,1.75,6.16,6.16,0,0,1,.11-1.82,19.09,19.09,0,0,1,1-4.28,10.06,10.06,0,0,1,2.41-3.72C68.43,446.57,69.1,446.29,69.13,446.35Z" style="fill:#263238"></path></g><g id="freepik--Sun--inject-10"><circle cx="381.14" cy="66.34" r="16.48" transform="translate(254.91 432.03) rotate(-80.83)" style="fill:#ECEFF1"></circle><path d="M378.79,103.18a65.81,65.81,0,0,1-.17-6.79,65.93,65.93,0,0,1,.17-6.8,65.93,65.93,0,0,1,.17,6.8A65.81,65.81,0,0,1,378.79,103.18Z" style="fill:#ECEFF1"></path><path d="M369.29,85.76c.09,0-1.46,2.88-3.46,6.34s-3.68,6.21-3.76,6.17,1.47-2.89,3.46-6.35S369.21,85.71,369.29,85.76Z" style="fill:#ECEFF1"></path><path d="M359.55,79.69A37.62,37.62,0,0,1,355.7,83a37,37,0,0,1-4.06,3,34.88,34.88,0,0,1,3.85-3.28A35.44,35.44,0,0,1,359.55,79.69Z" style="fill:#ECEFF1"></path><path d="M395.23,96.49a10,10,0,0,1-.44-1.68c-.23-1-.57-2.46-1-4s-.85-3-1.16-4a10.59,10.59,0,0,1-.47-1.66,7.05,7.05,0,0,1,.7,1.58c.37,1,.84,2.4,1.27,4s.72,3,.89,4.08A8.05,8.05,0,0,1,395.23,96.49Z" style="fill:#ECEFF1"></path><path d="M411.94,84.63a58.92,58.92,0,0,1-4.87-4,58.47,58.47,0,0,1-4.64-4.29,58.92,58.92,0,0,1,4.87,4A54.35,54.35,0,0,1,411.94,84.63Z" style="fill:#ECEFF1"></path><path d="M418.34,68.33a12.83,12.83,0,0,1-2-.29c-1.22-.2-2.91-.46-4.79-.68s-3.57-.34-4.81-.42a14.29,14.29,0,0,1-2-.17,10.32,10.32,0,0,1,2-.07,46.43,46.43,0,0,1,4.84.32c1.89.21,3.58.52,4.79.78A9.48,9.48,0,0,1,418.34,68.33Z" style="fill:#ECEFF1"></path><path d="M418.36,52.3c0,.09-3.54,1-8,2.12s-8,1.88-8,1.78,3.54-1,8-2.12S418.34,52.21,418.36,52.3Z" style="fill:#ECEFF1"></path><path d="M399.74,33.63c.08,0-1.62,2.77-3.81,6.08s-4,5.94-4.1,5.89,1.63-2.78,3.81-6.08S399.66,33.58,399.74,33.63Z" style="fill:#ECEFF1"></path><path d="M381.27,29.73a18.56,18.56,0,0,1,0,2.26c0,1.4-.05,3.32-.05,5.45s0,4.06.06,5.45a16.23,16.23,0,0,1,0,2.26,13.71,13.71,0,0,1-.22-2.25c-.09-1.4-.16-3.33-.16-5.46S381,33.38,381,32A13.27,13.27,0,0,1,381.27,29.73Z" style="fill:#ECEFF1"></path><path d="M367.27,47.16c-.08.05-1.82-2.65-3.87-6S359.73,35,359.81,35a70.82,70.82,0,0,1,3.88,6C365.75,44.33,367.35,47.11,367.27,47.16Z" style="fill:#ECEFF1"></path><path d="M358.91,54.26a7.59,7.59,0,0,1-1.75-.28c-1.07-.22-2.54-.58-4.14-1s-3-1-4.06-1.37a8.48,8.48,0,0,1-1.62-.71,9.28,9.28,0,0,1,1.7.48c1,.34,2.48.79,4.07,1.26s3.05.87,4.11,1.15A10,10,0,0,1,358.91,54.26Z" style="fill:#ECEFF1"></path><path d="M355.26,66.92a39.46,39.46,0,0,1-5.26.68,42.46,42.46,0,0,1-5.29.34,39.77,39.77,0,0,1,5.26-.68A42.46,42.46,0,0,1,355.26,66.92Z" style="fill:#ECEFF1"></path></g><g id="freepik--character-3--inject-10"><circle cx="712.14" cy="189.67" r="6.34" style="fill:#e0e0e0"></circle><path d="M718.47,189.67c-.05,0,0-.56-.29-1.52a6.3,6.3,0,0,0-2.32-3.37,6.17,6.17,0,0,0-5.8-.84,6,6,0,0,0-2.82,2.13,6.08,6.08,0,0,0,0,7.2,6,6,0,0,0,2.82,2.13,6.17,6.17,0,0,0,5.8-.84,6.3,6.3,0,0,0,2.32-3.37c.26-1,.24-1.52.29-1.52a1.2,1.2,0,0,1,0,.41,4.92,4.92,0,0,1-.14,1.16,6.19,6.19,0,0,1-2.29,3.61,6.51,6.51,0,0,1-9.25-1.28,6.54,6.54,0,0,1,0-7.8,6.51,6.51,0,0,1,9.25-1.28,6.24,6.24,0,0,1,2.29,3.61,4.92,4.92,0,0,1,.14,1.16A1.2,1.2,0,0,1,718.47,189.67Z" style="fill:#263238"></path><path d="M655.69,228.88l9.52,2,29.65-24.27,12.48,6.54S677.85,246,671.63,248.89s-22.36,1.55-22.36,1.55Z" style="fill:#455a64"></path><path d="M695.85,207.1l4.76-15.83v-2.63a6.82,6.82,0,0,1,1.59-4.38c1.3-1.54,3-3.49,3.86-3.77,1.36-.49,2.52,1.45,2.52,1.45a3,3,0,0,1,3.7-1.45,2.94,2.94,0,0,1,2.13,3.2l-1.75-.19-3.49,6-.2,4.81s5.1-3.06,5.47-3.25S718,192,718,192a1.65,1.65,0,0,1-.12,2.3s1.43.3.52,2.41-4.4,5.81-4.4,5.81a12.25,12.25,0,0,1-2.1,5.83c-1.95,2.72-5.87,4.08-5.87,4.08Z" style="fill:#ffbe9d"></path><path d="M717.91,194.33a13.84,13.84,0,0,1-3.58,2.57c-2.1,1.21-3.64,2.39-3.73,2.3s1.34-1.53,3.46-2.75A31,31,0,0,1,717.91,194.33Z" style="fill:#eb996e"></path><path d="M709.24,181.22a11.35,11.35,0,0,1-1.18,1.78,24,24,0,0,0-2.48,4.44,14.54,14.54,0,0,0-1.11,4.92c-.05,1.3.1,2.11,0,2.13a5,5,0,0,1-.38-2.13,12.62,12.62,0,0,1,1-5.12,19,19,0,0,1,2.68-4.46A6.73,6.73,0,0,1,709.24,181.22Z" style="fill:#eb996e"></path><path d="M665,244.41a3.08,3.08,0,0,1,.42-2.71c.81-1.4,2.12-1.84,2.14-1.7s-1,.72-1.69,2A14.9,14.9,0,0,0,665,244.41Z" style="fill:#263238"></path><path d="M436,185.49a16.58,16.58,0,0,0-1.08,4.36,5.69,5.69,0,0,0,1.25,4.2,5.21,5.21,0,0,0,5.16,1.3,8.61,8.61,0,0,0,4.42-3.27,25.27,25.27,0,0,0,2.64-4.92l2.13-6.19-2.32-4.76-8.49-1.41Z" style="fill:#ECEFF1"></path><g style="opacity:0.30000000000000004"><path d="M436,185.49a16.58,16.58,0,0,0-1.08,4.36,5.69,5.69,0,0,0,1.25,4.2,5.21,5.21,0,0,0,5.16,1.3,8.61,8.61,0,0,0,4.42-3.27,25.27,25.27,0,0,0,2.64-4.92l2.13-6.19-2.32-4.76-8.49-1.41Z"></path></g><path d="M526.46,180.49s-24.21-8.68-38.67-11.54c-11.34-2.24-19.26-4.38-19.26-4.38l-9.14,13.19L526,206.82l6.26-16.67Z" style="fill:#455a64"></path><path d="M469.71,159.3a7.74,7.74,0,0,0-3.5-1.2c-6.46-1.08-13.07-2.13-19.51-.94-5.81,1.07-10.05,4.41-14.36,8.46s-7,8-10,13.9c-.67,1.3-1.54,3.27-1.34,4.72a3.73,3.73,0,0,0,2.56,3.23,9.93,9.93,0,0,0,4.82-.75c3.2-1.31,3.81-1.13,6.28-3.33-.35,1.28,0,0,.06,1.33a3.88,3.88,0,0,0,6.66,2.95,12.83,12.83,0,0,0,3.17-4.24,3.88,3.88,0,1,0,7.26,2.74,3.29,3.29,0,0,0,1.86,4,4.84,4.84,0,0,0,4.65-.74,9.78,9.78,0,0,0,2.9-3.92c1.7-3.74,2.19-7.9,3.26-11.86s2.23-6.6,5.75-8.71C471.39,163.4,471.27,160.51,469.71,159.3Z" style="fill:#ECEFF1"></path><path d="M454.59,164.1a21.37,21.37,0,0,1-1.66,2.8c-1.05,1.71-2.47,4.08-3.86,6.8s-2.51,5.26-3.32,7.09a22.13,22.13,0,0,1-1.37,3,18.35,18.35,0,0,1,1-3.09,75.27,75.27,0,0,1,3.2-7.18,63.25,63.25,0,0,1,4-6.77A17.7,17.7,0,0,1,454.59,164.1Z" style="fill:#263238"></path><path d="M445.55,163a15.88,15.88,0,0,1-1.08,1.64c-.71,1-1.73,2.56-2.89,4.49s-2.45,4.27-3.76,7c-.65,1.34-1.31,2.76-2,4.24a10.46,10.46,0,0,0-.83,2.26,6.93,6.93,0,0,0,.06,2.44,6.53,6.53,0,0,0,.54,1.72,3.32,3.32,0,0,0,1.22,1.19,4,4,0,0,0,3.24.34,5.91,5.91,0,0,0,2.47-2,14.35,14.35,0,0,0,1.62-2.58l.61-1.21-.2,1.33a4.39,4.39,0,0,0,1.26,4,3.16,3.16,0,0,0,1.65.67,4.67,4.67,0,0,0,1.56-.07,4.74,4.74,0,0,0,2-.94c.4-.33.57-.55.6-.53a.74.74,0,0,1-.11.18,4,4,0,0,1-.4.45,4.75,4.75,0,0,1-3.65,1.21,3.49,3.49,0,0,1-1.84-.69,4.77,4.77,0,0,1-1.47-4.34l.41.13a15,15,0,0,1-1.64,2.68,6.46,6.46,0,0,1-2.67,2.19,4.52,4.52,0,0,1-3.67-.36,3.88,3.88,0,0,1-1.41-1.38,6.64,6.64,0,0,1-.6-1.88,7.27,7.27,0,0,1-.06-2.63,5.67,5.67,0,0,1,.38-1.25l.5-1.13c.66-1.48,1.33-2.9,2-4.24,1.34-2.68,2.67-5,3.88-6.94s2.27-3.4,3-4.41c.38-.5.69-.88.9-1.14A2.37,2.37,0,0,1,445.55,163Z" style="fill:#263238"></path><path d="M460.4,166a25.59,25.59,0,0,1-1.5,3c-.95,1.85-2.21,4.43-3.44,7.35s-2.17,5.62-2.82,7.59a31.68,31.68,0,0,1-1.1,3.19,2.75,2.75,0,0,1,.13-.9c.12-.57.33-1.39.61-2.39a69.78,69.78,0,0,1,2.7-7.7,71.75,71.75,0,0,1,3.59-7.31c.52-.91,1-1.63,1.28-2.12A4,4,0,0,1,460.4,166Z" style="fill:#263238"></path><g style="opacity:0.30000000000000004"><path d="M434.82,182.23a30.24,30.24,0,0,0-9.91.06c-1.24.22-2.66.71-3.05,1.91a2.33,2.33,0,0,0,.85,2.44,3.74,3.74,0,0,0,2.59.7,10.75,10.75,0,0,0,2.67-.6,29.3,29.3,0,0,0,6.72-3.54Z"></path></g><path d="M422.52,186.74s-.19-.15-.42-.5a2.88,2.88,0,0,1-.48-1.75,2,2,0,0,1,.59-1.18,4,4,0,0,1,1.25-.77,13.7,13.7,0,0,1,3.15-.74,23,23,0,0,1,5.81-.25,5.75,5.75,0,0,1,2.33.63c0,.09-.91-.18-2.36-.26a29.65,29.65,0,0,0-5.71.4,14.35,14.35,0,0,0-3,.67,2.22,2.22,0,0,0-1.65,1.55,2.87,2.87,0,0,0,.29,1.6C422.45,186.52,422.55,186.72,422.52,186.74Z" style="fill:#263238"></path><path d="M438.55,173.64c-.07,0-.42-.53-1.15-1.3A9,9,0,0,0,430,169.5a17,17,0,0,1-1.72.19,3.82,3.82,0,0,1,1.68-.56,8.37,8.37,0,0,1,4.25.45,8.23,8.23,0,0,1,3.45,2.52A3.55,3.55,0,0,1,438.55,173.64Z" style="fill:#263238"></path><path d="M447.78,175.2c-.09,0-.23-.58-.78-1.37a4.92,4.92,0,0,0-6.52-1.56c-.85.45-1.25.92-1.32.86s.27-.61,1.13-1.18a4.92,4.92,0,0,1,7,1.69A2.57,2.57,0,0,1,447.78,175.2Z" style="fill:#263238"></path><path d="M455.11,176.07c-.09,0-.06-.54-.51-1.2a3,3,0,0,0-2.61-1.26,5.81,5.81,0,0,0-2.93,1c-.7.44-1.11.76-1.17.7s.29-.46,1-1a5.38,5.38,0,0,1,3.13-1.21,3.67,3.67,0,0,1,1.86.47,3,3,0,0,1,1.08,1.14C455.34,175.5,455.16,176.09,455.11,176.07Z" style="fill:#263238"></path><path d="M463.52,178.15c-.07,0-.31-.45-.87-1.06a5.37,5.37,0,0,0-5.86-1.46,13.32,13.32,0,0,1-1.27.52s.33-.47,1.13-.86a5.1,5.1,0,0,1,6.28,1.57C463.46,177.58,463.58,178.13,463.52,178.15Z" style="fill:#263238"></path><path d="M454.93,162.11c-.08,0-.32-.4-.88-1a5.36,5.36,0,0,0-5.56-1.37c-.75.24-1.18.52-1.22.45s.32-.44,1.08-.79a5,5,0,0,1,6,1.47C454.85,161.58,455,162.09,454.93,162.11Z" style="fill:#263238"></path><path d="M590.69,143.83l-1,0A19.26,19.26,0,0,0,570,160.94c-1,9.27-2,19.53-2.11,24.52-.17,10.33,10.11,12.23,10.11,12.23l-.33,7.8-.4,9.29,6.29,9.54,12-10.9,8.64-2.8.3-11,.91-34.49C606.61,154.4,601.42,144.77,590.69,143.83Z" style="fill:#ffbe9d"></path><path d="M578,197.69a24,24,0,0,0,13.57-3.44s-3.4,7.34-13.67,6.11Z" style="fill:#eb996e"></path><path d="M572.7,169.78a1.48,1.48,0,0,0,1.38,1.53,1.42,1.42,0,0,0,1.56-1.29,1.48,1.48,0,0,0-1.38-1.53A1.41,1.41,0,0,0,572.7,169.78Z" style="fill:#263238"></path><path d="M571.94,165.5c.17.2,1.31-.59,2.9-.54s2.73.88,2.9.69-.08-.44-.58-.82a4,4,0,0,0-2.32-.79,3.83,3.83,0,0,0-2.32.67C572,165.07,571.85,165.42,571.94,165.5Z" style="fill:#263238"></path><path d="M586.72,170.13a1.47,1.47,0,0,0,1.38,1.52,1.4,1.4,0,0,0,1.56-1.28,1.48,1.48,0,0,0-1.38-1.53A1.41,1.41,0,0,0,586.72,170.13Z" style="fill:#263238"></path><path d="M587.76,165.52c.16.21,1.38-.45,3-.23s2.61,1.17,2.81,1,0-.45-.49-.88a4.08,4.08,0,0,0-2.22-1,3.91,3.91,0,0,0-2.38.42C587.9,165.1,587.68,165.42,587.76,165.52Z" style="fill:#263238"></path><path d="M581.56,178.4a10.43,10.43,0,0,0-2.56-.54c-.41-.05-.79-.14-.85-.42a2.15,2.15,0,0,1,.31-1.2l1.29-3.05c1.79-4.34,3.1-7.92,2.92-8s-1.77,3.39-3.56,7.74c-.43,1.07-.84,2.09-1.24,3.07a2.38,2.38,0,0,0-.25,1.58,1,1,0,0,0,.64.62,3.26,3.26,0,0,0,.69.11A10.52,10.52,0,0,0,581.56,178.4Z" style="fill:#263238"></path><path d="M587.74,158.66c.15.44,1.74.28,3.59.56s3.35.83,3.61.45c.11-.18-.14-.6-.73-1a6,6,0,0,0-2.66-1,6.14,6.14,0,0,0-2.82.25C588,158.13,587.68,158.46,587.74,158.66Z" style="fill:#263238"></path><path d="M572.37,159.37c.27.37,1.37,0,2.69,0s2.42.31,2.69-.06c.12-.18,0-.54-.53-.9a3.91,3.91,0,0,0-4.33,0C572.42,158.83,572.25,159.2,572.37,159.37Z" style="fill:#263238"></path><path d="M604.31,172.72c.18-.07,7.15-1.9,6.72,5.16s-7.42,5.16-7.42,5S604.31,172.72,604.31,172.72Z" style="fill:#ffbe9d"></path><path d="M605.93,180.3s.12.09.32.2a1.24,1.24,0,0,0,.92.08,3.06,3.06,0,0,0,1.57-2.65,4,4,0,0,0-.24-1.78,1.41,1.41,0,0,0-.86-1,.64.64,0,0,0-.75.3c-.11.19-.07.33-.11.34s-.14-.13-.07-.41A.8.8,0,0,1,607,175a.93.93,0,0,1,.69-.14,1.71,1.71,0,0,1,1.21,1.18,4.16,4.16,0,0,1,.31,2c-.13,1.42-.94,2.7-2,2.93a1.31,1.31,0,0,1-1.11-.25C605.93,180.47,605.9,180.31,605.93,180.3Z" style="fill:#eb996e"></path><path d="M569.2,148.86a3.61,3.61,0,0,1,2.8-2.81,3.21,3.21,0,0,1,5.13-3.59,3.3,3.3,0,0,1,4.58-2.82,2.79,2.79,0,0,1,5.26-1.37,4.8,4.8,0,0,1,7.49-.39,6.13,6.13,0,0,1,7.35,3.5,5.84,5.84,0,0,1,5,4.15,4.26,4.26,0,0,1,3,6.76,3.15,3.15,0,0,1,.51,5,3.09,3.09,0,0,1-.24,5.59c1,.16,1.41,1.55,1.07,2.54a30.64,30.64,0,0,1-1.55,2.72c-.36.79-.49,1.66-.8,2.47a5.61,5.61,0,0,1-3.42,3.23l.17.21c.16.91-1.12,1.5-2,1.12a4.59,4.59,0,0,1-1.76-2.07,9.89,9.89,0,0,1-1.4-2.84,2.43,2.43,0,0,1,1.05-2.74,3.7,3.7,0,0,1-2.16-3,11,11,0,0,1,.33-3.82q.58-2.78,1.16-5.57a7,7,0,0,1-6-4.17,4,4,0,0,1-5.82-1.61,5.27,5.27,0,0,1-6.5,3.07c.24,1.47-2.42,2.75-3.87,3.09a5.15,5.15,0,0,1-3.22-.72s-2.51,1.39-3.85.81-3-2.32-2.14-3.69A6.51,6.51,0,0,1,569.2,148.86Z" style="fill:#263238"></path><path d="M610.65,157.28c-.07,0-.12.48-.72.89a1.37,1.37,0,0,1-1.17.17,1.41,1.41,0,0,1-1-1.07l-.07-.42-.34.28a1.83,1.83,0,0,1-3-1.66l.06-.41-.39.14a1.85,1.85,0,0,1-1.43,0,1.83,1.83,0,0,1-.84-.78,4.78,4.78,0,0,1-.33-1.05s-.23.44.06,1.18a2.08,2.08,0,0,0,.93,1,2.21,2.21,0,0,0,1.78.14l-.32-.26a2.34,2.34,0,0,0,1.3,2.46,2.38,2.38,0,0,0,2.5-.36l-.41-.14a1.85,1.85,0,0,0,1.33,1.39,1.66,1.66,0,0,0,1.46-.34C610.77,157.84,610.69,157.25,610.65,157.28Z" style="fill:#455a64"></path><path d="M611.52,164.07a4.32,4.32,0,0,1-.76.28,1.7,1.7,0,0,1-1.75-.81l-.14-.25-.2.2a1.88,1.88,0,0,1-1.81.46,1.84,1.84,0,0,1-1.27-1.69v-.47l-.4.25a1.22,1.22,0,0,1-.33.14,1.29,1.29,0,0,1-1.41-.52,1.37,1.37,0,0,1,0-1.41l.27-.43-.5.07a2.23,2.23,0,0,1-1.61-.45,2.19,2.19,0,0,1-.77-1.1,4.17,4.17,0,0,1-.12-1.23s-.32.44-.15,1.3a2.44,2.44,0,0,0,.79,1.34,2.59,2.59,0,0,0,1.92.61L603,160a1.85,1.85,0,0,0,0,1.95,1.81,1.81,0,0,0,2,.75,1.52,1.52,0,0,0,.47-.2l-.41-.22a2.32,2.32,0,0,0,1.68,2.15,2.25,2.25,0,0,0,2.24-.64l-.33-.05a1.78,1.78,0,0,0,1.12.85,1.94,1.94,0,0,0,1,0C611.38,164.4,611.55,164.08,611.52,164.07Z" style="fill:#455a64"></path><path d="M582.64,139.46a2.89,2.89,0,0,1,.81-.43,1.45,1.45,0,0,1,1,.08,1.53,1.53,0,0,1,.83,1l.08.41.23-.36a2.55,2.55,0,0,1,2.21-1.16,2.5,2.5,0,0,1,2.28,1.84l.12.47.31-.38a3.11,3.11,0,0,1,2.47-1.1,3,3,0,0,1,2.46,1.47,3.12,3.12,0,0,1,.42,1.16l0,.28.28-.06a3,3,0,0,1,3.32,1.67,3.09,3.09,0,0,1-.59,3.29l-.28.28.38.08a3.28,3.28,0,0,1,2.62,3.3,5,5,0,0,1-.42,1.7,1.07,1.07,0,0,0,.28-.38,3.25,3.25,0,0,0,.38-1.31,3.42,3.42,0,0,0-.49-2.08,3.61,3.61,0,0,0-2.28-1.65l.11.36a3.42,3.42,0,0,0-3.15-5.78l.32.23a3.46,3.46,0,0,0-.48-1.36,3.51,3.51,0,0,0-2.91-1.72,3.62,3.62,0,0,0-2.87,1.31l.43.1a2.87,2.87,0,0,0-5.25-.73l.31.05a1.82,1.82,0,0,0-1-1.22,1.68,1.68,0,0,0-1.19,0,1.61,1.61,0,0,0-.62.4C582.67,139.37,582.63,139.45,582.64,139.46Z" style="fill:#455a64"></path><path d="M568.18,179.82a2.22,2.22,0,0,1,3.26,1.07,2.75,2.75,0,0,1,4.88.85,2.26,2.26,0,0,1,3.76-.64,1.78,1.78,0,0,1,1.92-.77,1.74,1.74,0,0,1,2.84-1.54,2.84,2.84,0,0,1,4.2-.7,1.58,1.58,0,0,1,3,.11,2.56,2.56,0,0,1,2.95-.77,1.71,1.71,0,0,1,2.12-1.56c-.24-.87,1-1.27,1.69-1.89.3-.28.49-.66.8-.92s.86-.3,1.07,0a1.46,1.46,0,0,1,2.74-.95,4.4,4.4,0,0,1,.24,1.25c.2,1.35,1,3,0,3.91-.18.17-.4.31-.48.54-.12.39.26.76.29,1.17s-.41.85-.6,1.28a4.39,4.39,0,0,0,0,2.1c.06.71-.35,1.61-1,1.54a2.5,2.5,0,0,1-.78,3.08,2.43,2.43,0,0,1-1.42,3.18,1.26,1.26,0,0,1,.09,1.64,3.74,3.74,0,0,1-1.45,1,1,1,0,0,1,.25,1.45,2.36,2.36,0,0,1-1.39.84,1,1,0,0,0-.61.33c-.26.37.08.86,0,1.3-.1.68-1,.87-1.34,1.49s.08,1.33-.36,1.74-.74.22-1.11.35c-.66.24-1,1-1.38,1.54a5.92,5.92,0,0,1-3.42,1.85c-.66.16-1.32.3-2,.43-1.32.24-2.65.4-4,.56-.66.08-1.47.09-1.82-.47a2.31,2.31,0,0,1-3.67-.44,5.51,5.51,0,0,1-3.56-.68l-1.17-.51c-1.17-.5-2.47-1.16-2.81-2.38a2.56,2.56,0,0,1-1.84-3.51c-.53.15-1.05-.39-1.13-.93a4.84,4.84,0,0,1,.21-1.64c.4-2.21-.77-4.47-.47-6.69.22-1.56,1.15-3.11.7-4.62a2.8,2.8,0,0,1-.22-.94c0-.32.32-.65.63-.56a1.44,1.44,0,0,1,1.45-1.91" style="fill:#263238"></path><path d="M586.2,179.63c-.26,0-.31,1.7-1.82,2.88s-3.34.94-3.36,1.18.4.35,1.18.39a4.3,4.3,0,0,0,2.8-.88,3.76,3.76,0,0,0,1.41-2.42C586.5,180.06,586.32,179.63,586.2,179.63Z" style="fill:#fff"></path><path d="M596.27,191.77a14.89,14.89,0,0,0,.67-3.65,16.12,16.12,0,0,0-.51-3.68,3.26,3.26,0,0,1,.43,1,8.73,8.73,0,0,1,.36,2.65,9,9,0,0,1-.47,2.65A3.1,3.1,0,0,1,596.27,191.77Z" style="fill:#455a64"></path><path d="M597.9,189.28s.21-.28.39-.78a5.14,5.14,0,0,0,.17-2.09c-.13-1.67-.59-3-.51-3a6.74,6.74,0,0,1,.79,3,4.4,4.4,0,0,1-.27,2.18A1.35,1.35,0,0,1,597.9,189.28Z" style="fill:#455a64"></path><path d="M599.63,187.85a10.31,10.31,0,0,0,.75-3.08,10.53,10.53,0,0,0-.49-3.13,2.22,2.22,0,0,1,.43.86,6.26,6.26,0,0,1-.19,4.53A2.08,2.08,0,0,1,599.63,187.85Z" style="fill:#455a64"></path><path d="M570.9,198.4a1.79,1.79,0,0,1-1-.63,5.66,5.66,0,0,1-1.23-2.52,8.45,8.45,0,0,1-.23-2.8,3.24,3.24,0,0,1,.22-1.13,14,14,0,0,0,.28,3.86,6.2,6.2,0,0,0,1.11,2.46A5.52,5.52,0,0,0,570.9,198.4Z" style="fill:#455a64"></path><path d="M572.4,198a2.32,2.32,0,0,1-.79-.56,5.46,5.46,0,0,1-1.68-4.27,2.11,2.11,0,0,1,.2-.95,7.06,7.06,0,0,1,0,.95,6.57,6.57,0,0,0,.44,2.21,6.48,6.48,0,0,0,1.19,1.92C572.14,197.76,572.43,198,572.4,198Z" style="fill:#455a64"></path><path d="M578.78,184.08a1.75,1.75,0,0,1-.13-1.34,1.72,1.72,0,0,1,.64-1.17c.07,0-.24.54-.37,1.23S578.86,184.06,578.78,184.08Z" style="fill:#455a64"></path><path d="M580.57,183.65c-.05.06-.49-.33-.6-1a1.31,1.31,0,0,1,.25-1.17c.08,0-.07.52,0,1.12S580.63,183.6,580.57,183.65Z" style="fill:#455a64"></path><path d="M582.36,183.1c-.05.06-.45-.31-.62-.94s0-1.15,0-1.13.06.5.22,1.06S582.43,183.05,582.36,183.1Z" style="fill:#455a64"></path><path d="M583.65,181.64c-.07,0-.28-.21-.41-.58s-.12-.71,0-.72.18.28.3.63S583.71,181.6,583.65,181.64Z" style="fill:#455a64"></path><path d="M584.76,181.06c-.07,0-.31-.31-.7-.62s-.79-.47-.77-.55.49,0,.94.33S584.83,181,584.76,181.06Z" style="fill:#455a64"></path><path d="M586.42,179.78c0,.07-.53-.32-1.23-.5s-1.3-.09-1.31-.17a2.15,2.15,0,0,1,2.54.67Z" style="fill:#455a64"></path><path d="M579.9,199.89a3.4,3.4,0,0,1-.74-.94,7.69,7.69,0,0,1-.89-5.65,3.16,3.16,0,0,1,.42-1.12s-.11.44-.23,1.16a8.67,8.67,0,0,0,.87,5.51A10.51,10.51,0,0,1,579.9,199.89Z" style="fill:#455a64"></path><path d="M581.72,199.78a6,6,0,0,1-1.59-5.56,13.23,13.23,0,0,0,.35,2.91A12.8,12.8,0,0,0,581.72,199.78Z" style="fill:#455a64"></path><path d="M584.91,199.16a1.86,1.86,0,0,1-.73-.36,4.88,4.88,0,0,1-1.35-1.42,4.74,4.74,0,0,1-.68-1.85c-.07-.5,0-.81,0-.81a8.34,8.34,0,0,0,.9,2.51A9,9,0,0,0,584.91,199.16Z" style="fill:#455a64"></path><path d="M526.46,180.49c-.31.92-1.85,36.54-1.85,36.54l17.82,6.45,4,7.38-1.53,55.28L597.71,292l20.58-38.39,31.63,1.23,10.45-26.41L623.51,213l-18.12-9.21-18.74-7.68-22.72-3.69s-6.45-3.68-10.45-4.91S526.46,180.49,526.46,180.49Z" style="fill:#e0e0e0"></path><path d="M561.46,196.74a8.32,8.32,0,0,1,.3,1.51c.15,1,.31,2.4.41,4.17a35.59,35.59,0,0,1-1.82,13.66,24.6,24.6,0,0,1-8,11.19,18.41,18.41,0,0,1-3.59,2.19c-.44.22-.81.33-1,.43a1.37,1.37,0,0,1-.39.11,29.34,29.34,0,0,0,4.8-3,25.4,25.4,0,0,0,7.69-11.08,37.44,37.44,0,0,0,1.94-13.48c0-1.76-.16-3.18-.24-4.16A9.12,9.12,0,0,1,561.46,196.74Z" style="fill:#263238"></path><path d="M631.13,224.24c.13.06-3,7.45-7,16.5s-7.38,16.34-7.51,16.28,3-7.44,7-16.49S631,224.19,631.13,224.24Z" style="fill:#263238"></path><path d="M578.69,209.13l7.49,1.36-.4,2.2-2.53-.46-2.4,13.2-2.42-.44,2.4-13.2-2.54-.46Z" style="fill:#263238"></path><path d="M586.36,214.34c.45-2.47,2-3.64,4.38-3.21s3.42,2.08,3,4.54l-1.46,8c-.44,2.47-2,3.64-4.38,3.21s-3.41-2.07-3-4.54Zm.95,8.6c-.2,1.1.2,1.61,1,1.75s1.33-.19,1.53-1.29l1.51-8.32c.2-1.1-.21-1.61-1-1.75s-1.33.19-1.53,1.29Z" style="fill:#263238"></path><path d="M599.09,224.12l3.64-10.64,3.36.62-2.79,15.4-2.29-.41L603,218l-3.68,10.74-2.29-.41.17-11.22-2,10.89-2.11-.38,2.79-15.41,3.37.61Z" style="fill:#263238"></path><path d="M579.38,238.57c-1.68-.3-2.89.42-3.32,2.81l-.64,3.59-5-.89.58-3.25c1-5.36,4.19-8,9.35-7s7.31,4.46,6.35,9.82c-1.87,10.53-13.06,12.58-14,18.09a4.41,4.41,0,0,0-.08.72l10,1.78L581.7,269l-15.22-2.71.74-4.11c1.76-9.86,12.48-9.63,14.2-19.3C582,239.87,581.05,238.86,579.38,238.57Z" style="fill:#ECEFF1"></path><path d="M589.54,244.13c1-5.36,4.33-7.92,9.5-7s7.44,4.49,6.49,9.85l-3.11,17.42c-.95,5.36-4.32,7.92-9.49,7s-7.45-4.49-6.49-9.85Zm2.1,18.7c-.43,2.39.47,3.49,2.14,3.78s2.89-.42,3.32-2.81l3.22-18.09c.43-2.4-.46-3.49-2.14-3.79s-2.89.42-3.31,2.82Z" style="fill:#ECEFF1"></path><path d="M563.85,288.09a6.32,6.32,0,0,1-1-.87c-.32-.29-.7-.66-1.12-1.11s-.91-.95-1.4-1.55a42.57,42.57,0,0,1-3.27-4.33,50.53,50.53,0,0,1-3.24-5.81,47.74,47.74,0,0,1-2.32-6.23,38.87,38.87,0,0,1-1.12-5.31c-.13-.77-.17-1.47-.23-2.08a13.21,13.21,0,0,1-.07-1.57,6.12,6.12,0,0,1,0-1.34c.1,0,.12,1.91.62,4.93a44.76,44.76,0,0,0,1.22,5.23,49.57,49.57,0,0,0,2.34,6.15,52.27,52.27,0,0,0,3.17,5.77,49.78,49.78,0,0,0,3.14,4.36c.47.61.94,1.12,1.34,1.58s.74.86,1,1.17A7.1,7.1,0,0,1,563.85,288.09Z" style="fill:#263238"></path><path d="M565.89,274.65c.16,0,.46,3.36,1.71,7.31s2.89,6.92,2.75,7a7.3,7.3,0,0,1-1.2-1.87,29,29,0,0,1-2-5,28.63,28.63,0,0,1-1.14-5.25A7.62,7.62,0,0,1,565.89,274.65Z" style="fill:#263238"></path><path d="M500,390c-.26.9-14.48,58.22-14.48,58.22L464.45,446l11.95-62Z" style="fill:#263238"></path><path d="M464.05,441.15l0,1.47s-25,9.56-25.36,14.27l49.35.58L487.53,441C480.15,444.35,472.47,444.65,464.05,441.15Z" style="fill:#455a64"></path><path d="M482.47,446.23a2,2,0,0,1,1.37,2.32,1.94,1.94,0,0,1-2.29,1.37,2.13,2.13,0,0,1-1.43-2.46,2,2,0,0,1,2.53-1.16" style="fill:#fff"></path><path d="M488,457.47l-.12-4-47.25.89s-2.21.93-2,2.48Z" style="fill:#263238"></path><path d="M463.85,442.76c0,.24,1.21.36,2.38,1.15s1.8,1.81,2,1.72-.12-1.49-1.56-2.42S463.8,442.53,463.85,442.76Z" style="fill:#263238"></path><path d="M458.65,444.84c-.06.23,1,.65,1.78,1.68s1,2.11,1.27,2.1.41-1.37-.61-2.63S458.65,444.61,458.65,444.84Z" style="fill:#263238"></path><path d="M455.63,451c.22.05.57-1.15,0-2.48s-1.73-1.86-1.83-1.66.59.91,1.06,2S455.39,451,455.63,451Z" style="fill:#263238"></path><path d="M645.59,374c.85.38,55.6,22.53,55.6,22.53L696,417.09,636.3,396.53Z" style="fill:#263238"></path><path d="M691.19,416.81l1.44.24s6,26.11,10.56,27.12l7.52-48.78-16.33-1.84C696.62,401.32,695.83,409,691.19,416.81Z" style="fill:#455a64"></path><path d="M698.81,399.29a2,2,0,0,1,2.48-1,1.94,1.94,0,0,1,1,2.46,2.12,2.12,0,0,1-2.64,1.07,2,2,0,0,1-.79-2.67" style="fill:#fff"></path><path d="M710.71,395.39l-3.93-.44L701,441.86s.61,2.32,2.17,2.31Z" style="fill:#263238"></path><path d="M692.74,417.24c.24,0,.53-1.15,1.48-2.2s2-1.52,2-1.76-1.49-.09-2.61,1.21S692.52,417.26,692.74,417.24Z" style="fill:#263238"></path><path d="M694.07,422.68c.22.09.79-.88,1.92-1.53s2.23-.72,2.26-1-1.3-.6-2.69.24S693.84,422.64,694.07,422.68Z" style="fill:#263238"></path><path d="M699.75,426.53c.08-.21-1.06-.72-2.46-.31s-2.09,1.44-1.9,1.57,1-.45,2.14-.77S699.69,426.76,699.75,426.53Z" style="fill:#263238"></path><path d="M543.39,293.94s-56.59,53-60.68,63.72S467.61,430,467.61,430L489,435.34s14.13-44.43,17.14-55.35a23.17,23.17,0,0,1,3.67-6.84L567,343.51s14.78-6.29,18.55-16.67S584.25,290,584.25,290l-39.59-4.37Z" style="fill:#e0e0e0"></path><path d="M598.64,292l-1.91,5.9s4.73,13.39,5.12,25.61,0,10.24,0,10.24l27.58,33.48s9.92,3.28,30.75,11.5c21,8.28,30.67,12.86,30.67,12.86l-9.62,23s-70.71-21-81-29.25S573.49,344.64,567,343.51s-1.77-14.12-1.77-14.12l10.07-40.29Z" style="fill:#e0e0e0"></path><path d="M578.71,310c0,.08-1.41-.58-3.71-1.4a42,42,0,0,0-18.82-2.15c-2.43.28-3.91.62-3.93.53a3.88,3.88,0,0,1,1-.33,27.63,27.63,0,0,1,2.87-.57,37.9,37.9,0,0,1,9.63-.15,37.49,37.49,0,0,1,9.35,2.32,26.9,26.9,0,0,1,2.67,1.21A4.24,4.24,0,0,1,578.71,310Z" style="fill:#263238"></path><path d="M586.8,306.67a2.18,2.18,0,0,1,.13.45c.07.29.19.72.28,1.29a28.24,28.24,0,0,1,.45,4.85,31.7,31.7,0,0,1-3.85,15.49,29.23,29.23,0,0,1-5.32,7.07,35.67,35.67,0,0,1-5.7,4.46c-1.73,1.11-3.18,1.91-4.2,2.45l-1.17.6c-.28.14-.42.2-.43.18a11.49,11.49,0,0,1,1.5-.95c1-.6,2.41-1.45,4.1-2.59a38.14,38.14,0,0,0,5.56-4.49,29.77,29.77,0,0,0,5.21-7,32.77,32.77,0,0,0,3.93-15.24,34.29,34.29,0,0,0-.28-4.82A14.43,14.43,0,0,1,586.8,306.67Z" style="fill:#263238"></path><path d="M595.5,338.32A31.38,31.38,0,0,1,592,339c-2.19.39-5.21,1-8.53,1.65s-6.31,1.41-8.47,1.94a30.21,30.21,0,0,1-3.52.78,3.47,3.47,0,0,1,.91-.36c.59-.2,1.45-.47,2.52-.78,2.14-.62,5.13-1.39,8.45-2.09s6.37-1.21,8.58-1.51c1.11-.15,2-.25,2.62-.31A3.53,3.53,0,0,1,595.5,338.32Z" style="fill:#263238"></path><path d="M629.59,367.61a22.48,22.48,0,0,1-2.41,1.24,37.51,37.51,0,0,0-5.52,3.46,38.55,38.55,0,0,0-4.81,4.39,22.5,22.5,0,0,1-1.84,2,10,10,0,0,1,1.57-2.24,29,29,0,0,1,4.77-4.56,28.66,28.66,0,0,1,5.67-3.38A9.81,9.81,0,0,1,629.59,367.61Z" style="fill:#263238"></path><path d="M510.78,374.78a97.14,97.14,0,0,1-7.84-6.39,99.12,99.12,0,0,1-7.5-6.8,197.9,197.9,0,0,1,15.34,13.19Z" style="fill:#263238"></path><path d="M597.71,292c0,.15-11.91-1.15-26.55-2.9s-26.52-3.28-26.5-3.42,11.91,1.15,26.56,2.9S597.73,291.83,597.71,292Z" style="fill:#263238"></path><path d="M597,297.77c0,.14-9.47-.64-21.12-1.74s-21.08-2.11-21.07-2.26,9.47.64,21.12,1.74S597,297.62,597,297.77Z" style="fill:#263238"></path></g><g id="freepik--character-2--inject-10"><path d="M303.78,387.13c.26.92,13.23,60.65,13.23,60.65l21.68-2.31-6.4-65.05Z" style="fill:#263238"></path><path d="M339.09,440.55l0,1.5s25.69,9.82,26.05,14.66l-50.69.6.49-16.88C322.56,443.83,330.45,444.13,339.09,440.55Z" style="fill:#455a64"></path><path d="M320.18,445.76a2.08,2.08,0,0,0-1.41,2.38,2,2,0,0,0,2.35,1.41,2.18,2.18,0,0,0,1.47-2.52,2.06,2.06,0,0,0-2.6-1.2" style="fill:#fff"></path><path d="M314.49,457.31l.12-4.06,48.53.91s2.27,1,2,2.55Z" style="fill:#263238"></path><path d="M339.31,442.19c0,.25-1.25.38-2.45,1.19s-1.85,1.85-2.08,1.76.12-1.53,1.61-2.48S339.36,442,339.31,442.19Z" style="fill:#263238"></path><path d="M344.65,444.33c.06.24-1,.67-1.84,1.73s-1.06,2.16-1.3,2.16-.42-1.41.63-2.7S344.64,444.09,344.65,444.33Z" style="fill:#263238"></path><path d="M347.74,450.66c-.22,0-.58-1.18,0-2.54s1.77-1.92,1.88-1.71-.61.93-1.1,2.06S348,450.63,347.74,450.66Z" style="fill:#263238"></path><polygon points="193.46 385.67 168.17 445.5 186.35 452.14 222.86 396.3 193.46 385.67" style="fill:#263238"></polygon><path d="M203,283.19s-7.21,13.47-8.9,25,6,62.82,6,62.82L188.12,397.8l29.53,10.38s16.12-21.81,17.4-27.19c3.8-15.95,4.07-56.88,4.07-56.88L237.42,298Z" style="fill:#e0e0e0"></path><path d="M262.14,298c1.36,1.33,64,56.21,67.74,63.83,3,6.11,5.67,26.85,5.67,26.85l-31.77,2.58-1.66-9.92-65.71-46.63,1-36.71Z" style="fill:#e0e0e0"></path><path d="M237.57,316.67a19.24,19.24,0,0,1,.54,3.33c.25,2.06.52,4.93.7,8.1s.21,6,.19,8.12a19.85,19.85,0,0,1-.18,3.37,25.48,25.48,0,0,1-.19-3.36c-.07-2.08-.17-4.94-.34-8.11s-.39-6-.54-8.09A24.9,24.9,0,0,1,237.57,316.67Z" style="fill:#263238"></path><path d="M232.1,312.59a34.09,34.09,0,0,1-2.44-2.44A62.13,62.13,0,0,0,216.6,300c-1.84-1.08-3-1.68-3-1.75a2.88,2.88,0,0,1,.87.32c.55.23,1.33.61,2.28,1.11a49.18,49.18,0,0,1,13.15,10.2c.72.79,1.28,1.45,1.64,1.92A4.33,4.33,0,0,1,232.1,312.59Z" style="fill:#263238"></path><path d="M169.27,442.61s13.08,9.95,20.48,4.34l1.66,3.91,6.42,25.39a3.73,3.73,0,0,1-2.1,4.47,3.63,3.63,0,0,1-3.82-.73c-5.4-5.14-25.48-26.28-25.48-26.28l.34-4.46c0-.44,1.43-5.41,1.43-5.41,1.07-1.23,1-1.07,1.07-1.23Z" style="fill:#455a64"></path><path d="M166.77,449.25l-.35,3.46a2.93,2.93,0,0,0,.65,1.82c3,3.66,11,12.22,24.74,25.46a3.59,3.59,0,0,0,3.28.91Z" style="fill:#263238"></path><path d="M175.13,448.51a2.19,2.19,0,0,1,.61,2.85,2.1,2.1,0,0,1-2.82.63,2.3,2.3,0,0,1-.63-3,2.17,2.17,0,0,1,3-.33" style="fill:#fff"></path><path d="M187,465.54c.2.09,1-1.76,3.08-2.76s4-.57,4.06-.79-.42-.36-1.25-.47a5.55,5.55,0,0,0-3.15.57,5.63,5.63,0,0,0-2.37,2.17C186.94,465,186.88,465.51,187,465.54Z" style="fill:#263238"></path><path d="M189.5,470.25c.17.15,1.3-1,3.12-1.53s3.38-.24,3.44-.46-1.6-.92-3.67-.28S189.32,470.15,189.5,470.25Z" style="fill:#263238"></path><path d="M182.27,459.51c.17.16,1.89-1.62,4.65-2.69s5.22-1,5.23-1.24-2.57-.67-5.51.52S182.1,459.41,182.27,459.51Z" style="fill:#263238"></path><path d="M188.52,456.65a3,3,0,0,0-.2-1.32,9.21,9.21,0,0,0-1.68-3.24,4.12,4.12,0,0,0-2.09-1.6,1.44,1.44,0,0,0-1.55.62,2.32,2.32,0,0,0-.26,1.66,5.1,5.1,0,0,0,5.27,3.82,5.9,5.9,0,0,0,5.14-4.11,2.06,2.06,0,0,0-.21-1.7,1.45,1.45,0,0,0-1.61-.47,5,5,0,0,0-2.06,1.62,10.48,10.48,0,0,0-1.86,3.13,3.43,3.43,0,0,0-.31,1.3,16.58,16.58,0,0,1,2.58-4.07,4.73,4.73,0,0,1,1.83-1.36.75.75,0,0,1,.87.25,1.36,1.36,0,0,1,.08,1.12,5.28,5.28,0,0,1-4.5,3.52,4.44,4.44,0,0,1-4.52-3.18,1.75,1.75,0,0,1,.13-1.17.79.79,0,0,1,.85-.35,3.72,3.72,0,0,1,1.8,1.32A13.83,13.83,0,0,1,188.52,456.65Z" style="fill:#263238"></path><path d="M315.93,371.12a39.44,39.44,0,0,0-7.36,4.6c-3.71,3.09-5.62,6.59-5.77,6.48a9.3,9.3,0,0,1,1.25-2.26,23.31,23.31,0,0,1,9.44-8A9.4,9.4,0,0,1,315.93,371.12Z" style="fill:#263238"></path><path d="M152.08,214.32s13,7.89,27,10.11c13,2.06,24.67,7.93,27,13.68a94.27,94.27,0,0,1,3.17,9.78l22.47-38.15L221.68,195l-53.64.92Z" style="fill:#e0e0e0"></path><path d="M211.26,209.09a11.89,11.89,0,0,1-.15,1.71c-.14,1.1-.35,2.68-.63,4.64-.56,3.91-1.39,9.3-2.44,15.24s-2.12,11.3-3,15.15c-.45,1.92-.83,3.48-1.13,4.54a11.33,11.33,0,0,1-.5,1.64,9.6,9.6,0,0,1,.3-1.69c.25-1.16.58-2.7,1-4.57.8-3.87,1.81-9.22,2.86-15.16s1.91-11.23,2.59-15.21c.32-1.88.58-3.43.79-4.61A9.72,9.72,0,0,1,211.26,209.09Z" style="fill:#263238"></path><path d="M245.17,197.06,221.68,195l-15.32,41.95-6.05,30.78s-3.82,4.65-1.91,10.11,27.32,25.95,41.52,25.41a96,96,0,0,0,24.53-4L286,237c1-2.44.35-24.25-1.74-25.86l-15.14-9.39Z" style="fill:#e0e0e0"></path><g style="opacity:0.30000000000000004"><path d="M277.57,256c-3.13-.85-6.47,0-9.51,1.14s-6,2.65-9.18,3.17c-7,1.12-13.77-2.49-19.66-6.39-10.83-7.17-19.32-16.22-28-25.91l-5.09,8.95c6.73,15.08,18.75,26,31,37.13,3,2.74,6.34,5.59,10.38,6.16,4.23.59,8.36-1.42,12-3.58,4.06-2.39,14.09-11.22,17.35-14.62S277.34,255.63,277.57,256Z"></path></g><path d="M214.53,220.28l33.09,26.85,15.82-10.95,15.66,20.46s-19,17.11-30.24,16.88c-9.42-.18-43.29-39.11-43.29-39.11Z" style="fill:#ECEFF1"></path><path d="M175.1,196.42c-1.67-.2-4.22-.43-7.06-.51l-.4,0,0,0c-6.09-.13-13.36.43-16.17,3.4-5.13,5.41-3.28,10.26-2.56,12s7.69,7.4,14.81,6.26a34,34,0,0,0,6.09-1.36l15.67-5V196.89Z" style="fill:#ECEFF1"></path><path d="M245.17,197.06s-4.63,18.51,11.26,20,17.71-12.19,17.71-12.19l-5-3.1-22.88-4.51" style="fill:#ECEFF1"></path><polygon points="252.32 216.17 254.57 222.16 261.51 217.01 252.32 216.17" style="fill:#ECEFF1"></polygon><path d="M279.65,262.71s6.69-11.87,9.27-17.55c3.46-7.64,4.52-14.19,4.28-17.32-.95-12.41-8.91-16.67-8.91-16.67a115.31,115.31,0,0,1-8.91,10.41c-6.23,6.41-18.46,18.78-18.46,18.78Z" style="fill:#e0e0e0"></path><path d="M279.65,262.71a3.47,3.47,0,0,1-.49-.41L277.8,261l-4.92-4.72-16.1-15.73,0,0-.21-.2.22-.19a197.3,197.3,0,0,0,16.41-15.29c2-2.06,3.59-3.75,4.68-4.93l1.27-1.35a3.18,3.18,0,0,1,.46-.45,2.67,2.67,0,0,1-.39.52c-.26.33-.66.81-1.19,1.41-1.05,1.22-2.6,3-4.56,5.06a177.94,177.94,0,0,1-16.35,15.44l0-.39,0,0,16,15.83,4.8,4.85,1.29,1.33A2.61,2.61,0,0,1,279.65,262.71Z" style="fill:#263238"></path><path d="M214.08,187.9a2.68,2.68,0,0,1,3.78,1.12,3.06,3.06,0,0,1-.09,2.49c-.67,1.59-3.6,3.55-6.14,5a2.72,2.72,0,0,1-4.07-2.37v-.92a2.74,2.74,0,0,1,1.36-2.36Z" style="fill:#fff"></path><path d="M214.08,187.9a5.77,5.77,0,0,1-1,.69l-2.78,1.7-.93.56a3.45,3.45,0,0,0-.9.65,2.75,2.75,0,0,0-.68,2.23A3.42,3.42,0,0,0,208,195a2.45,2.45,0,0,0,3.37,1.36,29.61,29.61,0,0,0,4.84-3.27,5,5,0,0,0,1.49-1.94,2.82,2.82,0,0,0,0-2.06,2.33,2.33,0,0,0-1.18-1.21,2.62,2.62,0,0,0-1.3-.25,6,6,0,0,0-1.14.25s.07-.08.25-.18a2.59,2.59,0,0,1,.87-.28,3,3,0,0,1,1.44.19A2.61,2.61,0,0,1,218,189a3.14,3.14,0,0,1,.05,2.34,5.24,5.24,0,0,1-1.58,2.15,27.37,27.37,0,0,1-4.93,3.39,3,3,0,0,1-4.07-1.66,3.78,3.78,0,0,1-.18-1.46,4.15,4.15,0,0,1,.15-1.39,2.88,2.88,0,0,1,.7-1.14,3.76,3.76,0,0,1,1-.7l.94-.53,2.87-1.56A5.83,5.83,0,0,1,214.08,187.9Z" style="fill:#263238"></path><polygon points="194.5 191.31 191.46 196.89 185.5 195.88 185.5 211.6 194.97 211.26 203.75 198.42 194.5 191.31" style="fill:#fff"></polygon><polygon points="187.15 225.48 190.93 214.1 194.97 214.54 197.05 219.11 193.3 227.99 187.15 225.48" style="fill:#455a64"></polygon><path d="M191.75,230.35l-5.48-2a2.14,2.14,0,0,1-1.26-2.76v0a2.15,2.15,0,0,1,2.77-1.26l5.48,2a2.15,2.15,0,0,1,1.26,2.77v0A2.15,2.15,0,0,1,191.75,230.35Z" style="fill:#455a64"></path><path d="M240,97.11s-9-4.19-14.25,12.24c-4.48,14.12-25,82-25,82l6.54,2.56,35.08-79.62S249.38,100.52,240,97.11Z" style="fill:#455a64"></path><path d="M212.82,195.24s-.46-6.19-1.24-7.12a16.94,16.94,0,0,0-3.32-2.32,2.33,2.33,0,0,0-1.15-.31c-2,0-8.43,0-9.6,1.08a2.36,2.36,0,0,0-.93,2.48s-2.05,1.55-2.42,3.09-2.37,4.18-2.37,5.26,4.48,6.5,4.48,6.5l5,1.08a9.14,9.14,0,0,0,10.82-6.76Z" style="fill:#fff"></path><path d="M190.55,204.67s.31-4.18,2.16-4.95c1.28-.53,7.26.18,10.86.68a4.15,4.15,0,0,1,3.44,3.08l3.34,13.09,7.27,5.43-11.45,14.94s-9.08-8.05-9.08-8.95l-2.93-11-4.06-.44-.87,2.58s-3.63-2.14-3-4.76a9.53,9.53,0,0,1,1.54-3.72S187.61,205.44,190.55,204.67Z" style="fill:#fff"></path><path d="M190.55,204.67a3.26,3.26,0,0,0-1.44,1.07,8.36,8.36,0,0,0-1.22,5v0l0,0a10,10,0,0,0-1.55,4.12,3.52,3.52,0,0,0,.91,2.29,8.31,8.31,0,0,0,2.11,1.82l-.27.1c.26-.8.55-1.68.85-2.58l.05-.15h.16l4.06.43.15,0,0,.14,3,10.93V228a2.75,2.75,0,0,0,.33.48c.15.19.32.38.49.56.34.37.69.74,1.06,1.1.73.73,1.49,1.46,2.27,2.19,1.55,1.46,3.18,2.94,4.85,4.43l-.37,0c1.43-1.87,2.94-3.85,4.48-5.85l7-9.08.05.36-7.26-5.45-.07,0,0-.09c-1.27-4.94-2.38-9.6-3.48-13.63a4,4,0,0,0-2-2.07,10.67,10.67,0,0,0-2.75-.56c-1.82-.24-3.51-.44-5.05-.57-.76-.06-1.49-.11-2.18-.12a6.58,6.58,0,0,0-1.88.15,2.35,2.35,0,0,0-1.13,1.09,6.71,6.71,0,0,0-.55,1.26,14.75,14.75,0,0,0-.45,1.85c-.07.43-.1.65-.11.65a3.28,3.28,0,0,1,0-.66,11.65,11.65,0,0,1,.37-1.89,7.5,7.5,0,0,1,.53-1.31,2.6,2.6,0,0,1,1.22-1.21,7,7,0,0,1,2-.2c.69,0,1.42,0,2.19.1,1.55.1,3.24.28,5.08.51l1.4.18a4.51,4.51,0,0,1,1.46.38,4.36,4.36,0,0,1,2.2,2.27c1.16,4.13,2.27,8.7,3.57,13.67l-.09-.14,7.28,5.43.21.15-.16.21-7,9.08-4.48,5.86-.17.22-.21-.19c-1.68-1.49-3.3-3-4.86-4.45-.78-.73-1.54-1.46-2.27-2.2-.37-.37-.73-.74-1.07-1.12-.18-.19-.35-.38-.51-.58l-.24-.32a1.1,1.1,0,0,1-.2-.47v.06c-1-3.93-2-7.62-2.91-11l.19.16-4.06-.46.21-.14-.88,2.58-.08.23-.19-.12a8.9,8.9,0,0,1-2.19-1.93,3.91,3.91,0,0,1-1-2.52,10,10,0,0,1,.65-2.35,7.41,7.41,0,0,1,1-1.93l0,.09a8.36,8.36,0,0,1,1.36-5.05,2.83,2.83,0,0,1,1.09-.85A2.55,2.55,0,0,1,190.55,204.67Z" style="fill:#263238"></path><path d="M201.86,206.61a3.88,3.88,0,0,0-1.26-1.16,11.36,11.36,0,0,0-4.11-.87c-3.34-.29-6.05.15-6.07,0a14.76,14.76,0,0,1,6.12-.52,10,10,0,0,1,4.25,1.07C201.81,205.78,201.92,206.62,201.86,206.61Z" style="fill:#263238"></path><path d="M200.09,213.14a15,15,0,0,0-12.32-2.43,4.8,4.8,0,0,1,1.83-.64,12,12,0,0,1,9,1.78A4.68,4.68,0,0,1,200.09,213.14Z" style="fill:#263238"></path><path d="M201.51,193.62a4.67,4.67,0,0,1,2.13.52,9.65,9.65,0,0,1,4.1,3.35,9,9,0,0,1,1.26,2.68,4.09,4.09,0,0,1-.05,2.44,2.65,2.65,0,0,1-1,1.31c-.33.22-.55.25-.56.22a3.36,3.36,0,0,0,1.21-1.65c.42-1.22-.17-3.07-1.29-4.7a10.49,10.49,0,0,0-3.83-3.32C202.31,193.88,201.49,193.71,201.51,193.62Z" style="fill:#263238"></path><path d="M209.55,202.77s.26-.26.64-.78a5.6,5.6,0,0,0,1-2.51,10.49,10.49,0,0,0-.35-4,10.06,10.06,0,0,0-2.11-4.41,7.93,7.93,0,0,0-4.27-2.27,13.42,13.42,0,0,0-4.05,0,17.61,17.61,0,0,1-3.81.28,4.48,4.48,0,0,1,1-.19l2.75-.45a12.51,12.51,0,0,1,4.19-.09,8.13,8.13,0,0,1,4.56,2.39,10.19,10.19,0,0,1,2.2,4.65,10.32,10.32,0,0,1,.24,4.18,5.35,5.35,0,0,1-1.18,2.58C209.9,202.62,209.56,202.8,209.55,202.77Z" style="fill:#263238"></path><path d="M211.45,200a12.18,12.18,0,0,1,.52-1.71,14.18,14.18,0,0,0,.5-4.21c-.1-3.34-1-6-.79-6a5.23,5.23,0,0,1,.64,1.69A17.74,17.74,0,0,1,213,194a11.68,11.68,0,0,1-.67,4.33A4.13,4.13,0,0,1,211.45,200Z" style="fill:#263238"></path><path d="M194.16,192.14c.16.09-1.42,3-3.38,6.51-1,1.77-1.77,3.41-2.28,4.62a18.92,18.92,0,0,1-.82,2,6,6,0,0,1,.48-2.11,32.72,32.72,0,0,1,2.17-4.74c1-1.78,1.92-3.35,2.62-4.48A10.46,10.46,0,0,1,194.16,192.14Z" style="fill:#263238"></path><path d="M264.45,299.2a3.82,3.82,0,0,1-.64.3c-.42.17-1.05.45-1.88.74a48.81,48.81,0,0,1-7.16,2.06,46.77,46.77,0,0,1-11,.93,59.59,59.59,0,0,1-13.36-2.1,57.82,57.82,0,0,1-21.7-11.25,51.66,51.66,0,0,1-5.41-5.13c-.6-.64-1-1.17-1.32-1.52a3.07,3.07,0,0,1-.43-.56,3,3,0,0,1,.5.49c.33.32.78.84,1.4,1.45a60.25,60.25,0,0,0,27.09,16,60.7,60.7,0,0,0,13.25,2.12,47.72,47.72,0,0,0,10.92-.81,56.57,56.57,0,0,0,7.17-1.89c.83-.26,1.47-.51,1.91-.65A3.1,3.1,0,0,1,264.45,299.2Z" style="fill:#263238"></path><path d="M237,173.6a9.74,9.74,0,0,0-1.41,5.52c0,1.9,1.31,5.76,4.68,5.95-.89,5.45,2.59,9.47,8.39,9.48s12.44-9.94,17.81-12.13l15.6-4.12c1.37-.32,1.93-2,1.9-3.39s-.38-2.87.11-4.19c.68-1.8,2.78-2.76,3.49-4.56.81-2-.45-4.3-1.9-5.94s-3.65-1.16-4.11-3.3c-.43-2,.78-6.25-.21-8-1.21-2.16-4.38-2.44-5.86-4.43-.71-1-.93-2.23-1.64-3.2-1.2-1.66-3.51-2.09-5.55-1.87s-4,1-6,1.11c-2.8.2-5.69-.7-8.38.11-3,.89-4.78,3.53-6.7,6.07l-2.51,3A11.41,11.41,0,0,1,243,151c-1.06.69,1.69-.05.78.82-2,1.87-2.72,5.26-3.61,8.37a5.29,5.29,0,0,0-3.56,5.21s-.28,2.58,1.36,3.73A3.55,3.55,0,0,0,237,173.6Z" style="fill:#263238"></path><path d="M247.43,178.88a71.3,71.3,0,0,1-3.14-12.06,25.17,25.17,0,0,1,1-12.31c.22-.59,2.1-4.56,2.72-4.5.45.05-.7,3.75-.47,4.14a21.36,21.36,0,0,1,2.4,12.47,55.83,55.83,0,0,1-2.49,12.26" style="fill:#263238"></path><path d="M258,214.28c-11.05,0-10.47-15.06-10.47-15.06L247.15,163c-.33-10.43,5.45-19.32,15.89-19.37l1,.05a18.65,18.65,0,0,1,17.65,18.12c.24,9,.4,19,.08,23.86-.66,10-10.74,11-10.74,11s-.08,2.32-.09,5.26c0,12.34-10.28,12.56-12.86,12.34Z" style="fill:#a26760"></path><path d="M270.85,196.68A24.19,24.19,0,0,1,258,192.13s2.78,7.45,12.81,7.08Z" style="fill:#7b4b45"></path><path d="M278.29,170.74a1.44,1.44,0,0,1-1.46,1.37,1.37,1.37,0,0,1-1.4-1.37,1.42,1.42,0,0,1,1.45-1.36A1.37,1.37,0,0,1,278.29,170.74Z" style="fill:#263238"></path><path d="M279.15,165.85c-.18.18-1.22-.68-2.76-.76s-2.7.63-2.86.43.12-.41.63-.74a3.92,3.92,0,0,1,2.31-.58,3.75,3.75,0,0,1,2.18.84C279.1,165.42,279.25,165.77,279.15,165.85Z" style="fill:#263238"></path><path d="M264.54,170a1.42,1.42,0,0,1-1.45,1.37,1.36,1.36,0,0,1-1.4-1.37,1.42,1.42,0,0,1,1.45-1.36A1.36,1.36,0,0,1,264.54,170Z" style="fill:#263238"></path><path d="M264.07,165.66c-.18.18-1.22-.68-2.76-.76s-2.7.63-2.86.44.12-.42.63-.75a4,4,0,0,1,2.3-.58,3.82,3.82,0,0,1,2.19.84C264,165.24,264.16,165.59,264.07,165.66Z" style="fill:#263238"></path><path d="M269,177.76a10.61,10.61,0,0,1,2.52-.31c.39,0,.77-.08.85-.34a2,2,0,0,0-.2-1.18l-1-3.05c-1.38-4.34-2.36-7.9-2.19-7.95s1.44,3.42,2.83,7.75c.33,1.07.64,2.09.95,3.07a2.31,2.31,0,0,1,.12,1.55,1,1,0,0,1-.68.54,3.38,3.38,0,0,1-.67.06A9.64,9.64,0,0,1,269,177.76Z" style="fill:#263238"></path><path d="M264.37,178.58c.25,0,.17,1.67,1.53,2.93s3.15,1.17,3.15,1.41-.41.3-1.16.28a4.16,4.16,0,0,1-2.64-1.08,3.61,3.61,0,0,1-1.17-2.45C264.05,179,264.26,178.57,264.37,178.58Z" style="fill:#263238"></path><path d="M264.65,162.69c-.2.4-1.64,0-3.39,0s-3.2.3-3.38-.1c-.08-.19.21-.55.83-.88a5.51,5.51,0,0,1,2.59-.58,5.39,5.39,0,0,1,2.56.66C264.46,162.14,264.74,162.51,264.65,162.69Z" style="fill:#263238"></path><path d="M279.28,158.51c-.29.36-1.54.08-3,.16s-2.71.41-3,.06c-.13-.16,0-.53.56-.89a5,5,0,0,1,4.86-.19C279.21,158,279.4,158.33,279.28,158.51Z" style="fill:#263238"></path><path d="M247.44,170.46c-.17-.09-6.76-2.4-6.91,4.44s6.75,5.58,6.77,5.39S247.44,170.46,247.44,170.46Z" style="fill:#a26760"></path><path d="M245.27,177.65s-.13.08-.33.17a1.22,1.22,0,0,1-.89,0,3,3,0,0,1-1.31-2.68,4,4,0,0,1,.37-1.7,1.38,1.38,0,0,1,.92-.9.62.62,0,0,1,.7.35c.08.19,0,.32.07.34s.15-.11.1-.4a.72.72,0,0,0-.26-.43.89.89,0,0,0-.65-.19,1.66,1.66,0,0,0-1.27,1,4,4,0,0,0-.46,1.9,3.13,3.13,0,0,0,1.68,3A1.28,1.28,0,0,0,245,178C245.25,177.81,245.29,177.66,245.27,177.65Z" style="fill:#7b4b45"></path><path d="M277.23,150.41c1.11-.59-2.16-4.22-4.87-5.5-4.09-1.92-10.36-3.15-14.17-2.12-4.59,1.24-8.41,3.46-10.76,7.59a27,27,0,0,0-3.2,13.72,8.13,8.13,0,0,0,.91,4.19c.94,1.53,2.76,2.5,2.65,4.59a2.85,2.85,0,0,0,.69,2.1c1.23,1.35,2.78.12,3.5-1.13,1.54-2.66,1.75-5.86,1.92-8.93a20,20,0,0,0-.35-6.52c-.32-1.15-.84-2.23-1.1-3.39a4.17,4.17,0,0,1,.53-3.42,4.91,4.91,0,0,1,.56-.55,7.15,7.15,0,0,1,7.11-1.26c3.83,1.41,10.39,3.54,12.13,2.25a10.58,10.58,0,0,0,3.11-3.07Z" style="fill:#263238"></path><path d="M258.56,141.87a15.06,15.06,0,0,1,11.56.78,7.85,7.85,0,0,1,4.07,4.6c.54,2-.36,4.52-2.32,5.29l-.13.08c-2.94.95-4.83.53-7.73-.52-2.44-.88-4.6-2.42-7.05-3.28a13.86,13.86,0,0,0-8.14-.35A22.78,22.78,0,0,1,258.56,141.87Z" style="fill:#263238"></path><path d="M245.53,148.64c.06.05.61-.61,1.73-1.38a9.71,9.71,0,0,1,2.07-1.11,6.54,6.54,0,0,1,2.79-.47,9.34,9.34,0,0,1,4.77,2c1.06.84,1.55,1.55,1.62,1.5s-.07-.21-.3-.53a7.37,7.37,0,0,0-1.11-1.22,8.87,8.87,0,0,0-4.94-2.17,6.48,6.48,0,0,0-3,.53,8.83,8.83,0,0,0-2.11,1.24A5.41,5.41,0,0,0,245.53,148.64Z" style="fill:#455a64"></path><path d="M266.4,141.24a15.87,15.87,0,0,0,1.81.69,15.06,15.06,0,0,1,4,2.34,15.27,15.27,0,0,1,3.06,3.44,19.17,19.17,0,0,0,1,1.65,5.25,5.25,0,0,0-.74-1.81,12.81,12.81,0,0,0-3-3.63,13,13,0,0,0-4.15-2.3A5.37,5.37,0,0,0,266.4,141.24Z" style="fill:#455a64"></path><path d="M238,166s.23.1.66.23a4.63,4.63,0,0,0,1.88.12,7.53,7.53,0,0,0,2.66-.88c.95-.49,1.92-1.16,3-1.79a9,9,0,0,1,3.29-1.25,4.31,4.31,0,0,1,2.81.52,3.39,3.39,0,0,1,1.35,1.41,2.65,2.65,0,0,1,.18.51c0,.12,0,.19,0,.19a6.69,6.69,0,0,0-.29-.65,3.32,3.32,0,0,0-1.35-1.31,4.22,4.22,0,0,0-2.69-.45,9.22,9.22,0,0,0-3.21,1.24c-1.06.63-2.05,1.3-3,1.78a7.56,7.56,0,0,1-2.74.86,4.62,4.62,0,0,1-1.93-.21,2.91,2.91,0,0,1-.48-.21C238,166,238,166,238,166Z" style="fill:#455a64"></path><path d="M238.41,169a7,7,0,0,0,2.28.14,10.75,10.75,0,0,0,2.41-.57c.89-.3,1.84-.72,2.87-1.09a10.12,10.12,0,0,1,3-.67,5.7,5.7,0,0,1,2.49.48,3.92,3.92,0,0,1,1.37,1,2.32,2.32,0,0,1,.27.39.66.66,0,0,1,.07.15s-.14-.18-.41-.47a4,4,0,0,0-1.37-.94,5.69,5.69,0,0,0-2.41-.41,10.48,10.48,0,0,0-2.95.67c-1,.37-2,.78-2.88,1.08a10.28,10.28,0,0,1-2.47.53,5.85,5.85,0,0,1-1.69-.11,3.59,3.59,0,0,1-.45-.14C238.46,169.08,238.41,169.05,238.41,169Z" style="fill:#455a64"></path><path d="M284.93,162.87s0,.26-.23.6a3.39,3.39,0,0,1-1.08,1.11,3.31,3.31,0,0,1-1.44.54c-.4,0-.64,0-.64,0a4.56,4.56,0,0,0,3.39-2.22Z" style="fill:#455a64"></path><path d="M286.57,166.47a2.23,2.23,0,0,1-.34.88,4.81,4.81,0,0,1-3.75,2.4,2,2,0,0,1-.94-.07s.36,0,.92-.1a5.72,5.72,0,0,0,2.06-.78,5.43,5.43,0,0,0,1.56-1.54C286.4,166.79,286.53,166.45,286.57,166.47Z" style="fill:#455a64"></path><path d="M282.16,155.45a13.51,13.51,0,0,0-7-5.06c-8.54-2.53-20.53-3.5-33.19,9l-1.84.84a30.78,30.78,0,0,1,.27-7.4c.43-2.1,4.26-14.35,17.94-15.63C258.37,137.18,279.28,133.77,282.16,155.45Z" style="fill:#455a64"></path><g style="opacity:0.30000000000000004"><path d="M282.16,155.45a13.51,13.51,0,0,0-7-5.06c-8.54-2.53-20.53-3.5-33.19,9l-1.84.84a30.78,30.78,0,0,1,.27-7.4c.43-2.1,4.26-14.35,17.94-15.63C258.37,137.18,279.28,133.77,282.16,155.45Z"></path></g><path d="M242,159.37c5.2-5.69,11.89-9,18.91-11.57S279,143.47,286.52,143a15.89,15.89,0,0,1,6.66.66c2.09.83,3.92,2.71,4,5,.13,2.81-5.47,6-8,7.13s-7.8,3.2-7.8,3.2-1.4-6.39-6.45-8.2C264.42,147,241.62,159.58,242,159.37Z" style="fill:#455a64"></path></g><g id="freepik--character-1--inject-10"><path d="M112.8,277.79a79.94,79.94,0,0,1,.64-13.84,28,28,0,0,1,5.11-12.75c.42-.55,3.72-4.15,4.36-3.87.47.19-2,3.74-1.87,4.23a23.74,23.74,0,0,1-1.55,14,62.56,62.56,0,0,1-6.69,12.19" style="fill:#263238"></path><path d="M112.41,318.86c-11.75-3.59-6.15-19.43-6.15-19.43l11.48-38.58c3.08-11.19,12.15-18.72,23.24-15.33l1,.37a20.74,20.74,0,0,1,12.77,25.05c-2.72,9.68-5.85,20.34-7.78,25.36-4,10.39-15,8.15-15,8.15s-.84,2.44-1.82,5.55c-4.12,13.09-15,9.95-17.72,8.86Z" style="fill:#ffbe9d"></path><path d="M131.81,304.4a26.9,26.9,0,0,1-12.11-9s.51,8.81,11.27,11.73Z" style="fill:#eb996e"></path><path d="M148.88,277.8a1.58,1.58,0,0,1-2,1,1.53,1.53,0,0,1-1-1.92,1.59,1.59,0,0,1,2-1A1.51,1.51,0,0,1,148.88,277.8Z" style="fill:#263238"></path><path d="M150.78,274.41c-.26.12-1.08-1.13-2.68-1.72s-3.08-.22-3.18-.48.26-.4.91-.59a4.38,4.38,0,0,1,2.64.15,4.09,4.09,0,0,1,2,1.61C150.87,273.94,150.9,274.35,150.78,274.41Z" style="fill:#263238"></path><path d="M134.39,273.8a1.59,1.59,0,0,1-2,1,1.52,1.52,0,0,1-1-1.91,1.59,1.59,0,0,1,2-1A1.53,1.53,0,0,1,134.39,273.8Z" style="fill:#263238"></path><path d="M134.83,269.24c-.26.13-1.08-1.13-2.68-1.72s-3.08-.22-3.18-.48.26-.4.91-.58a4.36,4.36,0,0,1,2.64.14,4.24,4.24,0,0,1,2,1.61C134.91,268.77,135,269.19,134.83,269.24Z" style="fill:#263238"></path><path d="M136,283.69a11.84,11.84,0,0,1,2.78.5c.43.11.84.17,1-.08a2.31,2.31,0,0,0,.17-1.32q0-1.69-.06-3.57c0-5.06.1-9.16.3-9.16s.4,4.1.44,9.17v3.56a2.53,2.53,0,0,1-.38,1.69,1.14,1.14,0,0,1-.9.35,3.31,3.31,0,0,1-.73-.16A11,11,0,0,1,136,283.69Z" style="fill:#263238"></path><path d="M130.89,283.06c.27.08-.37,1.82.66,3.61s3,2.28,2.88,2.53-.54.18-1.33-.09a4.58,4.58,0,0,1-2.44-2,4,4,0,0,1-.44-3C130.42,283.36,130.78,283,130.89,283.06Z" style="fill:#263238"></path><path d="M136.42,266.28c-.34.35-1.74-.53-3.6-1.12s-3.49-.74-3.55-1.23c0-.23.41-.51,1.17-.66a6.1,6.1,0,0,1,2.94.25,6,6,0,0,1,2.5,1.54C136.4,265.63,136.57,266.11,136.42,266.28Z" style="fill:#263238"></path><path d="M153.33,266.65c-.43.29-1.66-.42-3.25-.82s-3-.45-3.22-.92c-.09-.23.21-.55.89-.77a5.19,5.19,0,0,1,2.8,0,5.1,5.1,0,0,1,2.41,1.38C153.43,266.07,153.52,266.5,153.33,266.65Z" style="fill:#263238"></path><path d="M153.82,257.38c1.38-.26-.9-5.2-3.36-7.44-3.71-3.39-10-6.76-14.35-6.92-5.27-.2-10.07.9-13.92,4.51A30,30,0,0,0,114.28,261a9,9,0,0,0-.42,4.75c.49,1.93,2.11,3.57,1.31,5.75a3.15,3.15,0,0,0,0,2.45c.87,1.84,2.92,1.05,4.1,0,2.51-2.32,3.78-5.65,5-8.85a22.3,22.3,0,0,0,1.77-7c0-1.32-.16-2.64,0-4a4.56,4.56,0,0,1,1.69-3.45,5.32,5.32,0,0,1,.78-.41,7.94,7.94,0,0,1,7.95,1c3.61,2.76,9.88,7.18,12.14,6.38,3.27-1.14,4.31-2.23,4.31-2.23Z" style="fill:#263238"></path><path d="M136.81,242.16a16.74,16.74,0,0,1,12,4.64,8.7,8.7,0,0,1,2.8,6.22c-.09,2.34-1.86,4.68-4.2,4.85l-.17.05c-3.42,0-5.3-1-8-3.1-2.3-1.73-4.09-4.08-6.4-5.81a15.47,15.47,0,0,0-8.53-3A25.17,25.17,0,0,1,136.81,242.16Z" style="fill:#263238"></path><path d="M120.76,245.06c0,.07.84-.44,2.28-.9a11,11,0,0,1,2.57-.49,6.94,6.94,0,0,1,3.11.42,10.41,10.41,0,0,1,4.42,3.66c.85,1.24,1.14,2.15,1.22,2.12s0-.24-.14-.65a7.76,7.76,0,0,0-.78-1.66,9.78,9.78,0,0,0-4.53-3.94,7.19,7.19,0,0,0-3.34-.42,10,10,0,0,0-2.65.62A5.49,5.49,0,0,0,120.76,245.06Z" style="fill:#455a64"></path><path d="M145.34,244.08c0,.07.68.49,1.7,1.32a16.66,16.66,0,0,1,5.56,8.46c.35,1.27.45,2.1.53,2.09a5.62,5.62,0,0,0-.19-2.17,14.33,14.33,0,0,0-5.68-8.66A5.87,5.87,0,0,0,145.34,244.08Z" style="fill:#455a64"></path><path d="M107,261s.21.18.63.45a5.12,5.12,0,0,0,2,.76,8.23,8.23,0,0,0,3.11-.07c1.17-.2,2.43-.6,3.79-.91a10.07,10.07,0,0,1,3.9-.24,4.77,4.77,0,0,1,2.81,1.48,3.66,3.66,0,0,1,1,1.94,2.7,2.7,0,0,1,0,.6.71.71,0,0,1,0,.21,7.12,7.12,0,0,0-.09-.79,3.91,3.91,0,0,0-1-1.83,4.73,4.73,0,0,0-2.72-1.36,10.06,10.06,0,0,0-3.81.26c-1.34.31-2.61.7-3.8.89a8.13,8.13,0,0,1-3.19,0,4.93,4.93,0,0,1-2-.86,2.71,2.71,0,0,1-.44-.38C107.06,261.06,107,261,107,261Z" style="fill:#455a64"></path><path d="M106.47,264.38a8.6,8.6,0,0,0,2.37.89,12.15,12.15,0,0,0,2.75.19c1,0,2.19-.16,3.41-.21a10.88,10.88,0,0,1,3.43.29,6.22,6.22,0,0,1,2.48,1.32,4.11,4.11,0,0,1,1.11,1.55,2.29,2.29,0,0,1,.16.5.76.76,0,0,1,0,.18s-.09-.24-.28-.64a4.36,4.36,0,0,0-1.15-1.44,6.13,6.13,0,0,0-2.42-1.23,11.64,11.64,0,0,0-3.35-.26c-1.21.05-2.36.17-3.42.19a11.21,11.21,0,0,1-2.79-.25,6.16,6.16,0,0,1-1.76-.67,4.34,4.34,0,0,1-.43-.29A.72.72,0,0,1,106.47,264.38Z" style="fill:#455a64"></path><path d="M144.44,303.76a2.4,2.4,0,0,0-1.92-1c-4.53-.78-9.11-1.64-13.28-3.57s-8-5.11-9.7-9.36c-2.3-5.58-.8-11.91.72-17.75l-1.76,1.26c-2.06,6.7-4.08,14.12-1.16,20.49,1.94,4.22,5.84,7.29,10.11,9.1s8.93,2.5,13.54,3a4.76,4.76,0,0,0,2.49-.16A1.65,1.65,0,0,0,144.44,303.76Z" style="fill:#263238"></path><path d="M159.71,249.91c-1.52-2.3-4-5.8-6.35-7.18-5.7-3.28-7.36-4.67-13.72-6.35-4.79-1.27-12.56-.63-17.25,1A29.54,29.54,0,0,0,108.06,248c-3.77,5.47-5.74,12.43-6.36,19s1.55,19.7,7.7,22.23l2.92-10.13,1.11-11.45s1.34-1.67,2.75-.75-.58,7.39,1.53,8.53,3,.88,4.84-5c.71-2.27,1.53-5.24,2.26-8a8.42,8.42,0,0,1,10.4-5.93l15.55,4.36a6.67,6.67,0,0,1,4.61,8.23L153,277.72C166.24,265.77,162,253.39,159.71,249.91Z" style="fill:#455a64"></path><path d="M115.59,268.85c-.15-.15-6.39-4.78-8.8,2.44s5.49,8.3,5.57,8.1S115.59,268.85,115.59,268.85Z" style="fill:#ffbe9d"></path><path d="M110.91,275.77s-.15.05-.4.07a1.31,1.31,0,0,1-.94-.29,3.29,3.29,0,0,1-.51-3.28,4.44,4.44,0,0,1,1-1.68,1.55,1.55,0,0,1,1.27-.65.68.68,0,0,1,.63.59c0,.24-.07.37,0,.39s.19-.07.23-.38A.79.79,0,0,0,112,270a1,1,0,0,0-.63-.42,1.87,1.87,0,0,0-1.69.68,4.53,4.53,0,0,0-1.11,1.87c-.44,1.47-.15,3.08.79,3.73a1.43,1.43,0,0,0,1.22.19C110.84,275.94,110.93,275.79,110.91,275.77Z" style="fill:#eb996e"></path><path d="M157.36,268.33c.4-2.53.15-5.38-1.64-7.21a10.81,10.81,0,0,0-4.86-2.37l-10.43-3c-3.08-.89-6.91-2.68-10.05-2-3.95.86-6.43,5-8.08,8.71s-2.1,7.79-2.53,11.81l-.53,1.65c3.28,1.07,4.93-5.47,5.52-9.74.37-2.73,1.83-6.89,4.16-8.36a5.68,5.68,0,0,1,4.67-.73l10.3,2c3.62.7,8.05,2.33,10.19,5.33,1.43,2,.82,3.86.5,6.28a55.71,55.71,0,0,1-1.68,7A18.26,18.26,0,0,0,157.36,268.33Z" style="fill:#263238"></path><path d="M132.58,302.42l-1.5-1.32a53.34,53.34,0,0,0,12.6-42.53l2-.29A55.38,55.38,0,0,1,132.58,302.42Z" style="fill:#263238"></path><path d="M144.21,305.23l-.88-1.79c6.14-3,11-10,13.32-19.1,2.21-8.69,1.52-17.29-1.78-21.92l1.63-1.16c3.62,5.09,4.44,14.34,2.09,23.58C156.12,294.55,150.88,302,144.21,305.23Z" style="fill:#263238"></path><path d="M121.41,298.24c-1.87-2.8-1.51-6.38-.91-9.51.86-4.49,2.1-9,3.29-13.26,1.9-6.86,4-14.63,9-20.6l1.54,1.28c-4.68,5.64-6.77,13.19-8.62,19.85-1.18,4.27-2.41,8.69-3.26,13.11-.52,2.73-.86,5.82.61,8Z" style="fill:#263238"></path><polygon points="124.3 262.14 107.01 249.62 109.63 245.94 127.28 257.24 124.3 262.14" style="fill:#263238"></polygon><path d="M95.65,340.44,82,356.53l46-1.32,32.27-21.94s-2.75-16.91-10.56-22.1-11.46-6.13-24.39-3.56C112.71,310.12,95.65,340.44,95.65,340.44Z" style="fill:#455a64"></path><path d="M99,298.38s-10.59-1-22.58,8.9-35.86,23.28-43.13,49.77c-6,21.92-3.54,30.42-3.54,30.42l56.08-17.81s24.28-31.22,25.44-32.32,19.69-29.44,19.69-29.44S123.24,297.1,99,298.38Z" style="fill:#e0e0e0"></path><path d="M112.93,315c-.41,1.5-4.08,19.48-3.35,24.29l28.11,15.46,22.52-21.51s-17.75-18.18-29.29-25.37S112.93,315,112.93,315Z" style="fill:#e0e0e0"></path><path d="M122.09,305.65c0,.05-.65-.13-1.83-.23a14.73,14.73,0,0,0-5,.43,16.22,16.22,0,0,0-6.47,3.41,17.55,17.55,0,0,0-4.92,7.46,20.9,20.9,0,0,0-1,8.93,25.64,25.64,0,0,0,1.87,7.15,31.14,31.14,0,0,0,2.31,4.45,17.5,17.5,0,0,1,1,1.57,2,2,0,0,1-.32-.35c-.2-.25-.48-.62-.82-1.11a27.84,27.84,0,0,1-2.48-4.41,24.78,24.78,0,0,1-2-7.25,20.82,20.82,0,0,1,1-9.15,17.74,17.74,0,0,1,5.1-7.65,16.2,16.2,0,0,1,6.69-3.41,14.15,14.15,0,0,1,5.07-.27,10.85,10.85,0,0,1,1.35.27C121.94,305.58,122.1,305.63,122.09,305.65Z" style="fill:#263238"></path><path d="M130.94,307.1s-11.4-6-21.57-2.66-29.79,27.44-29.79,27.44l-5-3.59s21.88-24.07,31.28-27.15c7.93-2.61,13.91-2,19.28.48a55.62,55.62,0,0,1,9.33,5.43Z" style="fill:#263238"></path><polygon points="103.84 346.56 61.15 318.98 54.03 325.04 99.52 352.06 103.84 346.56" style="fill:#263238"></polygon><path d="M144.27,310h0a11.68,11.68,0,0,0-2.52-4.16c-6.91-7.24-15.34-10.12-26.24-8.39-2.2.34-4.48,1-5.8,3a3.84,3.84,0,0,0-.63,2.77c.37,2.1,2.27,2.81,4,3.13,6.15,1.1,13.14-.84,18.32,2.67a53.51,53.51,0,0,1,4.49,4c1.54,1.3,3.51,2.35,5.5,2S145.15,311.83,144.27,310Z" style="fill:#455a64"></path><path d="M144.27,310a1.89,1.89,0,0,1,.27.83,3.88,3.88,0,0,1-.62,2.44,4.75,4.75,0,0,1-1.24,1.36,3.4,3.4,0,0,1-2.12.61,8,8,0,0,1-4.81-2.14c-1.51-1.26-2.84-3-4.77-4.15a14.56,14.56,0,0,0-6.87-1.9c-2.55-.17-5.26,0-8.08-.16a19.56,19.56,0,0,1-4.28-.65,4.91,4.91,0,0,1-2-1.15,3.53,3.53,0,0,1-1-2.12,4.1,4.1,0,0,1,.47-2.29,5.53,5.53,0,0,1,1.49-1.73,9.28,9.28,0,0,1,4-1.63,37.72,37.72,0,0,1,8.11-.56,26.15,26.15,0,0,1,13,4,29.08,29.08,0,0,1,4.17,3.23A20,20,0,0,1,142.8,307a11.38,11.38,0,0,1,1.19,2.22,6.24,6.24,0,0,1,.22.62,1,1,0,0,1,.06.22,16.61,16.61,0,0,0-1.64-2.94,21.33,21.33,0,0,0-2.74-2.82,28.22,28.22,0,0,0-4.18-3.13,25.91,25.91,0,0,0-12.85-3.87,37.31,37.31,0,0,0-8,.58,9,9,0,0,0-3.82,1.54,4.12,4.12,0,0,0-1.75,3.55,3,3,0,0,0,.84,1.82,4.47,4.47,0,0,0,1.77,1,18.85,18.85,0,0,0,4.15.63c2.78.16,5.49,0,8.08.2a14.72,14.72,0,0,1,7.07,2c2,1.24,3.32,3,4.78,4.24a7.57,7.57,0,0,0,4.58,2.12,3.5,3.5,0,0,0,3.18-1.78,4,4,0,0,0,.69-2.32C144.39,310.3,144.23,310,144.27,310Z" style="fill:#263238"></path><path d="M165.44,339.38s12.57-12.12,22.62-10.89,23.55,7.75,18.85,13.65-11.34-3.13-17.23,4.53-6.59,17.93-16.49,20.06S165.44,339.38,165.44,339.38Z" style="fill:#263238"></path><path d="M204.77,343.92a1.44,1.44,0,0,1-.48.05,8.2,8.2,0,0,1-1.4,0,5.69,5.69,0,0,1-1-.14,8.49,8.49,0,0,1-1.16-.32,8.31,8.31,0,0,1-2.51-1.54,14.34,14.34,0,0,0-2.66-2.18,5.3,5.3,0,0,0-3.76.17,9.43,9.43,0,0,0-3.58,2.4,13.17,13.17,0,0,0-2.48,3.95c-1.24,3-1.54,6.14-2.11,8.93a25.12,25.12,0,0,1-1.07,3.92,12.79,12.79,0,0,1-1.69,3.14,8.94,8.94,0,0,1-4,3.2,6.23,6.23,0,0,1-1.35.34,1.66,1.66,0,0,1-.49,0,16.83,16.83,0,0,0,1.77-.55,9,9,0,0,0,3.74-3.23,17,17,0,0,0,2.59-6.93c.54-2.76.82-5.94,2.1-9a13.54,13.54,0,0,1,2.59-4.1,9.77,9.77,0,0,1,3.78-2.5,7.78,7.78,0,0,1,2.09-.43,3.86,3.86,0,0,1,2,.32,5.68,5.68,0,0,1,1.51,1.13c.43.41.82.81,1.21,1.17a8.06,8.06,0,0,0,2.37,1.53,7.12,7.12,0,0,0,1.12.35,5.51,5.51,0,0,0,1,.19,12.79,12.79,0,0,0,1.37.11A1.87,1.87,0,0,1,204.77,343.92Z" style="fill:#455a64"></path><path d="M202.14,334.54a44.82,44.82,0,0,0-5.15-1.85,19.28,19.28,0,0,0-5.85-.62,15,15,0,0,0-6.82,2,21.2,21.2,0,0,0-5.47,4.67,39.63,39.63,0,0,0-3.46,4.82c-.89,1.44-1.57,2.64-2,3.45a8.2,8.2,0,0,1-.79,1.25,6.92,6.92,0,0,1,.61-1.34c.43-.85,1.06-2.08,1.92-3.55a35.89,35.89,0,0,1,3.4-4.94,21.22,21.22,0,0,1,5.58-4.82,15.23,15.23,0,0,1,7.06-2.06,18.68,18.68,0,0,1,6,.74,21.64,21.64,0,0,1,3.78,1.47,9,9,0,0,1,1,.52A1.21,1.21,0,0,1,202.14,334.54Z" style="fill:#455a64"></path><path d="M154.7,330.92s15.17,10,18.74,18.52,4.19,14.2-3.16,20.08-16.67,4.5-16.67,4.5L137,352.08Z" style="fill:#ffbe9d"></path><path d="M110.54,389.8c.16.6-10.12,34-13.71,50.77l1.71,6.87,19.58-4.9,14.14-52.19Z" style="fill:#263238"></path><path d="M119.2,441.24v1.4s23.61,9.71,23.82,14.21l-47-.64.85-15.64C103.78,443.9,111.1,444.37,119.2,441.24Z" style="fill:#455a64"></path><path d="M101.53,445.64a1.91,1.91,0,0,0-1.36,2.17,1.85,1.85,0,0,0,2.14,1.37,2,2,0,0,0,1.43-2.31,1.92,1.92,0,0,0-2.39-1.18" style="fill:#fff"></path><path d="M96,456.21l.21-3.76,45,2s2.08.94,1.82,2.41Z" style="fill:#263238"></path><path d="M119.36,442.77c0,.23-1.16.32-2.3,1s-1.76,1.68-2,1.59.15-1.42,1.55-2.27S119.41,442.56,119.36,442.77Z" style="fill:#263238"></path><path d="M124.26,444.88c0,.22-1,.6-1.74,1.56s-1,2-1.26,2-.36-1.31.65-2.49S124.26,444.66,124.26,444.88Z" style="fill:#263238"></path><path d="M127,450.82c-.21.05-.51-1.1.1-2.35s1.68-1.74,1.78-1.55-.58.86-1.06,1.89S127.21,450.8,127,450.82Z" style="fill:#263238"></path><path d="M61.7,364c1.52,0,48.14-11.4,66.05-11.22,10.65.1,21.68.09,24.34,13.51,1.52,7.69-29.55,63-29.55,63l-25.4-.64L105.88,394s-32.79,27.14-49,25.06c-13.15-1.69-23.73-9.75-27.32-32.58S61.7,364,61.7,364Z" style="fill:#e0e0e0"></path><path d="M119.71,352.89s-.08,0-.24.06l-.73.09-2.79.33c-1.21.11-2.69.35-4.4.61l-2.75.41-3.06.54a282.2,282.2,0,0,0-33.09,8.17A200.93,200.93,0,0,0,41,375.53c-1.9,1.08-3.65,2-5.12,2.9s-2.71,1.74-3.7,2.45l-2.2,1.75-.58.44c-.13.1-.2.15-.21.14a.79.79,0,0,1,.18-.18l.54-.48L32,380.72c1-.74,2.24-1.55,3.67-2.54s3.2-1.87,5.1-3A189.52,189.52,0,0,1,72.5,362.6a260,260,0,0,1,33.17-8l3.08-.51,2.76-.37c1.72-.23,3.2-.44,4.42-.52l2.8-.23.73-.05Z" style="fill:#263238"></path><polygon points="105.23 394.37 107.55 388.61 129.56 385.36 126.19 390.99 105.23 394.37" style="fill:#263238"></polygon><polygon points="98.89 421.71 113.71 425.15 115.94 420.93 100.32 416.06 98.89 421.71" style="fill:#263238"></polygon><path d="M149.06,358.49c-4.42-1.39-10.14.79-13.26,6.37-2.18,3.9-21.28,45.81-29.55,64a6.26,6.26,0,0,0,5.36,8.84l14.75,1.22a1.58,1.58,0,0,0,1.41-2.5l-.68-1c5.24-10.25,22.23-43.55,24.48-48.73C158.17,371.54,162.12,362.61,149.06,358.49Z" style="fill:#455a64"></path><path d="M152.24,360.24a7.25,7.25,0,0,0-3.48-.15,8.88,8.88,0,0,0-3.68,1.75,13.92,13.92,0,0,0-3.41,4.21c-1,1.76-1.87,3.84-2.87,6l-3.16,7-7.28,16L115,424.16c-1.71,3.67-3.11,6.66-4.09,8.78l-1.14,2.38c-.12.24-.23.44-.31.61s-.11.21-.12.2a.92.92,0,0,1,.07-.22c.07-.17.16-.38.26-.64l1-2.41,3.94-8.85,13.2-29.13,7.31-16,3.21-7c1-2.17,1.9-4.24,2.94-6a14.29,14.29,0,0,1,3.55-4.26,9.07,9.07,0,0,1,3.82-1.71,6.24,6.24,0,0,1,2.65.05A3.59,3.59,0,0,1,152.24,360.24Z" style="fill:#263238"></path><path d="M143.36,368.59a5.24,5.24,0,0,1,.42-.79,2.24,2.24,0,0,1,.44-.53,2,2,0,0,1,1.79-.59,2.92,2.92,0,0,1,2,1.6,4.57,4.57,0,0,1-.16,3.26c-.42,1.14-1,2.28-1.59,3.55-1.17,2.53-2.51,5.4-4,8.57-5.95,12.69-14.15,30.2-23.2,49.53a10,10,0,0,1-1,1.81,1.68,1.68,0,0,1-1,.58,2,2,0,0,1-1.11-.15,2.73,2.73,0,0,1-1.47-1.53,3.78,3.78,0,0,1,0-2.08A23.51,23.51,0,0,1,116,428.2l1.6-3.45c2.1-4.58,4.11-9,6-13.21l10.1-22.42c2.88-6.37,5.26-11.52,6.93-15.06l1.94-4.06.52-1.06a3.12,3.12,0,0,1,.19-.35,2.06,2.06,0,0,1-.14.38c-.12.26-.27.62-.47,1.07l-1.85,4.11-6.79,15.12c-2.85,6.41-6.23,14-10,22.47-1.89,4.22-3.89,8.65-6,13.22l-1.61,3.46a22.19,22.19,0,0,0-1.46,3.52,3.17,3.17,0,0,0,0,1.78,2.19,2.19,0,0,0,1.18,1.23,1.23,1.23,0,0,0,1.51-.29,9.35,9.35,0,0,0,.9-1.7c9.11-19.3,17.35-36.78,23.34-49.46,1.5-3.16,2.85-6,4-8.53.58-1.26,1.19-2.41,1.61-3.51a4.37,4.37,0,0,0,.22-3.09,2.74,2.74,0,0,0-1.89-1.53,1.9,1.9,0,0,0-1.69.51A7.15,7.15,0,0,0,143.36,368.59Z" style="fill:#263238"></path><path d="M150.57,368.78a1.48,1.48,0,0,1,.16-.37A2.19,2.19,0,0,1,151,368a3.27,3.27,0,0,1,.44-.54,2,2,0,0,1,1.79-.58,2.9,2.9,0,0,1,2,1.6,4.52,4.52,0,0,1-.16,3.26c-.42,1.13-1,2.28-1.58,3.54l-4,8.57c-6,12.7-14.14,30.2-23.2,49.53a9.77,9.77,0,0,1-1,1.82,1.67,1.67,0,0,1-1,.57,1.94,1.94,0,0,1-1.12-.15,2.73,2.73,0,0,1-1.47-1.53,3.78,3.78,0,0,1,0-2.08,23.51,23.51,0,0,1,1.51-3.62l1.61-3.45,6-13.21c3.8-8.43,7.22-16,10.1-22.41s5.26-11.52,6.93-15.06c.84-1.75,1.49-3.12,1.94-4.07l.52-1.05a1.42,1.42,0,0,1,.2-.35l-.15.37c-.12.26-.27.62-.47,1.07l-1.85,4.11c-1.62,3.6-3.93,8.76-6.78,15.13l-10,22.46c-1.9,4.22-3.9,8.65-6,13.22l-1.6,3.46a22.64,22.64,0,0,0-1.47,3.52,3.26,3.26,0,0,0,0,1.78,2.15,2.15,0,0,0,1.19,1.23,1.24,1.24,0,0,0,1.51-.28,10.4,10.4,0,0,0,.89-1.7c9.11-19.31,17.35-36.79,23.34-49.47,1.5-3.16,2.86-6,4.05-8.53.58-1.26,1.19-2.41,1.62-3.51a4.42,4.42,0,0,0,.21-3.09,2.77,2.77,0,0,0-1.88-1.53,1.92,1.92,0,0,0-1.7.51A6,6,0,0,0,150.57,368.78Z" style="fill:#263238"></path><path d="M125.08,367.62a8.34,8.34,0,0,1-1.16,1c-.38.3-.85.67-1.37,1.13s-1.13.95-1.76,1.55a55.75,55.75,0,0,0-4.28,4.35,55.35,55.35,0,0,0-8.26,12.42,56,56,0,0,0-2.36,5.63c-.32.81-.53,1.57-.75,2.23s-.38,1.23-.51,1.7a8.46,8.46,0,0,1-.47,1.45,10.28,10.28,0,0,1,.27-1.5c.1-.48.23-1.06.43-1.73s.38-1.44.68-2.27a51,51,0,0,1,2.27-5.72,58.06,58.06,0,0,1,3.71-6.57,55.66,55.66,0,0,1,4.63-5.95,48.35,48.35,0,0,1,4.39-4.31c.65-.6,1.29-1.07,1.83-1.51s1-.78,1.43-1.06A9.13,9.13,0,0,1,125.08,367.62Z" style="fill:#263238"></path></g></svg>