<svg xmlns="http://www.w3.org/2000/svg" viewBox="0 0 418.42 416.62"><g id="freepik--background-complete--inject-837"><path d="M334,149.9c-4.78,0-123.93-.83-157.59-.83-2.35,0,.62-4.08,1.92-4.36,4.14-.91,8.45-1,12.66-1.39a41.56,41.56,0,0,0,12.06-3c3.31-1.4,6.61-3,10.2-3.57,6.93-1.09,13,2.67,19.52,4.32a14.7,14.7,0,0,0,11.82-1.61c3-1.8,5.74-4,8.88-5.56a48.71,48.71,0,0,1,38.94-1.78,44.75,44.75,0,0,1,8.52,4.36c3.17,2.08,5.91,4.74,9.1,6.8,7.06,4.57,15.78,3.08,23.48,5.7C333.93,149.1,334.41,149.9,334,149.9Z" transform="translate(-40.79 -43.74)" style="fill:#ebebeb"></path><path d="M203.52,66.35c-6.31,0-112.54.7-119.22.49-.48,0-.74-.72-.26-1,4.21-2.08,9-1.66,13.35-3.14,2.58-.86,4.16-2.55,5.94-4.48a12.41,12.41,0,0,1,5.53-3.61,11.71,11.71,0,0,1,6-.18c2.16.51,4,1.74,6.08,2.52,5.11,1.93,10.07.1,13.71-3.68,3-3.11,6-6.05,10-7.72a13.33,13.33,0,0,1,10.65-.15c3.89,1.76,6.57,5.31,10.23,7.45,4.34,2.54,9.52,1.94,14.32,2.7s8.47,4.8,12.67,7.13a9,9,0,0,0,4.58,1.41,26.36,26.36,0,0,0,2.79-.39c1.45-.18,2.82-.14,3.8,1.07C204,65.1,203.93,66.35,203.52,66.35Z" transform="translate(-40.79 -43.74)" style="fill:#ebebeb"></path><path d="M439.63,289.54c-6.32,0-112.55.7-119.22.49-.48,0-.74-.72-.26-1,4.21-2.08,9-1.66,13.35-3.14,2.58-.87,4.16-2.55,5.94-4.48a12.28,12.28,0,0,1,5.53-3.61,11.81,11.81,0,0,1,6-.19c2.15.52,4,1.75,6.08,2.53,5.11,1.93,10.06.1,13.71-3.68,3-3.11,6-6.05,10-7.73a13.35,13.35,0,0,1,10.64-.14c3.9,1.76,6.57,5.31,10.23,7.45,4.34,2.53,9.53,1.93,14.32,2.7s8.48,4.8,12.68,7.12a8.91,8.91,0,0,0,4.58,1.42,26.36,26.36,0,0,0,2.79-.39c1.45-.18,2.82-.14,3.79,1.07C440.09,288.29,440,289.54,439.63,289.54Z" transform="translate(-40.79 -43.74)" style="fill:#ebebeb"></path><path d="M452.32,101.62c-4.61,0-82.17.51-87.05.35a.38.38,0,0,1-.19-.7c3.08-1.52,6.56-1.21,9.76-2.29a10.34,10.34,0,0,0,4.33-3.27,9,9,0,0,1,4-2.63,8.39,8.39,0,0,1,4.39-.14A35.79,35.79,0,0,1,392,94.78c3.73,1.41,7.35.07,10-2.69,2.19-2.27,4.35-4.41,7.33-5.64a9.77,9.77,0,0,1,7.77-.1c2.85,1.29,4.8,3.88,7.47,5.44,3.17,1.85,7,1.41,10.46,2s6.18,3.5,9.25,5.2a6.57,6.57,0,0,0,3.35,1c.68,0,1.35-.21,2-.29a2.79,2.79,0,0,1,2.77.78C452.65,100.7,452.62,101.62,452.32,101.62Z" transform="translate(-40.79 -43.74)" style="fill:#ebebeb"></path><path d="M357.87,193.62c-4.61,0-82.17.51-87.05.35a.38.38,0,0,1-.19-.7c3.08-1.52,6.56-1.21,9.76-2.29a10.34,10.34,0,0,0,4.33-3.27,9,9,0,0,1,4-2.63,8.49,8.49,0,0,1,4.39-.14,35.79,35.79,0,0,1,4.44,1.84c3.73,1.41,7.35.07,10-2.68,2.19-2.28,4.35-4.42,7.33-5.64a9.72,9.72,0,0,1,7.77-.11c2.85,1.29,4.8,3.88,7.47,5.44,3.17,1.85,7,1.41,10.46,2s6.18,3.5,9.25,5.2a6.57,6.57,0,0,0,3.35,1c.68,0,1.35-.21,2-.29a2.79,2.79,0,0,1,2.77.78C358.2,192.71,358.17,193.62,357.87,193.62Z" transform="translate(-40.79 -43.74)" style="fill:#ebebeb"></path><path d="M134.83,224.05c-4.61,0-82.17.51-87,.35a.38.38,0,0,1-.19-.7c3.07-1.52,6.56-1.21,9.75-2.29a10.37,10.37,0,0,0,4.34-3.27,8.92,8.92,0,0,1,4-2.63,8.53,8.53,0,0,1,4.4-.14,36.43,36.43,0,0,1,4.44,1.84c3.72,1.41,7.34.07,10-2.68,2.2-2.28,4.36-4.42,7.34-5.64a9.72,9.72,0,0,1,7.77-.11c2.84,1.29,4.79,3.88,7.47,5.44,3.17,1.85,7,1.41,10.45,2s6.19,3.5,9.25,5.2a6.6,6.6,0,0,0,3.35,1c.69,0,1.36-.21,2-.29a2.79,2.79,0,0,1,2.77.78C135.17,223.14,135.13,224.05,134.83,224.05Z" transform="translate(-40.79 -43.74)" style="fill:#ebebeb"></path><rect x="108.58" y="276.45" width="35.26" height="133.74" style="fill:#ebebeb"></rect><rect x="113.59" y="267.58" width="30.25" height="8.87" style="fill:#c7c7c7"></rect><rect x="112.45" y="281.08" width="27.53" height="99.98" style="fill:#dbdbdb"></rect><rect x="112.45" y="290.62" width="27.53" height="2.36" style="fill:#fff"></rect><rect x="112.45" y="300.4" width="27.53" height="2.36" style="fill:#fff"></rect><rect x="112.45" y="310.19" width="27.53" height="2.36" style="fill:#fff"></rect><rect x="112.45" y="319.98" width="27.53" height="2.36" style="fill:#fff"></rect><rect x="112.45" y="329.76" width="27.53" height="2.36" style="fill:#fff"></rect><rect x="112.45" y="339.55" width="27.53" height="2.36" style="fill:#fff"></rect><rect x="112.45" y="349.34" width="27.53" height="2.36" style="fill:#fff"></rect><rect x="112.45" y="359.12" width="27.53" height="2.36" style="fill:#fff"></rect><rect x="112.45" y="368.91" width="27.53" height="2.36" style="fill:#fff"></rect><rect x="112.45" y="378.7" width="27.53" height="2.36" style="fill:#fff"></rect><rect x="143.84" y="276.45" width="22.09" height="133.74" style="fill:#dbdbdb"></rect><rect x="143.84" y="267.58" width="18.77" height="8.87" style="fill:#a6a6a6"></rect><rect x="146.89" y="281.08" width="16.98" height="99.98" style="fill:#c7c7c7"></rect><rect x="146.89" y="290.62" width="16.98" height="2.36" style="fill:#fff"></rect><rect x="146.89" y="300.4" width="16.98" height="2.36" style="fill:#fff"></rect><rect x="146.89" y="310.19" width="16.98" height="2.36" style="fill:#fff"></rect><rect x="146.89" y="319.98" width="16.98" height="2.36" style="fill:#fff"></rect><rect x="146.89" y="329.76" width="16.98" height="2.36" style="fill:#fff"></rect><rect x="146.89" y="339.55" width="16.98" height="2.36" style="fill:#fff"></rect><rect x="146.89" y="349.34" width="16.98" height="2.36" style="fill:#fff"></rect><rect x="146.89" y="359.12" width="16.98" height="2.36" style="fill:#fff"></rect><rect x="146.89" y="368.91" width="16.98" height="2.36" style="fill:#fff"></rect><rect x="146.89" y="378.7" width="16.98" height="2.36" style="fill:#fff"></rect><rect x="291.63" y="223.34" width="35.64" height="186.85" style="fill:#dbdbdb"></rect><rect x="297.17" y="229.41" width="6.93" height="7.13" style="fill:#ebebeb"></rect><rect x="306.03" y="229.41" width="6.93" height="7.13" style="fill:#ebebeb"></rect><rect x="297.17" y="241.52" width="6.93" height="7.13" style="fill:#ebebeb"></rect><rect x="306.03" y="241.52" width="6.93" height="7.13" style="fill:#ebebeb"></rect><rect x="297.17" y="253.64" width="6.93" height="7.13" style="fill:#ebebeb"></rect><rect x="306.03" y="253.64" width="6.93" height="7.13" style="fill:#ebebeb"></rect><rect x="297.17" y="265.75" width="6.93" height="7.13" style="fill:#ebebeb"></rect><rect x="306.03" y="265.75" width="6.93" height="7.13" style="fill:#ebebeb"></rect><rect x="297.17" y="277.86" width="6.93" height="7.13" style="fill:#ebebeb"></rect><rect x="306.03" y="277.86" width="6.93" height="7.13" style="fill:#ebebeb"></rect><rect x="297.17" y="289.97" width="6.93" height="7.13" style="fill:#ebebeb"></rect><rect x="306.03" y="289.97" width="6.93" height="7.13" style="fill:#ebebeb"></rect><rect x="297.17" y="302.09" width="6.93" height="7.13" style="fill:#ebebeb"></rect><rect x="306.03" y="302.09" width="6.93" height="7.13" style="fill:#ebebeb"></rect><rect x="297.17" y="314.2" width="6.93" height="7.13" style="fill:#ebebeb"></rect><rect x="306.03" y="314.2" width="6.93" height="7.13" style="fill:#ebebeb"></rect><rect x="297.17" y="326.31" width="6.93" height="7.13" style="fill:#ebebeb"></rect><rect x="306.03" y="326.31" width="6.93" height="7.13" style="fill:#ebebeb"></rect><rect x="297.17" y="338.42" width="6.93" height="7.13" style="fill:#ebebeb"></rect><rect x="306.03" y="338.42" width="6.93" height="7.13" style="fill:#ebebeb"></rect><rect x="297.17" y="350.54" width="6.93" height="7.13" style="fill:#ebebeb"></rect><rect x="306.03" y="350.54" width="6.93" height="7.13" style="fill:#ebebeb"></rect><rect x="297.17" y="362.65" width="6.93" height="7.13" style="fill:#ebebeb"></rect><rect x="306.03" y="362.65" width="6.93" height="7.13" style="fill:#ebebeb"></rect><rect x="297.17" y="374.76" width="6.93" height="7.13" style="fill:#ebebeb"></rect><rect x="306.03" y="374.76" width="6.93" height="7.13" style="fill:#ebebeb"></rect><rect x="297.17" y="386.88" width="6.93" height="7.13" style="fill:#ebebeb"></rect><rect x="355.61" y="430.61" width="6.93" height="7.13" transform="translate(677.36 824.62) rotate(180)" style="fill:#ebebeb"></rect><rect x="355.61" y="418.5" width="6.93" height="7.13" transform="translate(677.36 800.4) rotate(180)" style="fill:#ebebeb"></rect><rect x="355.61" y="406.39" width="6.93" height="7.13" transform="translate(677.36 776.17) rotate(180)" style="fill:#ebebeb"></rect><rect x="355.61" y="394.28" width="6.93" height="7.13" transform="translate(677.36 751.95) rotate(180)" style="fill:#ebebeb"></rect><rect x="355.61" y="382.16" width="6.93" height="7.13" transform="translate(677.36 727.72) rotate(180)" style="fill:#ebebeb"></rect><rect x="355.61" y="370.05" width="6.93" height="7.13" transform="translate(677.36 703.5) rotate(180)" style="fill:#ebebeb"></rect><rect x="355.61" y="357.94" width="6.93" height="7.13" transform="translate(677.36 679.27) rotate(180)" style="fill:#ebebeb"></rect><rect x="355.61" y="345.82" width="6.93" height="7.13" transform="translate(677.36 655.05) rotate(180)" style="fill:#ebebeb"></rect><rect x="355.61" y="333.71" width="6.93" height="7.13" transform="translate(677.36 630.82) rotate(180)" style="fill:#ebebeb"></rect><rect x="355.61" y="321.6" width="6.93" height="7.13" transform="translate(677.36 606.59) rotate(180)" style="fill:#ebebeb"></rect><rect x="355.61" y="309.49" width="6.93" height="7.13" transform="translate(677.36 582.37) rotate(180)" style="fill:#ebebeb"></rect><rect x="355.61" y="297.37" width="6.93" height="7.13" transform="translate(677.36 558.14) rotate(180)" style="fill:#ebebeb"></rect><rect x="355.61" y="285.26" width="6.93" height="7.13" transform="translate(677.36 533.92) rotate(180)" style="fill:#ebebeb"></rect><rect x="355.61" y="273.15" width="6.93" height="7.13" transform="translate(677.36 509.69) rotate(180)" style="fill:#ebebeb"></rect><rect x="306.03" y="386.88" width="6.93" height="7.13" style="fill:#ebebeb"></rect><rect x="327.28" y="223.34" width="28.1" height="186.85" style="fill:#a6a6a6"></rect><rect x="387.56" y="430.61" width="5.72" height="7.13" transform="translate(740.04 824.62) rotate(180)" style="fill:#c7c7c7"></rect><rect x="380.24" y="430.61" width="5.72" height="7.13" transform="translate(725.4 824.62) rotate(180)" style="fill:#c7c7c7"></rect><rect x="387.56" y="418.5" width="5.72" height="7.13" transform="translate(740.04 800.4) rotate(180)" style="fill:#c7c7c7"></rect><rect x="380.24" y="418.5" width="5.72" height="7.13" transform="translate(725.4 800.4) rotate(180)" style="fill:#c7c7c7"></rect><rect x="387.56" y="406.39" width="5.72" height="7.13" transform="translate(740.04 776.17) rotate(180)" style="fill:#c7c7c7"></rect><rect x="380.24" y="406.39" width="5.72" height="7.13" transform="translate(725.4 776.17) rotate(180)" style="fill:#c7c7c7"></rect><rect x="387.56" y="394.28" width="5.72" height="7.13" transform="translate(740.04 751.95) rotate(180)" style="fill:#c7c7c7"></rect><rect x="380.24" y="394.28" width="5.72" height="7.13" transform="translate(725.4 751.95) rotate(180)" style="fill:#c7c7c7"></rect><rect x="387.56" y="382.16" width="5.72" height="7.13" transform="translate(740.04 727.72) rotate(180)" style="fill:#c7c7c7"></rect><rect x="380.24" y="382.16" width="5.72" height="7.13" transform="translate(725.4 727.72) rotate(180)" style="fill:#c7c7c7"></rect><rect x="387.56" y="370.05" width="5.72" height="7.13" transform="translate(740.04 703.5) rotate(180)" style="fill:#c7c7c7"></rect><rect x="380.24" y="370.05" width="5.72" height="7.13" transform="translate(725.4 703.5) rotate(180)" style="fill:#c7c7c7"></rect><rect x="387.56" y="357.94" width="5.72" height="7.13" transform="translate(740.04 679.27) rotate(180)" style="fill:#c7c7c7"></rect><rect x="380.24" y="357.94" width="5.72" height="7.13" transform="translate(725.4 679.27) rotate(180)" style="fill:#c7c7c7"></rect><rect x="387.56" y="345.82" width="5.72" height="7.13" transform="translate(740.04 655.05) rotate(180)" style="fill:#c7c7c7"></rect><rect x="380.24" y="345.82" width="5.72" height="7.13" transform="translate(725.4 655.05) rotate(180)" style="fill:#c7c7c7"></rect><rect x="387.56" y="333.71" width="5.72" height="7.13" transform="translate(740.04 630.82) rotate(180)" style="fill:#c7c7c7"></rect><rect x="380.24" y="333.71" width="5.72" height="7.13" transform="translate(725.4 630.82) rotate(180)" style="fill:#c7c7c7"></rect><rect x="387.56" y="321.6" width="5.72" height="7.13" transform="translate(740.04 606.59) rotate(180)" style="fill:#c7c7c7"></rect><rect x="380.24" y="321.6" width="5.72" height="7.13" transform="translate(725.4 606.59) rotate(180)" style="fill:#c7c7c7"></rect><rect x="387.56" y="309.49" width="5.72" height="7.13" transform="translate(740.04 582.37) rotate(180)" style="fill:#c7c7c7"></rect><rect x="380.24" y="309.49" width="5.72" height="7.13" transform="translate(725.4 582.37) rotate(180)" style="fill:#c7c7c7"></rect><rect x="387.56" y="297.37" width="5.72" height="7.13" transform="translate(740.04 558.14) rotate(180)" style="fill:#c7c7c7"></rect><rect x="380.24" y="297.37" width="5.72" height="7.13" transform="translate(725.4 558.14) rotate(180)" style="fill:#c7c7c7"></rect><rect x="387.56" y="285.26" width="5.72" height="7.13" transform="translate(740.04 533.92) rotate(180)" style="fill:#c7c7c7"></rect><rect x="380.24" y="285.26" width="5.72" height="7.13" transform="translate(725.4 533.92) rotate(180)" style="fill:#c7c7c7"></rect><rect x="387.56" y="273.15" width="5.72" height="7.13" transform="translate(740.04 509.69) rotate(180)" style="fill:#c7c7c7"></rect><rect x="332.19" y="229.41" width="5.72" height="7.13" style="fill:#c7c7c7"></rect><rect x="332.19" y="241.52" width="5.72" height="7.13" style="fill:#c7c7c7"></rect><rect x="332.19" y="253.64" width="5.72" height="7.13" style="fill:#c7c7c7"></rect><rect x="332.19" y="265.75" width="5.72" height="7.13" style="fill:#c7c7c7"></rect><rect x="332.19" y="277.86" width="5.72" height="7.13" style="fill:#c7c7c7"></rect><rect x="332.19" y="289.97" width="5.72" height="7.13" style="fill:#c7c7c7"></rect><rect x="332.19" y="302.09" width="5.72" height="7.13" style="fill:#c7c7c7"></rect><rect x="332.19" y="314.2" width="5.72" height="7.13" style="fill:#c7c7c7"></rect><rect x="332.19" y="326.31" width="5.72" height="7.13" style="fill:#c7c7c7"></rect><rect x="332.19" y="338.42" width="5.72" height="7.13" style="fill:#c7c7c7"></rect><rect x="332.19" y="350.54" width="5.72" height="7.13" style="fill:#c7c7c7"></rect><rect x="332.19" y="362.65" width="5.72" height="7.13" style="fill:#c7c7c7"></rect><rect x="332.19" y="374.76" width="5.72" height="7.13" style="fill:#c7c7c7"></rect><rect x="332.19" y="386.88" width="5.72" height="7.13" style="fill:#c7c7c7"></rect><rect x="380.24" y="273.15" width="5.72" height="7.13" transform="translate(725.4 509.69) rotate(180)" style="fill:#c7c7c7"></rect><rect x="13.97" y="219.26" width="37.18" height="190.93" style="fill:#ebebeb"></rect><rect x="13.07" y="215.46" width="38.08" height="3.8" style="fill:#c7c7c7"></rect><rect x="17.33" y="224.87" width="3.77" height="185.32" style="fill:#fff"></rect><rect x="24" y="224.87" width="3.77" height="185.32" style="fill:#fff"></rect><rect x="30.67" y="224.87" width="3.77" height="185.32" style="fill:#fff"></rect><rect x="37.35" y="224.87" width="3.77" height="185.32" style="fill:#fff"></rect><rect x="44.02" y="224.87" width="3.77" height="185.32" style="fill:#fff"></rect><rect x="17.33" y="229.67" width="3.77" height="7.51" style="fill:#ebebeb"></rect><rect x="24" y="229.67" width="3.77" height="7.51" style="fill:#ebebeb"></rect><rect x="30.67" y="229.67" width="3.77" height="7.51" style="fill:#ebebeb"></rect><rect x="37.35" y="229.67" width="3.77" height="7.51" style="fill:#ebebeb"></rect><rect x="44.02" y="229.67" width="3.77" height="7.51" style="fill:#ebebeb"></rect><rect x="17.33" y="241.87" width="3.77" height="7.51" style="fill:#ebebeb"></rect><rect x="24" y="241.87" width="3.77" height="7.51" style="fill:#ebebeb"></rect><rect x="30.67" y="241.87" width="3.77" height="7.51" style="fill:#ebebeb"></rect><rect x="37.35" y="241.87" width="3.77" height="7.51" style="fill:#ebebeb"></rect><rect x="44.02" y="241.87" width="3.77" height="7.51" style="fill:#ebebeb"></rect><rect x="17.33" y="254.07" width="3.77" height="7.5" style="fill:#ebebeb"></rect><rect x="24" y="254.07" width="3.77" height="7.5" style="fill:#ebebeb"></rect><rect x="30.67" y="254.07" width="3.77" height="7.5" style="fill:#ebebeb"></rect><rect x="37.35" y="254.07" width="3.77" height="7.5" style="fill:#ebebeb"></rect><rect x="44.02" y="254.07" width="3.77" height="7.5" style="fill:#ebebeb"></rect><rect x="17.33" y="266.26" width="3.77" height="7.51" style="fill:#ebebeb"></rect><rect x="24" y="266.26" width="3.77" height="7.51" style="fill:#ebebeb"></rect><rect x="30.67" y="266.26" width="3.77" height="7.51" style="fill:#ebebeb"></rect><rect x="37.35" y="266.26" width="3.77" height="7.51" style="fill:#ebebeb"></rect><rect x="44.02" y="266.26" width="3.77" height="7.51" style="fill:#ebebeb"></rect><rect x="17.33" y="278.46" width="3.77" height="7.51" style="fill:#ebebeb"></rect><rect x="24" y="278.46" width="3.77" height="7.51" style="fill:#ebebeb"></rect><rect x="30.67" y="278.46" width="3.77" height="7.51" style="fill:#ebebeb"></rect><rect x="37.35" y="278.46" width="3.77" height="7.51" style="fill:#ebebeb"></rect><rect x="44.02" y="278.46" width="3.77" height="7.51" style="fill:#ebebeb"></rect><rect x="17.33" y="290.66" width="3.77" height="7.51" style="fill:#ebebeb"></rect><rect x="24" y="290.66" width="3.77" height="7.51" style="fill:#ebebeb"></rect><rect x="30.67" y="290.66" width="3.77" height="7.51" style="fill:#ebebeb"></rect><rect x="37.35" y="290.66" width="3.77" height="7.51" style="fill:#ebebeb"></rect><rect x="44.02" y="290.66" width="3.77" height="7.51" style="fill:#ebebeb"></rect><rect x="17.33" y="302.86" width="3.77" height="7.51" style="fill:#ebebeb"></rect><rect x="24" y="302.86" width="3.77" height="7.51" style="fill:#ebebeb"></rect><rect x="30.67" y="302.86" width="3.77" height="7.51" style="fill:#ebebeb"></rect><rect x="37.35" y="302.86" width="3.77" height="7.51" style="fill:#ebebeb"></rect><rect x="44.02" y="302.86" width="3.77" height="7.51" style="fill:#ebebeb"></rect><rect x="17.33" y="315.05" width="3.77" height="7.51" style="fill:#ebebeb"></rect><rect x="24" y="315.05" width="3.77" height="7.51" style="fill:#ebebeb"></rect><rect x="30.67" y="315.05" width="3.77" height="7.51" style="fill:#ebebeb"></rect><rect x="37.35" y="315.05" width="3.77" height="7.51" style="fill:#ebebeb"></rect><rect x="44.02" y="315.05" width="3.77" height="7.51" style="fill:#ebebeb"></rect><rect x="17.33" y="327.25" width="3.77" height="7.51" style="fill:#ebebeb"></rect><rect x="24" y="327.25" width="3.77" height="7.51" style="fill:#ebebeb"></rect><rect x="30.67" y="327.25" width="3.77" height="7.51" style="fill:#ebebeb"></rect><rect x="37.35" y="327.25" width="3.77" height="7.51" style="fill:#ebebeb"></rect><rect x="44.02" y="327.25" width="3.77" height="7.51" style="fill:#ebebeb"></rect><rect x="17.33" y="339.45" width="3.77" height="7.51" style="fill:#ebebeb"></rect><rect x="24" y="339.45" width="3.77" height="7.51" style="fill:#ebebeb"></rect><rect x="30.67" y="339.45" width="3.77" height="7.51" style="fill:#ebebeb"></rect><rect x="37.35" y="339.45" width="3.77" height="7.51" style="fill:#ebebeb"></rect><rect x="44.02" y="339.45" width="3.77" height="7.51" style="fill:#ebebeb"></rect><rect x="17.33" y="351.65" width="3.77" height="7.51" style="fill:#ebebeb"></rect><rect x="24" y="351.65" width="3.77" height="7.51" style="fill:#ebebeb"></rect><rect x="30.67" y="351.65" width="3.77" height="7.51" style="fill:#ebebeb"></rect><rect x="37.35" y="351.65" width="3.77" height="7.51" style="fill:#ebebeb"></rect><rect x="44.02" y="351.65" width="3.77" height="7.51" style="fill:#ebebeb"></rect><rect x="17.33" y="363.84" width="3.77" height="7.51" style="fill:#ebebeb"></rect><rect x="24" y="363.84" width="3.77" height="7.51" style="fill:#ebebeb"></rect><rect x="30.67" y="363.84" width="3.77" height="7.51" style="fill:#ebebeb"></rect><rect x="37.35" y="363.84" width="3.77" height="7.51" style="fill:#ebebeb"></rect><rect x="44.02" y="363.84" width="3.77" height="7.51" style="fill:#ebebeb"></rect><rect x="17.33" y="376.04" width="3.77" height="7.51" style="fill:#ebebeb"></rect><rect x="24" y="376.04" width="3.77" height="7.51" style="fill:#ebebeb"></rect><rect x="30.67" y="376.04" width="3.77" height="7.51" style="fill:#ebebeb"></rect><rect x="37.35" y="376.04" width="3.77" height="7.51" style="fill:#ebebeb"></rect><rect x="44.02" y="376.04" width="3.77" height="7.51" style="fill:#ebebeb"></rect><rect x="17.33" y="388.24" width="3.77" height="21.95" style="fill:#ebebeb"></rect><rect x="24" y="388.24" width="3.77" height="21.95" style="fill:#ebebeb"></rect><rect x="30.67" y="388.24" width="3.77" height="21.95" style="fill:#ebebeb"></rect><rect x="37.35" y="388.24" width="3.77" height="21.95" style="fill:#ebebeb"></rect><rect x="44.02" y="388.24" width="3.77" height="21.95" style="fill:#ebebeb"></rect><rect x="51.15" y="219.26" width="23.87" height="190.93" style="fill:#dbdbdb"></rect><rect x="51.15" y="215.46" width="24.91" height="3.8" style="fill:#c7c7c7"></rect><rect x="54.51" y="224.87" width="3.77" height="185.32" style="fill:#c7c7c7"></rect><rect x="61.18" y="224.87" width="3.77" height="185.32" style="fill:#c7c7c7"></rect><rect x="67.86" y="224.87" width="3.77" height="185.32" style="fill:#c7c7c7"></rect><rect x="54.51" y="229.67" width="3.77" height="7.51" style="fill:#dbdbdb"></rect><rect x="61.18" y="229.67" width="3.77" height="7.51" style="fill:#dbdbdb"></rect><rect x="67.86" y="229.67" width="3.77" height="7.51" style="fill:#dbdbdb"></rect><rect x="54.51" y="241.87" width="3.77" height="7.51" style="fill:#dbdbdb"></rect><rect x="61.18" y="241.87" width="3.77" height="7.51" style="fill:#dbdbdb"></rect><rect x="67.86" y="241.87" width="3.77" height="7.51" style="fill:#dbdbdb"></rect><rect x="54.51" y="254.07" width="3.77" height="7.5" style="fill:#dbdbdb"></rect><rect x="61.18" y="254.07" width="3.77" height="7.5" style="fill:#dbdbdb"></rect><rect x="67.86" y="254.07" width="3.77" height="7.5" style="fill:#dbdbdb"></rect><rect x="54.51" y="266.26" width="3.77" height="7.51" style="fill:#dbdbdb"></rect><rect x="61.18" y="266.26" width="3.77" height="7.51" style="fill:#dbdbdb"></rect><rect x="67.86" y="266.26" width="3.77" height="7.51" style="fill:#dbdbdb"></rect><rect x="54.51" y="278.46" width="3.77" height="7.51" style="fill:#dbdbdb"></rect><rect x="61.18" y="278.46" width="3.77" height="7.51" style="fill:#dbdbdb"></rect><rect x="67.86" y="278.46" width="3.77" height="7.51" style="fill:#dbdbdb"></rect><rect x="54.51" y="290.66" width="3.77" height="7.51" style="fill:#dbdbdb"></rect><rect x="61.18" y="290.66" width="3.77" height="7.51" style="fill:#dbdbdb"></rect><rect x="67.86" y="290.66" width="3.77" height="7.51" style="fill:#dbdbdb"></rect><rect x="54.51" y="302.86" width="3.77" height="7.51" style="fill:#dbdbdb"></rect><rect x="61.18" y="302.86" width="3.77" height="7.51" style="fill:#dbdbdb"></rect><rect x="67.86" y="302.86" width="3.77" height="7.51" style="fill:#dbdbdb"></rect><rect x="54.51" y="315.05" width="3.77" height="7.51" style="fill:#dbdbdb"></rect><rect x="61.18" y="315.05" width="3.77" height="7.51" style="fill:#dbdbdb"></rect><rect x="67.86" y="315.05" width="3.77" height="7.51" style="fill:#dbdbdb"></rect><rect x="54.51" y="327.25" width="3.77" height="7.51" style="fill:#dbdbdb"></rect><rect x="61.18" y="327.25" width="3.77" height="7.51" style="fill:#dbdbdb"></rect><rect x="67.86" y="327.25" width="3.77" height="7.51" style="fill:#dbdbdb"></rect><rect x="54.51" y="339.45" width="3.77" height="7.51" style="fill:#dbdbdb"></rect><rect x="61.18" y="339.45" width="3.77" height="7.51" style="fill:#dbdbdb"></rect><rect x="67.86" y="339.45" width="3.77" height="7.51" style="fill:#dbdbdb"></rect><rect x="54.51" y="351.65" width="3.77" height="7.51" style="fill:#dbdbdb"></rect><rect x="61.18" y="351.65" width="3.77" height="7.51" style="fill:#dbdbdb"></rect><rect x="67.86" y="351.65" width="3.77" height="7.51" style="fill:#dbdbdb"></rect><rect x="54.51" y="363.84" width="3.77" height="7.51" style="fill:#dbdbdb"></rect><rect x="61.18" y="363.84" width="3.77" height="7.51" style="fill:#dbdbdb"></rect><rect x="67.86" y="363.84" width="3.77" height="7.51" style="fill:#dbdbdb"></rect><rect x="54.51" y="376.04" width="3.77" height="7.51" style="fill:#dbdbdb"></rect><rect x="61.18" y="376.04" width="3.77" height="7.51" style="fill:#dbdbdb"></rect><rect x="67.86" y="376.04" width="3.77" height="7.51" style="fill:#dbdbdb"></rect><rect x="54.51" y="388.24" width="3.77" height="21.95" style="fill:#dbdbdb"></rect><rect x="61.18" y="388.24" width="3.77" height="21.95" style="fill:#dbdbdb"></rect><rect x="67.86" y="388.24" width="3.77" height="21.95" style="fill:#dbdbdb"></rect><rect x="168.85" y="297.33" width="44.69" height="112.86" style="fill:#ebebeb"></rect><rect x="167.77" y="293.53" width="45.76" height="3.8" style="fill:#c7c7c7"></rect><rect x="172.89" y="302.94" width="4.52" height="107.25" style="fill:#fff"></rect><rect x="180.91" y="302.94" width="4.53" height="107.25" style="fill:#fff"></rect><rect x="188.93" y="302.94" width="4.52" height="107.25" style="fill:#fff"></rect><rect x="196.95" y="302.94" width="4.53" height="107.25" style="fill:#fff"></rect><rect x="204.97" y="302.94" width="4.52" height="107.25" style="fill:#fff"></rect><rect x="172.89" y="307.74" width="4.53" height="7.5" style="fill:#ebebeb"></rect><rect x="180.91" y="307.74" width="4.53" height="7.5" style="fill:#ebebeb"></rect><rect x="188.93" y="307.74" width="4.53" height="7.5" style="fill:#ebebeb"></rect><rect x="196.95" y="307.74" width="4.53" height="7.5" style="fill:#ebebeb"></rect><rect x="204.97" y="307.74" width="4.53" height="7.5" style="fill:#ebebeb"></rect><rect x="172.89" y="319.94" width="4.53" height="7.51" style="fill:#ebebeb"></rect><rect x="180.91" y="319.94" width="4.53" height="7.51" style="fill:#ebebeb"></rect><rect x="188.93" y="319.94" width="4.53" height="7.51" style="fill:#ebebeb"></rect><rect x="196.95" y="319.94" width="4.53" height="7.51" style="fill:#ebebeb"></rect><rect x="204.97" y="319.94" width="4.53" height="7.51" style="fill:#ebebeb"></rect><rect x="172.89" y="332.13" width="4.53" height="7.51" style="fill:#ebebeb"></rect><rect x="180.91" y="332.13" width="4.53" height="7.51" style="fill:#ebebeb"></rect><rect x="188.93" y="332.13" width="4.53" height="7.51" style="fill:#ebebeb"></rect><rect x="196.95" y="332.13" width="4.53" height="7.51" style="fill:#ebebeb"></rect><rect x="204.97" y="332.13" width="4.53" height="7.51" style="fill:#ebebeb"></rect><rect x="172.89" y="344.33" width="4.53" height="7.51" style="fill:#ebebeb"></rect><rect x="180.91" y="344.33" width="4.53" height="7.51" style="fill:#ebebeb"></rect><rect x="188.93" y="344.33" width="4.53" height="7.51" style="fill:#ebebeb"></rect><rect x="196.95" y="344.33" width="4.53" height="7.51" style="fill:#ebebeb"></rect><rect x="204.97" y="344.33" width="4.53" height="7.51" style="fill:#ebebeb"></rect><rect x="172.89" y="356.53" width="4.53" height="7.51" style="fill:#ebebeb"></rect><rect x="180.91" y="356.53" width="4.53" height="7.51" style="fill:#ebebeb"></rect><rect x="188.93" y="356.53" width="4.53" height="7.51" style="fill:#ebebeb"></rect><rect x="196.95" y="356.53" width="4.53" height="7.51" style="fill:#ebebeb"></rect><rect x="204.97" y="356.53" width="4.53" height="7.51" style="fill:#ebebeb"></rect><rect x="172.89" y="368.73" width="4.53" height="7.5" style="fill:#ebebeb"></rect><rect x="180.91" y="368.73" width="4.53" height="7.5" style="fill:#ebebeb"></rect><rect x="188.93" y="368.73" width="4.53" height="7.5" style="fill:#ebebeb"></rect><rect x="196.95" y="368.73" width="4.53" height="7.5" style="fill:#ebebeb"></rect><rect x="204.97" y="368.73" width="4.53" height="7.5" style="fill:#ebebeb"></rect><rect x="172.89" y="380.92" width="4.53" height="7.51" style="fill:#ebebeb"></rect><rect x="180.91" y="380.92" width="4.53" height="7.51" style="fill:#ebebeb"></rect><rect x="188.93" y="380.92" width="4.53" height="7.51" style="fill:#ebebeb"></rect><rect x="196.95" y="380.92" width="4.53" height="7.51" style="fill:#ebebeb"></rect><rect x="204.97" y="380.92" width="4.53" height="7.51" style="fill:#ebebeb"></rect><rect x="172.89" y="393.12" width="4.53" height="7.51" style="fill:#ebebeb"></rect><rect x="180.91" y="393.12" width="4.53" height="7.51" style="fill:#ebebeb"></rect><rect x="188.93" y="393.12" width="4.53" height="7.51" style="fill:#ebebeb"></rect><rect x="196.95" y="393.12" width="4.53" height="7.51" style="fill:#ebebeb"></rect><rect x="204.97" y="393.12" width="4.53" height="7.51" style="fill:#ebebeb"></rect><rect x="172.89" y="405.32" width="4.52" height="4.87" style="fill:#ebebeb"></rect><rect x="180.91" y="405.32" width="4.53" height="4.87" style="fill:#ebebeb"></rect><rect x="188.93" y="405.32" width="4.52" height="4.87" style="fill:#ebebeb"></rect><rect x="196.95" y="405.32" width="4.53" height="4.87" style="fill:#ebebeb"></rect><rect x="204.97" y="405.32" width="4.52" height="4.87" style="fill:#ebebeb"></rect><rect x="213.54" y="297.33" width="28.69" height="112.86" style="fill:#dbdbdb"></rect><rect x="213.54" y="293.53" width="29.93" height="3.8" style="fill:#c7c7c7"></rect><rect x="217.58" y="302.94" width="4.53" height="107.25" style="fill:#c7c7c7"></rect><rect x="225.6" y="302.94" width="4.52" height="107.25" style="fill:#c7c7c7"></rect><rect x="233.62" y="302.94" width="4.53" height="107.25" style="fill:#c7c7c7"></rect><rect x="217.58" y="307.74" width="4.53" height="7.5" style="fill:#dbdbdb"></rect><rect x="225.6" y="307.74" width="4.53" height="7.5" style="fill:#dbdbdb"></rect><rect x="233.62" y="307.74" width="4.53" height="7.5" style="fill:#dbdbdb"></rect><rect x="217.58" y="319.94" width="4.53" height="7.51" style="fill:#dbdbdb"></rect><rect x="225.6" y="319.94" width="4.53" height="7.51" style="fill:#dbdbdb"></rect><rect x="233.62" y="319.94" width="4.53" height="7.51" style="fill:#dbdbdb"></rect><rect x="217.58" y="332.13" width="4.53" height="7.51" style="fill:#dbdbdb"></rect><rect x="225.6" y="332.13" width="4.53" height="7.51" style="fill:#dbdbdb"></rect><rect x="233.62" y="332.13" width="4.53" height="7.51" style="fill:#dbdbdb"></rect><rect x="217.58" y="344.33" width="4.53" height="7.51" style="fill:#dbdbdb"></rect><rect x="225.6" y="344.33" width="4.53" height="7.51" style="fill:#dbdbdb"></rect><rect x="233.62" y="344.33" width="4.53" height="7.51" style="fill:#dbdbdb"></rect><rect x="217.58" y="356.53" width="4.53" height="7.51" style="fill:#dbdbdb"></rect><rect x="225.6" y="356.53" width="4.53" height="7.51" style="fill:#dbdbdb"></rect><rect x="233.62" y="356.53" width="4.53" height="7.51" style="fill:#dbdbdb"></rect><rect x="217.58" y="368.73" width="4.53" height="7.5" style="fill:#dbdbdb"></rect><rect x="225.6" y="368.73" width="4.53" height="7.5" style="fill:#dbdbdb"></rect><rect x="233.62" y="368.73" width="4.53" height="7.5" style="fill:#dbdbdb"></rect><rect x="217.58" y="380.92" width="4.53" height="7.51" style="fill:#dbdbdb"></rect><rect x="225.6" y="380.92" width="4.53" height="7.51" style="fill:#dbdbdb"></rect><rect x="233.62" y="380.92" width="4.53" height="7.51" style="fill:#dbdbdb"></rect><rect x="217.58" y="393.12" width="4.53" height="7.51" style="fill:#dbdbdb"></rect><rect x="225.6" y="393.12" width="4.53" height="7.51" style="fill:#dbdbdb"></rect><rect x="233.62" y="393.12" width="4.53" height="7.51" style="fill:#dbdbdb"></rect><rect x="217.58" y="405.32" width="4.53" height="4.87" style="fill:#dbdbdb"></rect><rect x="225.6" y="405.32" width="4.52" height="4.87" style="fill:#dbdbdb"></rect><rect x="233.62" y="405.32" width="4.53" height="4.87" style="fill:#dbdbdb"></rect><rect x="357.44" y="278.7" width="18.83" height="22.25" style="fill:#dbdbdb"></rect><rect x="376.27" y="278.7" width="11.94" height="23.06" style="fill:#c7c7c7"></rect><rect x="377.16" y="288.53" width="11.85" height="13.24" style="fill:#dbdbdb"></rect><rect x="389.01" y="288.53" width="7.39" height="13.24" style="fill:#c7c7c7"></rect><rect x="350.21" y="299.5" width="30.46" height="110.69" style="fill:#ebebeb"></rect><rect x="353.69" y="304.26" width="9.58" height="3.91" style="fill:#fff"></rect><rect x="365.94" y="304.26" width="9.58" height="3.91" style="fill:#fff"></rect><rect x="353.69" y="310.91" width="9.58" height="3.91" style="fill:#fff"></rect><rect x="365.94" y="310.91" width="9.58" height="3.91" style="fill:#fff"></rect><rect x="353.69" y="317.55" width="9.58" height="3.91" style="fill:#fff"></rect><rect x="365.94" y="317.55" width="9.58" height="3.91" style="fill:#fff"></rect><rect x="353.69" y="324.19" width="9.58" height="3.91" style="fill:#fff"></rect><rect x="365.94" y="324.19" width="9.58" height="3.91" style="fill:#fff"></rect><rect x="353.69" y="330.84" width="9.58" height="3.91" style="fill:#fff"></rect><rect x="365.94" y="330.84" width="9.58" height="3.91" style="fill:#fff"></rect><rect x="353.69" y="337.48" width="9.58" height="3.91" style="fill:#fff"></rect><rect x="365.94" y="337.48" width="9.58" height="3.91" style="fill:#fff"></rect><rect x="353.69" y="344.12" width="9.58" height="3.91" style="fill:#fff"></rect><rect x="365.94" y="344.12" width="9.58" height="3.91" style="fill:#fff"></rect><rect x="353.69" y="350.77" width="9.58" height="3.91" style="fill:#fff"></rect><rect x="365.94" y="350.77" width="9.58" height="3.91" style="fill:#fff"></rect><rect x="353.69" y="357.41" width="9.58" height="3.91" style="fill:#fff"></rect><rect x="365.94" y="357.41" width="9.58" height="3.91" style="fill:#fff"></rect><rect x="353.69" y="364.06" width="9.58" height="3.91" style="fill:#fff"></rect><rect x="365.94" y="364.06" width="9.58" height="3.91" style="fill:#fff"></rect><rect x="353.69" y="370.7" width="9.58" height="3.91" style="fill:#fff"></rect><rect x="365.94" y="370.7" width="9.58" height="3.91" style="fill:#fff"></rect><rect x="353.69" y="377.34" width="9.58" height="3.91" style="fill:#fff"></rect><rect x="365.94" y="377.34" width="9.58" height="3.91" style="fill:#fff"></rect><rect x="353.69" y="383.99" width="9.58" height="3.91" style="fill:#fff"></rect><rect x="365.94" y="383.99" width="9.58" height="3.91" style="fill:#fff"></rect><rect x="353.69" y="390.63" width="9.58" height="3.91" style="fill:#fff"></rect><rect x="365.94" y="390.63" width="9.58" height="3.91" style="fill:#fff"></rect><rect x="380.67" y="299.5" width="24.68" height="110.69" style="fill:#c7c7c7"></rect><rect x="435.8" y="434.37" width="7.86" height="3.91" transform="translate(838.67 828.91) rotate(180)" style="fill:#ebebeb"></rect><rect x="425.74" y="434.37" width="7.86" height="3.91" transform="translate(818.55 828.91) rotate(180)" style="fill:#ebebeb"></rect><rect x="435.8" y="427.72" width="7.86" height="3.91" transform="translate(838.67 815.62) rotate(180)" style="fill:#ebebeb"></rect><rect x="425.74" y="427.72" width="7.86" height="3.91" transform="translate(818.55 815.62) rotate(180)" style="fill:#ebebeb"></rect><rect x="435.8" y="421.08" width="7.86" height="3.91" transform="translate(838.67 802.34) rotate(180)" style="fill:#ebebeb"></rect><rect x="425.74" y="421.08" width="7.86" height="3.91" transform="translate(818.55 802.34) rotate(180)" style="fill:#ebebeb"></rect><rect x="435.8" y="414.44" width="7.86" height="3.91" transform="translate(838.67 789.05) rotate(180)" style="fill:#ebebeb"></rect><rect x="425.74" y="414.44" width="7.86" height="3.91" transform="translate(818.55 789.05) rotate(180)" style="fill:#ebebeb"></rect><rect x="435.8" y="407.79" width="7.86" height="3.91" transform="translate(838.67 775.76) rotate(180)" style="fill:#ebebeb"></rect><rect x="425.74" y="407.79" width="7.86" height="3.91" transform="translate(818.55 775.76) rotate(180)" style="fill:#ebebeb"></rect><rect x="435.8" y="401.15" width="7.86" height="3.91" transform="translate(838.67 762.47) rotate(180)" style="fill:#ebebeb"></rect><rect x="425.74" y="401.15" width="7.86" height="3.91" transform="translate(818.55 762.47) rotate(180)" style="fill:#ebebeb"></rect><rect x="435.8" y="394.51" width="7.86" height="3.91" transform="translate(838.67 749.19) rotate(180)" style="fill:#ebebeb"></rect><rect x="425.74" y="394.51" width="7.86" height="3.91" transform="translate(818.55 749.19) rotate(180)" style="fill:#ebebeb"></rect><rect x="435.8" y="387.86" width="7.86" height="3.91" transform="translate(838.67 735.9) rotate(180)" style="fill:#ebebeb"></rect><rect x="425.74" y="387.86" width="7.86" height="3.91" transform="translate(818.55 735.9) rotate(180)" style="fill:#ebebeb"></rect><rect x="435.8" y="381.22" width="7.86" height="3.91" transform="translate(838.67 722.61) rotate(180)" style="fill:#ebebeb"></rect><rect x="425.74" y="381.22" width="7.86" height="3.91" transform="translate(818.55 722.61) rotate(180)" style="fill:#ebebeb"></rect><rect x="435.8" y="374.57" width="7.86" height="3.91" transform="translate(838.67 709.32) rotate(180)" style="fill:#ebebeb"></rect><rect x="425.74" y="374.57" width="7.86" height="3.91" transform="translate(818.55 709.32) rotate(180)" style="fill:#ebebeb"></rect><rect x="435.8" y="367.93" width="7.86" height="3.91" transform="translate(838.67 696.04) rotate(180)" style="fill:#ebebeb"></rect><rect x="425.74" y="367.93" width="7.86" height="3.91" transform="translate(818.55 696.04) rotate(180)" style="fill:#ebebeb"></rect><rect x="435.8" y="361.29" width="7.86" height="3.91" transform="translate(838.67 682.75) rotate(180)" style="fill:#ebebeb"></rect><rect x="425.74" y="361.29" width="7.86" height="3.91" transform="translate(818.55 682.75) rotate(180)" style="fill:#ebebeb"></rect><rect x="435.8" y="354.64" width="7.86" height="3.91" transform="translate(838.67 669.46) rotate(180)" style="fill:#ebebeb"></rect><rect x="425.74" y="354.64" width="7.86" height="3.91" transform="translate(818.55 669.46) rotate(180)" style="fill:#ebebeb"></rect><rect x="435.8" y="348" width="7.86" height="3.91" transform="translate(838.67 656.17) rotate(180)" style="fill:#ebebeb"></rect><rect x="425.74" y="348" width="7.86" height="3.91" transform="translate(818.55 656.17) rotate(180)" style="fill:#ebebeb"></rect><rect x="68.94" y="278.7" width="18.83" height="22.25" style="fill:#dbdbdb"></rect><rect x="87.78" y="278.7" width="11.94" height="23.06" style="fill:#c7c7c7"></rect><rect x="88.66" y="288.53" width="11.85" height="13.24" style="fill:#dbdbdb"></rect><rect x="100.51" y="288.53" width="7.39" height="13.24" style="fill:#c7c7c7"></rect><rect x="61.72" y="299.5" width="30.46" height="110.69" style="fill:#ebebeb"></rect><rect x="65.2" y="304.26" width="9.58" height="3.91" style="fill:#fff"></rect><rect x="77.45" y="304.26" width="9.58" height="3.91" style="fill:#fff"></rect><rect x="65.2" y="310.91" width="9.58" height="3.91" style="fill:#fff"></rect><rect x="77.45" y="310.91" width="9.58" height="3.91" style="fill:#fff"></rect><rect x="65.2" y="317.55" width="9.58" height="3.91" style="fill:#fff"></rect><rect x="77.45" y="317.55" width="9.58" height="3.91" style="fill:#fff"></rect><rect x="65.2" y="324.19" width="9.58" height="3.91" style="fill:#fff"></rect><rect x="77.45" y="324.19" width="9.58" height="3.91" style="fill:#fff"></rect><rect x="65.2" y="330.84" width="9.58" height="3.91" style="fill:#fff"></rect><rect x="77.45" y="330.84" width="9.58" height="3.91" style="fill:#fff"></rect><rect x="65.2" y="337.48" width="9.58" height="3.91" style="fill:#fff"></rect><rect x="77.45" y="337.48" width="9.58" height="3.91" style="fill:#fff"></rect><rect x="65.2" y="344.12" width="9.58" height="3.91" style="fill:#fff"></rect><rect x="77.45" y="344.12" width="9.58" height="3.91" style="fill:#fff"></rect><rect x="65.2" y="350.77" width="9.58" height="3.91" style="fill:#fff"></rect><rect x="77.45" y="350.77" width="9.58" height="3.91" style="fill:#fff"></rect><rect x="65.2" y="357.41" width="9.58" height="3.91" style="fill:#fff"></rect><rect x="77.45" y="357.41" width="9.58" height="3.91" style="fill:#fff"></rect><rect x="65.2" y="364.06" width="9.58" height="3.91" style="fill:#fff"></rect><rect x="77.45" y="364.06" width="9.58" height="3.91" style="fill:#fff"></rect><rect x="65.2" y="370.7" width="9.58" height="3.91" style="fill:#fff"></rect><rect x="77.45" y="370.7" width="9.58" height="3.91" style="fill:#fff"></rect><rect x="65.2" y="377.34" width="9.58" height="3.91" style="fill:#fff"></rect><rect x="77.45" y="377.34" width="9.58" height="3.91" style="fill:#fff"></rect><rect x="65.2" y="383.99" width="9.58" height="3.91" style="fill:#fff"></rect><rect x="77.45" y="383.99" width="9.58" height="3.91" style="fill:#fff"></rect><rect x="65.2" y="390.63" width="9.58" height="3.91" style="fill:#fff"></rect><rect x="77.45" y="390.63" width="9.58" height="3.91" style="fill:#fff"></rect><rect x="92.17" y="299.5" width="24.68" height="110.69" style="fill:#c7c7c7"></rect><rect x="147.31" y="434.37" width="7.86" height="3.91" transform="translate(261.69 828.91) rotate(180)" style="fill:#ebebeb"></rect><rect x="137.25" y="434.37" width="7.86" height="3.91" transform="translate(241.57 828.91) rotate(180)" style="fill:#ebebeb"></rect><rect x="147.31" y="427.72" width="7.86" height="3.91" transform="translate(261.69 815.62) rotate(180)" style="fill:#ebebeb"></rect><rect x="137.25" y="427.72" width="7.86" height="3.91" transform="translate(241.57 815.62) rotate(180)" style="fill:#ebebeb"></rect><rect x="147.31" y="421.08" width="7.86" height="3.91" transform="translate(261.69 802.34) rotate(180)" style="fill:#ebebeb"></rect><rect x="137.25" y="421.08" width="7.86" height="3.91" transform="translate(241.57 802.34) rotate(180)" style="fill:#ebebeb"></rect><rect x="147.31" y="414.44" width="7.86" height="3.91" transform="translate(261.69 789.05) rotate(180)" style="fill:#ebebeb"></rect><rect x="137.25" y="414.44" width="7.86" height="3.91" transform="translate(241.57 789.05) rotate(180)" style="fill:#ebebeb"></rect><rect x="147.31" y="407.79" width="7.86" height="3.91" transform="translate(261.69 775.76) rotate(180)" style="fill:#ebebeb"></rect><rect x="137.25" y="407.79" width="7.86" height="3.91" transform="translate(241.57 775.76) rotate(180)" style="fill:#ebebeb"></rect><rect x="147.31" y="401.15" width="7.86" height="3.91" transform="translate(261.69 762.47) rotate(180)" style="fill:#ebebeb"></rect><rect x="137.25" y="401.15" width="7.86" height="3.91" transform="translate(241.57 762.47) rotate(180)" style="fill:#ebebeb"></rect><rect x="147.31" y="394.51" width="7.86" height="3.91" transform="translate(261.69 749.19) rotate(180)" style="fill:#ebebeb"></rect><rect x="137.25" y="394.51" width="7.86" height="3.91" transform="translate(241.57 749.19) rotate(180)" style="fill:#ebebeb"></rect><rect x="147.31" y="387.86" width="7.86" height="3.91" transform="translate(261.69 735.9) rotate(180)" style="fill:#ebebeb"></rect><rect x="137.25" y="387.86" width="7.86" height="3.91" transform="translate(241.57 735.9) rotate(180)" style="fill:#ebebeb"></rect><rect x="147.31" y="381.22" width="7.86" height="3.91" transform="translate(261.69 722.61) rotate(180)" style="fill:#ebebeb"></rect><rect x="137.25" y="381.22" width="7.86" height="3.91" transform="translate(241.57 722.61) rotate(180)" style="fill:#ebebeb"></rect><rect x="147.31" y="374.57" width="7.86" height="3.91" transform="translate(261.69 709.32) rotate(180)" style="fill:#ebebeb"></rect><rect x="137.25" y="374.57" width="7.86" height="3.91" transform="translate(241.57 709.32) rotate(180)" style="fill:#ebebeb"></rect><rect x="147.31" y="367.93" width="7.86" height="3.91" transform="translate(261.69 696.04) rotate(180)" style="fill:#ebebeb"></rect><rect x="137.25" y="367.93" width="7.86" height="3.91" transform="translate(241.57 696.04) rotate(180)" style="fill:#ebebeb"></rect><rect x="147.31" y="361.29" width="7.86" height="3.91" transform="translate(261.69 682.75) rotate(180)" style="fill:#ebebeb"></rect><rect x="137.25" y="361.29" width="7.86" height="3.91" transform="translate(241.57 682.75) rotate(180)" style="fill:#ebebeb"></rect><rect x="147.31" y="354.64" width="7.86" height="3.91" transform="translate(261.69 669.46) rotate(180)" style="fill:#ebebeb"></rect><rect x="137.25" y="354.64" width="7.86" height="3.91" transform="translate(241.57 669.46) rotate(180)" style="fill:#ebebeb"></rect><rect x="147.31" y="348" width="7.86" height="3.91" transform="translate(261.69 656.17) rotate(180)" style="fill:#ebebeb"></rect><rect x="137.25" y="348" width="7.86" height="3.91" transform="translate(241.57 656.17) rotate(180)" style="fill:#ebebeb"></rect><rect x="234.74" y="338.07" width="35.92" height="72.12" style="fill:#c7c7c7"></rect><rect x="240.39" y="344.31" width="6.36" height="4.42" style="fill:#dbdbdb"></rect><rect x="240.39" y="353.75" width="6.36" height="4.42" style="fill:#dbdbdb"></rect><rect x="240.39" y="363.18" width="6.36" height="4.42" style="fill:#dbdbdb"></rect><rect x="240.39" y="372.62" width="6.36" height="4.42" style="fill:#dbdbdb"></rect><rect x="240.39" y="382.06" width="6.36" height="4.42" style="fill:#dbdbdb"></rect><rect x="240.39" y="391.5" width="6.36" height="4.42" style="fill:#dbdbdb"></rect><rect x="240.39" y="400.94" width="6.36" height="4.42" style="fill:#dbdbdb"></rect><rect x="249.53" y="344.31" width="6.36" height="4.42" style="fill:#dbdbdb"></rect><rect x="249.53" y="353.75" width="6.36" height="4.42" style="fill:#dbdbdb"></rect><rect x="249.53" y="363.18" width="6.36" height="4.42" style="fill:#dbdbdb"></rect><rect x="249.53" y="372.62" width="6.36" height="4.42" style="fill:#dbdbdb"></rect><rect x="249.53" y="382.06" width="6.36" height="4.42" style="fill:#dbdbdb"></rect><rect x="249.53" y="391.5" width="6.36" height="4.42" style="fill:#dbdbdb"></rect><rect x="249.53" y="400.94" width="6.36" height="4.42" style="fill:#dbdbdb"></rect><rect x="258.65" y="344.31" width="6.36" height="4.42" style="fill:#dbdbdb"></rect><rect x="258.65" y="353.75" width="6.36" height="4.42" style="fill:#dbdbdb"></rect><rect x="258.65" y="363.18" width="6.36" height="4.42" style="fill:#dbdbdb"></rect><rect x="258.65" y="372.62" width="6.36" height="4.42" style="fill:#dbdbdb"></rect><rect x="258.65" y="382.06" width="6.36" height="4.42" style="fill:#dbdbdb"></rect><rect x="258.65" y="391.5" width="6.36" height="4.42" style="fill:#dbdbdb"></rect><rect x="258.65" y="400.94" width="6.36" height="4.42" style="fill:#dbdbdb"></rect><rect x="246.74" y="330.55" width="23.92" height="7.51" style="fill:#dbdbdb"></rect><rect x="255.5" y="325.9" width="15.16" height="4.65" style="fill:#ebebeb"></rect><rect x="270.66" y="338.07" width="25.2" height="72.12" style="fill:#a6a6a6"></rect><rect x="328.9" y="443.97" width="5.17" height="4.42" transform="translate(622.18 848.62) rotate(180)" style="fill:#c7c7c7"></rect><rect x="328.9" y="434.53" width="5.17" height="4.42" transform="translate(622.18 829.75) rotate(180)" style="fill:#c7c7c7"></rect><rect x="328.9" y="425.09" width="5.17" height="4.42" transform="translate(622.18 810.87) rotate(180)" style="fill:#c7c7c7"></rect><rect x="328.9" y="415.66" width="5.17" height="4.42" transform="translate(622.18 791.99) rotate(180)" style="fill:#c7c7c7"></rect><rect x="328.9" y="406.22" width="5.17" height="4.42" transform="translate(622.18 773.12) rotate(180)" style="fill:#c7c7c7"></rect><rect x="328.9" y="396.78" width="5.17" height="4.42" transform="translate(622.18 754.24) rotate(180)" style="fill:#c7c7c7"></rect><rect x="328.9" y="387.34" width="5.17" height="4.42" transform="translate(622.18 735.36) rotate(180)" style="fill:#c7c7c7"></rect><rect x="321.46" y="443.97" width="5.17" height="4.42" transform="translate(607.3 848.62) rotate(180)" style="fill:#c7c7c7"></rect><rect x="321.46" y="434.53" width="5.17" height="4.42" transform="translate(607.3 829.75) rotate(180)" style="fill:#c7c7c7"></rect><rect x="321.46" y="425.09" width="5.17" height="4.42" transform="translate(607.3 810.87) rotate(180)" style="fill:#c7c7c7"></rect><rect x="321.46" y="415.66" width="5.17" height="4.42" transform="translate(607.3 791.99) rotate(180)" style="fill:#c7c7c7"></rect><rect x="321.46" y="406.22" width="5.17" height="4.42" transform="translate(607.3 773.12) rotate(180)" style="fill:#c7c7c7"></rect><rect x="321.46" y="396.78" width="5.17" height="4.42" transform="translate(607.3 754.24) rotate(180)" style="fill:#c7c7c7"></rect><rect x="321.46" y="387.34" width="5.17" height="4.42" transform="translate(607.3 735.36) rotate(180)" style="fill:#c7c7c7"></rect><rect x="314.03" y="443.97" width="5.17" height="4.42" transform="translate(592.45 848.62) rotate(180)" style="fill:#c7c7c7"></rect><rect x="314.03" y="434.53" width="5.17" height="4.42" transform="translate(592.45 829.75) rotate(180)" style="fill:#c7c7c7"></rect><rect x="314.03" y="425.09" width="5.17" height="4.42" transform="translate(592.45 810.87) rotate(180)" style="fill:#c7c7c7"></rect><rect x="314.03" y="415.66" width="5.17" height="4.42" transform="translate(592.45 791.99) rotate(180)" style="fill:#c7c7c7"></rect><rect x="314.03" y="406.22" width="5.17" height="4.42" transform="translate(592.45 773.12) rotate(180)" style="fill:#c7c7c7"></rect><rect x="314.03" y="396.78" width="5.17" height="4.42" transform="translate(592.45 754.24) rotate(180)" style="fill:#c7c7c7"></rect><rect x="314.03" y="387.34" width="5.17" height="4.42" transform="translate(592.45 735.36) rotate(180)" style="fill:#c7c7c7"></rect><rect x="270.66" y="330.55" width="21.39" height="7.51" style="fill:#c7c7c7"></rect><rect x="270.66" y="325.9" width="11.59" height="4.65" style="fill:#dbdbdb"></rect></g><g id="freepik--Obstacle--inject-837"><rect x="249.76" y="292.29" width="93.35" height="117.9" style="fill:#455a64"></rect><rect x="383.9" y="336.03" width="35.97" height="117.9" transform="translate(762.99 746.22) rotate(180)" style="fill:#37474f"></rect></g><g id="freepik--Floor--inject-837"><path d="M34.46,477.44" transform="translate(-40.79 -43.74)" style="fill:none"></path><path d="M40.79,459.9c134-.62,284.39-.62,418.42,0-134,.61-284.39.61-418.42,0Z" transform="translate(-40.79 -43.74)" style="fill:#263238"></path><rect x="5.88" y="410.19" width="406.67" height="5.9" style="fill:#c7c7c7"></rect><path d="M75.18,453.92a8.48,8.48,0,0,1,.48,2.95,8.19,8.19,0,0,1-.48,2.95,8.2,8.2,0,0,1-.49-2.95A8.5,8.5,0,0,1,75.18,453.92Z" transform="translate(-40.79 -43.74)" style="fill:#263238"></path><path d="M107,453.92a8.5,8.5,0,0,1,.49,2.95,8.2,8.2,0,0,1-.49,2.95,8.19,8.19,0,0,1-.48-2.95A8.48,8.48,0,0,1,107,453.92Z" transform="translate(-40.79 -43.74)" style="fill:#263238"></path><path d="M138.75,453.92a9.31,9.31,0,0,1,0,5.9,9.31,9.31,0,0,1,0-5.9Z" transform="translate(-40.79 -43.74)" style="fill:#263238"></path><path d="M170.54,453.92a9.31,9.31,0,0,1,0,5.9,9.13,9.13,0,0,1,0-5.9Z" transform="translate(-40.79 -43.74)" style="fill:#263238"></path><path d="M202.32,453.92a9.31,9.31,0,0,1,0,5.9,9.31,9.31,0,0,1,0-5.9Z" transform="translate(-40.79 -43.74)" style="fill:#263238"></path><path d="M234.11,453.92a8.48,8.48,0,0,1,.48,2.95,8.19,8.19,0,0,1-.48,2.95,8.2,8.2,0,0,1-.49-2.95A8.5,8.5,0,0,1,234.11,453.92Z" transform="translate(-40.79 -43.74)" style="fill:#263238"></path><path d="M265.89,453.92a8.5,8.5,0,0,1,.49,2.95,8.2,8.2,0,0,1-.49,2.95,8.19,8.19,0,0,1-.48-2.95A8.48,8.48,0,0,1,265.89,453.92Z" transform="translate(-40.79 -43.74)" style="fill:#263238"></path><path d="M297.68,453.92a9.31,9.31,0,0,1,0,5.9,9.31,9.31,0,0,1,0-5.9Z" transform="translate(-40.79 -43.74)" style="fill:#263238"></path><path d="M329.46,453.92a9.13,9.13,0,0,1,0,5.9,9.31,9.31,0,0,1,0-5.9Z" transform="translate(-40.79 -43.74)" style="fill:#263238"></path><path d="M361.25,453.92a9.31,9.31,0,0,1,0,5.9,9.31,9.31,0,0,1,0-5.9Z" transform="translate(-40.79 -43.74)" style="fill:#263238"></path><path d="M393,453.92a8.48,8.48,0,0,1,.48,2.95,8.19,8.19,0,0,1-.48,2.95,8.2,8.2,0,0,1-.49-2.95A8.5,8.5,0,0,1,393,453.92Z" transform="translate(-40.79 -43.74)" style="fill:#263238"></path><path d="M424.82,453.92a8.5,8.5,0,0,1,.49,2.95,8.2,8.2,0,0,1-.49,2.95,8.19,8.19,0,0,1-.48-2.95A8.48,8.48,0,0,1,424.82,453.92Z" transform="translate(-40.79 -43.74)" style="fill:#263238"></path></g><g id="freepik--Character--inject-837"><polygon points="207.44 276.81 212.25 278 197.61 290.85 192.79 289.66 207.44 276.81" style="fill:#a6a6a6"></polygon><rect x="238.71" y="317.79" width="21.92" height="6.36" transform="translate(4.38 -74.25) rotate(7.69)" style="fill:#263238"></rect><path d="M263.83,318.35c-2,1.22-55,10.46-57.68,9.45-1.05-.36-4.79-6.09-7.52-17.12l-.08-.34c-.57-2.27-9.27-36.33-9.27-36.33l40-10.31,9.79,37.42.13.69s26.42,5.58,29.3,7S265.87,317.15,263.83,318.35Z" transform="translate(-40.79 -43.74)" style="fill:#ebebeb"></path><path d="M274.32,313.1c-2.07,1.38-67.76,19.13-70.67,18.21-1.11-.33-6-22.1-6.07-22.22l40.78-11.32.17.72s28,4.53,31,5.88S276.4,311.74,274.32,313.1Z" transform="translate(-40.79 -43.74)" style="fill:#37474f"></path><path d="M272.91,310.77c-11.08,2.65-55.5,14.4-66.24,17.87-.09,0-.07.09,0,.07C217.72,326.32,262,314.2,273,311,273.19,310.88,273.14,310.71,272.91,310.77Z" transform="translate(-40.79 -43.74)" style="fill:#fff"></path><path d="M242.1,297.67c-4.54.35-9.66,2.42-12.15,6.38-.09.16.13.29.25.21a63.59,63.59,0,0,1,12-6A.29.29,0,0,0,242.1,297.67Z" transform="translate(-40.79 -43.74)" style="fill:#fff"></path><path d="M245.73,298.73c-4.54.34-9.66,2.41-12.15,6.38-.1.15.12.28.25.2a63,63,0,0,1,12-6A.29.29,0,0,0,245.73,298.73Z" transform="translate(-40.79 -43.74)" style="fill:#fff"></path><path d="M249.36,299.78c-4.55.34-9.67,2.41-12.16,6.38-.09.15.13.29.26.21a62.42,62.42,0,0,1,12-6A.29.29,0,0,0,249.36,299.78Z" transform="translate(-40.79 -43.74)" style="fill:#fff"></path><path d="M274.7,310.5c1.28.14,2.07,4.13,1.31,4.67s-72,19.14-73.29,19.19-2-4.41-.65-5S274.7,310.5,274.7,310.5Z" transform="translate(-40.79 -43.74)" style="fill:#ECEFF1"></path><path d="M209.09,313.88c-5.36-1.11-7.09,7.22-1.72,8.33S214.46,315,209.09,313.88Z" transform="translate(-40.79 -43.74)" style="fill:#fff"></path><path d="M171.65,131s.51,7.45,3.34,12.56c7.64,13.83,34.33,52.06,35.57,56,5,15.94,24.16,84.91,24.16,84.91L194.56,294.7s-21.63-81-22.62-83.71c-5.47-15.07-29.81-45.91-35-58-8.7-20.15-.16-32-.16-32Z" transform="translate(-40.79 -43.74)" style="fill:#ad6359"></path><path d="M136.74,120.94,171.65,131A39.28,39.28,0,0,0,175.12,143c4,7.65,33.15,41.57,33.82,43.48.95,2.74-.82,6-.82,6L169.63,205s-4-1.51-5.33-3.56-31.06-44.69-32.14-58.61S136.74,120.94,136.74,120.94Z" transform="translate(-40.79 -43.74)" style="fill:#ECEFF1"></path><path d="M136.74,120.94,171.65,131A39.28,39.28,0,0,0,175.12,143c4,7.65,33.15,41.57,33.82,43.48.95,2.74-.82,6-.82,6L169.63,205s-4-1.51-5.33-3.56-31.06-44.69-32.14-58.61S136.74,120.94,136.74,120.94Z" transform="translate(-40.79 -43.74)" style="opacity:0.4"></path><path d="M260.23,204l-.91.05c0-.22-1.05-22-1.19-23.74-.14-1.53-4.39-9-6.72-10.33-1.68-1-14.27-1.28-22.32-1.23v-.9c2.07,0,20.34-.08,22.78,1.35s7,9.09,7.16,11C259.17,182,260.18,203.14,260.23,204Z" transform="translate(-40.79 -43.74)" style="fill:#263238"></path><path d="M256.05,200.5l-.66-.61c.14-.16,14.64-16,16.19-26.87.22-1.55-2.12-5.59-4.35-6.9-1.7-1-22.11-3.08-35.41-4.24l.07-.9c3.41.29,33.38,2.94,35.8,4.36s5.08,5.78,4.79,7.8C270.89,184.31,256.66,199.84,256.05,200.5Z" transform="translate(-40.79 -43.74)" style="fill:#263238"></path><rect x="161.37" y="332.42" width="0.83" height="114.74" transform="translate(-299.79 313.69) rotate(-63.06)" style="fill:#c7c7c7"></rect><rect x="164.44" y="322.48" width="0.83" height="113.93" transform="translate(-288.63 364.66) rotate(-70.53)" style="fill:#c7c7c7"></rect><rect x="172.46" y="326.11" width="0.83" height="112.63" transform="translate(-122.38 4.95) rotate(-13)" style="fill:#c7c7c7"></rect><rect x="160.19" y="326.47" width="0.83" height="119.09" transform="translate(-176.5 47.32) rotate(-22.54)" style="fill:#c7c7c7"></rect><rect x="112.9" y="387.24" width="114.79" height="0.83" transform="translate(-287.04 268) rotate(-55.96)" style="fill:#c7c7c7"></rect><rect x="101.56" y="379.06" width="116.16" height="0.83" transform="translate(-176.51 48.94) rotate(-23.03)" style="fill:#c7c7c7"></rect><rect x="106.74" y="391.43" width="118.76" height="0.83" transform="translate(-180.24 51.86) rotate(-22.91)" style="fill:#c7c7c7"></rect><rect x="101.46" y="383.54" width="116.54" height="0.83" transform="translate(-289.46 418.65) rotate(-78.28)" style="fill:#c7c7c7"></rect><path d="M205.08,440A68.6,68.6,0,1,0,109.21,425,68.69,68.69,0,0,0,205.08,440Zm-74-101.2A56.74,56.74,0,1,1,118.8,418,56.82,56.82,0,0,1,131.13,338.75Z" transform="translate(-40.79 -43.74)" style="fill:#263238"></path><rect x="106.9" y="423.85" width="4" height="1.95" rx="0.93" transform="translate(-212.4 718.21) rotate(-125.86)" style="fill:#263238"></rect><rect x="114.74" y="432.91" width="4" height="1.95" rx="0.93" transform="translate(-142.45 782.82) rotate(-135.86)" style="fill:#263238"></rect><rect x="124.03" y="440.47" width="4" height="1.95" rx="0.93" transform="translate(-58.18 833.82) rotate(-145.86)" style="fill:#263238"></rect><rect x="134.5" y="446.31" width="4" height="1.95" rx="0.93" transform="translate(37.34 867.54) rotate(-155.86)" style="fill:#263238"></rect><rect x="145.82" y="450.24" width="4" height="1.95" rx="0.93" transform="translate(140.15 881.13) rotate(-165.86)" style="fill:#263238"></rect><rect x="157.65" y="452.14" width="4" height="1.95" rx="0.93" transform="translate(245.38 872.83) rotate(-175.86)" style="fill:#263238"></rect><rect x="169.63" y="451.96" width="4" height="1.95" rx="0.93" transform="translate(347.82 842.24) rotate(174.14)" style="fill:#263238"></rect><rect x="181.39" y="449.7" width="4" height="1.95" rx="0.93" transform="translate(442.19 790.33) rotate(164.14)" style="fill:#263238"></rect><rect x="192.59" y="445.44" width="4" height="1.95" rx="0.93" transform="translate(523.62 719.5) rotate(154.14)" style="fill:#263238"></rect><rect x="202.87" y="439.29" width="4" height="1.95" rx="0.93" transform="translate(588.04 633.32) rotate(144.14)" style="fill:#263238"></rect><rect x="211.94" y="431.45" width="4" height="1.95" rx="0.93" transform="translate(632.46 536.32) rotate(134.14)" style="fill:#263238"></rect><rect x="219.5" y="422.16" width="4" height="1.95" rx="0.93" transform="translate(655.23 433.54) rotate(124.14)" style="fill:#263238"></rect><rect x="225.33" y="411.69" width="4" height="1.95" rx="0.93" transform="translate(656.1 330.25) rotate(114.14)" style="fill:#263238"></rect><rect x="229.26" y="400.37" width="4" height="1.95" rx="0.93" transform="translate(636.15 231.39) rotate(104.14)" style="fill:#263238"></rect><rect x="231.17" y="388.54" width="4" height="1.95" rx="0.93" transform="translate(597.71 141.34) rotate(94.14)" style="fill:#263238"></rect><rect x="230.99" y="376.56" width="4" height="1.95" rx="0.93" transform="translate(543.97 63.48) rotate(84.14)" style="fill:#263238"></rect><rect x="228.73" y="364.8" width="4" height="1.95" rx="0.93" transform="matrix(0.27, 0.96, -0.96, 0.27, 478.73, 0.13)" style="fill:#263238"></rect><rect x="224.46" y="353.6" width="4" height="1.95" rx="0.93" transform="translate(405.96 -47.61) rotate(64.14)" style="fill:#263238"></rect><rect x="218.32" y="343.32" width="4" height="1.95" rx="0.93" transform="translate(329.5 -79.69) rotate(54.14)" style="fill:#263238"></rect><rect x="210.48" y="334.25" width="4" height="1.95" rx="0.93" transform="translate(252.66 -97.06) rotate(44.14)" style="fill:#263238"></rect><rect x="201.19" y="326.69" width="4" height="1.95" rx="0.93" transform="translate(178.12 -101.3) rotate(34.14)" style="fill:#263238"></rect><rect x="190.72" y="320.86" width="4" height="1.95" rx="0.93" transform="translate(107.68 -94.41) rotate(24.14)" style="fill:#263238"></rect><rect x="179.4" y="316.93" width="4" height="1.95" rx="0.93" transform="translate(42.36 -78.42) rotate(14.14)" style="fill:#263238"></rect><rect x="167.57" y="315.02" width="4" height="1.95" rx="0.93" transform="translate(-17.54 -55.15) rotate(4.14)" style="fill:#263238"></rect><rect x="155.59" y="315.2" width="4" height="1.95" rx="0.93" transform="translate(-72.26 -25.99) rotate(-5.86)" style="fill:#263238"></rect><rect x="143.82" y="317.46" width="4" height="1.95" rx="0.93" transform="translate(-122.26 8.23) rotate(-15.86)" style="fill:#263238"></rect><rect x="132.63" y="321.73" width="4" height="1.95" rx="0.93" transform="translate(-168.07 47.3) rotate(-25.86)" style="fill:#263238"></rect><rect x="122.34" y="327.87" width="4" height="1.95" rx="0.93" transform="translate(-209.86 91.43) rotate(-35.86)" style="fill:#263238"></rect><rect x="113.28" y="335.71" width="4" height="1.95" rx="0.93" transform="translate(-247.42 141.21) rotate(-45.86)" style="fill:#263238"></rect><rect x="105.72" y="345" width="4" height="1.95" rx="0.93" transform="translate(-279.89 197.23) rotate(-55.86)" style="fill:#263238"></rect><rect x="99.88" y="355.47" width="4" height="1.95" rx="0.93" transform="translate(-305.85 259.91) rotate(-65.86)" style="fill:#263238"></rect><rect x="95.95" y="366.79" width="4" height="1.95" rx="0.93" transform="translate(-323.39 329.18) rotate(-75.86)" style="fill:#263238"></rect><rect x="94.05" y="378.62" width="4" height="1.95" rx="0.93" transform="translate(-330.28 404.26) rotate(-85.86)" style="fill:#263238"></rect><rect x="94.23" y="390.6" width="4" height="1.95" rx="0.93" transform="matrix(-0.1, -0.99, 0.99, -0.1, -324.26, 483.55)" style="fill:#263238"></rect><rect x="96.49" y="402.37" width="4" height="1.95" rx="0.93" transform="matrix(-0.27, -0.96, 0.96, -0.27, -303.37, 564.59)" style="fill:#263238"></rect><rect x="100.75" y="413.56" width="4" height="1.95" rx="0.93" transform="translate(-266.24 644.08) rotate(-115.86)" style="fill:#263238"></rect><rect x="103.51" y="418.69" width="4" height="1.95" rx="0.93" transform="translate(-242.17 681) rotate(-120.72)" style="fill:#263238"></rect><rect x="110.51" y="428.42" width="4" height="1.95" rx="0.93" transform="translate(-180.34 751.04) rotate(-130.72)" style="fill:#263238"></rect><rect x="119.09" y="436.78" width="4" height="1.95" rx="0.93" transform="translate(-103.15 809.53) rotate(-140.72)" style="fill:#263238"></rect><rect x="128.99" y="443.53" width="4" height="1.95" rx="0.93" transform="translate(-12.99 852.55) rotate(-150.72)" style="fill:#263238"></rect><rect x="139.91" y="448.46" width="4" height="1.95" rx="0.93" transform="translate(86.63 876.79) rotate(-160.72)" style="fill:#263238"></rect><rect x="151.52" y="451.42" width="4" height="1.95" rx="0.93" transform="translate(191.27 879.89) rotate(-170.72)" style="fill:#263238"></rect><rect x="163.47" y="452.31" width="4" height="1.95" rx="0.93" transform="matrix(-1, 0.01, -0.01, -1, 295.79, 860.74)" style="fill:#263238"></rect><rect x="175.39" y="451.12" width="4" height="1.95" rx="0.93" transform="translate(394.96 819.59) rotate(169.28)" style="fill:#263238"></rect><rect x="186.92" y="447.87" width="4" height="1.95" rx="0.93" transform="translate(483.61 758.12) rotate(159.28)" style="fill:#263238"></rect><rect x="197.72" y="442.68" width="4" height="1.95" rx="0.93" transform="matrix(-0.86, 0.51, -0.51, -0.86, 557.23, 679.32)" style="fill:#263238"></rect><rect x="207.45" y="435.68" width="4" height="1.95" rx="0.93" transform="translate(612.25 587.25) rotate(139.28)" style="fill:#263238"></rect><rect x="215.81" y="427.1" width="4" height="1.95" rx="0.93" transform="translate(646.27 486.79) rotate(129.28)" style="fill:#263238"></rect><rect x="222.56" y="417.2" width="4" height="1.95" rx="0.93" transform="translate(658.35 383.14) rotate(119.28)" style="fill:#263238"></rect><rect x="227.49" y="406.28" width="4" height="1.95" rx="0.93" transform="translate(648.89 281.41) rotate(109.28)" style="fill:#263238"></rect><rect x="230.44" y="394.67" width="4" height="1.95" rx="0.93" transform="translate(619.62 186.34) rotate(99.28)" style="fill:#263238"></rect><rect x="231.34" y="382.72" width="4" height="1.95" rx="0.93" transform="translate(573.3 101.85) rotate(89.28)" style="fill:#263238"></rect><rect x="230.15" y="370.8" width="4" height="1.95" rx="0.93" transform="translate(513.48 30.81) rotate(79.28)" style="fill:#263238"></rect><rect x="226.9" y="359.27" width="4" height="1.95" rx="0.93" transform="matrix(0.35, 0.94, -0.94, 0.35, 444.09, -25.03)" style="fill:#263238"></rect><rect x="221.7" y="348.47" width="4" height="1.95" rx="0.93" transform="translate(369.07 -65.1) rotate(59.28)" style="fill:#263238"></rect><rect x="214.71" y="338.74" width="4" height="1.95" rx="0.93" transform="translate(292.06 -89.87) rotate(49.29)" style="fill:#263238"></rect><rect x="206.13" y="330.38" width="4" height="1.95" rx="0.93" transform="translate(216.05 -100.64) rotate(39.29)" style="fill:#263238"></rect><rect x="196.23" y="323.63" width="4" height="1.95" rx="0.93" transform="translate(143.32 -99.22) rotate(29.28)" style="fill:#263238"></rect><rect x="185.31" y="318.7" width="4" height="1.95" rx="0.93" transform="translate(75.29 -87.66) rotate(19.28)" style="fill:#263238"></rect><rect x="173.7" y="315.74" width="4" height="1.95" rx="0.93" transform="translate(12.61 -67.93) rotate(9.28)" style="fill:#263238"></rect><rect x="161.75" y="314.85" width="4" height="1.95" rx="0.93" transform="translate(-44.73 -41.67) rotate(-0.72)" style="fill:#263238"></rect><rect x="149.83" y="316.04" width="4" height="1.95" rx="0.93" transform="translate(-97.09 -9.98) rotate(-10.72)" style="fill:#263238"></rect><rect x="138.29" y="319.29" width="4" height="1.95" rx="0.93" transform="translate(-145.01 26.59) rotate(-20.72)" style="fill:#263238"></rect><rect x="127.5" y="324.49" width="4" height="1.95" rx="0.93" transform="translate(-188.87 68.08) rotate(-30.72)" style="fill:#263238"></rect><rect x="117.77" y="331.48" width="4" height="1.95" rx="0.93" transform="translate(-228.67 114.86) rotate(-40.72)" style="fill:#263238"></rect><rect x="109.41" y="340.06" width="4" height="1.95" rx="0.93" transform="translate(-263.9 167.6) rotate(-50.72)" style="fill:#263238"></rect><rect x="102.66" y="349.96" width="4" height="1.95" rx="0.93" transform="translate(-293.42 226.82) rotate(-60.72)" style="fill:#263238"></rect><rect x="97.73" y="360.88" width="4" height="1.95" rx="0.93" transform="translate(-315.55 292.75) rotate(-70.72)" style="fill:#263238"></rect><rect x="94.77" y="372.49" width="4" height="1.95" rx="0.93" transform="translate(-328.21 364.98) rotate(-80.72)" style="fill:#263238"></rect><rect x="93.88" y="384.44" width="4" height="1.95" rx="0.93" transform="translate(-329.1 442.36) rotate(-90.72)" style="fill:#263238"></rect><rect x="95.07" y="396.36" width="4" height="1.95" rx="0.93" transform="translate(-316.08 522.86) rotate(-100.72)" style="fill:#263238"></rect><rect x="98.31" y="407.9" width="4" height="1.95" rx="0.93" transform="translate(-287.43 603.59) rotate(-110.72)" style="fill:#263238"></rect><rect x="332.16" y="207.57" width="0.83" height="114.74" transform="translate(-95.08 397.66) rotate(-63.06)" style="fill:#c7c7c7"></rect><rect x="335.23" y="197.64" width="0.83" height="113.93" transform="translate(-57.07 442.45) rotate(-70.53)" style="fill:#c7c7c7"></rect><rect x="343.25" y="201.26" width="0.83" height="112.63" transform="translate(-89.92 40.16) rotate(-13)" style="fill:#c7c7c7"></rect><rect x="330.98" y="201.63" width="0.83" height="119.09" transform="translate(-115.61 103.3) rotate(-22.55)" style="fill:#c7c7c7"></rect><rect x="283.68" y="262.39" width="114.79" height="0.83" transform="translate(-108.42 354.56) rotate(-55.96)" style="fill:#c7c7c7"></rect><rect x="272.34" y="254.22" width="116.16" height="0.83" transform="translate(-114.07 105.8) rotate(-23.03)" style="fill:#c7c7c7"></rect><rect x="277.52" y="266.59" width="118.76" height="0.83" transform="translate(-118.16 108.5) rotate(-22.91)" style="fill:#c7c7c7"></rect><rect x="272.24" y="258.7" width="116.54" height="0.83" transform="translate(-31.11 486.39) rotate(-78.28)" style="fill:#c7c7c7"></rect><path d="M375.87,315.11A68.61,68.61,0,1,0,280,300.19,68.7,68.7,0,0,0,375.87,315.11Zm-73.95-101.2a56.73,56.73,0,1,1-12.34,79.28A56.8,56.8,0,0,1,301.92,213.91Z" transform="translate(-40.79 -43.74)" style="fill:#263238"></path><rect x="277.69" y="299.01" width="4" height="1.95" rx="0.93" transform="translate(159.61 658.65) rotate(-125.86)" style="fill:#263238"></rect><rect x="285.52" y="308.07" width="4" height="1.95" rx="0.93" transform="translate(237.85 687.32) rotate(-135.86)" style="fill:#263238"></rect><rect x="294.82" y="315.63" width="4" height="1.95" rx="0.93" transform="translate(324 701.49) rotate(-145.86)" style="fill:#263238"></rect><rect x="305.28" y="321.46" width="4" height="1.95" rx="0.93" transform="translate(415.03 698.62) rotate(-155.86)" style="fill:#263238"></rect><rect x="316.6" y="325.39" width="4" height="1.95" rx="0.93" transform="translate(507.04 676.94) rotate(-165.86)" style="fill:#263238"></rect><rect x="328.43" y="327.3" width="4" height="1.95" rx="0.93" transform="translate(595.52 635.8) rotate(-175.86)" style="fill:#263238"></rect><rect x="340.41" y="327.12" width="4" height="1.95" rx="0.93" transform="translate(675.74 575.77) rotate(174.14)" style="fill:#263238"></rect><rect x="352.18" y="324.86" width="4" height="1.95" rx="0.93" transform="translate(743.14 498.72) rotate(164.14)" style="fill:#263238"></rect><rect x="363.38" y="320.59" width="4" height="1.95" rx="0.93" transform="translate(793.63 407.83) rotate(154.14)" style="fill:#263238"></rect><rect x="373.66" y="314.45" width="4" height="1.95" rx="0.93" transform="translate(824.1 307.26) rotate(144.14)" style="fill:#263238"></rect><rect x="382.72" y="306.61" width="4" height="1.95" rx="0.93" transform="translate(832.59 201.97) rotate(134.14)" style="fill:#263238"></rect><rect x="390.29" y="297.32" width="4" height="1.95" rx="0.93" transform="translate(818.54 97.28) rotate(124.14)" style="fill:#263238"></rect><rect x="396.12" y="286.85" width="4" height="1.95" rx="0.93" transform="translate(782.8 -1.5) rotate(114.14)" style="fill:#263238"></rect><rect x="400.05" y="275.53" width="4" height="1.95" rx="0.93" transform="translate(727.59 -89.56) rotate(104.14)" style="fill:#263238"></rect><rect x="401.95" y="263.7" width="4" height="1.95" rx="0.93" transform="translate(656.3 -162.86) rotate(94.14)" style="fill:#263238"></rect><rect x="401.77" y="251.72" width="4" height="1.95" rx="0.93" transform="translate(573.12 -218.51) rotate(84.14)" style="fill:#263238"></rect><rect x="399.51" y="239.95" width="4" height="1.95" rx="0.93" transform="translate(482.74 -254.88) rotate(74.14)" style="fill:#263238"></rect><rect x="395.25" y="228.76" width="4" height="1.95" rx="0.93" transform="translate(389.91 -271.68) rotate(64.14)" style="fill:#263238"></rect><rect x="389.1" y="218.47" width="4" height="1.95" rx="0.93" transform="translate(299.06 -269.81) rotate(54.14)" style="fill:#263238"></rect><rect x="381.26" y="209.41" width="4" height="1.95" rx="0.93" transform="translate(213.95 -251.24) rotate(44.14)" style="fill:#263238"></rect><rect x="371.97" y="201.85" width="4" height="1.95" rx="0.93" transform="translate(137.49 -218.66) rotate(34.14)" style="fill:#263238"></rect><rect x="361.51" y="196.01" width="4" height="1.95" rx="0.93" transform="translate(71.56 -175.17) rotate(24.14)" style="fill:#263238"></rect><rect x="350.19" y="192.08" width="4" height="1.95" rx="0.93" transform="translate(17.03 -123.92) rotate(14.14)" style="fill:#263238"></rect><rect x="338.36" y="190.18" width="4" height="1.95" rx="0.93" transform="translate(-26.11 -67.8) rotate(4.14)" style="fill:#263238"></rect><rect x="326.38" y="190.36" width="4" height="1.95" rx="0.93" transform="translate(-58.61 -9.2) rotate(-5.86)" style="fill:#263238"></rect><rect x="314.61" y="192.62" width="4" height="1.95" rx="0.93" transform="translate(-81.65 50.17) rotate(-15.86)" style="fill:#263238"></rect><rect x="303.41" y="196.88" width="4" height="1.95" rx="0.93" transform="translate(-96.51 109.29) rotate(-25.86)" style="fill:#263238"></rect><rect x="293.13" y="203.03" width="4" height="1.95" rx="0.93" transform="matrix(0.81, -0.59, 0.59, 0.81, -104.36, 167.81)" style="fill:#263238"></rect><rect x="284.07" y="210.87" width="4" height="1.95" rx="0.93" transform="translate(-105.98 225.86) rotate(-45.86)" style="fill:#263238"></rect><rect x="276.5" y="220.16" width="4" height="1.95" rx="0.93" transform="translate(-101.62 283.8) rotate(-55.86)" style="fill:#263238"></rect><rect x="270.67" y="230.63" width="4" height="1.95" rx="0.93" transform="translate(-90.99 341.97) rotate(-65.86)" style="fill:#263238"></rect><rect x="266.74" y="241.95" width="4" height="1.95" rx="0.93" transform="translate(-73.26 400.45) rotate(-75.86)" style="fill:#263238"></rect><rect x="264.84" y="253.78" width="4" height="1.95" rx="0.93" transform="translate(-47.3 458.77) rotate(-85.86)" style="fill:#263238"></rect><rect x="265.02" y="265.76" width="4" height="1.95" rx="0.93" transform="translate(-11.85 515.85) rotate(-95.86)" style="fill:#263238"></rect><rect x="267.27" y="277.52" width="4" height="1.95" rx="0.93" transform="translate(34.17 569.89) rotate(-105.86)" style="fill:#263238"></rect><rect x="271.54" y="288.72" width="4" height="1.95" rx="0.93" transform="translate(91.38 618.47) rotate(-115.86)" style="fill:#263238"></rect><rect x="274.3" y="293.85" width="4" height="1.95" rx="0.93" transform="translate(123.19 639.22) rotate(-120.72)" style="fill:#263238"></rect><rect x="281.29" y="303.58" width="4" height="1.95" rx="0.93" transform="translate(196.46 674.2) rotate(-130.72)" style="fill:#263238"></rect><rect x="289.87" y="311.94" width="4" height="1.95" rx="0.93" transform="translate(278.87 696.19) rotate(-140.72)" style="fill:#263238"></rect><rect x="299.77" y="318.69" width="4" height="1.95" rx="0.93" transform="translate(367.82 702.35) rotate(-150.72)" style="fill:#263238"></rect><rect x="310.69" y="323.62" width="4" height="1.95" rx="0.93" transform="translate(459.85 690.51) rotate(-160.72)" style="fill:#263238"></rect><rect x="322.3" y="326.58" width="4" height="1.95" rx="0.93" transform="translate(550.72 659.4) rotate(-170.72)" style="fill:#263238"></rect><rect x="334.25" y="327.47" width="4" height="1.95" rx="0.93" transform="translate(635.79 608.93) rotate(179.28)" style="fill:#263238"></rect><rect x="346.17" y="326.28" width="4" height="1.95" rx="0.93" transform="translate(710.33 540.32) rotate(169.28)" style="fill:#263238"></rect><rect x="357.71" y="323.03" width="4" height="1.95" rx="0.93" transform="translate(769.98 456.09) rotate(159.28)" style="fill:#263238"></rect><rect x="368.5" y="317.83" width="4" height="1.95" rx="0.93" transform="translate(811.08 359.89) rotate(149.28)" style="fill:#263238"></rect><rect x="378.23" y="310.84" width="4" height="1.95" rx="0.93" transform="translate(831.04 256.37) rotate(139.28)" style="fill:#263238"></rect><rect x="386.6" y="302.26" width="4" height="1.95" rx="0.93" transform="translate(828.56 150.72) rotate(129.28)" style="fill:#263238"></rect><rect x="393.35" y="292.36" width="4" height="1.95" rx="0.93" transform="translate(803.78 48.26) rotate(119.28)" style="fill:#263238"></rect><rect x="398.27" y="281.44" width="4" height="1.95" rx="0.93" transform="translate(758.24 -45.87) rotate(109.28)" style="fill:#263238"></rect><rect x="401.23" y="269.83" width="4" height="1.95" rx="0.93" transform="translate(694.75 -127.19) rotate(99.28)" style="fill:#263238"></rect><rect x="402.13" y="257.88" width="4" height="1.95" rx="0.93" transform="translate(617.12 -192.21) rotate(89.28)" style="fill:#263238"></rect><rect x="400.93" y="245.96" width="4" height="1.95" rx="0.93" transform="translate(529.84 -238.62) rotate(79.28)" style="fill:#263238"></rect><rect x="397.69" y="234.43" width="4" height="1.95" rx="0.93" transform="translate(437.7 -265.45) rotate(69.28)" style="fill:#263238"></rect><rect x="392.49" y="223.63" width="4" height="1.95" rx="0.93" transform="translate(345.28 -273) rotate(59.28)" style="fill:#263238"></rect><rect x="385.49" y="213.9" width="4" height="1.95" rx="0.93" transform="translate(256.79 -262.72) rotate(49.28)" style="fill:#263238"></rect><path d="M379.12,208l-1.65-1.36a.92.92,0,0,1-.13-1.31l.06-.07a.92.92,0,0,1,1.31-.13l1.65,1.35a.93.93,0,0,1,.13,1.31l-.06.07A.93.93,0,0,1,379.12,208Z" transform="translate(-40.79 -43.74)" style="fill:#263238"></path><rect x="367.02" y="198.79" width="4" height="1.95" rx="0.93" transform="translate(104.08 -198.71) rotate(29.28)" style="fill:#263238"></rect><rect x="356.1" y="193.86" width="4" height="1.95" rx="0.93" transform="translate(43.64 -151.07) rotate(19.28)" style="fill:#263238"></rect><rect x="344.48" y="190.9" width="4" height="1.95" rx="0.93" transform="translate(-5.3 -97.12) rotate(9.28)" style="fill:#263238"></rect><rect x="332.54" y="190.01" width="4" height="1.95" rx="0.93" transform="translate(-43.15 -39.54) rotate(-0.72)" style="fill:#263238"></rect><rect x="320.61" y="191.2" width="4" height="1.95" rx="0.93" transform="translate(-70.9 19.6) rotate(-10.72)" style="fill:#263238"></rect><rect x="309.08" y="194.45" width="4" height="1.95" rx="0.93" transform="translate(-89.81 78.94) rotate(-20.72)" style="fill:#263238"></rect><rect x="298.29" y="199.64" width="4" height="1.95" rx="0.93" transform="translate(-101.14 137.8) rotate(-30.72)" style="fill:#263238"></rect><rect x="288.56" y="206.64" width="4" height="1.95" rx="0.93" transform="translate(-105.89 196.05) rotate(-40.72)" style="fill:#263238"></rect><rect x="280.19" y="215.22" width="4" height="1.95" rx="0.93" transform="translate(-104.61 254) rotate(-50.72)" style="fill:#263238"></rect><rect x="273.44" y="225.12" width="4" height="1.95" rx="0.93" transform="translate(-97.28 312.01) rotate(-60.72)" style="fill:#263238"></rect><rect x="268.51" y="236.04" width="4" height="1.95" rx="0.93" transform="translate(-83.33 370.34) rotate(-70.72)" style="fill:#263238"></rect><rect x="265.56" y="247.65" width="4" height="1.95" rx="0.93" transform="translate(-61.77 428.83) rotate(-80.72)" style="fill:#263238"></rect><rect x="264.66" y="259.6" width="4" height="1.95" rx="0.93" transform="matrix(-0.01, -1, 1, -0.01, -31.35, 486.73)" style="fill:#263238"></rect><rect x="265.86" y="271.52" width="4" height="1.95" rx="0.93" transform="translate(9.13 542.61) rotate(-100.72)" style="fill:#263238"></rect><rect x="269.1" y="283.05" width="4" height="1.95" rx="0.93" transform="translate(60.54 594.33) rotate(-110.72)" style="fill:#263238"></rect><rect x="193.3" y="282.48" width="6.99" height="51.25" transform="translate(-209.57 267.55) rotate(-57.93)" style="fill:#263238"></rect><path d="M154.76,308.73c6.19-1.1,17-7.6,24.74-16.4,7.08-8,19.95-15.3,17.66-18.33-.88-1.18-8.63,2.19-20.12,10.86-11.31,8.53-26.28,15.28-29.75,21.14C145.8,308.52,151.68,309.28,154.76,308.73Z" transform="translate(-40.79 -43.74)" style="fill:#455a64"></path><rect x="225.93" y="162.41" width="4.87" height="20.87" transform="translate(-60.32 -14.34) rotate(-7.07)" style="fill:#263238"></rect><rect x="226.71" y="171.38" width="6.62" height="28.35" transform="translate(-95.96 219.31) rotate(-54.09)" style="fill:#c7c7c7"></rect><polygon points="200.95 291.3 126.75 345.74 122.48 338.11 186.73 290.58 198.48 151.17 210.62 157.99 200.95 291.3" style="fill:#ECEFF1"></polygon><polygon points="190.45 290.89 144.66 262.64 149.32 255.24 195.1 283.5 190.45 290.89" style="fill:#ECEFF1"></polygon><rect x="247.36" y="182.76" width="8.74" height="37.43" transform="translate(-99.88 243.48) rotate(-54.09)" style="fill:#ECEFF1"></rect><rect x="296.18" y="187.83" width="4.37" height="92.89" transform="translate(-104.88 302.51) rotate(-55.31)" style="fill:#ECEFF1"></rect><path d="M219,164.06a8.63,8.63,0,1,1,11.83,3A8.62,8.62,0,0,1,219,164.06Z" transform="translate(-40.79 -43.74)" style="fill:#263238"></path><rect x="202.83" y="156.72" width="27.85" height="10.75" rx="5.12" transform="translate(424.97 224.46) rotate(166.29)" style="fill:#37474f"></rect><path d="M205.05,165.49a2.87,2.87,0,1,1,4,1.91A3.12,3.12,0,0,1,205.05,165.49Z" transform="translate(-40.79 -43.74)" style="fill:#455a64"></path><polygon points="204.1 156.38 126.9 344.18 122.48 338.11 199.68 150.3 204.1 156.38" style="fill:#ECEFF1"></polygon><path d="M240.71,210.3A960.19,960.19,0,0,1,232,313.6a963,963,0,0,1,8.75-103.3Z" transform="translate(-40.79 -43.74)" style="fill:#fff;opacity:0.30000000000000004"></path><polygon points="181.79 132.34 189.68 127.39 199.21 128.95 191.84 139.62 181.79 132.34" style="fill:#263238"></polygon><circle cx="164.61" cy="384.56" r="10.76" transform="translate(-245.8 144.94) rotate(-38.91)" style="fill:#37474f"></circle><path d="M344.08,253.37a10.76,10.76,0,1,1-15-2.34A10.76,10.76,0,0,1,344.08,253.37Z" transform="translate(-40.79 -43.74)" style="fill:#37474f"></path><polygon points="174.69 321.41 169.81 320.52 192.09 287.93 196.97 288.82 174.69 321.41" style="fill:#a6a6a6"></polygon><rect x="203.88" y="359.84" width="21.92" height="6.36" transform="translate(345.59 704.67) rotate(-173.38)" style="fill:#263238"></rect><path d="M248.05,322.74a.52.52,0,0,1-.49-.21.53.53,0,0,1-.05-.53.5.5,0,0,0,0-.53.52.52,0,0,0-.55-.2.51.51,0,0,1-.56-.19.52.52,0,0,1-.07-.47.51.51,0,0,0-.07-.47.52.52,0,0,0-.62-.18.52.52,0,0,1-.62-.17.52.52,0,0,1-.08-.41.52.52,0,0,0-.77-.56.52.52,0,0,1-.67-.14.53.53,0,0,1-.1-.35.52.52,0,0,0-.83-.45h0a.52.52,0,0,1-.73-.11.49.49,0,0,1-.09-.28.52.52,0,0,0-.82-.4l-.06.05a.53.53,0,0,1-.78-.06.47.47,0,0,1-.09-.22.52.52,0,0,0-.82-.33.32.32,0,0,0-.1.1.52.52,0,0,1-.82,0,.53.53,0,0,1-.08-.15.52.52,0,0,0-.8-.26.67.67,0,0,0-.14.15.51.51,0,0,1-.85,0l-.06-.1a.52.52,0,0,0-.78-.2.46.46,0,0,0-.16.2.52.52,0,0,1-.89.09l0,0a.52.52,0,0,0-.75-.15.48.48,0,0,0-.18.27.57.57,0,0,1-.19.26.51.51,0,0,1-.71-.09.53.53,0,0,0-.92.24.47.47,0,0,1-.2.32.52.52,0,0,1-.67,0,.5.5,0,0,0-.66,0,.49.49,0,0,0-.21.39.54.54,0,0,1-.21.39.52.52,0,0,1-.62,0,.51.51,0,0,0-.62,0,.52.52,0,0,0-.21.45.51.51,0,0,1-.77.49.51.51,0,0,0-.56,0,.53.53,0,0,0-.21.53.51.51,0,0,1-.2.52.49.49,0,0,1-.5.06.51.51,0,0,0-.68.65.54.54,0,0,1-.19.59.56.56,0,0,1-.44.08.49.49,0,0,0-.44.08.52.52,0,0,0-.16.65.53.53,0,0,1-.17.65.57.57,0,0,1-.37.09.47.47,0,0,0-.37.09.51.51,0,0,0-.14.7.53.53,0,0,1-.13.71.46.46,0,0,1-.31.09.52.52,0,0,0-.43.82l0,0a.52.52,0,0,1-.34.85.52.52,0,0,0-.36.82l.07.08a.51.51,0,0,1,0,.8.51.51,0,0,1-.18.09.51.51,0,0,0-.3.8.46.46,0,0,0,.12.12.51.51,0,0,1,0,.84l-.12.07a.52.52,0,0,0-.24.79.45.45,0,0,0,.18.15.52.52,0,0,1,.06.88l-.06,0a.51.51,0,0,0,.06.94.51.51,0,0,1,.12.9h0a.52.52,0,0,0-.12.73.64.64,0,0,0,.3.2.44.44,0,0,1,.29.2.5.5,0,0,1-.06.68.53.53,0,0,0-.07.69.51.51,0,0,0,.36.21.53.53,0,0,1,.36.21.53.53,0,0,1,0,.64.5.5,0,0,0,0,.64.47.47,0,0,0,.42.21.54.54,0,0,1,.43.22.53.53,0,0,1,0,.59.51.51,0,0,0,0,.59.51.51,0,0,0,.49.2.52.52,0,0,1,.54.74.52.52,0,0,0,0,.53.51.51,0,0,0,.56.2.52.52,0,0,1,.56.2.54.54,0,0,1,.07.47.47.47,0,0,0,.07.46.49.49,0,0,0,.61.18.53.53,0,0,1,.71.59.5.5,0,0,0,.09.4.51.51,0,0,0,.67.15.52.52,0,0,1,.68.15.49.49,0,0,1,.1.34.52.52,0,0,0,.82.46h0a.53.53,0,0,1,.74.12.49.49,0,0,1,.09.28.52.52,0,0,0,.82.39s0,0,.06-.05a.53.53,0,0,1,.79.07.67.67,0,0,1,.09.21.51.51,0,0,0,.81.33l.1-.09a.52.52,0,0,1,.82,0,.53.53,0,0,1,.08.15.52.52,0,0,0,.8.27.64.64,0,0,0,.13-.15.52.52,0,0,1,.86,0l.06.09a.51.51,0,0,0,.94,0,.52.52,0,0,1,.89-.09l0,0a.5.5,0,0,0,.74.15.46.46,0,0,0,.19-.26.45.45,0,0,1,.19-.27.52.52,0,0,1,.71.09.51.51,0,0,0,.71.09.47.47,0,0,0,.2-.32.51.51,0,0,1,.87-.28.53.53,0,0,0,.67,0,.51.51,0,0,0,.21-.39.49.49,0,0,1,.21-.39.52.52,0,0,1,.62,0,.51.51,0,0,0,.61,0,.49.49,0,0,0,.21-.46.53.53,0,0,1,.22-.46.51.51,0,0,1,.56,0,.52.52,0,0,0,.76-.56.51.51,0,0,1,.7-.58.51.51,0,0,0,.5-.06.5.5,0,0,0,.19-.59.52.52,0,0,1,.19-.58.49.49,0,0,1,.44-.08.55.55,0,0,0,.44-.08.52.52,0,0,0,.16-.65.52.52,0,0,1,.16-.65.5.5,0,0,1,.38-.09.48.48,0,0,0,.37-.1.5.5,0,0,0,.13-.7.54.54,0,0,1,.13-.71.49.49,0,0,1,.31-.09.53.53,0,0,0,.43-.83l0,0a.52.52,0,0,1,.33-.85.52.52,0,0,0,.37-.81l-.08-.08a.53.53,0,0,1,.05-.81.49.49,0,0,1,.18-.08.53.53,0,0,0,.3-.81l-.12-.12a.51.51,0,0,1,0-.84.47.47,0,0,1,.12-.07.52.52,0,0,0,.24-.79.54.54,0,0,0-.18-.15.52.52,0,0,1-.06-.88l.06,0a.52.52,0,0,0,.17-.77.53.53,0,0,0-.23-.18.51.51,0,0,1-.12-.9h0a.52.52,0,0,0-.18-.93.55.55,0,0,1-.29-.2.52.52,0,0,1,.07-.69.52.52,0,0,0,.07-.69.53.53,0,0,0-.36-.21.49.49,0,0,1-.37-.2.53.53,0,0,1,0-.65.51.51,0,0,0,0-.64.5.5,0,0,0-.42-.21.52.52,0,0,1-.43-.21.51.51,0,0,1,0-.59.51.51,0,0,0,0-.59A.5.5,0,0,0,248.05,322.74Zm-5.46,17.64a11.51,11.51,0,1,1,2.53-16.08A11.51,11.51,0,0,1,242.59,340.38Zm-14.84-19.93" transform="translate(-40.79 -43.74)" style="fill:#a6a6a6"></path><rect x="231" y="319.84" width="2.09" height="12.1" transform="translate(-188.1 155.13) rotate(-36.04)" style="fill:#a6a6a6"></rect><rect x="223.74" y="331.41" width="12.1" height="2.09" transform="translate(-123.68 32.67) rotate(-16.04)" style="fill:#a6a6a6"></rect><rect x="229.14" y="335.77" width="12.1" height="2.09" transform="translate(-157.83 504.5) rotate(-86.05)" style="fill:#a6a6a6"></rect><polyline points="203.71 292.14 194.39 288 195.24 286.09 206.3 291 205.45 292.91 203.71 292.14" style="fill:#a6a6a6"></polyline><rect x="233.76" y="325.38" width="12.1" height="2.09" transform="translate(-202.42 228.75) rotate(-46.04)" style="fill:#a6a6a6"></rect><path d="M238.66,329a3.51,3.51,0,1,1-4.9-.77A3.51,3.51,0,0,1,238.66,329Z" transform="translate(-40.79 -43.74)" style="fill:#a6a6a6"></path><path d="M237.14,330.11a1.63,1.63,0,1,1-2.28-.36A1.63,1.63,0,0,1,237.14,330.11Z" transform="translate(-40.79 -43.74)" style="fill:#263238"></path><path d="M226.34,359.76c-2.3.59-55.68-5.54-58-7.27-.9-.65-2.87-7.2-2.36-18.55,0-.12,0-.23,0-.35.1-2.34-1.33-36.84-1.33-36.84l44,.81-1.21,38.66-.07.7s23.75,12.83,26.11,15S228.64,359.18,226.34,359.76Z" transform="translate(-40.79 -43.74)" style="fill:#ebebeb"></path><path d="M237.89,357.7c-2.39.73-70.41-.85-72.94-2.56-1-.63.47-22.9.47-23l42.32.69,0,.73s25.53,12.27,28.11,14.44S240.27,357,237.89,357.7Z" transform="translate(-40.79 -43.74)" style="fill:#37474f"></path><path d="M237.19,355.06c-11.37-.59-57.3-1.9-68.59-1.62-.09,0-.09.06,0,.07,11.26.83,57.2,1.77,68.59,1.73C237.43,355.24,237.43,355.07,237.19,355.06Z" transform="translate(-40.79 -43.74)" style="fill:#fff"></path><path d="M211.36,333.78c-4.46-1-10-.42-13.47,2.67-.13.12,0,.31.19.27a63.09,63.09,0,0,1,13.24-2.38A.28.28,0,0,0,211.36,333.78Z" transform="translate(-40.79 -43.74)" style="fill:#fff"></path><path d="M214.54,335.81c-4.46-1-10-.42-13.47,2.68-.13.12,0,.31.19.27a63.09,63.09,0,0,1,13.24-2.38A.29.29,0,0,0,214.54,335.81Z" transform="translate(-40.79 -43.74)" style="fill:#fff"></path><path d="M217.72,337.85c-4.46-1-10-.42-13.47,2.68-.13.12,0,.31.19.27a62.47,62.47,0,0,1,13.24-2.39A.28.28,0,0,0,217.72,337.85Z" transform="translate(-40.79 -43.74)" style="fill:#fff"></path><path d="M239,355.3c1.2.5.83,4.55-.06,4.85s-74.48-2-75.73-2.34-.66-4.8.8-5S239,355.3,239,355.3Z" transform="translate(-40.79 -43.74)" style="fill:#ECEFF1"></path><path d="M175.11,340c-4.83-2.58-8.85,4.92-4,7.5S179.94,342.55,175.11,340Z" transform="translate(-40.79 -43.74)" style="fill:#fff"></path><path d="M171.11,131.36s-.24,12,0,16.83c0,0,34.9,48.88,37.06,63,2.52,16.5.37,101.86.37,101.86l-43.3.08s-2-28.35-1.85-51c.07-16.13,2.24-36.24,1.81-39.11-2.1-14-40-61.95-42.92-71.29-6.44-21,7.75-32.7,7.75-32.7Z" transform="translate(-40.79 -43.74)" style="fill:#ad6359"></path><path d="M171.14,148.19s17.66,23.3,28.15,38c1.15,1.62,1,5.5,1,5.5l-40.06,20.24s-6.08-.77-7.22-2.54c-13.84-21.47-31.65-49.19-33.35-58C115.45,129.79,130.06,119,130.06,119l41.59,12S171.62,147.06,171.14,148.19Z" transform="translate(-40.79 -43.74)" style="fill:#ECEFF1"></path><path d="M171.14,148.19s17.66,23.3,28.15,38c1.15,1.62,1,5.5,1,5.5l-40.06,20.24s-6.08-.77-7.22-2.54c-13.84-21.47-31.65-49.19-33.35-58C115.45,129.79,130.06,119,130.06,119l41.59,12S171.62,147.06,171.14,148.19Z" transform="translate(-40.79 -43.74)" style="opacity:0.30000000000000004"></path><g style="opacity:0.2"><path d="M163.61,177.28c-2.12-3.17-1.46-2.17-3.59-5.33s-4.09-6.29-6.27-9.32c-.25-.35-.46-.64-.93-.57a7.58,7.58,0,0,0-2.17,1.24c-1.77,1.06-3.52,2.17-5.23,3.32a127.75,127.75,0,0,0-10.78,7.84c-.31.26,0,.77.36.51a156.49,156.49,0,0,1,16.73-11.57c.32-.18,1-.69,1.36-.56a4.35,4.35,0,0,1,.46.69l1.38,2.08,2.77,4.16c1.84,2.77.88,1.38,2.73,4.15q1.26,1.92,2.54,3.81c.46.7.92,1.39,1.39,2.08.23.34.48.68.69,1a1.73,1.73,0,0,1,.15,1.91c-.59,1.32-1.46,2.56-2.17,3.82l-2.42,4.24a10,10,0,0,1-1.33,2.23c-.64.6-2,.32-2.84.3l-7.41-.16a7.76,7.76,0,0,1-2.28-.45c-.79-.32-10.38-14.82-11.95-18.14-.07-.15-.43,0-.36.18,1.5,3.12,10.12,17.28,11.26,18.52,1,1,2.31.91,3.62.93l5.56.1c1,0,1.93,0,2.89,0a2.77,2.77,0,0,0,1.89-.43,5.1,5.1,0,0,0,1-1.54c.47-.83.94-1.65,1.4-2.48l2.7-4.79c.6-1.06,1.8-2.47,1.43-3.78a6.48,6.48,0,0,0-1-1.66Z" transform="translate(-40.79 -43.74)"></path><path d="M153.71,164c-1.6,3.78-3.23,7.53-5.06,11.21-.23.47-.46,1-.71,1.41-.49.91-.92,1-1.9,1s-1.93-.14-2.89-.19c-2.2-.12-4.41-.2-6.61-.31-.17,0-.22.24,0,.26,2.45.3,4.9.6,7.36.84,1.68.16,3.66.78,4.61-1,1.09-2,1.94-4.18,2.82-6.27.94-2.26,1.8-4.57,2.56-6.89C153.87,164,153.74,163.93,153.71,164Z" transform="translate(-40.79 -43.74)"></path><path d="M146.72,174.88a1.06,1.06,0,0,0-.86-.34,1.07,1.07,0,0,0-.75.76c-.06.15.18.26.24.11a.64.64,0,0,1,.24-.37.48.48,0,0,1,.18-.08h.13l.19.08.1,0s0,0,0,0a1.5,1.5,0,0,1,.35.31.71.71,0,0,1,.11.74.34.34,0,0,1-.36.2,1,1,0,0,1-.44-.25s-.09,0-.06.05a.8.8,0,0,0,.76.36.78.78,0,0,0,.51-.71A1.14,1.14,0,0,0,146.72,174.88Z" transform="translate(-40.79 -43.74)"></path></g><g style="opacity:0.2"><path d="M133.76,121.6c-6.06,12.25-4.52,27.05,1.5,39,1.28,2.76,3.06,5.58,4.6,8.18a63,63,0,0,1-5.11-7.92c-6.57-11.8-8.12-27.35-1-39.25Z" transform="translate(-40.79 -43.74)"></path><path d="M159.16,195.62a39.9,39.9,0,0,1,6.6,10.23,40.17,40.17,0,0,1-6.6-10.23Z" transform="translate(-40.79 -43.74)"></path></g><path d="M199.59,192c3.06,5.62,6.22,11.26,8.43,17.3,1.08,3.74,1,7.67,1.31,11.51.46,10.26.48,20.52.52,30.77-.09,20.51-.44,41-1.28,61.51,0-29.85.7-62.59,0-92.25-.27-5.1-.05-10.31-2.41-14.95-2-4.72-4.26-9.31-6.56-13.89Z" transform="translate(-40.79 -43.74)" style="fill:#263238"></path><path d="M118.19,125.71c-.08.21,55.25,9.55,56.08,9.35.6-.15,3.95-4.59,6.7-13.79,1.62-5.44,14.28-30.71,15.27-37.62,1.24-8.6-2.81-13.57-9.47-13.41-5.61.14-12.67,1.1-17.2,3.28C153.55,81.24,121.09,118.18,118.19,125.71Z" transform="translate(-40.79 -43.74)" style="fill:#ECEFF1"></path><path d="M191.74,87.49c-2.41-1.91-5-11-2.9-15.35.14-.3,2.33-1.32,5.54-3.21,2-1.16,4.09-2.49,6-3.84.38-.28,5.66,13.76,5.66,13.76a36.87,36.87,0,0,0-8,4.07,4.33,4.33,0,0,0-.7.64l-.12.11C195.91,85,194.32,89.54,191.74,87.49Z" transform="translate(-40.79 -43.74)" style="fill:#ad6359"></path><path d="M206,78.85a37.12,37.12,0,0,0-7.89,4,18.85,18.85,0,0,1-1.43-15.32c1.25-.79,2.5-1.62,3.66-2.45C200.72,64.81,206,78.85,206,78.85Z" transform="translate(-40.79 -43.74)" style="fill:#263238"></path><path d="M206.13,51.59c-4.2,3.33-10.39,17-9.27,21.84,1.63,6.94,8.49,12.24,15.45,9.32,6.74-2.83,14.49-20.86,12.84-25.64C222.73,50.06,212.33,46.67,206.13,51.59Z" transform="translate(-40.79 -43.74)" style="fill:#ad6359"></path><path d="M213.47,67.64s-.09,0-.11,0c-.41.92-1.05,1.91-2,1.81,0,0-.05,0,0,0C212.4,69.9,213.23,68.58,213.47,67.64Z" transform="translate(-40.79 -43.74)" style="fill:#263238"></path><path d="M213.13,66.29c-1.41-.83-3,2-1.66,2.82S214.31,67,213.13,66.29Z" transform="translate(-40.79 -43.74)" style="fill:#263238"></path><path d="M218.52,70.16s0,.08,0,.11c-.51.88-1,2-.3,2.7,0,0,0,.07,0,0C217.31,72.35,217.9,70.91,218.52,70.16Z" transform="translate(-40.79 -43.74)" style="fill:#263238"></path><path d="M219.82,69.66c1.5.66.06,3.6-1.33,3S218.57,69.1,219.82,69.66Z" transform="translate(-40.79 -43.74)" style="fill:#263238"></path><path d="M212.73,64.42c.35.29.73.5,1.11.76a2.18,2.18,0,0,0,1.27.55.68.68,0,0,0,.61-.58,1.69,1.69,0,0,0-.87-1.5,2.5,2.5,0,0,0-1.74-.53A.74.74,0,0,0,212.73,64.42Z" transform="translate(-40.79 -43.74)" style="fill:#263238"></path><path d="M221.48,69.51c-.45-.07-.86-.21-1.3-.32a2.21,2.21,0,0,1-1.27-.59.69.69,0,0,1,0-.84,1.7,1.7,0,0,1,1.71-.34,2.52,2.52,0,0,1,1.55.94A.74.74,0,0,1,221.48,69.51Z" transform="translate(-40.79 -43.74)" style="fill:#263238"></path><path d="M208.21,75.25c.1.33.16.73.47.93a2.73,2.73,0,0,0,1.08.3s.05,0,0,.06a1.37,1.37,0,0,1-1.39-.12,1.08,1.08,0,0,1-.28-1.17A.06.06,0,0,1,208.21,75.25Z" transform="translate(-40.79 -43.74)" style="fill:#263238"></path><path d="M210.59,73.09a3.44,3.44,0,0,0,1.3,2.44,4,4,0,0,0,1.07.64,1,1,0,0,0,.22.09l.21.08a.26.26,0,0,0,.29-.11h0a.42.42,0,0,0,0-.1h0l.05-.08c.38-.68.88-1.76.88-1.76.19.26,1.15,1.53,1.33,1.16a52.24,52.24,0,0,0,3.78-9.84.1.1,0,0,0-.18-.06c-1.48,2.89-2.45,6-3.9,9a5.74,5.74,0,0,0-1.2-1.21c-.11,0-.92,2.11-1.12,2.4l0,0a4.79,4.79,0,0,1-2.62-2.68C210.68,73,210.58,73,210.59,73.09Z" transform="translate(-40.79 -43.74)" style="fill:#263238"></path><path d="M212.74,75.61a4.14,4.14,0,0,1-2.05.34,1.91,1.91,0,0,1-1-.47c-.61-.58-.27-1.24.16-1.73a4.28,4.28,0,0,1,.78-.68A5.37,5.37,0,0,0,212.74,75.61Z" transform="translate(-40.79 -43.74)" style="fill:#263238"></path><path d="M210.69,76a1.91,1.91,0,0,1-1-.47c-.61-.58-.27-1.24.16-1.73A1.9,1.9,0,0,1,210.69,76Z" transform="translate(-40.79 -43.74)" style="fill:#ff9bbc"></path><path d="M199.76,61.8c1.49,1.65,4.28.4,5.46-.43s4.34-7.62,6.29-8.75,4.43-.88,5.64.5,1.89,4.56,3,5.16,2.94-1.61,3.7-1.13c1.68,1.07.83,6.35,0,8.38,0,0,5.06-7.87-2.54-13.7-7.42-5.69-13.37-1.9-15.56,0C201.57,55.57,199.76,61.8,199.76,61.8Z" transform="translate(-40.79 -43.74)" style="fill:#263238"></path><path d="M203.93,64.07s-.55-5.81-3-5.85-3.72,7.25-2,9.33a2.6,2.6,0,0,0,3.72.51Z" transform="translate(-40.79 -43.74)" style="fill:#ad6359"></path><path d="M200.6,60.32s-.07,0,0,0c1.19,1.51,1.19,3.42.92,5.24a1.44,1.44,0,0,0-1.67-1.4.06.06,0,0,0,0,.11,1.58,1.58,0,0,1,1.25,1.35,7.59,7.59,0,0,1,0,1.65c0,.18.29.25.33.06v0C202.58,65.38,202.62,61.73,200.6,60.32Z" transform="translate(-40.79 -43.74)" style="fill:#263238"></path><path d="M197.11,56.12s-.21,9,0,10.21S199.15,70,199.15,70s.2,10,.47,10.38,1.95,1.71,2.19,1.36.17-11.27.17-11.27l7.14-10.16-1.73-1.85L200.6,68.61a34.43,34.43,0,0,1-1.39-3.15c-.11-.53-.07-9.16-.07-9.16Z" transform="translate(-40.79 -43.74)" style="fill:#263238"></path><path d="M197.16,50.28l-2.57,2,1.24,2-1.31,2.78s3.25,3,4.51,3.46,11.07.67,11.07.67Z" transform="translate(-40.79 -43.74)" style="fill:#37474f"></path><polygon points="157.9 8.86 156.53 9.33 157.78 10.57 156.18 12.49 159.31 14.75 165.21 15.56 157.9 8.86" style="fill:#263238"></polygon><path d="M209.92,62.14c3.75.63,12.19,2,12.29,2s3.65,1.72,3.85,1.72,5.46-2.52,5.46-2.52-1.48-8.59-5.43-12.59-14.58-7.3-17.23-7-14.17,5.07-14.22,5.4S207.33,61.71,209.92,62.14Z" transform="translate(-40.79 -43.74)" style="fill:#ECEFF1"></path><path d="M202.23,46.62l3.63-1.28s4.31,1.42,5,1.77a21,21,0,0,1,3,3,37.81,37.81,0,0,0-4.26-2.47C209,47.47,202.23,46.62,202.23,46.62Z" transform="translate(-40.79 -43.74)" style="fill:#020100;opacity:0.1"></path><path d="M212.47,45.27s10.42,5.26,11.33,6C226.46,53.3,230.05,64,230.05,64s-5.67-11.21-7-12S212.47,45.27,212.47,45.27Z" transform="translate(-40.79 -43.74)" style="fill:#020100;opacity:0.1"></path><path d="M198.3,49.14s10,2,10.92,2.43c2.72,1.13,8.2,9.35,8.2,9.35s-7.35-8.15-8.61-8.51S198.3,49.14,198.3,49.14Z" transform="translate(-40.79 -43.74)" style="fill:#020100;opacity:0.1"></path><path d="M216.08,52s6.09,4.55,6.63,5.2c1.39,1.68,3.33,8.4,3.33,8.4s-4.11-6.72-4.77-7.6S216.08,52,216.08,52Z" transform="translate(-40.79 -43.74)" style="fill:#020100;opacity:0.1"></path><path d="M212,61.43A24,24,0,0,0,213,57.37a12.42,12.42,0,0,0-3-2c-.27,0,0,3.25.22,4.35A4.69,4.69,0,0,0,212,61.43Z" transform="translate(-40.79 -43.74)" style="fill:#263238"></path><path d="M208.07,58.08c.34,0-.64-4.17-1-4.44-.93-.7-2.51-1.41-2.58-1.19a28.4,28.4,0,0,0,1.69,4.38A10.26,10.26,0,0,0,208.07,58.08Z" transform="translate(-40.79 -43.74)" style="fill:#263238"></path><path d="M202.34,51.91a7.9,7.9,0,0,0-2.65-.79,29.17,29.17,0,0,0,3.69,4.05A7.63,7.63,0,0,0,202.34,51.91Z" transform="translate(-40.79 -43.74)" style="fill:#263238"></path><path d="M172.92,80.54c-3.08,8.74-11.21,44-3.41,53.43,9.45,11.43,24.1,21,30.93,24.93,1.66.95,18-20.93,14.1-23.35-6.1-3.77-22.53-17.06-23.55-18.21-1.76-2-3.52-22-5.52-34.81C183.68,71,174.74,75.4,172.92,80.54Z" transform="translate(-40.79 -43.74)" style="fill:#ad6359"></path><path d="M214.06,135.41s10.24,3,16.84,5.22c3.68,1.25,9.81,4,12.09,6.14,3.42,3.23,15.64,18.94,11.9,22-3.39,2.75-12.18-12.08-12.18-12.08s10.19,14.18,5.5,16.75-12.39-15.5-12.39-15.5,10.14,14.8,4.88,16.68c-4,1.43-11.87-14.55-11.87-14.55s8.63,12.79,4.61,14.43C229,176.3,220.78,162,220.78,162c-10.93,2.45-17.13-.86-21.27-3.74C198.51,157.58,214.06,135.41,214.06,135.41Z" transform="translate(-40.79 -43.74)" style="fill:#ad6359"></path><path d="M239.5,151.55c1.26,1.63,2.54,3.26,3.65,5s2.16,3.49,3.1,5.32a35.27,35.27,0,0,1,3,7.45c-1.6-4.51-5.47-10.76-6.58-12.48s-2.13-3.51-3.24-5.24A0,0,0,0,1,239.5,151.55Z" transform="translate(-40.79 -43.74)" style="fill:#263238"></path><path d="M233.19,155.44c1.51,2.14,3.1,4.21,4.52,6.42s2.56,4.41,3.82,6.7c.1.18,0,.17-.13,0-1.35-2.24-2.77-4.2-4.15-6.43s-2.67-4.49-4.12-6.65A0,0,0,0,1,233.19,155.44Z" transform="translate(-40.79 -43.74)" style="fill:#263238"></path><path d="M227.17,157.81a58.94,58.94,0,0,1,6.16,10.34c.09.18-.07.16-.18,0-2-3.48-3.51-6.22-6.09-10.24C227,157.83,227.11,157.74,227.17,157.81Z" transform="translate(-40.79 -43.74)" style="fill:#263238"></path><path d="M212.75,133.56l-13.57,28.79s-26.93-19.42-31.69-29.58-.22-34.64,3.53-47.86,13.31-18,16,3.39,3.3,28,4,29S212.75,133.56,212.75,133.56Z" transform="translate(-40.79 -43.74)" style="fill:#ECEFF1"></path><path d="M189.78,155c-.39-.58-20.74-17.75-23.25-25.55-1.09-3.41-1-13.45-.34-19.66.26-2.38.76-4.73,1.17-7.09.84-4.76,1.79-9.52,2.32-14.32a.05.05,0,0,0-.1,0c-.89,3-1.59,6-2.2,9,0-.17,0-.34,0-.51a43.52,43.52,0,0,1-.28-4.42c0-.1-.17-.09-.17,0,0,1.46-.08,2.92-.09,4.38,0,.7,0,1.41,0,2.11,0,.26,0,.55.07.84-.17,1-.33,1.89-.48,2.84-.39,2.41-.63,4.84-1,7.25-.93,6.66-1.12,15.56.29,20.31,2.37,8,23.63,24.73,23.86,24.94S189.85,155.07,189.78,155Z" transform="translate(-40.79 -43.74)" style="fill:#263238"></path><path d="M194.13,155.51c1.17-1.94,2.08-4.06,3.05-6.1s1.89-4,2.82-6.06c1.88-4.09,3.87-8.16,5.47-12.37a.08.08,0,1,0-.15-.07c-2.28,3.92-4.17,8.09-6.09,12.2-1,2.06-1.89,4.14-2.8,6.22a59.67,59.67,0,0,0-2.46,6.12C193.94,155.55,194.08,155.59,194.13,155.51Z" transform="translate(-40.79 -43.74)" style="fill:#263238"></path><path d="M187.38,90.16c1.55,8.71,2.68,17.66,4,26.43.08.4,0,.56.35.89,3.05,2.87,6.59,5.26,9.87,7.92a95.77,95.77,0,0,1-8.55-5.59c-1-.86-2.51-1.56-2.63-3-1.38-8.82-2.32-17.7-3-26.6Z" transform="translate(-40.79 -43.74)" style="fill:#263238"></path><path d="M189,92.46a9.21,9.21,0,0,1-.46,5.63,56.2,56.2,0,0,1,.46-5.63Z" transform="translate(-40.79 -43.74)" style="fill:#263238"></path></g><g id="freepik--Lines--inject-837"><path d="M140.69,260.79c10.84-9.79,22.2-19.14,33.91-27.88-10.84,9.8-22.2,19.14-33.91,27.88Z" transform="translate(-40.79 -43.74)" style="fill:#263238"></path><path d="M92,206.31c10.84-9.79,22.21-19.13,33.92-27.88-10.85,9.8-22.21,19.14-33.92,27.88Z" transform="translate(-40.79 -43.74)" style="fill:#263238"></path><path d="M73.3,432.79c10.19-9.25,20.89-18.05,31.94-26.25-10.19,9.26-20.89,18-31.94,26.25Z" transform="translate(-40.79 -43.74)" style="fill:#263238"></path><path d="M80.16,228.58c10.16-9.23,20.84-18,31.87-26.19-10.16,9.23-20.84,18-31.87,26.19Z" transform="translate(-40.79 -43.74)" style="fill:#263238"></path><path d="M249.58,356.77c16.83-14.64,34.21-28.86,51.9-42.47-16.84,14.65-34.21,28.87-51.9,42.47Z" transform="translate(-40.79 -43.74)" style="fill:#263238"></path></g></svg>
