<svg xmlns="http://www.w3.org/2000/svg" viewBox="0 0 500 500"><g id="freepik--background-complete--inject-882"><path d="M371.85,219.19c-36.11,72.81-122,116-122,116S164,292,127.92,219.19c-30.07-60.74-11-126.38,36.44-140.72,68-20.58,85.49,57.45,85.49,57.45s17.46-78,85.56-57.45C382.87,92.81,401.92,158.45,371.85,219.19Z" style="fill:#ebebeb"></path><path d="M79.06,238.6c6.56,4.46,15.94,4,15.94,4s5.23-7.79,4.8-15.71c-.35-6.61-5.12-11.28-9.85-10.22-6.77,1.51-2.57,12.42-2.57,12.42s-7.17-9.23-12-4.22C72.06,228.38,73.59,234.87,79.06,238.6Z" style="fill:#c7c7c7"></path><path d="M386.75,92.4c1.41,3.78,5.42,6.37,5.42,6.37s4.47-1.69,6.63-5.1c1.8-2.84,1.2-6.18-1.07-7.14-3.25-1.37-4.73,4.39-4.73,4.39s-.24-5.94-3.71-5.28C386.87,86.1,385.59,89.24,386.75,92.4Z" style="fill:#c7c7c7"></path><path d="M367.86,199c4.14,12.1,16.65,20.6,16.65,20.6s14.29-5,21.4-15.6c5.94-8.86,4.31-19.49-2.8-22.7-10.19-4.6-15.34,13.52-15.34,13.52s-.3-18.84-11.34-17C368.73,179.08,364.42,188.93,367.86,199Z" style="fill:#c7c7c7"></path></g><g id="freepik--Floor--inject-882"><path d="M25.11,441.69c144.08-.61,305.7-.62,449.78,0-144.08.62-305.7.61-449.78,0Z" style="fill:#263238"></path></g><g id="freepik--Character--inject-882"><path d="M195.64,228.65c1.11,5.72,2.21,11.47,3.58,17.14a101.88,101.88,0,0,0,3.06,10.12,23.7,23.7,0,0,0,5.22,1.94c-.31-.84-.6-1.68-.9-2.5a117.47,117.47,0,0,1-3.43-12.1c0-.13.18-.17.22,0,1.17,4.16,2.69,8.26,4.23,12.3.34.88.71,1.75,1.08,2.61a38,38,0,0,0,5.21.7c-.4-1-.77-1.92-1.15-2.86-.88-2.22-1.71-4.45-2.47-6.72a117.14,117.14,0,0,1-3.67-13.63c0-.2.25-.23.3-.05q1.94,7,4.38,13.85c.77,2.15,1.58,4.31,2.44,6.43.41,1,.86,2,1.31,3a58.85,58.85,0,0,0,9.6-.46c9.16-1.11,18-5.24,25.84-10.09a52.33,52.33,0,0,0,17-16.51,41.72,41.72,0,0,1-8.79-9.07.11.11,0,0,1,.16-.14c2,2,4,3.94,6.13,5.77,1,.86,2,1.67,3.09,2.48a3.14,3.14,0,0,1,.18-.31c.39-.69.81-1.41,1.2-2.18a66,66,0,0,1-5.8-5.53,60.49,60.49,0,0,1-7.14-8.75.19.19,0,0,1,.29-.25c2.53,2.68,5,5.43,7.55,8.07,1.81,1.86,3.75,3.6,5.61,5.41,1.08-2.35,1.73-4.93.7-7.41-.85-2-2.57-3.53-4.08-5a55.78,55.78,0,0,1-4.83-5.36c-11.64-14.92-21.44-51.07-34.81-50.26-.08-.09-23.82-4.46-32.79,8.1-14.23,19.92-2,75.59-.11,79.92a17.49,17.49,0,0,0,6.73,7.76c-1-2.81-1.74-5.7-2.41-8.52a167.08,167.08,0,0,1-3-17.81A.15.15,0,0,1,195.64,228.65Z" style="fill:#263238"></path><path d="M198.72,239.05c12,21,28.88,49.8,36.56,52.29,19.95,6.46,59.39,9.59,72.81,5.18,5-1.65,1.6-43-3.85-41.47-10.09,2.92-51.87,4.35-55.12,3.1-2.26-.87-22-19.15-37.24-30C190.23,212.63,194.4,231.51,198.72,239.05Z" style="fill:#d3766a"></path><g style="opacity:0.1"><path d="M198.72,239.05c12,21,28.88,49.8,36.56,52.29,19.95,6.46,59.39,9.59,72.81,5.18,5-1.65,1.6-43-3.85-41.47-10.09,2.92-51.87,4.35-55.12,3.1-2.26-.87-22-19.15-37.24-30C190.23,212.63,194.4,231.51,198.72,239.05Z"></path></g><path d="M362.19,262.49a2.29,2.29,0,0,1-1.28,1.66c3,2.18,4.82,4.67,3.67,7.19-.67,1.48-2.16,2.13-4.07,2.16,1.29,1.33,1.71,2.74.74,4.21-1.7,2.57-8.64,1.76-15.42.2,4.48,1.81,7.87,4.06,6.44,6.43-3.81,6.29-18.63,1.17-29.16-.89a34.61,34.61,0,0,0-9.93-.71,8.73,8.73,0,0,0-1.46.31c-1.31.39-2.2,1.08-2.31,2.19-.18,2,4.08,3.65,7.14,3.84,5.8.35,12.82,5.91,12.64,9.55-.25,5.32-13.45,2.76-18.27,3-6.45.34-17-2.76-17.84-2.86,0,0-1-3.91-2-9.41-2-10.47-4.21-26.71-.58-32.47,0,0,20.19-8.89,41.32-11C339,245.19,364,255.33,362.19,262.49Z" style="fill:#d3766a"></path><path d="M362.19,262.49a2.29,2.29,0,0,1-1.28,1.66c3,2.18,4.82,4.67,3.67,7.19-.67,1.48-2.16,2.13-4.07,2.16,1.29,1.33,1.71,2.74.74,4.21-1.7,2.57-8.64,1.76-15.42.2,4.48,1.81,7.87,4.06,6.44,6.43-3.81,6.29-18.63,1.17-29.16-.89a34.61,34.61,0,0,0-9.93-.71,8.73,8.73,0,0,0-1.46.31c-1.31.39-2.2,1.08-2.31,2.19-.18,2,4.08,3.65,7.14,3.84,5.8.35,12.82,5.91,12.64,9.55-.25,5.32-13.45,2.76-18.27,3-6.45.34-17-2.76-17.84-2.86,0,0-1-3.91-2-9.41-2-10.47-4.21-26.71-.58-32.47,0,0,20.19-8.89,41.32-11C339,245.19,364,255.33,362.19,262.49Z" style="opacity:0.1"></path><path d="M321.42,272a26.47,26.47,0,0,1,12.16.51c5.47,1.43,8.08,3.3,13,5.5a.11.11,0,0,1-.08.21c-2.35-1-10.33-4.17-12.72-4.93a25.39,25.39,0,0,0-12.36-1.21C321.38,272.08,321.37,272,321.42,272Z" style="fill:#263238"></path><path d="M322.78,262.51a58.92,58.92,0,0,1,13.53.33c5.51.79,10.53,3.45,15.43,6q4.42,2.28,8.74,4.75c.12.07,0,.28-.08.21q-7.51-4-15.24-7.46a39.67,39.67,0,0,0-15.13-3.6c-3-.1-4.26-.25-7.24-.13A0,0,0,1,1,322.78,262.51Z" style="fill:#263238"></path><path d="M324.21,253.76c4.79-.61,9-1.27,13.84-.21,6.35,1.39,12.29,4.73,14.73,6,2.69,1.43,5.34,3,8,4.52.11.07,0,.25-.11.19a157.9,157.9,0,0,0-18.37-8.92,25.06,25.06,0,0,0-8.44-2,56.18,56.18,0,0,0-9.61.4S324.19,253.77,324.21,253.76Z" style="fill:#263238"></path><path d="M239.66,246.43,220.3,279S198.46,243.52,195,231.28c-3.92-13.78,4-12.77,15.94-6.24S239.66,246.43,239.66,246.43Z" style="fill:#ECEFF1"></path><path d="M233.09,244.08c-3,3.81-10.49,16.52-11.75,18.61-.66,1.11-3.1,5.62-3.77,6.71-.09.14.15.24.23.11,1.28-2.09,2.77-4.05,4.07-6.13s9.35-14.74,11.38-19.2A.1.1,0,0,0,233.09,244.08Z" style="fill:#263238"></path><path d="M232.75,258.06,220.31,279S198.46,243.52,195,231.28c-1.88-6.61-1-9.82,1.66-10.65h0Z" style="opacity:0.1"></path><path d="M341.06,439.63c3.28-1.09.37-10.55-3.28-13.47-1.16-.93-5.46-3.12-10.85-5.72C315.06,414.73,298,407.11,298,407.11l14.55-61.6-59.26.32s-16.18,57.85-16.08,61.45c0,.22,0,.44,0,.67.5,16.32,1.31,29.69,2.65,30.53C243.47,440.75,337.76,440.74,341.06,439.63Z" style="fill:#d3766a"></path><path d="M341.06,439.63c-3.3,1.11-97.6,1.13-101.19-1.15-1.34-.84-2.15-14.2-2.66-30.53,0-.22,0-.45,0-.67a68.52,68.52,0,0,1,1.85-8.65H300l-2,8.48s17.07,7.63,28.94,13.33c5.39,2.6,9.69,4.79,10.85,5.72C341.43,429.08,344.33,438.54,341.06,439.63Z" style="fill:#ebebeb"></path><path d="M342.12,440.16c-3.35,1.13-99.37,1-103-1.31-1.4-.86-2.2-14.86-2.68-31.79,0-.18,0-.35,0-.53l61.94-.62,0,1s36.73,16.48,40.48,19.47S345.48,439.05,342.12,440.16Z" style="fill:#ECEFF1"></path><path d="M341,436.43c-16.19-.41-81.5-.56-97.54.26-.13,0-.13.09,0,.1,16,.76,81.36.38,97.54-.09C341.38,436.69,341.38,436.44,341,436.43Z" style="fill:#263238"></path><path d="M305.25,406.09c-6.37-1.19-14.16-.22-19,4.31-.19.18.06.44.27.38a89.08,89.08,0,0,1,18.73-3.88A.41.41,0,0,0,305.25,406.09Z" style="fill:#263238"></path><path d="M309.84,408.87c-6.36-1.2-14.16-.23-19,4.31-.19.17.07.44.27.37a89.94,89.94,0,0,1,18.74-3.88A.4.4,0,0,0,309.84,408.87Z" style="fill:#263238"></path><path d="M314.44,411.65c-6.37-1.2-14.16-.23-19,4.3-.19.18.06.44.27.38a89.08,89.08,0,0,1,18.73-3.88A.41.41,0,0,0,314.44,411.65Z" style="fill:#263238"></path><path d="M313.55,392.21c-2.5-3.45-7.16-1.9-9.83.33a34,34,0,0,0-9.82,14.58.17.17,0,0,0,.15.23.79.79,0,0,0,1,.79c5.26-1.94,11.12-3.36,15.63-6.86C313.31,399.24,315.91,395.48,313.55,392.21Zm-11.13,11.36c-2.56,1-5.16,1.9-7.69,3,1.93-2.83,3.72-5.74,5.93-8.38a35.38,35.38,0,0,1,3.38-3.65c1.89-1.72,9.4-5.38,8.27,1.61C311.69,400,305.48,402.35,302.42,403.57Z" style="fill:#263238"></path><path d="M277.71,405.44c5.25,2.24,11.28,2.13,16.87,2.68.57.06.86-.55.76-1a.17.17,0,0,0,.09-.26,33.89,33.89,0,0,0-13.2-11.62c-3.14-1.49-8-1.8-9.58,2.17C271.19,401.14,274.65,404.13,277.71,405.44Zm-2.87-4.55c-2.86-6.47,5.33-4.83,7.6-3.64a35.34,35.34,0,0,1,4.19,2.67,99.19,99.19,0,0,1,7.86,6.61c-2.73-.44-5.47-.63-8.21-1C283,405.16,276.42,404.46,274.84,400.89Z" style="fill:#263238"></path><path d="M170.71,304.45s-10.62,38.45,7.92,49.83c12.38,7.6,67.09-2.91,69.42-9.67,4.4-12.77,4.4-17.46,4.4-17.46l-14,67.73,68.92.81s12.93-56,9.61-115.5c-1.23-22-30.79-28.64-51.35-17.71-19.94,10.61-55.64,40-55.64,40Z" style="fill:#37474f"></path><path d="M244.22,355.19c3.71-9.09,3.42-12.66,12.7-40.87,1.24-3.77,2.28-7.6,3.39-11.41,1.14-4,2.5-7.89,3.37-11.92.05-.19.37-.11.31.08-1.07,3.49-1.77,7.09-2.69,10.62s-1.82,6.9-2.79,10.34c-.41,1.48-.85,3-1.27,4.45l.55-.92c.8-1.39,1.62-2.78,2.46-4.15,1.74-2.82,3.84-5.48,5.37-8.43.09-.17.37,0,.27.16-1.75,2.81-3,5.94-4.64,8.83-.8,1.4-1.63,2.77-2.48,4.14a27.36,27.36,0,0,1-2.48,3.66c-1.27,4.35-4,14.85-5.34,19.17-4.26,13.64-2.86,9.2-6,16.53C244.74,355.85,244.06,355.59,244.22,355.19Z" style="fill:#263238"></path><path d="M275.61,383.69c-10.37-.11-20.73-.7-31.1-.89-.2,0-.23-.31,0-.31,10.34-.06,20.67-.47,31-.34s20.73.63,31.1,1c.27,0,.31.42,0,.42C296.28,383.57,286,383.8,275.61,383.69Z" style="fill:#263238"></path><path d="M250.19,380.22c.94-4.57,2.27-9.08,3.48-13.6s2.42-9,3.67-13.55c2.5-9,5.1-18,7.7-27,1.48-5.11,3.07-10.19,4.64-15.27a.12.12,0,0,1,.23.06Q263,338.05,255,365c-1.5,5.1-2.86,10.26-4.65,15.26C250.31,380.36,250.16,380.33,250.19,380.22Z" style="fill:#263238"></path><path d="M178.63,354.28c-18.54-11.38-7.92-49.83-7.92-49.83l33.07-1.62,45,39.57c-.24.7-.48,1.44-.75,2.21C245.72,351.37,191,361.88,178.63,354.28Z" style="fill:#263238"></path><path d="M307.67,394.13c-.22,1-.35,1.56-.35,1.56l-68.91-.81,10.8-52.12Z" style="fill:#263238"></path><path d="M33.09,448.85c-.62,3.4,9.07,5.4,13.38,3.61,1.37-.57,5.36-3.28,10.24-6.75,10.72-7.66,25.62-18.94,25.62-18.94L133,429.83l28.25-52.08s-46.57-2.69-49.77-4.34l-.59-.31c-14.55-7.42-26.66-13.15-28-12.37C79.11,362.78,33.71,445.43,33.09,448.85Z" style="fill:#d3766a"></path><path d="M120.35,374.75,93.71,427.46l-11.38-.69S67.43,438.05,56.7,445.7c-4.87,3.47-8.85,6.19-10.23,6.76-4.31,1.8-14-.22-13.38-3.62s46-86.06,49.74-88.12c1.38-.76,13.49,5,28,12.38l.58.3C112.24,373.81,115.65,374.28,120.35,374.75Z" style="fill:#ebebeb"></path><path d="M32.11,449.52c.63-3.48,47-87.57,50.77-89.65,1.43-.82,14.08,5.22,29.15,13l.47.24L83.21,427.66l-.91-.53s-32.14,24.26-36.56,26.1S31.47,453,32.11,449.52Z" style="fill:#ECEFF1"></path><path d="M35.9,450.37c8.16-14,39.75-71.16,46.75-85.6.06-.12,0-.16-.09,0-8.39,13.68-39.51,71.11-46.89,85.52C35.51,450.54,35.73,450.66,35.9,450.37Z" style="fill:#263238"></path><path d="M79.73,433.62c4.11-5,7-12.3,5.39-18.76-.06-.25-.42-.15-.46.06A89.48,89.48,0,0,1,79,433.2.41.41,0,0,0,79.73,433.62Z" style="fill:#263238"></path><path d="M75.08,436.3c4.12-5,7-12.29,5.39-18.75-.06-.25-.41-.15-.46.06a88.84,88.84,0,0,1-5.62,18.28A.41.41,0,0,0,75.08,436.3Z" style="fill:#263238"></path><path d="M70.43,439c4.12-5,7-12.3,5.4-18.75-.07-.25-.42-.15-.46.06a89.48,89.48,0,0,1-5.63,18.28A.41.41,0,0,0,70.43,439Z" style="fill:#263238"></path><path d="M87.89,447.57c4.23-.52,5.12-5.35,4.45-8.76a33.94,33.94,0,0,0-8-15.63.17.17,0,0,0-.28,0,.79.79,0,0,0-1.18.49c-.83,5.54-2.41,11.37-1.51,17C81.85,444,83.9,448.07,87.89,447.57ZM83.3,432.35c.34-2.73.82-5.44,1.06-8.19a102.3,102.3,0,0,1,4.5,9.24,35.59,35.59,0,0,1,1.56,4.71c.6,2.49.19,10.84-5.39,6.48C82,442.19,82.89,435.62,83.3,432.35Z" style="fill:#263238"></path><path d="M93.57,409.8c-4.5,3.52-7.31,8.86-10.48,13.49a.79.79,0,0,0,.53,1.16.17.17,0,0,0,.19.2,33.93,33.93,0,0,0,16.53-6c2.82-2,5.45-6.18,2.72-9.44C100.47,406.15,96.19,407.75,93.57,409.8Zm5.36-.33c7,.61,1.67,7-.46,8.42a37.59,37.59,0,0,1-4.36,2.39c-3.1,1.49-6.36,2.52-9.58,3.69,1.69-2.18,3.19-4.48,4.8-6.72C91.25,414.59,95,409.14,98.93,409.47Z" style="fill:#263238"></path><path d="M217.84,297.15a280.05,280.05,0,0,1,1.6,28.23s65.47,34.31,68.45,66.92c1.06,11.55-.48,33.19-23.13,43.06-25.31,11-165.17,3.43-165.17,3.43l17.47-64.39,61.69,0s-43.53,6.92-48.26-22.08c-4.39-27,12.17-55.19,12.17-55.19Z" style="fill:#37474f"></path><path d="M114,435.64c1.55-7.42,3-14.88,4.76-22.26s3.56-14.76,5.5-22.1c.55-2.07,1.12-4.13,1.68-6.2.27-1,.54-2,.82-2.95s.52-2,.9-3c0-.11.17-.05.16.06a50.58,50.58,0,0,1-1.11,5.69c-.39,1.79-.76,3.58-1.16,5.37q-1.2,5.52-2.47,11c-1.69,7.36-3.56,14.66-5.48,21.95q-1.62,6.23-3.28,12.43C114.29,435.93,114,435.88,114,435.64Z" style="fill:#263238"></path><path d="M157.45,374.41c5-.36,10-.52,15-.62s10-.05,15,0,10,.36,15,.81a109.75,109.75,0,0,1,14.88,2.15l-3.73-.48-3.73-.36c-2.49-.21-5-.42-7.48-.53-5-.29-10-.49-15-.57s-10-.21-15-.28Z" style="fill:#263238"></path><path d="M156.36,302.43A180.65,180.65,0,0,0,150.54,320,113.87,113.87,0,0,0,147,338a51.75,51.75,0,0,0-.2,9.14,22.79,22.79,0,0,0,2.23,8.69,12.06,12.06,0,0,0,2.67,3.49,21.6,21.6,0,0,0,3.67,2.58,40.75,40.75,0,0,0,8.41,3.38,114,114,0,0,0,18.05,3.28c6.11.71,12.24,1.2,18.38,1.83a133.5,133.5,0,0,1,18.35,2.85,36.38,36.38,0,0,1,8.81,3.25,41.92,41.92,0,0,1,7.67,5.43l1.39,1.24-1.88,0-49.88-.67-24.94-.2c-8.31,0-16.62-.05-24.94.18,8.31-.49,16.63-.62,24.94-.77s16.63-.16,24.95-.18h25l24.94.24-.48,1.21a40.23,40.23,0,0,0-7.4-5.2,34.44,34.44,0,0,0-8.49-3.08,148.14,148.14,0,0,0-18.14-2.8c-6.12-.65-12.26-1.18-18.39-1.92a115.33,115.33,0,0,1-18.26-3.41,39.29,39.29,0,0,1-8.65-3.58,23.16,23.16,0,0,1-3.84-2.78,13.36,13.36,0,0,1-2.87-3.85,23.64,23.64,0,0,1-2.21-9.12,52.52,52.52,0,0,1,.32-9.3,107,107,0,0,1,3.94-18.09A163.79,163.79,0,0,1,156.36,302.43Z" style="fill:#263238"></path><path d="M210.71,296.48a.13.13,0,0,1,.25,0c.25,2.23,1,15,1.42,19.77.14,1.71,0,4.76,2.54,4.76,2,0,3-2.16,3.17-3.83.27-2-.82-16.82-1.08-21.75,0-.14.22-.14.25,0,.9,4.93,2.66,20.62,2.14,22.81a5,5,0,0,1-3.05,4,33,33,0,0,1-.08,5.81c0,.16-.52.2-.56.07h0c.09-1.16-.52-5.62-.51-5.65A3.52,3.52,0,0,1,212,321C210.29,318.65,210.67,302.15,210.71,296.48Z" style="fill:#263238"></path><path d="M203.64,334.25c1.78-1.23,3.63-2.35,5.49-3.45s3.75-2.14,5.65-3.16,3.83-2,5.8-2.87,3.94-1.78,6-2.5c-.93.56-1.88,1.07-2.81,1.62l-2.83,1.57c-1.87,1.06-3.78,2.07-5.68,3.08s-3.81,2-5.75,2.95l-2.91,1.42C205.6,333.35,204.64,333.83,203.64,334.25Z" style="fill:#263238"></path><path d="M157.17,324c3.48,0,14.31.62,19.47-3.74,4.17-3.52,6-15.57,6.73-18.87,0-.17.27-.11.28,0a37.84,37.84,0,0,1-1.4,11.05c-.84,3.06-2,6.46-4.44,8.6s-6.11,3-9.43,3.45a43.45,43.45,0,0,1-11.22-.16A.19.19,0,0,1,157.17,324Z" style="fill:#263238"></path><path d="M220.51,287l-2.34,27-85.5.52s24-67.45,48.06-90.31c9.58-9.1,18.55-6.47,25.42.41,1.57,1.56,20.57,32.51,22.22,43.6C229.72,277.26,220.51,287,220.51,287Z" style="fill:#ECEFF1"></path><path d="M208.57,281.93a68.77,68.77,0,0,0-12.8,1.62c-2.11.51-4.19,1.14-6.27,1.82-1,.35-2.08.64-3.12.93a10.79,10.79,0,0,1-3.31.52c-.1,0-.11.19,0,.2a18.1,18.1,0,0,0,3.12.19,18.83,18.83,0,0,0,3-.48c2.14-.49,4.26-1.1,6.4-1.62,4.31-1,8.62-2.08,13-2.72C208.78,282.36,208.77,281.92,208.57,281.93Z" style="fill:#263238"></path><path d="M218.6,287.66a70.83,70.83,0,0,0-10.44-1.53,48.76,48.76,0,0,0-5.27,0c-.85,0-1.69.09-2.53.16s-1.86.31-2.79.36c-.09,0-.11.2,0,.2.87,0,1.75.15,2.62.19l2.63.13c1.75.09,3.5.21,5.26.28,3.51.14,7,.32,10.5.62C218.76,288.05,218.78,287.7,218.6,287.66Z" style="fill:#263238"></path><path d="M193.5,223.52c0,1.72,5.38,14.13,12.94,15.49,2.47.44,5.46-12.89,5.46-12.89l.45-.94,6.23-13.07L204.77,198l-2-1.92s-1.47,3.7-3.26,8.31c-.08.21-.17.43-.25.66s-.21.5-.3.74c-.28.69-.56,1.39-.82,2.09-.2.54-.4,1.06-.59,1.63s-.4,1.12-.61,1.69A91.69,91.69,0,0,0,193.5,223.52Z" style="fill:#d3766a"></path><path d="M199.49,204.41a29,29,0,0,0,12.86,20.77l6.23-13.07L204.77,198l-2-1.92S201.28,199.8,199.49,204.41Z" style="fill:#263238"></path><path d="M243.1,195.65c-4.33,25.06-19.82,25.3-25.22,24.36-4.91-.85-21.5-4.38-19.79-29.74s14.73-31.28,26-29.93S247.42,170.59,243.1,195.65Z" style="fill:#d3766a"></path><path d="M238.94,188.71c-.57-.17-1.08-.43-1.63-.65a2.9,2.9,0,0,1-1.54-1A.92.92,0,0,1,236,186a2.25,2.25,0,0,1,2.27-.14,3.26,3.26,0,0,1,1.84,1.5A1,1,0,0,1,238.94,188.71Z" style="fill:#263238"></path><path d="M222.4,186a17.07,17.07,0,0,0,1.75-.07,2.84,2.84,0,0,0,1.78-.41.91.91,0,0,0,.18-1.09,2.26,2.26,0,0,0-2.09-.89,3.29,3.29,0,0,0-2.23.8A1,1,0,0,0,222.4,186Z" style="fill:#263238"></path><path d="M224.65,192.93c0-.06-.15.06-.16.14-.19,1.72-.71,3.65-2.35,4,0,0,0,.1,0,.1C224.07,197.17,224.74,194.59,224.65,192.93Z" style="fill:#263238"></path><path d="M223.38,190.92c-2.72-.62-3.75,4.87-1.23,5.45S225.67,191.43,223.38,190.92Z" style="fill:#263238"></path><path d="M222.25,191c-.54.22-1.11.68-1.7.63s-1.08-.73-1.41-1.37c0-.07-.09,0-.11,0-.21,1.05,0,2.2,1.09,2.57s1.92-.46,2.38-1.46C222.58,191.24,222.47,190.92,222.25,191Z" style="fill:#263238"></path><path d="M234.57,194.38c0-.06.11.11.1.18-.39,1.69-.55,3.69.88,4.55,0,0,0,.11,0,.09C233.69,198.57,233.93,195.92,234.57,194.38Z" style="fill:#263238"></path><path d="M236.43,192.91c2.77.33,1.91,5.85-.66,5.54S234.11,192.63,236.43,192.91Z" style="fill:#263238"></path><path d="M237.53,193.45c.39.36.74,1,1.25,1.07s1.14-.39,1.61-.9c.05-.05.09,0,.08.07-.13,1.06-.65,2.11-1.7,2.15s-1.49-1-1.58-2.06C237.17,193.58,237.37,193.3,237.53,193.45Z" style="fill:#263238"></path><path d="M222.65,206.68c.31.49.59,1.13,1.19,1.32a4.4,4.4,0,0,0,1.91,0c.06,0,.1.07.05.11a2.33,2.33,0,0,1-2.35.41,1.84,1.84,0,0,1-1-1.8C222.47,206.61,222.61,206.61,222.65,206.68Z" style="fill:#263238"></path><path d="M230.86,201.77s-.09,2.61-.3,3.81c0,.11-.32.11-.73.07h-.05a5.78,5.78,0,0,1-5.17-3.11.13.13,0,0,1,.21-.13,8.75,8.75,0,0,0,5,2.41c.14-.32,0-4.48.21-4.46a10.75,10.75,0,0,1,2.61,1.1c.36-5.43-.15-10.87.28-16.27a.17.17,0,0,1,.33,0c.94,5.66.67,11.92.45,17.53C233.62,203.39,231.31,202.06,230.86,201.77Z" style="fill:#263238"></path><path d="M228.88,205a6.16,6.16,0,0,1-2.76,1.45,2.81,2.81,0,0,1-1.68-.19c-1.14-.53-1-1.63-.59-2.53a6.55,6.55,0,0,1,.8-1.35A7.91,7.91,0,0,0,228.88,205Z" style="fill:#263238"></path><path d="M226.12,206.45a2.81,2.81,0,0,1-1.68-.19c-1.14-.53-1-1.63-.59-2.53A2.86,2.86,0,0,1,226.12,206.45Z" style="fill:#ff9cbd"></path><path d="M197.45,194.58c4.31.83,6.35-8.18,6.35-8.18s8.83,1,13.2-11.34a19.72,19.72,0,0,1-5.11,10.06s15.77.13,23.81-12.16c0,0-3.37,6.34-6.09,8.42,0,0,6.74-1.08,10.53-6,0,0,1.87,7.84,3.74,10.15,0,0,2.46-27.33-23.13-27.31,0,0-15.93-.75-23,11.12S197.45,194.58,197.45,194.58Z" style="fill:#263238"></path><polygon points="206.93 187.56 200.58 181.51 199.11 183.32 206.08 188.56 206.93 187.56" style="fill:#ECEFF1"></polygon><polygon points="205.66 189.41 198.34 184.58 197.21 186.62 205 190.54 205.66 189.41" style="fill:#ECEFF1"></polygon><path d="M201.74,192.88s-3.34-9.09-7.33-8.09-2.88,13.18.81,15.78a4.3,4.3,0,0,0,6.16-.77Z" style="fill:#d3766a"></path><path d="M194.82,188.27a.06.06,0,0,0,0,.11c2.56,1.91,3.37,5,3.7,8-.58-1.28-1.58-2.17-3.27-1.53-.09,0,0,.17,0,.17a2.63,2.63,0,0,1,2.57,1.64,12.39,12.39,0,0,1,.75,2.63c.07.29.57.27.55,0,0,0,0,0,0-.07C200.14,195.54,198.64,189.67,194.82,188.27Z" style="fill:#263238"></path><path d="M178.7,249.25c2.59,25.34,9.36,70.48,26.69,76.51,11.15,3.88,46.26-19.05,58.28-28.53,4.27-3.36-13.07-36-18.51-34-7.14,2.64-28.08,17.15-29.95,16.57-1.54-.48-7.56-17.54-17.61-36C184.92,220.47,176.57,228.37,178.7,249.25Z" style="fill:#d3766a"></path><path d="M268.85,291.94c-3.91,7.47-15.73,9.48-15.73,9.48l-16.29-31.6s9.23-7,11.94-12.5c.78-1.61,5.24-9.84,9-18.1,4.33-9.37,10.06-18.65,11.21-19.13,2.21-.93,4.81,2.12,3.38,9.12s-6.55,20.17-6.65,21a6.14,6.14,0,0,0,.08.87h0c.16.36,8.41,6.26,8.43,10.85S271.55,286.78,268.85,291.94Z" style="fill:#d3766a"></path><path d="M258.07,261.82s-.26-17.4,1.77-20.4,11.46-22.85,13.65-23.82,4.81,2.12,3.39,9.12-6.55,20.16-6.66,21,2.62,16,2.45,17.42S258.07,261.82,258.07,261.82Z" style="fill:#d3766a"></path><path d="M256.53,252c.4-1.86.87-3.71,1.33-5.56.24-.92.5-1.84.77-2.76.14-.46.28-.91.44-1.37.07-.23.16-.46.25-.69a6.17,6.17,0,0,1,.33-.68c1.75-3.36,3.54-6.74,5.33-10.09s3.61-6.69,5.52-10a12.28,12.28,0,0,1,1.81-2.32,5.13,5.13,0,0,1,1.2-.91,2.39,2.39,0,0,1,1.54-.32,2,2,0,0,1,1.29.86,4.54,4.54,0,0,1,.61,1.35,11.11,11.11,0,0,1,.32,2.86,12.07,12.07,0,0,0-.58-2.77,4.08,4.08,0,0,0-.65-1.2,1.54,1.54,0,0,0-1.06-.61,3,3,0,0,0-2.22,1.19,11.59,11.59,0,0,0-1.58,2.26c-1.73,3.36-3.51,6.75-5.31,10.1s-3.61,6.69-5.55,10a14.39,14.39,0,0,0-1.09,2.56c-.31.89-.6,1.8-.9,2.7Z" style="fill:#263238"></path><path d="M260.78,264.66s-.21-19.07,1.82-22.07,11.47-22.86,13.66-23.83,4.8,2.13,3.39,9.13-6.56,20.16-6.66,21,1,15.7.84,17.17S260.78,264.66,260.78,264.66Z" style="fill:#d3766a"></path><path d="M258.11,255.24c.59-2.27,1.26-4.51,1.93-6.75.36-1.11.72-2.22,1.11-3.33.19-.55.4-1.11.61-1.66a13.32,13.32,0,0,1,.78-1.61q3.31-6.16,6.69-12.31l3.42-6.12.87-1.52a15,15,0,0,1,1-1.53,7.3,7.3,0,0,1,1.27-1.34,3.16,3.16,0,0,1,1.83-.76,1.9,1.9,0,0,1,1,.29,2.45,2.45,0,0,1,.7.74,5.43,5.43,0,0,1,.66,1.75,16.35,16.35,0,0,1,.27,3.55,20.06,20.06,0,0,1-1.42,6.87,21.71,21.71,0,0,0,.93-6.87,16.73,16.73,0,0,0-.4-3.41,4.89,4.89,0,0,0-.62-1.5,1.27,1.27,0,0,0-1.14-.65,2.43,2.43,0,0,0-1.32.64,7,7,0,0,0-1.09,1.21c-.63.9-1.15,2-1.72,3l-3.37,6.15c-2.26,4.08-4.51,8.17-6.87,12.21a12.93,12.93,0,0,0-.8,1.51c-.23.53-.46,1.06-.67,1.6-.43,1.08-.84,2.17-1.24,3.27Z" style="fill:#263238"></path><path d="M260.19,264.53s3.69-16.6,5.58-19.39,7.48-16.76,9.52-17.66,4.47,2,3.15,8.5-2.91,14.24-3,15.06-1.45,13.7-1.61,15.06S260.19,264.53,260.19,264.53Z" style="fill:#d3766a"></path><path d="M259.8,259.8c.84-2.89,1.72-5.77,2.6-8.65.43-1.44.88-2.87,1.34-4.31l.36-1.07a10.06,10.06,0,0,1,.42-1.08c.32-.69.66-1.36,1-2,1.39-2.67,2.84-5.32,4.38-7.91.77-1.29,1.55-2.58,2.36-3.86.41-.63.82-1.27,1.25-1.89a13.4,13.4,0,0,1,1.45-1.86,1.89,1.89,0,0,1,1.34-.57,1.93,1.93,0,0,1,1.31.63,5.68,5.68,0,0,1,1.21,2.14,9.94,9.94,0,0,1,.38,4.69c-.52,3-1.1,5.92-1.68,8.88s-1.16,5.94-1.78,8.82c-.24,1.47-.43,3-.63,4.46s-.44,3-.7,4.46c.06-3,.23-6,.49-9l1.71-8.89c.54-2.95,1.11-5.91,1.59-8.86a8.88,8.88,0,0,0-.32-4.22,4.5,4.5,0,0,0-.95-1.77.82.82,0,0,0-1.32-.05,14,14,0,0,0-1.34,1.7c-.43.6-.84,1.23-1.25,1.85-.81,1.26-1.6,2.54-2.37,3.82-1.54,2.58-3.1,5.15-4.53,7.78-.36.66-.71,1.32-1,2a18.15,18.15,0,0,0-.8,2.07l-1.49,4.25Z" style="fill:#263238"></path><path d="M212.45,268.72l-30.77,22.09s-5.82-41.25-4.11-53.87c1.93-14.19,8.77-10.1,17.11.66S212.45,268.72,212.45,268.72Z" style="fill:#ECEFF1"></path><path d="M207.37,263.93c-4.3,2.28-16.23,10.94-18.21,12.36-1,.74-5.1,3.89-6.15,4.63-.13.09,0,.28.17.19,2-1.4,4.16-2.6,6.18-4s14.47-9.76,18.12-13A.1.1,0,0,0,207.37,263.93Z" style="fill:#263238"></path><path d="M177.81,253.69c0-.17-.27-.13-.26,0,.09,3.54.28,7.08.52,10.61a30.14,30.14,0,0,1-1.15-5.43.07.07,0,0,0-.13,0,24.7,24.7,0,0,0,1.34,6.28q.26,3.69.59,7.38c.58,6.25,1.08,12.53,2,18.74a.43.43,0,0,0,.69.27c1.05-.8,2.07-1.62,3.05-2.5.1-.09,0-.28-.13-.21-1,.52-1.88,1.09-2.81,1.66-.39-6.05-1.09-12.09-1.66-18.13C179.29,266.16,178.65,259.91,177.81,253.69Z" style="fill:#263238"></path><path d="M205.65,254c-.73-1.86-1.45-3.73-2.24-5.57,0,0-.07,0,0,0,.47,1.39,1,2.77,1.5,4.14-1.46-2.55-3-5.07-4.57-7.5,0,0-.08,0-.06,0,1.87,4,4,7.94,6,11.92s3.93,7.78,5.94,11.65c-.62.61-1.26,1.21-1.9,1.8-.13.11,0,.28.16.19.8-.52,1.6-1,2.43-1.52a.42.42,0,0,0,.21-.55C210.77,263.63,208.31,258.73,205.65,254Z" style="fill:#263238"></path></g><g id="freepik--Dog--inject-882"><path d="M345.35,250.9s11.09-10.33,19.08-10.22,27.17,2,40.12,2c12.08,0,13.85,25.26-.86,31.54C390.21,280,365,260,360.19,257.93s-12.44-.38-12.44-.38S344.14,253.44,345.35,250.9Z" style="fill:#ECEFF1"></path><path d="M345.35,250.9s11.09-10.33,19.08-10.22,27.17,2,40.12,2c12.08,0,13.85,25.26-.86,31.54C390.21,280,365,260,360.19,257.93s-12.44-.38-12.44-.38S344.14,253.44,345.35,250.9Z" style="opacity:0.6000000000000001"></path><path d="M331.15,392.82S320.56,423.5,315.35,436a16.39,16.39,0,0,1-3.92,5.31c-.89.88-35.39.12-36,0s3.66-8.41,6.07-9.55,20.6,2.21,20.6,2.21.67-36,.46-37.11a31.38,31.38,0,0,1-.17-4l-.42,5.52a34.4,34.4,0,0,1-1.26-6c-.05-1.89,1.13-20.64,1.13-20.64Z" style="fill:#ECEFF1"></path><path d="M331.15,392.82S320.56,423.5,315.35,436a16.39,16.39,0,0,1-3.92,5.31c-.89.88-35.39.12-36,0s3.66-8.41,6.07-9.55,20.6,2.21,20.6,2.21.67-36,.46-37.11a31.38,31.38,0,0,1-.17-4l-.42,5.52a34.4,34.4,0,0,1-1.26-6c-.05-1.89,1.13-20.64,1.13-20.64Z" style="opacity:0.30000000000000004"></path><path d="M283.46,435.77c-1.79,1.15-3.74,3.42-3,5.68.12-2.28,1.74-3.88,3-5.68Z" style="fill:#263238"></path><path d="M279.92,435.56c-1.79,1.15-3.74,3.42-3,5.68.12-2.28,1.75-3.89,3-5.68Z" style="fill:#263238"></path><path d="M301.39,378.84c3.34,6.53,8.28,13.51,10,15a130,130,0,0,0,15.68,10.72c2.38-6.74,4.09-11.7,4.09-11.7l-29.31-21.15S301.62,374.91,301.39,378.84Z" style="opacity:0.1"></path><path d="M437,413.27l4.72,7c11.48-18.14,19.42-43.55,18.22-64.54-.26-4.54-.69-14.44-2-18.12-1.34-3.86-5.37-8.65-5.71-9a40.53,40.53,0,0,1,3.54,9.76q-.42-1-.9-2c-10.49-21.26-48.53-29-48.53-29s23.49,17.53,32.87,48.74c3.31,11,3.36,23.15,2.34,33.38a93.68,93.68,0,0,0-.36-12.91c-.05.88-1.28,24.38-2.63,30.74-.05.23-.1.44-.15.62s-.07.29-.1.41C437.61,411.45,437,413.27,437,413.27Z" style="fill:#ECEFF1"></path><path d="M437,413.27l4.72,7c11.48-18.14,19.42-43.55,18.22-64.54-.26-4.54-.69-14.44-2-18.12-1.34-3.86-5.37-8.65-5.71-9a40.53,40.53,0,0,1,3.54,9.76q-.42-1-.9-2c-10.49-21.26-48.53-29-48.53-29s23.49,17.53,32.87,48.74c3.31,11,3.36,23.15,2.34,33.38a93.68,93.68,0,0,0-.36-12.91c-.05.88-1.28,24.38-2.63,30.74-.05.23-.1.44-.15.62s-.07.29-.1.41C437.61,411.45,437,413.27,437,413.27Z" style="opacity:0.30000000000000004"></path><path d="M437,413.27l4.72,7c1.46-2.3,2.86-4.72,4.18-7.24l-6.76-9.28c-.18,1.45-.36,2.67-.55,3.56-.05.23-.1.44-.15.62s-.07.29-.1.41C437.61,411.45,437,413.27,437,413.27Z" style="opacity:0.1"></path><path d="M443.76,427.22c-.22,2.9.37,13.9-10.62,13.9H378.79c-7.07,0-56.79-40.83-65.18-50.3S297.88,370,297,360.87c-2.57-27.15,19.11-68.33,19.11-68.33s-18-12.79-24-20.94-4.66-25.71-3.16-27.25,31.66,12.15,31.66,12.15,11.64-7.94,19.15-10,33.12,19.44,36.46,26.65.12,19.24-3.67,26a37.56,37.56,0,0,1-9.08,10.68,14.15,14.15,0,0,0,.3,6c1,3.29,26.67,38.55,31.35,42s30.58,13,36.27,22.69S444.89,411.93,443.76,427.22Z" style="fill:#ECEFF1"></path><path d="M443.76,427.22c-.22,2.9.37,13.9-10.62,13.9H378.79c-7.07,0-56.79-40.83-65.18-50.3S297.88,370,297,360.87c-2.57-27.15,19.11-68.33,19.11-68.33s-18-12.79-24-20.94-4.66-25.71-3.16-27.25,31.66,12.15,31.66,12.15,11.64-7.94,19.15-10,33.12,19.44,36.46,26.65.12,19.24-3.67,26a37.56,37.56,0,0,1-9.08,10.68,14.15,14.15,0,0,0,.3,6c1,3.29,26.67,38.55,31.35,42s30.58,13,36.27,22.69S444.89,411.93,443.76,427.22Z" style="opacity:0.2"></path><path d="M402.11,361.5c.77,9.43,5.5,23.28,12.58,31.18s21.51,9.25,25.54,9.44a103.14,103.14,0,0,0-8.86-21.66C427.13,373.21,411.65,366.09,402.11,361.5Z" style="opacity:0.2"></path><path d="M394.91,365.65c-.83,3.66-8.22,4.25-11.76,2.67s-5.56-7.13-2.65-10.54S395.92,361.21,394.91,365.65Z" style="opacity:0.2"></path><path d="M368.75,336.41c.19,4.49,4.1,11.7,8.34,13.15a9.75,9.75,0,0,0,9.28-1.88C381.63,341.63,376,334,371.5,327.63,369.55,329.07,368.6,333.09,368.75,336.41Z" style="opacity:0.2"></path><path d="M315.87,324.49a32.94,32.94,0,0,1-.79-10.65.31.31,0,0,0-.54-.22c-.54.57-2,2.19-2.25,2.44,0-.21,0-.42,0-.63.06-.73.15-1.44.28-2.15a26.26,26.26,0,0,1,1.12-4.2,25,25,0,0,1,1.81-3.94c.73-1.28,1.6-2.45,2.43-3.67,0-.05-.06-.12-.11-.08a16.87,16.87,0,0,0-3,3.48,23.25,23.25,0,0,0-2.11,3.85,22.21,22.21,0,0,0-1.35,4.21c-.16.75-.28,1.51-.37,2.27a6.3,6.3,0,0,0,0,2.25c.12.49.84.42,1,.07.13-.2,2-2.53,2.31-2.87a23.52,23.52,0,0,0,0,4.52,23.15,23.15,0,0,0,1.2,5.36C315.64,324.69,315.9,324.64,315.87,324.49Z" style="opacity:0.1"></path><path d="M363.93,308.41c.47.19,1.48.57,2.88,1.08Z" style="opacity:0.1"></path><path d="M380.06,434.79s1.45,5.14.33,6.26-48.28.55-48.36,0,7.25-10.49,11.88-11,19.46,3.79,19.46,3.79S336.26,400.12,344.21,380c3.5-8.88,24.47-12.32,51.35-1.48,24.43,9.86,18.54,53.69,5.14,58.5S380.06,434.79,380.06,434.79Z" style="fill:#ECEFF1"></path><path d="M380.06,434.79s1.45,5.14.33,6.26-48.28.55-48.36,0,7.25-10.49,11.88-11,19.46,3.79,19.46,3.79S336.26,400.12,344.21,380c3.5-8.88,24.47-12.32,51.35-1.48,24.43,9.86,18.54,53.69,5.14,58.5S380.06,434.79,380.06,434.79Z" style="opacity:0.2"></path><path d="M393.85,377.66c-12.09-4.88-37.25-11.73-47.68-1.37-8.36,8.85-2.66,24.33,1.95,33.81a132.74,132.74,0,0,0,15.25,23.74c-2.76-3.81-5.37-7.72-7.78-11.75-6.53-11-18.39-32.66-9.22-44.42,9.52-10.82,35.48-4.14,47.48,0Z" style="fill:#263238"></path><path d="M388.84,374.12a17.52,17.52,0,0,0-8.11-.46,78.41,78.41,0,0,0,8.11.46Z" style="fill:#263238"></path><path d="M380.24,441.12a.93.93,0,0,0,.59-.81,14.6,14.6,0,0,0,.1-3.1,58,58,0,0,0-1.65-10.13c-.18-.66-.34-1.33-.55-2,.08.68.19,1.35.27,2,.19,1.28.73,4.75.93,6.07.29,2,.64,4,.75,6.08,0,.62.2,1.47-.44,1.84Z" style="fill:#263238"></path><path d="M380.18,426c-.23,1.17-.34,2.39-.47,3.56-.35,2.54.63-.16.69-1.12a5.47,5.47,0,0,0-.22-2.44Z" style="fill:#263238"></path><path d="M341.56,435.77c-1.79,1.15-3.74,3.42-3,5.68.13-2.28,1.75-3.88,3-5.68Z" style="fill:#263238"></path><path d="M338,435.56c-1.79,1.15-3.74,3.42-3,5.68.13-2.28,1.75-3.89,3-5.68Z" style="fill:#263238"></path><path d="M313.12,354.07s-18.82-16-24.23-26.65a230,230,0,0,1-13.78-36.31c-.56-2.19-2.31-30.34-1.33-32s7.36,1.91,10.75,6.5c1.85,2.5.34,16.19,1.31,19.5.71,2.44,17.41,22,18.69,23.33s15.89,9.25,27,13.85" style="fill:#ECEFF1"></path><g style="opacity:0.2"><path d="M313.12,354.07s-18.82-16-24.23-26.65a230,230,0,0,1-13.78-36.31c-.56-2.19-2.31-30.34-1.33-32s7.36,1.91,10.75,6.5c1.85,2.5.34,16.19,1.31,19.5.71,2.44,17.41,22,18.69,23.33s15.89,9.25,27,13.85"></path></g><path d="M277.65,266.33c-.37-2.42-1.84-5.52-4.56-5.79,2.34,1.2,3.26,3.65,4.56,5.79Z" style="fill:#263238"></path><path d="M281.3,263.61c-1-2.29-3.41-5.28-6.23-4.81,2.72.55,4.32,3,6.23,4.81Z" style="fill:#263238"></path><path d="M297.69,339.18c4.55,3.73,8.34,8.16,12.48,12.29-5-3.06-8.95-7.64-12.48-12.29Z" style="fill:#263238"></path><path d="M303.25,345.33a15.67,15.67,0,0,1,3.18,5.93,8.83,8.83,0,0,1-3.18-5.93Z" style="fill:#263238"></path><path d="M320.19,317.09a51.13,51.13,0,0,1-14.27-7.68,85.28,85.28,0,0,1,14.27,7.68Z" style="fill:#263238"></path><path d="M312.67,313a9.31,9.31,0,0,1,6.93,1.56,19.64,19.64,0,0,1-6.93-1.56Z" style="fill:#263238"></path><path d="M288,242.84c-1.31,1-.79,9.53,1.45,11.42s10.76-2.24,11.34-4.45S289.63,241.57,288,242.84Z" style="fill:#263238"></path><path d="M289.92,252.31c.29,2.89.3,11.88,3.33,12.87,2.65.78,5.44-1,7.62-2.41-2.09,1.72-4.93,3.73-7.8,2.92-3.61-1.22-3.27-10.17-3.15-13.38Z" style="fill:#263238"></path><path d="M288.35,259.14a11.26,11.26,0,0,0,.84,3c-.07,0-.13,0-.11,0,.61-2.84.4-5.83.85-8.73a35.9,35.9,0,0,1,.06,6.22,7.55,7.55,0,0,1-.57,2.78c-1,.9-1.06-2.73-1.07-3.26Z" style="fill:#263238"></path><path d="M335.09,257c7.41,2.39,9.3,9.28,7.16,15.92a11.69,11.69,0,0,1-15,7.16c-7.1-2.3-9.42-10.17-7.79-15.22A12.28,12.28,0,0,1,335.09,257Z" style="opacity:0.2"></path><path d="M327.87,260.46c4.21.68,5.8,4.25,5.2,8a6.39,6.39,0,0,1-7.53,5.12,6.81,6.81,0,0,1-5.48-7.58A6.72,6.72,0,0,1,327.87,260.46Z" style="fill:#263238"></path><path d="M327.34,261.19c4,.63,5.45,4,4.88,7.53a6,6,0,0,1-7.07,4.82,6.41,6.41,0,0,1-5.16-7.13A6.33,6.33,0,0,1,327.34,261.19Z" style="fill:#fff"></path><path d="M326,261.77c3.23.52,4.45,3.26,4,6.15a4.9,4.9,0,0,1-5.78,3.93A5.23,5.23,0,0,1,320,266,5.17,5.17,0,0,1,326,261.77Z" style="fill:#263238"></path><path d="M363.88,310.05s9.62-9.26,10.82-9.73,7.22,2.55,7.75,4.73-18.54,6.38-18.54,6.38Z" style="fill:#455a64"></path><path d="M367.39,310.62l-.79.2c-.42-.74-.83-1.46-1.25-2.17l.58-.55C366.42,308.92,366.9,309.76,367.39,310.62Zm5.66-3.67c-.7-1.22-1.39-2.39-2.08-3.54-.2.17-.39.36-.59.54.67,1.11,1.35,2.26,2,3.44l.39.67c.19.33.38.66.56,1l.78-.21c-.23-.42-.46-.83-.7-1.22S373.18,307.17,373.05,307Zm5.95-3.17-.39-.67c-.42-.73-.85-1.46-1.28-2.16a12.06,12.06,0,0,0-1.18-.45c.6,1,1.21,2,1.82,3.06.12.22.26.44.39.66.51.88,1,1.78,1.52,2.7.26-.11.5-.21.72-.32C380.07,305.64,379.54,304.7,379,303.78Zm.78-1.51-1.17.84c-.21.15-.43.29-.64.45q-2.34,1.63-4.92,3.39l-.65.44c-1.54,1-3.16,2.1-4.81,3.18l2.29-.57c1-.65,2-1.3,2.91-1.94l.64-.43c1.73-1.17,3.38-2.31,4.93-3.41.22-.14.43-.29.64-.44l1.46-1C380.24,302.58,380,302.43,379.78,302.27Z" style="fill:#37474f"></path><path d="M363.88,310.05s10.22-9.77,12.36-8.29S365.7,309.38,363.88,310.05Z" style="opacity:0.30000000000000004"></path><path d="M364.44,310.35s10.09,3.16,10.93,3.74c1.56,1.1.82,5-.49,6.18s-11.39-9.36-11.39-9.36Z" style="fill:#455a64"></path><path d="M376.11,315.22l-1.4-.32-.75-.17c-.09.25-.17.49-.24.74.25.07.51.12.76.18l1.76.4A4.36,4.36,0,0,0,376.11,315.22Zm-1.63.43.23-.75c.11-.34.22-.65.32-1l-.72-.29c-.12.37-.23.74-.35,1.11s-.17.49-.24.74c-.41,1.24-.83,2.5-1.28,3.77l.66.47C373.58,318.34,374,317,374.48,315.65Z" style="fill:#37474f"></path><path d="M367.9,314.07c-.1.31-.21.62-.31.94l-.62-.6c.06-.18.12-.36.17-.53l-1-.25c-.4-.38-.77-.76-1.1-1.09l2.31.6c.19-.57.36-1.12.54-1.67l.74.23c-.17.54-.35,1.08-.53,1.62,2,.51,4,1,5.82,1.41-.09.25-.17.49-.24.74C371.87,315,369.92,314.57,367.9,314.07Z" style="fill:#37474f"></path><path d="M364.44,310.35s10.73,3.31,10.53,5.37S365.6,311.36,364.44,310.35Z" style="opacity:0.30000000000000004"></path><path d="M314.66,292.63c-.82,1.77,21.65,34.06,24.76,34.9,2.32.63,25.28-14.71,25.49-17.66.09-1.24-2.63-.28-21.13-6.07C335.2,301.12,315.32,291.2,314.66,292.63Z" style="fill:#455a64"></path><path d="M320.38,294.21s0,0,0,0l-.72-.27,0,0-.41,1.13.71.33C320.1,295,320.24,294.59,320.38,294.21Zm-.69,1.91-.71-.32c-.37,1-.75,2-1.15,3.05l.51.82C318.81,298.46,319.26,297.27,319.69,296.12Zm3.77,8.88c.1-.24.19-.48.29-.71h0c.75-1.88,1.44-3.71,2.09-5.46l.27-.73c.15-.44.31-.86.46-1.28l-.73-.31c-.15.41-.3.85-.45,1.27l-.27.74c-.65,1.76-1.34,3.59-2.09,5.47-.09.24-.18.48-.29.72s-.27.69-.41,1c.17.25.35.5.52.77C323.06,306,323.27,305.5,323.46,305Zm12.5,5-.73-.28q-1.05,2.67-2.23,5.45c.24.09.48.19.73.27C334.52,313.58,335.26,311.76,336,310Zm0,0-.73-.28q-1.05,2.67-2.23,5.45c.24.09.48.19.73.27C334.52,313.58,335.26,311.76,336,310Zm0,0-.73-.28q-1.05,2.67-2.23,5.45c.24.09.48.19.73.27C334.52,313.58,335.26,311.76,336,310Zm-6.28-2.42c.1-.24.2-.48.29-.73.74-1.89,1.43-3.73,2.08-5.49.08-.24.17-.48.26-.72q.21-.6.42-1.17l-.72-.31c-.14.39-.29.78-.42,1.18l-.27.74q-1,2.64-2.08,5.48c-.09.24-.19.48-.29.72q-1,2.48-2.06,5c.15.22.32.45.48.67l.05.08,0-.05Q328.63,310.25,329.68,307.57ZM336,310l-.73-.28q-1.05,2.67-2.23,5.45c.24.09.48.19.73.27C334.52,313.58,335.26,311.76,336,310Zm0,0-.73-.28q-1.05,2.67-2.23,5.45c.24.09.48.19.73.27C334.52,313.58,335.26,311.76,336,310Zm0,0-.73-.28q-1.05,2.67-2.23,5.45c.24.09.48.19.73.27C334.52,313.58,335.26,311.76,336,310ZM332,319.3c.48-1.06.94-2.12,1.39-3.15l.3-.72c.79-1.85,1.53-3.67,2.23-5.44.1-.25.19-.49.28-.74.74-1.9,1.43-3.75,2.06-5.5l.27-.73.34-1-.72-.29-.36,1c-.08.24-.17.49-.26.74-.63,1.75-1.32,3.6-2.06,5.5-1.82-.68-3.68-1.39-5.54-2.14-.09.25-.19.49-.29.73,1.87.75,3.72,1.45,5.55,2.14q-1.05,2.67-2.23,5.45c-.1.24-.2.47-.31.71-.38.9-.77,1.8-1.18,2.71h0C331.69,318.82,331.86,319.06,332,319.3Zm5.34,4.57c.83-1.81,1.64-3.62,2.39-5.42,1.94.69,3.83,1.33,5.66,1.94.1-.24.19-.48.29-.71-1.82-.61-3.71-1.26-5.65-1.94.79-1.86,1.52-3.7,2.21-5.47.09-.25.19-.5.29-.73.73-1.92,1.41-3.78,2-5.54.09-.25.17-.49.26-.73l.35-1v0l-.7-.19,0,0c-.11.33-.23.66-.35,1s-.17.49-.26.74c-.62,1.75-1.3,3.6-2,5.52-1.83-.63-3.69-1.31-5.59-2-.09.25-.18.49-.28.74,1.9.7,3.76,1.38,5.58,2-.68,1.78-1.42,3.61-2.21,5.47-.09.24-.19.47-.29.71-.76,1.79-1.56,3.6-2.4,5.41-.11.24-.21.47-.33.7h0c0,.06-.07.13-.1.2l.56.64.28-.58C337.16,324.34,337.27,324.1,337.38,323.87Zm8.79-3.23.29-.72c.78-1.88,1.5-3.72,2.19-5.51.09-.24.18-.48.28-.72.73-1.94,1.4-3.81,2-5.56.09-.25.17-.49.25-.73l.43-1.26-.74-.22-.42,1.24c-.09.23-.17.48-.26.73-.61,1.75-1.29,3.62-2,5.55-.09.24-.19.49-.29.73q-1,2.68-2.18,5.51c-.1.23-.19.47-.29.71q-1.12,2.69-2.37,5.44c-.06.14-.13.27-.19.42l.56-.3.56-.3Q345.13,323.12,346.17,320.64Zm8.89-4.19c.08-.25.18-.5.27-.73.73-2,1.39-3.83,2-5.58.08-.24.17-.49.24-.73l.54-1.59-.76-.19c-.16.51-.34,1-.52,1.55-.08.24-.16.49-.25.73q-.9,2.64-2,5.59c-.1.23-.19.47-.27.71-.48,1.28-1,2.6-1.52,3.94l1.15-.79ZM364,311.3c.18-.56.42-1.39.61-2a5.84,5.84,0,0,0-.75-.25c-.19.6-.41,1.41-.61,2-.08.24-.16.49-.25.74s-.18.53-.27.81l.72-.68.51-.53h0Zm-44.72-16.24c-1.54-.71-3.08-1.44-4.6-2.19,0,.06,0,.13,0,.2s.05.16.08.25a6.48,6.48,0,0,0,.26.61c1.31.64,2.63,1.26,4,1.87ZM364,311.3l-.75-.22c-1.74-.5-3.63-1.05-5.66-1.67l-.74-.23c-1.79-.55-3.66-1.14-5.63-1.78l-.73-.24c-1.81-.6-3.68-1.22-5.6-1.89l-.74-.26c-1.81-.63-3.67-1.29-5.55-2l-.74-.28c-1.81-.67-3.66-1.38-5.52-2.11l-.72-.3c-1.82-.71-3.65-1.47-5.48-2.24l-.72-.32c-1.82-.76-3.62-1.56-5.43-2.38-.09.24-.19.49-.27.73,1.81.83,3.62,1.62,5.43,2.39l.72.31c1.84.78,3.66,1.53,5.48,2.25q-1,2.64-2.08,5.48l.73.29c.74-1.89,1.43-3.73,2.08-5.49q2.79,1.11,5.52,2.13c-.63,1.75-1.32,3.6-2.06,5.5-1.82-.68-3.68-1.39-5.54-2.14-.09.25-.19.49-.29.73,1.87.75,3.72,1.45,5.55,2.14l.73.28c1.9.7,3.76,1.38,5.58,2l.74.26c1.93.67,3.81,1.3,5.62,1.9.1-.24.2-.49.29-.73q-2.73-.9-5.62-1.9c.73-1.92,1.41-3.78,2-5.54q2.88,1,5.6,1.89c-.61,1.75-1.29,3.62-2,5.55l.74.25c.73-1.94,1.4-3.81,2-5.56,2,.65,3.85,1.24,5.63,1.78l.75.23c2,.62,3.91,1.18,5.65,1.68l.45.13.51-.53h0l.08-.09Zm-22.14,0c-1.83-.63-3.69-1.31-5.59-2,.74-1.9,1.43-3.75,2.06-5.5,1.89.7,3.75,1.36,5.56,2C343.24,307.5,342.56,309.35,341.83,311.27Zm13.5,4.45-.74-.22q-2.7-.84-5.66-1.81l-.74-.25q-2.73-.9-5.62-1.9l-.73-.26h0c-1.83-.63-3.69-1.31-5.59-2l-.73-.27c-1.82-.68-3.68-1.39-5.54-2.14l-.73-.29q-2.73-1.1-5.49-2.27h0L323,304l-2.66-1.17.21.32c.2.29.4.59.59.89l1.57.68.72.3q2.76,1.19,5.49,2.27c.24.11.5.21.73.3,1.87.75,3.72,1.45,5.55,2.14l.73.28c1.9.7,3.76,1.38,5.58,2l.74.26c1.93.67,3.81,1.3,5.62,1.9l.75.24q3,1,5.67,1.8l.74.24,2.08.63.78-.57Zm-8.87,4.2-.74-.24c-1.82-.61-3.71-1.26-5.65-1.94.79-1.86,1.52-3.7,2.21-5.47l-.74-.26c-.68,1.78-1.42,3.61-2.21,5.47q-2.74-1-5.6-2.05c-.25-.08-.49-.18-.73-.27-1.83-.69-3.69-1.41-5.56-2.17l-.07,0,.05.08.79,1.09q2.27.9,4.48,1.74l.74.28c1.9.71,3.77,1.4,5.61,2,.24.1.48.18.73.26,1.94.69,3.83,1.33,5.66,1.94l.74.25c1.35.45,2.68.88,4,1.28l.83-.55C349.51,320.91,348,320.43,346.46,319.92Zm-3.4,5.91c-1.84-.62-3.75-1.27-5.68-2l-.74-.27L335,323c.34.42.67.81,1,1.18h0l.38.12h0l.74.26c1.85.66,3.65,1.29,5.42,1.88l.39-.2.56-.3Z" style="fill:#37474f"></path><path d="M351.42,321.07c-5.55,3.68-10.94,6.74-12,6.46-2.53-.69-17.9-22.22-23.08-31.15,5.6,8.49,22,27.55,24.5,28.16C342.54,325,349.39,322,351.42,321.07Z" style="opacity:0.1"></path><path d="M371.42,269s14.65,3.87,18.82,10.69,12.78,24.06,19.7,35c6.46,10.21-14,25.18-27.14,16.09-12.06-8.34-8.61-40.37-9.41-45.49s-6.31-10.73-6.31-10.73S368.63,269.33,371.42,269Z" style="fill:#ECEFF1"></path><path d="M371.42,269s14.65,3.87,18.82,10.69,12.78,24.06,19.7,35c6.46,10.21-14,25.18-27.14,16.09-12.06-8.34-8.61-40.37-9.41-45.49s-6.31-10.73-6.31-10.73S368.63,269.33,371.42,269Z" style="opacity:0.5"></path></g><g id="freepik--speech-bubbles--inject-882"><path d="M88.75,125.16a35.54,35.54,0,0,0,59.4,22.49l17.79,2.61L157,134.88a35.56,35.56,0,1,0-68.29-9.72Z" style="fill:#fff"></path><path d="M99.39,95.8a35.46,35.46,0,0,1,29.79-9.89,36,36,0,0,1,15.18,5.69,36.39,36.39,0,0,1,11.13,11.86,36,36,0,0,1,2.19,31.69l0-.61,8.85,15.4.65,1.14-1.29-.2-17.77-2.72.42-.13a35.87,35.87,0,0,1-17.59,8.68,31.21,31.21,0,0,1-4.92.51,34,34,0,0,1-4.94-.09,35.94,35.94,0,0,1-18.15-7.06,40.4,40.4,0,0,1-3.75-3.18,37.88,37.88,0,0,1-3.22-3.71A35.75,35.75,0,0,1,99.39,95.8ZM96,143.1a39,39,0,0,0,3.24,3.67,40,40,0,0,0,3.75,3.14,33.09,33.09,0,0,0,8.58,4.62,34.06,34.06,0,0,0,14.36,2.1,31.26,31.26,0,0,0,4.82-.59,34.94,34.94,0,0,0,17-8.77l.17-.16.25,0,17.8,2.5-.63.94-9-15.35-.17-.29.13-.32a35.5,35.5,0,0,0,2.51-15.49,35.1,35.1,0,0,0-4.52-15,36.44,36.44,0,0,0-10.64-11.6,35,35,0,0,0-14.68-5.81,35.44,35.44,0,0,0-15.81,1.19A35.14,35.14,0,0,0,96,143.1Z" style="fill:#263238"></path><path d="M110.61,127.77A41.63,41.63,0,0,0,124,139.37a41.66,41.66,0,0,0,13.36-11.6c4.7-6.23,4.47-16-2.26-18.09-7.44-2.33-11.1,8.87-11.1,8.87s-3.72-11.28-11.11-8.87C106.16,111.86,105.9,121.54,110.61,127.77Z" style="fill:#ECEFF1"></path></g></svg>
