<svg xmlns="http://www.w3.org/2000/svg" viewBox="0 0 500 500"><g id="freepik--background-complete--inject-747"><path d="M160.24,42.46c43.43-.67,91.71-.65,135.17,0-43.47.64-91.73.66-135.17,0Z" style="fill:#ebebeb"></path><path d="M144.94,60.77c44.75-.66,94.49-.65,139.26,0-44.78.65-94.5.66-139.26,0Z" style="fill:#ebebeb"></path><path d="M174.24,42.46a81.83,81.83,0,0,1,0,18.31,81.24,81.24,0,0,1,0-18.31Z" style="fill:#ebebeb"></path><path d="M242.41,42.46a81.83,81.83,0,0,1,0,18.31,81.24,81.24,0,0,1,0-18.31Z" style="fill:#ebebeb"></path><path d="M208.32,60.69a81.33,81.33,0,0,1,0,18.32,81.92,81.92,0,0,1,0-18.32Z" style="fill:#ebebeb"></path><path d="M207.5,317.05c43.43-.66,91.7-.65,135.16,0-43.46.65-91.72.66-135.16,0Z" style="fill:#ebebeb"></path><path d="M175.09,335.36c44.75-.66,94.49-.64,139.26,0-44.78.65-94.5.67-139.26,0Z" style="fill:#ebebeb"></path><path d="M337.25,298.86c27.91-.66,58.79-.66,86.71,0-27.92.66-58.8.66-86.71,0Z" style="fill:#ebebeb"></path><path d="M367.93,317.05c27.91-.66,58.8-.66,86.72,0-27.92.66-58.8.66-86.72,0Z" style="fill:#ebebeb"></path><path d="M242.44,317.05a81.83,81.83,0,0,1,0,18.31,81.24,81.24,0,0,1,0-18.31Z" style="fill:#ebebeb"></path><path d="M310.64,317.05a81.83,81.83,0,0,1,0,18.31,81.24,81.24,0,0,1,0-18.31Z" style="fill:#ebebeb"></path><path d="M378.84,317.05a81.83,81.83,0,0,1,0,18.31,81.24,81.24,0,0,1,0-18.31Z" style="fill:#ebebeb"></path><path d="M447,317.05a81.83,81.83,0,0,1,0,18.31,81.83,81.83,0,0,1,0-18.31Z" style="fill:#ebebeb"></path><path d="M208.32,335.29a81.24,81.24,0,0,1,0,18.31,81.83,81.83,0,0,1,0-18.31Z" style="fill:#ebebeb"></path><path d="M276.63,335.29a81.24,81.24,0,0,1,0,18.31,81.83,81.83,0,0,1,0-18.31Z" style="fill:#ebebeb"></path><path d="M413.26,298.35a81.92,81.92,0,0,1,0,18.32,81.33,81.33,0,0,1,0-18.32Z" style="fill:#ebebeb"></path><path d="M213.25,169.75c44.75-.66,94.49-.65,139.27,0-44.79.65-94.51.67-139.27,0Z" style="fill:#ebebeb"></path><path d="M261.47,188.07c30.06-.67,63.5-.65,93.59,0-30.1.65-63.52.66-93.59,0Z" style="fill:#ebebeb"></path><path d="M310.72,151.44a81.83,81.83,0,0,1,0,18.31,81.83,81.83,0,0,1,0-18.31Z" style="fill:#ebebeb"></path><path d="M276.63,169.75a81.33,81.33,0,0,1,0,18.32,81.92,81.92,0,0,1,0-18.32Z" style="fill:#ebebeb"></path><path d="M344.8,169.75a81.33,81.33,0,0,1,0,18.32,81.33,81.33,0,0,1,0-18.32Z" style="fill:#ebebeb"></path><path d="M192.22,241.08c19.26-.68,38.66-.68,57.93,0-19.27.67-38.67.67-57.93,0Z" style="fill:#ebebeb"></path><path d="M178.67,259.39c30.07-.66,63.5-.65,93.59,0-30.09.65-63.52.67-93.59,0Z" style="fill:#ebebeb"></path><path d="M208.35,222.76a81.33,81.33,0,0,1,0,18.32,81.92,81.92,0,0,1,0-18.32Z" style="fill:#ebebeb"></path><path d="M242.44,241.08a81.83,81.83,0,0,1,0,18.31,81.24,81.24,0,0,1,0-18.31Z" style="fill:#ebebeb"></path><rect x="71.34" y="79.01" width="95.45" height="132.13" style="fill:#ebebeb"></rect><rect x="75.15" y="82.38" width="87.83" height="125.38" style="fill:#fff"></rect><rect x="88.8" y="95.65" width="60.54" height="98.85" style="fill:#ebebeb"></rect><rect x="166.79" y="79.01" width="2.45" height="132.13" style="fill:#dbdbdb"></rect><path d="M287.42,42.46V270H442.59V42.46ZM436.91,264.35H293.1V48.13H436.91Z" style="fill:#ebebeb"></path><rect x="293.1" y="48.13" width="143.82" height="216.21" style="fill:#fff"></rect><rect x="293.09" y="157.95" width="143.82" height="5.67" transform="translate(730 321.58) rotate(180)" style="fill:#ebebeb"></rect><rect x="276.97" y="270.02" width="176.07" height="16.29" transform="translate(730 556.33) rotate(180)" style="fill:#dbdbdb"></rect><path d="M293.09,48.13H436.91V193.91H293.09Zm138.56,5.25H298.35V188.65h133.3Z" style="fill:#dbdbdb"></path><rect x="388.15" y="48.13" width="2.84" height="140.53" style="fill:#dbdbdb"></rect><rect x="339.01" y="48.13" width="2.84" height="140.53" style="fill:#dbdbdb"></rect></g><g id="freepik--character-2--inject-747"><path d="M347.37,234c-2.48,1.4-3.77,4.16-2,7.76,0,0-2.57,2.71-3.1,5.19-.74,3.43-.08,8.24,2.71,10.67a11.34,11.34,0,0,0-.71,14.17,10.09,10.09,0,0,0,1.41,1.51c.72.62,1.79,1.1,2.2,2a9.27,9.27,0,0,1,.29,3.07,11.45,11.45,0,0,0,.38,2.39c.62,2,2.61,3.89,4.74,3.38-.45,2.82,1.6,5.44,4,6.86a12.48,12.48,0,0,0,10.33,1,8.56,8.56,0,0,0,11.2,4.36,7.61,7.61,0,0,0,11.32,1.55c6.42,6.57,12,.24,12.64.25a8.52,8.52,0,0,0,7.12,1.49,6.43,6.43,0,0,0,4.72-5.84c1-.07,10.44-.58,9.91-9.55a12.2,12.2,0,0,0,9.17-15.79c3.51-.34,6.24-3.26,7.2-6.58,1.17-4-.24-8.24-2-11.9a6.15,6.15,0,0,0,4.25-6.76,6.79,6.79,0,0,0-4.08-5.06c.43-2.46.41-5.13-1.07-7.22a5.67,5.67,0,0,0-5.62-2.47,8.44,8.44,0,0,0-11.28-8.65,10.05,10.05,0,0,0-14-12.1,9,9,0,0,0-6.26-7.6c-4-1.32-8.33.08-11.63,2.45a9,9,0,0,0-9.32-3.5,11.62,11.62,0,0,0-7.26,5.75c.59-3.32,2.36-6.2,6-7.26,4.31-1.25,8.48,1.22,10.62,4.91,0,0,.07,0,.06,0-1.89-4.26-6.23-6.91-10.91-5.62-4.53,1.24-6.69,5.33-6.81,9.64A10.5,10.5,0,0,0,355,215.66C346,216.52,340.18,227.14,347.37,234Zm56.68,64.34.28,0a9.34,9.34,0,0,0,2.3.21,8.9,8.9,0,0,0,4.83-1.77,8.68,8.68,0,0,0,1.76-1.77c.26-.37.72-1.18.72-1.18h.36a6.77,6.77,0,0,1-5.82,5.25A8.21,8.21,0,0,1,404.05,298.29ZM438.88,239v0a5.67,5.67,0,0,1,3.67,4.34c.55,3.19-1.36,5-3.85,6.34l-.09-.2a6.52,6.52,0,0,0,2.39-7.09A7.24,7.24,0,0,0,438.88,239Zm-87.54-21.47a11.78,11.78,0,0,0-3.62,16l-.07.08C342.19,227.12,345.41,220.83,351.34,217.53Z" style="fill:#263238"></path><path d="M328.69,277.34c-49.4,32.12-102.77,89-106.25,124-3.43,34.57,21.86,27.69,25.21,26.93,35.47-8.06,79.19-95.87,97.69-133.77C363.71,256.9,340.91,269.4,328.69,277.34Z" style="fill:#ad6359"></path><path d="M250.13,343.43,302.69,377s38.45-60.37,48.35-88.92-1.86-28.54-29.2-7.73S250.13,343.43,250.13,343.43Z" style="fill:#ECEFF1"></path><path d="M279.91,322a4.61,4.61,0,0,0-1.67-1.86,4.42,4.42,0,0,0-2.25-.67h0l-3.56,3.24a4.43,4.43,0,0,0,1.79-.85,3.51,3.51,0,0,1,3.37-.46,5.25,5.25,0,0,1,1.61,1.15,17.74,17.74,0,0,0,1.74,1.49C280.63,323.33,280.24,322.7,279.91,322Zm38.63-37.29a4.4,4.4,0,0,0-.8-1.14l-1,.81a4.8,4.8,0,0,1,1.12.9,20.69,20.69,0,0,0,1.74,1.49C319.26,286.05,318.87,285.42,318.54,284.71Zm3.63,39.69a4.58,4.58,0,0,0-3.88-3.31A3.48,3.48,0,0,1,315.6,319a4.45,4.45,0,0,1-.31-1.94c-.08-.76-.08-1.5-.18-2.27-.3.69-.48,1.44-.72,2.16a4.3,4.3,0,0,0-.14,2.48,4.5,4.5,0,0,0,3.79,3.46,3.54,3.54,0,0,1,2.78,2,4,4,0,0,1,.38,1.92c.07.78.07,1.52.19,2.28.28-.71.47-1.44.71-2.16A4.29,4.29,0,0,0,322.17,324.4ZM297.87,345a4.48,4.48,0,0,0-5.95,3.63,3.53,3.53,0,0,1-2,2.8,4.13,4.13,0,0,1-1.9.39c-.75.07-1.52,0-2.3.15.74.32,1.45.51,2.18.75a4.69,4.69,0,0,0,2.53.07,4.62,4.62,0,0,0,3.31-3.89,3.4,3.4,0,0,1,2.06-2.69,4.7,4.7,0,0,1,1.95-.34c.73,0,1.51,0,2.26-.15C299.31,345.46,298.59,345.27,297.87,345Z" style="fill:#fff"></path><path d="M351,288.11C341.13,316.66,302.68,377,302.68,377L284.6,365.46l69.62-95.68C355.05,273.39,354.05,279.43,351,288.11Z" style="opacity:0.1"></path><path d="M262,335.85C282,351.6,301.81,362.33,305.74,365c.18.12.37-.19.17-.31-4-2.39-25.43-18-43.75-29.16C262,335.38,261.78,335.7,262,335.85Z" style="fill:#263238"></path><path d="M289,459.33l160.92-.2s-12-107.67-64.2-183.85c-12.45-18.14-38.84-9.76-47.57,0C316,300.07,288.49,458.78,289,459.33Z" style="fill:#ECEFF1"></path><path d="M366.13,292.85a4.5,4.5,0,0,0-2.49-.15,4.6,4.6,0,0,0-3.46,3.78,3.46,3.46,0,0,1-1.95,2.8,4.32,4.32,0,0,1-1.93.39c-.76.07-1.5,0-2.28.15.72.32,1.45.5,2.16.75a4.22,4.22,0,0,0,2.52.07,4.55,4.55,0,0,0,3.31-3.89,3.51,3.51,0,0,1,2.06-2.68,4.77,4.77,0,0,1,1.94-.35c.76,0,1.52,0,2.3-.15C367.59,293.29,366.84,293.09,366.13,292.85ZM321,427.26a4.66,4.66,0,0,0-2.48-.15,4.51,4.51,0,0,0-3.45,3.81,3.45,3.45,0,0,1-2,2.76,3.89,3.89,0,0,1-1.9.41c-.77.05-1.52.05-2.27.16.71.3,1.44.49,2.16.72a4.37,4.37,0,0,0,2.52.09,4.67,4.67,0,0,0,3.31-3.87,3.38,3.38,0,0,1,2.06-2.69,4.14,4.14,0,0,1,1.93-.34,21.84,21.84,0,0,0,2.28-.16A22.21,22.21,0,0,0,321,427.26Zm104.55-70.63a4.43,4.43,0,0,0-.44,1.39,3.45,3.45,0,0,1-1.95,2.77,4,4,0,0,1-1.92.39c-.77.07-1.51.07-2.28.19.72.28,1.44.46,2.17.71a4.35,4.35,0,0,0,5.45-2.49h0C426.22,358.6,425.88,357.62,425.53,356.63ZM370.88,400a4.77,4.77,0,0,0-2.51-.17,4.63,4.63,0,0,0-3.46,3.8,3.5,3.5,0,0,1-2,2.8,4.23,4.23,0,0,1-1.91.39c-.74,0-1.52,0-2.28.15.72.31,1.44.51,2.17.75a4.46,4.46,0,0,0,5.8-3.81,3.53,3.53,0,0,1,2.07-2.7,4.43,4.43,0,0,1,2-.34c.74,0,1.5,0,2.27-.15A17.64,17.64,0,0,0,370.88,400Zm76.27,40.56a4.6,4.6,0,0,0-3.35,3.75,3.47,3.47,0,0,1-2,2.8,4.23,4.23,0,0,1-1.91.39c-.75,0-1.52,0-2.29.15.73.32,1.44.51,2.17.75a4.46,4.46,0,0,0,5.82-3.81,3.42,3.42,0,0,1,1.77-2.53C447.32,441.56,447.23,441.06,447.15,440.55Zm-96.94-91.63a4.57,4.57,0,0,0-2.51-.16,4.63,4.63,0,0,0-3.46,3.79,3.47,3.47,0,0,1-2,2.79,4.19,4.19,0,0,1-1.92.39c-.73.08-1.51,0-2.28.16a22.39,22.39,0,0,0,2.18.74,4.55,4.55,0,0,0,2.52.08,4.63,4.63,0,0,0,3.31-3.89,3.4,3.4,0,0,1,2.07-2.69,4.66,4.66,0,0,1,1.93-.34,22,22,0,0,0,2.28-.16C351.65,349.35,350.93,349.16,350.21,348.92Zm36.88,25.56a4.62,4.62,0,0,0-3.89-3.3,3.49,3.49,0,0,1-2.69-2.06,4.25,4.25,0,0,1-.34-2c-.07-.74,0-1.52-.15-2.28-.32.73-.51,1.44-.75,2.17a4.75,4.75,0,0,0-.12,2.5,4.5,4.5,0,0,0,3.78,3.45,3.45,3.45,0,0,1,2.77,2,3.89,3.89,0,0,1,.39,1.92c.07.75.07,1.51.18,2.28.29-.72.48-1.44.72-2.16A4.33,4.33,0,0,0,387.09,374.48ZM322.17,324.4a4.53,4.53,0,0,0-3.16-3.16c-.17.58-.34,1.17-.52,1.76a3.61,3.61,0,0,1,2.33,1.88,4,4,0,0,1,.38,1.92c.07.78.07,1.52.19,2.28.28-.71.47-1.44.71-2.16A4.29,4.29,0,0,0,322.17,324.4Zm76.53,117a4.56,4.56,0,0,0-3.88-3.32,3.55,3.55,0,0,1-2.69-2.05,4.43,4.43,0,0,1-.31-1.95c-.08-.77-.08-1.51-.18-2.28-.3.69-.48,1.44-.72,2.16a4.49,4.49,0,0,0-.16,2.49,4.6,4.6,0,0,0,3.79,3.46,3.56,3.56,0,0,1,2.8,1.95,4.36,4.36,0,0,1,.38,1.92c.06.78.06,1.51.17,2.29.3-.73.49-1.45.73-2.17A4.24,4.24,0,0,0,398.7,441.42Zm-3.2-110.2a4.52,4.52,0,0,0-1.68-1.84,4.62,4.62,0,0,0-5.13.23,3.47,3.47,0,0,1-3.36.58,4.3,4.3,0,0,1-1.62-1.08,22.78,22.78,0,0,0-1.75-1.48c.3.7.7,1.36,1,2a4.5,4.5,0,0,0,6.82,1.42,3.48,3.48,0,0,1,3.36-.45,4.52,4.52,0,0,1,1.6,1.15c.59.5,1.11,1,1.74,1.49C396.2,332.56,395.82,331.92,395.5,331.22Zm30.35,80.35a4.5,4.5,0,0,0-1.68-1.86,4.58,4.58,0,0,0-5.12.23,3.48,3.48,0,0,1-3.36.59,4.18,4.18,0,0,1-1.62-1.09c-.57-.5-1.13-1-1.75-1.49.3.72.7,1.38,1,2.06a4.48,4.48,0,0,0,6.82,1.42,3.52,3.52,0,0,1,3.38-.46,5.18,5.18,0,0,1,1.59,1.15,19.45,19.45,0,0,0,1.75,1.5C426.57,412.9,426.18,412.27,425.85,411.57Zm-94.11-26.05a4.54,4.54,0,0,0-1.65-1.86,4.6,4.6,0,0,0-5.12.23,3.56,3.56,0,0,1-3.36.59,3.85,3.85,0,0,1-1.63-1.09c-.59-.49-1.1-1-1.74-1.48.29.72.68,1.37,1,2a4.31,4.31,0,0,0,1.71,1.82,4.61,4.61,0,0,0,5.1-.4,3.42,3.42,0,0,1,3.34-.46,5,5,0,0,1,1.62,1.16c.57.5,1.11,1.05,1.71,1.48C332.46,386.86,332.09,386.23,331.74,385.52Zm28.41,68.68a4.46,4.46,0,0,0-6.77-1.63,3.42,3.42,0,0,1-3.36.57,3.68,3.68,0,0,1-1.62-1.05c-.59-.5-1.13-1-1.74-1.5.28.69.66,1.35,1,2a4.36,4.36,0,0,0,1.72,1.83,4.58,4.58,0,0,0,5.1-.42,3.43,3.43,0,0,1,3.34-.42,4.25,4.25,0,0,1,1.6,1.13c.59.49,1.13,1,1.74,1.51C360.87,455.54,360.48,454.89,360.15,454.2Z" style="fill:#fff"></path><path d="M346.63,299.43c10.17-.09,23.07-18.8,26.67-32.28.24-.93-11.14-32.69-12.74-39.22-.32-1.34-38.56,20-38.56,20s7.38,12.7,10.1,24.1C332.32,273,336.81,299.51,346.63,299.43Z" style="fill:#ad6359"></path><path d="M322,247.93s7.38,12.7,10.11,24.1c.05.22.34,1.88.87,4.28,19-6.58,28.52-21.57,32.92-31.76-2.44-7.2-4.69-14-5.34-16.61C360.23,226.59,322,247.93,322,247.93Z" style="fill:#263238"></path><path d="M374.1,183.4c4.82,14.87-2.37,58.18-12.85,68-15.2,14.21-40.45,16-52.63-2.38-11.81-17.76-1.45-74,10.3-83C336.22,152.85,367,161.43,374.1,183.4Z" style="fill:#ad6359"></path><path d="M339.81,204.77a35.55,35.55,0,0,1-3.55-1.63c-1.36-.64-2.5-1-3.31-2.36a2,2,0,0,1,.55-2.39c1.54-1.13,3.4-.75,5.06,0a7.37,7.37,0,0,1,3.92,3.55C343.36,203.56,341.47,205.36,339.81,204.77Z" style="fill:#263238"></path><path d="M315.64,209.74c0-.11-.25.11-.26.23-.32,2.94-1.19,6.26-4,6.86-.09,0-.1.16,0,.16C314.7,217,315.81,212.58,315.64,209.74Z" style="fill:#263238"></path><path d="M313.46,206.31c-4.66-1-6.38,8.37-2.06,9.33S317.37,207.17,313.46,206.31Z" style="fill:#263238"></path><path d="M332.49,212.08c0-.11.22.17.2.29-.45,2.93-.47,6.36,2.07,7.65.08,0,.05.19-.05.17C331.52,219.34,331.6,214.78,332.49,212.08Z" style="fill:#263238"></path><path d="M335.49,209.33c4.77.22,4,9.74-.43,9.54S331.49,209.15,335.49,209.33Z" style="fill:#263238"></path><path d="M310.2,198.49a36.78,36.78,0,0,0,3.91.42c1.5.15,2.67.42,4.06-.33a2,2,0,0,0,.76-2.34c-.74-1.77-2.53-2.4-4.33-2.65a7.36,7.36,0,0,0-5.2,1C307.77,195.62,308.47,198.14,310.2,198.49Z" style="fill:#263238"></path><path d="M334,238.46c-.68.72-1.35,1.7-2.42,1.83a7.94,7.94,0,0,1-3.21-.61.1.1,0,0,0-.12.15,4,4,0,0,0,3.82,1.46,3.16,3.16,0,0,0,2.22-2.71C334.28,238.41,334.05,238.35,334,238.46Z" style="fill:#263238"></path><path d="M331,229.73a10,10,0,0,1-7.13,3.81,12.25,12.25,0,0,1-3.62-.18,3.56,3.56,0,0,1-.68-.15,5.44,5.44,0,0,1-.64-.16.74.74,0,0,1-.53-.72v0c0-.1,0-.19.06-.3v0l0-.26c.16-2.27.72-5.7.72-5.7-.87.33-5.28,1.83-5.1.65,1.53-9.76,3.24-20.61,6.83-30a.27.27,0,0,1,.53.13c-1.1,9.44-3.86,18.62-5.12,28.08,1.4-.39,3.69-1.12,4.87-1,.32.12-1.19,6.61-1.17,7.63a.34.34,0,0,0,0,.11c3.77.86,6.76,0,10.7-2.21C331,229.29,331.17,229.51,331,229.73Z" style="fill:#263238"></path><path d="M322.38,232.51a11.21,11.21,0,0,0,4.36,3.6,4.92,4.92,0,0,0,3.05.29c2.22-.5,2.34-2.53,2-4.27a12,12,0,0,0-.9-2.69A14.51,14.51,0,0,1,322.38,232.51Z" style="fill:#263238"></path><path d="M326.74,236.11a4.92,4.92,0,0,0,3.05.29c2.22-.5,2.34-2.53,2-4.27C329.41,232.29,327,233.82,326.74,236.11Z" style="fill:#ff99ba"></path><path d="M307.43,190.92c1.7.16,8.32-3.1,10.29-12.78,3.13,1.19,10.33-2.86,12.9-5.37.85,11,12.28,16.94,21.06,12.11-.23,4.4.34,9,2.7,12.4a18.4,18.4,0,0,0,8.85,7.12v.06c-2.92,7.87,3.29,15.69,10.1,15a9.3,9.3,0,0,0,1.88-.19c3.35-.71,6.71-2.14,8.49-5.72,2.3-4.63,1.26-10.74-2.35-13.66a10.83,10.83,0,0,0,2.74-11.68c-1-2.55-3.92-4.08-3.86-7a16.73,16.73,0,0,0-1.13-6.77,13,13,0,0,0-7.56-7.53,7.24,7.24,0,0,1-3.76-2.52,24.48,24.48,0,0,0-2.06-2.45,16.48,16.48,0,0,0-4.34-3.09,15,15,0,0,0-6.1-1.55c-2.27-.1-4.67.92-6.8-.09-1.85-.88-8-1.15-10.05-.9-8.92,1.12-13.06,5.25-13.06,5.25s-4.66.52-9.28,6.31c-4.41,5.52-4.65,10-4.65,10s-1.84.7-3.4,4.43C306.25,186.65,307.19,190.9,307.43,190.92Zm55.83,14c.33,6.16,1.64,9.13,3.47,11.28A11,11,0,0,1,363.26,204.89Zm-31.87-31.8c1.68,5.82,5.62,10,10.4,11.66C336.65,183.53,332.53,179.84,331.39,173.09Z" style="fill:#263238"></path><path d="M364.78,220.93s9.7-14,16.07-10.57-.88,23.73-8.31,26.54a7.58,7.58,0,0,1-10.17-4Z" style="fill:#ad6359"></path><path d="M378.63,216.12c.12,0,.14.16,0,.2-5.21,2.14-7.94,7-9.83,12,1.54-1.94,3.65-3,6.25-1.18.13.1,0,.31-.14.28a4.67,4.67,0,0,0-5.12,1.65,22.18,22.18,0,0,0-2.43,4.16c-.25.47-1.09.22-.92-.32,0,0,0-.08,0-.12C366.36,226.16,371.48,216.83,378.63,216.12Z" style="fill:#263238"></path><path d="M396,283.19c48.47,48.47,71.42,95.73,68.4,124.29-3.65,34.54-37.58,17-40.05,14.66-15.45-15-38-84.7-48.22-125.62C366,255.89,385.65,272.88,396,283.19Z" style="fill:#ad6359"></path><path d="M461.21,362.44l-57.83,23.38s-26.72-66.41-31.21-96.29,7.07-27.71,30.12-2.24S461.21,362.44,461.21,362.44Z" style="fill:#ECEFF1"></path><path d="M421.88,310.61a3.49,3.49,0,0,1-1.91,2.48,4.16,4.16,0,0,1-1.93.39c-.76.07-1.5,0-2.27.16.72.32,1.44.5,2.16.74a4.35,4.35,0,0,0,2.51.07,4.4,4.4,0,0,0,2.77-2.18C422.77,311.71,422.32,311.16,421.88,310.61ZM431,354.37a4.32,4.32,0,0,0-2.49-.15,4.6,4.6,0,0,0-3.46,3.8,3.45,3.45,0,0,1-1.95,2.77,4,4,0,0,1-1.92.39c-.77.07-1.51.07-2.28.19.72.28,1.44.46,2.17.71a4.54,4.54,0,0,0,2.49.1,4.61,4.61,0,0,0,3.32-3.92A3.55,3.55,0,0,1,429,355.6a4,4,0,0,1,1.94-.33c.78-.08,1.51,0,2.29-.2C432.51,354.79,431.75,354.61,431,354.37Zm-42.53-80.65a3.39,3.39,0,0,0,.11.71,4.51,4.51,0,0,0,3.79,3.46,3.52,3.52,0,0,1,1.13.33C391.76,276.52,390.09,275,388.51,273.72Zm6.64,6.06a.25.25,0,0,1,0,.07,4.09,4.09,0,0,1,.38,1.93c.07.77.07,1.51.19,2.27.28-.71.46-1.44.71-2.16,0-.19.11-.41.15-.63Zm.35,51.44a4.52,4.52,0,0,0-1.68-1.84,4.62,4.62,0,0,0-5.13.23,3.47,3.47,0,0,1-3.36.58,4.3,4.3,0,0,1-1.62-1.08c-.47-.42-.92-.84-1.42-1.22.13.38.25.76.37,1.14l0,0,.3.61a4.5,4.5,0,0,0,6.82,1.42,3.48,3.48,0,0,1,3.36-.45,4.52,4.52,0,0,1,1.6,1.15c.59.5,1.11,1,1.74,1.49C396.2,332.56,395.82,331.92,395.5,331.22Z" style="fill:#fff"></path><path d="M451,352.81c-22.62,11.81-44,18.72-48.37,20.6-.21.09-.33-.25-.11-.33,4.35-1.63,28.29-13,48.36-20.63C451.07,352.36,451.18,352.7,451,352.81Z" style="fill:#263238"></path><path d="M407.11,384.18a30.18,30.18,0,0,0-3.43,1c-3.81-11-3.18-8.48-7.09-19.41q-2.88-8-5.75-16.07c-2-5.58-3.66-11.33-5.94-16.79a.14.14,0,0,0-.26.09c1.06,5.17,2.75,10.27,4.32,15.32-.39-.8-.75-1.62-1.19-2.4-1-1.75-1.93-3.5-2.76-5.33-.13-.28-.59-.13-.46.16.8,1.74,1.47,3.51,2.13,5.31s1.43,3.54,2.21,5.29,1.63,3.31,2.5,4.94l.32.6c1,3.17,2,6.35,3.07,9.5,3.79,11,8.05,19.86,8.24,19.83a28.16,28.16,0,0,0,4.2-1.75C407.38,384.4,407.26,384.18,407.11,384.18Z" style="fill:#263238"></path><rect x="301.9" y="322.19" width="32.28" height="3.17" style="fill:#dbdbdb"></rect><polygon points="301.9 322.19 301.9 323.41 334.18 324.28 334.18 322.19 301.9 322.19" style="opacity:0.1"></polygon><path d="M370.14,307a17.65,17.65,0,0,1-18.2,4.54,17.86,17.86,0,0,1-3-1.3,23.29,23.29,0,0,1-4.09-2.8l4.59-4.95a14.41,14.41,0,0,0,2.16,1.58,10.44,10.44,0,0,0,13.33-1.73c4.91-5,8-17.68,4.33-23.25-.24-.4-1.4-1.16-6.48-.87-.94.06-2,.13-3.22.27a13.37,13.37,0,0,1-2.89.17l.28-3.33L357,272c.33,0,.84-.07,1.51-.15a45.58,45.58,0,0,1,7.17-.37c3.7.16,7.47,1.13,9.48,4.21C381.12,284.77,376.3,300.72,370.14,307Z" style="fill:#dbdbdb"></path><g style="opacity:0.1"><path d="M370.14,307a17.65,17.65,0,0,1-18.2,4.54,17.86,17.86,0,0,1-3-1.3,23.29,23.29,0,0,1-4.09-2.8l4.59-4.95a14.41,14.41,0,0,0,2.16,1.58,10.44,10.44,0,0,0,13.33-1.73c4.91-5,8-17.68,4.33-23.25-.24-.4-1.4-1.16-6.48-.87-.94.06-2,.13-3.22.27a13.37,13.37,0,0,1-2.89.17l.28-3.33L357,272c.33,0,.84-.07,1.51-.15a45.58,45.58,0,0,1,7.17-.37c3.7.16,7.47,1.13,9.48,4.21C381.12,284.77,376.3,300.72,370.14,307Z"></path></g><path d="M275.09,261.51s2.63,21,6.84,35.8c3.26,11.45,8.48,22.64,19.84,25,4.18.86,10,.63,16.27.63s12.1.23,16.27-.63c11.37-2.34,16.59-13.53,19.85-25,4.21-14.78,6.83-35.8,6.83-35.8Z" style="fill:#dbdbdb"></path><path d="M307.94,322.9a36.8,36.8,0,0,1-6.17-.61c-11.36-2.34-16.58-13.53-19.84-25-4.21-14.78-6.84-35.8-6.84-35.8h9.8C285.46,271.63,289,317.3,307.94,322.9Z" style="fill:#fff;opacity:0.30000000000000004"></path><path d="M324.64,322.15c-2,.4-6.6.77-6.6.77,6.3,0,12.09.23,16.27-.63,11.36-2.34,16.59-13.67,19.85-25.12,4.21-14.78,6.83-35.66,6.83-35.66H324.62s20.32,4.14,22.14,11.24C349.68,284.16,339.27,319.18,324.64,322.15Z" style="opacity:0.1"></path><path d="M432.13,425.75c-12.51-4.26-14.71-4.48-42.65-47.68-4.67-7.22,37.4-51.19,43.18-44.05s22.2,31.63,23.72,54.08C459,426.54,445.61,430.34,432.13,425.75Z" style="fill:#ad6359"></path><path d="M435.7,339s-12.51-21.22-22.53-30.34c-13.42-12.2-30-17.21-37.12-18.89-14.79-3.5-53-1.75-54.4,9.34-1.28,10,37.67,6.27,37.67,6.27S319,302.63,319.65,315s45.65,5.42,45.65,5.42-41.52-1.86-38.8,10.79c2.06,9.55,43.14,5.56,43.14,5.56s-35.7-1.35-34,8.57c1.87,11,40,9.65,40,9.65,8.54,24.49,22.63,32.65,33.34,37.27C411.58,393.38,435.7,339,435.7,339Z" style="fill:#ad6359"></path><path d="M373.33,305.39c-4.72-.49-9.51-1-14.26-1.09s-9.52,0-14.26.4c-11.62.92-18.76,3.31-18.3,3.22,10.8-2.37,27.83-2.38,32.59-2.32s9.49-.1,14.24,0C373.46,305.57,373.45,305.4,373.33,305.39Z" style="fill:#263238"></path><path d="M373.4,322.56c-6.06-.36-12.07-.95-18.15-1s-11.81.34-17.85.66c-.46,0-.3.26.17.26,6.05-.08,11.65.31,17.7.31s12.11-.25,18.13,0C373.5,322.71,373.49,322.57,373.4,322.56Z" style="fill:#263238"></path><path d="M376.1,337.29c-9.23-1-18.65-.36-27.87.53-.46,0-.21.33.26.31,9.26-.35,16.53-.69,27.58-.51C376.24,337.62,376.3,337.32,376.1,337.29Z" style="fill:#263238"></path><path d="M457.49,409.59c-.12-2-.09-3.91-.31-5.85s-.33-3.88-.53-5.82c-.51-3.86-1.07-7.7-1.78-11.53s-1.5-7.64-2.31-11.46c-.4-1.91-.84-3.81-1.3-5.71s-.89-3.8-1.33-5.72a98.16,98.16,0,0,1,3.85,11.13c1.1,3.77,2,7.6,2.7,11.47a102.26,102.26,0,0,1,1.42,11.71A61.78,61.78,0,0,1,457.49,409.59Z" style="fill:#263238"></path><path d="M241.39,428.71c14.89-4.9,16-15.35,37.71-73.57,3-8.06-48.14-44.57-51.79-36.13-4.6,10.63-18.12,42.72-18.87,45.95C202.14,392.23,220.43,435.62,241.39,428.71Z" style="fill:#ad6359"></path><path d="M222.11,343.69s.89-24.62,5.36-37.4c6-17.13,18.2-29.44,23.63-34.3,11.34-10.13,45.75-26.78,52.28-17.71,5.91,8.22-30.13,23.47-30.13,23.47s34.18-21.61,39.47-10.41-37.54,26.52-37.54,26.52,35.61-21.42,39.24-9c2.75,9.38-35.27,25.45-35.27,25.45s30.74-18.2,34-8.67c3.58,10.52-30.59,27.55-30.59,27.55,4.16,25.6-4.49,39.27-11.7,48.43C269.09,379.83,222.11,343.69,222.11,343.69Z" style="fill:#ad6359"></path><path d="M261,284.46c3.92-2.68,7.87-5.42,12-7.75s8.38-4.51,12.73-6.44c10.66-4.73,18.07-6,17.62-5.9-10.62,3.08-25.6,11.17-29.75,13.5s-8.4,4.43-12.54,6.75C260.93,284.68,260.86,284.53,261,284.46Z" style="fill:#263238"></path><path d="M269.07,299.59c5.16-3.21,10.16-6.58,15.47-9.57s10.54-5.32,16-7.92c.42-.2.39.1,0,.31-5.36,2.82-10.1,5.83-15.42,8.71s-10.76,5.55-16,8.6C269.06,299.77,269,299.64,269.07,299.59Z" style="fill:#263238"></path><path d="M273.71,313.83c7.63-5.31,16.24-9.2,24.76-12.82.43-.18.35.19-.08.4-8.31,4.11-14.86,7.27-24.49,12.69C273.75,314.18,273.55,314,273.71,313.83Z" style="fill:#263238"></path><path d="M279.9,362.46c-.85,4.14-8.6,15.41-8.6,15.41q-2.08,6.81-4.51,13.51t-5.3,13.21a71,71,0,0,1-6.82,12.5,114.87,114.87,0,0,0,5.74-12.95c1.66-4.42,3.29-8.85,4.85-13.32l4.61-13.41S277.81,366.21,279.9,362.46Z" style="fill:#263238"></path></g><g id="freepik--character-1--inject-747"><path d="M201.78,459.13c-13-58.85-39.88-184.46-58.69-197.61C130.64,252.82,109,259,99,266.25c-21.86,16-64.79,152.94-69.6,192.88Z" style="fill:#455a64"></path><path d="M82.52,303c-9.06,63.47-14.67,124.44,7.11,133.51,24.25,10.11,44.63-34.29,44.15-38-.54-4.15-3.19-62.48-19.78-105.28C95.81,246.32,84.76,287.34,82.52,303Z" style="fill:#455a64"></path><path d="M132.49,385c-4.39-26.26-8.4-53.61-14.32-79.52,4.49,12.75,7.32,26,9.65,39.31A364.79,364.79,0,0,1,132.49,385Z" style="fill:#263238"></path><path d="M121.32,307.73A31.55,31.55,0,0,1,122.57,322a141.5,141.5,0,0,1-1.25-14.24Z" style="fill:#263238"></path><path d="M143.42,295.79c-10.5,2.23-28.08-14.13-34.88-27.22-.46-.9,1.11-10.23,2.47-21.64.81-6.93,1.54-14.67,1.69-21.78L157,237s-4.71,14.8-4.91,27.2a17,17,0,0,0,.24,2.92,4.81,4.81,0,0,1,.06.48C153.21,273.13,153.57,293.61,143.42,295.79Z" style="fill:#f7a9a0"></path><path d="M152.13,264.16a17.54,17.54,0,0,0,.12,2.09c-23-.12-35.67-19.09-40.31-28.33.39-4.27.67-8.63.77-12.77L157.05,237S152.33,251.77,152.13,264.16Z" style="fill:#263238"></path><path d="M98.14,179.75c-2.07,16.4,13.9,60,26.71,68.12,18.57,11.78,45.11,8.65,54.15-12.79,8.76-20.79-13.07-77.23-27-84.22C131.44,140.57,101.2,155.52,98.14,179.75Z" style="fill:#f7a9a0"></path><path d="M103.87,214.86C100.76,211.61,92.54,196.63,92,190c-.6-7.07,6.88-13.93,6.88-13.93s1.21,4.2,4.16,5.81c4.55,2.49,12.48,2.93,14.14,6,2.75,5.14,4,35-.86,34.91S109.19,220.41,103.87,214.86Z" style="fill:#a6a6a6"></path><path d="M160,158.9s9.14,3.07,11.76,7.43c2.28,3.79,4.15,13.76,5.1,17.46,2.08,8.13-.67,10.76-.67,10.76S169.13,173,160,158.9Z" style="fill:#a6a6a6"></path><path d="M119.19,210.56c1.58,4.37,9.54,17.12,24.2,14.55a23.79,23.79,0,0,0,16.54-10.83l6.58-.8s4.1,2.9,8.32.86,3-11.35,2.31-16.88c0,0,4,15,5.5,20s5,15.6-1.43,25.65c-7.41,11.7-30.16,21.41-48.42,14.61S112,229.44,112,229.44Z" style="fill:#a6a6a6"></path><path d="M116.71,215.88s-14-11.33-19.43-5.94,8,23.82,16.34,24.46a8,8,0,0,0,9.11-7.1Z" style="fill:#f7a9a0"></path><path d="M101.25,215.13c-.12,0-.1.2,0,.21,5.92.62,10.13,4.73,13.55,9.27-2.14-1.51-4.6-2-6.69.67-.11.13.09.31.23.24a4.92,4.92,0,0,1,5.68.15,24,24,0,0,1,3.7,3.49c.39.41,1.17-.09.83-.59a.76.76,0,0,0-.08-.11C116.68,221.66,108.7,213.72,101.25,215.13Z" style="fill:#263238"></path><g style="opacity:0.2"><path d="M142.77,177.14a38.05,38.05,0,0,0,4.79-1.4c1.57-.63,3-1.54,4.6-2.14a29.3,29.3,0,0,1,9.36-1.48c.28,0,.29.15,0,.17a25.65,25.65,0,0,0-9.7,2.24,33.11,33.11,0,0,1-7.71,3c-6.18,1.36-12.11,3.42-16.65,7.93,0,0-.08,0,0,0C131.48,181.17,137.1,178.63,142.77,177.14Z"></path><path d="M141.31,173.36a37.49,37.49,0,0,0,4.54-1.33c1.49-.6,2.86-1.46,4.36-2a27.79,27.79,0,0,1,8.88-1.4c.26,0,.27.14,0,.16a24.43,24.43,0,0,0-9.2,2.12,31.66,31.66,0,0,1-7.31,2.81c-5.86,1.28-11.48,3.24-15.79,7.51,0,0-.07,0,0,0C130.61,177.18,135.93,174.77,141.31,173.36Z"></path></g><path d="M165.91,210.29c2.34,4.31,5.24,8.54,9.44,11.2.57.43,1.24.68,1.86,1.06-5.64-1.58-9.59-6.87-11.3-12.26Z" style="opacity:0.1"></path><path d="M144.35,230c4.13-4,8-8.78,9-14.55a20.39,20.39,0,0,0,.27-2.49c.86,6.88-3.79,13.32-9.24,17Z" style="opacity:0.1"></path><path d="M144.49,212.75c2.08-.68,2.09-3.74,1.65-6.12-.21,1.41-.37,3.25-1.73,3.69-2.77.91-5.08-2.38-5.65-5.57C138.21,208.34,141,213.91,144.49,212.75Z" style="opacity:0.1"></path><path d="M169.56,204.11c-2,.94-4.15-1.25-5.46-3.28,1.12.88,2.55,2.07,3.84,1.46,2.64-1.24,2.07-5.21.29-7.93C171.1,196.6,172.91,202.54,169.56,204.11Z" style="opacity:0.1"></path><path d="M144.85,203.49c-.07-.1-.18.22-.14.34,1.15,2.9,2,6.41-.33,8.34-.07.06,0,.2.08.15C147.54,210.71,146.39,206.05,144.85,203.49Z" style="fill:#263238"></path><path d="M146.07,206.56a4.53,4.53,0,0,1-.15,2.43,3.31,3.31,0,0,1-1.88,1.86,3,3,0,0,1-2.67-.32,5.32,5.32,0,0,1-1.61-1.78,9.75,9.75,0,0,1-.6-1.32,6.43,6.43,0,0,1-.41-3,9.34,9.34,0,0,0,.86,2,12.09,12.09,0,0,0,1.09,1.65c.83,1,1.91,1.79,2.84,1.37s1.46-1.45,1.4-2.81a21.59,21.59,0,0,0-.69-4.13A9.4,9.4,0,0,1,146.07,206.56Z" style="fill:#263238"></path><path d="M162.66,197c0-.12.27.07.31.19.82,3,2.27,6.31,5.27,6.47.09,0,.13.15,0,.17C164.83,204.36,163,200,162.66,197Z" style="fill:#263238"></path><path d="M169.93,198.05a4.53,4.53,0,0,1-.15,2.43,3.28,3.28,0,0,1-1.88,1.86,2.94,2.94,0,0,1-2.66-.32,5.25,5.25,0,0,1-1.62-1.78,11.15,11.15,0,0,1-.6-1.32,6.41,6.41,0,0,1-.41-3,9.65,9.65,0,0,0,.86,2,13.73,13.73,0,0,0,1.09,1.64c.83,1.06,1.91,1.79,2.84,1.37s1.46-1.45,1.4-2.8a21.68,21.68,0,0,0-.69-4.14A9.4,9.4,0,0,1,169.93,198.05Z" style="fill:#263238"></path><path d="M136.37,199.41a38.52,38.52,0,0,0,3.64-1.95c1.39-.76,2.58-1.22,3.34-2.68a2.13,2.13,0,0,0-.73-2.5c-1.69-1.09-3.62-.58-5.33.26a7.73,7.73,0,0,0-3.91,4C132.55,198.35,134.65,200.13,136.37,199.41Z" style="fill:#a6a6a6"></path><path d="M166.5,186.14a37.89,37.89,0,0,1-4.12.32c-1.58.11-2.83.35-4.26-.47a2.12,2.12,0,0,1-.73-2.49c.84-1.84,2.74-2.45,4.64-2.65a7.75,7.75,0,0,1,5.44,1.25C169.15,183.19,168.33,185.82,166.5,186.14Z" style="fill:#a6a6a6"></path><path d="M149.67,233.29c.93.46,1.94,1.17,3,.91a8.09,8.09,0,0,0,2.91-1.77.11.11,0,0,1,.18.11,4.16,4.16,0,0,1-3.2,2.81,3.27,3.27,0,0,1-3.16-1.83C149.33,233.36,149.54,233.23,149.67,233.29Z" style="fill:#263238"></path><path d="M151.63,221.43a10.57,10.57,0,0,0,8.15,2.29,13.56,13.56,0,0,0,3.66-1,4.11,4.11,0,0,0,.67-.3l.61-.31a.78.78,0,0,0,.38-.85v0a1.85,1.85,0,0,0-.13-.29v0l-.09-.26c-.68-2.29-2-5.67-2-5.67,1,.15,5.81.68,5.36-.49-3.77-9.62-8-20.32-13.76-29.11a.29.29,0,0,0-.51.26c3.26,9.39,8.15,18.15,11.57,27.53-1.51-.07-4-.31-5.2.1-.29.2,2.71,6.49,2.93,7.54a.5.5,0,0,1,0,.11c-3.65,1.73-6.9,1.51-11.43.15C151.54,221,151.38,221.25,151.63,221.43Z" style="fill:#263238"></path><path d="M161.6,222.69a12.15,12.15,0,0,1-3.77,4.89,5.42,5.42,0,0,1-3.17,1c-2.49,0-3.11-2.12-3.16-4.07a13,13,0,0,1,.31-3.07A15.79,15.79,0,0,0,161.6,222.69Z" style="fill:#263238"></path><path d="M157.83,227.58a5.42,5.42,0,0,1-3.17,1c-2.49,0-3.11-2.12-3.16-4.07C154.07,224.16,157,225.21,157.83,227.58Z" style="fill:#ff99ba"></path><path d="M152.33,266.75,143,290.29l-33.6-28.44-8.67,9.71s33.73,45.77,33.82,43.65l9.72-20.34,16.09,13.47-2.93-34.95Z" style="fill:#ebebeb"></path><path d="M160,291c-.7-5.75-1.23-11.57-2.22-17.29,0-.21-.4-.29-.44,0-1,5.61,1.78,27.61,2,32.9l-.07-.06c-.67-.58-14.87-11.83-15-11.64-2.16,3.25-9.3,18.07-9.77,19.41-5.34-7.27-25.72-33.68-31.95-40.52-.18-.2-.52,0-.37.21,4.77,7.71,31.77,43.28,32.15,43.16.28.18,9.16-18.08,10.16-21.5,2.43,2.47,16.83,15.21,16.83,14.35A163.28,163.28,0,0,0,160,291Z" style="fill:#263238"></path><rect x="220.77" y="245.23" width="32.48" height="3.19" transform="translate(-104.27 221.83) rotate(-41.97)" style="fill:#ECEFF1"></rect><polygon points="223.87 256.5 224.69 257.42 249.42 236.35 248.01 234.78 223.87 256.5" style="opacity:0.1"></polygon><path d="M186.32,269.75A17.76,17.76,0,0,0,203,260.9a18.39,18.39,0,0,0,1.39-3,23.44,23.44,0,0,0,1.17-4.85l-6.76-.61a15.6,15.6,0,0,1-.55,2.63,10.52,10.52,0,0,1-11.14,7.68c-7-.46-17.88-7.84-18.88-14.48-.1-.46.26-1.81,4.26-5,.74-.58,1.59-1.25,2.59-2a13.19,13.19,0,0,0,2.27-1.81l-2.45-2.3-2.3-2.46c-.25.21-.68.51-1.24.9a46.61,46.61,0,0,0-5.61,4.55c-2.65,2.61-4.82,5.87-4.26,9.52C163.14,260.5,177.48,269.18,186.32,269.75Z" style="fill:#ECEFF1"></path><g style="opacity:0.30000000000000004"><path d="M186.32,269.75A17.76,17.76,0,0,0,203,260.9a18.39,18.39,0,0,0,1.39-3,23.44,23.44,0,0,0,1.17-4.85l-6.76-.61a15.6,15.6,0,0,1-.55,2.63,10.52,10.52,0,0,1-11.14,7.68c-7-.46-17.88-7.84-18.88-14.48-.1-.46.26-1.81,4.26-5,.74-.58,1.59-1.25,2.59-2a13.19,13.19,0,0,0,2.27-1.81l-2.45-2.3-2.3-2.46c-.25.21-.68.51-1.24.9a46.61,46.61,0,0,0-5.61,4.55c-2.65,2.61-4.82,5.87-4.26,9.52C163.14,260.5,177.48,269.18,186.32,269.75Z" style="fill:#fff"></path></g><path d="M163,229.16s16.11,14,29.2,22.17c10.14,6.38,21.58,11.23,31.65,5.34,3.7-2.17,7.88-6.24,12.59-10.48s9.2-8,11.75-11.42c6.92-9.39,3.3-21.28-2-32-6.8-13.88-19-31.37-19-31.37Z" style="fill:#ECEFF1"></path><path d="M228.86,253a37.73,37.73,0,0,1-5,3.69c-10.07,5.89-21.51,1-31.65-5.34-13.09-8.22-29.2-22.17-29.2-22.17l7.33-6.6C177.56,229.75,211,261.5,228.86,253Z" style="fill:#fff;opacity:0.30000000000000004"></path><path d="M240.85,241.18c-1.22,1.64-4.42,5-4.42,5,4.71-4.24,9.2-8,11.75-11.42,6.92-9.39,3.21-21.38-2.06-32.14-6.8-13.89-18.88-31.27-18.88-31.27L200,195.83s18-10.57,24.12-6.48C234,195.91,249.8,229.11,240.85,241.18Z" style="opacity:0.1"></path><path d="M104.35,435.06c17.48-4.87,55-45.15,91.41-107.16,5-8.58-58.7-36.23-64.55-27.34-7.37,11.19-42,66.12-43.51,69.65C75.07,400,92.49,438.36,104.35,435.06Z" style="fill:#f7a9a0"></path><path d="M186.08,224.92c7.64,3,4.41,10.85,4.41,10.85s5.33-2.15,10.43-.06c5.85,2.39,4.67,12.6,4.67,12.6a18.9,18.9,0,0,1,11,1.69c5.37,2.85,5.64,13.33,5.64,13.33s6,2,8.75,7.58c4.73,9.54-3.7,23.45-9.13,32.25-8.06,13.08-28.75,29-32.83,33.29l-57.15-33.73s13.19-46.08,20.35-56.06C159.54,236.47,178.57,222,186.08,224.92Z" style="fill:#f7a9a0"></path><path d="M190.1,235.75c-9,6.87-15.46,16-22.43,24.79-.16.19.15.43.3.23,6.84-8.79,15.33-16.12,22.5-24.63A.27.27,0,0,0,190.1,235.75Z" style="fill:#263238"></path><path d="M205.14,248.33a29.3,29.3,0,0,0-4.92,5.94q-2.39,3.33-4.66,6.74c-3,4.55-6,9.17-8.78,13.87-.12.21.17.45.31.24,3-4.53,6.14-9,9.37-13.41,1.61-2.2,3.25-4.38,4.89-6.56a34.86,34.86,0,0,0,4.37-6.36A.39.39,0,0,0,205.14,248.33Z" style="fill:#263238"></path><path d="M222.11,263.52c-1.78,1.33-3,3.73-4.14,5.59q-2,3.15-4.06,6.28c-2.73,4.17-5.46,8.34-8.34,12.41-.14.21.17.44.31.24,2.94-4.12,5.94-8.21,8.84-12.36,1.43-2,2.84-4.08,4.25-6.14,1.19-1.74,2.88-3.79,3.35-5.89A.13.13,0,0,0,222.11,263.52Z" style="fill:#263238"></path><path d="M120.88,311.15,190.57,348s-71,93-88.9,88.41-23.77-47.67-16-64.14S120.88,311.15,120.88,311.15Z" style="fill:#455a64"></path><path d="M172,358.32a149,149,0,0,0-12.9-7.62c-4.5-2.55-9.08-4.95-13.64-7.38s-23.14-11.51-27.77-13.78a.18.18,0,0,0-.17.32c4.5,2.56,22.32,12.69,26.81,15.05s9,4.75,13.51,7,9.22,4.81,14,6.59C172,358.53,172.1,358.39,172,358.32Z" style="fill:#263238"></path><path d="M185.26,345.14l5.36,2.74.11.05-.08.11c-16.31,22.74-33.4,45.08-52.65,65.47-9.81,9.93-20.15,20.69-33.93,24.79C72.7,445.83,73.59,400,73.89,379.79c.73-22.45,3.64-44.72,7.24-66.82-1.43,11.11-2.8,22.22-3.8,33.37-1.54,16.69-2.61,33.47-1.71,50.22,1,13.68,2.73,38.66,20,40.58,11.13.84,20.92-6.43,29.07-13.28,16.66-14.84,31-32.26,45.09-49.51,7-8.48,14.15-18.12,20.75-26.28l-5.26-2.93Z" style="fill:#263238"></path><path d="M78.53,316.73c.3,3.76.25,7.77.46,11.53a17.67,17.67,0,0,1-.46-11.53Z" style="fill:#263238"></path><path d="M123,312.28l-2.18-1c-3.47,6.7-8.23,14.34-12.2,21.3-3.67,6.3-8.83,15.06-12.38,21.29-3.09,5.46-6.82,11.89-9.45,17.54-2.25,5.11-3,10.69-3.6,16.24a119.92,119.92,0,0,0-.53,12.29c-.78-9.21-.86-18.8,2-27.7,2.63-6.75,6.35-13,9.84-19.33q12.3-21.4,26.22-41.78l.06-.09.09.05,2.08,1.22Z" style="fill:#263238"></path></g><g id="freepik--coffee-jug--inject-747"><polygon points="265.22 390.51 265.22 393.03 321.61 393.03 321.61 390.51 315.59 385.11 271.25 385.11 265.22 390.51" style="fill:#455a64"></polygon><rect x="265.22" y="390.51" width="56.39" height="2.52" style="fill:#37474f"></rect><path d="M321.62,402.69h17.55s13.65,12.52,13.65,25.82v21.87H340v8.95h21.6V428c0-23.46-20.94-35-20.94-35h-19Z" style="fill:#37474f"></path><path d="M251,433.6v22.78h84.78V433.6c0-14.2-16.7-28.82-16.7-28.82V393H267.73v11.75S251,419.4,251,433.6Z" style="fill:#dbdbdb;opacity:0.7000000000000001"></path><path d="M246.89,434.33v25H340v-25c0-15.59-18.33-31.64-18.33-31.64V393h-62l5.61,6.28v3.38S246.89,418.74,246.89,434.33Z" style="fill:#ebebeb;opacity:0.7000000000000001"></path><path d="M251,434.41v22.8h84.79v-22.8a18.1,18.1,0,0,0-.35-3.58H251.37A18.1,18.1,0,0,0,251,434.41Z" style="fill:#ECEFF1"></path><path d="M251,434.41v22.8h84.79v-22.8a18.1,18.1,0,0,0-.35-3.58H251.37A18.1,18.1,0,0,0,251,434.41Z" style="opacity:0.6000000000000001"></path><rect x="246.89" y="450.49" width="93.07" height="8.84" transform="translate(586.84 909.83) rotate(180)" style="fill:#c7c7c7"></rect><rect x="319.46" y="450.49" width="7.33" height="8.84" transform="translate(646.24 909.83) rotate(180)" style="fill:#fff;opacity:0.2"></rect><rect x="312.79" y="450.49" width="3.33" height="8.84" transform="translate(628.91 909.83) rotate(180)" style="fill:#fff;opacity:0.2"></rect><path d="M326.78,450.49h-7.32V432c0-14.29-15.44-29.18-15.44-29.18V393h5.88v9.65s16.88,16.65,16.88,28.75Z" style="fill:#fff;opacity:0.2"></path><path d="M316.12,450.49h-3.33V432c0-14.29-15.44-29.18-15.44-29.18V393h1.88v9.65s16.89,16.65,16.89,28.75Z" style="fill:#fff;opacity:0.2"></path></g><g id="freepik--Table--inject-747"><path d="M42.36,459.13c133-.61,282.25-.61,415.28,0-133,.62-282.25.62-415.28,0Z" style="fill:#263238"></path></g></svg>
