<svg xmlns="http://www.w3.org/2000/svg" viewBox="0 0 500 500"><g id="freepik--background-complete--inject-637"><path d="M454.82,156.51H341.64s11.22-30.65,28.49-30.65S392.81,147,392.81,147s11.65-11.5,21.23-11.5,17.89,15.19,17.89,15.19S445.46,142.54,454.82,156.51Z" style="fill:#ebebeb"></path><path d="M98.07,127.14H45.18S57,110,66.31,110s12.06,11.41,12.06,11.41S85,116.1,91,117.06,98.07,127.14,98.07,127.14Z" style="fill:#ebebeb"></path><path d="M298.33,46.41h-52.9s11.82-17.13,21.13-17.13S278.63,40.7,278.63,40.7s6.57-5.33,12.66-4.38S298.33,46.41,298.33,46.41Z" style="fill:#ebebeb"></path><path d="M313.67,144.26H260.78s11.81-17.12,21.13-17.12S294,138.55,294,138.55s6.57-5.32,12.66-4.37S313.67,144.26,313.67,144.26Z" style="fill:#ebebeb"></path><path d="M203.19,85.33h-103s14.11-31.5,29.2-33.47,22.31,23.41,22.31,23.41,9.74-9,17.39-9,13.57,11.81,13.57,11.81S197.94,70,203.19,85.33Z" style="fill:#ebebeb"></path><path d="M271,167.06h-103s14.11-31.5,29.2-33.47S219.45,157,219.45,157s9.74-9,17.39-9,13.56,11.81,13.56,11.81S265.72,151.74,271,167.06Z" style="fill:#ebebeb"></path><path d="M469.6,281.47c-.74,9.36-5.44,66.45-36.82,61.51-5.26,19.12-8.32,41.37-5.11,74.49H360.11s-7.07-44,15.43-81.88c17.2-28.91,22.31-48.7,22.31-54.15s-12.75-21.88-14.11-42.67,5.06-43.1,6.42-44.53,7.52-2.92,5.79,3.91c-.64,2.48-1.66,6.56-2.65,11.36-1.72,8.47-3.32,19.18-2.46,27.31,1.11,10.26,6.08,26.28,11.66,29.71a3.58,3.58,0,0,0,4.12,0c7.06-4.62,8.14-36.58,7.61-69.62-.21-12.61,2.87-34,3.89-36s5.21-2.08,6.31,0c1,1.9-3.16,62.92,9.64,62.92,8.48,0,10-18,11.37-18.93a3.16,3.16,0,0,1,3-.28c2.27,2.67,12.69,54.88-2.08,98.39-.43,1.27-.86,2.53-1.3,3.78h0c-3,13.33-4.29,22.09-.48,22.87,10.13,2.09,17.11-38.93,19.1-48.85C464.73,275.28,469.84,278.48,469.6,281.47Z" style="fill:#ebebeb"></path><path d="M447.25,272.3c-.61,7.15-2.5,17.15-11.1,18.44a8,8,0,0,1-8.7-4.61c-1.77-3.84-.58-8.11.34-12,.41-1.77.78-3.59,1.17-5.41.57-3.34,1.38-7.72,3-11.16a8.14,8.14,0,0,1,1.23-2.14A7.09,7.09,0,0,1,439.5,252C449,252.39,447.8,266,447.25,272.3Z" style="fill:#dbdbdb"></path><path d="M395.51,325.54c-1.87,4.19-3.8,8.35-5.73,12.51a.91.91,0,0,1,0,.77,161.87,161.87,0,0,0-13,40.13c-2.34,12.87-2.2,25.57-2.23,38.52h-5.47c-2.38-8.84-2-18.83-.79-27.63a138.18,138.18,0,0,1,8.88-32.59c4.07-10.21,9.13-19.95,14.05-29.77a107.83,107.83,0,0,0,6.87-16.25c1.71-5.43,2.87-11,4.37-16.5.22-.82,1.62-.67,1.5.2A109.26,109.26,0,0,1,395.51,325.54Z" style="fill:#dbdbdb"></path><path d="M403.46,328.2a90.3,90.3,0,0,0-12.62,33.21,78.27,78.27,0,0,0-.85,17.43c.45,6.65,1.37,13.15,1.22,19.83,0,.82,1.28,1,1.45.2,2.42-11.46.45-23.5,1.59-35.11a101.39,101.39,0,0,1,10-35.11A.44.44,0,0,0,403.46,328.2Z" style="fill:#dbdbdb"></path><path d="M433.56,227.51c-4.16,9.66-9.05,18.92-12.57,28.87a104.33,104.33,0,0,0-5.74,32.13c-.31,11.35-.31,22.68-1.43,34-1.17,11.85-3.42,23.48-5.48,35.19-.16.91,1.15,1.31,1.4.39A282.5,282.5,0,0,0,419.38,292c.43-22.15,6.32-43.8,14.82-64.21C434.35,227.42,433.72,227.15,433.56,227.51Z" style="fill:#dbdbdb"></path><path d="M426.93,301.75c0-.44-.73-.46-.71,0,1.14,18.5-4.49,36.88-9,54.65A241.38,241.38,0,0,0,412,382.75c-1.21,8.86-2.32,18.14-1.22,27.06a.89.89,0,0,0,1.77,0,143.27,143.27,0,0,1,2.73-27.64c1.95-9.08,4.43-18.05,6.6-27.08C426.09,337.47,428.87,319.92,426.93,301.75Z" style="fill:#dbdbdb"></path><path d="M422.34,417.47h-4.2c-.39-3.6-.51-7.26-.75-10.54-.53-7.14.16-14,.72-21.13a.77.77,0,0,1,1.54,0c.19,6.82,1.13,13.64,1.61,20.46.23,3.17.5,6.34.86,9.51C422.18,416.33,422.26,416.9,422.34,417.47Z" style="fill:#dbdbdb"></path><path d="M400.08,359.73c0-.35-.58-.37-.56,0,.35,7.48-.08,15-.26,22.5s-1.2,15.12-.66,22.48a.59.59,0,0,0,1.16.16c2.06-6.85,2.14-14.85,2.18-21.95C402,375.1,401,367.48,400.08,359.73Z" style="fill:#dbdbdb"></path><path d="M385.28,400.7a94.41,94.41,0,0,1-1,16.77h-3.45A80.32,80.32,0,0,1,381.4,400c.88-7.6,1.73-15.22,2.76-22.79.09-.68,1.16-.49,1.15.15C385.25,385.16,385.23,392.92,385.28,400.7Z" style="fill:#dbdbdb"></path><path d="M442.57,296.29c-3,10.47-10.15,19.09-9.68,30.42a.3.3,0,0,0,.58.08c2-5.48,3.49-10.74,6-16a46,46,0,0,0,3.95-14.34C443.53,295.89,442.71,295.82,442.57,296.29Z" style="fill:#dbdbdb"></path><path d="M446.06,223.33c0-.44-.61-.41-.66,0-1.17,10.67.51,21.41,2.86,31.8a.45.45,0,0,0,.88-.12C448.5,244.41,446.23,234,446.06,223.33Z" style="fill:#dbdbdb"></path><path d="M412.37,269.62c-5.08,12.44-3.74,25.95-3.51,39.1,0,.48.8.63.88.11,2-12.89-.48-26.35,3.48-39C413.39,269.31,412.58,269.12,412.37,269.62Z" style="fill:#dbdbdb"></path><path d="M30.39,203.06c0,8,0,46.35,32.54,52.6,0,0,.53,4,1.56,10.37,1.24,7.68,3.22,18.71,5.85,29.93a.22.22,0,0,0,0,.08c.91,3.86,1.89,7.74,3,11.51a.29.29,0,0,0,0,.09l.3,1.06a210.43,210.43,0,0,1,5.07,21.92c10,57.32-11.3,86.63-11.3,86.63h44.77S123.25,363.6,99.7,309.78c-4.35-10,13-18.06,20.55-36.59,6.42-15.7,6.24-92.95,3.12-97.92s-8.09-3.74-8.09,3.11,0,71-4.37,83.45-23,27.4-23,27.4S78.37,271.88,73,233.88v0a404.57,404.57,0,0,1-3.33-67.61s0,0,0,0q.24-8.67.82-18c.45-7.14-6.23-4-8.46,2.23s-5.35,42.34-.89,90.93c0,0-22.29-3.48-22.29-42.35C38.86,191.92,30.39,195,30.39,203.06Z" style="fill:#ebebeb"></path><path d="M90,309.26c2.57,9.71,6.09,19.16,8.64,28.89a214.37,214.37,0,0,1,5.76,29.9,169.07,169.07,0,0,1,.88,29.33c-.39,6.71-1.78,13.27-2.83,19.87h4.08c4.84-15.37,4.19-32.69,1.7-48.2a239.32,239.32,0,0,0-7.18-30c-3-10.08-5.87-20.37-9.69-30.17A.71.71,0,0,0,90,309.26Z" style="fill:#dbdbdb"></path><path d="M71.94,251.36c1.79,20.48,10,40.36,15.84,59.92a177.47,177.47,0,0,1,7,61.06.38.38,0,0,1-.76,0c-.19-11.19-.36-22.45-2.44-33.48-1.88-10-4.85-19.75-7.84-29.43-2.93-9.49-6.18-18.91-8.59-28.56a145.47,145.47,0,0,1-4.1-29.51C71.06,250.8,71.89,250.81,71.94,251.36Z" style="fill:#dbdbdb"></path><path d="M72,417.25h4.51c1.25-2.8,2.37-5.64,3.44-8.39a129.57,129.57,0,0,0,7-25.35,136.34,136.34,0,0,0-1.26-51c-.1-.48-.79-.27-.72.2a143.16,143.16,0,0,1-1.64,51.17,153.76,153.76,0,0,1-7.08,23.95C75.08,411.07,73.58,414.18,72,417.25Z" style="fill:#dbdbdb"></path><path d="M88.8,395.15c1-3.77,1.67-8.4,3.41-11.91a4,4,0,0,1,3.21-2.39.62.62,0,0,1,.31-.05l.46.07a3.91,3.91,0,0,1,.85.21,1.84,1.84,0,0,1,1.27,1.27s0,.07,0,.1c2,3.14,1.25,9.87,1,12.34-.43,3.85-1.47,14-7.52,13C85.9,407,87.8,398.81,88.8,395.15Z" style="fill:#dbdbdb"></path><path d="M64.49,266c1.24,7.68,3.22,18.71,5.85,29.93a.22.22,0,0,0,0,.08l1,3.83c.7,2.56,1.35,5.12,1.93,7.68a.29.29,0,0,0,0,.09l.3,1.06a210.43,210.43,0,0,1,5.07,21.92c1-9.62-.63-19.18-3.18-28.76C72.28,289.73,68.64,277.84,64.49,266Z" style="fill:#dbdbdb"></path><path d="M119.19,241.28a4.41,4.41,0,0,1,.42-2,1.45,1.45,0,0,1,1.45-.7,1.49,1.49,0,0,1,1.2,1c0,.07,0,.14.07.21a1.24,1.24,0,0,1,.2.47,3.65,3.65,0,0,1,0,.93,2.15,2.15,0,0,1-.52,2.37,1.56,1.56,0,0,1-2.42-.31A2.71,2.71,0,0,1,119.19,241.28Z" style="fill:#dbdbdb"></path><path d="M93.83,291.43c10.55-12.49,23-27.13,22.93-44.43,0-.43.6-.4.65,0,2.4,19-9.77,33.11-22.68,45.33A.64.64,0,0,1,93.83,291.43Z" style="fill:#dbdbdb"></path><path d="M95.44,299.8c.52-3.11,3-5.77,5-8.05,2.76-3.06,5.76-5.85,8.11-9.26a.43.43,0,0,1,.74.43,53.79,53.79,0,0,1-6.13,8.48c-2.4,2.86-4.35,6.18-6.87,8.9C95.92,300.71,95.37,300.26,95.44,299.8Z" style="fill:#dbdbdb"></path><path d="M121.54,186.31c0-.34.48-.32.52,0,2,15.18,2.36,31.4-.44,46.53-.09.48-.84.36-.84-.12C120.78,217.27,121.52,201.78,121.54,186.31Z" style="fill:#dbdbdb"></path><path d="M118.23,209.81c0-.12.19-.12.19,0,.08,10,.09,20.88-2.13,30.7a.53.53,0,0,1-1-.14C115.33,230.26,117.13,219.86,118.23,209.81Z" style="fill:#dbdbdb"></path><path d="M38.12,225.7c2.3,6.65,4.82,12.62,10.18,17.45a39.63,39.63,0,0,0,8.09,5.67c2.82,1.46,6,2.13,8.72,3.65a.44.44,0,0,1-.21.81c-6.6.78-14.13-4.57-18.41-9.12-4.64-4.92-8.8-11.43-9.25-18.35C37.2,225.29,38,225.24,38.12,225.7Z" style="fill:#dbdbdb"></path><path d="M37.14,210.66c1.33,12.41,7.91,22.89,16.5,31.58.24.24-.07.68-.37.48-10.71-7.1-16-19.6-16.33-32.06C36.93,210.52,37.13,210.53,37.14,210.66Z" style="fill:#dbdbdb"></path><path d="M62.4,183.49c.05-.46.74-.47.73,0-.49,27.58,4.87,54.69,7,82.09,0,.46-.72.57-.8.11C66.87,252.24,65,238.6,63.5,225,62,211.21,61.13,197.35,62.4,183.49Z" style="fill:#dbdbdb"></path><path d="M65.78,199.52A119.73,119.73,0,0,0,73,233.86a404.57,404.57,0,0,1-3.33-67.61,104.39,104.39,0,0,0-2.81,11.64A94.39,94.39,0,0,0,65.78,199.52Z" style="fill:#dbdbdb"></path><path d="M62.7,168.26c.37-2.46,1.41-4.71,1.88-7.14.1-.51,1-.53,1,0,.34,2.12-.33,3.9-.88,5.94a64.42,64.42,0,0,0-1.3,8.74.44.44,0,0,1-.88,0A32.24,32.24,0,0,1,62.7,168.26Z" style="fill:#dbdbdb"></path><path d="M92.34,302.59a108.45,108.45,0,0,1,12.37,34.21.38.38,0,0,1-.74.2c-3.85-11.46-8.24-22.75-12.3-34.13C91.53,302.47,92.14,302.24,92.34,302.59Z" style="fill:#dbdbdb"></path><path d="M81.22,312.21c2,4.12,4.24,10.17,3.34,14.8a.12.12,0,0,1-.21,0c-1.08-2-1.36-4.46-1.9-6.7-.63-2.61-1.43-5.17-2-7.77C80.29,312.08,81,311.73,81.22,312.21Z" style="fill:#dbdbdb"></path><path d="M94.92,415.58A31.71,31.71,0,0,0,100.41,402c1-5.89,2.15-12.22,1.08-18.17-.89-4.88-2.58-9.49-3.23-14.43a75.65,75.65,0,0,1-.21-17.73c0-.38.61-.39.6,0a74.35,74.35,0,0,0,2,20.38c1.35,5.52,3.52,10.85,3.49,16.61,0,8.78-1.38,21.35-8.4,27.51C95.31,416.55,94.56,416.08,94.92,415.58Z" style="fill:#dbdbdb"></path><path d="M85.41,417.25h2.65a11.2,11.2,0,0,0-.35-4.41c-.88-3.42-2.65-7.19-2.12-10.81,0-.2-.26-.37-.36-.15C83,407,84.8,412.09,85.41,417.25Z" style="fill:#dbdbdb"></path><path d="M86.1,398.77s0,0,0,0a2.4,2.4,0,0,0-.33,1.43s0,0,0,0A2.42,2.42,0,0,1,86.1,398.77Z" style="fill:#dbdbdb"></path></g><g id="freepik--Moon--inject-637"><circle cx="376.84" cy="87.73" r="52.33" style="fill:#fff"></circle><circle cx="376.84" cy="87.73" r="52.33" style="fill:#ECEFF1;opacity:0.6000000000000001"></circle><path d="M413.85,124.74a52.34,52.34,0,0,1-89.32-38.49,49.48,49.48,0,1,0,50.84-50.83,52.33,52.33,0,0,1,38.48,89.32Z" style="fill:#ECEFF1;opacity:0.6000000000000001"></path><g style="opacity:0.5"><path d="M349.85,104.08a4.62,4.62,0,0,1,1.49,3.36,5.07,5.07,0,0,1-1.48,3.69,4.57,4.57,0,0,1-3.83,1.32,5.53,5.53,0,0,1-3.29-1.58,17.12,17.12,0,0,0,3.25-.22,4,4,0,0,0,2.25-1.12,5.45,5.45,0,0,0,1.32-2.28A9.54,9.54,0,0,0,349.85,104.08Z" style="fill:#ECEFF1"></path><path d="M343.37,109.16a3,3,0,0,1-1.3-2.32,3.57,3.57,0,0,1,1-2.74,3.25,3.25,0,0,1,2.86-.93,3.49,3.49,0,0,1,2.25,1.36A16.21,16.21,0,0,0,346,105a2.94,2.94,0,0,0-1.28.73,4.1,4.1,0,0,0-.87,1.32A7.64,7.64,0,0,0,343.37,109.16Z" style="fill:#ECEFF1"></path><path d="M413.8,61.87a4.69,4.69,0,0,1-1.12,3.51,5.14,5.14,0,0,1-3.57,1.78,4.58,4.58,0,0,1-3.73-1.57A5.46,5.46,0,0,1,404,62.23a16.89,16.89,0,0,0,2.57,2,4.09,4.09,0,0,0,2.43.66,5.48,5.48,0,0,0,2.5-.82A9.82,9.82,0,0,0,413.8,61.87Z" style="fill:#ECEFF1"></path><path d="M405.57,61.36a3,3,0,0,1,.57-2.59,3.61,3.61,0,0,1,2.6-1.37,3.25,3.25,0,0,1,2.75,1.22,3.36,3.36,0,0,1,.77,2.5A16.2,16.2,0,0,0,410.32,60a2.83,2.83,0,0,0-1.44-.3,4.17,4.17,0,0,0-1.53.41A7.66,7.66,0,0,0,405.57,61.36Z" style="fill:#ECEFF1"></path><path d="M345,72.5a3.18,3.18,0,0,1-.76,2.38,3.45,3.45,0,0,1-2.43,1.21A3.09,3.09,0,0,1,339.24,75a3.75,3.75,0,0,1-1-2.29A11.63,11.63,0,0,0,340,74.1a2.76,2.76,0,0,0,1.65.44,3.64,3.64,0,0,0,1.7-.56A6.59,6.59,0,0,0,345,72.5Z" style="fill:#ECEFF1"></path><path d="M339.37,72.15a2.05,2.05,0,0,1,.39-1.77,2.43,2.43,0,0,1,1.77-.93,2.2,2.2,0,0,1,1.87.83,2.24,2.24,0,0,1,.53,1.7,11.19,11.19,0,0,0-1.32-.77,1.91,1.91,0,0,0-1-.21,3.1,3.1,0,0,0-1.05.28A5.48,5.48,0,0,0,339.37,72.15Z" style="fill:#ECEFF1"></path><path d="M397.56,84.49a11.09,11.09,0,0,1,8,6.1,12.27,12.27,0,1,0-19.39,10.92,11.18,11.18,0,0,1,11.36-17Z" style="fill:#ECEFF1"></path><path d="M410.34,89.43a15.85,15.85,0,0,1-.43,9.57,18.7,18.7,0,0,1-5.64,8,13.53,13.53,0,0,1-9.4,3.25,14.62,14.62,0,0,1-8.87-3.66,19.78,19.78,0,0,0,8.87,1.77,17.11,17.11,0,0,0,2.15-.3,12.1,12.1,0,0,0,2-.68,13.54,13.54,0,0,0,3.66-2.24c.56-.47,1.11-1,1.64-1.49s1-1.07,1.45-1.67a19.91,19.91,0,0,0,2.36-3.75A22.2,22.2,0,0,0,410.34,89.43Z" style="fill:#ECEFF1"></path><path d="M351.55,59.34a3.87,3.87,0,0,1,2.71,2.28,4.31,4.31,0,1,0-7,3.48,3.92,3.92,0,0,1,4.28-5.76Z" style="fill:#ECEFF1"></path><path d="M356,61.29a5.31,5.31,0,0,1-.22,3.4,6.52,6.52,0,0,1-2.13,2.79,4.77,4.77,0,0,1-3.45,1,4.92,4.92,0,0,1-3-1.55,7.22,7.22,0,0,0,3.08.66,4.69,4.69,0,0,0,2.72-1A7.85,7.85,0,0,0,356,61.29Z" style="fill:#ECEFF1"></path><path d="M365.6,115.14a5.54,5.54,0,0,1,3.59,3.53,6.12,6.12,0,1,0-10.3,4.16,5.58,5.58,0,0,1,6.71-7.69Z" style="fill:#ECEFF1"></path><path d="M371.61,118.4a8,8,0,0,1-.85,4.7,9.31,9.31,0,0,1-3.3,3.61,6.71,6.71,0,0,1-4.83,1,7.31,7.31,0,0,1-4.16-2.35,9.53,9.53,0,0,0,4.27,1.47,6.66,6.66,0,0,0,4.11-1.09,10.36,10.36,0,0,0,3.14-3.08A11,11,0,0,0,371.61,118.4Z" style="fill:#ECEFF1"></path></g></g><g id="freepik--Shadow--inject-637"><ellipse cx="250" cy="443.59" rx="135" ry="25.84" style="fill:#ebebeb"></ellipse></g><g id="freepik--Floor--inject-637"><polygon points="44.41 417.61 95.81 417.37 147.2 417.28 250 417.11 352.8 417.28 404.19 417.37 455.59 417.61 404.19 417.86 352.8 417.94 250 418.11 147.2 417.94 95.81 417.85 44.41 417.61" style="fill:#263238"></polygon></g><g id="freepik--Pumpkin--inject-637"><path d="M159.5,105.4c.93,9.82,2.82,19.62,6.79,28.19,2,4.22,4.53,8.14,7.85,10.85a16.82,16.82,0,0,0,11.08,4.09c7.85-.44,15.51-6.64,20.09-13.82a25.31,25.31,0,0,0,4-11.3c.15-3.65-1.18-6.13-3.89-7.7a5.28,5.28,0,0,0-3.67-.71,9.12,9.12,0,0,0-4.21,2,24.48,24.48,0,0,0-7,9.75c-3.32,7.84-4,17.18-.32,24.68a25.08,25.08,0,0,0,8,9.71,19.19,19.19,0,0,0,11.45,4.49c8.53.06,17-6.42,23.38-13.78a40.81,40.81,0,0,1-8.68,12.4,25.74,25.74,0,0,1-14.28,7.37,24,24,0,0,1-16.29-4,32.78,32.78,0,0,1-11.56-12.07c-5.46-10.18-5.35-22.43-1.13-32.69a34.54,34.54,0,0,1,10-14,19.55,19.55,0,0,1,9.06-4.19,15.87,15.87,0,0,1,10.52,2.14,17.78,17.78,0,0,1,7,7.51,19.35,19.35,0,0,1,1.81,9.75c-.44,6.3-3,11.56-6.14,16.13a43.18,43.18,0,0,1-11.86,11.51,28.58,28.58,0,0,1-16.37,4.87,23.12,23.12,0,0,1-15.55-7.2,35.41,35.41,0,0,1-7.93-13.9A72,72,0,0,1,159.5,105.4Z" style="fill:#455a64"></path><path d="M279.34,163.65c-30.58,12.7-55.65,0-55.65,0-5-34.27,20.58-53.36,25.72-54.93a19.82,19.82,0,0,1,6-.22c8.5.59,21.64,3.47,21.64,5,0,2-6.57,9.08-8.54,24.48S279.34,163.65,279.34,163.65Z" style="fill:#455a64"></path><path d="M279.34,163.65c-30.58,12.7-55.65,0-55.65,0s58.46,9,31.71-55.15c8.5.59,21.64,3.47,21.64,5,0,2-6.57,9.08-8.54,24.48S279.34,163.65,279.34,163.65Z" style="fill:#37474f"></path><path d="M417.36,393.37c-.62,1.28-1.28,2.48-2,3.61-14.45,23.28-51.09,31.5-89.08,37.77,0,0-29.34,17.52-76.49,17.52a170.74,170.74,0,0,1-18.65-1c-34.45-3.73-57.8-16.46-57.8-16.46-38-6.28-71.57-8.07-89.12-37.81C62.36,359.9,94.65,244.33,124.87,193.1c13.14-22.19,48.1-37.56,79.22-37.56,22,0,36.64,6.76,45.73,6.76,8.47,0,19.38-7.34,41.86-7.34a117.5,117.5,0,0,1,23.61,2.52l0,0a109.81,109.81,0,0,1,10.92,2.78,114.33,114.33,0,0,1,21.86,9l0,0c11.53,6.24,21.06,14.3,26.64,23.76C404.11,242.76,436.08,353.3,417.36,393.37Z" style="fill:#ECEFF1"></path><path d="M417.36,393.37c-.62,1.28-1.28,2.48-2,3.61-14.45,23.28-51.09,31.5-89.08,37.77,0,0-29.34,17.52-76.49,17.52a170.74,170.74,0,0,1-18.65-1c-34.45-3.73-57.8-16.46-57.8-16.46-38-6.28-71.57-8.07-89.12-37.81C62.36,359.9,94.65,244.33,124.87,193.1c13.14-22.19,48.1-37.56,79.22-37.56,22,0,36.64,6.76,45.73,6.76,8.47,0,19.38-7.34,41.86-7.34a117.5,117.5,0,0,1,23.61,2.52l0,0a109.81,109.81,0,0,1,10.92,2.78,114.33,114.33,0,0,1,21.86,9l0,0c11.53,6.24,21.06,14.3,26.64,23.76C404.11,242.76,436.08,353.3,417.36,393.37Z" style="opacity:0.2"></path><g style="opacity:0.1"><path d="M165.6,258.41a207.73,207.73,0,0,1,9.78-32.82,143.94,143.94,0,0,1,16.56-30.23,86.89,86.89,0,0,1,25.5-23.64,64.48,64.48,0,0,1,33.74-9.51A74.19,74.19,0,0,1,285,171.3a79.43,79.43,0,0,1,26,23.18c13.81,18.87,20.41,41.54,23.92,63.93-3-11-5.84-22-10.51-32.34-4.3-10.41-9.58-20.47-16.64-29.13s-15.22-16.34-25-21.42a69.39,69.39,0,0,0-31.61-8,59.3,59.3,0,0,0-31.24,8.38c-9.56,5.49-17.7,13.29-24.72,22C181.23,215.44,172.45,236.76,165.6,258.41Z"></path><path d="M173.61,434.77a53.89,53.89,0,0,1-15.06-10,60.46,60.46,0,0,1-11.43-14.29,58.62,58.62,0,0,1-6.45-17.16,50.55,50.55,0,0,1-.28-18.1,143,143,0,0,0,4.26,17,90.8,90.8,0,0,0,7,15.59C157.3,417.83,165,426.44,173.61,434.77Z"></path><path d="M326.9,434.77c8.61-8.33,16.3-16.94,21.91-26.91a91.61,91.61,0,0,0,7.05-15.59,147,147,0,0,0,4.26-17,51,51,0,0,1-.28,18.1,58.64,58.64,0,0,1-6.46,17.16A60.21,60.21,0,0,1,342,424.77,53.7,53.7,0,0,1,326.9,434.77Z"></path><path d="M148.61,430.82c-8.91-3.37-16.45-10-22.26-17.68s-9.82-16.74-12.47-26-3.53-18.91-3.78-28.42c.12-4.76.43-9.52.81-14.24.82-4.69,1.46-9.37,2.44-14,.21,4.75.09,9.43.14,14.1l.72,13.95c1.08,9.19,2,18.41,4.74,27.17a93.65,93.65,0,0,0,10.77,25.07C134.69,418.42,140.7,425.64,148.61,430.82Z"></path><path d="M144,269.65a87.63,87.63,0,0,1,2.52-18.95,122.54,122.54,0,0,1,5.85-18.24c4.9-11.76,11.71-23.08,21.26-31.65-3,5.66-6.1,11.05-8.79,16.67s-5.33,11.22-7.6,17C152.43,246,148.35,257.68,144,269.65Z"></path><path d="M372.07,395.48c3.38-5.52,5.05-11.61,6.42-17.68a121.59,121.59,0,0,0,2.41-18.57c.52-6.25.45-12.55.53-18.9l-.12-9.56c-.08-3.19-.17-6.4,0-9.67,1,3.08,1.8,6.22,2.6,9.37s1.18,6.38,1.66,9.59.59,6.48.79,9.73c0,3.26.11,6.53-.17,9.8a73.5,73.5,0,0,1-3.72,19.32C380.27,385.07,377.2,391.31,372.07,395.48Z"></path></g><path d="M316.2,415.52a3,3,0,0,1,1.61,3.49,2.89,2.89,0,0,1-4,1.32,2.68,2.68,0,0,1,2.35-4.81Z" style="opacity:0.2"></path><path d="M405.68,318.64a3,3,0,0,1,1.6,3.49,2.88,2.88,0,0,1-3.95,1.32,2.76,2.76,0,0,1-1.3-3.4A2.8,2.8,0,0,1,405.68,318.64Z" style="opacity:0.2"></path><path d="M162.26,179.42a3,3,0,0,1,1.61,3.49,2.89,2.89,0,0,1-4,1.33,2.68,2.68,0,0,1,2.35-4.82Z" style="opacity:0.2"></path><path d="M325.51,165.19a3,3,0,0,1,1.61,3.49,2.89,2.89,0,0,1-4,1.33,2.68,2.68,0,0,1,2.35-4.82Z" style="opacity:0.2"></path><path d="M170.27,399.39a3,3,0,0,1,1.61,3.49,2.88,2.88,0,0,1-4,1.32,2.77,2.77,0,0,1-1.3-3.4A2.81,2.81,0,0,1,170.27,399.39Z" style="opacity:0.2"></path><path d="M312.27,428.83a2,2,0,0,1-2.21,1.14,1.86,1.86,0,0,1-1-2.51,1.78,1.78,0,0,1,2.15-.94A1.82,1.82,0,0,1,312.27,428.83Z" style="opacity:0.2"></path><path d="M174.35,184.66a1.94,1.94,0,0,1-2.2,1.14,1.86,1.86,0,0,1-1-2.5,1.73,1.73,0,0,1,3.18,1.36Z" style="opacity:0.2"></path><path d="M127.6,219.56a1.94,1.94,0,0,1-2.2,1.15,1.86,1.86,0,0,1-1-2.51,1.73,1.73,0,0,1,3.18,1.36Z" style="opacity:0.2"></path><path d="M318.09,173.08a1.94,1.94,0,0,1-2.2,1.14,1.88,1.88,0,0,1-1-2.51,1.73,1.73,0,0,1,3.18,1.37Z" style="opacity:0.2"></path><path d="M161.94,396.17a2,2,0,0,1-2.2,1.14,1.86,1.86,0,0,1-1-2.51,1.73,1.73,0,0,1,3.18,1.37Z" style="opacity:0.2"></path><path d="M325.06,421.2a3.9,3.9,0,0,1,4.65,1.79c.88,1.81-.56,4.29-2.47,4.81a3.58,3.58,0,0,1-4.29-2A3.62,3.62,0,0,1,325.06,421.2Z" style="opacity:0.2"></path><path d="M249.82,452.27a170.74,170.74,0,0,1-18.65-1c-34-3.68-57.19-16.13-57.79-16.45h0c-38-6.27-71.54-8.07-89.08-37.8C62.36,359.9,94.65,244.33,124.87,193.1c11.58-19.56,40.12-33.82,68-36.93l.37,0,.14.38c-30.69,13.82-46.26,36.32-59.5,82.05s-17.36,122.05-6.2,145.3,40.23,31.44,40.23,31.44S203.38,452.27,249.82,452.27Z" style="opacity:0.1"></path><path d="M173.33,434.78c-38-6.27-71.54-8.07-89.08-37.8C62.36,359.9,94.65,244.33,124.87,193.1c11.58-19.56,40.12-33.82,68-36.93l.51.34c-32.2,7-63.33,36.3-76.56,82s-33.76,123-11.62,158.84C118.58,419,171.67,434.3,173.33,434.78Z" style="opacity:0.1"></path><path d="M250.07,162.31a71.86,71.86,0,0,1,28.48-9.63,35.31,35.31,0,0,1,15.89,1.91,23.07,23.07,0,0,1,12.67,11.53,28.61,28.61,0,0,1,1.88,17,43.43,43.43,0,0,1-6,15.4c-3,4.66-6.84,9.07-12.48,11.92a19.49,19.49,0,0,1-9.69,2.12,17.82,17.82,0,0,1-9.64-3.54,15.89,15.89,0,0,1-6.05-8.86,19.38,19.38,0,0,1,.34-10,34.56,34.56,0,0,1,9.05-14.69c7.82-7.88,19.07-12.73,30.58-11.66a32.83,32.83,0,0,1,15.61,6,24,24,0,0,1,10,13.45c1.54,5.59.59,11.22-1.24,16a41.1,41.1,0,0,1-8.06,12.82c4.31-8.73,7-19.06,3.62-26.9a19.16,19.16,0,0,0-8.59-8.81,25,25,0,0,0-12.05-3.61c-8.34-.47-16.68,3.77-22.62,9.87a24.56,24.56,0,0,0-6.26,10.28,9.3,9.3,0,0,0-.18,4.64,5.31,5.31,0,0,0,2.08,3.11c2.5,1.88,5.3,2.15,8.6.59a25.13,25.13,0,0,0,8.86-8.1c4.83-7,7.57-16.48,4.93-23.88a16.84,16.84,0,0,0-8.07-8.62c-3.79-2-8.38-2.81-13.05-3C269.26,157.29,259.49,159.35,250.07,162.31Z" style="fill:#455a64"></path><path d="M336.33,181.23c-4.83,4.15-2.44,14.83,5.33,23.85s18,13,22.8,8.82,2.43-14.84-5.33-23.86S341.15,177.08,336.33,181.23Z" style="fill:#fff;opacity:0.5"></path><path d="M370.76,223.16a9.22,9.22,0,1,0,13,1A9.23,9.23,0,0,0,370.76,223.16Z" style="fill:#fff;opacity:0.5"></path><path d="M235.34,273.51c-.4-.29,15.72-35,16.43-35.21.14-.05,3.75,0,3.75,0,2.54,8.39,5.63,34,5.4,34.58S236.91,274.65,235.34,273.51Z" style="opacity:0.30000000000000004"></path><path d="M239.08,273.51c-.4-.29,15.72-35,16.44-35.21s9.43,33.82,9.14,34.58S240.65,274.65,239.08,273.51Z" style="fill:#ECEFF1"></path><path d="M328.94,315.13c-7.59,7.14-15,13.51-24.59,17.82-.68.31-3.12,0-3.74.13L297,314.66l-27.16,8.4,7.78,17.56A139,139,0,0,1,251,344.4c-21.2.76-48.93-4.87-75.91-24.85-30.54-22.62-45.56-58.12-37.23-65.77,6.2-5.69,15.14.11,33.7,13.77a108.27,108.27,0,0,0,18.21,10.66l-9.82,16.61,22.94,10.9,7.63-19.92c.79.22,3-.33,3.74-.13,1.29.33,1.21,1.4,2.52,1.69l-3.19,17.4,18.38,2.49.16-17.4c1,.09,2.77-.21,3.74-.14a111.41,111.41,0,0,0,13.21.71c17.62-.63,46.84-5.13,61.53-12.66,21.06-10.8,40.63-33.51,48.2-21.72S350.89,294.47,328.94,315.13Z" style="opacity:0.30000000000000004"></path><path d="M332.67,315c-8.12,7.64-18,13.53-28.32,17.95l-3.63-18.42-27.16,8.4,7.78,17.56a139,139,0,0,1-26.64,3.78c-21.2.75-48.93-4.88-75.91-24.85-30.54-22.62-45.56-58.12-37.23-65.77,6.2-5.69,15.14.11,33.7,13.76a107.62,107.62,0,0,0,18.21,10.67l-9.82,16.6,22.94,10.91,7.63-19.92c2.06.57,4.14,1.09,6.26,1.56l-3.2,17.4,18.39,2.49.16-17.41a124,124,0,0,0,16.95.57c17.62-.63,46.84-5.13,61.53-12.65,21.06-10.8,40.63-33.51,48.2-21.72S354.63,294.34,332.67,315Z" style="fill:#ECEFF1"></path><path d="M201.39,216.56c-14.21-1.24-21.47,9.83-22.38,17.84-.84,7.38,1.91,22.3,17.92,23.75,14.76,1.35,21.66-8.78,22.39-19.93C220,228.23,211.81,217.47,201.39,216.56Z" style="opacity:0.30000000000000004"></path><path d="M206.16,216.56c-14.22-1.24-21.48,9.83-22.39,17.84-.84,7.38,1.91,22.3,17.93,23.75,14.75,1.35,21.66-8.78,22.39-19.93C224.74,228.23,216.57,217.47,206.16,216.56Z" style="fill:#ECEFF1"></path><path d="M302,216.56c-14.21-1.24-21.47,9.83-22.38,17.84-.84,7.38,1.91,22.3,17.92,23.75,14.75,1.35,21.66-8.78,22.39-19.93C320.62,228.23,312.46,217.47,302,216.56Z" style="opacity:0.30000000000000004"></path><path d="M306.81,216.56c-14.22-1.24-21.48,9.83-22.39,17.84-.84,7.38,1.91,22.3,17.93,23.75,14.75,1.35,21.66-8.78,22.39-19.93C325.39,228.23,317.22,217.47,306.81,216.56Z" style="fill:#ECEFF1"></path><g style="opacity:0.9"><path d="M356.22,330.27c-7,9.23-74.44,34.42-106.11,34.43h0c-31.67,0-99.15-25.2-106.11-34.43-19.83-26.29-15.31-89.12-12.27-89.33s36.48,12.56,52,14.82c30.77,4.47,52.14-9.52,66.34-9.53h0c14.2,0,35.57,14,66.34,9.53,15.56-2.26,49-15,52-14.82S376.05,304,356.22,330.27Z" style="fill:#fff"></path><path d="M359.13,260.78c-20.3,4.22-33.51,7.71-53.45,6.23-18.6-1.37-34.7-8.52-52.84-10.81-17.36-2.19-33.39,4.33-49.87,7.9-20.58,4.46-42.83.46-62.61-2.85-.24,0-.25.26,0,.34,18.08,5.63,36.75,9.77,54.65,7,21.16-3.33,41.26-12.91,63.15-8.26,16.36,3.48,30.52,8.23,47.52,9.16,20,1.09,32.93-2.22,53.45-7.4C360,261.81,360,260.6,359.13,260.78Z" style="fill:#ebebeb"></path><path d="M331.23,331.11c-26.67,7.14-57.43,19.44-86.3,17.75-30.83-1.81-60.79-11.67-88.18-22-.29-.1-.52.19-.25.33,24.94,12.28,56,21.77,85.84,23.35s62.59-9.88,89.15-19C331.83,331.46,331.59,331,331.23,331.11Z" style="fill:#ebebeb"></path><path d="M353.75,307.06c-34.52,7.33-68.63,14.25-104.88,14.14-34.89-.1-68.49-6.4-101.84-13.37-.06,0-.08.06,0,.08,32.89,8.36,66.91,16,101.86,16.12,35.79.14,71.54-7.43,105.1-16.36C354.47,307.54,354.27,306.94,353.75,307.06Z" style="fill:#ebebeb"></path></g><path d="M133.91,244.2a24.46,24.46,0,0,1-7.91-2.3,43.21,43.21,0,0,1-7-4.09,48.38,48.38,0,0,1-6.23-5.2c-1-1-1.87-2-2.75-3a32.44,32.44,0,0,1-2.42-3.35,34,34,0,0,1,3.67,1.84c1.19.64,2.33,1.35,3.46,2.05,2.26,1.4,4.42,2.89,6.57,4.39s4.25,3.08,6.35,4.67S131.77,242.45,133.91,244.2Z" style="fill:#fff"></path><path d="M367.32,244.2a24.46,24.46,0,0,0,7.91-2.3,43.21,43.21,0,0,0,7-4.09,48.38,48.38,0,0,0,6.23-5.2q1.44-1.44,2.76-3a33.92,33.92,0,0,0,2.41-3.35A34,34,0,0,0,390,228.1c-1.19.64-2.33,1.35-3.45,2.05-2.26,1.4-4.43,2.89-6.58,4.39s-4.24,3.08-6.34,4.67S369.47,242.45,367.32,244.2Z" style="fill:#fff"></path><path d="M147.11,331c-1.54-.47-3.06-1-4.59-1.52-.77-.26-1.52-.54-2.28-.82l-2.22-1-4.4-2.07c-1.42-.77-2.81-1.59-4.23-2.39a99,99,0,0,1-15.67-11.48,114.6,114.6,0,0,1-13.36-14.07,88,88,0,0,1-10.51-16.23c4.21,4.88,8.47,9.59,12.86,14.18s9,8.93,13.66,13.13a184.46,184.46,0,0,0,14.72,11.87c1.29.91,2.59,1.81,3.87,2.75l4,2.59,2,1.33c.68.4,1.38.78,2.06,1.2C144.37,329.33,145.75,330.16,147.11,331Z" style="fill:#fff"></path><path d="M355.92,331c1.53-.47,3.06-1,4.58-1.52.77-.26,1.53-.54,2.29-.82l2.21-1,4.4-2.07c1.43-.77,2.82-1.59,4.23-2.39a98.58,98.58,0,0,0,15.68-11.48,114.6,114.6,0,0,0,13.36-14.07,88,88,0,0,0,10.5-16.23c-4.2,4.88-8.47,9.59-12.85,14.18s-9,8.93-13.67,13.13a181,181,0,0,1-14.72,11.87c-1.28.91-2.59,1.81-3.86,2.75l-4,2.59-2,1.33c-.69.4-1.38.78-2.06,1.2C358.65,329.33,357.28,330.16,355.92,331Z" style="fill:#fff"></path></g><g id="freepik--Bats--inject-637"><path d="M416.22,135.82s.38,10.81-4.79,16.58c-.6.67-4.33-3.48-4.33-3.48V151a3,3,0,0,0-3.15,1.8l-2-1.66s1.79,5.32,1.31,6.43-12.95-.94-16.93-4.91c-.41-.41-2.55,7.46-8.91,11.33,0,0,6.29-1.38,9.67,2.83,0,0,6.91-5.8,12.58,1.59,0,0,5.52-6.91,13.81-1,0,0-2.07-8.09,7.6-11.47,0,0-2.83-8.57,5.39-12.78,0,0-1.31-7.39,4.28-12A37.73,37.73,0,0,1,416.22,135.82Z" style="fill:#263238"></path><path d="M344.71,120.57s-4.13,4.74-8.62,5.14c-.52.05-.46-3.19-.46-3.19l-.82.88a1.76,1.76,0,0,0-2.05-.49l-.18-1.49s-1.35,3-2,3.26-5.14-5.54-5.25-8.81c0-.34-4,2.16-8.29,1.28,0,0,3.22,1.91,3,5,0,0,5.24.28,4.71,5.67,0,0,5.1-.74,6.29,5,0,0,2.33-4.26,7.78-1.86,0,0,2.2-4.77,7.37-3.29,0,0,2.38-3.67,6.56-3.38A22,22,0,0,1,344.71,120.57Z" style="fill:#263238"></path><path d="M93.76,98.66s-.63,6.26-4.07,9.18c-.39.34-2.22-2.35-2.22-2.35l-.16,1.2a1.77,1.77,0,0,0-2,.79l-1-1.11s.62,3.2.25,3.8-7.39-1.55-9.37-4.15c-.2-.27-2.06,4.1-6,5.83,0,0,3.73-.3,5.35,2.39,0,0,4.44-2.8,7.12,1.9,0,0,3.73-3.55,8,.49,0,0-.56-4.82,5.28-6,0,0-1-5.16,4.11-7,0,0-.18-4.36,3.4-6.55A22,22,0,0,1,93.76,98.66Z" style="fill:#263238"></path><path d="M132.78,73.85s-3.3,2.2-6.1,1.7c-.32-.06.25-2,.25-2l-.64.4a1.12,1.12,0,0,0-1.17-.64l.14-.93S124,73.94,123.51,74s-2.2-4.22-1.73-6.22c0-.21-2.81.64-5.24-.6,0,0,1.64,1.69,1,3.56A3.11,3.11,0,0,1,119.44,75a3.58,3.58,0,0,1,3,4.11s2.12-2.2,5,.16a3.9,3.9,0,0,1,5-.77,4.89,4.89,0,0,1,4.55-1A13.7,13.7,0,0,1,132.78,73.85Z" style="fill:#263238"></path></g></svg>