<svg xmlns="http://www.w3.org/2000/svg" viewBox="0 0 500 500"><g id="freepik--background-complete--inject-133"><polygon points="103.53 357.3 107.4 358.02 108.27 362.1 109.13 358.02 113 357.3 109.15 356.36 108.27 352.51 107.38 356.36 103.53 357.3" style="fill:#dbdbdb"></polygon><polygon points="284.43 50.61 288.3 51.33 289.17 55.41 290.03 51.33 293.9 50.61 290.05 49.67 289.17 45.82 288.28 49.67 284.43 50.61" style="fill:#dbdbdb"></polygon><polygon points="300.18 449.39 304.05 450.1 304.92 454.18 305.78 450.1 309.65 449.39 305.8 448.44 304.92 444.59 304.04 448.44 300.18 449.39" style="fill:#dbdbdb"></polygon><polygon points="431.29 364.78 433.45 365.18 433.94 367.46 434.42 365.18 436.58 364.78 434.43 364.25 433.94 362.1 433.45 364.25 431.29 364.78" style="fill:#dbdbdb"></polygon><polygon points="401.69 100.11 403.85 100.52 404.33 102.79 404.81 100.52 406.98 100.11 404.82 99.59 404.33 97.44 403.84 99.59 401.69 100.11" style="fill:#dbdbdb"></polygon><polygon points="442.68 174.9 444.84 175.3 445.32 177.58 445.81 175.3 447.97 174.9 445.81 174.37 445.32 172.22 444.83 174.37 442.68 174.9" style="fill:#dbdbdb"></polygon><polygon points="58.95 376.06 61.11 376.46 61.59 378.74 62.08 376.46 64.24 376.06 62.09 375.53 61.59 373.38 61.1 375.53 58.95 376.06" style="fill:#dbdbdb"></polygon><polygon points="417.66 319.91 419.82 320.31 420.31 322.59 420.79 320.31 422.95 319.91 420.8 319.38 420.31 317.23 419.81 319.38 417.66 319.91" style="fill:#dbdbdb"></polygon><polygon points="122.78 389.21 124.95 389.62 125.43 391.89 125.91 389.62 128.08 389.21 125.92 388.69 125.43 386.54 124.94 388.69 122.78 389.21" style="fill:#dbdbdb"></polygon><path d="M80.28,424.29a.63.63,0,0,1,0,1.26A.63.63,0,0,1,80.28,424.29Z" style="fill:#dbdbdb"></path><path d="M373.9,338.88a.63.63,0,0,1,0,1.26A.63.63,0,0,1,373.9,338.88Z" style="fill:#dbdbdb"></path><path d="M379.82,249.26a.63.63,0,0,1,0,1.25A.63.63,0,0,1,379.82,249.26Z" style="fill:#dbdbdb"></path><path d="M142.46,423.67a.63.63,0,0,1,0,1.25A.63.63,0,0,1,142.46,423.67Z" style="fill:#dbdbdb"></path><path d="M116.75,387.34a.63.63,0,0,1,0,1.25A.63.63,0,0,1,116.75,387.34Z" style="fill:#dbdbdb"></path><path d="M403.73,347.1a.63.63,0,0,1,0,1.25A.63.63,0,0,1,403.73,347.1Z" style="fill:#dbdbdb"></path><path d="M377.5,277.76a.63.63,0,0,1,0,1.26A.63.63,0,0,1,377.5,277.76Z" style="fill:#dbdbdb"></path><path d="M368,385.65a.44.44,0,0,1,0,.88A.44.44,0,0,1,368,385.65Z" style="fill:#dbdbdb"></path><path d="M134.05,111.07a.45.45,0,0,1,0,.89A.45.45,0,0,1,134.05,111.07Z" style="fill:#dbdbdb"></path><path d="M135.17,391.45a.45.45,0,0,1,0,.89A.45.45,0,0,1,135.17,391.45Z" style="fill:#dbdbdb"></path><polygon points="56.86 254.47 60.73 255.18 61.59 259.26 62.46 255.18 66.33 254.46 62.48 253.52 61.59 249.67 60.71 253.52 56.86 254.47" style="fill:#dbdbdb"></polygon><polygon points="424.86 154.8 428.73 155.51 429.59 159.59 430.45 155.51 434.32 154.8 430.47 153.85 429.59 150 428.71 153.85 424.86 154.8" style="fill:#dbdbdb"></polygon><polygon points="260.52 69.4 262.69 69.8 263.17 72.08 263.65 69.8 265.82 69.4 263.66 68.88 263.17 66.72 262.68 68.88 260.52 69.4" style="fill:#dbdbdb"></polygon><polygon points="61.59 145.55 63.76 145.95 64.24 148.23 64.72 145.95 66.89 145.55 64.73 145.02 64.24 142.87 63.75 145.02 61.59 145.55" style="fill:#dbdbdb"></polygon><path d="M101.31,141.77a.63.63,0,0,1,0,1.25A.63.63,0,0,1,101.31,141.77Z" style="fill:#dbdbdb"></path><path d="M53.65,366.31a.63.63,0,0,1,0,1.25A.63.63,0,0,1,53.65,366.31Z" style="fill:#dbdbdb"></path><path d="M105.07,344.68a.63.63,0,0,1,0,1.26A.63.63,0,0,1,105.07,344.68Z" style="fill:#dbdbdb"></path><path d="M54.25,186a.63.63,0,0,1,0,1.25A.63.63,0,0,1,54.25,186Z" style="fill:#dbdbdb"></path><path d="M187.15,59.57a.63.63,0,0,1,0,1.26A.63.63,0,0,1,187.15,59.57Z" style="fill:#dbdbdb"></path><path d="M161.54,397.93a.44.44,0,0,1,0,.88A.44.44,0,0,1,161.54,397.93Z" style="fill:#dbdbdb"></path><polygon points="436.45 250.52 438.62 250.92 439.1 253.2 439.58 250.92 441.74 250.52 439.59 250 439.1 247.84 438.61 250 436.45 250.52" style="fill:#dbdbdb"></polygon><path d="M318,76.84a.44.44,0,0,1,0,.88A.44.44,0,0,1,318,76.84Z" style="fill:#dbdbdb"></path><path d="M223.69,439.08a.45.45,0,0,1,0,.89A.45.45,0,0,1,223.69,439.08Z" style="fill:#dbdbdb"></path><path d="M411.62,172.26a.44.44,0,0,1,0,.88A.44.44,0,0,1,411.62,172.26Z" style="fill:#dbdbdb"></path><path d="M338.88,60.38a.45.45,0,0,1,0,.89A.45.45,0,0,1,338.88,60.38Z" style="fill:#dbdbdb"></path><path d="M304.92,84.06a1.21,1.21,0,0,1,0,2.41A1.21,1.21,0,0,1,304.92,84.06Z" style="fill:#dbdbdb"></path><path d="M412.05,206.06a1.2,1.2,0,0,1,0,2.4A1.2,1.2,0,0,1,412.05,206.06Z" style="fill:#dbdbdb"></path><path d="M90.36,324.92a1.2,1.2,0,0,1,0,2.4A1.2,1.2,0,0,1,90.36,324.92Z" style="fill:#dbdbdb"></path><polygon points="150.97 90.29 153.13 90.69 153.61 92.97 154.09 90.69 156.26 90.29 154.1 89.77 153.61 87.61 153.12 89.77 150.97 90.29" style="fill:#dbdbdb"></polygon><path d="M338.68,421.1a.63.63,0,0,1,0,1.25A.63.63,0,0,1,338.68,421.1Z" style="fill:#dbdbdb"></path><path d="M297.13,415.19a.63.63,0,0,1,0,1.25A.63.63,0,0,1,297.13,415.19Z" style="fill:#dbdbdb"></path><polygon points="384.61 377.63 386.77 378.03 387.25 380.31 387.74 378.03 389.9 377.63 387.75 377.1 387.25 374.95 386.76 377.1 384.61 377.63" style="fill:#dbdbdb"></polygon><polygon points="404.33 432.26 406.49 432.66 406.98 434.94 407.46 432.66 409.62 432.25 407.47 431.73 406.98 429.58 406.48 431.73 404.33 432.26" style="fill:#dbdbdb"></polygon><path d="M389.9,406.41a.44.44,0,0,1,0,.88A.44.44,0,0,1,389.9,406.41Z" style="fill:#dbdbdb"></path><polygon points="77.64 267.96 79.8 268.36 80.28 270.64 80.76 268.36 82.93 267.96 80.77 267.43 80.28 265.28 79.79 267.43 77.64 267.96" style="fill:#dbdbdb"></polygon><path d="M52.64,314.36a.63.63,0,0,1,0,1.25A.63.63,0,0,1,52.64,314.36Z" style="fill:#dbdbdb"></path><path d="M90.36,197a.45.45,0,0,1,0,.89A.45.45,0,0,1,90.36,197Z" style="fill:#dbdbdb"></path><path d="M119.4,75.63a1.21,1.21,0,0,1,0,2.41A1.21,1.21,0,0,1,119.4,75.63Z" style="fill:#dbdbdb"></path><path d="M53,355.11c6.41,5.13,16.11,5.42,16.11,5.42s6-7.61,6.21-15.81c.16-6.84-4.38-12-9.33-11.33-7.1,1-3.65,12.61-3.65,12.61s-6.65-10.1-12-5.32C46.57,344,47.63,350.84,53,355.11Z" style="fill:#ebebeb"></path><path d="M425.23,332.32C424,340.43,428.52,349,428.52,349s9.6,1.45,16.81-2.45c6-3.25,8.28-9.77,5.21-13.72-4.41-5.66-12.76,3.08-12.76,3.08s5.47-10.78-1.34-13.06C431.7,321.27,426.3,325.57,425.23,332.32Z" style="fill:#ebebeb"></path><path d="M327.58,62c.9,4.35,4.84,7.83,4.84,7.83s5.15-1.1,8.06-4.46c2.43-2.79,2.34-6.53,0-7.95-3.31-2-5.88,4-5.88,4s.72-6.51-3.17-6.37C328.74,55.2,326.83,58.41,327.58,62Z" style="fill:#ebebeb"></path><path d="M375.1,430.54c12,11.79,31.81,14.37,31.81,14.37s13.85-14.33,15.93-31.05c1.73-13.94-6.49-25.49-16.76-25.05-14.72.63-10,25-10,25s-11.52-22-23.44-13.31C364.3,406.56,365.06,420.71,375.1,430.54Z" style="fill:#ebebeb"></path></g><g id="freepik--Earth--inject-133"><path d="M427.82,250a177,177,0,0,1-34,104.54v0A177.84,177.84,0,1,1,250,72.18q7.32,0,14.49.58A176.69,176.69,0,0,1,342.29,98a177.71,177.71,0,0,1,85.53,152Z" style="fill:#ECEFF1"></path><path d="M125.3,227.92s-27,7-46.31-15c-.8-.91,1.16-6.38.05-7.49s-5.63,2-6,1.72-3.13-5.36-4.43-5.44-1.65,6.44-1.86,6.71-5.15-2.53-6-2.1,1.33,6.91,1,7.26-4.08-.39-4.75.26,6.51,8.7,6.51,8.7,10.11,35.69,41.89,49.51C105.41,272.05,141.26,260.25,125.3,227.92Z" style="fill:#ECEFF1"></path><path d="M125.3,227.92c-15.62,3.83-33.17-.55-44.61-12-.78-.73-1.53-1.58-2.26-2.34a1.27,1.27,0,0,1-.21-.29,2.48,2.48,0,0,1-.28-1.28c0-1.47.39-2.88.52-4.31a4.22,4.22,0,0,0,0-1.64s0,0,0,0-.06,0-.25,0c-1.59.27-3,1.24-4.5,1.87a1.91,1.91,0,0,1-.63.12,1.18,1.18,0,0,1-.94-.6c-.1-.14-.52-.77-.62-.93a20,20,0,0,0-2.88-3.81,1.17,1.17,0,0,1-.14-.09.54.54,0,0,0,.31,0c.22-.16,0,0,0,.19a31.71,31.71,0,0,0-1,5.67,1.39,1.39,0,0,1-.25.56,1.06,1.06,0,0,1-1.1.34c-1.79-.54-3.7-1.79-5.39-2.1a.74.74,0,0,0,.24-.08.67.67,0,0,0,.29-.33c0,2.14,1.16,4.53,1.22,6.8a1.15,1.15,0,0,1-1.06,1c-1.37.12-2.91-.23-4.07,0a.84.84,0,0,0,.3-.7c1.65,2.93,4.23,5.59,6.42,8.19a93.92,93.92,0,0,0,15.48,29.25,71.66,71.66,0,0,0,25.59,20.72,63.4,63.4,0,0,1-14.5-8.28c-13.38-10.27-23-25-28.27-41l.2.36c-1.53-1.71-3-3.43-4.46-5.23-.77-1.14-2.34-2.56-2.36-4.12.46-1.92,4-.93,5.37-1.1a.82.82,0,0,0-.48.4.86.86,0,0,0-.1.33,7.81,7.81,0,0,0-.16-.85c-.2-1.61-2.51-7,.22-7.28,2.27.19,3.92,1.49,5.89,2.18h0a.84.84,0,0,0-.77.32.75.75,0,0,0-.14.26s0,0,0,0c.43-1.73.35-7.34,2.84-7.27,1.07.14,1.83,1.17,2.39,1.87s1.39,2,2,2.89c.09.12.47.76.55.85s.1.13,0,0,.07,0-.34-.16a.54.54,0,0,0-.25,0c.93-.37,2.09-1,3.13-1.43,6.24-2.5,3.48,4.51,3.48,7.53,10.93,13.12,29,18.66,45.67,15.55Z" style="fill:#263238"></path><path d="M122.06,226.4a12.81,12.81,0,0,1-7.81,2.58,24,24,0,0,1,7.81-2.58Z" style="fill:#263238"></path><path d="M95.09,266.37c1.89,2.21,3.53,4.75,5.36,7a10.1,10.1,0,0,1-5.36-7Z" style="fill:#263238"></path><path d="M427.82,250A177,177,0,0,1,394,354.3l-.13.17,0,.06h0v0q-2.93,4-6.09,7.87l-.21.26c-.44.54-.89,1.07-1.33,1.6,0,0-.05.05-.06.08l-.09.11c-.21.26-.43.51-.65.76s-.51.6-.77.89c-.51.61-1,1.21-1.59,1.81s-1.06,1.21-1.61,1.8-1.08,1.18-1.64,1.77l-.76.81-.9.94L377,374.48l-.51.52c-1,.95-1.9,1.89-2.86,2.82s-1.66,1.59-2.5,2.38l-.42.39-.18.16-.19.17-.13.13-.69.63-.56.5c-.41.38-.83.74-1.24,1.11l-.11.1-.84.73-.27.24-.25.21-.05.05-.3.26c-.68.58-1.36,1.16-2.05,1.73l0,0-.43.36-.6.49-.3.25-.38.31-1,.78-.84.67-.37.29-.09.07-1.35,1-.1.08L357,392.06l-.5.38-1.08.8-.87.64-1.77,1.27-.05,0-1.35.95-.21.15-.29.19-.24.17-.46.32-1.82,1.22-1.79,1.18-.42.27-1.62,1-.62.39-1.45.89-2.69,1.61-1.05.61-.46.26c-.67.39-1.34.77-2,1.14l-.07,0c-.94.53-1.89,1-2.85,1.54l-.93.5-.51.26-1.52.79-.21.1a179.3,179.3,0,0,0,46.31-38.07h0q5.08-5.84,9.64-12.1l0,0a178.21,178.21,0,0,0,34.16-105.15c0-.39,0-.78,0-1.17a178.17,178.17,0,0,0-23.31-87.19q-1.83-3.21-3.78-6.33A177.49,177.49,0,0,0,382,142.88a179.74,179.74,0,0,0-47.76-42.35A177.78,177.78,0,0,0,256,75.17l-.81-.06h0c-4.53-.35-9.13-.53-13.75-.53a179,179,0,0,0-42.72,5.14h0s0,0-.05,0l-.13,0,1.06-.31h0l.81-.24.45-.13.07,0c.59-.17,1.17-.34,1.76-.49a2,2,0,0,1,.33-.09l1.23-.34,3-.76,1.28-.31c.42-.11.85-.21,1.28-.3l2-.46c1.58-.34,3.17-.67,4.77-1,.76-.15,1.52-.28,2.28-.42l1.07-.19q.54-.11,1.08-.18l.54-.09,1.53-.24,1.33-.2.21,0,.33,0,.5-.07,1.17-.17.93-.11h0l1.91-.23h.05c.44-.06.89-.11,1.34-.15h.1c.49-.06,1-.11,1.46-.15h.11l2.2-.2h0l1.34-.11.27,0,1.23-.08c.78-.06,1.56-.11,2.35-.15l.54,0,2-.1h.33l1.18,0,2.14,0h.28l1,0,2.71,0c1.22,0,2.44,0,3.65,0,1,0,1.95,0,2.92.08l1.21,0q1.56.06,3.12.15c.81,0,1.61.1,2.42.17l1.17.08,2.13.18.15,0c1,.09,2,.2,3,.31,1.76.19,3.5.41,5.24.66q5.22.73,10.34,1.77c1.71.35,3.4.71,5.09,1.11,1,.24,2.09.49,3.12.75l2.37.62,1.26.34c.75.2,1.51.42,2.26.64.49.14,1,.28,1.45.43q2,.58,4,1.23c1.55.49,3.09,1,4.62,1.57.86.29,1.71.6,2.55.92,1,.37,2,.75,3,1.14q2.39.93,4.72,1.94,4.69,2,9.24,4.26,2.28,1.13,4.51,2.32c1.49.79,3,1.61,4.43,2.44s2.92,1.69,4.36,2.57c1,.61,2,1.22,3,1.85l.78.5c1,.62,1.95,1.26,2.91,1.91l.29.19c1,.7,2.07,1.41,3.08,2.13s1.84,1.3,2.75,2l.89.65c.94.69,1.86,1.4,2.78,2.11s2.1,1.64,3.13,2.48,1.8,1.47,2.69,2.22l.62.52c.93.8,1.86,1.6,2.77,2.41s1.86,1.66,2.77,2.51l.18.17q1.41,1.31,2.79,2.64a3.7,3.7,0,0,1,.28.28c.9.86,1.78,1.74,2.65,2.62s1.51,1.54,2.24,2.32c.53.56,1.06,1.12,1.58,1.69.23.23.44.47.65.7.47.5.93,1,1.38,1.53q3.81,4.23,7.32,8.7a179.4,179.4,0,0,1,11.1,15.77,176.74,176.74,0,0,1,21.25,49.39C423.89,205.54,427.82,234.64,427.82,250Z" style="fill:#fff;opacity:0.30000000000000004"></path><path d="M387.76,362.44l-.21.26c-.44.54-.89,1.07-1.33,1.6,0,0-.05.05-.06.08-.5.59-1,1.18-1.51,1.76s-1,1.21-1.59,1.81-1.07,1.21-1.61,1.8-1.09,1.19-1.64,1.77l-.76.81-.9.94L377,374.48l-.51.52c-1.89,1.9-3.81,3.77-5.78,5.59l-.37.33-.43.41-.39.35-.56.5c-.41.38-.83.74-1.24,1.11l-.11.1-.84.73-.52.45-.18.17-.17.14c-.68.58-1.36,1.16-2.05,1.73l-1.35,1.12-.38.31-1,.78-.84.67-.37.29-1.44,1.12-.1.08L357,392.06l-.5.38-1.08.8-.87.64L352.93,395c-.13.08-.26.18-.38.27l-.71.5c-.33.22-.66.46-1,.68l-.24.17-.46.32-1.28.87-.54.35-1.79,1.18-.42.27-1.62,1-.62.39-1.45.89q-2.07,1.26-4.2,2.48c-.67.39-1.35.77-2,1.14l-.07,0c-.94.53-1.89,1-2.85,1.54l-1.44.76-1.73.89q-2.4,1.21-4.83,2.35c-1.48.69-3,1.36-4.46,2l-2.23,1c-.77.33-1.54.65-2.32.95s-1.45.58-2.18.86-1.75.68-2.64,1c-.64.25-1.28.48-1.92.7l-.24.09-2.22.77q-2.52.85-5.07,1.63c-.67.21-1.33.41-2,.6l-2.39.68c-.88.25-1.76.48-2.65.71s-2,.52-3,.77c-1.32.32-2.64.62-4,.91l-.25.05-2.59.55-.11,0c-.84.16-1.68.33-2.53.48l-2.64.47c-1.05.18-2.11.35-3.17.5-.71.11-1.43.22-2.14.31-.89.13-1.79.24-2.68.35l-2.5.29-.44,0c-.66.08-1.32.14-2,.2l-.74.07-1.77.15-1,.08c-.69.06-1.38.1-2.08.14s-1.21.08-1.82.1-1.14.07-1.71.09q-3.87.17-7.77.17c-24.55,0-51.45-6.57-78-18h0A177.83,177.83,0,0,1,72.18,250q0-4.12.19-8.19a87.56,87.56,0,0,1-8.85-19.27s-7.19-8-6.51-8.7,4.45.09,4.75-.26-1.88-6.82-1-7.26,5.79,2.37,6,2.1.55-6.79,1.86-6.71,4.06,5.19,4.43,5.44,3.08-1.61,4.83-1.91A178,178,0,0,1,144.29,107l.42-.3a178,178,0,0,1,26.43-16.11c1-.51,2.07-1,3.12-1.51q4.69-2.2,9.54-4.16h0q3.23-1.29,6.51-2.47c2.72-1,5.47-1.87,8.25-2.7,0,0,0,0,.05,0l.91-.28.81-.24.45-.13,1.83-.51a2,2,0,0,1,.33-.09l1.23-.34,3-.76c.85-.21,1.7-.42,2.56-.61,3-.7,6-1.31,9.06-1.85.71-.13,1.43-.26,2.15-.37l.54-.09c1-.17,2-.32,3.07-.47l.33,0c.86-.13,1.73-.25,2.6-.35h0l1.91-.23h.05c.44-.06.89-.11,1.34-.15h.1c.49-.06,1-.11,1.46-.15h.07l2.24-.2h0l1.34-.11,1.5-.1c.78-.06,1.56-.11,2.35-.15.95-.06,1.9-.11,2.86-.14,1.19,0,2.39-.09,3.6-.11s2.45,0,3.68,0q5.49,0,10.9.32c1.2.07,2.4.16,3.59.25l2.13.18.5.06h0l1.31.14c-4.49.48-8.93,1.15-13.3,2A163,163,0,0,0,123.27,228.33q-.13,3.38-.14,6.78a162.82,162.82,0,0,0,163,163,162.11,162.11,0,0,0,90.35-27.34Q382.28,366.82,387.76,362.44Z" style="opacity:0.1"></path><g style="opacity:0.1"><path d="M288.4,333.93c-2.24,6,1.49,6.23,1.74,8.72s0,7.22-7.22,14.44-19.18,5.73-21.67,8.72-6.72,15.69-12.7,19.92-7,1.75-15.44,3.49-14.94,12.7-17.43,17.93.49,14-5.48,14.2-8.72-12.7-14.2-19.68-7.22-13.2-9-21.41,1-25.41,0-32.13-18.92-18.68-25.4-26.9-15.44-24.66-14.94-30.14a22.26,22.26,0,0,1,7.47-13.69c3-2.25,1.74-3.49,2.24-5.48s3-2.49,3.49-5-1.5-10-4-11.21-4.23,3-5.73,2.24-6-6-7.72-6.48-1.24,3.24-3.73-1.49S135,233.31,133,231.32s-3.49,3.49-8.22,0-6.72-10.21-8.72-11.21-4.73.25-6.78-3.73,1.8-11.21,0-10.46-5.67,6.47-6.67,1,5-23.91,4-33.87,2.49-20.42,9.46-28.89c0,0,1-5.48,2-9s22.41-17.44,24.9-21.42c1-1.67,1.39-4.28,1.76-7.09A177,177,0,0,1,250,72.18q7.32,0,14.49.58c.16.23.33.45.5.66,2.16,2.74,4.48,4.48,10.79,6.81s7.8,5.31,6.48,7.8-3.49,3-6,3.16-4.82-1.17-7.47.5-5.32,10.62-8.8,11.12-9.63-8-11-10.46,3-7.81.95-10.3-5.6-2-11.25-2.49S220,81.23,220.49,83.38s19.26-.33,19.76,4S226.47,99,224,98.33s-5.81-5-9.47-5.48-6.64,2.49-8.94,2.82-5-2.49-8.49-1.83-4.32,3.65-6.15,4.82-6.14,1.16-6.64,3.82,5.48,4.15,7,5.81-1.83,7.31-.34,8.47,10.8-7,13.12-9,4.32-10.62,9.3-10.46,6.64,8.63,8.3,9.46,5.32-2,10.8-.83,9.29,13.12,10.29,16.77,3.32,7.31,1.33,8.8-11-1-12.12-3.32,6-5.81,5.48-6.64-4.65-2-6.81-.69-3.15,4-5.48,4.68-8.47-6.31-10.13-4.32,1.66,8.3,3.32,9.8,7.81,2.32,8.3,4-4.15,5.31-9.79,5-10.29-4.65-12.46-2.82-1,6.64-2.49,8.3-9.63.5-13.61,4.81-5.81,10.8-9.8,14.45-5.81-1-11.12,4.15-6.14,16.6-6.31,20.59,0,7.14-1.33,6.64-3.16-4-3.65-6.14,1.16-5.82,1.16-7.14-7.64-8.14-12.12-8.8-8.47,3-11.79,5.64-9.3,2.16-11.45,4.32-3.82,21.25-2.17,25.74,3.83,4.48,9.14,2.15,2.32-6.8,5.48-5.81a7.43,7.43,0,0,1,4.81,7c0,2.66-6.3,9-5.48,10.79s6.31-.33,9,.5,4,2.49,3.16,9.3-.34,12.12,3.65,14.36,6.22-3.24,8-2.49,4.23,4.73,6.72,4.48,1.25-2.49,6-4,3-2.5,4-5.48,4-5.48,7.23-4,1,3.74,1.24,6.23,6,2.74,10.46,4.23,7,0,15.94,3,9.46,11.95,13.2,13.45,16.19-1,25.16,5.48,6.47,18.43,10.95,21.91,21.17,8.22,27.65,9.47,7.47-3.24,12.7-2,8.22,2.74,10,10C310.11,314.63,290.64,328,288.4,333.93Z"></path><path d="M154.57,206.58c.17,1.41,4.32,2,9.3,4.82s6.81,11.12,9.47,10.95,1.82-4,2.82-5,2.66-3.15,0-5.31-5.24-6.81-10.09-7.47-5.68-2.66-7.84-2.49A3.76,3.76,0,0,0,154.57,206.58Z"></path><path d="M182,220.53c-.74,2,0,3.49,5.31,4.81s10.3-1.32,8.64-2.4-4.15-.59-3.16-2.41.66-4.48-3.65-4S182.63,218.7,182,220.53Z"></path><path d="M200.57,221.1c-1.82.26-2.83,3.41-1,5.41s1.83,1.66,4,0,5.48-2.49,4.65-4.15S202.39,220.83,200.57,221.1Z"></path><path d="M215,227.88c.81-2.49,5,0,6.81,2.61s1,6.48,0,9.3-1.66,6.14-4,4.81.17-5.31-.16-7.63S214.35,229.92,215,227.88Z"></path><path d="M286.57,89.36c-.87,2.08,3.16,2.82,5.48,4.15s4.15,2.16,5.48,0-.5-4.65-2.32-5.15S287.4,87.37,286.57,89.36Z"></path><path d="M318,108.79c1.54,1.61,4.15,1.32,6,3.65s1.16,6.31,3.49,7.47,4,0,4.15-1.66-3.32-5.81-3-6.64,4.82,1.16,5.81,3.65-1,6,1.33,6.64,1.83-2.32,2.82-3,3.16-.33,3-2.32-2.82-6.31-5-7.8-3.82-3.16-7.47-4-7.14-.16-9,1.33S317,107.79,318,108.79Z"></path><path d="M389.79,140.08a3,3,0,0,1-.94,1.75c-3.48,2.49-7.64-6.15-12.45-7.8s-7-7.81-8-6.48-.67,3.15-2.16,5.31-3.65,1.66-4.65,5.81,4.65,11.79,3.32,14.28-3,1.66-5.64,1.5-2.16,2.15-5.64,1.16-.51-5.32-6-10.46-7.3-6.14-6.13-8.47-.51-5.64,2-6S348,134,349.67,135s3.82-2,4-4.65-5.81-6.31-8-8.37-2.32-9.56-1.49-11.06,3.32-1,4-4.64c.39-2.15-3-5.74-5.88-8.33A178.59,178.59,0,0,1,389.79,140.08Z"></path><path d="M427.82,250A176.94,176.94,0,0,1,394,354.3c0,.08-.11.15-.17.23l0-.06c9.79-15,15-32.78,17.77-46.17a179.3,179.3,0,0,0,2.92-19.36c.49-5.32-2.16-5.65.49-15.44a25.69,25.69,0,0,0-.87-14.7,24.69,24.69,0,0,0-3.94-7.72c-2-2.16-6.31-1.49-9.8.66s-1,3.82-3.32,4.65-4.65-.5-6.8-.33-4.16,5.65-8.8,5.48c-3.74-.14-6.4-4.46-9.12-8.6-.66-1-1.33-2-2-2.94-3.48-4.73-10.63-7.72-12.95-13.53s2.16-14.78,1.16-21.59-5.48-5.31-6.31-9.13.67-2,1.83-5.65-1.33-5.64,1-11.95,6.47-9.46,5.48-12.28-4.15-7.48-4.32-10.79,3.15-3.16,9.46-7.81,8-4.32,12.79-2.66a68.78,68.78,0,0,0,10.62,3c2.78.49,6.52,7.56,7.75,7.48H397c1.16-.33,1.33-2.49,1.83-5.64a6.93,6.93,0,0,1,2.07-3.58,176.74,176.74,0,0,1,21.25,49.39C426.88,216.27,427.82,247.25,427.82,250Z"></path></g><ellipse cx="128.66" cy="224.03" rx="12.45" ry="23.54" transform="translate(-117.46 302.57) rotate(-77.83)" style="fill:#ff9cbd"></ellipse><path d="M193.17,146.5a46.85,46.85,0,0,0-27,7.22,58.1,58.1,0,0,0-7.89,6.05c2.41-14.77,23.31-23,34.89-13.27Z" style="fill:#263238"></path><path d="M306.83,146.5c11.58-9.71,32.48-1.5,34.89,13.27a58.1,58.1,0,0,0-7.89-6.05,46.85,46.85,0,0,0-27-7.22Z" style="fill:#263238"></path><path d="M296.28,199.08c2.28-13.13,12.72-26.53,27.33-24.6,14.2,2.4,20,19,22.16,31.38l-.82-1.18a11.11,11.11,0,0,0,6.38.58,30.48,30.48,0,0,0,5.4-1.35c.6-.21,1.19-.43,1.81-.62-.49.41-1,.81-1.5,1.21-3.84,2.73-9,4.91-13.72,3.07l-.64-.31-.19-.88C340.12,196,334.87,180.49,323,178.3c-12.95-1.93-22.32,9.92-26.75,20.78Z" style="fill:#263238"></path><path d="M342.85,199.65c6-.38,12.17-2,17.07-5.61a31,31,0,0,1-12.07,7.27,39,39,0,0,1-4.67,1.32l-.33-3Z" style="fill:#263238"></path><path d="M208.64,199.08c-4.42-10.85-13.8-22.72-26.75-20.78-11.84,2.19-17.09,17.66-19.46,28.08l-.18.88-.65.31c-5.34,2-11.17-.85-15.22-4.28,4.21,1.42,9.06,3.16,13.4,1.5.09,0,.24-.13.19-.11l-.82,1.18c2.18-12.43,8-29,22.16-31.38,14.6-1.93,25.06,11.47,27.33,24.6Z" style="fill:#263238"></path><path d="M161.74,202.63c-6.19-1.41-12.25-4-16.74-8.59,4.9,3.61,11.1,5.23,17.07,5.61l-.33,3Z" style="fill:#263238"></path><path d="M278.05,184.52c-.16.91-2.93,14.58-12.19,24.87a19.47,19.47,0,0,1-10.1,6.43c-7.6,1.71-14.15-1.62-19.32-6.88-6.36-6.46-10.63-15.83-12.17-22.3,0,0,13,13.4,29.42,11.18C269.48,195.69,277.59,185.46,278.05,184.52Z" style="fill:#263238"></path><path d="M265.86,209.39a19.47,19.47,0,0,1-10.1,6.43c-7.6,1.71-14.15-1.62-19.32-6.88,4.11-5.16,10.08-8.54,17-7.61A17.81,17.81,0,0,1,265.86,209.39Z" style="fill:#ff9cbd"></path><path d="M374.7,227.92s27,7,46.31-15c.8-.91-1.16-6.38-.05-7.49s5.63,2,6,1.72,3.13-5.36,4.43-5.44,1.65,6.44,1.86,6.71,5.15-2.53,6-2.1-1.33,6.91-1,7.26,4.08-.39,4.75.26-6.51,8.7-6.51,8.7-10.11,35.69-41.89,49.51C394.59,272.05,358.74,260.25,374.7,227.92Z" style="fill:#ECEFF1"></path><path d="M374.7,227.92c16.66,3.11,34.74-2.43,45.67-15.55,0-3-2.75-10.05,3.48-7.53.93.37,2.47,1.15,3.07,1.42l-.19,0c-.41.15-.28.14-.34.16s0,0,0,0c1.21-1.62,4.5-8.4,6.55-4.36a28.23,28.23,0,0,1,1.18,6,.75.75,0,0,0-.14-.26c-.15-.26-.68-.35-.61-.33h-.15c2-.69,3.62-2,5.89-2.18,2.87.21.17,6.33.07,8v.1a1,1,0,0,0-.29-.57.83.83,0,0,0-.29-.16c1.35.18,4.89-.83,5.37,1.1,0,1.56-1.6,3-2.36,4.12-1.44,1.8-2.93,3.52-4.46,5.23l.2-.36c-5.28,16-14.89,30.72-28.27,41a63.4,63.4,0,0,1-14.5,8.28,71.66,71.66,0,0,0,25.59-20.72,94,94,0,0,0,15.48-29.25c2.19-2.6,4.77-5.26,6.42-8.19a.84.84,0,0,0,.3.7c-1.17-.2-2.7.15-4.07,0a1.16,1.16,0,0,1-1.06-1c.06-2.27,1.18-4.67,1.22-6.8a.66.66,0,0,0,.53.41c-1.69.31-3.6,1.56-5.39,2.1a1.06,1.06,0,0,1-1.1-.34,1.39,1.39,0,0,1-.25-.56,31.55,31.55,0,0,0-1-5.67c-.05-.19-.26-.35,0-.19a.54.54,0,0,0,.31,0,4.82,4.82,0,0,0-1.13,1.16c-1,1.18-1.87,2.89-2.76,4-.11.07,0,.13-.5.29a1.23,1.23,0,0,1-.47,0c-1.7-.53-3.14-1.71-4.85-2-.19,0-.31,0-.25,0a11.74,11.74,0,0,0,.2,3.27c.12,1.39.64,2.5,0,3.94a2.23,2.23,0,0,1-.36.44l-.89.95c-11.41,12.33-29.64,17.24-45.83,13.25Z" style="fill:#263238"></path><path d="M377.94,226.4a24,24,0,0,1,7.81,2.58,12.81,12.81,0,0,1-7.81-2.58Z" style="fill:#263238"></path><path d="M404.91,266.37a10.1,10.1,0,0,1-5.36,7c1.83-2.23,3.47-4.76,5.36-7Z" style="fill:#263238"></path><ellipse cx="371.34" cy="224.03" rx="23.54" ry="12.45" transform="translate(-38.89 83.33) rotate(-12.17)" style="fill:#ff9cbd"></ellipse></g><g id="freepik--Sparkles--inject-133"><polygon points="360.21 378.56 362.32 372.97 364.42 378.56 370.01 380.66 364.42 382.77 362.32 392.97 360.21 382.77 354.62 380.66 360.21 378.56" style="fill:#ECEFF1"></polygon><polygon points="90.97 172.68 93.07 167.09 95.18 172.68 100.76 174.79 95.18 176.89 93.07 187.09 90.97 176.89 85.38 174.79 90.97 172.68" style="fill:#ECEFF1"></polygon><polygon points="404.82 236.07 406.93 230.49 409.03 236.07 414.62 238.18 409.03 240.28 406.93 250.49 404.82 240.28 399.24 238.18 404.82 236.07" style="fill:#ECEFF1"></polygon><polygon points="285.84 105.94 287.81 100.71 289.77 105.94 295 107.9 289.77 109.87 287.81 116.39 285.84 109.87 280.61 107.9 285.84 105.94" style="fill:#ECEFF1"></polygon><polygon points="365.05 179.73 366.21 176.67 367.36 179.73 370.42 180.89 367.36 182.04 366.21 185.86 365.05 182.04 361.99 180.89 365.05 179.73" style="fill:#ECEFF1"></polygon><polygon points="152.46 377.76 153.61 374.69 154.76 377.76 157.83 378.91 154.76 380.07 153.61 383.89 152.46 380.07 149.39 378.91 152.46 377.76" style="fill:#ECEFF1"></polygon><polygon points="117.08 243.37 118.24 240.31 119.39 243.37 122.46 244.53 119.39 245.68 118.24 249.5 117.08 245.68 114.02 244.53 117.08 243.37" style="fill:#ECEFF1"></polygon><polygon points="361.16 355.77 362.32 352.71 363.47 355.77 366.54 356.92 363.47 358.08 362.32 361.9 361.16 358.08 358.1 356.92 361.16 355.77" style="fill:#ECEFF1"></polygon><polygon points="103.2 337.52 105.17 332.3 107.14 337.52 112.36 339.49 107.14 341.46 105.17 347.98 103.2 341.46 97.97 339.49 103.2 337.52" style="fill:#ECEFF1"></polygon><g style="opacity:0.8"><polygon points="360.21 378.56 362.32 372.97 364.42 378.56 370.01 380.66 364.42 382.77 362.32 392.97 360.21 382.77 354.62 380.66 360.21 378.56" style="fill:#fff"></polygon><polygon points="90.97 172.68 93.07 167.09 95.18 172.68 100.76 174.79 95.18 176.89 93.07 187.09 90.97 176.89 85.38 174.79 90.97 172.68" style="fill:#fff"></polygon><polygon points="404.82 236.07 406.93 230.49 409.03 236.07 414.62 238.18 409.03 240.28 406.93 250.49 404.82 240.28 399.24 238.18 404.82 236.07" style="fill:#fff"></polygon><polygon points="285.84 105.94 287.81 100.71 289.77 105.94 295 107.9 289.77 109.87 287.81 116.39 285.84 109.87 280.61 107.9 285.84 105.94" style="fill:#fff"></polygon><polygon points="365.05 179.73 366.21 176.67 367.36 179.73 370.42 180.89 367.36 182.04 366.21 185.86 365.05 182.04 361.99 180.89 365.05 179.73" style="fill:#fff"></polygon><polygon points="152.46 377.76 153.61 374.69 154.76 377.76 157.83 378.91 154.76 380.07 153.61 383.89 152.46 380.07 149.39 378.91 152.46 377.76" style="fill:#fff"></polygon><polygon points="117.08 243.37 118.24 240.31 119.39 243.37 122.46 244.53 119.39 245.68 118.24 249.5 117.08 245.68 114.02 244.53 117.08 243.37" style="fill:#fff"></polygon><polygon points="361.16 355.77 362.32 352.71 363.47 355.77 366.54 356.92 363.47 358.08 362.32 361.9 361.16 358.08 358.1 356.92 361.16 355.77" style="fill:#fff"></polygon><polygon points="103.2 337.52 105.17 332.3 107.14 337.52 112.36 339.49 107.14 341.46 105.17 347.98 103.2 341.46 97.97 339.49 103.2 337.52" style="fill:#fff"></polygon></g></g><g id="freepik--Flowers--inject-133"><path d="M131,405.32c-1.41-.27-2.17-2.64-2.57-3.76-1.33-3.74-1.4-5.14-1.56-9.08a24.37,24.37,0,0,1,.51-6.21,40.5,40.5,0,0,0,.91-5,80,80,0,0,1-3.51,11.88,42.69,42.69,0,0,1-2.5,4.79,19.28,19.28,0,0,1-2.72,3.87c-.49.5-1.75,1.88-2.42,1-.92-1.17-.4-3.2-.14-4.47a19.62,19.62,0,0,1,1.63-5.14,30.68,30.68,0,0,1,3-4.36,67.63,67.63,0,0,1,5.69-7.24,87.57,87.57,0,0,1-8,5.67c-3,1.91-6.27,3.85-9.84,4.52-.94.17-2,.2-2.32-.92-.34-1.28.82-2.54,1.62-3.38a18,18,0,0,1,3.48-3.11,16.18,16.18,0,0,1,4.83-1.71c3.15-.73,6.36-1.22,9.5-2-3.26.06-6.56-.33-9.82-.24s-6.52.1-9.34-1.59c-.85-.5-2.45-1.57-2.49-2.69s2-1.26,2.77-1.34c3.67-.38,7,.62,10.43,1.7s6.86,1.89,10,3.42a3.8,3.8,0,0,1-.31-.44c-1.57-.58-2.91-1.59-4.43-2.31-1.74-.83-3.64-1.26-5.36-2.12a18.1,18.1,0,0,1-6.94-6c-.5-.73-1.45-2.45-.5-3.21s2.76,0,3.63.36c3,1.12,5.61,3.43,7.84,5.7a57.51,57.51,0,0,1,4.6,5.38c-.92-1.7-1.81-3.43-2.6-5.19-1.44-3.18-2.54-6.66-2.16-10.19.13-1.24,1.55-7.08,3.69-4.45a13,13,0,0,1,1.86,4.72,33.11,33.11,0,0,1,.94,5.76c.31,3.7.26,7.43.28,11.14.12-.19.25-.37.38-.55a95.3,95.3,0,0,1,2.86-10.48,16.81,16.81,0,0,1,5.28-7.85c.77-.62,2.26-2.07,3.36-1.47s.74,2.21.6,3.08c-.54,3.44-2.89,6.17-5,8.78l-3.75,4.58c-1,1.25-2.23,2.48-3.18,3.82-.07.23-.15.46-.22.7v0l.06-.06a.2.2,0,0,1,.3.08c.73-.87,1.46-1.74,2.2-2.58a32.43,32.43,0,0,1,6.22-6.11,21.65,21.65,0,0,1,4.55-2.49,20.74,20.74,0,0,1,5.1-1.5c1.15-.14,2.71-.05,3.44,1s.06,2.44-.69,3.3a9.2,9.2,0,0,1-3.53,2.23c-1.81.74-3.65,1.41-5.48,2.11l-11.55,4.43.17.06a49.08,49.08,0,0,1,11.71-1.07,23.12,23.12,0,0,1,9.82,2.26c.87.46,2.59,1.28,2.3,2.52s-2.28,1.6-3.41,1.69c-3.47.26-7.2-.79-10.51-1.72s-6.73-2.18-10.06-3.37l.13.18c1.63,1,3.17,2.18,4.69,3.3a53.42,53.42,0,0,1,5.34,4.12c2.61,2.49,4.29,5.79,5.8,9,.44.94.88,2.57-.72,2.57s-3.17-1.1-4.39-2A21.66,21.66,0,0,1,134,389.8c-1.5-3-2.66-6.22-4.68-8.92l-.36-.29h0c.88,2,1.48,4.25,2.17,6.35.76,2.3,1.12,3,1.71,5.35a19.91,19.91,0,0,1,.24,10.61C132.84,403.88,132.35,405.57,131,405.32Z" style="fill:#ECEFF1"></path><path d="M131,405.32c-1.41-.27-2.17-2.64-2.57-3.76-1.33-3.74-1.4-5.14-1.56-9.08a24.37,24.37,0,0,1,.51-6.21,40.5,40.5,0,0,0,.91-5,80,80,0,0,1-3.51,11.88,42.69,42.69,0,0,1-2.5,4.79,19.28,19.28,0,0,1-2.72,3.87c-.49.5-1.75,1.88-2.42,1-.92-1.17-.4-3.2-.14-4.47a19.62,19.62,0,0,1,1.63-5.14,30.68,30.68,0,0,1,3-4.36,67.63,67.63,0,0,1,5.69-7.24,87.57,87.57,0,0,1-8,5.67c-3,1.91-6.27,3.85-9.84,4.52-.94.17-2,.2-2.32-.92-.34-1.28.82-2.54,1.62-3.38a18,18,0,0,1,3.48-3.11,16.18,16.18,0,0,1,4.83-1.71c3.15-.73,6.36-1.22,9.5-2-3.26.06-6.56-.33-9.82-.24s-6.52.1-9.34-1.59c-.85-.5-2.45-1.57-2.49-2.69s2-1.26,2.77-1.34c3.67-.38,7,.62,10.43,1.7s6.86,1.89,10,3.42a3.8,3.8,0,0,1-.31-.44c-1.57-.58-2.91-1.59-4.43-2.31-1.74-.83-3.64-1.26-5.36-2.12a18.1,18.1,0,0,1-6.94-6c-.5-.73-1.45-2.45-.5-3.21s2.76,0,3.63.36c3,1.12,5.61,3.43,7.84,5.7a57.51,57.51,0,0,1,4.6,5.38c-.92-1.7-1.81-3.43-2.6-5.19-1.44-3.18-2.54-6.66-2.16-10.19.13-1.24,1.55-7.08,3.69-4.45a13,13,0,0,1,1.86,4.72,33.11,33.11,0,0,1,.94,5.76c.31,3.7.26,7.43.28,11.14.12-.19.25-.37.38-.55a95.3,95.3,0,0,1,2.86-10.48,16.81,16.81,0,0,1,5.28-7.85c.77-.62,2.26-2.07,3.36-1.47s.74,2.21.6,3.08c-.54,3.44-2.89,6.17-5,8.78l-3.75,4.58c-1,1.25-2.23,2.48-3.18,3.82-.07.23-.15.46-.22.7v0l.06-.06a.2.2,0,0,1,.3.08c.73-.87,1.46-1.74,2.2-2.58a32.43,32.43,0,0,1,6.22-6.11,21.65,21.65,0,0,1,4.55-2.49,20.74,20.74,0,0,1,5.1-1.5c1.15-.14,2.71-.05,3.44,1s.06,2.44-.69,3.3a9.2,9.2,0,0,1-3.53,2.23c-1.81.74-3.65,1.41-5.48,2.11l-11.55,4.43.17.06a49.08,49.08,0,0,1,11.71-1.07,23.12,23.12,0,0,1,9.82,2.26c.87.46,2.59,1.28,2.3,2.52s-2.28,1.6-3.41,1.69c-3.47.26-7.2-.79-10.51-1.72s-6.73-2.18-10.06-3.37l.13.18c1.63,1,3.17,2.18,4.69,3.3a53.42,53.42,0,0,1,5.34,4.12c2.61,2.49,4.29,5.79,5.8,9,.44.94.88,2.57-.72,2.57s-3.17-1.1-4.39-2A21.66,21.66,0,0,1,134,389.8c-1.5-3-2.66-6.22-4.68-8.92l-.36-.29h0c.88,2,1.48,4.25,2.17,6.35.76,2.3,1.12,3,1.71,5.35a19.91,19.91,0,0,1,.24,10.61C132.84,403.88,132.35,405.57,131,405.32Z" style="fill:#fff;opacity:0.8"></path><path d="M132,380a3.32,3.32,0,0,0-3.35-3.19,3.11,3.11,0,0,0-3.16,3.61A3.27,3.27,0,0,0,132,380Z" style="fill:#ECEFF1"></path><path d="M416.17,319.69c-1-1-.2-3.41.14-4.55,1.11-3.81,1.88-5,4.06-8.27a24.46,24.46,0,0,1,4.07-4.72,40.41,40.41,0,0,0,3.66-3.5,78.37,78.37,0,0,1-9.82,7.55,43.55,43.55,0,0,1-4.84,2.4,18.55,18.55,0,0,1-4.46,1.54c-.7.11-2.53.49-2.58-.58-.06-1.48,1.55-2.82,2.51-3.7a19.63,19.63,0,0,1,4.34-3.2,31.23,31.23,0,0,1,5-1.79,67.1,67.1,0,0,1,8.86-2.51,91,91,0,0,1-9.77-.09c-3.58-.24-7.34-.57-10.62-2.13-.86-.41-1.76-1-1.34-2.1.48-1.24,2.16-1.57,3.3-1.79a18.16,18.16,0,0,1,4.64-.47,16,16,0,0,1,4.91,1.45c3,1.27,5.87,2.75,8.87,4-2.68-1.88-5.12-4.12-7.81-6s-5.33-3.75-6.63-6.77c-.39-.9-1.05-2.72-.43-3.64s2.33.13,3,.54c3.2,1.85,5.28,4.6,7.44,7.51a72.34,72.34,0,0,1,6.1,8.64,3.12,3.12,0,0,1,0-.53c-.93-1.39-1.42-3-2.22-4.48-.93-1.69-2.21-3.15-3.1-4.86a18.24,18.24,0,0,1-2.1-8.92c0-.89.28-2.84,1.49-2.89s2.2,1.65,2.72,2.42c1.81,2.69,2.53,6.07,3,9.22a55.38,55.38,0,0,1,.57,7c.25-1.92.55-3.84.94-5.73.71-3.42,1.87-6.88,4.24-9.51.83-.92,5.41-4.82,5.61-1.43a12.91,12.91,0,0,1-1.28,4.91A32.56,32.56,0,0,1,436,288c-1.92,3.18-4.15,6.17-6.31,9.18.2-.08.41-.15.63-.22a93.35,93.35,0,0,1,8.47-6.8,16.76,16.76,0,0,1,8.88-3.25c1-.06,3.05-.35,3.59.78s-.71,2.22-1.33,2.85c-2.46,2.46-6,3.29-9.23,4.15L435,296.17c-1.57.41-3.26.69-4.82,1.21-.19.15-.39.29-.6.44v0h.09a.2.2,0,0,1,.2.24c1.1-.27,2.19-.55,3.29-.8a32.78,32.78,0,0,1,8.63-1.29,21.19,21.19,0,0,1,5.14.67,20.6,20.6,0,0,1,5,1.77c1,.57,2.22,1.56,2.19,2.84s-1.39,2-2.5,2.27a9.21,9.21,0,0,1-4.17-.27c-1.9-.46-3.78-1-5.67-1.51l-11.95-3.2.1.15a48.56,48.56,0,0,1,10.1,6,23,23,0,0,1,6.62,7.6c.43.88,1.35,2.56.39,3.39s-2.79-.05-3.75-.64c-3-1.83-5.37-4.86-7.5-7.57s-4.17-5.72-6.16-8.64v.23c.73,1.77,1.28,3.63,1.86,5.42a53.08,53.08,0,0,1,1.89,6.47c.66,3.55.07,7.22-.6,10.71-.2,1-.8,2.6-2.09,1.66s-1.92-2.75-2.38-4.19a21.65,21.65,0,0,1-.56-10.24c.55-3.32,1.49-6.6,1.45-10l-.12-.45h0c-.48,2.18-1.29,4.31-2,6.42-.74,2.3-.86,3.08-1.76,5.33a20,20,0,0,1-6,8.73C418.51,319.61,417.13,320.7,416.17,319.69Z" style="fill:#ECEFF1"></path><path d="M416.17,319.69c-1-1-.2-3.41.14-4.55,1.11-3.81,1.88-5,4.06-8.27a24.46,24.46,0,0,1,4.07-4.72,40.41,40.41,0,0,0,3.66-3.5,78.37,78.37,0,0,1-9.82,7.55,43.55,43.55,0,0,1-4.84,2.4,18.55,18.55,0,0,1-4.46,1.54c-.7.11-2.53.49-2.58-.58-.06-1.48,1.55-2.82,2.51-3.7a19.63,19.63,0,0,1,4.34-3.2,31.23,31.23,0,0,1,5-1.79,67.1,67.1,0,0,1,8.86-2.51,91,91,0,0,1-9.77-.09c-3.58-.24-7.34-.57-10.62-2.13-.86-.41-1.76-1-1.34-2.1.48-1.24,2.16-1.57,3.3-1.79a18.16,18.16,0,0,1,4.64-.47,16,16,0,0,1,4.91,1.45c3,1.27,5.87,2.75,8.87,4-2.68-1.88-5.12-4.12-7.81-6s-5.33-3.75-6.63-6.77c-.39-.9-1.05-2.72-.43-3.64s2.33.13,3,.54c3.2,1.85,5.28,4.6,7.44,7.51a72.34,72.34,0,0,1,6.1,8.64,3.12,3.12,0,0,1,0-.53c-.93-1.39-1.42-3-2.22-4.48-.93-1.69-2.21-3.15-3.1-4.86a18.24,18.24,0,0,1-2.1-8.92c0-.89.28-2.84,1.49-2.89s2.2,1.65,2.72,2.42c1.81,2.69,2.53,6.07,3,9.22a55.38,55.38,0,0,1,.57,7c.25-1.92.55-3.84.94-5.73.71-3.42,1.87-6.88,4.24-9.51.83-.92,5.41-4.82,5.61-1.43a12.91,12.91,0,0,1-1.28,4.91A32.56,32.56,0,0,1,436,288c-1.92,3.18-4.15,6.17-6.31,9.18.2-.08.41-.15.63-.22a93.35,93.35,0,0,1,8.47-6.8,16.76,16.76,0,0,1,8.88-3.25c1-.06,3.05-.35,3.59.78s-.71,2.22-1.33,2.85c-2.46,2.46-6,3.29-9.23,4.15L435,296.17c-1.57.41-3.26.69-4.82,1.21-.19.15-.39.29-.6.44v0h.09a.2.2,0,0,1,.2.24c1.1-.27,2.19-.55,3.29-.8a32.78,32.78,0,0,1,8.63-1.29,21.19,21.19,0,0,1,5.14.67,20.6,20.6,0,0,1,5,1.77c1,.57,2.22,1.56,2.19,2.84s-1.39,2-2.5,2.27a9.21,9.21,0,0,1-4.17-.27c-1.9-.46-3.78-1-5.67-1.51l-11.95-3.2.1.15a48.56,48.56,0,0,1,10.1,6,23,23,0,0,1,6.62,7.6c.43.88,1.35,2.56.39,3.39s-2.79-.05-3.75-.64c-3-1.83-5.37-4.86-7.5-7.57s-4.17-5.72-6.16-8.64v.23c.73,1.77,1.28,3.63,1.86,5.42a53.08,53.08,0,0,1,1.89,6.47c.66,3.55.07,7.22-.6,10.71-.2,1-.8,2.6-2.09,1.66s-1.92-2.75-2.38-4.19a21.65,21.65,0,0,1-.56-10.24c.55-3.32,1.49-6.6,1.45-10l-.12-.45h0c-.48,2.18-1.29,4.31-2,6.42-.74,2.3-.86,3.08-1.76,5.33a20,20,0,0,1-6,8.73C418.51,319.61,417.13,320.7,416.17,319.69Z" style="fill:#fff;opacity:0.8"></path><path d="M431.83,299.81a3.34,3.34,0,0,0-.84-4.55,3.11,3.11,0,0,0-4.68,1.06,3.28,3.28,0,0,0,5.52,3.49Z" style="fill:#ECEFF1"></path><path d="M111.14,333.69c-.17-.9,1.08-1.9,1.65-2.4a15.57,15.57,0,0,1,5.06-3,16.05,16.05,0,0,1,3.83-1.13,26,26,0,0,0,3.19-.6,51.24,51.24,0,0,1-7.91.64,28.49,28.49,0,0,1-3.44-.38,11.76,11.76,0,0,1-2.93-.73c-.42-.18-1.54-.61-1.19-1.21.48-.82,1.82-1,2.64-1.12a12.88,12.88,0,0,1,3.45-.21,20.9,20.9,0,0,1,3.29.76,42.7,42.7,0,0,1,5.64,1.73,60.42,60.42,0,0,1-5.23-3.44,18.8,18.8,0,0,1-5-4.84c-.32-.52-.59-1.17,0-1.6s1.71-.09,2.4.19a11.32,11.32,0,0,1,2.66,1.36,10,10,0,0,1,2.14,2.48c1.16,1.72,2.2,3.52,3.39,5.22-.79-1.94-1.32-4-2.12-5.92s-1.57-3.88-1.22-5.95c.1-.62.38-1.83,1-2.11s1.21.88,1.44,1.34a16.23,16.23,0,0,1,1.4,6.63,46.42,46.42,0,0,1,.28,6.77,2,2,0,0,1,.19-.29c0-1.07.27-2.11.35-3.18.09-1.23-.09-2.46,0-3.69a11.54,11.54,0,0,1,2-5.53c.32-.47,1.13-1.43,1.8-1s.61,1.66.63,2.25a14.38,14.38,0,0,1-1.6,6,36.45,36.45,0,0,1-2.14,4c.8-.94,1.63-1.87,2.5-2.75a12.68,12.68,0,0,1,5.58-3.65c.77-.21,4.59-.71,3.52,1.18a8.52,8.52,0,0,1-2.39,2.2,21.8,21.8,0,0,1-3.23,1.89c-2.14,1-4.38,1.88-6.59,2.75l.42.1a59.9,59.9,0,0,1,6.92-.72,10.75,10.75,0,0,1,5.91,1.34c.55.31,1.76.87,1.66,1.67s-1.15,1-1.7,1.07c-2.18.47-4.36-.3-6.41-1l-3.61-1.17c-1-.33-2-.76-3-1l-.47,0h0l0,0a.12.12,0,0,1,0,.2l2,.71a21.07,21.07,0,0,1,5.09,2.31,14.06,14.06,0,0,1,2.54,2.14,13.31,13.31,0,0,1,2.08,2.7A2.35,2.35,0,0,1,138,337a1.81,1.81,0,0,1-2.13.35,5.83,5.83,0,0,1-2.15-1.6c-.86-.91-1.69-1.85-2.53-2.78l-5.32-5.88v.12a30.78,30.78,0,0,1,3.35,6.75,14.82,14.82,0,0,1,.92,6.39c-.07.62-.16,1.84-1,2s-1.48-1-1.79-1.65a20.24,20.24,0,0,1-1.41-6.68c-.22-2.26-.26-4.52-.31-6.79l-.08.12c-.23,1.21-.57,2.4-.89,3.57a34.52,34.52,0,0,1-1.22,4.14,18.75,18.75,0,0,1-4.05,5.55c-.46.48-1.34,1.12-1.7.17a5.27,5.27,0,0,1,.17-3.09,13.91,13.91,0,0,1,3.26-5.7,35.5,35.5,0,0,0,4.24-4.86l.09-.29h0c-1,1-2.19,1.86-3.29,2.76s-1.53,1.36-2.8,2.26a12.83,12.83,0,0,1-6.28,2.6C112.43,334.46,111.3,334.57,111.14,333.69Z" style="fill:#ECEFF1"></path><path d="M111.14,333.69c-.17-.9,1.08-1.9,1.65-2.4a15.57,15.57,0,0,1,5.06-3,16.05,16.05,0,0,1,3.83-1.13,26,26,0,0,0,3.19-.6,51.24,51.24,0,0,1-7.91.64,28.49,28.49,0,0,1-3.44-.38,11.76,11.76,0,0,1-2.93-.73c-.42-.18-1.54-.61-1.19-1.21.48-.82,1.82-1,2.64-1.12a12.88,12.88,0,0,1,3.45-.21,20.9,20.9,0,0,1,3.29.76,42.7,42.7,0,0,1,5.64,1.73,60.42,60.42,0,0,1-5.23-3.44,18.8,18.8,0,0,1-5-4.84c-.32-.52-.59-1.17,0-1.6s1.71-.09,2.4.19a11.32,11.32,0,0,1,2.66,1.36,10,10,0,0,1,2.14,2.48c1.16,1.72,2.2,3.52,3.39,5.22-.79-1.94-1.32-4-2.12-5.92s-1.57-3.88-1.22-5.95c.1-.62.38-1.83,1-2.11s1.21.88,1.44,1.34a16.23,16.23,0,0,1,1.4,6.63,46.42,46.42,0,0,1,.28,6.77,2,2,0,0,1,.19-.29c0-1.07.27-2.11.35-3.18.09-1.23-.09-2.46,0-3.69a11.54,11.54,0,0,1,2-5.53c.32-.47,1.13-1.43,1.8-1s.61,1.66.63,2.25a14.38,14.38,0,0,1-1.6,6,36.45,36.45,0,0,1-2.14,4c.8-.94,1.63-1.87,2.5-2.75a12.68,12.68,0,0,1,5.58-3.65c.77-.21,4.59-.71,3.52,1.18a8.52,8.52,0,0,1-2.39,2.2,21.8,21.8,0,0,1-3.23,1.89c-2.14,1-4.38,1.88-6.59,2.75l.42.1a59.9,59.9,0,0,1,6.92-.72,10.75,10.75,0,0,1,5.91,1.34c.55.31,1.76.87,1.66,1.67s-1.15,1-1.7,1.07c-2.18.47-4.36-.3-6.41-1l-3.61-1.17c-1-.33-2-.76-3-1l-.47,0h0l0,0a.12.12,0,0,1,0,.2l2,.71a21.07,21.07,0,0,1,5.09,2.31,14.06,14.06,0,0,1,2.54,2.14,13.31,13.31,0,0,1,2.08,2.7A2.35,2.35,0,0,1,138,337a1.81,1.81,0,0,1-2.13.35,5.83,5.83,0,0,1-2.15-1.6c-.86-.91-1.69-1.85-2.53-2.78l-5.32-5.88v.12a30.78,30.78,0,0,1,3.35,6.75,14.82,14.82,0,0,1,.92,6.39c-.07.62-.16,1.84-1,2s-1.48-1-1.79-1.65a20.24,20.24,0,0,1-1.41-6.68c-.22-2.26-.26-4.52-.31-6.79l-.08.12c-.23,1.21-.57,2.4-.89,3.57a34.52,34.52,0,0,1-1.22,4.14,18.75,18.75,0,0,1-4.05,5.55c-.46.48-1.34,1.12-1.7.17a5.27,5.27,0,0,1,.17-3.09,13.91,13.91,0,0,1,3.26-5.7,35.5,35.5,0,0,0,4.24-4.86l.09-.29h0c-1,1-2.19,1.86-3.29,2.76s-1.53,1.36-2.8,2.26a12.83,12.83,0,0,1-6.28,2.6C112.43,334.46,111.3,334.57,111.14,333.69Z" style="fill:#fff;opacity:0.8"></path><path d="M126.47,328.43a2.13,2.13,0,0,0,1.13-2.74,2,2,0,0,0-2.88-1.06,2.09,2.09,0,0,0-.87,2.71A2.06,2.06,0,0,0,126.47,328.43Z" style="fill:#ECEFF1"></path><path d="M399.36,183.89c.15-.9,1.66-1.43,2.37-1.7a19.67,19.67,0,0,1,9.77-.91,25.24,25.24,0,0,0,3.21.52,51.24,51.24,0,0,1-7.66-2.08,27.86,27.86,0,0,1-3.1-1.53,11.78,11.78,0,0,1-2.52-1.68c-.33-.3-1.23-1.09-.7-1.54.73-.6,2-.3,2.86-.15a12.35,12.35,0,0,1,3.31,1,19.34,19.34,0,0,1,2.84,1.83,42.62,42.62,0,0,1,4.72,3.53,54,54,0,0,1-3.75-5,18.58,18.58,0,0,1-3-6.24c-.13-.59-.16-1.29.55-1.49s1.64.49,2.19,1a11.15,11.15,0,0,1,2,2.19,10.05,10.05,0,0,1,1.17,3.06c.51,2,.88,4.06,1.42,6.06-.08-2.09.12-4.21,0-6.29s-.16-4.18.88-6c.3-.55,1-1.6,1.69-1.64s.83,1.24.89,1.76a16.13,16.13,0,0,1-.93,6.7,47.12,47.12,0,0,1-2,6.47,2.12,2.12,0,0,1,.27-.21c.35-1,1-1.89,1.41-2.87.51-1.13.76-2.35,1.28-3.47a11.57,11.57,0,0,1,3.73-4.53c.46-.33,1.55-1,2.05-.37s0,1.77-.18,2.33a14.52,14.52,0,0,1-3.53,5.11,35.77,35.77,0,0,1-3.37,3c1.07-.61,2.16-1.21,3.28-1.74a12.85,12.85,0,0,1,6.49-1.54c.8.07,4.56.89,2.91,2.3a8.23,8.23,0,0,1-3,1.26,20.83,20.83,0,0,1-3.67.69c-2.37.25-4.76.28-7.13.35l.36.23a59.43,59.43,0,0,1,6.75,1.68,10.73,10.73,0,0,1,5.11,3.26c.41.48,1.36,1.42,1,2.13s-1.4.5-2,.43c-2.21-.29-4-1.76-5.7-3.09l-3-2.33c-.82-.64-1.62-1.39-2.49-2l-.46-.13h0a.08.08,0,0,0,0,0,.13.13,0,0,1,0,.2c.56.45,1.13.9,1.68,1.36a21.17,21.17,0,0,1,4,3.9,15.87,15.87,0,0,1,2.7,6.12,2.31,2.31,0,0,1-.6,2.21,1.8,1.8,0,0,1-2.12-.38,5.74,5.74,0,0,1-1.48-2.24c-.51-1.14-1-2.31-1.44-3.47-1-2.44-2-4.89-3-7.33a.76.76,0,0,1,0,.11,30.46,30.46,0,0,1,.86,7.48,14.81,14.81,0,0,1-1.3,6.33c-.28.56-.77,1.67-1.58,1.51s-1.05-1.44-1.12-2.16a20.21,20.21,0,0,1,.94-6.76c.56-2.2,1.29-4.34,2-6.49l-.12.08c-.62,1.06-1.35,2.06-2,3.06a35,35,0,0,1-2.56,3.48,18.75,18.75,0,0,1-5.69,3.85c-.59.29-1.63.6-1.65-.42a5.14,5.14,0,0,1,1.21-2.84,13.81,13.81,0,0,1,5-4.27,36.14,36.14,0,0,0,5.65-3.13l.17-.24h0c-1.29.6-2.69,1-4,1.49s-1.9.76-3.4,1.17a12.75,12.75,0,0,1-6.79.32C400.31,185.05,399.22,184.77,399.36,183.89Z" style="fill:#ECEFF1"></path><path d="M399.36,183.89c.15-.9,1.66-1.43,2.37-1.7a19.67,19.67,0,0,1,9.77-.91,25.24,25.24,0,0,0,3.21.52,51.24,51.24,0,0,1-7.66-2.08,27.86,27.86,0,0,1-3.1-1.53,11.78,11.78,0,0,1-2.52-1.68c-.33-.3-1.23-1.09-.7-1.54.73-.6,2-.3,2.86-.15a12.35,12.35,0,0,1,3.31,1,19.34,19.34,0,0,1,2.84,1.83,42.62,42.62,0,0,1,4.72,3.53,54,54,0,0,1-3.75-5,18.58,18.58,0,0,1-3-6.24c-.13-.59-.16-1.29.55-1.49s1.64.49,2.19,1a11.15,11.15,0,0,1,2,2.19,10.05,10.05,0,0,1,1.17,3.06c.51,2,.88,4.06,1.42,6.06-.08-2.09.12-4.21,0-6.29s-.16-4.18.88-6c.3-.55,1-1.6,1.69-1.64s.83,1.24.89,1.76a16.13,16.13,0,0,1-.93,6.7,47.12,47.12,0,0,1-2,6.47,2.12,2.12,0,0,1,.27-.21c.35-1,1-1.89,1.41-2.87.51-1.13.76-2.35,1.28-3.47a11.57,11.57,0,0,1,3.73-4.53c.46-.33,1.55-1,2.05-.37s0,1.77-.18,2.33a14.52,14.52,0,0,1-3.53,5.11,35.77,35.77,0,0,1-3.37,3c1.07-.61,2.16-1.21,3.28-1.74a12.85,12.85,0,0,1,6.49-1.54c.8.07,4.56.89,2.91,2.3a8.23,8.23,0,0,1-3,1.26,20.83,20.83,0,0,1-3.67.69c-2.37.25-4.76.28-7.13.35l.36.23a59.43,59.43,0,0,1,6.75,1.68,10.73,10.73,0,0,1,5.11,3.26c.41.48,1.36,1.42,1,2.13s-1.4.5-2,.43c-2.21-.29-4-1.76-5.7-3.09l-3-2.33c-.82-.64-1.62-1.39-2.49-2l-.46-.13h0a.08.08,0,0,0,0,0,.13.13,0,0,1,0,.2c.56.45,1.13.9,1.68,1.36a21.17,21.17,0,0,1,4,3.9,15.87,15.87,0,0,1,2.7,6.12,2.31,2.31,0,0,1-.6,2.21,1.8,1.8,0,0,1-2.12-.38,5.74,5.74,0,0,1-1.48-2.24c-.51-1.14-1-2.31-1.44-3.47-1-2.44-2-4.89-3-7.33a.76.76,0,0,1,0,.11,30.46,30.46,0,0,1,.86,7.48,14.81,14.81,0,0,1-1.3,6.33c-.28.56-.77,1.67-1.58,1.51s-1.05-1.44-1.12-2.16a20.21,20.21,0,0,1,.94-6.76c.56-2.2,1.29-4.34,2-6.49l-.12.08c-.62,1.06-1.35,2.06-2,3.06a35,35,0,0,1-2.56,3.48,18.75,18.75,0,0,1-5.69,3.85c-.59.29-1.63.6-1.65-.42a5.14,5.14,0,0,1,1.21-2.84,13.81,13.81,0,0,1,5-4.27,36.14,36.14,0,0,0,5.65-3.13l.17-.24h0c-1.29.6-2.69,1-4,1.49s-1.9.76-3.4,1.17a12.75,12.75,0,0,1-6.79.32C400.31,185.05,399.22,184.77,399.36,183.89Z" style="fill:#fff;opacity:0.8"></path><path d="M415.57,184.14a2.13,2.13,0,0,0,2-2.19,2,2,0,0,0-2.36-2,2.1,2.1,0,0,0,.37,4.17Z" style="fill:#ECEFF1"></path><path d="M347.18,136.32c.33-2,3.67-3.15,5.24-3.75,5.24-2,7.22-2.15,12.79-2.51a34.57,34.57,0,0,1,8.8.51,57.28,57.28,0,0,0,7.08,1.13c-5.66-1.31-11.54-2.41-16.91-4.57a62.4,62.4,0,0,1-6.86-3.39,26.51,26.51,0,0,1-5.56-3.7c-.72-.69-2.73-2.43-1.56-3.4,1.62-1.34,4.51-.68,6.33-.35a28,28,0,0,1,7.32,2.14,45.53,45.53,0,0,1,6.27,4,96.9,96.9,0,0,1,10.42,7.81,127.46,127.46,0,0,1-8.29-11.06c-2.8-4.23-5.65-8.75-6.71-13.78-.28-1.32-.36-2.86,1.22-3.31,1.79-.52,3.61,1.08,4.84,2.18a24.77,24.77,0,0,1,4.5,4.82,22.07,22.07,0,0,1,2.58,6.77c1.14,4.44,1.94,9,3.15,13.38-.18-4.62.25-9.29,0-13.9s-.36-9.23,1.93-13.27c.68-1.22,2.15-3.52,3.73-3.62,1.77-.09,1.84,2.74,2,3.88.67,5.18-.64,9.89-2.06,14.81-1.36,4.74-2.44,9.77-4.49,14.28a4.08,4.08,0,0,1,.6-.45c.77-2.24,2.15-4.18,3.13-6.35,1.11-2.49,1.66-5.19,2.81-7.66a25.78,25.78,0,0,1,8.24-10c1-.73,3.43-2.13,4.53-.81,1,1.17,0,3.91-.39,5.15-1.48,4.33-4.66,8-7.8,11.27a81.53,81.53,0,0,1-7.45,6.69c2.37-1.36,4.79-2.67,7.25-3.86,4.45-2.14,9.34-3.8,14.34-3.39,1.75.14,10.07,2,6.42,5.08-1.7,1.46-4.5,2.17-6.62,2.78a46.5,46.5,0,0,1-8.12,1.52c-5.22.56-10.5.62-15.74.78.27.16.53.33.79.51a134.88,134.88,0,0,1,14.92,3.7,23.69,23.69,0,0,1,11.27,7.21c.92,1.06,3,3.13,2.2,4.7-.71,1.4-3.1,1.11-4.33,1-4.89-.65-8.84-3.89-12.59-6.82l-6.61-5.15c-1.81-1.41-3.57-3.07-5.5-4.37l-1-.3,0,0,.08.08a.29.29,0,0,1-.09.44q1.88,1.49,3.72,3a46.82,46.82,0,0,1,8.85,8.6,30.75,30.75,0,0,1,3.67,6.36,29.31,29.31,0,0,1,2.29,7.16c.23,1.62.16,3.83-1.31,4.9s-3.45.17-4.69-.86a12.84,12.84,0,0,1-3.27-4.93c-1.12-2.53-2.13-5.12-3.18-7.68q-3.33-8.1-6.65-16.19a2.41,2.41,0,0,1-.08.25,68.23,68.23,0,0,1,1.9,16.52c-.06,4.71-.75,9.71-2.87,14-.62,1.24-1.72,3.7-3.49,3.34-1.95-.4-2.33-3.18-2.49-4.77-.48-4.9.87-10.21,2.08-14.93s2.86-9.59,4.44-14.34l-.26.2c-1.36,2.33-3,4.54-4.51,6.74a73.28,73.28,0,0,1-5.65,7.68c-3.43,3.78-8.06,6.27-12.57,8.51-1.31.65-3.61,1.32-3.65-.93s1.45-4.52,2.67-6.28a30.7,30.7,0,0,1,11-9.41c4.2-2.22,8.7-4,12.46-6.92.13-.18.27-.35.4-.52,0,0,0,0,0,0-2.86,1.31-6,2.23-8.91,3.28-3.24,1.14-4.2,1.68-7.51,2.59-5.48,1.49-9.44,1.92-15,.7C349.28,138.89,346.87,138.27,347.18,136.32Z" style="fill:#ECEFF1"></path><path d="M347.18,136.32c.33-2,3.67-3.15,5.24-3.75,5.24-2,7.22-2.15,12.79-2.51a34.57,34.57,0,0,1,8.8.51,57.28,57.28,0,0,0,7.08,1.13c-5.66-1.31-11.54-2.41-16.91-4.57a62.4,62.4,0,0,1-6.86-3.39,26.51,26.51,0,0,1-5.56-3.7c-.72-.69-2.73-2.43-1.56-3.4,1.62-1.34,4.51-.68,6.33-.35a28,28,0,0,1,7.32,2.14,45.53,45.53,0,0,1,6.27,4,96.9,96.9,0,0,1,10.42,7.81,127.46,127.46,0,0,1-8.29-11.06c-2.8-4.23-5.65-8.75-6.71-13.78-.28-1.32-.36-2.86,1.22-3.31,1.79-.52,3.61,1.08,4.84,2.18a24.77,24.77,0,0,1,4.5,4.82,22.07,22.07,0,0,1,2.58,6.77c1.14,4.44,1.94,9,3.15,13.38-.18-4.62.25-9.29,0-13.9s-.36-9.23,1.93-13.27c.68-1.22,2.15-3.52,3.73-3.62,1.77-.09,1.84,2.74,2,3.88.67,5.18-.64,9.89-2.06,14.81-1.36,4.74-2.44,9.77-4.49,14.28a4.08,4.08,0,0,1,.6-.45c.77-2.24,2.15-4.18,3.13-6.35,1.11-2.49,1.66-5.19,2.81-7.66a25.78,25.78,0,0,1,8.24-10c1-.73,3.43-2.13,4.53-.81,1,1.17,0,3.91-.39,5.15-1.48,4.33-4.66,8-7.8,11.27a81.53,81.53,0,0,1-7.45,6.69c2.37-1.36,4.79-2.67,7.25-3.86,4.45-2.14,9.34-3.8,14.34-3.39,1.75.14,10.07,2,6.42,5.08-1.7,1.46-4.5,2.17-6.62,2.78a46.5,46.5,0,0,1-8.12,1.52c-5.22.56-10.5.62-15.74.78.27.16.53.33.79.51a134.88,134.88,0,0,1,14.92,3.7,23.69,23.69,0,0,1,11.27,7.21c.92,1.06,3,3.13,2.2,4.7-.71,1.4-3.1,1.11-4.33,1-4.89-.65-8.84-3.89-12.59-6.82l-6.61-5.15c-1.81-1.41-3.57-3.07-5.5-4.37l-1-.3,0,0,.08.08a.29.29,0,0,1-.09.44q1.88,1.49,3.72,3a46.82,46.82,0,0,1,8.85,8.6,30.75,30.75,0,0,1,3.67,6.36,29.31,29.31,0,0,1,2.29,7.16c.23,1.62.16,3.83-1.31,4.9s-3.45.17-4.69-.86a12.84,12.84,0,0,1-3.27-4.93c-1.12-2.53-2.13-5.12-3.18-7.68q-3.33-8.1-6.65-16.19a2.41,2.41,0,0,1-.08.25,68.23,68.23,0,0,1,1.9,16.52c-.06,4.71-.75,9.71-2.87,14-.62,1.24-1.72,3.7-3.49,3.34-1.95-.4-2.33-3.18-2.49-4.77-.48-4.9.87-10.21,2.08-14.93s2.86-9.59,4.44-14.34l-.26.2c-1.36,2.33-3,4.54-4.51,6.74a73.28,73.28,0,0,1-5.65,7.68c-3.43,3.78-8.06,6.27-12.57,8.51-1.31.65-3.61,1.32-3.65-.93s1.45-4.52,2.67-6.28a30.7,30.7,0,0,1,11-9.41c4.2-2.22,8.7-4,12.46-6.92.13-.18.27-.35.4-.52,0,0,0,0,0,0-2.86,1.31-6,2.23-8.91,3.28-3.24,1.14-4.2,1.68-7.51,2.59-5.48,1.49-9.44,1.92-15,.7C349.28,138.89,346.87,138.27,347.18,136.32Z" style="fill:#fff;opacity:0.8"></path><path d="M383,136.88c2.58.05,4.45-2.55,4.39-4.84a4.4,4.4,0,0,0-5.2-4.37c-2.8.29-3.9,3-3.82,5A4.55,4.55,0,0,0,383,136.88Z" style="fill:#ECEFF1"></path><path d="M55.06,310.36c-.9-1.8,1.11-4.71,2-6.11,3.06-4.72,4.58-6,8.87-9.56a34.09,34.09,0,0,1,7.42-4.76,59,59,0,0,0,6.39-3.25C74.42,289,69,291.52,63.4,292.92a60.32,60.32,0,0,1-7.54,1.3,26.67,26.67,0,0,1-6.68.27c-1-.12-3.63-.35-3.25-1.83.52-2,3.24-3.2,4.91-4A27.74,27.74,0,0,1,58,286.09a44,44,0,0,1,7.45-.42,94.27,94.27,0,0,1,13,.19,130,130,0,0,1-13.21-4.08c-4.76-1.78-9.71-3.75-13.54-7.2-1-.9-2-2.1-1-3.39,1.15-1.48,3.56-1.26,5.2-1.09a25.38,25.38,0,0,1,6.48,1.25,22.29,22.29,0,0,1,6.07,4c3.53,2.92,6.83,6.11,10.41,9-2.86-3.63-5.26-7.66-8.16-11.25s-5.71-7.26-6.24-11.87c-.16-1.38-.33-4.11.89-5.12s3.1,1.13,3.89,2c3.58,3.8,5.29,8.38,7,13.19,1.68,4.64,3.77,9.34,4.76,14.2a4.59,4.59,0,0,1,.23-.72c-.7-2.27-.72-4.65-1.21-7-.57-2.67-1.71-5.18-2.23-7.86a25.71,25.71,0,0,1,.78-12.94c.4-1.19,1.52-3.74,3.18-3.32,1.49.37,2.33,3.14,2.72,4.4,1.35,4.37,1,9.24.32,13.7a80.09,80.09,0,0,1-2.1,9.79c1.12-2.49,2.3-5,3.6-7.38,2.34-4.35,5.32-8.57,9.61-11.18,1.5-.91,9.29-4.34,8.18.33-.52,2.18-2.36,4.41-3.72,6.15a46.69,46.69,0,0,1-5.68,6c-3.89,3.52-8.13,6.67-12.28,9.89.32,0,.63-.05,1-.05a134.33,134.33,0,0,1,14.24-5.78,23.6,23.6,0,0,1,13.36-.8c1.36.32,4.27.76,4.55,2.51.24,1.55-1.86,2.72-3,3.31-4.34,2.35-9.44,2-14.2,1.89l-8.37-.28c-2.29-.08-4.7-.38-7-.3l-1,.35v0l.11,0a.28.28,0,0,1,.18.41c1.6.07,3.2.14,4.79.24a46.68,46.68,0,0,1,12.22,1.76,30.44,30.44,0,0,1,6.7,3,29.49,29.49,0,0,1,6.07,4.44c1.13,1.18,2.38,3,1.82,4.74s-2.7,2.16-4.3,2.06a12.87,12.87,0,0,1-5.55-2.06c-2.39-1.4-4.73-2.89-7.08-4.34q-7.46-4.6-14.9-9.19c0,.08,0,.17.08.25a68.7,68.7,0,0,1,11.25,12.24c2.72,3.85,5.11,8.3,5.9,13,.22,1.37.79,4-.86,4.76-1.82.82-3.76-1.21-4.82-2.4-3.27-3.67-5.3-8.77-7.1-13.3s-3.33-9.44-4.85-14.21a2.8,2.8,0,0,1-.09.31c.27,2.69.27,5.43.32,8.11a74.06,74.06,0,0,1,0,9.54c-.55,5.07-2.83,9.8-5.17,14.27-.67,1.3-2.13,3.2-3.5,1.4s-1.48-4.51-1.52-6.65a30.58,30.58,0,0,1,3.39-14.11c2.09-4.27,4.7-8.33,6-12.93,0-.21,0-.43,0-.65v0c-1.54,2.75-3.51,5.32-5.28,7.9-1.94,2.82-2.41,3.83-4.55,6.51-3.55,4.43-6.5,7.1-11.72,9.39C58.27,311.2,56,312.11,55.06,310.36Z" style="fill:#ECEFF1"></path><path d="M55.06,310.36c-.9-1.8,1.11-4.71,2-6.11,3.06-4.72,4.58-6,8.87-9.56a34.09,34.09,0,0,1,7.42-4.76,59,59,0,0,0,6.39-3.25C74.42,289,69,291.52,63.4,292.92a60.32,60.32,0,0,1-7.54,1.3,26.67,26.67,0,0,1-6.68.27c-1-.12-3.63-.35-3.25-1.83.52-2,3.24-3.2,4.91-4A27.74,27.74,0,0,1,58,286.09a44,44,0,0,1,7.45-.42,94.27,94.27,0,0,1,13,.19,130,130,0,0,1-13.21-4.08c-4.76-1.78-9.71-3.75-13.54-7.2-1-.9-2-2.1-1-3.39,1.15-1.48,3.56-1.26,5.2-1.09a25.38,25.38,0,0,1,6.48,1.25,22.29,22.29,0,0,1,6.07,4c3.53,2.92,6.83,6.11,10.41,9-2.86-3.63-5.26-7.66-8.16-11.25s-5.71-7.26-6.24-11.87c-.16-1.38-.33-4.11.89-5.12s3.1,1.13,3.89,2c3.58,3.8,5.29,8.38,7,13.19,1.68,4.64,3.77,9.34,4.76,14.2a4.59,4.59,0,0,1,.23-.72c-.7-2.27-.72-4.65-1.21-7-.57-2.67-1.71-5.18-2.23-7.86a25.71,25.71,0,0,1,.78-12.94c.4-1.19,1.52-3.74,3.18-3.32,1.49.37,2.33,3.14,2.72,4.4,1.35,4.37,1,9.24.32,13.7a80.09,80.09,0,0,1-2.1,9.79c1.12-2.49,2.3-5,3.6-7.38,2.34-4.35,5.32-8.57,9.61-11.18,1.5-.91,9.29-4.34,8.18.33-.52,2.18-2.36,4.41-3.72,6.15a46.69,46.69,0,0,1-5.68,6c-3.89,3.52-8.13,6.67-12.28,9.89.32,0,.63-.05,1-.05a134.33,134.33,0,0,1,14.24-5.78,23.6,23.6,0,0,1,13.36-.8c1.36.32,4.27.76,4.55,2.51.24,1.55-1.86,2.72-3,3.31-4.34,2.35-9.44,2-14.2,1.89l-8.37-.28c-2.29-.08-4.7-.38-7-.3l-1,.35v0l.11,0a.28.28,0,0,1,.18.41c1.6.07,3.2.14,4.79.24a46.68,46.68,0,0,1,12.22,1.76,30.44,30.44,0,0,1,6.7,3,29.49,29.49,0,0,1,6.07,4.44c1.13,1.18,2.38,3,1.82,4.74s-2.7,2.16-4.3,2.06a12.87,12.87,0,0,1-5.55-2.06c-2.39-1.4-4.73-2.89-7.08-4.34q-7.46-4.6-14.9-9.19c0,.08,0,.17.08.25a68.7,68.7,0,0,1,11.25,12.24c2.72,3.85,5.11,8.3,5.9,13,.22,1.37.79,4-.86,4.76-1.82.82-3.76-1.21-4.82-2.4-3.27-3.67-5.3-8.77-7.1-13.3s-3.33-9.44-4.85-14.21a2.8,2.8,0,0,1-.09.31c.27,2.69.27,5.43.32,8.11a74.06,74.06,0,0,1,0,9.54c-.55,5.07-2.83,9.8-5.17,14.27-.67,1.3-2.13,3.2-3.5,1.4s-1.48-4.51-1.52-6.65a30.58,30.58,0,0,1,3.39-14.11c2.09-4.27,4.7-8.33,6-12.93,0-.21,0-.43,0-.65v0c-1.54,2.75-3.51,5.32-5.28,7.9-1.94,2.82-2.41,3.83-4.55,6.51-3.55,4.43-6.5,7.1-11.72,9.39C58.27,311.2,56,312.11,55.06,310.36Z" style="fill:#fff;opacity:0.8"></path><path d="M84.35,289.75c2.12-1.48,2.1-4.68.71-6.5a4.4,4.4,0,0,0-6.78-.47c-2.1,1.88-1.38,4.74-.16,6.27A4.55,4.55,0,0,0,84.35,289.75Z" style="fill:#ECEFF1"></path></g></svg>