<svg xmlns="http://www.w3.org/2000/svg" viewBox="0 0 500 500"><g id="freepik--background-complete--inject-1035"><path d="M195,122.68h-53.7s12-17.39,21.45-17.39S175,116.88,175,116.88s6.67-5.41,12.85-4.44S195,122.68,195,122.68Z" style="fill:#ebebeb"></path><path d="M448.77,168.36h-53.7s12-17.39,21.46-17.39,12.24,11.59,12.24,11.59,6.68-5.41,12.86-4.44S448.77,168.36,448.77,168.36Z" style="fill:#ebebeb;opacity:0.5"></path><path d="M155.83,97.64H51.23s14.32-32,29.64-34,22.66,23.77,22.66,23.77,9.88-9.11,17.65-9.11,13.77,12,13.77,12S150.5,82.1,155.83,97.64Z" style="fill:#ebebeb"></path><path d="M424.77,291.5H320.17s14.32-32,29.65-34,22.65,23.76,22.65,23.76,9.88-9.11,17.65-9.11,13.77,12,13.77,12S419.44,276,424.77,291.5Z" style="fill:#ebebeb"></path><path d="M139,235.17H68.34S80.48,212,93.64,211.66s20.09,17.54,20.09,17.54S134.21,212.76,139,235.17Z" style="fill:#ebebeb;opacity:0.5"></path><rect x="32.94" y="366.79" width="434.12" height="63.02" style="fill:#ebebeb"></rect><path d="M107.07,366.71c.21,5.25.3,10.5.38,15.75s.08,10.5.12,15.75,0,10.5-.12,15.75l-.13,7.88c-.09,2.62-.14,5.24-.25,7.87-.11-2.63-.16-5.25-.25-7.87l-.13-7.88c-.08-5.25-.08-10.5-.12-15.75s0-10.5.12-15.75S106.86,372,107.07,366.71Z" style="fill:#dbdbdb"></path><path d="M104.18,371.44a1.74,1.74,0,0,1-1.48,1.72,1.7,1.7,0,0,1-1.35-.37,1.76,1.76,0,0,1,0-2.7,1.7,1.7,0,0,1,1.35-.38A1.75,1.75,0,0,1,104.18,371.44Zm0,0a1.31,1.31,0,0,0-.49-1,1.21,1.21,0,0,0-1-.23,1.26,1.26,0,0,0,0,2.46,1.21,1.21,0,0,0,1-.24A1.29,1.29,0,0,0,104.18,371.44Z" style="fill:#dbdbdb"></path><path d="M104.18,382.18a1.73,1.73,0,0,1-2.83,1.35,1.76,1.76,0,0,1,0-2.7,1.69,1.69,0,0,1,1.35-.37A1.74,1.74,0,0,1,104.18,382.18Zm0,0a1.31,1.31,0,0,0-.49-1,1.21,1.21,0,0,0-1-.23,1.26,1.26,0,0,0,0,2.45,1.21,1.21,0,0,0,1-.23A1.31,1.31,0,0,0,104.18,382.18Z" style="fill:#dbdbdb"></path><path d="M104.18,392.93a1.73,1.73,0,0,1-2.83,1.35,1.76,1.76,0,0,1,0-2.7,1.74,1.74,0,0,1,1.35-.38A1.76,1.76,0,0,1,104.18,392.93Zm0,0a1.28,1.28,0,0,0-.49-1,1.18,1.18,0,0,0-1-.24,1.26,1.26,0,0,0,0,2.46,1.21,1.21,0,0,0,1-.23A1.31,1.31,0,0,0,104.18,392.93Z" style="fill:#dbdbdb"></path><path d="M104.18,403.68a1.74,1.74,0,0,1-1.48,1.72,1.71,1.71,0,0,1-1.35-.38,1.78,1.78,0,0,1-.63-1.34,1.81,1.81,0,0,1,.63-1.35,1.7,1.7,0,0,1,1.35-.38A1.75,1.75,0,0,1,104.18,403.68Zm0,0a1.31,1.31,0,0,0-.49-1,1.21,1.21,0,0,0-1-.23,1.26,1.26,0,0,0,0,2.45,1.17,1.17,0,0,0,1-.23A1.31,1.31,0,0,0,104.18,403.68Z" style="fill:#dbdbdb"></path><path d="M104.18,414.42a1.73,1.73,0,0,1-2.83,1.35,1.76,1.76,0,0,1,0-2.7,1.74,1.74,0,0,1,1.35-.38A1.76,1.76,0,0,1,104.18,414.42Zm0,0a1.31,1.31,0,0,0-.49-1,1.21,1.21,0,0,0-1-.23,1.26,1.26,0,0,0,0,2.45,1.21,1.21,0,0,0,1-.23A1.31,1.31,0,0,0,104.18,414.42Z" style="fill:#dbdbdb"></path><path d="M104.18,425.17a1.74,1.74,0,0,1-1.48,1.72,1.7,1.7,0,0,1-1.35-.37,1.76,1.76,0,0,1,0-2.7,1.7,1.7,0,0,1,1.35-.38A1.75,1.75,0,0,1,104.18,425.17Zm0,0a1.31,1.31,0,0,0-.49-1,1.21,1.21,0,0,0-1-.23,1.26,1.26,0,0,0,0,2.46,1.18,1.18,0,0,0,1-.24A1.28,1.28,0,0,0,104.18,425.17Z" style="fill:#dbdbdb"></path><path d="M113.15,371.44a1.73,1.73,0,0,1-1.47,1.72,1.69,1.69,0,0,1-1.35-.37,1.76,1.76,0,0,1,0-2.7,1.69,1.69,0,0,1,1.35-.38A1.74,1.74,0,0,1,113.15,371.44Zm0,0a1.27,1.27,0,0,0-.48-1,1.21,1.21,0,0,0-1-.23,1.26,1.26,0,0,0,0,2.46,1.21,1.21,0,0,0,1-.24A1.25,1.25,0,0,0,113.15,371.44Z" style="fill:#dbdbdb"></path><path d="M113.15,382.18a1.72,1.72,0,0,1-2.82,1.35,1.76,1.76,0,0,1,0-2.7,1.68,1.68,0,0,1,1.35-.37A1.73,1.73,0,0,1,113.15,382.18Zm0,0a1.27,1.27,0,0,0-.48-1,1.21,1.21,0,0,0-1-.23,1.26,1.26,0,0,0,0,2.45,1.21,1.21,0,0,0,1-.23A1.27,1.27,0,0,0,113.15,382.18Z" style="fill:#dbdbdb"></path><path d="M113.15,392.93a1.72,1.72,0,0,1-2.82,1.35,1.76,1.76,0,0,1,0-2.7,1.73,1.73,0,0,1,1.35-.38A1.75,1.75,0,0,1,113.15,392.93Zm0,0a1.24,1.24,0,0,0-.48-1,1.18,1.18,0,0,0-1-.24,1.26,1.26,0,0,0,0,2.46,1.21,1.21,0,0,0,1-.23A1.27,1.27,0,0,0,113.15,392.93Z" style="fill:#dbdbdb"></path><path d="M113.15,403.68a1.73,1.73,0,0,1-1.47,1.72,1.7,1.7,0,0,1-1.35-.38,1.75,1.75,0,0,1-.63-1.34,1.77,1.77,0,0,1,.63-1.35,1.69,1.69,0,0,1,1.35-.38A1.74,1.74,0,0,1,113.15,403.68Zm0,0a1.27,1.27,0,0,0-.48-1,1.21,1.21,0,0,0-1-.23,1.26,1.26,0,0,0,0,2.45,1.17,1.17,0,0,0,1-.23A1.27,1.27,0,0,0,113.15,403.68Z" style="fill:#dbdbdb"></path><path d="M113.15,414.42a1.72,1.72,0,0,1-2.82,1.35,1.76,1.76,0,0,1,0-2.7,1.73,1.73,0,0,1,1.35-.38A1.75,1.75,0,0,1,113.15,414.42Zm0,0a1.27,1.27,0,0,0-.48-1,1.21,1.21,0,0,0-1-.23,1.26,1.26,0,0,0,0,2.45,1.21,1.21,0,0,0,1-.23A1.27,1.27,0,0,0,113.15,414.42Z" style="fill:#dbdbdb"></path><path d="M113.15,425.17a1.73,1.73,0,0,1-1.47,1.72,1.69,1.69,0,0,1-1.35-.37,1.76,1.76,0,0,1,0-2.7,1.69,1.69,0,0,1,1.35-.38A1.74,1.74,0,0,1,113.15,425.17Zm0,0a1.27,1.27,0,0,0-.48-1,1.21,1.21,0,0,0-1-.23,1.26,1.26,0,0,0,0,2.46,1.18,1.18,0,0,0,1-.24A1.24,1.24,0,0,0,113.15,425.17Z" style="fill:#dbdbdb"></path><path d="M202.28,366.71c.2,5.25.3,10.5.38,15.75s.08,10.5.12,15.75,0,10.5-.12,15.75l-.14,7.88c-.08,2.62-.13,5.24-.24,7.87-.12-2.63-.16-5.25-.25-7.87l-.14-7.88c-.08-5.25-.07-10.5-.11-15.75s0-10.5.12-15.75S202.07,372,202.28,366.71Z" style="fill:#dbdbdb"></path><path d="M199.38,371.44a1.73,1.73,0,0,1-1.47,1.72,1.7,1.7,0,0,1-1.35-.37,1.76,1.76,0,0,1,0-2.7,1.7,1.7,0,0,1,1.35-.38A1.73,1.73,0,0,1,199.38,371.44Zm0,0a1.27,1.27,0,0,0-.48-1,1.21,1.21,0,0,0-1-.23,1.26,1.26,0,0,0,0,2.46,1.21,1.21,0,0,0,1-.24A1.25,1.25,0,0,0,199.38,371.44Z" style="fill:#dbdbdb"></path><path d="M199.38,382.18a1.72,1.72,0,0,1-2.82,1.35,1.76,1.76,0,0,1,0-2.7,1.69,1.69,0,0,1,1.35-.37A1.73,1.73,0,0,1,199.38,382.18Zm0,0a1.27,1.27,0,0,0-.48-1,1.21,1.21,0,0,0-1-.23,1.26,1.26,0,0,0,0,2.45,1.21,1.21,0,0,0,1-.23A1.27,1.27,0,0,0,199.38,382.18Z" style="fill:#dbdbdb"></path><path d="M199.38,392.93a1.72,1.72,0,0,1-2.82,1.35,1.76,1.76,0,0,1,0-2.7,1.72,1.72,0,0,1,2.82,1.35Zm0,0a1.24,1.24,0,0,0-.48-1,1.18,1.18,0,0,0-1-.24,1.26,1.26,0,0,0,0,2.46,1.21,1.21,0,0,0,1-.23A1.27,1.27,0,0,0,199.38,392.93Z" style="fill:#dbdbdb"></path><path d="M199.38,403.68a1.73,1.73,0,0,1-1.47,1.72,1.71,1.71,0,0,1-1.35-.38,1.78,1.78,0,0,1-.63-1.34,1.81,1.81,0,0,1,.63-1.35,1.7,1.7,0,0,1,1.35-.38A1.73,1.73,0,0,1,199.38,403.68Zm0,0a1.27,1.27,0,0,0-.48-1,1.21,1.21,0,0,0-1-.23,1.26,1.26,0,0,0,0,2.45,1.17,1.17,0,0,0,1-.23A1.27,1.27,0,0,0,199.38,403.68Z" style="fill:#dbdbdb"></path><path d="M199.38,414.42a1.72,1.72,0,0,1-2.82,1.35,1.76,1.76,0,0,1,0-2.7,1.72,1.72,0,0,1,2.82,1.35Zm0,0a1.27,1.27,0,0,0-.48-1,1.21,1.21,0,0,0-1-.23,1.26,1.26,0,0,0,0,2.45,1.21,1.21,0,0,0,1-.23A1.27,1.27,0,0,0,199.38,414.42Z" style="fill:#dbdbdb"></path><path d="M199.38,425.17a1.73,1.73,0,0,1-1.47,1.72,1.7,1.7,0,0,1-1.35-.37,1.76,1.76,0,0,1,0-2.7,1.7,1.7,0,0,1,1.35-.38A1.73,1.73,0,0,1,199.38,425.17Zm0,0a1.27,1.27,0,0,0-.48-1,1.21,1.21,0,0,0-1-.23,1.26,1.26,0,0,0,0,2.46,1.18,1.18,0,0,0,1-.24A1.24,1.24,0,0,0,199.38,425.17Z" style="fill:#dbdbdb"></path><path d="M208.36,371.44a1.73,1.73,0,0,1-1.48,1.72,1.67,1.67,0,0,1-1.34-.37,1.77,1.77,0,0,1-.63-1.35,1.8,1.8,0,0,1,.62-1.35,1.71,1.71,0,0,1,1.35-.38A1.74,1.74,0,0,1,208.36,371.44Zm0,0a1.3,1.3,0,0,0-.48-1,1.24,1.24,0,0,0-1-.23,1.26,1.26,0,0,0,0,2.46,1.24,1.24,0,0,0,1-.24A1.28,1.28,0,0,0,208.36,371.44Z" style="fill:#dbdbdb"></path><path d="M208.36,382.18a1.74,1.74,0,0,1-1.48,1.73,1.71,1.71,0,0,1-1.34-.38,1.77,1.77,0,0,1-.63-1.35,1.81,1.81,0,0,1,.62-1.35,1.7,1.7,0,0,1,1.35-.37A1.73,1.73,0,0,1,208.36,382.18Zm0,0a1.3,1.3,0,0,0-.48-1,1.25,1.25,0,1,0,0,2A1.3,1.3,0,0,0,208.36,382.18Z" style="fill:#dbdbdb"></path><path d="M208.36,392.93a1.75,1.75,0,0,1-1.48,1.73,1.71,1.71,0,0,1-1.34-.38,1.77,1.77,0,0,1-.63-1.35,1.8,1.8,0,0,1,.62-1.35,1.73,1.73,0,0,1,2.83,1.35Zm0,0a1.27,1.27,0,0,0-.48-1,1.21,1.21,0,0,0-1-.24,1.26,1.26,0,0,0,0,2.46,1.23,1.23,0,0,0,1-.23A1.3,1.3,0,0,0,208.36,392.93Z" style="fill:#dbdbdb"></path><path d="M208.36,403.68a1.73,1.73,0,0,1-1.48,1.72,1.68,1.68,0,0,1-1.34-.38,1.75,1.75,0,0,1-.63-1.34,1.8,1.8,0,0,1,.62-1.35,1.71,1.71,0,0,1,1.35-.38A1.74,1.74,0,0,1,208.36,403.68Zm0,0a1.3,1.3,0,0,0-.48-1,1.24,1.24,0,0,0-1-.23,1.25,1.25,0,0,0-1,1.23,1.23,1.23,0,0,0,1,1.22,1.19,1.19,0,0,0,1-.23A1.3,1.3,0,0,0,208.36,403.68Z" style="fill:#dbdbdb"></path><path d="M208.36,414.42a1.74,1.74,0,0,1-1.48,1.73,1.71,1.71,0,0,1-1.34-.38,1.77,1.77,0,0,1-.63-1.35,1.81,1.81,0,0,1,.62-1.35,1.73,1.73,0,0,1,2.83,1.35Zm0,0a1.3,1.3,0,0,0-.48-1,1.25,1.25,0,1,0,0,2A1.3,1.3,0,0,0,208.36,414.42Z" style="fill:#dbdbdb"></path><path d="M208.36,425.17a1.73,1.73,0,0,1-1.48,1.72,1.67,1.67,0,0,1-1.34-.37,1.77,1.77,0,0,1-.63-1.35,1.8,1.8,0,0,1,.62-1.35,1.71,1.71,0,0,1,1.35-.38A1.74,1.74,0,0,1,208.36,425.17Zm0,0a1.3,1.3,0,0,0-.48-1,1.24,1.24,0,0,0-1-.23,1.26,1.26,0,0,0,0,2.46,1.2,1.2,0,0,0,1-.24A1.27,1.27,0,0,0,208.36,425.17Z" style="fill:#dbdbdb"></path><path d="M297.49,366.71c.2,5.25.3,10.5.38,15.75s.07,10.5.12,15.75,0,10.5-.12,15.75l-.14,7.88c-.08,2.62-.13,5.24-.24,7.87-.12-2.63-.17-5.25-.25-7.87L297.1,414c-.08-5.25-.07-10.5-.11-15.75s0-10.5.11-15.75S297.28,372,297.49,366.71Z" style="fill:#dbdbdb"></path><path d="M294.59,371.44a1.73,1.73,0,0,1-1.47,1.72,1.69,1.69,0,0,1-1.35-.37,1.76,1.76,0,0,1,0-2.7,1.7,1.7,0,0,1,1.35-.38A1.74,1.74,0,0,1,294.59,371.44Zm0,0a1.27,1.27,0,0,0-.48-1,1.21,1.21,0,0,0-1-.23,1.26,1.26,0,0,0,0,2.46,1.21,1.21,0,0,0,1-.24A1.25,1.25,0,0,0,294.59,371.44Z" style="fill:#dbdbdb"></path><path d="M294.59,382.18a1.72,1.72,0,0,1-2.82,1.35,1.76,1.76,0,0,1,0-2.7,1.69,1.69,0,0,1,1.35-.37A1.73,1.73,0,0,1,294.59,382.18Zm0,0a1.27,1.27,0,0,0-.48-1,1.21,1.21,0,0,0-1-.23,1.26,1.26,0,0,0,0,2.45,1.21,1.21,0,0,0,1-.23A1.27,1.27,0,0,0,294.59,382.18Z" style="fill:#dbdbdb"></path><path d="M294.59,392.93a1.72,1.72,0,0,1-2.82,1.35,1.76,1.76,0,0,1,0-2.7,1.72,1.72,0,0,1,2.82,1.35Zm0,0a1.24,1.24,0,0,0-.48-1,1.18,1.18,0,0,0-1-.24,1.26,1.26,0,0,0,0,2.46,1.21,1.21,0,0,0,1-.23A1.27,1.27,0,0,0,294.59,392.93Z" style="fill:#dbdbdb"></path><path d="M294.59,403.68a1.73,1.73,0,0,1-1.47,1.72,1.7,1.7,0,0,1-1.35-.38,1.75,1.75,0,0,1-.63-1.34,1.77,1.77,0,0,1,.63-1.35,1.7,1.7,0,0,1,1.35-.38A1.74,1.74,0,0,1,294.59,403.68Zm0,0a1.27,1.27,0,0,0-.48-1,1.21,1.21,0,0,0-1-.23,1.26,1.26,0,0,0,0,2.45,1.17,1.17,0,0,0,1-.23A1.27,1.27,0,0,0,294.59,403.68Z" style="fill:#dbdbdb"></path><path d="M294.59,414.42a1.72,1.72,0,0,1-2.82,1.35,1.76,1.76,0,0,1,0-2.7,1.72,1.72,0,0,1,2.82,1.35Zm0,0a1.27,1.27,0,0,0-.48-1,1.21,1.21,0,0,0-1-.23,1.26,1.26,0,0,0,0,2.45,1.21,1.21,0,0,0,1-.23A1.27,1.27,0,0,0,294.59,414.42Z" style="fill:#dbdbdb"></path><path d="M294.59,425.17a1.73,1.73,0,0,1-1.47,1.72,1.69,1.69,0,0,1-1.35-.37,1.76,1.76,0,0,1,0-2.7,1.7,1.7,0,0,1,1.35-.38A1.74,1.74,0,0,1,294.59,425.17Zm0,0a1.27,1.27,0,0,0-.48-1,1.21,1.21,0,0,0-1-.23,1.26,1.26,0,0,0,0,2.46,1.18,1.18,0,0,0,1-.24A1.24,1.24,0,0,0,294.59,425.17Z" style="fill:#dbdbdb"></path><path d="M303.57,371.44a1.73,1.73,0,0,1-1.48,1.72,1.7,1.7,0,0,1-1.35-.37,1.8,1.8,0,0,1-.62-1.35,1.76,1.76,0,0,1,.62-1.35,1.71,1.71,0,0,1,1.35-.38A1.75,1.75,0,0,1,303.57,371.44Zm0,0a1.34,1.34,0,0,0-.48-1,1.24,1.24,0,0,0-1-.23,1.26,1.26,0,0,0,0,2.46,1.24,1.24,0,0,0,1-.24A1.31,1.31,0,0,0,303.57,371.44Z" style="fill:#dbdbdb"></path><path d="M303.57,382.18a1.73,1.73,0,0,1-2.83,1.35,1.8,1.8,0,0,1-.62-1.35,1.78,1.78,0,0,1,.62-1.35,1.7,1.7,0,0,1,1.35-.37A1.74,1.74,0,0,1,303.57,382.18Zm0,0a1.33,1.33,0,0,0-.48-1,1.24,1.24,0,0,0-1-.23,1.26,1.26,0,0,0,0,2.45,1.24,1.24,0,0,0,1-.23A1.34,1.34,0,0,0,303.57,382.18Z" style="fill:#dbdbdb"></path><path d="M303.57,392.93a1.73,1.73,0,0,1-2.83,1.35,1.8,1.8,0,0,1-.62-1.35,1.73,1.73,0,1,1,3.45,0Zm0,0a1.3,1.3,0,0,0-.48-1,1.21,1.21,0,0,0-1-.24,1.26,1.26,0,0,0,0,2.46,1.24,1.24,0,0,0,1-.23A1.34,1.34,0,0,0,303.57,392.93Z" style="fill:#dbdbdb"></path><path d="M303.57,403.68a1.73,1.73,0,0,1-1.48,1.72,1.71,1.71,0,0,1-1.35-.38,1.77,1.77,0,0,1,0-2.69,1.71,1.71,0,0,1,1.35-.38A1.75,1.75,0,0,1,303.57,403.68Zm0,0a1.34,1.34,0,0,0-.48-1,1.24,1.24,0,0,0-1-.23,1.26,1.26,0,0,0,0,2.45,1.2,1.2,0,0,0,1-.23A1.33,1.33,0,0,0,303.57,403.68Z" style="fill:#dbdbdb"></path><path d="M303.57,414.42a1.73,1.73,0,0,1-2.83,1.35,1.8,1.8,0,0,1-.62-1.35,1.78,1.78,0,0,1,.62-1.35,1.73,1.73,0,0,1,2.83,1.35Zm0,0a1.33,1.33,0,0,0-.48-1,1.24,1.24,0,0,0-1-.23,1.26,1.26,0,0,0,0,2.45,1.24,1.24,0,0,0,1-.23A1.34,1.34,0,0,0,303.57,414.42Z" style="fill:#dbdbdb"></path><path d="M303.57,425.17a1.73,1.73,0,0,1-1.48,1.72,1.7,1.7,0,0,1-1.35-.37,1.8,1.8,0,0,1-.62-1.35,1.76,1.76,0,0,1,.62-1.35,1.71,1.71,0,0,1,1.35-.38A1.75,1.75,0,0,1,303.57,425.17Zm0,0a1.34,1.34,0,0,0-.48-1,1.24,1.24,0,0,0-1-.23,1.26,1.26,0,0,0,0,2.46,1.21,1.21,0,0,0,1-.24A1.3,1.3,0,0,0,303.57,425.17Z" style="fill:#dbdbdb"></path><path d="M392.69,366.71c.21,5.25.31,10.5.39,15.75s.07,10.5.11,15.75,0,10.5-.11,15.75l-.14,7.88c-.08,2.62-.13,5.24-.25,7.87-.11-2.63-.16-5.25-.24-7.87l-.14-7.88c-.08-5.25-.08-10.5-.11-15.75s0-10.5.11-15.75S392.49,372,392.69,366.71Z" style="fill:#dbdbdb"></path><path d="M389.8,371.44a1.73,1.73,0,0,1-1.48,1.72,1.67,1.67,0,0,1-1.34-.37,1.76,1.76,0,0,1,0-2.7,1.68,1.68,0,0,1,1.34-.38A1.74,1.74,0,0,1,389.8,371.44Zm0,0a1.3,1.3,0,0,0-.48-1,1.23,1.23,0,0,0-1-.23,1.26,1.26,0,0,0,0,2.46,1.23,1.23,0,0,0,1-.24A1.28,1.28,0,0,0,389.8,371.44Z" style="fill:#dbdbdb"></path><path d="M389.8,382.18a1.74,1.74,0,0,1-1.48,1.73,1.71,1.71,0,0,1-1.34-.38,1.76,1.76,0,0,1,0-2.7,1.67,1.67,0,0,1,1.34-.37A1.73,1.73,0,0,1,389.8,382.18Zm0,0a1.3,1.3,0,0,0-.48-1,1.23,1.23,0,0,0-1-.23,1.26,1.26,0,0,0,0,2.45,1.22,1.22,0,0,0,1-.23A1.3,1.3,0,0,0,389.8,382.18Z" style="fill:#dbdbdb"></path><path d="M389.8,392.93a1.75,1.75,0,0,1-1.48,1.73,1.71,1.71,0,0,1-1.34-.38,1.76,1.76,0,0,1,0-2.7,1.71,1.71,0,0,1,1.34-.38A1.75,1.75,0,0,1,389.8,392.93Zm0,0a1.27,1.27,0,0,0-.48-1,1.2,1.2,0,0,0-1-.24,1.26,1.26,0,0,0,0,2.46,1.22,1.22,0,0,0,1-.23A1.3,1.3,0,0,0,389.8,392.93Z" style="fill:#dbdbdb"></path><path d="M389.8,403.68a1.73,1.73,0,0,1-1.48,1.72A1.68,1.68,0,0,1,387,405a1.75,1.75,0,0,1-.63-1.34,1.77,1.77,0,0,1,.63-1.35,1.68,1.68,0,0,1,1.34-.38A1.74,1.74,0,0,1,389.8,403.68Zm0,0a1.3,1.3,0,0,0-.48-1,1.23,1.23,0,0,0-1-.23,1.25,1.25,0,0,0-1,1.23,1.23,1.23,0,0,0,1,1.22,1.19,1.19,0,0,0,1-.23A1.3,1.3,0,0,0,389.8,403.68Z" style="fill:#dbdbdb"></path><path d="M389.8,414.42a1.74,1.74,0,0,1-1.48,1.73,1.71,1.71,0,0,1-1.34-.38,1.76,1.76,0,0,1,0-2.7,1.71,1.71,0,0,1,1.34-.38A1.75,1.75,0,0,1,389.8,414.42Zm0,0a1.3,1.3,0,0,0-.48-1,1.23,1.23,0,0,0-1-.23,1.26,1.26,0,0,0,0,2.45,1.22,1.22,0,0,0,1-.23A1.3,1.3,0,0,0,389.8,414.42Z" style="fill:#dbdbdb"></path><path d="M389.8,425.17a1.73,1.73,0,0,1-1.48,1.72,1.67,1.67,0,0,1-1.34-.37,1.76,1.76,0,0,1,0-2.7,1.68,1.68,0,0,1,1.34-.38A1.74,1.74,0,0,1,389.8,425.17Zm0,0a1.3,1.3,0,0,0-.48-1,1.23,1.23,0,0,0-1-.23,1.26,1.26,0,0,0,0,2.46,1.19,1.19,0,0,0,1-.24A1.27,1.27,0,0,0,389.8,425.17Z" style="fill:#dbdbdb"></path><path d="M398.78,371.44a1.74,1.74,0,0,1-1.48,1.72,1.7,1.7,0,0,1-1.35-.37,1.76,1.76,0,0,1,0-2.7,1.71,1.71,0,0,1,1.35-.38A1.75,1.75,0,0,1,398.78,371.44Zm0,0a1.34,1.34,0,0,0-.48-1,1.24,1.24,0,0,0-1-.23,1.26,1.26,0,0,0,0,2.46,1.24,1.24,0,0,0,1-.24A1.31,1.31,0,0,0,398.78,371.44Z" style="fill:#dbdbdb"></path><path d="M398.78,382.18a1.73,1.73,0,0,1-2.83,1.35,1.76,1.76,0,0,1,0-2.7,1.7,1.7,0,0,1,1.35-.37A1.74,1.74,0,0,1,398.78,382.18Zm0,0a1.33,1.33,0,0,0-.48-1,1.24,1.24,0,0,0-1-.23,1.26,1.26,0,0,0,0,2.45,1.24,1.24,0,0,0,1-.23A1.34,1.34,0,0,0,398.78,382.18Z" style="fill:#dbdbdb"></path><path d="M398.78,392.93a1.73,1.73,0,0,1-2.83,1.35,1.76,1.76,0,0,1,0-2.7,1.73,1.73,0,0,1,2.83,1.35Zm0,0a1.3,1.3,0,0,0-.48-1,1.21,1.21,0,0,0-1-.24,1.26,1.26,0,0,0,0,2.46,1.24,1.24,0,0,0,1-.23A1.34,1.34,0,0,0,398.78,392.93Z" style="fill:#dbdbdb"></path><path d="M398.78,403.68a1.74,1.74,0,0,1-1.48,1.72A1.71,1.71,0,0,1,396,405a1.78,1.78,0,0,1-.63-1.34,1.81,1.81,0,0,1,.63-1.35,1.71,1.71,0,0,1,1.35-.38A1.75,1.75,0,0,1,398.78,403.68Zm0,0a1.34,1.34,0,0,0-.48-1,1.24,1.24,0,0,0-1-.23,1.26,1.26,0,0,0-1,1.23,1.24,1.24,0,0,0,1,1.22,1.2,1.2,0,0,0,1-.23A1.33,1.33,0,0,0,398.78,403.68Z" style="fill:#dbdbdb"></path><path d="M398.78,414.42a1.73,1.73,0,0,1-2.83,1.35,1.76,1.76,0,0,1,0-2.7,1.73,1.73,0,0,1,2.83,1.35Zm0,0a1.33,1.33,0,0,0-.48-1,1.24,1.24,0,0,0-1-.23,1.26,1.26,0,0,0,0,2.45,1.24,1.24,0,0,0,1-.23A1.34,1.34,0,0,0,398.78,414.42Z" style="fill:#dbdbdb"></path><path d="M398.78,425.17a1.74,1.74,0,0,1-1.48,1.72,1.7,1.7,0,0,1-1.35-.37,1.76,1.76,0,0,1,0-2.7,1.71,1.71,0,0,1,1.35-.38A1.75,1.75,0,0,1,398.78,425.17Zm0,0a1.34,1.34,0,0,0-.48-1,1.24,1.24,0,0,0-1-.23,1.26,1.26,0,0,0,0,2.46,1.21,1.21,0,0,0,1-.24A1.3,1.3,0,0,0,398.78,425.17Z" style="fill:#dbdbdb"></path></g><g id="freepik--Plants--inject-1035"><path d="M408.49,407.75c-2.64-3.42-5.65-7.18-5.47-11.72.17-4.18,1.58-8.82,5.42-11,1.1-.63,1.9-.85,2.25.56.54,2.15-.38,4.76-.84,6.85a43.39,43.39,0,0,0-1.11,8.18c-.06,1.93.08,3.87.07,5.8,0,.24,0,.49,0,.73a2.62,2.62,0,0,1,0,.28.86.86,0,0,0,.07.1.21.21,0,0,1,0,.2.16.16,0,0,1,0,.07A.23.23,0,0,1,408.49,407.75Z" style="fill:#ECEFF1"></path><path d="M408.85,407.75c-2.16-3.11-4.7-6.34-4.38-10.3a17.5,17.5,0,0,1,1.42-5.36c.32-.78,1.28-3.08,2.29-3.14,1.82-.09-.61,7.22-.73,8.08a18.42,18.42,0,0,0,1.36,9.34c0,.24,0,.49,0,.73a20.5,20.5,0,0,1-1.72-6.51c-.26-3.13.79-5.73,1.36-8.73.12-.65.63-2.71-.49-2.54-.73.11-1.69,2.35-1.89,2.84a17.51,17.51,0,0,0-1.35,5.08c-.38,4,2.07,7.25,4.18,10.44A.16.16,0,0,1,408.85,407.75Z" style="fill:#fff"></path><path d="M407.75,411.21l-.47.21h0a.11.11,0,0,1-.11,0,.19.19,0,0,1-.07-.24.15.15,0,0,1,.09-.06l.07,0,.14-.05v0l0,0c1.87-2.28,4.11-4.26,6-6.58s3.37-4.56,5.31-6.63c1.22-1.31,7.65-7.44,9-3.65.6,1.68-.73,4.09-1.56,5.49a18.1,18.1,0,0,1-4.3,4.85C417.67,407.84,412.56,409.09,407.75,411.21Z" style="fill:#ECEFF1"></path><path d="M417.37,405.82a20.78,20.78,0,0,0,4.48-4c.45-.54,2.59-3.11,1.88-4-.45-.55-1.66.17-2.07.39-1.73.95-3,2.63-4.31,4.05a80.62,80.62,0,0,1-8.71,8l-.67.35-.55.3-.19.11-.15.08a.18.18,0,0,0,.07.23l.43-.22-.32.24h0l.38-.17.08,0,.53-.39A88.18,88.18,0,0,0,417.37,405.82Zm-8,4.13c1.81-1.44,3.54-3,5.21-4.57,1.35-1.29,2.62-2.64,3.87-4a19.74,19.74,0,0,1,2.25-2.23c.63-.49,3.1-2.13,2.51.18-.45,1.68-2.6,3.56-3.85,4.62a29.76,29.76,0,0,1-4.5,3.11C413.09,408.08,411.23,409,409.39,410Z" style="fill:#fff"></path><path d="M399.49,420h0l-.11-.11c-2.14-3.32-5.51-7.37-5.31-11.56.15-3.1,1.85-7.25,4.92-8.52,3.47-1.42,2.8,5.13,2.7,6.8a119.32,119.32,0,0,1-2,13.34l0,.08v0C399.64,420.12,399.56,420.08,399.49,420Z" style="fill:#ECEFF1"></path><path d="M399.66,420.06c0-.27,0-.53-.05-.8-.19-3.06-.25-6.14-.15-9.2,0-.77.63-6.68-.9-6.4-.93.17-1.49,2.38-1.69,3.1a12,12,0,0,0-.42,4c.2,3.09,1.78,5.88,2.88,8.76.06.13.11.27.16.4a.27.27,0,0,0,0,.09h0C399.56,420.08,399.63,420.12,399.66,420.06Zm-2.73-7.65a12.32,12.32,0,0,1-.12-4.11c.12-.9.68-4.18,1.83-4.24.61,0,.54.35.66,1,.05.32.08.64.1,1,0,.79,0,1.58-.06,2.37-.08,1.39-.11,2.76-.12,4.15,0,2.27.07,4.54.22,6.8C398.65,417,397.42,414.83,396.93,412.41Z" style="fill:#fff"></path><path d="M410.3,421.12a23.35,23.35,0,0,1-13.54,1.41l-.08,0a.18.18,0,0,1-.05-.21.16.16,0,0,1,.19-.11l.28,0c4.74-2.6,9.49-5.13,14.18-7.82,1.1-.64,8.23-4.54,8.61-1.76.24,1.71-2.39,3.73-3.52,4.7A23.44,23.44,0,0,1,410.3,421.12Z" style="fill:#ECEFF1"></path><path d="M415.3,415.76c.28-.37.52-.83,0-1.06-1-.43-4.35,1.48-5.29,2-3.9,2-7.88,3.59-11.93,5.22l-1,.41h-.4a.17.17,0,0,0,.05.2l.11,0c.18,0,.36,0,.54,0h0a27.46,27.46,0,0,0,8.46-1.28,25.78,25.78,0,0,0,5-2.16C412.23,418.2,414.27,417.11,415.3,415.76Zm-17.74,6.52h-.26l.43-.15a78,78,0,0,0,9.41-3.79c1.54-.75,3-1.6,4.59-2.3.66-.3,2.51-1.2,3.12-.91s0,.73-.37,1.05-.73.57-1,.76A27.26,27.26,0,0,1,397.56,422.28Z" style="fill:#fff"></path><path d="M387.76,429.81l-.47-.64,1.67-1.25c2.22-1.71,4.42-3.44,6.6-5.21,1.24-1,2.46-2,3.64-3.09l.13-.1a3.45,3.45,0,0,1,.28-.26l.31-.29a33.74,33.74,0,0,0,6.78-8.22c.59-1,1.13-2.11,1.65-3.19l.15-.31a.79.79,0,0,0,0-.09l.15-.32a2.72,2.72,0,0,0,.11-.25c1.54-3.35,2.82-6.84,4.17-10.25.38-1,.77-2,1.17-2.93l.07-.18.09-.21c1.73-4.32,3.52-8.61,5.13-13,.06-.16.3-.05.24.11-1.05,2.91-2,5.84-3.05,8.78l-.4,1.17c-.26.77-.53,1.54-.8,2.31-.54,1.54-1.08,3.07-1.66,4.6a114.3,114.3,0,0,1-5.29,12.76c-.16.3-.33.6-.5.9s-.2.38-.31.56l-.37.65a36.39,36.39,0,0,1-8.54,9.41l-.7.57-.32.26-.17.14a1.74,1.74,0,0,0-.22.18h0l-.17.13-.6.48q-3.31,2.6-6.68,5.11C389.17,428.71,388.46,429.26,387.76,429.81Z" style="fill:#ECEFF1"></path><path d="M415.21,381.05c1.1-3.45,4.35-9.2,8.73-8.44a3.4,3.4,0,0,1,2.91,3.47c0,2.08-1.43,4-2.66,5.59-3.27,4.15-6.91,8-9.89,12.35a4.42,4.42,0,0,1-.32.47c-.06.09-.19,0-.13-.11l.29-.43C414.16,389.7,413.91,385.14,415.21,381.05Z" style="fill:#ECEFF1"></path><path d="M414.31,394.05a1,1,0,0,1,0-.1,37.66,37.66,0,0,1,1.87-3.83,72.43,72.43,0,0,1,4.94-7.38c.69-.92,4.11-5.3,1.27-5.6-1.19-.13-2.41.89-3.23,1.63a13.47,13.47,0,0,0-3.09,4.27,24.34,24.34,0,0,0-1.9,10.19c0,.17,0,.32,0,.48l-.06.14,0,.1a.06.06,0,0,0,0,.06.11.11,0,0,0,.15.09S414.3,394.08,414.31,394.05Zm0-1a28.13,28.13,0,0,1,1.4-8.5,15,15,0,0,1,2.12-4,11.79,11.79,0,0,1,1.34-1.49,8.17,8.17,0,0,1,1.17-.94c.91-.62,2.14-.95,2.62-.49s.36,1.06-.08,2a8.54,8.54,0,0,1-.51.94,26.18,26.18,0,0,1-1.52,2.21c-.89,1.19-1.76,2.38-2.6,3.6-.56.83-1.11,1.67-1.62,2.54a37,37,0,0,0-2.35,4.61Z" style="fill:#fff"></path><path d="M82.53,402.24c2.13,2,4.13,4.07,6.1,6.19,1.12,1.21,2.23,2.43,3.35,3.63s2.41,2.81,4.14,3.46h0a2.14,2.14,0,0,1,.22.13s0,0,0,0a.22.22,0,0,1-.27.26l-.12,0h0a7.26,7.26,0,0,1-1.58-.36,38.6,38.6,0,0,1-4.22-1.26,35.53,35.53,0,0,1-8-4,30.29,30.29,0,0,1-6-5.33c-1.4-1.63-3.51-4-3.91-6.24-.35-2,2.22-1.6,3.41-1.25C78.27,398.24,80.51,400.38,82.53,402.24Z" style="fill:#ECEFF1"></path><path d="M76.06,400.78c-.61.86,1.7,3.45,2.68,4.6A29.21,29.21,0,0,0,84,410.22a37.91,37.91,0,0,0,11.47,5.53l.5.15h0l.11,0a.22.22,0,0,0,.27-.27c-.33-.15-.64-.31-1-.48s-.56-.31-.83-.48a50.29,50.29,0,0,1-8.08-6.56C83.53,405.4,76.87,399.65,76.06,400.78Zm19,14.48c.41.23.83.44,1.25.64l-1-.33a41.92,41.92,0,0,1-10.16-4.83,29.55,29.55,0,0,1-4.88-4.06A30.2,30.2,0,0,1,78,404.1c-.28-.39-2.14-2.66-1.65-3.1s2.48,1.08,2.53,1.11c.43.27.85.57,1.27.88.85.62,1.66,1.3,2.47,2,1.74,1.49,3.4,3.08,5.09,4.62A39.26,39.26,0,0,0,95,415.26Z" style="fill:#fff"></path><path d="M98.61,393.41c1.94,3.76,2.39,8.07,2.45,12.24,0,2.23,0,4.46-.07,6.69a30,30,0,0,0,.21,6l.06.26a7.16,7.16,0,0,0,.53,1.58.11.11,0,0,1,0,.11.78.78,0,0,1,.1.15s0,.08,0,0l-.14-.13h0a.14.14,0,0,1-.13-.07l0-.07-.13-.12c-3.26-3-5.09-8.09-6.33-12.17a23.39,23.39,0,0,1-.73-12.6c.27-1.05.73-3.53,2-3.89S98.2,392.61,98.61,393.41Z" style="fill:#ECEFF1"></path><path d="M96.9,395.85c-1.28.21-1,3.72-1,4.57a44.61,44.61,0,0,0,1.16,7.7,40.22,40.22,0,0,0,4.25,11.78h0s0,.09,0,.14l.14.14,0,.06a.11.11,0,0,0,.13.07,1.46,1.46,0,0,1-.05-.2c-.14-.51-.26-1-.37-1.55l-.06-.26a87.05,87.05,0,0,1-1.14-11.07,41.21,41.21,0,0,0-1.16-7.66C98.73,398.94,98,395.67,96.9,395.85ZM98,397.7c1.75,4.05,1.7,8.85,2,13.17a45.61,45.61,0,0,0,1.21,8.67,42.79,42.79,0,0,1-3.71-10.75,57.83,57.83,0,0,1-1.16-6.39,24.36,24.36,0,0,1-.19-3.52,9.45,9.45,0,0,1,.27-2.1C96.89,395.53,97.74,397,98,397.7Z" style="fill:#fff"></path><path d="M108.72,425.86a.22.22,0,0,1,0,.22h.09a.07.07,0,0,1,.07.06.08.08,0,0,1-.06.08c-5,.79-10.6,1-15.54-.33a19.84,19.84,0,0,1-5.88-2.64c-1.23-.83-3.7-2.5-3.84-4.15-.28-3.33,8.55.12,9.88.65,2.42.95,4.75,2.11,7.15,3.11,2.64,1.1,5.34,2,8,2.91A.16.16,0,0,1,108.72,425.86Z" style="fill:#ECEFF1"></path><path d="M108.72,425.86l-.81-.09a43.09,43.09,0,0,1-12.72-3.45A39.47,39.47,0,0,0,89,420c-.53-.13-2.5-.75-2.18.51.16.65,3.39,2.52,4.27,2.93a26.69,26.69,0,0,0,6.34,2,44.47,44.47,0,0,0,11.11.77h.33s0-.07-.07-.07h-.08A.25.25,0,0,0,108.72,425.86Zm-9.44-.39a32.26,32.26,0,0,1-6.41-1.57,22.25,22.25,0,0,1-2.4-1.07,14.22,14.22,0,0,1-1.77-1.05c-1.36-1-1.64-1.35-1.52-1.61s.36-.25,1.46-.07a10.76,10.76,0,0,1,2.08.6c1,.36,1.9.76,2.84,1.17,1.88.81,3.75,1.65,5.69,2.31a33.21,33.21,0,0,0,8.59,1.8A52.27,52.27,0,0,1,99.28,425.47Z" style="fill:#fff"></path><path d="M108.19,411.44a12.63,12.63,0,0,1,2.6,4.72c1.14,3.42,1.55,7,2.45,10.52.13.52.28,1,.44,1.55,0,.06.36.63.32.6l-.45-.47h0c-1.36-1.43-5.4-5.82-7-8.79a25.86,25.86,0,0,1-2.33-5.81c-.22-1-.63-3.15.33-3.89S107.54,410.75,108.19,411.44Z" style="fill:#ECEFF1"></path><path d="M106.14,412.28c-1.35.56,1.43,6.47,1.78,7.24a36.57,36.57,0,0,0,5,8c.22.28.45.55.68.82l.45.47s-.3-.54-.32-.6-.05-.18-.08-.27c-.13-.43-.25-.86-.36-1.28-.88-2.33-1.72-4.68-2.66-7a32.87,32.87,0,0,0-2.35-4.85C108,414.48,106.72,412,106.14,412.28Zm1.1,1.22c3,4.31,4.1,9.51,6.08,14.3a2.29,2.29,0,0,0,.1.23l-.25-.32a41.13,41.13,0,0,1-4.2-6.57,37.64,37.64,0,0,1-1.89-4.37,18,18,0,0,1-.84-2.47c-.08-.37-.26-1.4,0-1.52S107,413.22,107.24,413.5Z" style="fill:#fff"></path><path d="M82.14,377.54c4.73,7.9,2.32,18,6.52,26.17l0,.05c.13.24.26.49.4.73a.18.18,0,0,1-.13.26.14.14,0,0,1-.12-.07l-.1-.18a43.92,43.92,0,0,1-9-12.8c-1.94-4-3.22-8.45-2.56-12.91.16-1.09.41-3.28,1.74-3.7S81.56,376.56,82.14,377.54Z" style="fill:#ECEFF1"></path><path d="M80.51,380.44c-.55.18-.62,1-.69,1.45a14.15,14.15,0,0,0-.07,3.38A23.22,23.22,0,0,0,81.47,392a48,48,0,0,0,5.59,10.45c.53.72,1.08,1.42,1.67,2.09a2.62,2.62,0,0,1,.22.25.18.18,0,0,0,.13-.26c-.14-.23-.26-.46-.39-.71l0-.06a28.5,28.5,0,0,1-2.39-4.94,66.8,66.8,0,0,1-2.11-8.27C83.91,389.42,82.42,379.81,80.51,380.44Zm1.25,1.62a32.49,32.49,0,0,1,1.77,6.62c.5,2.23,1,4.47,1.5,6.69a32.06,32.06,0,0,0,1.71,5.18,25.13,25.13,0,0,0,2.13,4,34.27,34.27,0,0,1-2.6-3.63s0,0,0-.05a63,63,0,0,1-3.71-7l0-.09a29.17,29.17,0,0,1-2.26-6.61,16.64,16.64,0,0,1-.31-3.79c.06-1.44.27-2.59.76-2.61C81,380.73,81.48,381.44,81.76,382.06Z" style="fill:#fff"></path><path d="M82.73,393.74c1.29,2.28,2.64,4.55,4,6.81.63,1.06,1.27,2.12,1.91,3.17l0,.06.69,1.15a75.43,75.43,0,0,0,6.79,10.15,33.56,33.56,0,0,0,4.65,4.41c.17.14.34.28.52.41h0l.29.21.16.13c1.47,1.13,3,2.19,4.49,3.21,2.07,1.43,4.23,2.71,6.4,4l.19.11.3.17.15.09.28.16,2.09,1.23-.45.62a50.55,50.55,0,0,1-6.59-3.56l-.13-.09c-.21-.12-.41-.26-.61-.39l-.76-.49-1.78-1.2a53.24,53.24,0,0,1-9.62-8l-.22-.26a.52.52,0,0,1-.1-.11l-.16-.18-.25-.31c-.15-.18-.3-.36-.44-.55l-.13-.16a81.31,81.31,0,0,1-5.87-9.42c-.33-.58-.66-1.16-1-1.75l-.54-1-.79-1.49s0,0,0-.05c-1.25-2.34-2.45-4.7-3.71-7C82.49,393.73,82.67,393.63,82.73,393.74Z" style="fill:#ECEFF1"></path></g><g id="freepik--Floor--inject-1035"><polygon points="32.94 429.54 87.2 429.29 141.47 429.2 250 429.04 358.53 429.2 412.8 429.29 467.06 429.54 412.8 429.78 358.53 429.87 250 430.03 141.47 429.87 87.2 429.78 32.94 429.54" style="fill:#263238"></polygon></g><g id="freepik--Base--inject-1035"><rect x="208.48" y="422.66" width="83.03" height="6.3" style="fill:#c7c7c7"></rect></g><g id="freepik--Lines--inject-1035"><path d="M391,105.9a101.15,101.15,0,0,1,13.06,6.8,51.71,51.71,0,0,1,11.4,9.35,21.31,21.31,0,0,1,3.88,6.3,12,12,0,0,1,.47,7.36,15.53,15.53,0,0,1-3.67,6.38,32.27,32.27,0,0,1-5.67,4.7,32.15,32.15,0,0,0,5.48-4.86,15.15,15.15,0,0,0,3.48-6.32,11.9,11.9,0,0,0-.51-7.1,20.75,20.75,0,0,0-3.84-6.13A52.36,52.36,0,0,0,403.85,113,119.08,119.08,0,0,0,391,105.9Z" style="fill:#263238"></path><path d="M397.12,115.1a54.54,54.54,0,0,1,9.31,5.15,34.7,34.7,0,0,1,7.78,7.28,17.68,17.68,0,0,1,2.55,4.72,10.81,10.81,0,0,1,.43,5.35,11.18,11.18,0,0,1-2.34,4.8,19.37,19.37,0,0,1-4,3.54,19.44,19.44,0,0,0,3.78-3.69,10,10,0,0,0,1.67-9.85,16.88,16.88,0,0,0-2.52-4.57,35.45,35.45,0,0,0-7.6-7.27A64.2,64.2,0,0,0,397.12,115.1Z" style="fill:#263238"></path></g><g id="freepik--Ball--inject-1035"><path d="M371.05,103.89a10,10,0,1,0,11-9A10,10,0,0,0,371.05,103.89Z" style="fill:#ebebeb"></path><path d="M371.32,107.38A10,10,0,1,0,379.53,95a8.17,8.17,0,0,1,1.56,0,9.35,9.35,0,1,1-9.77,12.36Z" style="fill:#dbdbdb"></path><path d="M371.92,100.7a3.83,3.83,0,0,0,1.14,1.46,4.81,4.81,0,0,0,2.4.93c1.69.17,3.68-.5,5.92-2a7.72,7.72,0,0,1,6-1.43,5.58,5.58,0,0,1,3.08,1.94,10.77,10.77,0,0,0-.78-1.73,0,0,0,0,0,0,0,6.37,6.37,0,0,0-2.13-.93,8.45,8.45,0,0,0-6.6,1.54c-3.09,2.11-5.61,2.49-7.44,1.12a3.31,3.31,0,0,1-1.12-1.75A9.42,9.42,0,0,0,371.92,100.7Z" style="fill:#ECEFF1"></path><path d="M372.23,109.69a10.1,10.1,0,0,0,.59,1,7.45,7.45,0,0,1,1.75,1c.28.19.57.44.89.71a12.27,12.27,0,0,0,4.16,2.52l.4.05a9.62,9.62,0,0,0,2.74-.11,11.42,11.42,0,0,1-6.82-3A11.4,11.4,0,0,0,375,111,7,7,0,0,0,372.23,109.69Z" style="fill:#ECEFF1"></path></g><g id="freepik--Character--inject-1035"><path d="M285.27,374.14s20.3,33,20.3,33c.25,8.22.61,15.43,1.14,19.14a.13.13,0,0,0,0,.06,5.85,5.85,0,0,0,.68,2.52l.05.05c2.5,1.58,68.26,1.55,70.55.77s.27-7.37-2.28-9.4S348,407,348,407l-16.64-32.95Z" style="fill:#ECEFF1"></path><path d="M378,429.69c-2.29.78-68.05.82-70.55-.77-1-.59-1.52-10.17-1.87-21.77,0-.12,0-.24,0-.36l42.42-.5,0,.72s25.18,11.24,27.75,13.28S380.3,428.93,378,429.69Z" style="fill:#37474f"></path><path d="M377.26,427.14c-11.09-.26-55.82-.29-66.8.29-.08,0-.08.07,0,.07,11,.51,55.7.17,66.79-.17C377.49,427.32,377.49,427.15,377.26,427.14Z" style="fill:#263238"></path><path d="M351.54,407.14c-4.36-.81-9.7-.14-13,3-.13.12,0,.3.19.26a60.91,60.91,0,0,1,12.82-2.68A.28.28,0,0,0,351.54,407.14Z" style="fill:#263238"></path><path d="M354.69,409c-4.37-.81-9.7-.14-13,3-.13.12,0,.31.18.26a61.77,61.77,0,0,1,12.83-2.68A.28.28,0,0,0,354.69,409Z" style="fill:#263238"></path><path d="M357.84,410.93c-4.37-.81-9.7-.14-13,3-.13.12,0,.3.18.26a61,61,0,0,1,12.83-2.68A.28.28,0,0,0,357.84,410.93Z" style="fill:#263238"></path><path d="M361.34,412.7c-4.37-.81-9.7-.13-13,3-.13.13,0,.31.19.26a60.89,60.89,0,0,1,12.82-2.67A.28.28,0,0,0,361.34,412.7Z" style="fill:#263238"></path><path d="M371.13,417.57a11.25,11.25,0,0,0-8.4,2.14,9.61,9.61,0,0,0-3.8,6.39c0,.07.14.09.16,0,1.35-4.85,6.65-8.63,12-8.39A.08.08,0,0,0,371.13,417.57Z" style="fill:#263238"></path><path d="M316.9,415.55c-3.13-3.81-9.07,1-5.93,4.87S320,419.38,316.9,415.55Z" style="fill:#263238"></path><path d="M290.09,376.31c1.64,2.28,3.18,4.62,4.71,7s3,4.73,4.47,7.12,2.9,4.8,4.28,7.24l2.07,3.66c.66,1.24,1.35,2.46,2,3.72-.82-1.14-1.6-2.31-2.4-3.47L302.9,398c-1.54-2.35-3-4.73-4.48-7.12s-2.9-4.8-4.28-7.24S291.38,378.81,290.09,376.31Z" style="opacity:0.1"></path><path d="M293.58,376.31c1.63,2.28,3.18,4.62,4.7,7s3,4.73,4.48,7.12,2.9,4.8,4.28,7.24l2.07,3.66c.66,1.24,1.34,2.46,2,3.72-.83-1.14-1.6-2.31-2.4-3.47L306.38,398c-1.54-2.35-3-4.73-4.47-7.12s-2.9-4.8-4.28-7.24S294.86,378.81,293.58,376.31Z" style="opacity:0.1"></path><path d="M297.06,376.31c1.64,2.28,3.18,4.62,4.71,7s3,4.73,4.47,7.12,2.9,4.8,4.28,7.24l2.07,3.66c.66,1.24,1.35,2.46,2,3.72-.82-1.14-1.6-2.31-2.4-3.47l-2.3-3.51c-1.54-2.35-3-4.73-4.48-7.12s-2.9-4.8-4.28-7.24S298.35,378.81,297.06,376.31Z" style="opacity:0.1"></path><path d="M300.55,376.31c1.63,2.28,3.17,4.62,4.7,7s3,4.73,4.48,7.12,2.9,4.8,4.28,7.24l2.07,3.66c.66,1.24,1.34,2.46,2,3.72-.83-1.14-1.6-2.31-2.4-3.47L313.35,398c-1.54-2.35-3-4.73-4.47-7.12s-2.9-4.8-4.28-7.24S301.83,378.81,300.55,376.31Z" style="opacity:0.1"></path><path d="M304,376.31c1.64,2.28,3.18,4.62,4.71,7s3,4.73,4.47,7.12,2.9,4.8,4.28,7.24l2.07,3.66c.66,1.24,1.35,2.46,2,3.72-.83-1.14-1.6-2.31-2.4-3.47l-2.3-3.51c-1.54-2.35-3-4.73-4.48-7.12s-2.9-4.8-4.28-7.24S305.32,378.81,304,376.31Z" style="opacity:0.1"></path><path d="M307.52,376.31c1.63,2.28,3.17,4.62,4.7,7s3,4.73,4.48,7.12,2.9,4.8,4.28,7.24l2.07,3.66c.66,1.24,1.34,2.46,2,3.72-.83-1.14-1.6-2.31-2.4-3.47L320.32,398c-1.54-2.35-3-4.73-4.47-7.12s-2.9-4.8-4.28-7.24S308.8,378.81,307.52,376.31Z" style="opacity:0.1"></path><path d="M311,376.31c1.57,2.29,3.05,4.63,4.51,7s2.87,4.73,4.27,7.12,2.76,4.8,4.07,7.24l2,3.65c.62,1.24,1.27,2.46,1.87,3.72-.79-1.14-1.53-2.32-2.3-3.47l-2.2-3.52c-1.47-2.35-2.87-4.73-4.28-7.12s-2.75-4.8-4.07-7.23S312.22,378.8,311,376.31Z" style="opacity:0.1"></path><path d="M314.49,376.31c1.51,2.29,2.93,4.63,4.33,7s2.75,4.73,4.1,7.12,2.64,4.79,3.89,7.23l1.88,3.66c.59,1.23,1.21,2.45,1.78,3.71-.76-1.15-1.47-2.32-2.21-3.47L326.14,398c-1.41-2.35-2.76-4.74-4.1-7.13s-2.64-4.79-3.89-7.23S315.64,378.8,314.49,376.31Z" style="opacity:0.1"></path><path d="M318,376.31c1.48,2.29,2.86,4.64,4.23,7s2.69,4.74,4,7.12,2.57,4.8,3.79,7.23l1.83,3.66c.57,1.24,1.18,2.46,1.73,3.71-.75-1.15-1.44-2.32-2.16-3.48L329.32,398c-1.38-2.35-2.69-4.73-4-7.12s-2.57-4.8-3.79-7.23S319.09,378.8,318,376.31Z" style="opacity:0.1"></path><path d="M321.46,376.31c1.48,2.29,2.86,4.64,4.23,7s2.68,4.74,4,7.12,2.58,4.8,3.8,7.23l1.82,3.66c.58,1.24,1.18,2.46,1.73,3.71-.75-1.15-1.44-2.32-2.16-3.48L332.8,398c-1.38-2.35-2.69-4.73-4-7.12s-2.58-4.8-3.8-7.23S322.57,378.8,321.46,376.31Z" style="opacity:0.1"></path><path d="M324.94,376.31c1.48,2.29,2.86,4.64,4.23,7s2.69,4.74,4,7.12,2.57,4.8,3.79,7.23l1.83,3.66c.57,1.24,1.18,2.46,1.73,3.71-.75-1.15-1.44-2.32-2.17-3.48L336.29,398c-1.38-2.35-2.69-4.73-4-7.12s-2.57-4.8-3.79-7.23S326.06,378.8,324.94,376.31Z" style="opacity:0.1"></path><path d="M328.43,376.31c1.48,2.29,2.86,4.64,4.23,7s2.68,4.74,4,7.12,2.58,4.8,3.8,7.23l1.82,3.66c.58,1.24,1.18,2.46,1.73,3.71-.75-1.15-1.44-2.32-2.16-3.48L339.77,398c-1.38-2.35-2.69-4.73-4-7.12s-2.58-4.8-3.8-7.23S329.54,378.8,328.43,376.31Z" style="opacity:0.1"></path><path d="M228.21,198.61s-.51,8.93-.21,11.43c.19,1.57,45.51,47.65,54.93,64.9,5.22,9.54,34.73,66.6,45.89,88.73,3.07,6.11,2.51,10.39,2.51,10.39l-46.06.08s-6.66-3.48-9.66-8.25c-11.42-18.15-35-67.17-37.38-73.17-3.61-9.11-65.92-46-69-78.26a57.8,57.8,0,0,1,.39-15.85Z" style="fill:#c7c7c7"></path><path d="M232,286c-16.6-14.56-60.25-44.64-62.86-71.51a57.8,57.8,0,0,1,.39-15.85h55C226,214.69,230.26,260.88,232,286Z" style="fill:#a6a6a6"></path><path d="M296.31,374.12h-3.08c-3.5-3.06-8.32-7.64-10.62-11.49-1.42-2.38-38.91-75.94-40.78-78.3-.88-1.12-6.24-5.78-13-11.67-16.7-14.54-41.92-36.5-48-46.33-5.15-8.28-6.12-19.61-6-27.73h2c-.09,7.9.82,18.87,5.67,26.67,6,9.58,32.06,32.3,47.65,45.88,8.06,7,12.31,10.73,13.27,11.94,2,2.5,39.53,76.17,40.93,78.51C286.89,365.87,293,371.32,296.31,374.12Z" style="fill:#ECEFF1"></path><path d="M135.78,429.28c-1,0-18,.83-19.41-.47-14.74-13.21-35.47-47.89-35.89-49.63-.28-1.1,15.31-13.93,15.39-14,1.61-1.77,25.06-19.61,25.06-19.61L149.13,378l-22.36,16.33-.52.51a109.65,109.65,0,0,0,4.32,18.8c.42,1.25,5.9,6.62,6.26,7.65C138.05,424.74,137.1,429.28,135.78,429.28Z" style="fill:#ECEFF1"></path><g style="opacity:0.1"><path d="M101.43,364.25c2.92-2.76,6-5.28,9.18-7.74s6.39-4.81,9.79-6.94c-2.92,2.76-6,5.27-9.18,7.73S104.83,362.11,101.43,364.25Z"></path><path d="M103.53,366.71c2.92-2.76,6-5.28,9.18-7.74s6.39-4.81,9.79-6.94c-2.92,2.76-6,5.28-9.18,7.73S106.93,364.57,103.53,366.71Z"></path><path d="M105.63,369.17c2.92-2.76,6-5.28,9.18-7.74s6.39-4.81,9.79-6.94c-2.92,2.76-6,5.28-9.18,7.74S109,367,105.63,369.17Z"></path><path d="M107.73,371.63c2.92-2.76,6-5.27,9.18-7.73s6.39-4.82,9.8-6.95c-2.92,2.76-6,5.28-9.19,7.74S111.14,369.5,107.73,371.63Z"></path><path d="M109.83,374.09c2.92-2.75,6-5.27,9.18-7.73s6.39-4.82,9.8-6.95c-2.92,2.76-6,5.28-9.18,7.74S113.24,372,109.83,374.09Z"></path><path d="M111.93,376.55c2.93-2.75,6-5.27,9.18-7.73s6.39-4.81,9.8-6.95c-2.92,2.76-6,5.28-9.18,7.74S115.34,374.42,111.93,376.55Z"></path><path d="M114,379c2.93-2.76,6-5.28,9.19-7.74s6.38-4.81,9.79-6.95c-2.92,2.76-6,5.28-9.18,7.74S117.44,376.88,114,379Z"></path><path d="M116.14,381.48c2.92-2.76,6-5.28,9.18-7.74s6.38-4.81,9.79-6.95c-2.92,2.76-6,5.28-9.18,7.74S119.54,379.34,116.14,381.48Z"></path><path d="M118.24,383.94c2.92-2.76,6-5.28,9.18-7.74s6.39-4.81,9.79-6.95c-2.92,2.76-6,5.28-9.18,7.74S121.64,381.8,118.24,383.94Z"></path><path d="M120.34,386.4c2.92-2.76,6-5.28,9.18-7.74s6.39-4.81,9.79-7c-2.92,2.76-6,5.28-9.18,7.74S123.74,384.26,120.34,386.4Z"></path><path d="M122.44,388.86c2.92-2.76,6-5.28,9.18-7.74s6.39-4.81,9.79-6.94c-2.92,2.76-6,5.27-9.18,7.73S125.84,386.72,122.44,388.86Z"></path><path d="M124.54,391.32c2.92-2.76,6-5.28,9.18-7.74s6.39-4.81,9.79-6.94c-2.92,2.76-6,5.27-9.18,7.73S127.94,389.18,124.54,391.32Z"></path></g><path d="M136.44,429.54c-.55.37-19.25.52-20.49-.6-11.8-10.65-36.25-48-36.51-50.16-.14-1.11,8.22-8.67,17.45-15l29.61,31.17s1.82,12.23,4.2,18.78c.54,1.49,5.91,6.4,6.4,7.49C138.6,424.52,137.23,429,136.44,429.54Z" style="fill:#37474f"></path><path d="M135,419.76a11.27,11.27,0,0,0-8.53-1.56,9.62,9.62,0,0,0-6.11,4.23c0,.06.09.14.14.08,3.24-3.85,9.63-5.07,14.42-2.61A.08.08,0,1,0,135,419.76Z" style="fill:#263238"></path><path d="M95.6,375.64c-3.13-3.81-9.07,1-5.94,4.87S98.73,379.47,95.6,375.64Z" style="fill:#263238"></path><path d="M128.24,399.92c-2.61-3.54-6.94-6.66-11.46-6.66-.17,0-.17.25,0,.32a60.46,60.46,0,0,1,11.11,6.73A.28.28,0,0,0,128.24,399.92Z" style="fill:#263238"></path><path d="M129.24,403.43c-2.61-3.54-6.94-6.66-11.46-6.66-.17,0-.17.25,0,.31a60.92,60.92,0,0,1,11.12,6.74A.28.28,0,0,0,129.24,403.43Z" style="fill:#263238"></path><path d="M130.24,406.94c-2.61-3.54-6.94-6.67-11.46-6.67-.17,0-.17.25,0,.32a60.87,60.87,0,0,1,11.12,6.73A.27.27,0,0,0,130.24,406.94Z" style="fill:#263238"></path><path d="M131.24,410.44c-2.61-3.54-6.93-6.66-11.45-6.66-.18,0-.18.25,0,.31a60.84,60.84,0,0,1,11.11,6.74A.28.28,0,0,0,131.24,410.44Z" style="fill:#263238"></path><path d="M136.59,427c-5.13-.68-10.38-.57-15.53-1.08l-1.81-.17a2.69,2.69,0,0,1-1.81-.55,28.65,28.65,0,0,1-2.3-2.94c-1.55-2-3.08-4-4.61-6.05-6.17-8.1-12.2-16.3-18.18-24.55q-2.53-3.48-5.08-7c-1.7-2.33-3.54-4.54-5.25-6.87a.08.08,0,0,0-.13.09c1.43,2.18,2.72,4.46,4.2,6.62s3,4.33,4.46,6.46q4.5,6.36,9.13,12.64T109,416.08c1.59,2.09,3.19,4.16,4.79,6.23.78,1,1.55,2,2.34,3a3.15,3.15,0,0,0,2.37,1.39c6,.57,12,.43,18,.73C136.79,427.44,136.84,427,136.59,427Z" style="fill:#263238"></path><path d="M120.93,345.55,149.13,378a17.07,17.07,0,0,0,7.73-2.66c18.21-12.6,73.17-54.54,74.93-71.3,1.61-15.23-4.5-55.34-9.18-81.4,0,0,4.39-1.28,4.43-2.27l1.17-21.75H169.57c-2,10.59-2.27,29.83-.72,35.89.93,3.64,5.15,7.65,5.15,7.65a189.48,189.48,0,0,1,6.47,50.62c.14,6.51-39.89,34.93-55,46.48A12.64,12.64,0,0,0,120.93,345.55Z" style="fill:#c7c7c7"></path><path d="M227,220.39a62,62,0,0,0-9.13,5.21.11.11,0,0,0,.11.19c3.08-1.64,6.23-3.22,9.22-5A.21.21,0,0,0,227,220.39Z" style="fill:#a6a6a6"></path><path d="M226.18,198.4c0-.11-.22-.12-.21,0a106.15,106.15,0,0,1,.36,10.73c0,1.66-.58,10.88-3.49,10.45-.49-.07-.77-.52-.91-1.23a11.75,11.75,0,0,1,.15-2.83c.16-1.93.25-3.86.25-5.8a51.92,51.92,0,0,0-1-10.77.09.09,0,0,0-.18,0,99.4,99.4,0,0,1,.37,14.94c-.16,2.4-1.06,6.07,1.45,6.23s3.69-6,3.86-7.61A54.92,54.92,0,0,0,226.18,198.4Z" style="fill:#a6a6a6"></path><path d="M222.93,219.82a16.64,16.64,0,0,0-.48,1.94,4.23,4.23,0,0,0-.14,1.58.11.11,0,0,0,.2,0,5.55,5.55,0,0,0,.54-1.56c.17-.6.35-1.2.5-1.81A.32.32,0,0,0,222.93,219.82Z" style="fill:#a6a6a6"></path><path d="M181.75,218.06c1.21-.39,2.52-.58,3.77-.86,1-.23,2-.47,3-.76a13.19,13.19,0,0,0,5.21-2.6c1.65-1.47,2.4-3.58,3.12-5.61.42-1.21.86-2.41,1.31-3.61.22-.58.43-1.16.66-1.74a19.52,19.52,0,0,0,.82-2.08c0-.11.19-.06.16,0a14.65,14.65,0,0,0-.34,1.49c-.13.57-.26,1.15-.4,1.73-.24,1-.48,2.06-.75,3.08a24,24,0,0,1-1.8,5.44c-1.67,3.09-4.91,4.49-8.21,5.13-.94.18-1.9.31-2.85.43a21,21,0,0,1-3.63.26A.17.17,0,0,1,181.75,218.06Z" style="fill:#a6a6a6"></path><path d="M187.94,297.17c-2.25,7.62-45.32,40.07-62.93,53.09l-1.32-1.52C145.06,332.92,184.14,303,186,296.6c2.44-8.26-5.51-52.06-6.3-56.39a20.61,20.61,0,0,1-6-10.8c-1.07-5.39.66-23.28,1.45-30.76h2c-.78,7.26-2.53,25.26-1.51,30.37a18.68,18.68,0,0,0,5.65,9.9l.27.23.07.36C182,241.49,190.64,288.07,187.94,297.17Z" style="fill:#ECEFF1"></path><path d="M214.73,134.81c16,15.36,38.33,32,44.46,36.06,4.1,2.72,24.38-10,21.35-12.42-7.94-6.36-53.38-31-62.3-35.72C207.56,117.07,205.52,126,214.73,134.81Z" style="fill:#eb9481"></path><path d="M259.19,170.87l21.35-12.42a13.39,13.39,0,0,1,2.71,2h0A47.12,47.12,0,0,0,296.81,163c5.52.07,13.72-.48,13.79,2.49.13,4.33-10.16,6.26-16.13,7,1.95,2.63,3.38,5.07,3.69,6.8,1,5.75-24,13.61-28.5,9.71C265.35,185.25,259.55,174.1,259.19,170.87Z" style="fill:#37474f"></path><path d="M293.8,177.31c-13.41,2.55-33.69,6-33.69,6L259,177.86s20.49-5,33.31-7.81c28.24-6.29,109.1-30.71,125.88-30.05,4.58.18,5,3.32,5.66,6.71s1.59,6.41-2.54,8.39C406.14,162.35,322.22,171.93,293.8,177.31Z" style="fill:#ECEFF1"></path><rect x="253.34" y="179.54" width="9.85" height="2.62" transform="translate(383.23 -108.62) rotate(78.35)" style="fill:#ECEFF1"></rect><path d="M421.29,155.11c-15.15,7.24-99.07,16.82-127.5,22.21-12.69,2.4-31.55,5.63-33.51,6,4.63-.9,103.82-20.18,118.4-22.07,16.11-2.09,36-5.71,40.59-10.11s3.79-6.64,2.18-10.08c1.59,1.22,1.92,3.39,2.39,5.69C424.54,150.1,425.43,153.13,421.29,155.11Z" style="opacity:0.1"></path><path d="M294.8,170.78c-3-.53-1.9,3.3-1.9,3.3S290,169,286.72,169.6s-1.69,5.2-1.59,5.53c-.15-.27-2.93-4.91-6.17-3.92s-1.1,5.37-.95,5.65c-.23-.21-3.27-2.92-5.56-1.61-3.93,2.26,3.66,9.4,3.62,13.07,0,0-6.23.64-6.41.7,0,0,7.08,6.94,12,6.72a3.18,3.18,0,0,0,3-2.58s2,2.49,4.61,1.8c1.32-.37,1.92-2.8,1.92-2.8a4,4,0,0,0,4,1.16c1.8-.61,2.12-3,2.12-3s2.5,1.09,4.14-.13C304.78,187.79,301.2,171.92,294.8,170.78Z" style="fill:#37474f"></path><path d="M297.43,190c0,.05.09.05.09,0a28.23,28.23,0,0,0-4.65-16.14c-.11-.15-.39,0-.31.14A57.87,57.87,0,0,1,297.43,190Z" style="fill:#263238"></path><path d="M291.3,192.23c0,.06.11.05.11,0a26.41,26.41,0,0,0-6.17-17.28c-.15-.17-.44-.17-.29,0C287.55,178.37,290.58,187,291.3,192.23Z" style="fill:#263238"></path><path d="M277.6,176.63c3.91,4.77,5.91,10.31,7.14,16.3,0,.08.12,0,.13,0,.19-3.1-1-6.83-2.15-9.66a16.28,16.28,0,0,0-5-6.76C277.67,176.42,277.51,176.52,277.6,176.63Z" style="fill:#263238"></path><path d="M292.94,174c-.13-.18-.25.2-.38,0-.55-.73-4.24-4.87-6-4.05-1.44.65-1.55,3.05-1.24,4l.8,2.35-1.57-1.94a10.07,10.07,0,0,0-2.44-2.21,3.68,3.68,0,0,0-2.91-.62,2.07,2.07,0,0,0-1.62,2.06,6.21,6.21,0,0,0,.89,3l1.43,2.58-2.18-2a10.29,10.29,0,0,0-2-1.39,3.93,3.93,0,0,0-2.22-.5,1.86,1.86,0,0,0-1.55,1.22,4.23,4.23,0,0,0,.19,2.31,31.76,31.76,0,0,0,2.14,4.64c.39.77.78,1.54,1.14,2.33a6.29,6.29,0,0,1,.7,2.49,6.64,6.64,0,0,0-.91-2.38c-.41-.75-.86-1.49-1.32-2.22a27.86,27.86,0,0,1-2.42-4.63,4.92,4.92,0,0,1-.32-2.77,2.66,2.66,0,0,1,2.22-1.89,5,5,0,0,1,2.77.55,10.6,10.6,0,0,1,2.25,1.52l-.75.62a7.3,7.3,0,0,1-1.09-3.57,3,3,0,0,1,.68-1.92,3.42,3.42,0,0,1,1.71-1.07,4.63,4.63,0,0,1,3.68.78,11.17,11.17,0,0,1,2.65,2.48l-.77.42c-.36-1.2-.53-3.89,1.58-5.2C289,167.76,292.39,173,292.94,174Z" style="fill:#263238"></path><path d="M292.9,174.08a6.2,6.2,0,0,1,.14-1.86,1.41,1.41,0,0,1,.95-1.07,2.85,2.85,0,0,1,1.61.2,18.71,18.71,0,0,1,1.77.75,4.6,4.6,0,0,0-1.49-1.35,2.78,2.78,0,0,0-2.13-.41,2,2,0,0,0-1,.69,2.24,2.24,0,0,0-.38,1.08A3.39,3.39,0,0,0,292.9,174.08Z" style="fill:#263238"></path><path d="M250.53,140.43c-1.74,3-6.76,11.79-9.62,16.85-8.4-6.63-18.09-14.71-26.18-22.46-9.21-8.84-7.17-17.75,3.51-12.09C222.79,125.15,236.81,132.72,250.53,140.43Z" style="fill:#ECEFF1"></path><path d="M231.37,151.57l10.42-17.63-2.18-1.08a22.92,22.92,0,0,0-4.11-3.68c-2.12-1.38-13.8-6.79-20.18-9.09s-13,.5-6,10.56a99.72,99.72,0,0,0,15.92,17.91,14.13,14.13,0,0,0,4.22,1.79Z" style="fill:#c7c7c7"></path><path d="M237.78,134.17a39.53,39.53,0,0,0-2.15,3.44c-.72,1.19-1.4,2.41-2.09,3.63s-3.26,6.17-3.91,7.4c0,.06.05.1.09.05.72-1.2,3.58-5.94,4.25-7.14s1.34-2.38,2-3.6,1.36-2.46,1.87-3.74C237.83,134.18,237.8,134.14,237.78,134.17Z" style="fill:#263238"></path><path d="M236.48,142.91l-5.1,8.66-1.92-1.23a14,14,0,0,1-4.22-1.78,99,99,0,0,1-15.91-17.91c-5.93-8.49-2.13-11.8,3-11.24C218.54,125.4,229.62,136.15,236.48,142.91Z" style="opacity:0.1"></path><path d="M170.17,194.81c.15.19,58.45,1.48,58.45,1.48a9.19,9.19,0,0,0,2.68-5.93c-.07-13.42-4-54.05-12.79-66.17-2.73-3.78-14.13-7.14-21.16.09C180,142.14,169.42,176.17,168.09,188A9.13,9.13,0,0,0,170.17,194.81Z" style="fill:#c7c7c7"></path><path d="M228.14,188.46a30.62,30.62,0,0,1-2.31,7.77l-2.16,0a30.53,30.53,0,0,0,2.49-8c.84-5.84-3.38-41.28-8.36-56.15-1.63-4.88-3-8.44-4.19-11a14,14,0,0,1,2.75,1.3c1,2.38,2.09,5.36,3.34,9.09C224.74,146.46,229,182.5,228.14,188.46Z" style="fill:#ECEFF1"></path><path d="M215.51,134.77c-3-.05-8.9-6.07-11-11-.15-.34.64-3.66,1.42-7.75.45-2.48.91-5.26,1.14-7.82l15.71,5.35a41.12,41.12,0,0,0-2.44,9.69,6.17,6.17,0,0,0,0,1.06s0,.11,0,.18C220.48,126.54,220.23,134.87,215.51,134.77Z" style="fill:#eb9481"></path><path d="M220.32,126.73c-6.68-1.43-11.19-6.55-14.18-12,.37-2.1.7-4.35.9-6.44l15.7,5.34a41.34,41.34,0,0,0-2.43,9.69,6.15,6.15,0,0,0,0,1.06c0,.06,0,.11,0,.18A16.58,16.58,0,0,1,220.32,126.73Z" style="fill:#263238"></path><path d="M205.41,92c-1.94,5.66.53,22.27,4.47,26.09,5.71,5.53,15.34,6.36,20.11-.57,4.63-6.71,1-28.3-3.39-31.8C220.08,80.61,208.27,83.69,205.41,92Z" style="fill:#eb9481"></path><path d="M220,102.18s-.08.07-.08.11c.17,1.12.18,2.43-.79,2.92,0,0,0,.08,0,.07C220.33,105,220.31,103.21,220,102.18Z" style="fill:#263238"></path><path d="M218.82,101.13c-1.82.08-1.53,3.72.16,3.64S220.35,101.06,218.82,101.13Z" style="fill:#263238"></path><path d="M226.62,101.42s.09,0,.09.09c.06,1.13.31,2.41,1.36,2.71a0,0,0,0,1,0,.06C226.8,104.2,226.49,102.5,226.62,101.42Z" style="fill:#263238"></path><path d="M227.53,100.16c1.8-.29,2.23,3.34.56,3.6S226,100.4,227.53,100.16Z" style="fill:#263238"></path><path d="M217.12,99.6a14,14,0,0,0,1.43.45,2.42,2.42,0,0,0,1.54.17.77.77,0,0,0,.46-.82,1.89,1.89,0,0,0-1.43-1.31,2.79,2.79,0,0,0-2,0A.82.82,0,0,0,217.12,99.6Z" style="fill:#263238"></path><path d="M229.54,98.4a11.84,11.84,0,0,1-1.44.41,2.43,2.43,0,0,1-1.55.13.76.76,0,0,1-.43-.84,1.92,1.92,0,0,1,1.46-1.27,2.84,2.84,0,0,1,2,.07A.82.82,0,0,1,229.54,98.4Z" style="fill:#263238"></path><path d="M219.76,112.73c.3.24.59.58,1,.58a2.87,2.87,0,0,0,1.19-.38,0,0,0,0,1,0,.06,1.53,1.53,0,0,1-1.38.72,1.18,1.18,0,0,1-1-.92A.06.06,0,0,1,219.76,112.73Z" style="fill:#263238"></path><path d="M220.68,109.26a3.83,3.83,0,0,0,2.7,1.5,4.92,4.92,0,0,0,1.38-.05,1.28,1.28,0,0,0,.27,0,1.2,1.2,0,0,0,.24-.06.29.29,0,0,0,.21-.27h0a.23.23,0,0,0,0-.12h0v-.1c0-.87-.23-2.18-.23-2.18.33.13,2,.73,1.94.28a58.42,58.42,0,0,0-2.42-11.5.11.11,0,0,0-.21,0c.37,3.61,1.36,7.13,1.79,10.75a6.85,6.85,0,0,0-1.86-.4c-.12,0,.41,2.53.4,2.92v0a5.32,5.32,0,0,1-4.07-.91C220.69,109.09,220.6,109.17,220.68,109.26Z" style="fill:#263238"></path><path d="M224.22,110.31a4.61,4.61,0,0,1-1.71,1.56,2.08,2.08,0,0,1-1.24.18c-.92-.16-1-1-.9-1.71a5,5,0,0,1,.32-1.11A5.91,5.91,0,0,0,224.22,110.31Z" style="fill:#263238"></path><path d="M222.51,111.87a2.08,2.08,0,0,1-1.24.18c-.92-.16-1-1-.9-1.71A2.13,2.13,0,0,1,222.51,111.87Z" style="fill:#ff99ba"></path><path d="M205.79,107.71c2.6-.38,3.52-5.48,3.27-10.12-.29-4.9,2.35-8.49,6-8.38s4.77,2.27,6.54,1.81,3.06-2.87,4.77-2.75,3.36,3.18,4.14,5.81c-1-4-2.11-8.37-3.58-9.54-6.52-5.15-19.27-2.5-22.13,5.85C203.68,93.55,204.62,101.83,205.79,107.71Z" style="fill:#263238"></path><path d="M209.76,104.39s-3.29-5.62-5.82-4.49-.34,9.08,2.41,10.36a2.9,2.9,0,0,0,4-1.24Z" style="fill:#eb9481"></path><path d="M204.62,102.16s-.05.06,0,.08c1.93,1,2.83,2.89,3.41,4.86a1.61,1.61,0,0,0-2.35-.63c-.06,0,0,.12,0,.12a1.78,1.78,0,0,1,1.91.77,8.2,8.2,0,0,1,.8,1.66c.08.18.41.11.36-.1v0C209,106.34,207.33,102.64,204.62,102.16Z" style="fill:#263238"></path><path d="M209.38,97.14s.24,9.15,0,10.81c-.36,2.86-2.51,5.82-3.49,5.17a20.45,20.45,0,0,1-7.79-13.47c-.51-5.48,2.21-18.57,17.13-20.25S232.81,95,232.81,95Z" style="fill:#ECEFF1"></path><g style="opacity:0.2"><path d="M209.38,97.14s.24,9.15,0,10.81c-.36,2.86-2.51,5.82-3.49,5.17a20.45,20.45,0,0,1-7.79-13.47c-.51-5.48,2.21-18.57,17.13-20.25S232.81,95,232.81,95Z"></path></g><path d="M209.38,97.14s6.23-6,8.52-6.86c2.46-1,23.52-2,24.56-.25S232.81,95,232.81,95Z" style="fill:#ECEFF1"></path><path d="M200.64,141.13c18.14,11.85,67.42,29.85,80.49,34,4.93,1.55,13.07-23.62,9.2-24.91-9.51-3.18-78.4-20.47-87.36-22C190.47,125.93,189.41,133.8,200.64,141.13Z" style="fill:#eb9481"></path><path d="M240,136.94l-6,20.47c-13.24-5.54-25.89-11.42-33.32-16.27-11.23-7.33-10.17-15.21,2.33-13C207,128.83,222.81,132.64,240,136.94Z" style="fill:#ECEFF1"></path><path d="M276.26,173.48l12.39-23.74s7.85.66,13.91,4.92a42.72,42.72,0,0,1,10.56,11.44c2.12,3.49,5,11.23,3.32,14a4.08,4.08,0,0,1-4.33,1.73,6,6,0,0,1-1.36,3.89c-1.66,1.86-5.31.07-5.31.07a7.46,7.46,0,0,1-2.09,3.87c-1.77,1.63-5.71.34-5.71.34a6.57,6.57,0,0,1-4,2.26c-4.18.49-7.48-4.29-10.18-7.36C280.32,181.26,276.26,173.48,276.26,173.48Z" style="fill:#455a64"></path><path d="M312.32,181.38c-1.37-4.26-3.92-7.88-6.26-11.64a.08.08,0,0,0-.13.09c2.37,3.71,4,7.84,6.19,11.64C312.18,181.57,312.35,181.49,312.32,181.38Z" style="fill:#263238"></path><path d="M305.65,185.46a11.72,11.72,0,0,0-1.56-2.61c-.62-.89-1.25-1.77-1.9-2.63q-1.94-2.61-4-5.11c-.06-.07-.19,0-.13.09q1.94,2.6,3.75,5.26c.61.89,1.21,1.79,1.8,2.69a13.65,13.65,0,0,0,1.79,2.47A.15.15,0,0,0,305.65,185.46Z" style="fill:#263238"></path><path d="M297.59,189.89a8.08,8.08,0,0,0-1.53-2.28c-.61-.78-1.21-1.56-1.8-2.35-1.2-1.57-2.39-3.14-3.52-4.74-.06-.08-.19,0-.13.08,1.14,1.64,2.27,3.3,3.43,4.93.57.8,1.14,1.6,1.72,2.39a7.44,7.44,0,0,0,1.75,2S297.6,189.93,297.59,189.89Z" style="fill:#263238"></path><path d="M248.91,163.43c2.39.7,4.74,1.54,7.07,2.41s4.64,1.82,6.9,2.88c-2.4-.7-4.74-1.54-7.08-2.41S251.17,164.49,248.91,163.43Z" style="fill:#263238"></path><path d="M224.24,153.68l5.43-19.74-2.39-.48a23,23,0,0,0-4.93-2.47c-2.4-.77-15.1-2.93-21.85-3.48s-12.45,3.89-3,11.77a100.38,100.38,0,0,0,20.05,13.11,14,14,0,0,0,4.54.61Z" style="fill:#c7c7c7"></path><path d="M225.86,135.21a40.33,40.33,0,0,0-1.18,3.88c-.37,1.34-.71,2.7-1.06,4s-1.53,6.81-1.83,8.18a.05.05,0,0,0,.1,0c.38-1.35,1.89-6.67,2.22-8s.68-2.66,1-4a41.34,41.34,0,0,0,.83-4.1S225.87,135.18,225.86,135.21Z" style="fill:#263238"></path><path d="M199.18,140.67q2.73,1.88,5.47,3.71c1.85,1.2,3.66,2.44,5.55,3.57s3.75,2.29,5.7,3.28a16.35,16.35,0,0,0,2.94,1.33,11.59,11.59,0,0,0,3.22.31h.05l2.14.79h0l.14-.4-.09.42v0h0l-2.2-.57h.06a10,10,0,0,1-3.36-.09,6.54,6.54,0,0,1-1.62-.53c-.51-.23-1-.46-1.51-.71a62.91,62.91,0,0,1-5.78-3.25c-1.86-1.19-3.72-2.4-5.48-3.74S200.83,142.14,199.18,140.67Z" style="fill:#263238"></path><path d="M200.47,142.75a15.32,15.32,0,0,1,1.8.71c.57.28,1.11.54,1.73.8a2.25,2.25,0,0,1-1,0,3.84,3.84,0,0,1-.94-.31A4.69,4.69,0,0,1,200.47,142.75Z" style="fill:#263238"></path><path d="M229.67,133.94c-.81-.1-1.61-.21-2.42-.34h0l0,0c-.92-.56-1.89-1.05-2.86-1.52a19.64,19.64,0,0,0-3-1.13c-2.09-.57-4.23-1-6.36-1.45a36.51,36.51,0,0,1,6.48,1,14.11,14.11,0,0,1,3.09,1.19,19.77,19.77,0,0,1,2.83,1.69l-.05,0C228.1,133.52,228.89,133.72,229.67,133.94Z" style="fill:#263238"></path><polygon points="170.17 194.81 169.41 199.53 228.08 201.18 228.62 196.29 170.17 194.81" style="fill:#263238"></polygon><rect x="178.43" y="194.81" width="1.83" height="5.55" transform="translate(14.68 -12.39) rotate(4.13)" style="fill:#dbdbdb"></rect><rect x="195.4" y="195.22" width="1.83" height="5.55" transform="translate(14.77 -13.62) rotate(4.13)" style="fill:#dbdbdb"></rect><rect x="212.37" y="195.63" width="1.83" height="5.55" transform="translate(14.84 -14.84) rotate(4.13)" style="fill:#dbdbdb"></rect></g></svg>