<svg xmlns="http://www.w3.org/2000/svg" viewBox="0 0 500 500"><g id="freepik--background-complete--inject-533"><path d="M92.59,346.22l-13.12.28-6.66.11c-2.23.05-4.47,0-6.7.06h-.44v-.45L65.61,335v-.5h.5l13.24.06c4.42,0,8.83.12,13.24.17h.28V335c0,1.9-.09,3.79-.13,5.66Zm0,0-.14-5.65c0-1.87-.11-3.71-.13-5.54l.27.27c-4.41.06-8.82.16-13.24.17l-13.24.06.5-.5,0,11.19-.45-.44c2.18,0,4.36,0,6.55.05l6.58.11Z" style="fill:#ebebeb"></path><path d="M77.82,360.33l-13.12.28-6.66.11c-2.23,0-4.47,0-6.7.06H50.9v-.45l-.06-11.19v-.5h.5l13.24.06c4.41,0,8.83.12,13.24.17h.28v.27c0,1.9-.08,3.79-.13,5.65Zm0,0-.14-5.65c-.05-1.87-.11-3.71-.13-5.54l.27.27c-4.41.06-8.83.16-13.24.17l-13.24.06.5-.5-.05,11.19-.45-.44c2.18,0,4.36,0,6.55.05l6.58.11Z" style="fill:#ebebeb"></path><path d="M328.6,221.66l-13.13.28-6.66.11c-2.22,0-4.46,0-6.69,0h-.44v-.45l-.05-11.19V210h.5l13.24.06c4.41,0,8.83.11,13.24.17h.28v.27c0,1.9-.08,3.79-.13,5.65Zm0,0-.14-5.66c0-1.86-.11-3.7-.13-5.53l.27.27c-4.41,0-8.83.16-13.24.16l-13.24.07.5-.5-.06,11.19-.44-.45c2.18,0,4.36,0,6.54.06l6.58.11Z" style="fill:#ebebeb"></path><path d="M313.83,235.77l-13.13.28-6.66.11c-2.22.05-4.46,0-6.69.05h-.45v-.45l0-11.19v-.5h.5l13.24.06c4.41,0,8.82.11,13.24.17h.27v.27c0,1.9-.09,3.78-.13,5.65Zm0,0-.14-5.66c-.05-1.86-.12-3.7-.14-5.53l.28.27c-4.42.05-8.83.16-13.24.16l-13.24.07.5-.5-.06,11.19-.44-.45c2.18,0,4.36,0,6.54.06l6.58.11Z" style="fill:#ebebeb"></path><path d="M299.11,221.66l-13.12.28-6.66.11c-2.23,0-4.46,0-6.7,0h-.44v-.45l-.06-11.19V210h.5l13.24.06c4.42,0,8.83.11,13.24.17h.28v.27c0,1.9-.09,3.79-.13,5.65Zm0,0L299,216c0-1.86-.11-3.7-.13-5.53l.27.27c-4.41,0-8.82.16-13.24.16l-13.24.07.5-.5-.05,11.19-.45-.45c2.19,0,4.36,0,6.55.06l6.58.11Z" style="fill:#ebebeb"></path><path d="M448.66,360.33l-13.13.28-6.66.11c-2.22,0-4.46,0-6.69.06h-.45v-.45l-.05-11.19v-.5h.5l13.24.06c4.41,0,8.83.12,13.24.17h.27v.27c0,1.9-.08,3.79-.13,5.65Zm0,0-.14-5.65c0-1.87-.12-3.71-.13-5.54l.27.27c-4.41.06-8.83.16-13.24.17l-13.24.06.5-.5-.06,11.19-.44-.44c2.18,0,4.36,0,6.54.05l6.58.11Z" style="fill:#ebebeb"></path><path d="M433.89,86.65l-13.13.28L414.1,87c-2.22,0-4.46,0-6.69.06H407v-.45l0-11.19V75h.51l13.24.07c4.41,0,8.82.11,13.24.16h.27v.27c0,1.9-.09,3.79-.13,5.66Zm0,0L433.75,81c-.05-1.86-.12-3.71-.14-5.54l.28.28c-4.42.05-8.83.15-13.24.16L407.41,76l.5-.5-.06,11.19-.44-.44c2.18,0,4.35,0,6.54.05l6.58.11Z" style="fill:#ebebeb"></path><path d="M448.66,100.76l-13.13.28-6.66.11c-2.22,0-4.46,0-6.69.06h-.45v-.45l-.05-11.19v-.5h.5l13.24.07c4.41,0,8.83.11,13.24.16h.27v.27c0,1.9-.08,3.79-.13,5.66Zm0,0-.14-5.65c0-1.86-.12-3.71-.13-5.54l.27.27c-4.41.06-8.83.16-13.24.17l-13.24.06.5-.5-.06,11.19-.44-.44c2.18,0,4.36,0,6.54.05l6.58.11Z" style="fill:#ebebeb"></path><path d="M92.59,86.65l-13.12.28L72.81,87c-2.23,0-4.47,0-6.7.06h-.44v-.45l-.06-11.19V75h.5L79.35,75c4.42,0,8.83.11,13.24.16h.28v.27c0,1.9-.09,3.79-.13,5.66Zm0,0L92.45,81c0-1.86-.11-3.71-.13-5.54l.27.28c-4.41.05-8.82.15-13.24.16L66.11,76l.5-.5,0,11.19-.45-.44c2.18,0,4.36,0,6.55.05l6.58.11Z" style="fill:#ebebeb"></path><circle cx="250" cy="99.8" r="63.18" transform="translate(2.66 206.01) rotate(-45)" style="fill:#ebebeb"></circle><path d="M250,153.51A53.72,53.72,0,1,1,303.71,99.8,53.77,53.77,0,0,1,250,153.51Zm0-103.43A49.72,49.72,0,1,0,299.71,99.8,49.78,49.78,0,0,0,250,50.08Z" style="fill:#fff"></path><path d="M231.26,102.57c0,3.58-4.26,6.88-9.22,6.88s-9.23-3.2-9.23-6.88Z" style="fill:#c7c7c7"></path><path d="M229.51,101.72c-1.4-3.18-2.71-6.39-4-9.61-.66-1.6-1.28-3.22-1.92-4.84l-1.91-4.84h.7l-1.9,4.84c-.64,1.62-1.26,3.24-1.92,4.84-1.31,3.22-2.62,6.43-4,9.61,1.1-3.29,2.29-6.56,3.48-9.82.58-1.63,1.21-3.25,1.82-4.87l1.84-4.87.35-.93.35.93L224.21,87c.6,1.62,1.24,3.24,1.82,4.87C227.22,95.16,228.4,98.43,229.51,101.72Z" style="fill:#263238"></path><rect x="212.29" y="101.32" width="19.5" height="1.25" style="fill:#a6a6a6"></rect><path d="M287.19,102.57c0,3.58-4.26,6.88-9.23,6.88s-9.22-3.2-9.22-6.88Z" style="fill:#c7c7c7"></path><path d="M285.43,101.72c-1.39-3.18-2.71-6.39-4-9.61-.67-1.6-1.28-3.22-1.92-4.84l-1.91-4.84h.7l-1.9,4.84c-.65,1.62-1.26,3.24-1.93,4.84-1.3,3.22-2.62,6.43-4,9.61,1.1-3.29,2.28-6.56,3.47-9.82.59-1.63,1.22-3.25,1.83-4.87l1.84-4.87.35-.93.35.93L280.13,87c.61,1.62,1.24,3.24,1.83,4.87C283.15,95.16,284.33,98.43,285.43,101.72Z" style="fill:#263238"></path><rect x="268.21" y="101.32" width="19.5" height="1.25" style="fill:#a6a6a6"></rect><path d="M278.59,82.27c-1.55.12-2.59-.69-4.42-1.25-2.66-.81-12.46-1.12-16.71-.8-1.69.13-5.2,1.63-7.72,1.63s-6-1.5-7.71-1.63c-4.25-.32-14.06,0-16.73.8-1.82.56-2.86,1.37-4.41,1.25-2.51-.19-2.79-3.74.39-3.74s4.1.62,8.29.55c1.81,0,12.59-1.28,15.65-1.28a17,17,0,0,1,4.52.45,17,17,0,0,1,4.52-.45c3.07,0,13.83,1.25,15.65,1.28,4.18.07,5.11-.55,8.29-.55S281.1,82.08,278.59,82.27Z" style="fill:#c7c7c7"></path><rect x="230.06" y="129.48" width="39.37" height="6.76" style="fill:#c7c7c7"></rect><rect x="232.1" y="127.82" width="35.29" height="1.66" style="fill:#a6a6a6"></rect><path d="M252.17,127.82h-4.86a45.27,45.27,0,0,1-.78-11.11c.24-6.89,2.28-36.6,2.28-36.6h1.86s2,29.71,2.28,36.6A45.27,45.27,0,0,1,252.17,127.82Z" style="fill:#c7c7c7"></path><path d="M251.26,75.6c0,2.5-.63,3.18-.63,3.18h-1.78s-.63-.68-.63-3.18,1.18-10.39,1.18-10.39h.68S251.26,73.1,251.26,75.6Z" style="fill:#c7c7c7"></path><path d="M252.08,79.79a2.34,2.34,0,1,1-2.34-2.34A2.34,2.34,0,0,1,252.08,79.79Z" style="fill:#a6a6a6"></path><path d="M251.6,65.21a1.86,1.86,0,1,1-1.86-1.86A1.86,1.86,0,0,1,251.6,65.21Z" style="fill:#a6a6a6"></path><polygon points="75.71 70.9 41.63 269.98 57.16 278.09 46.14 392.16 128.26 392.16 75.71 70.9" style="fill:#ebebeb"></polygon><polygon points="79.45 93.77 75.2 94.17 73.4 98.33 71.69 94.4 72.74 88.23 73.4 88.62 77.31 86.31 76.31 90.74 79.4 93.46 79.45 93.77" style="fill:#fff"></polygon><polygon points="75 120.48 70.48 120.9 68.68 125.07 67.07 121.35 68.15 115.04 68.68 115.35 72.59 113.04 71.6 117.47 75 120.48" style="fill:#fff"></polygon><polygon points="70.28 147.21 65.76 147.64 63.96 151.81 62.46 148.33 63.56 141.86 63.96 142.09 67.87 139.78 66.88 144.21 70.28 147.21" style="fill:#fff"></polygon><polygon points="65.57 173.95 61.05 174.38 59.24 178.54 57.84 175.3 58.97 168.67 59.24 168.83 63.15 166.52 62.16 170.95 65.57 173.95" style="fill:#fff"></polygon><polygon points="60.85 200.69 56.33 201.11 54.52 205.28 53.22 202.27 54.38 195.48 54.52 195.56 58.43 193.25 57.44 197.68 60.85 200.69" style="fill:#fff"></polygon><polygon points="56.13 227.42 51.61 227.85 49.81 232.02 48.6 229.24 49.79 222.29 49.81 222.3 53.71 219.99 52.72 224.42 56.13 227.42" style="fill:#fff"></polygon><polygon points="86.4 136.28 85.87 136.33 84.07 140.5 82.27 136.33 77.75 135.91 81.15 132.91 80.16 128.47 84.07 130.79 85.38 130.01 86.4 136.28" style="fill:#fff"></polygon><polygon points="79.35 157.52 83.26 155.21 82.27 159.64 85.68 162.64 81.16 163.07 79.35 167.24 77.55 163.07 73.03 162.64 76.44 159.64 75.44 155.21 79.35 157.52" style="fill:#fff"></polygon><polygon points="74.64 184.26 78.54 181.95 77.55 186.38 80.96 189.38 76.44 189.81 74.64 193.97 72.83 189.81 68.31 189.38 71.72 186.38 70.73 181.95 74.64 184.26" style="fill:#fff"></polygon><polygon points="69.92 211 73.83 208.68 72.83 213.11 76.24 216.12 71.72 216.54 69.92 220.71 68.11 216.54 63.59 216.12 67 213.11 66.01 208.68 69.92 211" style="fill:#fff"></polygon><polygon points="93.53 179.85 92.94 178.5 88.42 178.08 91.83 175.07 90.84 170.64 92.15 171.41 93.53 179.85" style="fill:#fff"></polygon><polygon points="90.03 199.69 93.94 197.38 92.94 201.81 96.35 204.81 91.83 205.24 90.03 209.41 88.22 205.24 83.7 204.81 87.11 201.81 86.12 197.38 90.03 199.69" style="fill:#fff"></polygon><polygon points="99.96 219.14 60.16 242.99 61.29 229.73 98.08 207.68 99.96 219.14" style="fill:#dbdbdb"></polygon><polygon points="103.76 242.4 57.86 269.9 58.99 256.64 101.89 230.94 103.76 242.4" style="fill:#dbdbdb"></polygon><polygon points="107.57 265.65 55.34 296.95 56.63 283.59 105.69 254.19 107.57 265.65" style="fill:#dbdbdb"></polygon><polygon points="111.37 288.91 52.72 324.05 54.01 310.7 109.5 277.45 111.37 288.91" style="fill:#dbdbdb"></polygon><polygon points="115.17 312.16 50.1 351.15 51.39 337.81 113.3 300.71 115.17 312.16" style="fill:#dbdbdb"></polygon><polygon points="118.98 335.42 47.48 378.26 48.77 364.91 117.1 323.96 118.98 335.42" style="fill:#dbdbdb"></polygon><polygon points="122.78 358.68 66.9 392.16 46.14 392.16 46.15 392.02 120.91 347.22 122.78 358.68" style="fill:#dbdbdb"></polygon><polygon points="126.59 381.93 109.52 392.16 88.52 392.16 124.71 370.48 126.59 381.93" style="fill:#dbdbdb"></polygon><polygon points="60.38 240.4 59.4 251.85 53.53 249.1 45.82 245.48 47.71 234.45 55.82 238.26 60.38 240.4" style="fill:#dbdbdb"></polygon><polygon points="58.39 263.66 57.41 275.12 48.87 271.11 41.99 267.88 43.88 256.85 51.16 260.27 58.39 263.66" style="fill:#dbdbdb"></polygon><polygon points="57.16 278.09 63.76 200.75 48.36 273.5 57.16 278.09" style="opacity:0.1"></polygon><rect x="71.01" y="70.9" width="9.41" height="321.27" style="fill:#c7c7c7"></rect><path d="M80.42,66.19a4.71,4.71,0,1,1-9.41,0c0-2.6,4.7-20,4.7-20S80.42,63.59,80.42,66.19Z" style="fill:#c7c7c7"></path></g><g id="freepik--Shadow--inject-533"><ellipse cx="250" cy="446.89" rx="113.98" ry="13.68" style="fill:#ebebeb"></ellipse></g><g id="freepik--Balance--inject-533"><path d="M372.81,342.37c0,5.27-6.28,10.14-13.59,10.14s-13.6-4.72-13.6-10.14Z" style="fill:#455a64"></path><path d="M370.22,341.13c-2-4.72-3.89-9.46-5.79-14.21-1-2.37-1.87-4.76-2.81-7.14l-2.79-7.15h.7l-2.79,7.15c-.94,2.38-1.85,4.77-2.81,7.14-1.9,4.75-3.8,9.49-5.79,14.21,1.7-4.83,3.47-9.63,5.25-14.42.88-2.4,1.81-4.79,2.71-7.18l2.73-7.17.35-.92.35.92,2.73,7.17c.9,2.39,1.83,4.78,2.71,7.18C366.75,331.5,368.53,336.3,370.22,341.13Z" style="fill:#263238"></path><rect x="344.85" y="340.53" width="28.73" height="1.84" style="fill:#37474f"></rect><path d="M455.22,342.37c0,5.27-6.28,10.14-13.6,10.14S428,347.79,428,342.37Z" style="fill:#455a64"></path><path d="M452.63,341.13c-2-4.72-3.89-9.46-5.79-14.21-1-2.37-1.87-4.76-2.81-7.14l-2.79-7.15h.7l-2.79,7.15c-.94,2.38-1.85,4.77-2.81,7.14-1.9,4.75-3.81,9.49-5.79,14.21,1.69-4.83,3.46-9.63,5.25-14.42.88-2.4,1.81-4.79,2.71-7.18l2.73-7.17.35-.92.35.92,2.73,7.17c.9,2.39,1.83,4.78,2.71,7.18C449.16,331.5,450.93,336.3,452.63,341.13Z" style="fill:#263238"></path><rect x="427.25" y="340.53" width="28.73" height="1.84" style="fill:#37474f"></rect><path d="M442.54,312.47c-2.28.18-3.81-1-6.5-1.85-3.92-1.19-18.37-1.65-24.64-1.17-2.48.18-7.65,2.4-11.36,2.4s-8.89-2.22-11.37-2.4c-6.26-.48-20.71,0-24.64,1.17-2.69.83-4.22,2-6.5,1.85-3.7-.28-4.12-5.52.57-5.52s6,.92,12.22.82c2.67,0,18.54-1.89,23.05-1.89a25.35,25.35,0,0,1,6.67.66,25.17,25.17,0,0,1,6.65-.66c4.52,0,20.39,1.84,23.06,1.89,6.17.1,7.54-.82,12.23-.82S446.25,312.19,442.54,312.47Z" style="fill:#455a64"></path><rect x="371.03" y="382.03" width="58.01" height="9.97" style="fill:#455a64"></rect><rect x="374.04" y="379.58" width="52" height="2.45" style="fill:#37474f"></rect><path d="M403.61,379.59h-7.15a66.43,66.43,0,0,1-1.15-16.38c.35-10.15,3.36-53.93,3.36-53.93h2.74s3,43.78,3.36,53.93A66.68,66.68,0,0,1,403.61,379.59Z" style="fill:#455a64"></path><path d="M402.27,302.63c0,3.69-.92,4.69-.92,4.69h-2.63s-.92-1-.92-4.69,1.73-15.3,1.73-15.3h1S402.27,299,402.27,302.63Z" style="fill:#455a64"></path><path d="M403.48,308.81a3.45,3.45,0,1,1-3.44-3.45A3.44,3.44,0,0,1,403.48,308.81Z" style="fill:#37474f"></path><path d="M402.78,287.33a2.75,2.75,0,1,1-2.74-2.75A2.74,2.74,0,0,1,402.78,287.33Z" style="fill:#37474f"></path></g><g id="freepik--Table--inject-533"><polygon points="44.45 392.16 95.84 391.92 147.23 391.83 250 391.66 352.77 391.83 404.16 391.92 455.55 392.16 404.16 392.41 352.77 392.5 250 392.66 147.23 392.49 95.84 392.4 44.45 392.16" style="fill:#263238"></polygon></g><g id="freepik--gavel-spot--inject-533"><rect x="318.72" y="407.34" width="95.9" height="14.14" style="fill:#37474f"></rect><rect x="324.07" y="403.31" width="85.19" height="4.03" style="fill:#455a64"></rect></g><g id="freepik--Chair--inject-533"><path d="M172.1,204.47H287.9a41,41,0,0,1,41,41v146.3a0,0,0,0,1,0,0H131.11a0,0,0,0,1,0,0V245.46A41,41,0,0,1,172.1,204.47Z" style="fill:#455a64"></path><rect x="113.15" y="203.01" width="28.24" height="188.74" style="fill:#37474f"></rect><circle cx="127.27" cy="189.34" r="9.14" transform="translate(-62.48 62.68) rotate(-22.37)" style="fill:#37474f"></circle><rect x="116.58" y="198.48" width="21.39" height="4.53" style="fill:#455a64"></rect><rect x="318.61" y="203.01" width="28.24" height="188.74" style="fill:#37474f"></rect><circle cx="332.73" cy="189.34" r="9.14" transform="translate(-47.02 140.87) rotate(-22.37)" style="fill:#37474f"></circle><rect x="322.03" y="198.48" width="21.39" height="4.53" style="fill:#455a64"></rect></g><g id="freepik--Character--inject-533"><path d="M275.23,227.66c46.65,47.48,79.92,103.88,76.33,117.17-6.69,24.71-40,27.38-44.6,21.57-18.56-23.5-36.66-67.66-56.15-116.87-15.24-38.47-3-39.18,11.77-27.47C264.68,223.74,273.31,225.7,275.23,227.66Z" style="fill:#ECEFF1"></path><path d="M351.56,344.83c-6.69,24.71-40,27.38-44.6,21.57-18.56-23.5-36.65-67.66-56.15-116.87-7.38-18.64-8.62-30-4.85-33.05L351.51,339.8A11.67,11.67,0,0,1,351.56,344.83Z" style="opacity:0.1"></path><path d="M273.55,228.19c-1.19,1.17-2.37,2.36-3.49,3.6s-2.23,2.47-3.26,3.77a32.81,32.81,0,0,0-5.17,8.38,39.21,39.21,0,0,0-1.52,4.71c-.46,1.59-.8,3.22-1.17,4.84s-.68,3.26-1,4.91-.58,3.29-.86,4.94c.05-1.68.21-3.35.36-5s.43-3.33.69-5a49.15,49.15,0,0,1,2.55-9.77,21.81,21.81,0,0,1,2.4-4.5,40.32,40.32,0,0,1,3.12-4A53.58,53.58,0,0,1,273.55,228.19Z" style="opacity:0.1"></path><path d="M266.8,235a39.08,39.08,0,0,1,4.51,1.37c.75.26,1.47.56,2.21.88a5.41,5.41,0,0,1,1.11.65c.34.31.59.58.87.88a58.47,58.47,0,0,1,5.69,7.5q-1.71-1.63-3.29-3.36l-3.14-3.47a9.9,9.9,0,0,0-.76-.8,4.47,4.47,0,0,0-.9-.55c-.67-.36-1.39-.67-2.09-1C269.6,236.4,268.19,235.71,266.8,235Z" style="opacity:0.1"></path><path d="M264.92,237.31c.74.65,1.42,1.33,2.09,2s1.33,1.36,2,2a6.38,6.38,0,0,0,.52.42l.58.35c.42.27.83.53,1.21.83a14.9,14.9,0,0,1,2.18,1.95c-.9-.39-1.75-.84-2.6-1.29l-1.25-.66c-.21-.1-.42-.22-.67-.37a7.74,7.74,0,0,1-.62-.47,13.16,13.16,0,0,1-2-2.21A15.14,15.14,0,0,1,264.92,237.31Z" style="opacity:0.1"></path><path d="M259.48,249.17a33.44,33.44,0,0,1,2.62,4.45c.37.77.76,1.53,1.12,2.3s.71,1.54,1.13,2.31a7.34,7.34,0,0,1-1.81-1.92,19.9,19.9,0,0,1-3.06-7.14Z" style="opacity:0.1"></path><path d="M264,238.52s6,11,9.06,13.13,10.55,9.39,12,7.15-5.74-13.3-8.48-15.84-10.88-6.77-10.88-6.77Z" style="opacity:0.1"></path><path d="M314.65,361c-9.5-13.64-4.69-40.77,5.75-105.85,1.45-9,69.8-9.71,68.76,0-1.33,12.21-13.49,60.47-16.67,67.57C357,357.42,321.09,370.24,314.65,361Z" style="fill:#f7a9a0"></path><path d="M392.87,229.82c.92,13.24-7.79,41.05-12.47,46.95s-52.46-7.33-55.39-14.48-2.57-52,5.14-63.11S391.92,216.1,392.87,229.82Z" style="fill:#f7a9a0"></path><path d="M321.73,218.69c6.34,3.05,8.51-2.31,8.51-2.31s-3.63,13.15,2.84,17.46c6.24,4.15,11.29-5.78,11.66-6.49-.19.7-3.2,12.87,3.74,16.54,7.22,3.8,10.57-7,10.79-7.74,0,.72.6,10.14,6.51,11.73,10.16,2.72,9.35-21.42,15.42-27.39,0,0,11.29,9.13,11.67,9.33,0,0-.3-23-8.8-30.73a7.33,7.33,0,0,0-9.17-.7s.72-7.43-4.66-10.48c-2.76-1.57-7.72,1.46-7.72,1.46s.33-6-4.62-8.39c-3.95-1.94-8.31,1.4-8.31,1.4s7.77-29.48.27-32.41c-12.91-5.06-26,58.93-31.58,61.39C315.5,212.57,319,217.36,321.73,218.69Z" style="fill:#f7a9a0"></path><path d="M348.82,182.8c.08-.1-.05-.23-.14-.13-9.17,8.89-16.51,21.47-18.73,34.12-.07.41.72,2.21.83,1.75C333.54,207.05,340.72,193.65,348.82,182.8Z" style="fill:#263238"></path><path d="M362.56,189.17c.08-.11-.11-.26-.22-.15-9.4,9.21-17.28,23.61-18.12,38.49,0,.51.46,1,.54.41C346.07,218.07,355.21,198.9,362.56,189.17Z" style="fill:#263238"></path><path d="M359.57,237.21c1.36-14.24,7.14-26.61,14.91-38.47.1-.15-.13-.28-.25-.17-5.38,4.76-9.54,12.83-12.25,19.39a37.6,37.6,0,0,0-2.91,19.2C359.1,237.43,359.54,237.52,359.57,237.21Z" style="fill:#263238"></path><path d="M330,216.48c-.08.5,1.29-.24,1.22.26-.73,5.45-1.56,15.26,2.73,16.86,3.45,1.27,7.55-2.47,8.56-4.53l2.55-5.17-.59,5.74a23.53,23.53,0,0,0,.39,7.63c.56,2.44,1.77,4.72,3.78,5.77a4.8,4.8,0,0,0,6-.73,14.55,14.55,0,0,0,3.48-6.42l1.86-6.57.39,6.79a22.08,22.08,0,0,0,1,5.56,9.08,9.08,0,0,0,2.82,4.45,4.33,4.33,0,0,0,4.54.53,9.62,9.62,0,0,0,3.46-4.12c1.78-3.44,2.84-7.32,4.09-11.11.61-1.9,1.22-3.82,1.92-5.7a14.22,14.22,0,0,1,2.93-5.23c-1.29,1.54-1.8,3.53-2.41,5.4s-1,3.86-1.47,5.8a63.55,63.55,0,0,1-3.58,11.57,11.27,11.27,0,0,1-4,5.07,6.18,6.18,0,0,1-6.74-.52,11.19,11.19,0,0,1-3.64-5.43,24,24,0,0,1-1.24-6.18l2.25.22a16.73,16.73,0,0,1-4,7.63,7,7,0,0,1-4.26,2.06,7.85,7.85,0,0,1-4.55-1c-2.81-1.57-4.2-4.58-4.79-7.31a25.78,25.78,0,0,1-.3-8.4l1.95.57c-1.37,2.57-5.5,7.26-11.09,6C326.27,233.1,329.29,219,330,216.48Z" style="fill:#263238"></path><path d="M325,262.29s-21-30.08-19.55-42.4,26.37-24.12,36.13-27C355.06,189,356.53,199,351.83,205c-5.43,6.91-16.67,14.13-17.44,14.64,0,0,18.9,10.29,19.77,25.93S325,262.29,325,262.29Z" style="fill:#f7a9a0"></path><path d="M323.4,201c2.33-1.5,4.77-2.85,7.23-4.13a73.66,73.66,0,0,1,7.6-3.5c1.29-.52,2.62-1,4-1.39a17.72,17.72,0,0,1,4.25-.78,10.61,10.61,0,0,1,4.43.64,6.76,6.76,0,0,1,3.55,3,7.42,7.42,0,0,1,.77,4.6,12.55,12.55,0,0,1-1.49,4.23,21.41,21.41,0,0,1-2.51,3.55c-.92,1.06-1.88,2.1-2.87,3.1a56.9,56.9,0,0,1-13.55,10.06l0-1.61a34.42,34.42,0,0,1,6.77,4.34,38.07,38.07,0,0,1,5.65,5.63,36.75,36.75,0,0,1,2.32,3.24,37.93,37.93,0,0,1,1.9,3.49,32.18,32.18,0,0,1,2.47,7.48,34.81,34.81,0,0,0-7.59-13.44,40.58,40.58,0,0,0-5.69-5.19,37.06,37.06,0,0,0-6.53-3.92l-1.65-.74,1.6-.87a55,55,0,0,0,6.79-4.49,61.66,61.66,0,0,0,6.14-5.39c1-1,1.89-2,2.79-3a19.65,19.65,0,0,0,2.31-3.2,11.09,11.09,0,0,0,1.3-3.56,5.52,5.52,0,0,0-.48-3.47,5.05,5.05,0,0,0-2.61-2.3,9.61,9.61,0,0,0-3.73-.65,28.6,28.6,0,0,0-7.86,1.75A124,124,0,0,0,323.4,201Z" style="fill:#263238"></path><path d="M403.72,301.38l-88.29-20.64s-20.26,70.87-10.21,83.91c4.5,5.83,19.55,22.14,32.33,18.47,17.78-5.1,45.37-26.66,51.62-44.17C392.55,329.47,403.72,301.38,403.72,301.38Z" style="fill:#ECEFF1"></path><path d="M313.62,300.3c8.38,2,16.84,3.62,25.31,5.18s16.95,3.15,25.46,4.5c4.81.76,9.61,1.55,14.44,2.15.13,0,.18-.19.05-.22-8.36-2-16.83-3.66-25.27-5.28s-17-3.15-25.45-4.6c-4.8-.82-9.62-1.55-14.45-2.15C313.48,299.85,313.37,300.24,313.62,300.3Z" style="fill:#263238"></path><path d="M318.46,279.18c-1.24.13-2.46.39-3.68.62a.53.53,0,0,0-.38.4c-1.36,4.6-2.32,9.37-3.28,14.07s-1.78,9.3-2.55,14q-.63,3.78-1.07,7.56a27.13,27.13,0,0,0-2.75,9.8c0,.17.28.2.31,0a33.83,33.83,0,0,1,2.33-8.81,62.07,62.07,0,0,0,.49,18.55s.07,0,.06,0c-1.56-9.15.74-18.7,2.25-27.71.75-4.51,1.6-9,2.49-13.5s1.93-8.93,2.75-13.42c1.05-.39,2.1-.78,3.12-1.26A.16.16,0,0,0,318.46,279.18Z" style="fill:#263238"></path><path d="M218.69,105.74c-17.55,13.85-25,39.09-25,39.09s-18.1,24.23-15.51,38.77a25.88,25.88,0,0,0,14.34,19.26l-.6-8s3.9,10.6,20.34,16.6,39.4,3.37,51.71-1.17a44.91,44.91,0,0,0,18.83-13.07l-5.67,10.83s16.47,1.32,28.24-15S292,148.42,290.25,142.74s-.22-45.41-42.43-43.4C247.82,99.34,230.77,96.21,218.69,105.74Z" style="fill:#a6a6a6"></path><path d="M186.6,201.15c-4.43-2.75-7.76-8-9.62-12.74a24.17,24.17,0,0,1-.82-15.81c1.89-6.25,5.9-11.47,9.8-16.58,4-5.28,8.46-10.28,12.39-15.62.22-.3-.22-.61-.48-.39A148.86,148.86,0,0,0,186,152.38a69.84,69.84,0,0,0-9.74,13c-2.34,4.33-4,9.31-3.58,14.29a25.43,25.43,0,0,0,3.92,11.49c2.61,4.15,6.21,7,9.72,10.34C186.56,201.68,186.85,201.31,186.6,201.15Z" style="fill:#a6a6a6"></path><path d="M310.9,175.52c-3.29-15.08-15.27-25.78-21.74-39.34-3.5-7.34-6-15.3-10.85-21.89-.14-.18-.44,0-.32.23,4,5.88,5.88,12.62,8.49,19.14s6.46,12.56,10.35,18.51c7.07,10.8,15.56,23.57,12.08,37.14-1.6,6.26-6.17,12.87-12.92,14.1-.26.05-.16.48.1.4a20.54,20.54,0,0,0,12.7-10.11A26.17,26.17,0,0,0,310.9,175.52Z" style="fill:#a6a6a6"></path><path d="M311.05,179.49a27,27,0,0,0-1.81-16.15c-2.33-5-6.42-8.89-10.57-12.41-4.78-4.05-9.87-8-12.53-13.79-.11-.25-.47,0-.36.2,4.18,9.61,13.63,15,19.47,23.32,6.68,9.55,5.22,22.18-1.2,31.49a44.29,44.29,0,0,1-15.58,13.45.09.09,0,1,0,.09.16C299.09,200.46,308.85,191.58,311.05,179.49Z" style="fill:#a6a6a6"></path><path d="M303.38,391.73l-11.52-71s11-23-.79-43c-6-10.13-21.17-47.21-39.26-60.56-21.28-15.72-41.71-1.25-49.66,9.52-15.91,21.56-43.24,72.28-48.73,165.05Z" style="fill:#ECEFF1"></path><path d="M232.48,313.07a147.71,147.71,0,0,1,21.65,1.05c3.57.49,7.08,1.14,10.6,1.87,1.76.36,3.52.66,5.28,1a23.42,23.42,0,0,0,5.6.4.13.13,0,0,1,0,.25,37.45,37.45,0,0,1-5.28.51,36.91,36.91,0,0,1-5.14-.37c-3.62-.46-7.21-1.09-10.83-1.58-7.29-1-14.58-2-21.92-2.49C232.12,313.65,232.14,313.08,232.48,313.07Z" style="fill:#263238"></path><path d="M215.52,321.43a159.87,159.87,0,0,1,17.65-2.89c3-.3,5.94-.43,8.93-.49,1.42,0,2.85,0,4.28,0s3.13.24,4.7.24c.16,0,.19.25,0,.26-1.48,0-3,.34-4.43.47s-3,.26-4.45.39c-3,.27-5.92.57-8.89.81-5.94.48-11.85,1-17.77,1.7C215.25,322,215.22,321.5,215.52,321.43Z" style="fill:#263238"></path><g style="opacity:0.1"><path d="M182.48,264.45c8.28-.68,16.58-1.26,24.87-1.82l24.89-1.55,12.45-.68c4.18-.1,8.34,0,12.5.19q12.46.56,24.88,1.7l-12.45-.51c-4.15-.17-8.31-.32-12.46-.42s-8.3-.2-12.43-.05l-12.44.76-24.9,1.32C199.09,263.79,190.79,264.18,182.48,264.45Z"></path><path d="M201.9,263.26c-1.24,7.94-2.58,15.86-3.92,23.78l-4.07,23.76c-.66,3.95-1.42,7.92-1.9,11.87s-.58,8-.85,12l-1.38,24.07q.12-12.06.61-24.11c.16-4,.35-8,.71-12.05s1.18-8,1.83-11.94c1.4-7.91,2.8-15.83,4.3-23.72S200.25,271.13,201.9,263.26Z"></path><path d="M206.92,263.26c-.28,4.08-.66,8.15-1,12.22l-1.15,12.2a108.13,108.13,0,0,0-.76,12.2l-.14,6.12c-.08,2-.13,4.08-.24,6.13-.12-2-.17-4.09-.25-6.13l-.14-6.14a93.08,93.08,0,0,1,.54-12.27c.42-4.07.85-8.14,1.38-12.19S206.23,267.29,206.92,263.26Z"></path><path d="M272.63,261.7c2.17,3.71,4.15,7.53,6,11.41.94,1.94,1.78,3.92,2.58,5.92a49.48,49.48,0,0,1,2.1,6.15,30.48,30.48,0,0,1,.61,6.49c0,2.16.06,4.31,0,6.45-.1,4.3-.3,8.59-.67,12.87l-.09-12.87c-.06-2.14,0-4.28-.14-6.42a30.13,30.13,0,0,0-.67-6.28,82.63,82.63,0,0,0-4.41-12c-.83-2-1.72-3.93-2.61-5.88S273.53,263.65,272.63,261.7Z"></path><path d="M269.15,261.7c1,2.51,1.91,5.06,2.78,7.61s1.67,5.14,2.41,7.74a33.81,33.81,0,0,1,.94,4c.16,1.36.27,2.7.33,4.06.13,2.7.2,5.4.13,8.1-.18-1.34-.31-2.68-.48-4l-.42-4c-.17-1.33-.28-2.68-.5-4a35.08,35.08,0,0,0-1-3.86l-2.19-7.78C270.48,266.94,269.77,264.33,269.15,261.7Z"></path></g><path d="M191.62,227.49c-43.33,41.16-99,128.91-89.75,147.36,10.3,20.56,70.65-37.17,70.54-40.66-.08-2.63,22.23-56.3,39.1-95.32S202.34,217.31,191.62,227.49Z" style="fill:#f7a9a0"></path><path d="M172.8,334.27c2-5.75,32.26-76.5,41-98.89,7.83-20.11,5.29-27.07-13-16.52-2.21,1.27-14,4.58-17.64,8.07C160.84,248.25,105,310.2,92.39,346.63c-12.15,35.09,17.14,38.94,41.75,23.38C154.28,357.27,172.8,334.27,172.8,334.27Z" style="fill:#ECEFF1"></path><path d="M168.93,343.42q3.62-10.19,7.6-20.21c2.62-6.7,5.35-13.35,8.1-20s5.6-13.25,8.52-19.83,5.9-13.12,9-19.61Q198.57,274,194.59,284c-2.62,6.7-5.36,13.35-8.11,20s-5.6,13.25-8.52,19.83S172.06,336.93,168.93,343.42Z" style="fill:#263238"></path><path d="M196,279.3a31.08,31.08,0,0,1,2.89-4.9,42.61,42.61,0,0,1,3.57-4.42,14.35,14.35,0,0,1-1.22,2.6c-.47.83-1,1.62-1.53,2.4A27.6,27.6,0,0,1,196,279.3Z" style="fill:#263238"></path><path d="M192.2,232.49a15.18,15.18,0,0,0-7.41,3.19c-3.23,2.75-10.13,13.39-8.21,16.13s4.68-1.45,7.81-4.53,9.69-12.46,9.69-12.46Z" style="opacity:0.1"></path><path d="M198.07,243a4.45,4.45,0,0,0-2.16.93c-.94.8-2.95,3.9-2.39,4.7s2,.17,2.88-.73,2.22-4.22,2.22-4.22Z" style="opacity:0.1"></path><path d="M185.45,225.7a53.65,53.65,0,0,1,7.32,6.9,36.83,36.83,0,0,1,3.12,4,22,22,0,0,1,2.41,4.49,49.21,49.21,0,0,1,2.54,9.78c.27,1.65.5,3.32.69,5s.32,3.34.37,5c-.28-1.65-.54-3.3-.87-4.94s-.61-3.28-1-4.91-.72-3.25-1.17-4.84a41.76,41.76,0,0,0-1.53-4.71,33.12,33.12,0,0,0-5.16-8.38c-1-1.3-2.14-2.54-3.27-3.77S186.65,226.88,185.45,225.7Z" style="opacity:0.1"></path><path d="M192.2,232.49c-1.39.74-2.8,1.43-4.21,2.09-.7.34-1.41.66-2.09,1a4.55,4.55,0,0,0-.89.54c-.24.22-.52.53-.77.81l-3.13,3.46c-1.06,1.16-2.15,2.28-3.3,3.36a59.18,59.18,0,0,1,5.69-7.5c.28-.29.53-.57.87-.87a4.68,4.68,0,0,1,1.12-.65c.73-.33,1.46-.63,2.2-.89A44.21,44.21,0,0,1,192.2,232.49Z" style="opacity:0.1"></path><path d="M194.08,234.82a14.32,14.32,0,0,1-1.49,2.51,13.68,13.68,0,0,1-2,2.21,5.93,5.93,0,0,1-.62.47,6.81,6.81,0,0,1-.66.37l-1.26.66c-.84.45-1.69.9-2.6,1.29a14.83,14.83,0,0,1,2.18-1.94c.39-.3.8-.57,1.21-.83.22-.13.43-.25.59-.36a6.28,6.28,0,0,0,.51-.42c.69-.58,1.35-1.28,2-1.95S193.34,235.47,194.08,234.82Z" style="opacity:0.1"></path><path d="M199.53,246.68a19.55,19.55,0,0,1-3.07,7.15,7.3,7.3,0,0,1-1.81,1.91c.42-.77.77-1.54,1.14-2.31s.74-1.53,1.12-2.29A33.11,33.11,0,0,1,199.53,246.68Z" style="opacity:0.1"></path><polygon points="223.71 382.36 301.29 335.46 296 326.28 216.56 369.97 223.71 382.36" style="fill:#37474f"></polygon><rect x="295.23" y="290.41" width="51.08" height="55.4" transform="translate(757.58 433.35) rotate(150.02)" style="fill:#37474f"></rect><rect x="311.66" y="347.88" width="59.7" height="12.36" transform="translate(814.25 490.08) rotate(150.02)" style="fill:#37474f"></rect><rect x="312.54" y="341.79" width="46.47" height="4.64" transform="translate(798.57 474.38) rotate(150.02)" style="fill:#263238"></rect><polygon points="364.28 333.79 357.06 334.51 316.81 357.73 312.57 363.62 364.28 333.79" style="fill:#455a64"></polygon><rect x="270.18" y="275.98" width="59.7" height="12.36" transform="translate(-100.85 187.69) rotate(-29.98)" style="fill:#37474f"></rect><rect x="282.54" y="289.78" width="46.46" height="4.64" transform="translate(-105.05 191.89) rotate(-29.98)" style="fill:#263238"></rect><polygon points="277.26 302.42 284.49 301.7 324.74 278.49 328.97 272.59 277.26 302.42" style="fill:#455a64"></polygon><rect x="284.59" y="325.79" width="15.06" height="17.69" transform="translate(712.38 478.51) rotate(150.02)" style="fill:#455a64"></rect><path d="M101.26,374c9.33,13.58,35,16.37,99.08,29.45,8.86,1.82,38.46-57.29,29.1-59.71-11.8-3.05-58.23-12.32-61.71-12.57C138.36,329.05,94.92,364.76,101.26,374Z" style="fill:#f7a9a0"></path><path d="M289.74,360.1c1,6.83-5.49,9.89-5.49,9.89s3.65,4.12,3.41,9.4c-.28,6.05-9.89,8.27-9.89,8.27a18.14,18.14,0,0,1,2,10.49c-.85,5.76-10.23,9.38-10.23,9.38s.12,6.05-4,10.34c-7.1,7.34-22.35,4.08-32.07,2.11S198,403.33,192.84,401l12.1-62.47s46.08-3.56,57.17.37C271.46,342.25,288.68,352.44,289.74,360.1Z" style="fill:#f7a9a0"></path><path d="M284,368.91c-9.09-5.91-19.44-8.81-29.6-12.3a.19.19,0,0,0-.11.36c10.14,3.34,19.49,8.66,29.48,12.4A.26.26,0,0,0,284,368.91Z" style="fill:#263238"></path><path d="M277.72,386.8a28.11,28.11,0,0,0-6.94-2.52q-3.78-1.09-7.59-2-7.63-1.94-15.35-3.47c-.22-.05-.35.29-.11.35,5.06,1.29,10.11,2.66,15.12,4.16q3.75,1.13,7.5,2.31a33.54,33.54,0,0,0,7.15,1.9A.37.37,0,0,0,277.72,386.8Z" style="fill:#263238"></path><path d="M269.34,407.47c-1.78-1.18-4.32-1.47-6.37-1.94q-3.5-.81-7-1.65c-4.65-1.13-9.29-2.26-13.9-3.54-.23-.07-.34.29-.11.35,4.67,1.33,9.32,2.73,14,4q3.45.94,6.91,1.86c2,.51,4.35,1.38,6.4,1.13A.13.13,0,0,0,269.34,407.47Z" style="fill:#263238"></path><path d="M219.08,334.38l-62.47,85.38s-57.73-32.64-63.52-47C89,362.51,134,329.36,166.61,330.64Z" style="fill:#ECEFF1"></path><path d="M127.66,342.77c4.81-4.28,20.14-12.65,39-12.18.16,0,.2.27,0,.28-14.07,1-33.89,8.4-38.87,12.12C127.68,343.09,127.54,342.88,127.66,342.77Z" style="fill:#263238"></path><path d="M153.07,393.38c5.06-7.76,10.53-15.24,16-22.7s11-14.95,16.66-22.29c3.21-4.14,6.4-8.3,9.75-12.33.09-.11.29,0,.21.13-5.05,7.75-10.5,15.26-15.93,22.75s-11,15-16.57,22.36q-4.74,6.27-9.75,12.33C153.29,393.83,152.92,393.61,153.07,393.38Z" style="fill:#263238"></path><path d="M219.1,333.56a78.83,78.83,0,0,0-10.73-1.33c-3.59-.31-7.19-.56-10.79-.77-7.17-.42-22.3-2.13-35.31-.79-.15,0,.66.64.8.62,6.17-1,51.48,3.41,55.15,3.31a6.06,6.06,0,0,0-.32.78c-.06.19.15.4.33.25.42-.35.71-.77,1.11-1.15A.53.53,0,0,0,219.1,333.56Z" style="fill:#263238"></path><path d="M208,215.28l44.24,44.86,8.5-39.49s-11.53-10.4-26.38-10.4C221.45,210.25,208,215.28,208,215.28Z" style="fill:#ebebeb"></path><path d="M221,218.45c.58,2.94,12.52,21.31,25.76,18.91,9.31-1.69,6.57-20.47,6.57-20.47l6.84-26.1-32.33-22.16S220.76,217.2,221,218.45Z" style="fill:#f7a9a0"></path><path d="M225.37,185.69a51.49,51.49,0,0,0,28.33,29.74l6.47-24.64-32.33-22.16S226.72,176.34,225.37,185.69Z" style="fill:#263238"></path><path d="M295.08,150.09c5.94,43.8-19.67,52.28-29.13,53.55-8.59,1.14-38,4-48.43-39s8.09-59.54,27.6-63.2S289.15,106.29,295.08,150.09Z" style="fill:#f7a9a0"></path><path d="M283.93,145.2a28.42,28.42,0,0,1-3-.46,5,5,0,0,1-3-1.06,1.56,1.56,0,0,1-.11-1.92c.91-1.18,2.39-1.31,3.8-1.14a5.8,5.8,0,0,1,3.73,1.82A1.68,1.68,0,0,1,283.93,145.2Z" style="fill:#a6a6a6"></path><path d="M253.46,147.83a30,30,0,0,0,3-.8,4.94,4.94,0,0,0,2.87-1.4,1.58,1.58,0,0,0-.12-1.92,3.9,3.9,0,0,0-3.91-.69,5.75,5.75,0,0,0-3.49,2.24A1.68,1.68,0,0,0,253.46,147.83Z" style="fill:#a6a6a6"></path><path d="M260.55,157.21c0-.11-.23.16-.21.28.34,3,.23,6.51-2.42,7.73-.08,0-.06.19,0,.16C261.25,164.64,261.36,160,260.55,157.21Z" style="fill:#263238"></path><path d="M257.59,154.28c-4.88,0-4.46,9.78.06,9.75S261.69,154.26,257.59,154.28Z" style="fill:#263238"></path><path d="M255.7,154.88c-.83.59-1.62,1.59-2.65,1.74-1.18.17-2.12-.82-2.94-1.76-.09-.1-.17,0-.17.12.06,1.86.86,3.75,2.88,3.94,1.84.18,3.08-1.53,3.47-3.43C256.36,155.14,256,154.64,255.7,154.88Z" style="fill:#263238"></path><path d="M278,156c0-.12.24.13.24.26,0,3,.53,6.48,3.3,7.39.09,0,.09.18,0,.17C278.12,163.46,277.47,158.85,278,156Z" style="fill:#263238"></path><path d="M280.54,152.74c4.85-.54,5.58,9.19,1.08,9.69S276.47,153.19,280.54,152.74Z" style="fill:#263238"></path><path d="M282.62,153.23c.81.46,1.64,1.34,2.56,1.33s1.79-1.12,2.39-2.18c.06-.11.15,0,.16.1.19,1.86-.28,3.84-2,4.33s-2.93-1.07-3.51-2.88C282.07,153.59,282.29,153.05,282.62,153.23Z" style="fill:#263238"></path><path d="M263.19,182c.72.71,1.44,1.69,2.54,1.79a8.09,8.09,0,0,0,3.26-.75.1.1,0,0,1,.13.15,4.08,4.08,0,0,1-3.85,1.63,3.22,3.22,0,0,1-2.37-2.68C262.85,182,263.08,181.91,263.19,182Z" style="fill:#263238"></path><path d="M275.23,170.42s.87,4.47,1,6.6c0,.2-.5.32-1.22.4,0,0-.06,0-.09,0a10.16,10.16,0,0,1-10-3.24c-.16-.2.1-.44.3-.31,2.92,1.9,6.06,2.27,9.39,2.14.12-.6-1.74-7.61-1.41-7.65,1.16-.17,3.5.5,4.9.83-1.54-9.37-4.58-18.42-6-27.78a.29.29,0,0,1,.55-.16c3.86,9.26,5.87,20,7.71,29.64C280.57,172.1,276.1,170.74,275.23,170.42Z" style="fill:#263238"></path><path d="M219,166.67c9.59-4.71,9.84-14.82,9.84-14.82a47,47,0,0,0,18.91-15.73c-.28.91-2.28,7.44-3.41,10.74,27.67-5.64,35.89-27,35.89-27,9.15,8.82,11,14.53,12.4,17.37,0,0-.09-17-9-28.24-11-13.76-47.2-16.92-63.64,1.53C202.26,130.44,219,166.67,219,166.67Z" style="fill:#a6a6a6"></path><path d="M269,159.47l-1.27-1.34c1.89-2,6.42-4.83,10-1.44l-1.21,1.4C273.28,155.06,269.14,159.29,269,159.47Z" style="fill:#37474f"></path><path d="M207.51,172.93l-1.84-.41c.19-.87,2-8.47,5.9-10.21,3.66-1.62,28.81-5.78,29.87-6l.31,1.87c-7.21,1.18-26.58,4.56-29.41,5.82C209.76,165.19,208,170.84,207.51,172.93Z" style="fill:#37474f"></path><path d="M253.45,170.25c-3.15-.17-6-.83-7.65-2.07-4.5-3.38-7.27-15.93-7.39-16.46l-.26-1.22h1.25c.95,0,23.48.1,28.66,5.08,2.79,2.67,1.34,9.28-.53,11.27C265.22,169.3,258.9,170.53,253.45,170.25Zm-12.79-17.73c1,4.06,3.44,11.87,6.35,14.06,3.92,2.94,16.35,1.77,19.05-1.11,1.3-1.38,2.41-6.72.61-8.44C263.08,153.59,247.74,152.64,240.66,152.52Z" style="fill:#37474f"></path><path d="M284.54,166.22a8.42,8.42,0,0,1-5.68-2.17,11.22,11.22,0,0,1-2-10.26c2.07-5.57,15.77-7.95,17.32-8.2l1.19-.19,0,1.2c0,.5-.24,12.26-2.16,16-.91,1.79-3.11,3.06-6,3.48A13.57,13.57,0,0,1,284.54,166.22Zm8.79-18.43c-4.5.88-13.27,3.24-14.55,6.7-1.15,3.08.39,7,1.54,8.18s3.89,1.83,6.6,1.44c2.22-.32,3.9-1.22,4.51-2.4C292.7,159.22,293.2,151.7,293.33,147.79Z" style="fill:#37474f"></path><path d="M225,164s-10.31-13.33-16.41-9.59,2.12,23.36,9.6,25.74A7.48,7.48,0,0,0,228,175.7Z" style="fill:#f7a9a0"></path><path d="M211.09,160c-.11,0-.13.16,0,.19,5.26,1.85,8.21,6.49,10.34,11.35-1.62-1.84-3.76-2.78-6.23-.84-.13.1,0,.31.16.27a4.62,4.62,0,0,1,5.14,1.36,22.62,22.62,0,0,1,2.62,4c.26.45,1.08.16.88-.36l-.05-.12C223.74,169.27,218.19,160.33,211.09,160Z" style="fill:#263238"></path><path d="M253.5,215l-8.41,18.64-22.56-25-7,7.42S237,255.17,237.2,253.45l8.5-16,10.8,11.85.28-28.59Z" style="fill:#ebebeb"></path><path d="M257.44,235.15c-.11-4.72-.09-9.48-.42-14.19,0-.17-.27-.25-.32-.06-1.13,4.51-.61,22.57-.81,26.88l0-.05c-.45-.51-10-10.45-10.14-10.3-1.81,2.53-8,14.19-8.48,15.26-3.39-6.21-17.86-30.73-21.94-36.64a.16.16,0,0,0-.29.15c3,6.53,21.63,38.87,21.91,38.8.19.16,7.93-14.2,8.9-16.94,1.6,2.15,11.23,13.31,11.3,12.61A148.83,148.83,0,0,0,257.44,235.15Z" style="fill:#263238"></path></g><g id="freepik--Nameplate--inject-533"><polygon points="314.66 450.84 185.34 450.84 188.49 419.76 311.51 419.76 314.66 450.84" style="fill:#ECEFF1"></polygon><polygon points="308.62 446.89 191.38 446.89 193.63 423.72 306.35 423.72 308.62 446.89" style="opacity:0.1"></polygon><g style="opacity:0.2"><path d="M215.46,438.5a2.38,2.38,0,0,0,2.44,1.86,3.21,3.21,0,0,0,3.16-2.69l.91-7.79a1.25,1.25,0,0,1,1.23-1.08.94.94,0,0,1,1,1.08l-.83,7.79a5.76,5.76,0,0,1-5.71,4.87,4.27,4.27,0,0,1-4.41-3.38,1.21,1.21,0,0,1,.91-1.35A1,1,0,0,1,215.46,438.5Z"></path><path d="M232.2,442.54a5.22,5.22,0,0,1-5.48-5.67l.65-7a1.19,1.19,0,0,1,1.18-1.08,1,1,0,0,1,1,1.08l-.59,7a3.25,3.25,0,0,0,3.38,3.49,3.83,3.83,0,0,0,3.87-3.49l.38-7a1.15,1.15,0,0,1,1.16-1.08,1,1,0,0,1,1,1.08l-.32,7A6.18,6.18,0,0,1,232.2,442.54Z"></path><path d="M242.53,441.46l.32-11.58A1.1,1.1,0,0,1,244,428.8h2.32a6.87,6.87,0,1,1-.18,13.74h-2.46A1.07,1.07,0,0,1,242.53,441.46Zm2.32-1.1h1.28a4.7,4.7,0,1,0,.12-9.39H245Z"></path><path d="M256.62,435.49a6.9,6.9,0,0,1,7-7.09,7.79,7.79,0,0,1,4.6,1.53,1.16,1.16,0,0,1,.35,1.59,1.14,1.14,0,0,1-1.6.18,5.51,5.51,0,0,0-3.21-1.06,4.72,4.72,0,0,0-3.5,1.43,4.48,4.48,0,0,0-1.36,3.42,4.72,4.72,0,0,0,1.67,3.38,5.47,5.47,0,0,0,3.77,1.43,5.61,5.61,0,0,0,2.78-.74l-.2-2.69h-2.9a1.25,1.25,0,0,1-1.23-1.12,1.05,1.05,0,0,1,1.09-1.1h4a1.24,1.24,0,0,1,1.26,1.1l.36,4.34a1.75,1.75,0,0,1,0,.33s0,.06,0,.1v0a.87.87,0,0,1-.36.47,7.44,7.44,0,0,1-4.6,1.53C260.28,442.54,256.74,439.42,256.62,435.49Z"></path><path d="M274.32,441.46l-1.16-11.58a.94.94,0,0,1,1-1.08h6.43a1.29,1.29,0,0,1,1.23,1.08.94.94,0,0,1-.94,1.09h-5.38l.39,3.6h4.7a1.32,1.32,0,0,1,1.25,1.08,1,1,0,0,1-1,1.1H276.1l.4,3.61h5.59a1.35,1.35,0,0,1,1.29,1.1,1,1,0,0,1-1,1.08h-6.74c-.05,0-.05,0-.05,0l0,0A1.26,1.26,0,0,1,274.32,441.46Z"></path></g><path d="M214.92,438.14a2.39,2.39,0,0,0,2.45,1.86,3.21,3.21,0,0,0,3.16-2.69l.91-7.79a1.25,1.25,0,0,1,1.23-1.08.94.94,0,0,1,1,1.08l-.83,7.79a5.76,5.76,0,0,1-5.71,4.87,4.27,4.27,0,0,1-4.41-3.38,1.21,1.21,0,0,1,.91-1.35A1,1,0,0,1,214.92,438.14Z" style="fill:#fff"></path><path d="M231.67,442.18a5.23,5.23,0,0,1-5.49-5.67l.66-7a1.19,1.19,0,0,1,1.18-1.08,1,1,0,0,1,1,1.08l-.59,7a3.25,3.25,0,0,0,3.38,3.49,3.84,3.84,0,0,0,3.87-3.49l.38-7a1.15,1.15,0,0,1,1.16-1.08,1,1,0,0,1,1,1.08l-.32,7A6.18,6.18,0,0,1,231.67,442.18Z" style="fill:#fff"></path><path d="M242,441.1l.33-11.58a1.1,1.1,0,0,1,1.11-1.08h2.32a6.87,6.87,0,1,1-.18,13.74h-2.46A1.08,1.08,0,0,1,242,441.1Zm2.33-1.1h1.28a4.7,4.7,0,1,0,.12-9.39h-1.23Z" style="fill:#fff"></path><path d="M256.09,435.13a6.9,6.9,0,0,1,7-7.09,7.81,7.81,0,0,1,4.6,1.53,1.16,1.16,0,0,1,.35,1.59,1.14,1.14,0,0,1-1.6.18,5.51,5.51,0,0,0-3.21-1.06,4.72,4.72,0,0,0-3.5,1.43,4.49,4.49,0,0,0-1.37,3.42,4.8,4.8,0,0,0,1.67,3.38,5.51,5.51,0,0,0,3.78,1.43,5.64,5.64,0,0,0,2.78-.74l-.2-2.69h-2.91a1.24,1.24,0,0,1-1.22-1.12,1.05,1.05,0,0,1,1.09-1.1h4a1.24,1.24,0,0,1,1.26,1.1l.35,4.34a1.19,1.19,0,0,1,0,.33.38.38,0,0,0,0,.1v0a.87.87,0,0,1-.36.47,7.44,7.44,0,0,1-4.6,1.53C259.75,442.18,256.2,439.06,256.09,435.13Z" style="fill:#fff"></path><path d="M273.79,441.1l-1.16-11.58a.94.94,0,0,1,1-1.08H280a1.29,1.29,0,0,1,1.23,1.08,1,1,0,0,1-.94,1.09h-5.38l.39,3.6H280a1.32,1.32,0,0,1,1.25,1.08,1,1,0,0,1-1,1.1h-4.74L276,440h5.59a1.35,1.35,0,0,1,1.29,1.1,1,1,0,0,1-1,1.08h-6.74c-.05,0-.05,0-.05,0l0,0A1.26,1.26,0,0,1,273.79,441.1Z" style="fill:#fff"></path><path d="M215.11,438.32a2.4,2.4,0,0,0,2.45,1.87,3.22,3.22,0,0,0,3.16-2.69l.91-7.8a1.24,1.24,0,0,1,1.22-1.08,1,1,0,0,1,1,1.08l-.84,7.8a5.75,5.75,0,0,1-5.7,4.87,4.29,4.29,0,0,1-4.42-3.38,1.22,1.22,0,0,1,.92-1.35A1,1,0,0,1,215.11,438.32Z" style="fill:#ECEFF1"></path><path d="M231.86,442.37a5.24,5.24,0,0,1-5.49-5.68l.66-7a1.19,1.19,0,0,1,1.18-1.08,1,1,0,0,1,1,1.08l-.59,7a3.26,3.26,0,0,0,3.38,3.5,3.82,3.82,0,0,0,3.86-3.5l.38-7a1.17,1.17,0,0,1,1.16-1.08,1,1,0,0,1,1,1.08l-.32,7A6.18,6.18,0,0,1,231.86,442.37Z" style="fill:#ECEFF1"></path><path d="M242.18,441.29l.33-11.59a1.09,1.09,0,0,1,1.11-1.08h2.32a6.88,6.88,0,1,1-.19,13.75H243.3A1.08,1.08,0,0,1,242.18,441.29Zm2.32-1.1h1.28a4.7,4.7,0,1,0,.13-9.39h-1.23Z" style="fill:#ECEFF1"></path><path d="M256.28,435.32a6.9,6.9,0,0,1,7-7.09,7.81,7.81,0,0,1,4.6,1.53,1.17,1.17,0,0,1,.35,1.59,1.15,1.15,0,0,1-1.6.18,5.51,5.51,0,0,0-3.21-1.06,4.76,4.76,0,0,0-3.51,1.43,4.5,4.5,0,0,0-1.36,3.42,4.78,4.78,0,0,0,1.67,3.38,5.62,5.62,0,0,0,6.55.68l-.19-2.69H263.7a1.23,1.23,0,0,1-1.22-1.12,1,1,0,0,1,1.09-1.09h4a1.24,1.24,0,0,1,1.26,1.09l.35,4.34a1.79,1.79,0,0,1,0,.34.38.38,0,0,0,0,.1h0a.86.86,0,0,1-.36.48,7.44,7.44,0,0,1-4.6,1.53C259.94,442.37,256.39,439.25,256.28,435.32Z" style="fill:#ECEFF1"></path><path d="M274,441.29l-1.17-11.59a1,1,0,0,1,1-1.08h6.43a1.3,1.3,0,0,1,1.23,1.08,1,1,0,0,1-.94,1.1h-5.38l.39,3.6h4.7a1.32,1.32,0,0,1,1.25,1.08,1,1,0,0,1-1,1.1h-4.74l.4,3.61h5.59a1.35,1.35,0,0,1,1.29,1.1,1,1,0,0,1-1,1.08h-6.75s0,0,0,0l0,0A1.26,1.26,0,0,1,274,441.29Z" style="fill:#ECEFF1"></path></g></svg>