<svg xmlns="http://www.w3.org/2000/svg" viewBox="0 0 500 500"><g id="freepik--background-complete--inject-879"><path d="M160.24,42.46c43.43-.67,91.71-.65,135.17,0-43.47.64-91.73.66-135.17,0Z" style="fill:#ebebeb"></path><path d="M144.94,60.77c44.75-.66,94.49-.65,139.26,0-44.78.65-94.5.66-139.26,0Z" style="fill:#ebebeb"></path><path d="M174.24,42.46a81.83,81.83,0,0,1,0,18.31,81.24,81.24,0,0,1,0-18.31Z" style="fill:#ebebeb"></path><path d="M242.41,42.46a81.83,81.83,0,0,1,0,18.31,81.24,81.24,0,0,1,0-18.31Z" style="fill:#ebebeb"></path><path d="M208.32,60.69a81.33,81.33,0,0,1,0,18.32,81.92,81.92,0,0,1,0-18.32Z" style="fill:#ebebeb"></path><path d="M207.5,317.05c43.43-.66,91.7-.65,135.16,0-43.46.65-91.72.66-135.16,0Z" style="fill:#ebebeb"></path><path d="M175.09,335.36c44.75-.66,94.49-.64,139.26,0-44.78.65-94.5.67-139.26,0Z" style="fill:#ebebeb"></path><path d="M337.25,298.86c27.91-.66,58.79-.66,86.71,0-27.92.66-58.8.66-86.71,0Z" style="fill:#ebebeb"></path><path d="M367.93,317.05c27.91-.66,58.8-.66,86.72,0-27.92.66-58.8.66-86.72,0Z" style="fill:#ebebeb"></path><path d="M242.44,317.05a81.83,81.83,0,0,1,0,18.31,81.24,81.24,0,0,1,0-18.31Z" style="fill:#ebebeb"></path><path d="M310.64,317.05a81.83,81.83,0,0,1,0,18.31,81.24,81.24,0,0,1,0-18.31Z" style="fill:#ebebeb"></path><path d="M378.84,317.05a81.83,81.83,0,0,1,0,18.31,81.24,81.24,0,0,1,0-18.31Z" style="fill:#ebebeb"></path><path d="M447,317.05a81.83,81.83,0,0,1,0,18.31,81.83,81.83,0,0,1,0-18.31Z" style="fill:#ebebeb"></path><path d="M208.32,335.29a81.24,81.24,0,0,1,0,18.31,81.83,81.83,0,0,1,0-18.31Z" style="fill:#ebebeb"></path><path d="M276.63,335.29a81.24,81.24,0,0,1,0,18.31,81.83,81.83,0,0,1,0-18.31Z" style="fill:#ebebeb"></path><path d="M413.26,298.35a81.92,81.92,0,0,1,0,18.32,81.33,81.33,0,0,1,0-18.32Z" style="fill:#ebebeb"></path><path d="M213.25,169.75c44.75-.66,94.49-.65,139.27,0-44.79.65-94.51.67-139.27,0Z" style="fill:#ebebeb"></path><path d="M261.47,188.07c30.06-.67,63.5-.65,93.59,0-30.1.65-63.52.66-93.59,0Z" style="fill:#ebebeb"></path><path d="M310.72,151.44a81.83,81.83,0,0,1,0,18.31,81.83,81.83,0,0,1,0-18.31Z" style="fill:#ebebeb"></path><path d="M276.63,169.75a81.33,81.33,0,0,1,0,18.32,81.92,81.92,0,0,1,0-18.32Z" style="fill:#ebebeb"></path><path d="M344.8,169.75a81.33,81.33,0,0,1,0,18.32,81.33,81.33,0,0,1,0-18.32Z" style="fill:#ebebeb"></path><path d="M192.22,241.08c19.26-.68,38.66-.68,57.93,0-19.27.67-38.67.67-57.93,0Z" style="fill:#ebebeb"></path><path d="M178.67,259.39c30.07-.66,63.5-.65,93.59,0-30.09.65-63.52.67-93.59,0Z" style="fill:#ebebeb"></path><path d="M208.35,222.76a81.33,81.33,0,0,1,0,18.32,81.92,81.92,0,0,1,0-18.32Z" style="fill:#ebebeb"></path><path d="M242.44,241.08a81.83,81.83,0,0,1,0,18.31,81.24,81.24,0,0,1,0-18.31Z" style="fill:#ebebeb"></path><polygon points="97.09 99.91 108.83 117.75 129.42 123.4 116.08 140.07 117.07 161.4 97.09 153.87 77.11 161.4 78.11 140.07 64.76 123.4 85.36 117.75 97.09 99.91" style="fill:#ebebeb"></polygon><polygon points="276.45 224.55 288.19 242.39 308.78 248.04 295.44 264.71 296.43 286.04 276.45 278.5 256.47 286.04 257.47 264.71 244.12 248.04 264.72 242.39 276.45 224.55" style="fill:#ebebeb"></polygon><polygon points="361.7 51.91 366.37 59.01 374.56 61.25 369.25 67.89 369.65 76.37 361.7 73.37 353.75 76.37 354.15 67.89 348.84 61.25 357.03 59.01 361.7 51.91" style="fill:#ebebeb"></polygon><polygon points="109.95 282.34 114.62 289.44 122.81 291.69 117.5 298.32 117.9 306.81 109.95 303.81 102 306.81 102.4 298.32 97.09 291.69 105.28 289.44 109.95 282.34" style="fill:#ebebeb"></polygon><polygon points="152.81 70.43 157.47 77.53 165.67 79.78 160.36 86.41 160.76 94.89 152.81 91.9 144.86 94.89 145.25 86.41 139.95 79.78 148.14 77.53 152.81 70.43" style="fill:#ebebeb"></polygon><polygon points="384.02 141.5 402.61 169.76 435.24 178.71 414.1 205.12 415.68 238.91 384.02 226.97 352.37 238.91 353.95 205.12 332.81 178.71 365.44 169.76 384.02 141.5" style="fill:#ebebeb"></polygon></g><g id="freepik--Floor--inject-879"><path d="M53.85,474.3c125.66-.61,266.64-.61,392.3,0-125.66.62-266.64.62-392.3,0Z" style="fill:#263238"></path></g><g id="freepik--Plant--inject-879"><path d="M404.09,379.35a76,76,0,0,0-2.46,13.91c.12.23.1,1.09,0,.86,0,.76-1.19.62-1.19-.13,0-.49,0-1,.05-1.46-2.72-3.37-6.67-5.51-9.86-8.44a18.47,18.47,0,0,1-5.4-8.6c-2.64-9.11-.16-18.78-3.35-27.87-2.74-7.84-7.66-14.66-11.82-21.76-4.4-7.51-7.64-15.41-8-24.21-.26-6.74.54-15.72,5.67-20.76,5.44-5.36,12.19-1.35,16.35,3.43,12.08,13.86,17.67,31.38,19.93,49.28,1.24,9.92,2.54,19.89,2.24,29.89A80.62,80.62,0,0,1,404.09,379.35Z" style="fill:#ECEFF1"></path><path d="M401.68,396.9a172.05,172.05,0,0,0-.33-28.08s0-.06,0-.1c.16-7.59.76-15.15.46-22.75a134.64,134.64,0,0,0-3.34-24.4c0-.1-.17-.08-.15,0A157.93,157.93,0,0,1,401,345.45q.24,6.44-.1,12.87c-.07,1.39-.2,2.8-.3,4.2h0A150.1,150.1,0,0,0,378,302.75c-.16-.25-.6,0-.44.27A156,156,0,0,1,396,347.33c-5.81-10.76-14.58-19.61-21.09-29.95,0-.05-.13,0-.1.06,5.85,11.51,15.51,20.59,21.67,31.93,1.06,4.62,1.94,9.29,2.59,14a158,158,0,0,1,1.4,19.42c-3.54-6.61-7.21-12.93-10.1-19.93-.08-.18-.35,0-.28.13,2.46,7.26,5.77,15.09,10.4,21.28q0,6.9-.38,13.79c-.73,12.26-2.82,24.36-3.79,36.58a.28.28,0,0,0,.56.06A280.6,280.6,0,0,0,401.68,396.9Z" style="fill:#263238"></path><path d="M388.66,302.36a.08.08,0,0,0-.14.06c2.24,6.19,3.51,12.46,5.13,18.81a.23.23,0,0,0,.46-.08C393.45,314.71,391.15,308.29,388.66,302.36Z" style="fill:#263238"></path><path d="M445.52,328.31a93.87,93.87,0,0,1-5.15,10.58c-4,7.32-8.24,14-9,22.55-.34,3.81-.46,7.64-1.62,11.3a33.89,33.89,0,0,1-4.5,8.85c-4.37,6.37-9.83,11.85-13.88,18.46a77.45,77.45,0,0,0-9.23,22.24c-.1.43-.77.31-.67-.12a.29.29,0,0,0,0-.09.19.19,0,0,1,0-.09c-.64-18.28.82-36.71,6.4-54.22a186.5,186.5,0,0,1,8.86-22.56c3-6.35,6.71-12.45,12-17.2,3.4-3.06,10.78-8.87,15.63-5.8C446.61,323.69,446.44,326,445.52,328.31Z" style="fill:#ECEFF1"></path><path d="M427.15,369.75A148.72,148.72,0,0,1,416.52,385c-1.77,2.31-3.56,4.61-5.33,6.92-.83,1.09-1.77,2.18-2.53,3.36.48-1.93.95-3.85,1.44-5.77,2.36-9.24,4.63-18.56,8.14-27.44,3.43-8.68,8-16.83,12.69-24.88.13-.21-.22-.37-.34-.16-3.86,6.35-7.78,12.7-11,19.39A100.52,100.52,0,0,0,414.88,368a177.47,177.47,0,0,1,6.23-24.59c0-.07-.08-.12-.11-.05a84.23,84.23,0,0,0-6.47,25.58v0q-1.19,3.56-2.2,7.19c-2.88,10.22-5.41,20.56-7.75,30.93a111,111,0,0,1,1.76-20.33c0-.16-.2-.19-.24,0a64.47,64.47,0,0,0-1.76,21.43Q403,414,401.76,420c-1.8,8.43-4,17-5.06,25.56a.17.17,0,0,0,.34.06c1.25-4.61,2-9.39,3-14.06s2.08-9.36,3.17-14c1.59-6.8,3.26-13.58,4.95-20.36,1.13-2.48,3.32-4.69,5-6.77,1.8-2.29,3.6-4.58,5.35-6.9a102.64,102.64,0,0,0,8.8-13.61A.09.09,0,0,0,427.15,369.75Z" style="fill:#263238"></path><path d="M427.93,361.93a95.21,95.21,0,0,0-10.4,16.52c0,.08.08.16.13.08,3.5-5.48,6.94-11,10.43-16.49C428.15,361.94,428,361.85,427.93,361.93Z" style="fill:#263238"></path><path d="M350.1,345.64c2.37,4.08,5.08,9,4.06,13.88-.65,3.1-2.91,5.62-3.32,8.78-.92,7,6,11.6,11.07,14.9,12.56,8.24,29.77,15.58,32.06,32.4.08.6,1.11.45,1-.14a.61.61,0,0,0,0-.11s.06-.05.06-.1a64.42,64.42,0,0,0-.23-25.69c-1.87-8.67-5.66-16.46-10.12-24.07-7.56-12.89-15.56-26.09-27-36-3.17-2.73-9.64-7.64-12.16-1.48C343.11,334,347.2,340.67,350.1,345.64Z" style="fill:#ECEFF1"></path><path d="M361.59,373c8.33,9,21.56,14.06,28.72,24.15-4.24-15.47-11.27-29.38-22.07-41.46a.33.33,0,0,1,.46-.46,81.78,81.78,0,0,1,18,26.12A116.49,116.49,0,0,0,379,361.46c-.12-.24.23-.46.37-.22a75.8,75.8,0,0,1,8.37,22.33c9.44,22.86,10.31,49.66,8.34,73.75,0,.34-.56.35-.55,0,.55-19,.24-38.3-4.31-56.84l-.3-1.15c-7.79-10.87-21-15.9-29.44-26.22C361.37,373,361.5,372.87,361.59,373Z" style="fill:#263238"></path><path d="M359.66,365.23c4.37,4,8.67,8.11,13,12.11.05,0,0,.12-.06.08a64,64,0,0,1-13.25-11.93C359.26,365.31,359.49,365.06,359.66,365.23Z" style="fill:#263238"></path><path d="M359,347.86a137.06,137.06,0,0,0,13.08,18c.06.08,0,.18-.11.11A63.31,63.31,0,0,1,358.74,348C358.67,347.84,358.88,347.71,359,347.86Z" style="fill:#263238"></path><polygon points="416.92 422.81 378.64 422.81 383.8 474.3 411.02 474.3 416.92 422.81" style="fill:#455a64"></polygon><polygon points="378.64 422.81 379.46 430.93 416.21 429 416.92 422.81 378.64 422.81" style="fill:#37474f"></polygon><rect x="376.08" y="417.57" width="43.4" height="9.97" style="fill:#455a64"></rect></g><g id="freepik--character-1--inject-879"><path d="M271.5,473.93c-2.81.9-83.07,0-86.11-2-1.15-.74-1.7-12.44-2-26.59-.06-3.05,0-49.56,0-49.56l50.77.55,1,49.44s30.57,14.09,33.67,16.6S274.32,473,271.5,473.93Z" style="fill:#eb9481"></path><path d="M185.39,472c3,2,83.29,2.87,86.12,2s.42-9-2.67-11.52C267.13,461,257,456.1,248.32,452h0c9.16,4.52,17.47,12.22-22.9,7.93-10.4-1.09-24-3-41.72-5.95C184,464,184.47,471.37,185.39,472Z" style="fill:#263238"></path><path d="M248.27,452s-14-4-22.9,7.93Z" style="fill:#263238"></path><path d="M180.3,444.16h58.13s3.8-5.9,3.15-15.24c-1.88-27.18-9.15-80.42-9.56-83.15-4.22-28.21-18.58-119.48-18.58-119.48l-52.25.3s21.2,111.18,21.22,118.17c0,18.8-4.2,61.49-4.84,84.44C177.31,438.76,180.3,444.16,180.3,444.16Z" style="fill:#455a64"></path><path d="M182.41,344.76c0,2.16,0,4.61,0,7.32L212.07,226.3l-50.88.29S182.39,337.77,182.41,344.76Z" style="opacity:0.1"></path><path d="M97.86,469.07c-2.3-1.85-45.76-69.33-45.79-72.95,0-1.37,9.44-8.27,21.11-16.29,2.51-1.73,41.36-27.3,41.36-27.3L142,395.22l-40.72,28s5.08,33.27,4.69,37.25S100.17,470.92,97.86,469.07Z" style="fill:#eb9481"></path><path d="M52.06,396.12c0,3.62,43.49,71.1,45.81,73s7.74-4.61,8.14-8.58c.21-2.18-1.24-13.34-2.58-22.88l0,0c1.26,10.13-.59,21.31-19.24-14.75-4.82-9.27-10.73-21.7-18-38.1C58,390.51,52.07,395,52.06,396.12Z" style="fill:#263238"></path><path d="M103.39,437.59S99,423.68,84.16,422.84Z" style="fill:#263238"></path><path d="M74.65,375.38l32.67,51.5s10.31.7,18.39-5.62c19.08-14.92,47.09-46.77,51.13-59.58,7.38-23.46,16.68-96,16.68-96l8.93-1.73c3.07-3.09,7.89-37.66,7.89-37.66l-62.22.39s-11.34,26.44-6,50.5c0,0-7.62,45.79-10.81,60.06-.7,3.11-28.81,14.23-45.33,24.47A26.71,26.71,0,0,0,74.65,375.38Z" style="fill:#455a64"></path><path d="M180.33,268.91A79,79,0,0,1,194,264.59c4.82-1.06,9.72-1.61,14.6-2.29.24,0,.33.32.09.36-4.74.92-9.39,2.25-14.07,3.41s-9.39,2.2-14.14,3.12C180.27,269.22,180.16,269,180.33,268.91Z" style="fill:#263238"></path><path d="M195.8,243.11c.28-5,.7-9.93,1.25-14.85a.18.18,0,0,1,.36,0c.1,4.45.05,8.91,0,13.36,0,2.21-.13,4.43-.21,6.64-.06,1.48-.61,5.91,1.77,5.82,2.21-.08,2.67-2.94,3-4.62.44-2.29.79-4.59,1.07-6.91.54-4.51.74-9.06,1-13.6,0-.2.35-.25.37,0a63,63,0,0,1,.12,12.66q-.25,3.19-.72,6.38a17,17,0,0,1-1.18,5.19,4.87,4.87,0,0,1-3.43,2.55,1,1,0,0,1,0,.17c0,.35,0,.71,0,1.06,0,.79,0,1.58-.08,2.37s-.12,1.52-.18,2.28a10.66,10.66,0,0,1-.35,2.24.19.19,0,0,1-.36,0,10.45,10.45,0,0,1-.24-2.17c0-.79-.06-1.58-.08-2.37s0-1.53,0-2.29c0-.38,0-.77,0-1.14a1.15,1.15,0,0,1,.06-.17,2.76,2.76,0,0,1-1.82-1.38c-.83-1.41-.78-3.31-.75-4.89C195.52,247.31,195.68,245.21,195.8,243.11Z" style="fill:#263238"></path><path d="M151.18,251a38.65,38.65,0,0,0,4,.73,14.42,14.42,0,0,0,4.29-.41,16.66,16.66,0,0,0,7.8-4.32,23.5,23.5,0,0,0,5.12-8,40.38,40.38,0,0,0,1.54-4.41c.49-1.7,1.07-3.4,1.47-5.13.05-.2.39-.14.37.07-.12,1-.06,2.09-.2,3.13-.11.84-.28,1.68-.45,2.51a32.93,32.93,0,0,1-1.52,5.23A23.77,23.77,0,0,1,168,249a15.87,15.87,0,0,1-8.51,4.23c-2.68.4-6.46.1-8.45-2C151,251.16,151.07,251,151.18,251Z" style="fill:#263238"></path><path d="M200.19,96.7c16.86,7.19,20.73,50.71,19.78,82.39-.14,4.82-43.5,13-64.57-2-3.4-2.42,1.09-62.39,9.36-73.51C175,89.79,189.75,92.25,200.19,96.7Z" style="fill:#263238"></path><path d="M200.65,97c8.82,4.25,12.12,11.8,15.46,20.37,6.69,17.16,6.66,55,5.78,61.26a.19.19,0,0,1-.38,0c.11-12-.3-69-21.2-81C200,97.43,200.27,96.84,200.65,97Z" style="fill:#263238"></path><path d="M178.68,94c.07,0,.11.09,0,.11-11.2,4.1-24,16.26-25.45,81.15,0,.28-.44.24-.44,0C153,162.16,149.28,98.94,178.68,94Z" style="fill:#263238"></path><path d="M191.17,177.49c21.49,4.38,46.62,3.31,53.19-2.36,7.6-6.56,17.17-33.82,21.88-54.36,1-4.49-33.44-9.68-33.83-6.46-1.33,11-10.21,38.14-11.15,39.64-1.08,1.72-18.1,6.41-29.59,8.33C173.56,165.3,175.94,174.39,191.17,177.49Z" style="fill:#eb9481"></path><path d="M237.18,180.56l-17.51-26.43s-16.36,3.6-32.94,8.7S174.21,175,195.55,179.6,237.18,180.56,237.18,180.56Z" style="fill:#ECEFF1"></path><path d="M227.2,178.5c-6.74-9.15-12.28-19.65-13.39-21.42-.05-.09.1-.15.15-.06,1,1.78,8.77,13.2,13.4,21.42C227.42,178.53,227.26,178.59,227.2,178.5Z" style="fill:#263238"></path><path d="M209.64,181.57a106,106,0,0,1-14.1-2c-21.33-4.56-25.4-11.67-8.81-16.77,1.7-.53,3.42-1,5.11-1.52Z" style="opacity:0.1"></path><path d="M239.42,120c-.27-3.68-.87-24.16-.23-29,1.17-8.84,4.34-17.72,8.06-18,3-.26,3.78,5,3.78,5s2.68-5.35,6.36-4.51,2,7,2,7,3.15-5.29,6.76-4.18.91,7,.91,7,2.66-5,5.25-2.82c3.12,2.6-2.82,11.21-3.68,16.51-.13.81-.15,13.55-1.64,21.76a14.18,14.18,0,0,1-3.54,6.84Z" style="fill:#eb9481"></path><path d="M267.52,83.25c-4.35,6.34-5.15,9.87-5.44,17.44,0,.14-.23.17-.24,0-.39-7.43,0-12,5.39-17.68C267.49,82.74,267.73,83,267.52,83.25Z" style="fill:#263238"></path><path d="M259.76,80.22c-3.36,7.28-4,11.16-4.19,19.11,0,.11-.2.12-.2,0-.42-7.82-.32-12.39,4-19.23C259.56,79.79,259.91,79.88,259.76,80.22Z" style="fill:#263238"></path><path d="M251,78.24c-2.55,7.36-3.27,11.61-2.31,19.33a.14.14,0,0,1-.28.05c-1.75-7.78-.89-13.08,2.36-19.43C251,77.76,251.18,77.78,251,78.24Z" style="fill:#263238"></path><path d="M235.64,120.78s-4.89-8.31-6.23-12.44-.68-21.33,3.05-21.4c4.81-.08,6.38,9.92,6.51,14.93,0,0,11.13-.22,13.81,6.72S235.64,120.78,235.64,120.78Z" style="fill:#eb9481"></path><path d="M238.69,98.28c.22,1.18.39,2.37.56,3.57l-.26-.26a22.26,22.26,0,0,1,14.12,5.78,17.4,17.4,0,0,1,3.18,4A28.22,28.22,0,0,0,239,102.14l-.26,0c0-1.28,0-2.55,0-3.83Z" style="fill:#263238"></path><path d="M143.36,235.32l73.83-.36c.26-.22-11.88-53.53-20.12-69.43-2.1-4-12.42-9.74-21-3.43C156.8,176.33,143.36,235.32,143.36,235.32Z" style="fill:#ECEFF1"></path><path d="M216.68,232.33l-72.72.52c.09-.39.2-.83.32-1.31l72.11-.52C216.5,231.5,216.6,231.93,216.68,232.33Zm-1.57-6.93-69.35.5c-.13.45-.24.89-.36,1.31l70-.49Zm-1.34-5.61-66.43.47c-.13.45-.26.88-.38,1.31l67.13-.47C214,220.67,213.88,220.24,213.77,219.79Zm-1.39-5.62-63.36.45c-.13.44-.27.87-.4,1.31l64.09-.45ZM211,208.56l-60.13.42c-.15.44-.29.87-.43,1.31l60.9-.42C211.18,209.44,211.06,209,211,208.56Zm-1.48-5.62-56.73.41c-.16.43-.31.87-.46,1.31l57.54-.41C209.7,203.81,209.59,203.37,209.47,202.94Zm-1.53-5.62-53.15.38-.48,1.31,54-.38Zm-1.6-5.61-49.31.35-.54,1.31,50.23-.35C206.6,192.58,206.47,192.14,206.34,191.71Zm-1.67-5.61-45.19.32c-.2.43-.4.87-.59,1.31l46.18-.33C204.94,187,204.8,186.53,204.67,186.1Zm-1.77-5.61-40.7.28c-.22.44-.45.88-.66,1.32l41.78-.3ZM201,174.87l-35.66.26c-.26.43-.52.87-.77,1.31l36.9-.26C201.28,175.73,201.13,175.3,201,174.87Zm-2.18-5.61-29.75.21c-.32.43-.63.87-.94,1.32l31.23-.22C199.16,170.12,199,169.68,198.79,169.26Zm-3.17-5.6-21.58.15c-.46.41-.91.85-1.36,1.32l24-.17A8.54,8.54,0,0,0,195.62,163.66Zm-13.13-4.23,4,0A14.75,14.75,0,0,0,182.49,159.43Z" style="opacity:0.1"></path><path d="M166.42,166.85c-7.25,5.6-34.52,28.43-36.42,35.42-3.81,14.09-3.67,38.81-3.5,40,.58,4.06,31.28,4.38,31.18,0-.23-9.38-.33-31.23-.53-34.5-.12-2.2,11.53-18,20.17-31.76S181.18,155.43,166.42,166.85Z" style="fill:#eb9481"></path><path d="M156.62,239.74s7,10.31,9,16.87c2.69,8.79,1.4,17.48.63,21.09-1.59,7.53-10.65,24.64-16,22.89-4.87-1.58,5.27-18.6,5.27-18.6s-7.48,19.06-13,16.08S149.89,276,149.89,276s-8.12,19.41-13.32,15.43c-3.93-3,6.77-20.95,6.77-20.95s-7.09,16.64-11.27,13.72c-4.61-3.23,4.23-20.42,4.23-20.42-9.37-9.2-10.84-19.07-9.59-23.74C127.08,238.64,156.62,239.74,156.62,239.74Z" style="fill:#eb9481"></path><path d="M158.52,275.56c-.8,2.27-1.59,4.57-2.59,6.77s-2.07,4.35-3.27,6.44a41.7,41.7,0,0,1-5.42,7.69c3.41-4.44,7.1-12.24,8.1-14.43s2.1-4.33,3.09-6.51C158.46,275.46,158.53,275.5,158.52,275.56Z" style="fill:#263238"></path><path d="M150.66,271.82c-1.14,2.85-2.17,5.73-3.44,8.54s-2.71,5.33-4.16,8c-.11.2-.19.08-.08-.14,1.34-2.75,2.37-5.4,3.68-8.17s2.73-5.49,3.94-8.3C150.62,271.74,150.68,271.77,150.66,271.82Z" style="fill:#263238"></path><path d="M144.5,267.39a69,69,0,0,1-6.26,12.66c-.12.2-.2,0-.09-.19,2.16-4.17,3.89-7.42,6.2-12.52C144.38,267.26,144.53,267.3,144.5,267.39Z" style="fill:#263238"></path><path d="M131.48,194.87l31.91,7.64s8.43-14,17.08-29.09.18-18.47-17.89-6.24A160.64,160.64,0,0,0,131.48,194.87Z" style="fill:#ECEFF1"></path><path d="M139.29,189.74c11.25,1.61,22.63,5,24.67,5.47.1,0,0,.18-.06.15-2-.54-15.57-3-24.68-5.45C139.12,189.88,139.18,189.73,139.29,189.74Z" style="fill:#263238"></path><path d="M160.1,201.73c1.12.15,2.23.36,3.34.55l-.26.1c2.85-5.13,5.81-10.2,9-15.15,1-1.66,2.1-3.31,3.21-4.93-.8,1.79-1.68,3.55-2.6,5.28a151.43,151.43,0,0,1-9.27,15.22c-1.13-.36-2.27-.68-3.39-1.07Z" style="fill:#263238"></path><path d="M170.55,190.43a35.8,35.8,0,0,1,4.81-5.26,11,11,0,0,1-4.81,5.26Z" style="fill:#263238"></path><path d="M181.56,161c.8,2.14,7,12.91,13.5,12.51,2.12-.14,1.91-11.78,1.91-11.78l.18-.86,2.52-12.08-16.34-10.05S180.67,158.67,181.56,161Z" style="fill:#eb9481"></path><path d="M182.45,144.86c.36,1.31.82,2.71,1.4,4.23,3.64,9.39,9.37,11.85,13.18,12.38l.12-.59,2.52-12.07-16.34-10S182.92,141.35,182.45,144.86Z" style="fill:#263238"></path><path d="M220.49,121.37c7.52,25.79-7.08,33.21-12.65,34.82-5.05,1.46-22.43,5.81-32.57-19.07s-.52-36.52,10.85-40.48S213,95.58,220.49,121.37Z" style="fill:#eb9481"></path><path d="M177.46,137.66c2.83-.93,8.25-10.8,4.84-24.76,0,0,2.2,12.75,1.74,14.82s3-5.55.43-16.84a62.66,62.66,0,0,0,12.73,3.73c5.23.72,9.12.26,9.4-.22s-8-2.74-10.78-4.62c0,0,15.69,5.66,22.31,4.46.76-.14-3.4-14.68-15.14-18.61s-24.67,3.38-27.86,8.63c0,0-4.84,2-8.35,10.87S174.41,138.65,177.46,137.66Z" style="fill:#263238"></path><path d="M184.38,109.36c-.13-.3-.6-.16-.49.16,1.87,5.16,2.14,10,1.85,15.45,0,.07.13.09.14,0C186.69,119.53,186.73,114.44,184.38,109.36Z" style="fill:#263238"></path><path d="M205.11,115.62c-7.84.45-14.87-.8-21.07-5.87a.13.13,0,1,0-.19.19c5.38,5.79,13.77,7.07,21.29,6C205.3,115.88,205.27,115.61,205.11,115.62Z" style="fill:#263238"></path><g style="opacity:0.1"><path d="M187.58,138.21a.43.43,0,0,1-.37.45.42.42,0,0,1-.45-.38.41.41,0,0,1,.82-.07Z"></path><path d="M194.41,136.43a.43.43,0,0,1-.37.45.42.42,0,0,1-.45-.38.41.41,0,0,1,.37-.44A.4.4,0,0,1,194.41,136.43Z"></path><path d="M199.14,135.84a.41.41,0,1,1-.44-.37A.41.41,0,0,1,199.14,135.84Z"></path><path d="M201.47,139a.41.41,0,0,1-.82.08.41.41,0,1,1,.82-.08Z"></path><path d="M191.42,140.8a.41.41,0,0,1-.82.07.43.43,0,0,1,.37-.45A.42.42,0,0,1,191.42,140.8Z"></path><path d="M196.79,140.71a.41.41,0,1,1-.82.07.41.41,0,0,1,.82-.07Z"></path><path d="M190.44,134.72a.41.41,0,0,1-.82.07.42.42,0,0,1,.37-.45A.42.42,0,0,1,190.44,134.72Z"></path><path d="M214.29,134a.41.41,0,0,1-.82.08.41.41,0,1,1,.82-.08Z"></path><path d="M220,131.38a.41.41,0,0,1-.37.45.43.43,0,0,1-.45-.37.42.42,0,0,1,.38-.45A.4.4,0,0,1,220,131.38Z"></path><path d="M221.37,129.09a.41.41,0,0,1-.37.45.41.41,0,1,1-.08-.82A.41.41,0,0,1,221.37,129.09Z"></path><path d="M218.72,134.87a.41.41,0,0,1-.82.07.41.41,0,0,1,.37-.44A.4.4,0,0,1,218.72,134.87Z"></path><path d="M221.54,133.75a.4.4,0,0,1-.37.45.41.41,0,1,1-.07-.82A.41.41,0,0,1,221.54,133.75Z"></path><path d="M215.82,131a.41.41,0,0,1-.37.45.41.41,0,1,1-.08-.82A.41.41,0,0,1,215.82,131Z"></path></g><path d="M214.32,120.61a15.86,15.86,0,0,1-1.78.54,3,3,0,0,1-1.91.21,1,1,0,0,1-.57-1,2.37,2.37,0,0,1,1.78-1.61,3.48,3.48,0,0,1,2.52,0A1,1,0,0,1,214.32,120.61Z" style="fill:#263238"></path><path d="M197.15,126.5c.57-.27,1.06-.61,1.6-.93a3,3,0,0,0,1.46-1.27,1,1,0,0,0-.37-1.11,2.37,2.37,0,0,0-2.39.21,3.46,3.46,0,0,0-1.69,1.86A1,1,0,0,0,197.15,126.5Z" style="fill:#263238"></path><path d="M204.28,143.66c.5.36,1,.88,1.68.84a5,5,0,0,0,1.88-.75c.06,0,.12,0,.09.08a2.47,2.47,0,0,1-2.15,1.33,2,2,0,0,1-1.66-1.39C204.08,143.67,204.21,143.61,204.28,143.66Z" style="fill:#263238"></path><path d="M210.42,135.62s.93,2.6,1.19,3.86c0,.12-.27.24-.69.35,0,0,0,0,0,0a6.12,6.12,0,0,1-6.3-1,.13.13,0,0,1,.16-.21,9.24,9.24,0,0,0,5.8.42c0-.37-1.74-4.45-1.54-4.45.87,0,2.43,0,3,0-.57-1.71-2.41-6.46-3.44-9.56-.06-.2.23-.33.32-.15a88.66,88.66,0,0,1,4.64,10.52C213.62,135.72,211,135.73,210.42,135.62Z" style="fill:#263238"></path><path d="M210.62,138.88A7.54,7.54,0,0,1,208.5,142a3.43,3.43,0,0,1-1.91.77c-1.53.09-2-1.19-2.1-2.38a8.18,8.18,0,0,1,.07-1.9A9.72,9.72,0,0,0,210.62,138.88Z" style="fill:#263238"></path><path d="M208.5,142a3.43,3.43,0,0,1-1.91.77c-1.53.09-2-1.19-2.1-2.38C206.05,140.09,207.88,140.62,208.5,142Z" style="fill:#ff99ba"></path><path d="M199,130.58a2,2,0,0,1-.36.52,1.15,1.15,0,0,1-.9.38c-1.05,0-1.59-1.08-1.74-2.14,0-.08,0-.12.08-.07.48.5,1,1,1.62.88.41-.09.7-.48,1-.82A5.58,5.58,0,0,0,199,130.58Z" style="fill:#263238"></path><path d="M198.51,130.35a2.81,2.81,0,0,1,.3-1.41,1.93,1.93,0,0,1,1.26-.93,1.76,1.76,0,0,1,1.53.42,2.93,2.93,0,0,1,.79,1.18,4.8,4.8,0,0,1,.24.82,3.65,3.65,0,0,1,0,1.77,5.66,5.66,0,0,0-.33-1.24,8,8,0,0,0-.5-1.06c-.39-.69-1-1.21-1.54-1.05s-1,.73-1.06,1.53a12.94,12.94,0,0,0,0,2.48A5.8,5.8,0,0,1,198.51,130.35Z" style="fill:#263238"></path><path d="M215.12,126.5a1.73,1.73,0,0,0,.58.25,1.14,1.14,0,0,0,1-.15c.89-.57.79-1.74.37-2.72,0-.08-.09-.1-.11,0-.14.68-.34,1.42-.92,1.61a2.21,2.21,0,0,1-1.27-.18A5.58,5.58,0,0,1,215.12,126.5Z" style="fill:#263238"></path><path d="M215.39,126.06a2.8,2.8,0,0,0-1-1,2,2,0,0,0-1.57-.13,1.74,1.74,0,0,0-1.08,1.15,3.14,3.14,0,0,0-.06,1.42,5.64,5.64,0,0,0,.23.83,3.88,3.88,0,0,0,.93,1.5,5.56,5.56,0,0,1-.36-1.23,7.92,7.92,0,0,1-.13-1.16c0-.8.19-1.54.77-1.7s1.21.1,1.7.74a13.4,13.4,0,0,1,1.26,2.14A5.75,5.75,0,0,0,215.39,126.06Z" style="fill:#263238"></path><path d="M180,137.91s-7.39-7.08-10.72-4.28,3.38,13.85,8.09,14.61a4.54,4.54,0,0,0,5.49-3.59Z" style="fill:#eb9481"></path><path d="M171.23,136.75a.06.06,0,0,0,0,.12c3.33.63,5.51,3.16,7.23,5.89-1.14-1-2.51-1.33-3.81.06-.07.07,0,.18.11.15a2.79,2.79,0,0,1,3.21.35,14.06,14.06,0,0,1,1.93,2.15c.2.25.67,0,.5-.29l0-.07C179.66,141.18,175.52,136.31,171.23,136.75Z" style="fill:#263238"></path></g><g id="freepik--character-2--inject-879"><path d="M334.72,172.42c3.65,14.39,10.15,30.43,16.44,49.5,7,21.28,15.65,41.76,17.25,46.31,2,5.85,29.24-15.8,27.25-19.56-1.27-2.41-42.34-72.48-49.93-83C337,153.61,332,161.82,334.72,172.42Z" style="fill:#ffc4c0"></path><path d="M393.2,244.79c2.34,3,14.6,19.88,16.82,24.3,4.08,8.13,6.5,17.44,3.55,19.85-2.35,1.92-6.05-2.05-6.05-2.05s.8,6.05-2.78,7.45-5.74-4.76-5.74-4.76.37,6.27-3.3,7.41-4.81-5.42-4.81-5.42.61,5.72-2.81,5.39c-4.12-.41-4.05-11.07-6.37-16-.35-.75-12.43-11.51-15.89-19.28a15.66,15.66,0,0,1-1.6-6.35Z" style="fill:#ffc4c0"></path><path d="M390.8,291.49c-1.55-7.09-2.79-10.07-6.78-16.44-.08-.13.25-.21.34-.09,4.34,5.64,6.15,9.39,6.74,16.55C391.13,291.86,390.88,291.83,390.8,291.49Z" style="fill:#263238"></path><path d="M398.78,289.63c-1.35-8.06-3.08-11.68-7.44-18.52-.06-.09.1-.21.17-.12,4.84,6.36,7.38,10.27,7.66,18.51C399.18,289.88,398.84,290,398.78,289.63Z" style="fill:#263238"></path><path d="M407.26,286.68c-1.57-7.78-3.13-11.89-8-18.18a.15.15,0,0,1,.22-.19c5.56,5.93,7.55,11,8,18.3C407.52,287.11,407.35,287.17,407.26,286.68Z" style="fill:#263238"></path><path d="M366.06,258.74s-.93,9.79-.38,14.18,8.58,20,12.05,18.46c4.48-2,1.62-11.93-.42-16.61,0,0,10.37-4.6,9.85-12.17S366.06,258.74,366.06,258.74Z" style="fill:#ffc4c0"></path><path d="M378.6,278.21c-.58-1.16-1.11-2.35-1.64-3.54l.21-.14a29.79,29.79,0,0,0,10.17-11.24,27,27,0,0,0,1.85-4.81,18.05,18.05,0,0,1-1.2,5.1A22.75,22.75,0,0,1,377.44,275l.13-.34c.35,1.17.71,2.34,1,3.53Z" style="fill:#263238"></path><path d="M362.57,259.89l32.29-16.12a17.69,17.69,0,0,0-1.9-9.14c-5-9.83-15.37-24.91-19.13-31.86-5.6-10.32-23-32.36-29.75-40s-12-2.75-10.17,8.16,14.64,45,14.8,46.12c.12.83,4.16,23.29,8.15,35.48A14.87,14.87,0,0,0,362.57,259.89Z" style="fill:#455a64"></path><path d="M375.06,244.24c-2.15,1-4.32,2-6.49,3.06-1,.48-2.08,1-3.13,1.42s-2.27,1.07-3.44,1.47c-.08,0-.13-.08-.06-.12,1-.68,2.19-1.21,3.27-1.81s2-1.07,3.05-1.6c2.12-1.09,4.24-2.19,6.39-3.23,4.31-2.09,8.66-4.05,13.05-6a.09.09,0,0,1,.08.16C383.57,239.9,379.35,242.13,375.06,244.24Z" style="fill:#263238"></path><path d="M333.91,170.93c1.84,10.91,14.64,45,14.8,46.12.12.83,4.16,23.28,8.15,35.48a14.87,14.87,0,0,0,5.71,7.36l32.29-16.12a14.86,14.86,0,0,0-.21-3.9l-52.57-79.05C336.35,156.18,332.25,161.13,333.91,170.93Z" style="opacity:0.1"></path><path d="M285.49,471.2c2.79-.36,71.67-33.67,73.5-36.6.69-1.11-3.57-11.42-9.08-23.74-1.19-2.66-2.44-5.4-3.72-8.18-8.28-18-17.5-37-17.5-37l-46.14,22.16,18.77,36.35,4.12,8s-20.67,24.55-22.33,28S282.69,471.56,285.49,471.2Z" style="fill:#ffc4c0"></path><path d="M285.49,471.2c2.79-.36,71.67-33.67,73.5-36.6.84-1.36-5.63-16.3-12.8-31.92l-44.87,21.55,4.12,8s-20.67,24.55-22.33,28S282.69,471.56,285.49,471.2Z" style="fill:#fff"></path><path d="M285.49,471.2c2.79-.36,71.67-33.67,73.5-36.6.69-1.11-3.57-11.42-9.08-23.74l-44.47,21.35s-20.67,24.55-22.33,28S282.69,471.56,285.49,471.2Z" style="fill:#ECEFF1"></path><path d="M285.14,468c11.41-5.87,58-28.46,69.71-33.39.09,0,.12,0,0,.07-11.18,6.06-57.93,28.28-69.65,33.51C285,468.27,284.9,468.09,285.14,468Z" style="fill:#263238"></path><path d="M286.34,455.57a10.3,10.3,0,0,1,8.28-.52,10,10,0,0,1,5.56,4.91c0,.07-.1.14-.14.07a11.92,11.92,0,0,0-13.63-4.32A.08.08,0,0,1,286.34,455.57Z" style="fill:#263238"></path><path d="M301.51,435.52c4.59-2.3,10.74-3.26,15.44-.87.18.1.05.35-.12.35a71,71,0,0,0-15.12,1.13A.32.32,0,0,1,301.51,435.52Z" style="fill:#263238"></path><path d="M298.62,438.64c4.59-2.3,10.73-3.26,15.43-.87.19.09.05.35-.12.35a70.37,70.37,0,0,0-15.12,1.13A.32.32,0,0,1,298.62,438.64Z" style="fill:#263238"></path><path d="M295.72,441.76c4.59-2.3,10.74-3.26,15.44-.87.18.09,0,.35-.12.34a71.67,71.67,0,0,0-15.12,1.13A.32.32,0,0,1,295.72,441.76Z" style="fill:#263238"></path><path d="M292.83,444.87c4.59-2.3,10.73-3.26,15.43-.87.19.1.05.35-.12.35A71,71,0,0,0,293,445.48.32.32,0,0,1,292.83,444.87Z" style="fill:#263238"></path><path d="M346.6,425c5.19-2.49,9.08,5.57,3.87,8.07S341.4,427.53,346.6,425Z" style="fill:#263238"></path><path d="M294.2,432.2c4.05,2,8.83,2.2,13.22,2.89.45.07.71-.4.65-.78a.13.13,0,0,0,.08-.2,26.85,26.85,0,0,0-9.92-9.79c-2.41-1.31-6.28-1.78-7.68,1.29C289.23,428.51,291.83,431,294.2,432.2Zm-2.07-3.72c-2-5.25,4.43-3.58,6.18-2.54a27.75,27.75,0,0,1,3.19,2.3,78.1,78.1,0,0,1,5.92,5.59c-2.14-.47-4.29-.75-6.45-1.14C298.41,432.22,293.22,431.37,292.13,428.48Z" style="fill:#263238"></path><path d="M323.14,423.22c-1.83-2.84-5.58-1.83-7.79-.18a27,27,0,0,0-8.43,11.09.14.14,0,0,0,.11.19c0,.38.31.81.75.67,4.25-1.29,9-2.16,12.68-4.72C322.64,428.77,324.86,425.91,323.14,423.22Zm-9.32,8.49c-2.07.69-4.17,1.27-6.22,2a79.53,79.53,0,0,1,5.07-6.37,28.18,28.18,0,0,1,2.84-2.73c1.57-1.28,7.68-3.84,6.47,1.64C321.31,429.31,316.29,430.89,313.82,431.71Z" style="fill:#263238"></path><path d="M359,434.59c-1.42,2.29-43.64,23.06-63.48,32.27l56.34-51.63C356.37,425.53,359.6,433.62,359,434.59Z" style="opacity:0.1"></path><path d="M346,400.91l-46.53,20.35s-33.68-58-31.05-81.43c2.95-26.3,31.28-104.34,31.28-104.34h52.43s-29.66,76.4-31.48,103.41C319.9,349.54,346,400.91,346,400.91Z" style="fill:#263238"></path><path d="M339.28,394.35c-7.15,2.52-14.2,5.4-21.18,8.37-3.47,1.48-6.93,3-10.38,4.47s-6.92,3.26-10.39,4.91a.11.11,0,0,0,.09.2c3.6-1.32,7.2-2.57,10.76-4s7-2.85,10.45-4.29c7-2.92,14-5.95,20.8-9.31A.19.19,0,0,0,339.28,394.35Z" style="fill:#37474f"></path><path d="M317.75,354.48c-.89-2.51-1.75-5-2.6-7.54a33.52,33.52,0,0,1-1.94-7.74,26.2,26.2,0,0,1,1.08-8.43c.65-2.6,15.28-44.16,18.53-54.5q5.51-17.52,11.63-34.83c.13-.36-.45-.5-.58-.14-7.47,20.61-29.08,83.83-29.78,86.54a58.36,58.36,0,0,0-1.72,7.82c-.62,5.28,1.41,10.26,3.08,15.17,1.75,5.14,11.61,30.48,17,41.35.06.12.25,0,.21-.09C328.58,382.17,319.55,359.6,317.75,354.48Z" style="fill:#37474f"></path><path d="M294.11,473.92c2.67.87,78.84.13,81.73-1.73,1.1-.7,1.64-11.8,1.91-25.23.06-2.9.1-5.9.13-8.94.2-19.75-.05-40.71-.05-40.71l-51,.34,1.46,40.71.31,8.93s-29,13.32-32,15.71S291.44,473.06,294.11,473.92Z" style="fill:#ffc4c0"></path><path d="M294.11,473.92c2.67.87,78.84.13,81.73-1.73,1.33-.86,1.85-17.07,2-34.17l-49.55.34.31,8.93s-29,13.32-32,15.71S291.44,473.06,294.11,473.92Z" style="fill:#fff"></path><path d="M294.11,473.92c2.67.87,78.84.13,81.73-1.73,1.1-.7,1.64-11.8,1.91-25.23l-49.11.33s-29,13.32-32,15.71S291.44,473.06,294.11,473.92Z" style="fill:#ECEFF1"></path><path d="M295.17,470.87c12.77-.44,64.3-1,76.95-.46.1,0,.1.08,0,.08-12.64.71-64.17.85-76.94.58C294.91,471.07,294.91,470.87,295.17,470.87Z" style="fill:#263238"></path><path d="M301.53,460.21a10.28,10.28,0,0,1,7.67,3.05,9.9,9.9,0,0,1,2.91,6.79c0,.07-.14.07-.15,0a11.85,11.85,0,0,0-10.43-9.68A.08.08,0,0,1,301.53,460.21Z" style="fill:#263238"></path><path d="M323.7,448.61c5.11-.12,11.05,1.62,14.27,5.77.12.16-.11.34-.26.26a70.68,70.68,0,0,0-14.09-5.4A.32.32,0,0,1,323.7,448.61Z" style="fill:#263238"></path><path d="M319.77,450.18c5.11-.12,11.05,1.63,14.27,5.78.12.16-.11.34-.26.26a70.71,70.71,0,0,0-14.09-5.41A.32.32,0,0,1,319.77,450.18Z" style="fill:#263238"></path><path d="M315.84,451.76c5.11-.12,11.05,1.63,14.27,5.78.12.16-.11.33-.26.25a70.68,70.68,0,0,0-14.09-5.4A.32.32,0,0,1,315.84,451.76Z" style="fill:#263238"></path><path d="M311.91,453.34c5.11-.12,11,1.62,14.27,5.77.12.16-.11.34-.26.26a70.3,70.3,0,0,0-14.09-5.4A.32.32,0,0,1,311.91,453.34Z" style="fill:#263238"></path><path d="M368.75,458.32c5.74,0,5.8,8.87.06,8.91S363,458.35,368.75,458.32Z" style="fill:#263238"></path><path d="M318.52,442.51c2.8,3.53,7,5.73,10.68,8.21a.63.63,0,0,0,.92-.42.14.14,0,0,0,.16-.15,26.91,26.91,0,0,0-4.77-13c-1.62-2.21-4.9-4.28-7.47-2.11S316.89,440.45,318.52,442.51Zm-.27-4.23c.45-5.57,5.51-1.34,6.64.33a30.18,30.18,0,0,1,1.9,3.43c1.19,2.45,2,5,2.95,7.55-1.73-1.33-3.55-2.5-5.32-3.76C322.31,444.32,318,441.35,318.25,438.28Z" style="fill:#263238"></path><path d="M348.39,446.72c-.43-3.33-4.24-4-6.93-3.47a26.79,26.79,0,0,0-12.3,6.4.14.14,0,0,0,0,.22.61.61,0,0,0,.39.92c4.38.64,9,1.86,13.42,1.14C345.59,451.5,348.8,449.87,348.39,446.72Zm-12,3.68c-2.16-.26-4.29-.62-6.46-.81,2.4-1.24,4.74-2.58,7.26-3.58a30.66,30.66,0,0,1,3.72-1.25c2-.48,8.54-.19,5.13,4.23C344.17,451.42,339,450.71,336.4,450.4Z" style="fill:#263238"></path><path d="M380,435.72H327.08s-1.44-55.26-3.37-75.26c-2-21.27-2.24-87.74-2.24-87.74l-6-1.89c-7.45-4.71-15-28.73-15.86-35.34h69.2s10.09,28.81,4.69,46.63c0,0,.27,62.63,1.4,73.86C377.09,377.1,380,435.72,380,435.72Z" style="fill:#263238"></path><path d="M313.9,269.89A116.29,116.29,0,0,1,330,275.67c.2.08.07.32-.15.25-5.43-1.79-11-3.51-16.26-5.54C313.19,270.23,313.47,269.77,313.9,269.89Z" style="fill:#37474f"></path><path d="M312.17,241.19c0-.14.35-.17.35,0a105.32,105.32,0,0,0,.91,14c.25,2.16,2.5,14.06,7.35,13.19.81-.14,1.23-.76,1.35-1.7a11.69,11.69,0,0,0-.64-3.65,74,74,0,0,1-1.25-7.51,52.69,52.69,0,0,1,.2-14.08c0-.15.31-.14.31,0a99.87,99.87,0,0,0,1.48,19.44c.6,3.1,2.63,7.76-1.57,8.23s-7.06-7.32-7.58-9.45A55.19,55.19,0,0,1,312.17,241.19Z" style="fill:#37474f"></path><path d="M320.65,268.65a16.87,16.87,0,0,1,1.09,2.47,4.45,4.45,0,0,1,.45,2c0,.13-.24.14-.33.05a6.38,6.38,0,0,1-1.13-2c-.37-.76-.76-1.52-1.1-2.29C319.41,268.43,320.38,268.16,320.65,268.65Z" style="fill:#37474f"></path><path d="M376.28,426c-7.57-.47-15.19-.56-22.77-.54-3.77,0-7.54,0-11.3.08s-7.65.3-11.48.47a.11.11,0,1,0,0,.22c3.83.18,7.63.44,11.47.51s7.53.09,11.3.11c7.58.05,15.2,0,22.78-.47A.19.19,0,0,0,376.28,426Z" style="fill:#37474f"></path><path d="M321.6,272.52a.18.18,0,0,0-.35,0c-.34,17.37,3.4,122.62,4.58,133.1a.11.11,0,0,0,.22,0C325.88,396.22,322.35,277.73,321.6,272.52Z" style="fill:#37474f"></path><path d="M362.9,260.29c-4.83-.64-10-1.27-13.27-5.29a18.06,18.06,0,0,1-3.19-6.36c-.77-2.6-1-5.32-1.81-7.92,0-.1-.17-.06-.18,0a26.08,26.08,0,0,0,1,8.7,17,17,0,0,0,3.39,6.47c3.52,4.05,9,4.67,14,4.61C363,260.53,363,260.31,362.9,260.29Z" style="fill:#37474f"></path><path d="M367.26,297.57c-.36-6.27-.74-12.46.77-18.62a51.93,51.93,0,0,0,1.71-9.9,64.67,64.67,0,0,0-.42-10.41,102.42,102.42,0,0,0-4.14-19.82.18.18,0,0,0-.34.11,110.38,110.38,0,0,1,3.66,18.26c.7,6.23,1,12.63-.5,18.75a56.11,56.11,0,0,0-1.76,8.68,63.6,63.6,0,0,0,0,8.84c.31,6.38,3.9,115.28,5.33,129.6a.12.12,0,0,0,.23,0C371.22,410.22,367.64,304,367.26,297.57Z" style="fill:#37474f"></path><path d="M336.48,159.6c-.38,1.33-7.23,9.73-13.36,9.14-2-.2-1.41-11.14-1.41-11.14l-.14-.82-2-11.44,15.7-8.9S336.63,159,336.48,159.6Z" style="fill:#ffc4c0"></path><path d="M319.61,145.34l2,11.44.14.82s-.11,2-.08,4.27c8.43-.83,12.58-6.92,14.47-11.18-.35-6.52-.8-14.25-.8-14.25Z" style="fill:#263238"></path><path d="M322.77,99.66l-18.71,18.5S305.67,90.64,322.77,99.66Z" style="fill:#263238"></path><path d="M303.74,117.42c-11.32,24.23,1.92,33.75,7.15,36.18,4.74,2.21,21.18,9.13,34.94-13.8s6.08-35.85-4.51-41.48S315.06,93.19,303.74,117.42Z" style="fill:#ffc4c0"></path><path d="M307.63,136a7,7,0,0,0,1.92,3,3.19,3.19,0,0,0,1.76.75c1.43.11,1.88-1.07,2-2.18a7.74,7.74,0,0,0,0-1.77A9.09,9.09,0,0,1,307.63,136Z" style="fill:#fff"></path><path d="M313.29,137.66a2.74,2.74,0,0,1-.05.28,5.84,5.84,0,0,1-1.62.17C312.19,138,312.74,137.82,313.29,137.66Z" style="fill:#dbdbdb"></path><path d="M310.45,138.17a6.26,6.26,0,0,1-1.72-.12,2.09,2.09,0,0,1-.24-.33C309.13,137.87,309.79,138,310.45,138.17Z" style="fill:#dbdbdb"></path><path d="M308.2,121c-2.74-1.13-4.8,4.44-2.26,5.49S310.5,122,308.2,121Z" style="fill:#263238"></path><path d="M320.76,126.35c2.79,1,.52,6.52-2.06,5.57S318.43,125.49,320.76,126.35Z" style="fill:#263238"></path><path d="M307.55,117.66c.61.15,1.21.19,1.83.28a3,3,0,0,0,1.91-.07,1,1,0,0,0,.41-1.09,2.36,2.36,0,0,0-2-1.34,3.54,3.54,0,0,0-2.47.38A1,1,0,0,0,307.55,117.66Z" style="fill:#263238"></path><path d="M323.32,125.16a15.86,15.86,0,0,1-1.11-1.48,2.91,2.91,0,0,1-.85-1.72.94.94,0,0,1,.76-.87,2.35,2.35,0,0,1,2.12,1.11,3.42,3.42,0,0,1,.83,2.35A1,1,0,0,1,323.32,125.16Z" style="fill:#263238"></path><path d="M313.65,141.54a2.8,2.8,0,0,1-1.79.56,4.73,4.73,0,0,1-1.72-1,.07.07,0,0,0-.11.07,2.47,2.47,0,0,0,1.91,1.64,1.94,1.94,0,0,0,1.85-1.11C313.85,141.58,313.73,141.5,313.65,141.54Z" style="fill:#263238"></path><path d="M308.11,131.92s-1.31,2.4-1.77,3.6c0,.12.23.28.63.46l0,0a6.12,6.12,0,0,0,6.35,0c.13-.08,0-.26-.12-.23a9.2,9.2,0,0,1-5.77-.49c0-.36,2.41-4.1,2.21-4.13-.85-.17-2.39-.35-3-.42.82-1.59,3.37-6,4.86-8.86.1-.18-.17-.35-.28-.19a85.39,85.39,0,0,0-6.2,9.61C305,131.52,307.56,131.94,308.11,131.92Z" style="fill:#263238"></path><path d="M341.59,141.11c-6.33-1.68-.48-13.54-.48-13.54s-9.66-2.83-4.45-17.41c0,0-13.08.28-20-5.31s-2.3-19.66.13-19.81,6.25,3.7,6.25,3.7.4-5.75,3.16-4a12,12,0,0,1,4.06,5.1s21.65,4.63,27.31,15.34c2.53,4.79,0,10.12,0,10.12s5.25,4.48,3.38,9.48S349,143.07,341.59,141.11Z" style="fill:#263238"></path><path d="M337.64,107.56c.08-.11.25,0,.18.1-4.75,7.65-5.6,17.93,4.77,20.65.3.08.17.51-.13.47a10.8,10.8,0,0,1-8.66-7.39C332.14,116.28,334.64,111.56,337.64,107.56Z" style="fill:#263238"></path><path d="M316.55,85.58c.05,0,.08.06,0,.08-2.94,1.39-3.95,6.92-4.21,9.87a11.62,11.62,0,0,0,3.59,9.7c4.69,4.26,12.35,4.53,18.35,4.34.39,0,.13.36-.25.39-7.19.58-18.2-.17-21.46-8a16.25,16.25,0,0,1-.33-10.11C312.87,89.63,314,86.15,316.55,85.58Z" style="fill:#263238"></path><path d="M338.46,136.35s8.35-5.84,11.19-2.58-5.43,13.11-10.18,13.14a4.51,4.51,0,0,1-4.85-4.36Z" style="fill:#ffc4c0"></path><path d="M347.21,136.54c.07,0,.05.11,0,.12-3.36.11-5.9,2.26-8,4.68,1.26-.76,2.67-.92,3.74.65.06.08-.06.17-.14.12a2.8,2.8,0,0,0-3.21-.14,12.94,12.94,0,0,0-2.22,1.83c-.24.21-.66-.1-.45-.37l0-.06C338.25,139.61,343.06,135.45,347.21,136.54Z" style="fill:#263238"></path><path d="M370.81,240.2C370.86,240.12,298,238,298,238a11.52,11.52,0,0,1-1.52-9.1c3.42-14.37,13.72-44.19,21.37-62.25,4.6-10.86,17-12.92,23.61-5.85,13,13.94,27,51.13,30.47,68.45A18.52,18.52,0,0,1,370.81,240.2Z" style="fill:#455a64"></path><path d="M332.43,158c-7.41-.73-52.6,1.73-56.49,4.59-6.09,4.46-20.29,18.32-5.62,28.31,10.16,6.91,44.94-9.32,61.74-18.09C342.47,167.32,345.66,159.26,332.43,158Z" style="fill:#ffc4c0"></path><path d="M275.57,130.27c-2.44-3.41-32.09.9-30.9,7,5.54,28.32,19.22,48.78,23.82,52.23,6,4.51,14.72.85,17.09-3.47C289,179.73,278,133.66,275.57,130.27Z" style="fill:#ffc4c0"></path><path d="M277.33,135.54s1.11-13.22,1.79-22.09c.38-5,.28-13.5-1.1-17.26-2.07-5.63-14.32-27.86-19.78-25-4.93,2.59,8,20.35,8,20.35S254.77,72.45,249.4,76.66,261.33,99,261.33,99s-12.24-19.34-17.09-14.12c-3.67,3.93,11.07,21.23,11.07,21.23s-10.63-16.55-14.58-12.66c-4.36,4.3,8.25,21.12,8.25,21.12-8.37,11.57-6,21.1-2.93,28.44Z" style="fill:#ffc4c0"></path><path d="M270.65,97.87c-1.27-2.29-2.54-4.61-4-6.78s-3-4.29-4.68-6.31a44.58,44.58,0,0,0-7.21-7.26c4.47,4.14,9.84,11.82,11.31,14s3,4.26,4.5,6.42C270.61,98,270.68,97.93,270.65,97.87Z" style="fill:#263238"></path><path d="M262.91,103.31c-1.74-2.85-3.37-5.75-5.24-8.53s-3.87-5.22-5.92-7.85c-.16-.2-.22-.05-.07.16,1.95,2.71,3.53,5.36,5.44,8.09s3.93,5.39,5.73,8.18C262.88,103.4,262.94,103.35,262.91,103.31Z" style="fill:#263238"></path><path d="M257.11,109.17a74.63,74.63,0,0,0-9-12.42c-.17-.2-.22,0-.06.22,3.07,4.07,5.51,7.24,8.92,12.29C257,109.34,257.17,109.27,257.11,109.17Z" style="fill:#263238"></path><path d="M278.86,138.7l-37.34,9.18s16.66,41.17,30.32,44.6,42.44-8.73,59.39-18.15,11.29-17.93-3.61-17-42.86,1.56-42.86,1.56Z" style="fill:#455a64"></path><path d="M248,155.58c13.44-5.05,28.33-8.32,30.88-9.07.12,0,.17.16,0,.19-2.54.61-19.15,6.19-30.87,9.09C247.94,155.83,247.9,155.63,248,155.58Z" style="fill:#263238"></path><path d="M310.78,184.17c5.59-2.56,16.3-7.63,17-8,.1,0,.23.1.14.17a47.74,47.74,0,0,1-6.53,3.78c2.49-.67,3.89-.93,6.32-1.71.1,0,.18.13.08.17a62.54,62.54,0,0,1-8.55,2.68A77.39,77.39,0,0,1,310.78,184.17Z" style="fill:#263238"></path></g><g id="freepik--Lines--inject-879"><path d="M258.75,58.57a114.14,114.14,0,0,1,5.61-20.88,113.56,113.56,0,0,1-5.61,20.88Z" style="fill:#263238"></path><path d="M238.77,61.19A113.94,113.94,0,0,1,228,42.46a113.12,113.12,0,0,1,10.8,18.73Z" style="fill:#263238"></path><path d="M227.63,73.51a114.36,114.36,0,0,1-20.88-5.61,113.34,113.34,0,0,1,20.88,5.61Z" style="fill:#263238"></path><path d="M227.81,90.33a56.18,56.18,0,0,1-13.16,7.59,56.18,56.18,0,0,1,13.16-7.59Z" style="fill:#263238"></path><path d="M279.82,88.35a51.92,51.92,0,0,1,12.83,7,52.43,52.43,0,0,1-12.83-7Z" style="fill:#263238"></path><path d="M274.74,70.85a113.12,113.12,0,0,1,18.73-10.8,114.67,114.67,0,0,1-18.73,10.8Z" style="fill:#263238"></path><path d="M218.1,66.18a20.53,20.53,0,0,1,8.38,3.66,20.47,20.47,0,0,1-8.38-3.66Z" style="fill:#263238"></path><path d="M271.86,39.14a181.35,181.35,0,0,1-12.25,24.31,180.76,180.76,0,0,1,12.25-24.31Z" style="fill:#263238"></path><path d="M281.29,75.44a119.88,119.88,0,0,1,22-1.94,118.09,118.09,0,0,1-22,1.94Z" style="fill:#263238"></path><path d="M224.65,87.63a85.16,85.16,0,0,1-17.93,5.53,85.75,85.75,0,0,1,17.93-5.53Z" style="fill:#263238"></path></g><g id="freepik--speech-bubble--inject-879"><path d="M84.35,77.11a34.42,34.42,0,0,0,57.51,21.78l17.23,2.52-8.62-14.88a34.43,34.43,0,1,0-66.12-9.42Z" style="fill:#fff"></path><path d="M94.65,48.68a35.31,35.31,0,0,1,13.28-8.14,34.82,34.82,0,0,1,43.16,46.24l0-.59,8.56,14.92.64,1.1L159,102l-17.21-2.64.41-.13a34.74,34.74,0,0,1-17,8.41,30.63,30.63,0,0,1-4.77.5,33.18,33.18,0,0,1-4.78-.1,34.36,34.36,0,0,1-9.27-2.21,33.94,33.94,0,0,1-8.3-4.62,38,38,0,0,1-3.63-3.07,38,38,0,0,1-3.12-3.6,34.62,34.62,0,0,1,3.35-45.88ZM91.4,94.48a30.52,30.52,0,0,0,6.77,6.59,31.74,31.74,0,0,0,8.3,4.48,33.76,33.76,0,0,0,9.19,2,32.2,32.2,0,0,0,4.71,0A29.21,29.21,0,0,0,125,107a33.81,33.81,0,0,0,16.49-8.49l.17-.16.24,0,17.23,2.41-.61.91-8.67-14.86-.16-.28.12-.31a34,34,0,0,0-1.95-29.56,35.23,35.23,0,0,0-10.3-11.23,33.68,33.68,0,0,0-14.21-5.62A34.23,34.23,0,0,0,108.08,41a34.18,34.18,0,0,0-23.73,36.1A34.58,34.58,0,0,0,91.4,94.48Z" style="fill:#263238"></path><path d="M104,80a45.07,45.07,0,0,0,14.46,12.55A45.07,45.07,0,0,0,132.91,80c5.09-6.73,4.84-17.28-2.44-19.56-8.06-2.52-12,9.6-12,9.6s-4-12.2-12-9.6C99.18,62.82,98.9,73.29,104,80Z" style="fill:#ECEFF1"></path></g></svg>
