<svg xmlns="http://www.w3.org/2000/svg" viewBox="0 0 500 500"><g id="freepik--background-complete--inject-656"><rect x="402.07" y="390.7" width="35.16" height="11.19" transform="translate(839.3 792.6) rotate(180)" style="fill:#ebebeb"></rect><rect x="250.96" y="353.27" width="35.16" height="11.19" transform="translate(537.07 717.73) rotate(180)" style="fill:#ebebeb"></rect><path d="M421.68,416c5.84-.09,20.81-.34,26.45-.41l8.71,0-.46.45,0-11.19.5.5c-5.84,0-20.73-.07-26.37-.15l-8.79-.11.24-.24L421.68,416Zm0,0-.23-11.19v-.23h.24c4.39-.06,13.2-.16,17.58-.2l17.58-.06h.5v.5l0,11.19v.46h-.45l-8.87,0c-5.6-.06-20.5-.32-26.29-.42Z" style="fill:#ebebeb"></path><path d="M254.5,114.4c5.84-.1,20.81-.35,26.45-.41l8.71,0-.46.45,0-11.19.5.5c-5.84,0-20.73-.07-26.37-.15l-8.79-.11.24-.24-.24,11.19Zm0,0-.24-11.19V103h.24l17.58-.19,17.58-.07h.5v.5l-.05,11.19v.46h-.45l-8.87,0c-5.6-.06-20.51-.31-26.29-.41Z" style="fill:#ebebeb"></path><path d="M274.11,128.51c5.84-.1,20.81-.35,26.45-.41l8.71,0-.46.45,0-11.19.5.5c-5.84,0-20.73-.07-26.37-.15l-8.79-.11.24-.24-.24,11.19Zm0,0-.24-11.19v-.23h.24l17.58-.19,17.58-.07h.5v.5l0,11.19V129h-.45l-8.87-.05c-5.6-.06-20.51-.31-26.29-.41Z" style="fill:#ebebeb"></path><rect x="293.65" y="103.21" width="35.16" height="11.19" transform="translate(622.45 217.61) rotate(180)" style="fill:#ebebeb"></rect><rect x="43.16" y="404.81" width="35.16" height="11.19" transform="translate(121.48 820.82) rotate(180)" style="fill:#ebebeb"></rect><rect x="62.77" y="44.93" width="35.16" height="11.19" transform="translate(160.7 101.06) rotate(180)" style="fill:#ebebeb"></rect><path d="M43.16,70.23c5.84-.1,20.81-.35,26.45-.41l8.71,0-.46.45,0-11.19.5.5c-5.84,0-20.73-.07-26.37-.15l-8.79-.11L43.4,59l-.24,11.19Zm0,0L42.92,59v-.23h.24c4.39-.06,13.19-.16,17.58-.2l17.58-.07h.5V59l0,11.19v.46h-.45l-8.87,0c-5.6-.07-20.51-.32-26.29-.42Z" style="fill:#ebebeb"></path><path d="M402.07,56.12c5.84-.1,20.81-.34,26.45-.41l8.71,0-.46.45,0-11.19.5.5-17.58-.07c-4.38,0-13.2-.13-17.58-.19l.24-.24-.24,11.19Zm0,0-.24-11.19V44.7h.24c4.39-.06,13.2-.16,17.58-.2l17.58-.07h.5v.5l-.05,11.19v.46h-.45l-8.87,0c-5.6-.07-20.5-.32-26.29-.42Z" style="fill:#ebebeb"></path><path d="M57.66,62.59V286.51H203.2V62.59ZM197.82,281.14H63V68H197.82Z" style="fill:#ebebeb"></path><rect x="63.03" y="67.97" width="134.79" height="213.17" style="fill:#fff"></rect><rect x="63.02" y="171.86" width="134.8" height="5.37" transform="translate(260.85 349.1) rotate(180)" style="fill:#ebebeb"></rect><path d="M184.65,243.26a2.64,2.64,0,0,1,1.77,3.77,2.62,2.62,0,0,1-4.87-1.76A2.66,2.66,0,0,1,184.65,243.26Z" style="fill:#ebebeb"></path><path d="M128.21,101.17a2.6,2.6,0,1,1-3.11,2A2.63,2.63,0,0,1,128.21,101.17Z" style="fill:#ebebeb"></path><path d="M77,236.86a2.6,2.6,0,1,1-3.1,2A2.63,2.63,0,0,1,77,236.86Z" style="fill:#ebebeb"></path><path d="M138.93,215.59a2.63,2.63,0,0,1,1.77,3.76,2.62,2.62,0,0,1-4.87-1.76A2.64,2.64,0,0,1,138.93,215.59Z" style="fill:#ebebeb"></path><path d="M179.28,79.66a2.6,2.6,0,1,1-3.1,2A2.63,2.63,0,0,1,179.28,79.66Z" style="fill:#ebebeb"></path><path d="M149.05,142.6a2.6,2.6,0,1,1-3.1,2A2.62,2.62,0,0,1,149.05,142.6Z" style="fill:#ebebeb"></path><path d="M90.91,217.91a1.44,1.44,0,0,1,1,2.07,1.4,1.4,0,0,1-1.38.75A1.43,1.43,0,0,1,89.2,219,1.46,1.46,0,0,1,90.91,217.91Z" style="fill:#ebebeb"></path><path d="M182.47,190.89a1.45,1.45,0,0,1,1,2.07,1.41,1.41,0,0,1-1.38.75,1.43,1.43,0,0,1-1.29-1.72A1.45,1.45,0,0,1,182.47,190.89Z" style="fill:#ebebeb"></path><path d="M116.62,243.79a1.44,1.44,0,0,1,1,2.07,1.42,1.42,0,0,1-1.38.76,1.43,1.43,0,1,1,.41-2.83Z" style="fill:#ebebeb"></path><path d="M179.35,117.25a1.43,1.43,0,1,1-1.38,1.48A1.45,1.45,0,0,1,179.35,117.25Z" style="fill:#ebebeb"></path><path d="M153.4,224a1.44,1.44,0,0,1,1.44,1.77,1.42,1.42,0,0,1-1.15,1.07,1.45,1.45,0,0,1-1.68-1.36A1.47,1.47,0,0,1,153.4,224Z" style="fill:#ebebeb"></path><path d="M78.61,142.16a1.44,1.44,0,0,1,1,2.07,1.44,1.44,0,0,1-2.67-1A1.44,1.44,0,0,1,78.61,142.16Z" style="fill:#ebebeb"></path><path d="M84.11,213a1,1,0,0,1,.64,1.37.94.94,0,0,1-.92.5,1,1,0,0,1-.86-1.14A1,1,0,0,1,84.11,213Z" style="fill:#ebebeb"></path><path d="M117.36,144.06a.95.95,0,1,1-1.14.73A1,1,0,0,1,117.36,144.06Z" style="fill:#ebebeb"></path><path d="M190.14,219.81a1,1,0,0,1,.64,1.38,1,1,0,0,1-1.77-.65A1,1,0,0,1,190.14,219.81Z" style="fill:#ebebeb"></path><path d="M129.64,258.76a1,1,0,0,1,.64,1.37.93.93,0,0,1-.91.5,1,1,0,0,1-.86-1.14A1,1,0,0,1,129.64,258.76Z" style="fill:#ebebeb"></path><path d="M91.34,183.78a1,1,0,0,1,.64,1.37.94.94,0,0,1-.92.5,1,1,0,0,1-.86-1.14A1,1,0,0,1,91.34,183.78Z" style="fill:#ebebeb"></path><path d="M192.09,259.62a.95.95,0,1,1-1.13.73A1,1,0,0,1,192.09,259.62Z" style="fill:#ebebeb"></path><path d="M87.7,133.06a1,1,0,0,1,.64,1.37,1,1,0,1,1-.64-1.37Z" style="fill:#ebebeb"></path><path d="M171.65,185.05a.95.95,0,1,1-1.14.73A1,1,0,0,1,171.65,185.05Z" style="fill:#ebebeb"></path><path d="M121.41,85.13a.95.95,0,0,1-.28,1.87.95.95,0,1,1,.28-1.87Z" style="fill:#ebebeb"></path><path d="M91.19,97a.91.91,0,0,1-1-1,.93.93,0,1,1,1.85-.11A1,1,0,0,1,91.19,97Z" style="fill:#ebebeb"></path><path d="M79.61,87.64a.91.91,0,0,1-1-1,.89.89,0,0,1,.88-1,.87.87,0,0,1,1,.92A.94.94,0,0,1,79.61,87.64Z" style="fill:#ebebeb"></path><path d="M82.2,98.31a.91.91,0,0,1-1.37-.07.93.93,0,1,1,1.31-1.31A1,1,0,0,1,82.2,98.31Z" style="fill:#ebebeb"></path><path d="M89.59,86.08A.9.9,0,0,1,88.23,86a.92.92,0,1,1,1.3-1.31A.94.94,0,0,1,89.59,86.08Z" style="fill:#ebebeb"></path><path d="M81.9,81.2A1.24,1.24,0,0,1,83,79.68a1.28,1.28,0,1,1,.54,2.49A1.3,1.3,0,0,1,81.9,81.2Z" style="fill:#ebebeb"></path><path d="M86.4,102.39a1.24,1.24,0,0,1,1.09-1.52,1.28,1.28,0,1,1,.54,2.49A1.3,1.3,0,0,1,86.4,102.39Z" style="fill:#ebebeb"></path><path d="M76,92.06a1.23,1.23,0,0,1,1.49,1.13,1.27,1.27,0,1,1-2.49.48A1.29,1.29,0,0,1,76,92.06Z" style="fill:#ebebeb"></path><path d="M94.05,88.52a1.24,1.24,0,0,1,1.5,1.13,1.27,1.27,0,1,1-2.5.48A1.3,1.3,0,0,1,94.05,88.52Z" style="fill:#ebebeb"></path><path d="M87.52,101.36a99,99,0,0,1-2.63-10.12,96.39,96.39,0,0,1-1.65-10.32A97.07,97.07,0,0,1,85.87,91,96.39,96.39,0,0,1,87.52,101.36Z" style="fill:#ebebeb"></path><path d="M93.67,89.9A66,66,0,0,1,85.3,92a64.21,64.21,0,0,1-8.56,1.1A66.13,66.13,0,0,1,85.12,91,64.27,64.27,0,0,1,93.67,89.9Z" style="fill:#ebebeb"></path><path d="M82,97.42a44.11,44.11,0,0,1,6.57-11.49,37.86,37.86,0,0,1-2.86,6A39.56,39.56,0,0,1,82,97.42Z" style="fill:#ebebeb"></path><path d="M90.56,95.57A40.5,40.5,0,0,1,85,91.77,39.69,39.69,0,0,1,80,87.19,40.22,40.22,0,0,1,85.61,91,41.14,41.14,0,0,1,90.56,95.57Z" style="fill:#ebebeb"></path><path d="M135.09,164.44a.61.61,0,0,1-.62-.69.6.6,0,0,1,.65-.66.6.6,0,0,1,.61.67A.64.64,0,0,1,135.09,164.44Z" style="fill:#ebebeb"></path><path d="M127.7,157.55a.68.68,0,1,1,.65-.68A.64.64,0,0,1,127.7,157.55Z" style="fill:#ebebeb"></path><path d="M128.92,164.91a.61.61,0,0,1-.92-.11A.63.63,0,1,1,129,164,.63.63,0,0,1,128.92,164.91Z" style="fill:#ebebeb"></path><path d="M134.54,157a.62.62,0,0,1-.92-.12.6.6,0,0,1,0-.92.59.59,0,0,1,.9.1A.64.64,0,0,1,134.54,157Z" style="fill:#ebebeb"></path><path d="M129.57,153.31a.85.85,0,0,1,.82-1,.86.86,0,1,1,.24,1.71A.88.88,0,0,1,129.57,153.31Z" style="fill:#ebebeb"></path><path d="M131.56,167.89a.84.84,0,0,1,.82-1,.86.86,0,1,1,.24,1.71A.89.89,0,0,1,131.56,167.89Z" style="fill:#ebebeb"></path><path d="M125,160.37a.84.84,0,0,1,1,.84.87.87,0,1,1-1.72.2A.88.88,0,0,1,125,160.37Z" style="fill:#ebebeb"></path><path d="M137.45,158.87a.85.85,0,0,1,1,.84.83.83,0,0,1-.77,1,.82.82,0,0,1-.95-.81A.88.88,0,0,1,137.45,158.87Z" style="fill:#ebebeb"></path><path d="M132.38,167.25a67,67,0,0,1-1.28-7,64.17,64.17,0,0,1-.6-7.08,75.79,75.79,0,0,1,1.88,14.07Z" style="fill:#ebebeb"></path><path d="M137.12,159.79a45.63,45.63,0,0,1-5.78,1,43.93,43.93,0,0,1-5.85.31,51.58,51.58,0,0,1,11.63-1.3Z" style="fill:#ebebeb"></path><path d="M128.81,164.3a29.42,29.42,0,0,1,5-7.45,26.93,26.93,0,0,1-2.24,3.91A25.54,25.54,0,0,1,128.81,164.3Z" style="fill:#ebebeb"></path><path d="M134.72,163.48a26.88,26.88,0,0,1-3.58-2.86,27.64,27.64,0,0,1-3.13-3.35,27.64,27.64,0,0,1,3.59,2.86A26.79,26.79,0,0,1,134.72,163.48Z" style="fill:#ebebeb"></path><path d="M188.4,239.53a.61.61,0,0,1-.2-.9.59.59,0,0,1,.88-.27.61.61,0,0,1,.22.89A.65.65,0,0,1,188.4,239.53Z" style="fill:#ebebeb"></path><path d="M185.26,229.93a.68.68,0,1,1,.9-.28A.65.65,0,0,1,185.26,229.93Z" style="fill:#ebebeb"></path><path d="M182.77,237a.63.63,0,0,1-.75-.55.6.6,0,0,1,.48-.78.59.59,0,0,1,.75.52A.64.64,0,0,1,182.77,237Z" style="fill:#ebebeb"></path><path d="M191.52,232.75a.68.68,0,0,1-.26-1.33.59.59,0,0,1,.74.52A.64.64,0,0,1,191.52,232.75Z" style="fill:#ebebeb"></path><path d="M189,227.12a.84.84,0,0,1,1.18-.46.86.86,0,1,1-.62,1.61A.86.86,0,0,1,189,227.12Z" style="fill:#ebebeb"></path><path d="M183.65,240.85a.84.84,0,0,1,1.19-.46.87.87,0,1,1-.62,1.62A.89.89,0,0,1,183.65,240.85Z" style="fill:#ebebeb"></path><path d="M181.56,231.1a.85.85,0,0,1,.43,1.2.86.86,0,1,1-1.6-.65A.88.88,0,0,1,181.56,231.1Z" style="fill:#ebebeb"></path><path d="M193.16,235.8a.84.84,0,0,1,.43,1.19.86.86,0,1,1-1.6-.65A.89.89,0,0,1,193.16,235.8Z" style="fill:#ebebeb"></path><path d="M184.67,240.68a74.82,74.82,0,0,1,5.15-13.22,74.82,74.82,0,0,1-5.15,13.22Z" style="fill:#ebebeb"></path><path d="M192.43,236.44a44.25,44.25,0,0,1-5.54-1.93,42.72,42.72,0,0,1-5.28-2.55,51.17,51.17,0,0,1,10.82,4.48Z" style="fill:#ebebeb"></path><path d="M183,236.37a27.72,27.72,0,0,1,3.85-2.35,26.27,26.27,0,0,1,4.16-1.74,27.14,27.14,0,0,1-3.85,2.35A26.27,26.27,0,0,1,183,236.37Z" style="fill:#ebebeb"></path><path d="M188.55,238.51a31.07,31.07,0,0,1-2.88-8.68,26.91,26.91,0,0,1,1.76,4.24A27.75,27.75,0,0,1,188.55,238.51Z" style="fill:#ebebeb"></path><path d="M93.31,259.71a.91.91,0,0,1-.41-1.3.93.93,0,1,1,1.69.78A1,1,0,0,1,93.31,259.71Z" style="fill:#ebebeb"></path><path d="M87.55,246a.92.92,0,0,1-.41-1.31.93.93,0,1,1,1.68.78A.94.94,0,0,1,87.55,246Z" style="fill:#ebebeb"></path><path d="M84.75,256.63a.91.91,0,0,1-1.17-.71.93.93,0,1,1,1.77-.53A.94.94,0,0,1,84.75,256.63Z" style="fill:#ebebeb"></path><path d="M97.07,249.39a.91.91,0,0,1-1.17-.71.93.93,0,1,1,1.77-.53A.94.94,0,0,1,97.07,249.39Z" style="fill:#ebebeb"></path><path d="M92.62,241.44a1.24,1.24,0,0,1,1.69-.82,1.28,1.28,0,1,1-.72,2.45A1.3,1.3,0,0,1,92.62,241.44Z" style="fill:#ebebeb"></path><path d="M86.5,262.22a1.24,1.24,0,0,1,1.69-.82,1.27,1.27,0,1,1-.72,2.44A1.29,1.29,0,0,1,86.5,262.22Z" style="fill:#ebebeb"></path><path d="M82.26,248.18a1.24,1.24,0,0,1,.78,1.7,1.27,1.27,0,1,1-2.43-.76A1.3,1.3,0,0,1,82.26,248.18Z" style="fill:#ebebeb"></path><path d="M99.83,253.66a1.24,1.24,0,0,1,.79,1.7,1.23,1.23,0,0,1-1.64.9,1.21,1.21,0,0,1-.79-1.66A1.28,1.28,0,0,1,99.83,253.66Z" style="fill:#ebebeb"></path><path d="M88,261.85a97,97,0,0,1,2.5-10.15,95.4,95.4,0,0,1,3.45-9.87A94.54,94.54,0,0,1,91.43,252,95.4,95.4,0,0,1,88,261.85Z" style="fill:#ebebeb"></path><path d="M98.84,254.69a67.74,67.74,0,0,1-8.35-2.16,65.5,65.5,0,0,1-8-3.1,64.35,64.35,0,0,1,8.35,2.16A65.5,65.5,0,0,1,98.84,254.69Z" style="fill:#ebebeb"></path><path d="M85,255.74a38.23,38.23,0,0,1,5.36-3.91,39.05,39.05,0,0,1,5.88-3.07,37.66,37.66,0,0,1-5.36,3.91A39.05,39.05,0,0,1,85,255.74Z" style="fill:#ebebeb"></path><path d="M93.4,258.2a41,41,0,0,1-3.09-6,39.61,39.61,0,0,1-2.17-6.38,40.43,40.43,0,0,1,3.09,6A40.06,40.06,0,0,1,93.4,258.2Z" style="fill:#ebebeb"></path><path d="M176.66,142.23a.91.91,0,0,1-.71-1.17.87.87,0,0,1,1.09-.79.88.88,0,0,1,.73,1.13A1,1,0,0,1,176.66,142.23Z" style="fill:#ebebeb"></path><path d="M167.66,130.4a.91.91,0,0,1-.71-1.16.93.93,0,1,1,1.82.33A.94.94,0,0,1,167.66,130.4Z" style="fill:#ebebeb"></path><path d="M167.6,141.38a.91.91,0,0,1-1.31-.4.93.93,0,1,1,1.59-1A1,1,0,0,1,167.6,141.38Z" style="fill:#ebebeb"></path><path d="M177.73,131.29a.91.91,0,0,1-1.31-.39.93.93,0,1,1,1.58-1A.94.94,0,0,1,177.73,131.29Z" style="fill:#ebebeb"></path><path d="M171.44,124.7a1.25,1.25,0,0,1,1.43-1.21,1.28,1.28,0,1,1-.08,2.55A1.3,1.3,0,0,1,171.44,124.7Z" style="fill:#ebebeb"></path><path d="M170.69,146.35a1.25,1.25,0,0,1,1.43-1.21,1.27,1.27,0,1,1-.08,2.54A1.29,1.29,0,0,1,170.69,146.35Z" style="fill:#ebebeb"></path><path d="M163.08,133.82a1.24,1.24,0,0,1,1.18,1.45,1.27,1.27,0,1,1-2.54-.13A1.3,1.3,0,0,1,163.08,133.82Z" style="fill:#ebebeb"></path><path d="M181.47,134.74a1.23,1.23,0,0,1,1.18,1.45,1.27,1.27,0,1,1-2.54-.13A1.3,1.3,0,0,1,181.47,134.74Z" style="fill:#ebebeb"></path><path d="M172,145.62a108,108,0,0,1,.77-20.86,110.19,110.19,0,0,1-.77,20.86Z" style="fill:#ebebeb"></path><path d="M180.77,136a74.33,74.33,0,0,1-17.2-1,75.83,75.83,0,0,1,17.2,1Z" style="fill:#ebebeb"></path><path d="M167.59,140.46a40.26,40.26,0,0,1,4.22-5.13,38.55,38.55,0,0,1,4.93-4.43,44.14,44.14,0,0,1-9.15,9.56Z" style="fill:#ebebeb"></path><path d="M176.38,140.74a40.36,40.36,0,0,1-4.49-5,39.33,39.33,0,0,1-3.7-5.63,39.57,39.57,0,0,1,4.49,5A41.21,41.21,0,0,1,176.38,140.74Z" style="fill:#ebebeb"></path><rect x="47.77" y="286.5" width="165.31" height="15.41" transform="translate(260.85 588.42) rotate(180)" style="fill:#dbdbdb"></rect><path d="M63,68h134.8V205.88H63Zm129.83,5H68v128H192.85Z" style="fill:#dbdbdb"></path><rect x="152.12" y="67.96" width="2.68" height="132.95" style="fill:#dbdbdb"></rect><rect x="106.05" y="67.96" width="2.68" height="132.95" style="fill:#dbdbdb"></rect><path d="M298.28,62.59V286.51H443.82V62.59ZM438.44,281.14H303.65V68H438.44Z" style="fill:#ebebeb"></path><rect x="303.65" y="67.97" width="134.79" height="213.17" style="fill:#fff"></rect><rect x="303.64" y="171.86" width="134.8" height="5.37" transform="translate(742.08 349.1) rotate(180)" style="fill:#ebebeb"></rect><path d="M425.27,243.26A2.64,2.64,0,0,1,427,247a2.62,2.62,0,0,1-4.87-1.76A2.66,2.66,0,0,1,425.27,243.26Z" style="fill:#ebebeb"></path><path d="M368.83,101.17a2.6,2.6,0,1,1-3.11,2A2.63,2.63,0,0,1,368.83,101.17Z" style="fill:#ebebeb"></path><path d="M317.57,236.86a2.6,2.6,0,1,1-3.1,2A2.63,2.63,0,0,1,317.57,236.86Z" style="fill:#ebebeb"></path><path d="M379.55,215.59a2.63,2.63,0,0,1,1.77,3.76,2.62,2.62,0,0,1-4.87-1.76A2.64,2.64,0,0,1,379.55,215.59Z" style="fill:#ebebeb"></path><path d="M419.9,79.66a2.6,2.6,0,1,1-3.1,2A2.63,2.63,0,0,1,419.9,79.66Z" style="fill:#ebebeb"></path><path d="M389.67,142.6a2.6,2.6,0,1,1-3.1,2A2.62,2.62,0,0,1,389.67,142.6Z" style="fill:#ebebeb"></path><path d="M331.52,217.91a1.45,1.45,0,0,1,1,2.07,1.4,1.4,0,0,1-1.38.75,1.43,1.43,0,0,1-1.29-1.72A1.46,1.46,0,0,1,331.52,217.91Z" style="fill:#ebebeb"></path><path d="M423.09,190.89a1.45,1.45,0,0,1,1,2.07,1.41,1.41,0,0,1-1.38.75,1.43,1.43,0,0,1-1.29-1.72A1.45,1.45,0,0,1,423.09,190.89Z" style="fill:#ebebeb"></path><path d="M357.24,243.79a1.45,1.45,0,0,1,1,2.07,1.42,1.42,0,0,1-1.38.76,1.44,1.44,0,0,1-1.29-1.73A1.46,1.46,0,0,1,357.24,243.79Z" style="fill:#ebebeb"></path><path d="M420,117.25a1.43,1.43,0,0,1,.29,2.84,1.43,1.43,0,1,1-.29-2.84Z" style="fill:#ebebeb"></path><path d="M394,224a1.44,1.44,0,0,1,1.44,1.77,1.42,1.42,0,0,1-1.15,1.07,1.45,1.45,0,0,1-1.68-1.36A1.47,1.47,0,0,1,394,224Z" style="fill:#ebebeb"></path><path d="M319.23,142.16a1.43,1.43,0,1,1-1.71,1.1A1.44,1.44,0,0,1,319.23,142.16Z" style="fill:#ebebeb"></path><path d="M324.73,213a1,1,0,0,1,.64,1.37.94.94,0,0,1-.92.5,1,1,0,0,1-.86-1.14A1,1,0,0,1,324.73,213Z" style="fill:#ebebeb"></path><path d="M358,144.06a.95.95,0,1,1-1.14.73A1,1,0,0,1,358,144.06Z" style="fill:#ebebeb"></path><path d="M430.76,219.81a1,1,0,0,1,.64,1.38,1,1,0,0,1-1.77-.65A1,1,0,0,1,430.76,219.81Z" style="fill:#ebebeb"></path><path d="M370.26,258.76a1,1,0,0,1,.64,1.37.93.93,0,0,1-.91.5,1,1,0,0,1-.86-1.14A1,1,0,0,1,370.26,258.76Z" style="fill:#ebebeb"></path><path d="M332,183.78a1,1,0,0,1,.64,1.37.94.94,0,0,1-.92.5,1,1,0,0,1-.86-1.14A1,1,0,0,1,332,183.78Z" style="fill:#ebebeb"></path><path d="M432.71,259.62a.95.95,0,1,1-1.13.73A1,1,0,0,1,432.71,259.62Z" style="fill:#ebebeb"></path><path d="M328.32,133.06a1,1,0,0,1,.64,1.37,1,1,0,1,1-.64-1.37Z" style="fill:#ebebeb"></path><path d="M412.27,185.05a.95.95,0,1,1-1.14.73A1,1,0,0,1,412.27,185.05Z" style="fill:#ebebeb"></path><path d="M362,85.13a.95.95,0,1,1-1.14.73A1,1,0,0,1,362,85.13Z" style="fill:#ebebeb"></path><path d="M331.81,97a.91.91,0,0,1-1-1,.93.93,0,1,1,1.85-.11A1,1,0,0,1,331.81,97Z" style="fill:#ebebeb"></path><path d="M320.23,87.64a.91.91,0,0,1-1-1,.89.89,0,0,1,.88-1,.87.87,0,0,1,1,.92A.94.94,0,0,1,320.23,87.64Z" style="fill:#ebebeb"></path><path d="M322.81,98.31a.9.9,0,0,1-1.36-.07.93.93,0,1,1,1.31-1.31A1,1,0,0,1,322.81,98.31Z" style="fill:#ebebeb"></path><path d="M330.21,86.08a.9.9,0,0,1-1.36-.07.92.92,0,1,1,1.3-1.31A.94.94,0,0,1,330.21,86.08Z" style="fill:#ebebeb"></path><path d="M322.52,81.2a1.24,1.24,0,0,1,1.09-1.52,1.28,1.28,0,1,1,.54,2.49A1.3,1.3,0,0,1,322.52,81.2Z" style="fill:#ebebeb"></path><path d="M327,102.39a1.24,1.24,0,0,1,1.09-1.52,1.28,1.28,0,1,1,.54,2.49A1.3,1.3,0,0,1,327,102.39Z" style="fill:#ebebeb"></path><path d="M316.61,92.06a1.23,1.23,0,0,1,1.49,1.13,1.27,1.27,0,1,1-2.5.48A1.3,1.3,0,0,1,316.61,92.06Z" style="fill:#ebebeb"></path><path d="M334.67,88.52a1.24,1.24,0,0,1,1.5,1.13,1.27,1.27,0,1,1-2.5.48A1.3,1.3,0,0,1,334.67,88.52Z" style="fill:#ebebeb"></path><path d="M328.14,101.36a96.43,96.43,0,0,1-2.63-10.12,96.39,96.39,0,0,1-1.65-10.32A97.07,97.07,0,0,1,326.49,91,99,99,0,0,1,328.14,101.36Z" style="fill:#ebebeb"></path><path d="M334.29,89.9A66,66,0,0,1,325.92,92a64.42,64.42,0,0,1-8.56,1.1A66.4,66.4,0,0,1,325.73,91,64.64,64.64,0,0,1,334.29,89.9Z" style="fill:#ebebeb"></path><path d="M322.59,97.42a44.11,44.11,0,0,1,6.57-11.49,37.86,37.86,0,0,1-2.86,6A39.56,39.56,0,0,1,322.59,97.42Z" style="fill:#ebebeb"></path><path d="M331.18,95.57a40.5,40.5,0,0,1-5.57-3.8,39.69,39.69,0,0,1-4.95-4.58,40.22,40.22,0,0,1,5.57,3.8A41.14,41.14,0,0,1,331.18,95.57Z" style="fill:#ebebeb"></path><path d="M375.7,164.44a.68.68,0,0,1,0-1.35.6.6,0,0,1,.61.67A.64.64,0,0,1,375.7,164.44Z" style="fill:#ebebeb"></path><path d="M368.32,157.55a.61.61,0,0,1-.61-.69.63.63,0,1,1,1.26,0A.64.64,0,0,1,368.32,157.55Z" style="fill:#ebebeb"></path><path d="M369.54,164.91a.61.61,0,0,1-.92-.11.63.63,0,1,1,.95-.82A.63.63,0,0,1,369.54,164.91Z" style="fill:#ebebeb"></path><path d="M375.16,157a.62.62,0,0,1-.92-.12.6.6,0,0,1,.05-.92.59.59,0,0,1,.9.1A.64.64,0,0,1,375.16,157Z" style="fill:#ebebeb"></path><path d="M370.19,153.31a.85.85,0,0,1,.82-1,.86.86,0,1,1,.24,1.71A.88.88,0,0,1,370.19,153.31Z" style="fill:#ebebeb"></path><path d="M372.18,167.89a.84.84,0,0,1,.82-1,.86.86,0,1,1,.24,1.71A.89.89,0,0,1,372.18,167.89Z" style="fill:#ebebeb"></path><path d="M365.64,160.37a.84.84,0,0,1,1,.84.87.87,0,1,1-1.72.2A.88.88,0,0,1,365.64,160.37Z" style="fill:#ebebeb"></path><path d="M378.07,158.87a.84.84,0,0,1,.95.84.86.86,0,1,1-1.71.2A.88.88,0,0,1,378.07,158.87Z" style="fill:#ebebeb"></path><path d="M373,167.25a73.61,73.61,0,0,1-1.88-14.07A75.79,75.79,0,0,1,373,167.25Z" style="fill:#ebebeb"></path><path d="M377.74,159.79a45.63,45.63,0,0,1-5.78,1,44,44,0,0,1-5.86.31,51.75,51.75,0,0,1,11.64-1.3Z" style="fill:#ebebeb"></path><path d="M369.43,164.3a26.08,26.08,0,0,1,2.23-3.92,27,27,0,0,1,2.8-3.53,26.93,26.93,0,0,1-2.24,3.91A26.32,26.32,0,0,1,369.43,164.3Z" style="fill:#ebebeb"></path><path d="M375.34,163.48a26.88,26.88,0,0,1-3.58-2.86,27.64,27.64,0,0,1-3.13-3.35,31,31,0,0,1,6.71,6.21Z" style="fill:#ebebeb"></path><path d="M429,239.53a.61.61,0,0,1-.2-.9.63.63,0,1,1,1.09.62A.64.64,0,0,1,429,239.53Z" style="fill:#ebebeb"></path><path d="M425.88,229.93a.68.68,0,1,1,.9-.28A.65.65,0,0,1,425.88,229.93Z" style="fill:#ebebeb"></path><path d="M423.39,237a.63.63,0,0,1-.75-.55.63.63,0,1,1,1.23-.26A.64.64,0,0,1,423.39,237Z" style="fill:#ebebeb"></path><path d="M432.14,232.75a.68.68,0,0,1-.27-1.33.6.6,0,0,1,.75.52A.64.64,0,0,1,432.14,232.75Z" style="fill:#ebebeb"></path><path d="M429.57,227.12a.85.85,0,0,1,1.19-.46.86.86,0,1,1-.62,1.61A.88.88,0,0,1,429.57,227.12Z" style="fill:#ebebeb"></path><path d="M424.27,240.85a.84.84,0,0,1,1.19-.46.87.87,0,1,1-.62,1.62A.89.89,0,0,1,424.27,240.85Z" style="fill:#ebebeb"></path><path d="M422.18,231.1a.85.85,0,0,1,.43,1.2.86.86,0,1,1-1.6-.65A.88.88,0,0,1,422.18,231.1Z" style="fill:#ebebeb"></path><path d="M433.78,235.8a.84.84,0,0,1,.43,1.19.86.86,0,1,1-1.6-.65A.89.89,0,0,1,433.78,235.8Z" style="fill:#ebebeb"></path><path d="M425.29,240.68a74.82,74.82,0,0,1,5.15-13.22,74.82,74.82,0,0,1-5.15,13.22Z" style="fill:#ebebeb"></path><path d="M433.05,236.44a44.25,44.25,0,0,1-5.54-1.93,42.72,42.72,0,0,1-5.28-2.55,51.17,51.17,0,0,1,10.82,4.48Z" style="fill:#ebebeb"></path><path d="M423.59,236.37a27.72,27.72,0,0,1,3.85-2.35,26.27,26.27,0,0,1,4.16-1.74,27.14,27.14,0,0,1-3.85,2.35A26.27,26.27,0,0,1,423.59,236.37Z" style="fill:#ebebeb"></path><path d="M429.17,238.51a31.07,31.07,0,0,1-2.88-8.68,26.91,26.91,0,0,1,1.76,4.24A27.75,27.75,0,0,1,429.17,238.51Z" style="fill:#ebebeb"></path><path d="M333.93,259.71a.91.91,0,0,1-.41-1.3.93.93,0,1,1,1.69.78A1,1,0,0,1,333.93,259.71Z" style="fill:#ebebeb"></path><path d="M328.17,246a.91.91,0,0,1-.41-1.31.93.93,0,1,1,1.68.78A.94.94,0,0,1,328.17,246Z" style="fill:#ebebeb"></path><path d="M325.37,256.63a.91.91,0,0,1-1.17-.71.93.93,0,1,1,1.77-.53A.94.94,0,0,1,325.37,256.63Z" style="fill:#ebebeb"></path><path d="M337.69,249.39a.91.91,0,0,1-1.17-.71.93.93,0,1,1,1.77-.53A.94.94,0,0,1,337.69,249.39Z" style="fill:#ebebeb"></path><path d="M333.24,241.44a1.24,1.24,0,0,1,1.69-.82,1.28,1.28,0,1,1-.72,2.45A1.3,1.3,0,0,1,333.24,241.44Z" style="fill:#ebebeb"></path><path d="M327.12,262.22a1.24,1.24,0,0,1,1.69-.82,1.27,1.27,0,1,1-.72,2.44A1.29,1.29,0,0,1,327.12,262.22Z" style="fill:#ebebeb"></path><path d="M322.88,248.18a1.24,1.24,0,0,1,.78,1.7,1.27,1.27,0,1,1-2.43-.76A1.3,1.3,0,0,1,322.88,248.18Z" style="fill:#ebebeb"></path><path d="M340.45,253.66a1.23,1.23,0,0,1,.78,1.7,1.27,1.27,0,1,1-2.42-.76A1.28,1.28,0,0,1,340.45,253.66Z" style="fill:#ebebeb"></path><path d="M328.6,261.85a97,97,0,0,1,2.5-10.15,95.4,95.4,0,0,1,3.45-9.87,110.36,110.36,0,0,1-5.95,20Z" style="fill:#ebebeb"></path><path d="M339.46,254.69a67.74,67.74,0,0,1-8.35-2.16,65.5,65.5,0,0,1-8.05-3.1,64.35,64.35,0,0,1,8.35,2.16A65.5,65.5,0,0,1,339.46,254.69Z" style="fill:#ebebeb"></path><path d="M325.59,255.74a38.23,38.23,0,0,1,5.36-3.91,39.05,39.05,0,0,1,5.88-3.07,37.66,37.66,0,0,1-5.36,3.91A39.05,39.05,0,0,1,325.59,255.74Z" style="fill:#ebebeb"></path><path d="M334,258.2a40,40,0,0,1-3.09-6,39.61,39.61,0,0,1-2.17-6.38A45.34,45.34,0,0,1,334,258.2Z" style="fill:#ebebeb"></path><path d="M417.28,142.23a.92.92,0,0,1-.72-1.17.93.93,0,1,1,1.83.34A1,1,0,0,1,417.28,142.23Z" style="fill:#ebebeb"></path><path d="M408.28,130.4a.91.91,0,0,1-.71-1.16.93.93,0,1,1,1.82.33A.94.94,0,0,1,408.28,130.4Z" style="fill:#ebebeb"></path><path d="M408.22,141.38a.91.91,0,0,1-1.31-.4.93.93,0,1,1,1.59-1A1,1,0,0,1,408.22,141.38Z" style="fill:#ebebeb"></path><path d="M418.35,131.29a.91.91,0,0,1-1.31-.39.93.93,0,1,1,1.58-1A.94.94,0,0,1,418.35,131.29Z" style="fill:#ebebeb"></path><path d="M412.06,124.7a1.25,1.25,0,0,1,1.43-1.21,1.28,1.28,0,1,1-.08,2.55A1.3,1.3,0,0,1,412.06,124.7Z" style="fill:#ebebeb"></path><path d="M411.31,146.35a1.25,1.25,0,0,1,1.43-1.21,1.27,1.27,0,1,1-.08,2.54A1.29,1.29,0,0,1,411.31,146.35Z" style="fill:#ebebeb"></path><path d="M403.7,133.82a1.24,1.24,0,0,1,1.18,1.45,1.27,1.27,0,1,1-2.54-.13A1.3,1.3,0,0,1,403.7,133.82Z" style="fill:#ebebeb"></path><path d="M422.09,134.74a1.23,1.23,0,0,1,1.18,1.45,1.27,1.27,0,1,1-2.54-.13A1.3,1.3,0,0,1,422.09,134.74Z" style="fill:#ebebeb"></path><path d="M412.66,145.62a109.09,109.09,0,0,1,.76-20.86,95.91,95.91,0,0,1,.12,10.45A101.25,101.25,0,0,1,412.66,145.62Z" style="fill:#ebebeb"></path><path d="M421.39,136a74.33,74.33,0,0,1-17.2-1,75.83,75.83,0,0,1,17.2,1Z" style="fill:#ebebeb"></path><path d="M408.21,140.46a39.43,39.43,0,0,1,4.22-5.13,38.55,38.55,0,0,1,4.93-4.43,44.14,44.14,0,0,1-9.15,9.56Z" style="fill:#ebebeb"></path><path d="M417,140.74a46.12,46.12,0,0,1-8.19-10.67,40.35,40.35,0,0,1,4.49,5A41.21,41.21,0,0,1,417,140.74Z" style="fill:#ebebeb"></path><rect x="288.39" y="286.5" width="165.31" height="15.41" transform="translate(742.08 588.42) rotate(180)" style="fill:#dbdbdb"></rect><path d="M303.64,68h134.8V205.88H303.64Zm129.83,5H308.62v128H433.47Z" style="fill:#dbdbdb"></path><rect x="392.73" y="67.96" width="2.68" height="132.95" style="fill:#dbdbdb"></rect><rect x="346.67" y="67.96" width="2.68" height="132.95" style="fill:#dbdbdb"></rect></g><g id="freepik--Garlands--inject-656"><polygon points="224.41 101 224.1 134.79 238.08 125.52 251.9 135.05 252.21 101.25 224.41 101" style="fill:#ECEFF1"></polygon><polygon points="191.85 96 186.21 129.33 201.48 122.38 213.62 133.96 219.25 100.64 191.85 96" style="fill:#ECEFF1"></polygon><polygon points="159.46 86.73 149.41 119 165.48 114.16 175.96 127.26 186 94.99 159.46 86.73" style="fill:#ECEFF1"></polygon><polygon points="129.9 74.01 115.68 104.67 132.24 102 140.89 116.37 155.12 85.71 129.9 74.01" style="fill:#ECEFF1"></polygon><polygon points="281.4 99.21 283.61 132.94 269.13 124.47 255.87 134.75 253.66 101.03 281.4 99.21" style="fill:#ECEFF1"></polygon><polygon points="311.05 95 315.68 128.48 300.63 121.07 288.14 132.29 283.52 98.81 311.05 95" style="fill:#ECEFF1"></polygon><polygon points="340.11 85.78 350.38 117.98 334.29 113.25 323.9 126.43 313.63 94.23 340.11 85.78" style="fill:#ECEFF1"></polygon><polygon points="368.98 73.37 382.53 104.33 366.03 101.29 357.07 115.48 343.51 84.52 368.98 73.37" style="fill:#ECEFF1"></polygon><path d="M91.49,44.8a91.71,91.71,0,0,0,7.87,7.4c2.74,2.33,5.56,4.57,8.47,6.69A174.2,174.2,0,0,0,126,70.53a207.43,207.43,0,0,0,19.29,9.61c6.59,2.86,13.34,5.33,20.17,7.53s13.79,4,20.78,5.64l5.26,1.14c1.75.39,3.53.66,5.29,1,3.53.69,7.09,1.17,10.64,1.7,1.77.29,3.56.45,5.34.66l5.35.6,5.37.43c1.79.14,3.58.31,5.37.37,3.59.14,7.17.41,10.76.4l5.39.08c1.79,0,3.59-.05,5.39-.06a308.27,308.27,0,0,0,42.92-3.34,264,264,0,0,0,41.89-9.88A210.58,210.58,0,0,0,374.54,69a167.45,167.45,0,0,0,18-11.81Q396.9,54,401,50.4a87.32,87.32,0,0,0,7.73-7.54,86.19,86.19,0,0,1-7.48,7.81c-2.64,2.47-5.39,4.81-8.23,7a169.7,169.7,0,0,1-17.83,12.33,211.33,211.33,0,0,1-39.36,18.14c-27.44,9.39-56.48,13.44-85.38,13.88-1.81,0-3.62.09-5.43,0l-5.43-.1c-3.62,0-7.23-.3-10.85-.46-1.81-.07-3.61-.25-5.41-.4l-5.41-.46-5.4-.64c-1.79-.22-3.6-.39-5.38-.69a236.37,236.37,0,0,1-42.25-9.89c-6.85-2.33-13.62-4.92-20.21-7.91a204,204,0,0,1-19.26-10A175.57,175.57,0,0,1,107.44,59.4,114.39,114.39,0,0,1,91.49,44.8Z" style="fill:#263238"></path><path d="M93.39,44.48A2.42,2.42,0,1,1,91,42.07,2.42,2.42,0,0,1,93.39,44.48Z" style="fill:#c7c7c7"></path><path d="M411.19,44.5a2.41,2.41,0,1,1-2.41-2.41A2.41,2.41,0,0,1,411.19,44.5Z" style="fill:#c7c7c7"></path><path d="M137.38,100.71c-1.22-.61-1.56-1.29-1.56-2,.05-4,.19-7.6.28-11.29-1.6,3.25-3.15,6.55-4.73,9.82-.1.2-.26.29-.54.15l-1.24-.62c-1.7-.86-2-1.89-1.34-3.2.37-.75,2-3.51,3.73-6.3,2.66-4.39,3.34-5.52,4.12-7,.12-.25.26-.29.53-.16l1.81.91c2,1,1.9,2.21,1.79,3.51-.6,6.71-.6,7.67-.73,10.25,1.8-3.58,3.79-7.72,5.14-10.39.05-.11.21-.15.48,0l1.25.63c2,1,1.88,2,1.18,3.34-1.11,2.22-7.3,12.45-7.72,13.06a.42.42,0,0,1-.59.16Z" style="fill:#fff"></path><path d="M163.32,111.1c-1.79-.57-2.28-1.55-1.86-2.86.62-1.95,5.19-12.77,5.71-14.41.09-.27.24-.32.5-.24l8.51,2.71a.36.36,0,0,1,.28.46l-.55,1.4c-.38.94-.91,1.49-2.35,1l-3.34-1.06-1.33,3.33,3.43,1.09a.35.35,0,0,1,.28.46l-.55,1.4c-.38.94-.9,1.49-2.35,1l-2.1-.67-1.42,3.52L171.5,110a.37.37,0,0,1,.28.46l-.55,1.4c-.38.94-.91,1.49-2.35,1Z" style="fill:#fff"></path><path d="M212,104.52c.2-.61.32-.72,1.25-.57.72.11,3.29.6,3,2.45-.35,2.15-5.84,13.78-6.61,14.74a1.12,1.12,0,0,1-1.05.32l-2.38-.38c-1.7-.27-2.1-1.82-2-3.22l.54-11.44c-1.31,4.36-3.73,12.29-4.39,13.24a1,1,0,0,1-1.05.32l-2.38-.38c-1.68-.27-1.91-1.74-2-3.23-1-11.32-1.19-14-1-14.85.09-.55.36-.63,1.48-.45,2.78.44,3.59,1.34,3.51,3.3,0,.46-.1,1.27-.52,11.62,2.06-6,1.43-3.82,4.16-13.22.12-.44,1.21-.32,2-.19,2.7.43,3.49,1.12,3.67,3,.09.91,0,2.44-.52,11.88C209.49,112.31,209.62,111.82,212,104.52Z" style="fill:#fff"></path><path d="M240.68,116.22a3.26,3.26,0,0,1-3.42,3.4,2.6,2.6,0,0,1-2.71-2.94,3.15,3.15,0,0,1,3.37-3.27A2.6,2.6,0,0,1,240.68,116.22Z" style="fill:#fff"></path><path d="M268.06,123.45c-2,.11-2.67-.64-2.77-2.28,0-.58,0-1.68,0-4.4a26.75,26.75,0,0,1-1.61-2.88c-1.26-2.47-3.62-6.9-3.65-7.54,0-.33.5-.56,1.66-.62,2.81-.16,3.36,1,3.9,2.5,1.05,2.88.19.62,2.3,6.16a50.81,50.81,0,0,0,2.86-8.38c.17-.65.34-.78.79-.81s3.52-.12,3.61,1.4c.09,1.67-3.28,8.48-5.31,10.83,0,1.6,0,4.85,0,5.54,0,.28-.08.38-.39.4Z" style="fill:#fff"></path><path d="M298.52,120.2c-1.84.32-2.73-.33-3-1.68-.35-2-1.28-13.72-1.58-15.42,0-.27.06-.4.34-.44l8.79-1.52a.36.36,0,0,1,.46.28l.16,1.49c.09,1-.11,1.75-1.61,2l-3.45.6.36,3.56,3.54-.61a.36.36,0,0,1,.46.28l.16,1.5c.1,1-.11,1.74-1.61,2l-2.18.37.37,3.77,5.5-.95a.38.38,0,0,1,.46.29l.15,1.49c.1,1-.11,1.74-1.61,2Z" style="fill:#fff"></path><path d="M329,94.34c1.62-.52,2.47.65,3.25,1.91,5.94,9.57,7.46,12,7.72,12.84.14.46,0,.65-.47.79l-1.23.39c-2.77.9-3.49-.42-4.5-2.65L329.59,109l.28,3.59a.56.56,0,0,1-.43.56l-1.28.41c-1,.34-2.43.31-2.8-.85-.7-2.17.16-14.71.58-16.84.12-.55.22-.58.8-.77Zm.31,10.86,2.77-.9-3.07-6Z" style="fill:#fff"></path><path d="M362.12,100.12c-1.68.89-2.7.54-3.39-.75-.4-.74-1.69-3.7-3-6.68s-2.25-5-2.76-6.09c-.62-1.39-.7-1.63-.41-1.79,1.88-1,3.8-2.31,5-3,3.84-2,6.42-.9,8,2.12,1.23,2.3,1.37,4.73-.14,6.74l3.31,1.68c1.23.64,1.87,1,2,1.23s-.18,2.25-1.92,3.18-4.21-1.2-6.46-3.74a7.05,7.05,0,0,1-1.4.55c1.23,2.74,2.27,5.11,2.39,5.39s.09.39-.18.53Zm-4.45-13.87c.52,1.07,1.23,2.62,2,4.31a6.85,6.85,0,0,0,1.46-.55c1.88-1,1.34-2.81.84-3.75-.65-1.21-1.55-1.61-3-.83A11.93,11.93,0,0,0,357.67,86.25Z" style="fill:#fff"></path><polygon points="238.04 64.98 238.68 94.19 250.51 85.8 262.69 93.66 262.06 64.46 238.04 64.98" style="fill:#ECEFF1"></polygon><polygon points="206.8 61.64 203.56 90.67 216.4 83.93 227.44 93.33 230.68 64.31 206.8 61.64" style="fill:#ECEFF1"></polygon><polygon points="177.1 54.7 169.77 82.98 183.44 78.13 193.03 89 200.35 60.73 177.1 54.7" style="fill:#ECEFF1"></polygon><polygon points="149.74 43.38 138.47 70.33 152.69 67.47 160.63 79.6 171.9 52.65 149.74 43.38" style="fill:#ECEFF1"></polygon><polygon points="293.79 61.33 297.36 90.32 284.45 83.72 273.52 93.25 269.95 64.27 293.79 61.33" style="fill:#ECEFF1"></polygon><polygon points="323.09 54.28 330.39 82.56 316.73 77.69 307.13 88.56 299.83 60.28 323.09 54.28" style="fill:#ECEFF1"></polygon><polygon points="349.9 42.88 361.43 69.72 347.18 67 339.35 79.2 327.82 52.36 349.9 42.88" style="fill:#ECEFF1"></polygon><path d="M159.25,54.54a2.64,2.64,0,0,1,1,.82,2.33,2.33,0,0,1,.49,1.24,2.45,2.45,0,0,1-1,2.28,2.38,2.38,0,0,1-1.26.43,2.57,2.57,0,0,1-1.29-.24,2.72,2.72,0,0,1-1-.83,2.35,2.35,0,0,1-.47-1.23,2.46,2.46,0,0,1,.21-1.27,2.41,2.41,0,0,1,.84-1A2.38,2.38,0,0,1,158,54.3,2.57,2.57,0,0,1,159.25,54.54Z" style="fill:#fff"></path><path d="M184.93,61l-1.77,5.35,4.81,1,1.75-5a3.26,3.26,0,0,1,2.95.83l-4.44,13.64a3.33,3.33,0,0,1-3.24-.8l1.9-5.86-4.73-1.07-2,5.83A4.11,4.11,0,0,1,177,73.85l4.57-13.42A3.43,3.43,0,0,1,184.93,61Z" style="fill:#fff"></path><path d="M220.28,67.26l2.45,14.88a5,5,0,0,1-3.71.06l-.43-2.77-3.87,0-1.25,2.6a4.35,4.35,0,0,1-3.34-1l7.07-14A2.78,2.78,0,0,1,220.28,67.26ZM218,71.83l-2.19,4.74h2.54Z" style="fill:#fff"></path><path d="M246.27,69a32.63,32.63,0,0,1,7.19-.19,3,3,0,0,1,2.62,1.82,8.35,8.35,0,0,1,.06,4.29q-.49,2.77-3.81,3.6l-3.34.78-1.21.14-.43,4.34a3.33,3.33,0,0,1-3.38-.3l1.19-13.78Zm2.2,2.8-.44,4.6q4.28-.31,4.79-1.73a2.94,2.94,0,0,0,.05-2.38C252.55,71.65,251.09,71.49,248.47,71.81Z" style="fill:#fff"></path><path d="M278.47,67.31a32.25,32.25,0,0,1,7.12-1.08,3,3,0,0,1,2.82,1.49A8.4,8.4,0,0,1,289,72c-.11,1.88-1.22,3.23-3.35,4.05l-3.22,1.18-1.18.29.11,4.36A3.35,3.35,0,0,1,278,82l-.5-13.83ZM281,69.82l.13,4.61q4.2-.84,4.54-2.31a3,3,0,0,0-.25-2.37C285,69.15,283.56,69.17,281,69.82Z" style="fill:#fff"></path><path d="M310.86,60.92l3.79,4.32,1.74-5.82c1.39-.47,2.45-.44,3.18.1l-2.79,8.12,1.64,6.91a4.54,4.54,0,0,1-3.2.88l-1.68-7L308,62.86A3.73,3.73,0,0,1,310.86,60.92Z" style="fill:#fff"></path><path d="M341,53.49a2.73,2.73,0,0,1,1.28-.23,2.34,2.34,0,0,1,1.26.44,2.41,2.41,0,0,1,.84,1,2.46,2.46,0,0,1-.28,2.51,2.8,2.8,0,0,1-1,.82,2.69,2.69,0,0,1-1.31.24,2.34,2.34,0,0,1-1.24-.45,2.54,2.54,0,0,1-.83-1,2.45,2.45,0,0,1-.2-1.29,2.35,2.35,0,0,1,.48-1.24A2.82,2.82,0,0,1,341,53.49Z" style="fill:#fff"></path><path d="M121.76,23.5a71,71,0,0,0,6.58,5.55c2.29,1.74,4.62,3.41,7,5a146.66,146.66,0,0,0,14.92,8.54,177.34,177.34,0,0,0,32,12.38,236.52,236.52,0,0,0,67.9,8.51,274.36,274.36,0,0,0,34.25-2.38,232.14,232.14,0,0,0,33.59-7c5.49-1.62,10.92-3.43,16.26-5.5a170.21,170.21,0,0,0,15.66-7,138.56,138.56,0,0,0,14.86-8.65c2.39-1.58,4.7-3.28,7-5a65.91,65.91,0,0,0,6.48-5.67,85.14,85.14,0,0,1-13.07,11.26,139,139,0,0,1-14.67,9.17A168,168,0,0,1,334.85,50c-5.35,2.19-10.79,4.13-16.3,5.87a216.06,216.06,0,0,1-33.82,7.47,273.33,273.33,0,0,1-34.53,2.54,251.38,251.38,0,0,1-34.58-2,208.22,208.22,0,0,1-33.88-7.21,178.43,178.43,0,0,1-32-13.13A146.25,146.25,0,0,1,135,34.56,91,91,0,0,1,121.76,23.5Z" style="fill:#263238"></path><path d="M124.17,23.5a2.42,2.42,0,1,1-2.41-2.41A2.41,2.41,0,0,1,124.17,23.5Z" style="fill:#c7c7c7"></path><path d="M380.66,23.64a2.42,2.42,0,1,1-2.42-2.42A2.42,2.42,0,0,1,380.66,23.64Z" style="fill:#c7c7c7"></path></g><g id="freepik--Notes--inject-656"><polygon points="435.85 391.47 228.83 400.36 217.42 134.62 424.48 125.73 435.85 391.47" style="fill:#dbdbdb"></polygon><path d="M244.18,169.62a1.08,1.08,0,1,1-2.16.09l-.5-11.52v0a1.08,1.08,0,0,1,.4-.93,1.1,1.1,0,0,1,1.52.17l6.79,8.59-.35-8.17a1.08,1.08,0,0,1,1-1.12,1.1,1.1,0,0,1,1.14,1l.49,11.53a1.1,1.1,0,0,1-1,1.14,1.08,1.08,0,0,1-.83-.36l-.11-.12-6.72-8.53Z" style="fill:#263238"></path><path d="M256,169.11l-.51-11.7a1.08,1.08,0,0,1,1-1.14h.06L263,156a1.1,1.1,0,0,1,.1,2.2l-5.38.24.16,3.63,4.62-.2a1.1,1.1,0,0,1,.1,2.2l-4.63.2.16,3.65,5.38-.23a1.1,1.1,0,0,1,.09,2.2l-6.43.28s0,0,0,0l0,0A1.09,1.09,0,0,1,256,169.11Z" style="fill:#263238"></path><path d="M285.57,156.67l-4.36,11.78a.51.51,0,0,1-.09.18l0,0a.53.53,0,0,1-.1.12s0,0,0,.06l-.14.11h0c-.06,0-.09.1-.17.13h0a0,0,0,0,0,0,0,.41.41,0,0,0-.16,0h0a.84.84,0,0,1-.19,0,.55.55,0,0,1-.18,0H280a.51.51,0,0,0-.14,0l0,0a.36.36,0,0,1-.19-.11h0l-.14-.09,0-.06s-.07-.07-.09-.11,0,0,0,0a.49.49,0,0,1-.08-.18l-2.87-6L274,168.76c0,.06-.06.14-.07.18a0,0,0,0,0,0,0l-.12.12s0,0,0,.06l-.12.11h0c-.06,0-.11.1-.15.13h0a0,0,0,0,0,0,0,.31.31,0,0,0-.16,0h-.06a.52.52,0,0,1-.17,0,.45.45,0,0,1-.2,0h-.06a.51.51,0,0,0-.14,0s0,0,0,0a.4.4,0,0,1-.19-.11h0c-.06,0-.08-.07-.14-.09l0-.06a1.14,1.14,0,0,1-.11-.11v0s-.06-.12-.11-.18l-5.37-11.35a1.08,1.08,0,0,1,.53-1.44,1.07,1.07,0,0,1,1.44.52l4.28,9,2.3-6.2a1.08,1.08,0,0,1,1-.72,1.14,1.14,0,0,1,1.06.63l2.82,6,3.47-9.35a1.1,1.1,0,0,1,1.43-.64A1.06,1.06,0,0,1,285.57,156.67Z" style="fill:#263238"></path><path d="M304.77,156.07l-3.83,5.75.23,5.35a1.08,1.08,0,0,1-1,1.14,1.09,1.09,0,0,1-1.14-1l-.23-5.36-4.27-5.4a1.07,1.07,0,1,1,1.67-1.34l3.59,4.49,3.2-4.79a1.08,1.08,0,0,1,1.51-.3A1.1,1.1,0,0,1,304.77,156.07Z" style="fill:#263238"></path><path d="M307.54,166.9,307,155.2a1.08,1.08,0,0,1,1.05-1.14h.06l6.42-.28a1.1,1.1,0,0,1,1.14,1,1.11,1.11,0,0,1-1,1.16l-5.38.23.16,3.63,4.62-.2a1.11,1.11,0,0,1,.1,2.21l-4.63.2.16,3.65,5.38-.24a1.11,1.11,0,0,1,.09,2.21l-6.43.27s0,0,0,0l0,0A1.09,1.09,0,0,1,307.54,166.9Z" style="fill:#263238"></path><path d="M326.32,163.91l-4.82.2-.86,2.62a1.1,1.1,0,0,1-1,.74,1,1,0,0,1-.38,0,1.13,1.13,0,0,1-.71-1.4l3.88-11.87a1.1,1.1,0,0,1,1-.74,1.08,1.08,0,0,1,1.08.65l4.89,11.49a1.13,1.13,0,0,1-.59,1.46,1.34,1.34,0,0,1-.38.08,1.1,1.1,0,0,1-1-.66Zm-.91-2.15-1.79-4.2-1.42,4.34Z" style="fill:#263238"></path><path d="M341.28,164.89a1.1,1.1,0,0,1-.64,1.42,1.41,1.41,0,0,1-.43.08h0a1.46,1.46,0,0,1-.78-.18,2,2,0,0,1-.67-.67,5.39,5.39,0,0,1-.52-2.36,1.64,1.64,0,0,0-.27-.85,2,2,0,0,0-.62-.55,3.65,3.65,0,0,0-1.13-.42l-2.34.1.18,4.3A1.1,1.1,0,0,1,333,166.9a1.09,1.09,0,0,1-1.14-1l-.5-11.71a1.08,1.08,0,0,1,1-1.14h0l3.53-.15a4.25,4.25,0,0,1,4.43,4.08,4.18,4.18,0,0,1-1.41,3.32,3.07,3.07,0,0,1,.73.71,3.8,3.8,0,0,1,.75,2.11,4.63,4.63,0,0,0,.13,1.17A1.07,1.07,0,0,1,341.28,164.89ZM338.16,157a2.06,2.06,0,0,0-2.13-2l-2.44.11.17,4.09,2.44-.11A2,2,0,0,0,338.16,157Z" style="fill:#263238"></path><path d="M343.73,157a1.69,1.69,0,0,0,1.27-1.85,1.4,1.4,0,0,1-1.19-1.28v-.15a1.28,1.28,0,0,1,1.29-1.39c.87,0,1.46.61,1.5,1.68v.2a3.9,3.9,0,0,1-.85,2.94,2.87,2.87,0,0,1-1.83.93.53.53,0,0,1-.63-.53A.55.55,0,0,1,343.73,157Z" style="fill:#263238"></path><path d="M348.55,162.77a1.05,1.05,0,0,1,1.45-.2,6.43,6.43,0,0,0,3.85,1.37,4.29,4.29,0,0,0,2.45-.84,1.81,1.81,0,0,0,.79-1.47,1.07,1.07,0,0,0-.21-.62,1.66,1.66,0,0,0-.62-.57,7.76,7.76,0,0,0-2.75-.82h0a11.12,11.12,0,0,1-2.6-.66,4.29,4.29,0,0,1-1.91-1.47,3,3,0,0,1-.52-1.61,3.67,3.67,0,0,1,1.46-3,5.8,5.8,0,0,1,3.39-1.2,7.8,7.8,0,0,1,4.39,1.4,1,1,0,0,1,.34,1.4,1,1,0,0,1-1.4.36,5.72,5.72,0,0,0-3.25-1.14,3.8,3.8,0,0,0-2.19.77,1.58,1.58,0,0,0-.7,1.28,1,1,0,0,0,.16.55,1.88,1.88,0,0,0,.56.5,6.91,6.91,0,0,0,2.52.76h0a11.56,11.56,0,0,1,2.77.72,4.61,4.61,0,0,1,2.06,1.56,3.21,3.21,0,0,1,.54,1.66,3.82,3.82,0,0,1-1.57,3.15,6.17,6.17,0,0,1-3.62,1.29,8.61,8.61,0,0,1-5.17-1.76A1.07,1.07,0,0,1,348.55,162.77Z" style="fill:#263238"></path><path d="M248.62,184.88a2.08,2.08,0,0,0-1-1.7,3.63,3.63,0,0,0-1.36-.52l-.08,0-2.8.12.2,4.55a.4.4,0,0,1-.39.42.39.39,0,0,1-.41-.38l-.47-10.72a.41.41,0,0,1,.34-.41h.09l3.2-.14a3.29,3.29,0,0,1,1.66,6.2l.16.08a2.91,2.91,0,0,1,1.66,2.49,4.17,4.17,0,0,0,.21,1.33.54.54,0,0,0,.17.27.45.45,0,0,1,.46.25.44.44,0,0,1-.24.53l-.2,0h0a.9.9,0,0,1-.76-.49A4,4,0,0,1,248.62,184.88Zm-2.65-8-2.85.13.22,5,2.76-.12h.15a2.49,2.49,0,0,0-.28-5Z" style="fill:#263238"></path><path d="M252.8,176.17a.4.4,0,0,1,.38-.41h0l5.88-.26a.4.4,0,0,1,.42.38.4.4,0,0,1-.38.43l-5.51.24.2,4.55,4.82-.21a.4.4,0,0,1,.41.39.41.41,0,0,1-.38.42l-4.82.21.2,4.53,5.51-.24a.4.4,0,0,1,.41.4.39.39,0,0,1-.38.41l-5.87.25h-.08a.4.4,0,0,1-.38-.38Z" style="fill:#263238"></path><path d="M262.39,184.73a.35.35,0,0,1,.5-.07,6.3,6.3,0,0,0,3.85,1.32,4.31,4.31,0,0,0,2.5-.87,2.12,2.12,0,0,0,.91-1.75,1.83,1.83,0,0,0-1-1.54,7.71,7.71,0,0,0-2.7-.82h0a7.18,7.18,0,0,1-2.76-.85,2.41,2.41,0,0,1-1.27-2,2.7,2.7,0,0,1,1.11-2.21,4.73,4.73,0,0,1,2.74-1,6.44,6.44,0,0,1,3.61,1.18.36.36,0,0,1,.12.5.35.35,0,0,1-.49.12,5.77,5.77,0,0,0-3.21-1.08,4.18,4.18,0,0,0-2.32.8,2,2,0,0,0-.83,1.61,1.64,1.64,0,0,0,.91,1.36,6.65,6.65,0,0,0,2.5.77h0a7.93,7.93,0,0,1,3,.92,2.59,2.59,0,0,1,1.36,2.12,2.91,2.91,0,0,1-1.2,2.36,5.09,5.09,0,0,1-2.92,1,7.13,7.13,0,0,1-4.31-1.48A.37.37,0,0,1,262.39,184.73Z" style="fill:#263238"></path><path d="M278.52,174.5a5.85,5.85,0,1,1-5.3,6.08A5.67,5.67,0,0,1,278.52,174.5Zm.47,10.87a5,5,0,1,0-5-4.82A4.89,4.89,0,0,0,279,185.37Z" style="fill:#263238"></path><path d="M288.29,185.78h0a.4.4,0,0,1-.41-.38l-.47-10.71a.41.41,0,0,1,.81,0l.44,10.31,5.51-.24a.41.41,0,0,1,.43.39.39.39,0,0,1-.39.41Z" style="fill:#263238"></path><path d="M296.34,174.3a.4.4,0,0,1,.38-.41.4.4,0,0,1,.43.38l.28,6.46a3.85,3.85,0,1,0,7.69-.34l-.28-6.46a.4.4,0,0,1,.38-.41.39.39,0,0,1,.42.38l.28,6.46a4.65,4.65,0,0,1-9.3.4Z" style="fill:#263238"></path><path d="M312.22,174l-3.47.15a.41.41,0,0,1,0-.81l7.72-.33a.4.4,0,0,1,0,.8L313,174l.45,10.3a.39.39,0,0,1-.38.41.4.4,0,0,1-.41-.37Z" style="fill:#263238"></path><path d="M320,173.29a.41.41,0,0,1,.81,0l.46,10.72a.4.4,0,0,1-.8,0Z" style="fill:#263238"></path><path d="M329.9,172.3a5.85,5.85,0,1,1-5.3,6.07A5.66,5.66,0,0,1,329.9,172.3Zm.48,10.86a5,5,0,1,0-5-4.82A4.89,4.89,0,0,0,330.38,183.16Z" style="fill:#263238"></path><path d="M339.31,173.76l.41,9.42a.4.4,0,0,1-.37.41.41.41,0,0,1-.42-.38l-.45-10.55a.39.39,0,0,1,.12-.45.41.41,0,0,1,.57.07l7.39,9.36-.41-9.37a.4.4,0,0,1,.38-.41.41.41,0,0,1,.43.38l.46,10.6a.41.41,0,0,1-.4.42.4.4,0,0,1-.32-.14s-.05,0-.06-.06Z" style="fill:#263238"></path><path d="M351,180.93a.36.36,0,0,1,.51-.07,6.36,6.36,0,0,0,3.85,1.32,4.32,4.32,0,0,0,2.49-.87,2.13,2.13,0,0,0,.92-1.75,1.85,1.85,0,0,0-1-1.54,7.57,7.57,0,0,0-2.7-.82h0a7.36,7.36,0,0,1-2.75-.85,2.39,2.39,0,0,1-1.27-2,2.68,2.68,0,0,1,1.11-2.2,4.71,4.71,0,0,1,2.74-1,6.29,6.29,0,0,1,3.61,1.18.37.37,0,0,1,.12.5.35.35,0,0,1-.49.12,5.8,5.8,0,0,0-3.21-1.08,4.07,4.07,0,0,0-2.32.8,2,2,0,0,0-.84,1.61,1.67,1.67,0,0,0,.92,1.36,6.83,6.83,0,0,0,2.5.77h0a7.81,7.81,0,0,1,3,.92,2.61,2.61,0,0,1,1.36,2.12,2.88,2.88,0,0,1-1.2,2.35,5,5,0,0,1-2.92,1,7.25,7.25,0,0,1-4.32-1.48A.39.39,0,0,1,351,180.93Z" style="fill:#263238"></path><path d="M243.94,215.78l-1.62,1a.37.37,0,0,1-.2.07.39.39,0,0,1-.36-.19.37.37,0,0,1,.13-.55l2.22-1.46a.41.41,0,0,1,.55.14.45.45,0,0,1,.07.3l.37,10.78a.41.41,0,0,1-.81,0Z" style="fill:#263238"></path><path d="M249.23,224.48a.84.84,0,0,1,.06,1.67.83.83,0,0,1-.87-.81A.82.82,0,0,1,249.23,224.48Z" style="fill:#263238"></path><path d="M244.07,258.88l5.31-5.13a3.07,3.07,0,0,0,.93-2.28,3,3,0,0,0-3.12-2.9,3.08,3.08,0,0,0-2,.84l-.55.54a.41.41,0,0,1-.58-.57l.55-.55a4,4,0,0,1,2.57-1.08,3.85,3.85,0,0,1,4,3.69,3.81,3.81,0,0,1-1.16,2.89l-4.54,4.41,5.54-.19a.41.41,0,0,1,0,.82l-6.54.22h-.06a.37.37,0,0,1-.31-.1A.45.45,0,0,1,244.07,258.88Z" style="fill:#263238"></path><path d="M255.23,257.54a.83.83,0,0,1,.87.81.82.82,0,0,1-.81.86.84.84,0,1,1-.06-1.67Z" style="fill:#263238"></path><path d="M252.56,281.57l-2.93,3.22a4,4,0,0,1,2.05,1,3.92,3.92,0,0,1,1.25,2.77,3.87,3.87,0,0,1-1.08,2.86,3.94,3.94,0,0,1-2.77,1.27,3.85,3.85,0,0,1-2.84-1.08.41.41,0,0,1,.56-.6,3.18,3.18,0,0,0,4.45-.16,3.1,3.1,0,0,0,.84-2.26,3.14,3.14,0,0,0-3.24-3,.46.46,0,0,1-.34-.16h0a.43.43,0,0,1,0-.6l2.82-3.11-4.5.16a.42.42,0,0,1,0-.84l5.49-.19a.42.42,0,0,1,.43.41.37.37,0,0,1,0,.18A.64.64,0,0,1,252.56,281.57Z" style="fill:#263238"></path><path d="M257.31,290.74a.84.84,0,1,1-.81.86A.82.82,0,0,1,257.31,290.74Z" style="fill:#263238"></path><path d="M254.2,323.38l-6.35.21h0a.35.35,0,0,1-.26-.08.39.39,0,0,1-.07-.57l6.5-8.68,0,0a.39.39,0,0,1,.57-.07.72.72,0,0,1,.14.2.14.14,0,0,0,0,.07v.05l.27,8,.79,0a.41.41,0,0,1,.44.38.43.43,0,0,1-.41.42l-.79,0,.07,2a.41.41,0,0,1-.82,0Zm0-.81-.23-6.87-5.32,7.06Z" style="fill:#263238"></path><path d="M259.91,323.91a.84.84,0,0,1,.87.81.84.84,0,0,1-1.68.06A.84.84,0,0,1,259.91,323.91Z" style="fill:#263238"></path><path d="M249.51,358.07a.4.4,0,0,1,0-.59.43.43,0,0,1,.6,0,3.15,3.15,0,0,0,4.29-4.61,3.15,3.15,0,0,0-4.44.17.41.41,0,0,1-.59,0,.23.23,0,0,1-.1-.14h0a.09.09,0,0,1,0-.05.42.42,0,0,1,0-.13s0-.06,0-.09l.41-4.75a.34.34,0,0,1,.15-.3.39.39,0,0,1,.27-.11l5.46-.19a.42.42,0,1,1,0,.84l-5.11.17-.3,3.5a3.93,3.93,0,0,1,2-.6,3.86,3.86,0,0,1,2.84,1.06A3.91,3.91,0,0,1,256.2,355a4,4,0,0,1-1.06,2.85,4.12,4.12,0,0,1-2.78,1.26A4,4,0,0,1,249.51,358.07Z" style="fill:#263238"></path><path d="M260.64,357.16a.84.84,0,1,1-.8.87A.83.83,0,0,1,260.64,357.16Z" style="fill:#263238"></path><polygon points="446.25 401.52 239.19 393.68 249.26 127.88 403 133.7 454.4 186.37 446.25 401.52" style="fill:#ebebeb"></polygon><polygon points="403 133.7 454.4 186.37 401.08 184.35 403 133.7" style="fill:#dbdbdb"></polygon><path d="M273.11,164.93a1.09,1.09,0,1,1-2.17-.09l.44-11.52v0a1.09,1.09,0,0,1,.47-.9,1.1,1.1,0,0,1,1.5.29l6.07,9.12.31-8.18a1.09,1.09,0,0,1,1.11-1,1.1,1.1,0,0,1,1.06,1.11l-.44,11.53a1.1,1.1,0,0,1-1.13,1,1.06,1.06,0,0,1-.8-.43.53.53,0,0,1-.1-.12l-6-9.05Z" style="fill:#263238"></path><path d="M284.91,165.37l.45-11.7a1.06,1.06,0,0,1,1.13-1h.06l6.43.24a1.1,1.1,0,0,1-.09,2.2l-5.37-.2-.14,3.63,4.62.18a1.1,1.1,0,0,1-.08,2.2l-4.62-.18-.14,3.66,5.37.2a1.1,1.1,0,0,1-.08,2.2l-6.43-.24s0,0,0,0l0,0A1.1,1.1,0,0,1,284.91,165.37Z" style="fill:#263238"></path><path d="M315.41,155.36l-5.3,11.38a.54.54,0,0,1-.11.18l0,0a.5.5,0,0,1-.1.11s0,0,0,.06a.61.61,0,0,0-.14.1h0c-.06,0-.1.1-.18.12h0a0,0,0,0,0,0,0,.34.34,0,0,0-.16,0h0a.64.64,0,0,1-.2,0,.38.38,0,0,1-.18,0h-.06l-.13,0s0,0,0,0a.52.52,0,0,1-.18-.13h0c-.06,0-.09-.08-.13-.11l0-.06-.08-.12s0,0,0,0a.49.49,0,0,1-.08-.18l-2.36-6.25-2.84,6.05a1.59,1.59,0,0,1-.08.18,0,0,0,0,0,0,0l-.13.11s0,0,0,.06l-.12.09h0l-.16.12h0s0,0,0,0a.31.31,0,0,0-.16,0h-.24a.69.69,0,0,1-.2,0h-.06l-.14-.05s0,0,0,0a.52.52,0,0,1-.17-.12h0c-.06,0-.08-.09-.14-.11l0-.06-.1-.12v0s-.05-.12-.09-.18l-4.44-11.76a1.08,1.08,0,0,1,2-.75l3.54,9.33,2.79-6a1.09,1.09,0,0,1,1.06-.63,1.13,1.13,0,0,1,1,.71l2.33,6.19,4.21-9a1.1,1.1,0,0,1,1.47-.52A1.08,1.08,0,0,1,315.41,155.36Z" style="fill:#263238"></path><path d="M334.59,156.31l-4.28,5.42-.2,5.35a1.08,1.08,0,0,1-1.14,1,1.1,1.1,0,0,1-1.05-1.13l.21-5.36-3.82-5.72a1,1,0,0,1,.27-1.5,1.06,1.06,0,0,1,1.5.29l3.22,4.77,3.57-4.51a1.09,1.09,0,0,1,1.54-.18A1.11,1.11,0,0,1,334.59,156.31Z" style="fill:#263238"></path><path d="M336.47,167.33l.45-11.71a1.07,1.07,0,0,1,1.13-1.05h.06l6.43.24a1.12,1.12,0,0,1,1,1.14,1.13,1.13,0,0,1-1.14,1.07l-5.37-.21-.14,3.63,4.62.18a1.11,1.11,0,0,1,1.05,1.13,1.1,1.1,0,0,1-1.13,1.07l-4.62-.17-.14,3.65,5.37.2a1.11,1.11,0,0,1,1.05,1.15,1.1,1.1,0,0,1-1.13,1l-6.43-.24s0,0,0,0l0,0A1.09,1.09,0,0,1,336.47,167.33Z" style="fill:#263238"></path><path d="M355.43,165.86l-4.82-.18-1.07,2.54a1.09,1.09,0,0,1-1.05.65,1.17,1.17,0,0,1-.38-.07,1.12,1.12,0,0,1-.6-1.45l4.83-11.53a1.11,1.11,0,0,1,1.08-.65,1.09,1.09,0,0,1,1,.73l3.94,11.86a1.11,1.11,0,0,1-.71,1.4,1.09,1.09,0,0,1-1.36-.69Zm-.73-2.22-1.44-4.32-1.77,4.2Z" style="fill:#263238"></path><path d="M370.27,168.05a1.11,1.11,0,0,1-.75,1.36,1.54,1.54,0,0,1-.44,0h0a1.34,1.34,0,0,1-.76-.24,1.94,1.94,0,0,1-.61-.72,5.32,5.32,0,0,1-.33-2.4,1.61,1.61,0,0,0-.2-.86,2.06,2.06,0,0,0-.58-.6,3.87,3.87,0,0,0-1.09-.52l-2.34-.09-.17,4.31a1.11,1.11,0,0,1-1.15,1,1.09,1.09,0,0,1-1.05-1.13l.44-11.71a1.08,1.08,0,0,1,1.14-1h0l3.53.13a4.25,4.25,0,0,1,4.08,4.43,4.2,4.2,0,0,1-1.67,3.2,2.93,2.93,0,0,1,.67.76,3.79,3.79,0,0,1,.57,2.16,5.23,5.23,0,0,0,0,1.18A1.09,1.09,0,0,1,370.27,168.05ZM367.79,160a2,2,0,0,0-2-2.14l-2.44-.1-.16,4.09,2.44.09A2,2,0,0,0,367.79,160Z" style="fill:#263238"></path><path d="M373.34,160.42a1.69,1.69,0,0,0,1.42-1.74,1.4,1.4,0,0,1-1.08-1.37v-.16a1.28,1.28,0,0,1,1.4-1.28c.87,0,1.4.73,1.36,1.8v.2a3.9,3.9,0,0,1-1.08,2.86,2.89,2.89,0,0,1-1.9.78.53.53,0,0,1-.59-.58A.56.56,0,0,1,373.34,160.42Z" style="fill:#263238"></path><path d="M377.69,166.52a1,1,0,0,1,1.45-.08,6.47,6.47,0,0,0,3.74,1.67,4.26,4.26,0,0,0,2.5-.64,1.78,1.78,0,0,0,.91-1.4,1.13,1.13,0,0,0-.15-.64,2,2,0,0,0-.58-.62,7.87,7.87,0,0,0-2.68-1h0a11.4,11.4,0,0,1-2.53-.87,4.32,4.32,0,0,1-1.79-1.62,3.08,3.08,0,0,1-.39-1.65,3.64,3.64,0,0,1,1.7-2.83,5.91,5.91,0,0,1,3.47-.93,7.76,7.76,0,0,1,4.26,1.76,1,1,0,0,1-1.19,1.66,5.76,5.76,0,0,0-3.15-1.39,3.74,3.74,0,0,0-2.25.59,1.59,1.59,0,0,0-.8,1.22,1,1,0,0,0,.12.56,2,2,0,0,0,.52.54,6.78,6.78,0,0,0,2.44,1h0a11.64,11.64,0,0,1,2.71.93,4.61,4.61,0,0,1,1.92,1.73,3.11,3.11,0,0,1,.41,1.7,3.82,3.82,0,0,1-1.82,3,6.13,6.13,0,0,1-3.71,1,8.62,8.62,0,0,1-5-2.17A1.07,1.07,0,0,1,377.69,166.52Z" style="fill:#263238"></path><path d="M276.3,180.49a2.1,2.1,0,0,0-.87-1.78,3.69,3.69,0,0,0-1.31-.62l-.08,0-2.8-.1-.17,4.55a.41.41,0,0,1-.81,0l.41-10.72a.39.39,0,0,1,.37-.38h.08l3.21.12a3.29,3.29,0,0,1,1.15,6.32l.16.09a2.9,2.9,0,0,1,1.45,2.62,4,4,0,0,0,.1,1.34.6.6,0,0,0,.15.28.41.41,0,0,1,.15.8h-.23a.94.94,0,0,1-.72-.56A4,4,0,0,1,276.3,180.49Zm-2-8.19-2.84-.11-.19,5,2.76.1h.15a2.49,2.49,0,0,0,.12-5Z" style="fill:#263238"></path><path d="M281.17,172.15a.39.39,0,0,1,.41-.38h0l5.89.22a.38.38,0,0,1,.37.41.39.39,0,0,1-.41.4l-5.5-.21-.17,4.55,4.81.19a.39.39,0,0,1,.38.42.4.4,0,0,1-.41.38l-4.81-.18-.17,4.54,5.5.21a.4.4,0,0,1,0,.8l-5.87-.22h-.08a.41.41,0,0,1-.35-.41Z" style="fill:#263238"></path><path d="M290,181.46a.35.35,0,0,1,.51,0,6.33,6.33,0,0,0,3.73,1.62,4.29,4.29,0,0,0,2.56-.66,2.11,2.11,0,0,0,1.05-1.67,1.83,1.83,0,0,0-.88-1.62,7.58,7.58,0,0,0-2.63-1h0a7,7,0,0,1-2.68-1.07,2.35,2.35,0,0,1-1.1-2.05,2.66,2.66,0,0,1,1.28-2.11,4.7,4.7,0,0,1,2.81-.73,6.35,6.35,0,0,1,3.5,1.46.38.38,0,0,1,.08.52.35.35,0,0,1-.5.08,5.69,5.69,0,0,0-3.11-1.34,4.15,4.15,0,0,0-2.38.6,2,2,0,0,0-1,1.55,1.67,1.67,0,0,0,.8,1.43,6.74,6.74,0,0,0,2.44,1h0a8,8,0,0,1,2.89,1.17,2.6,2.6,0,0,1,1.18,2.21,2.9,2.9,0,0,1-1.38,2.26,5.12,5.12,0,0,1-3,.79,7.2,7.2,0,0,1-4.18-1.82A.38.38,0,0,1,290,181.46Z" style="fill:#263238"></path><path d="M306.94,172.56a5.85,5.85,0,1,1-5.78,5.63A5.68,5.68,0,0,1,306.94,172.56Zm-.41,10.87a5,5,0,1,0-4.56-5.21A4.89,4.89,0,0,0,306.53,183.43Z" style="fill:#263238"></path><path d="M315.77,184.59h0a.4.4,0,0,1-.38-.41l.4-10.72a.39.39,0,0,1,.41-.38.4.4,0,0,1,.39.41l-.38,10.31,5.51.21a.39.39,0,0,1,.39.42.4.4,0,0,1-.42.38Z" style="fill:#263238"></path><path d="M324.72,173.8a.39.39,0,0,1,.41-.38.4.4,0,0,1,.39.41l-.24,6.46a3.85,3.85,0,0,0,7.7.29l.24-6.46a.4.4,0,0,1,.8,0l-.24,6.46a4.66,4.66,0,1,1-9.31-.35Z" style="fill:#263238"></path><path d="M340.57,174.81l-3.47-.13a.41.41,0,0,1,0-.81l7.73.29a.41.41,0,0,1,.38.41.41.41,0,0,1-.41.4l-3.47-.13L341,185.15a.4.4,0,0,1-.79,0Z" style="fill:#263238"></path><path d="M348.37,174.69a.4.4,0,0,1,.4-.38.41.41,0,0,1,.4.41l-.4,10.73a.41.41,0,0,1-.81,0Z" style="fill:#263238"></path><path d="M358.33,174.51a5.85,5.85,0,1,1-5.77,5.63A5.66,5.66,0,0,1,358.33,174.51Zm-.4,10.87a5,5,0,1,0-4.57-5.21A4.9,4.9,0,0,0,357.93,185.38Z" style="fill:#263238"></path><path d="M367.59,176.72l-.35,9.43a.4.4,0,1,1-.79,0l.4-10.56a.39.39,0,0,1,.16-.44.42.42,0,0,1,.56.12l6.61,9.93.35-9.37a.4.4,0,0,1,.8,0l-.39,10.6a.4.4,0,0,1-.43.38.38.38,0,0,1-.31-.16.23.23,0,0,1-.06-.07Z" style="fill:#263238"></path><path d="M378.62,184.81a.35.35,0,0,1,.51,0,6.28,6.28,0,0,0,3.72,1.63,4.39,4.39,0,0,0,2.57-.67,2.15,2.15,0,0,0,1.05-1.67,1.84,1.84,0,0,0-.88-1.61,7.57,7.57,0,0,0-2.63-1h0a7.3,7.3,0,0,1-2.68-1.07,2.4,2.4,0,0,1-1.11-2,2.69,2.69,0,0,1,1.28-2.11,4.73,4.73,0,0,1,2.81-.74,6.36,6.36,0,0,1,3.5,1.47.36.36,0,0,1,.08.51.34.34,0,0,1-.49.08,5.74,5.74,0,0,0-3.12-1.33,4.06,4.06,0,0,0-2.37.6,2,2,0,0,0-1,1.54,1.68,1.68,0,0,0,.81,1.43,6.67,6.67,0,0,0,2.43,1h0a7.88,7.88,0,0,1,2.89,1.16,2.6,2.6,0,0,1,1.19,2.22,2.92,2.92,0,0,1-1.39,2.25,5.07,5.07,0,0,1-3,.8,7.23,7.23,0,0,1-4.18-1.82A.39.39,0,0,1,378.62,184.81Z" style="fill:#263238"></path><path d="M269.14,210.92l-1.7.89a.47.47,0,0,1-.2.06.42.42,0,0,1-.35-.22.38.38,0,0,1,.18-.54l2.33-1.27a.41.41,0,0,1,.54.17.49.49,0,0,1,0,.31l-.5,10.77a.4.4,0,0,1-.42.39.42.42,0,0,1-.39-.43Z" style="fill:#263238"></path><path d="M273.71,220a.84.84,0,1,1-.88.8A.83.83,0,0,1,273.71,220Z" style="fill:#263238"></path><path d="M265.79,253.89l5.71-4.69a3,3,0,0,0-3.85-4.66l-.59.49a.4.4,0,1,1-.53-.61l.6-.51a3.93,3.93,0,0,1,2.64-.87,3.76,3.76,0,0,1,2.76,1.39,3.7,3.7,0,0,1,.88,2.61,3.83,3.83,0,0,1-1.38,2.79l-4.89,4,5.54.26a.41.41,0,0,1,0,.82l-6.54-.31H266a.34.34,0,0,1-.29-.13A.44.44,0,0,1,265.79,253.89Z" style="fill:#263238"></path><path d="M277,253.45a.84.84,0,1,1-.08,1.67.82.82,0,0,1-.8-.87A.83.83,0,0,1,277,253.45Z" style="fill:#263238"></path><path d="M272.42,277.19l-3.18,3a4,4,0,0,1,1.69,6.8,4,4,0,0,1-2.87,1,4,4,0,0,1-2.75-1.3.42.42,0,0,1,.62-.56,3.16,3.16,0,0,0,2.17,1,3.21,3.21,0,0,0,2.27-.81,3.09,3.09,0,0,0,1-2.18,3.14,3.14,0,0,0-3-3.28.46.46,0,0,1-.32-.18h0a.43.43,0,0,1,0-.61l3.05-2.86-4.49-.21a.42.42,0,0,1-.4-.44.42.42,0,0,1,.44-.4l5.48.25a.42.42,0,0,1,.4.44.31.31,0,0,1-.06.19A.38.38,0,0,1,272.42,277.19Z" style="fill:#263238"></path><path d="M276.42,286.7a.84.84,0,1,1-.88.8A.84.84,0,0,1,276.42,286.7Z" style="fill:#263238"></path><path d="M270.69,319l-6.35-.3h0a.32.32,0,0,1-.25-.09.4.4,0,0,1,0-.58l7.18-8.13h0a.38.38,0,0,1,.57,0,.52.52,0,0,1,.13.21s0,.05,0,.07v.05l-.37,8,.78,0a.4.4,0,1,1,0,.8l-.79,0-.09,2a.42.42,0,0,1-.83,0Zm0-.81.32-6.87-5.86,6.62Z" style="fill:#263238"></path><path d="M276.34,320a.82.82,0,0,1,.8.87.84.84,0,1,1-.8-.87Z" style="fill:#263238"></path><path d="M263.21,353.19a.4.4,0,0,1,0-.59.42.42,0,0,1,.6,0,3.18,3.18,0,0,0,2.17,1,3.14,3.14,0,0,0,2.26-.82,3.11,3.11,0,0,0,1-2.17,3.1,3.1,0,0,0-3-3.28,3.11,3.11,0,0,0-2.27.82.4.4,0,0,1-.59,0,.24.24,0,0,1-.09-.14h0a.07.07,0,0,1,0-.06.49.49,0,0,1,0-.13s0-.05,0-.08l.79-4.7a.37.37,0,0,1,.18-.3.45.45,0,0,1,.28-.09l5.46.26a.42.42,0,0,1,.4.44.4.4,0,0,1-.44.4l-5.11-.24-.58,3.46a4,4,0,0,1,2-.44,3.84,3.84,0,0,1,2.74,1.29,3.89,3.89,0,0,1,1,2.87,3.94,3.94,0,0,1-1.29,2.76,4,4,0,0,1-2.87,1A4,4,0,0,1,263.21,353.19Z" style="fill:#263238"></path><path d="M274.39,353.18a.84.84,0,0,1-.08,1.68.84.84,0,0,1,.08-1.68Z" style="fill:#263238"></path><path d="M384.46,219.85a190.81,190.81,0,0,1,26.51,1,190.81,190.81,0,0,1-26.51-1Z" style="fill:#263238"></path><path d="M340.9,218.2a313,313,0,0,1,33.69,1.28,313.19,313.19,0,0,1-33.69-1.28Z" style="fill:#263238"></path><path d="M287,216.16q22.55,0,45.06,1.71-22.54.06-45.06-1.71Z" style="fill:#263238"></path><path d="M351,253.25q19.53-.17,39,1.48-19.51.17-39-1.48Z" style="fill:#263238"></path><path d="M285.91,250.78c19.06.13,40,.92,59,2.24-19.06-.13-40-.93-59-2.24Z" style="fill:#263238"></path></g><g id="freepik--Table--inject-656"><path d="M41.32,444.37c133.69-.62,283.67-.62,417.36,0C325,445,175,445,41.32,444.37Z" style="fill:#263238"></path></g><g id="freepik--Confetti--inject-656"><path d="M335.66,450.11c.85-1.56,5.14-2.29,7.92-1.22,1.17.45,1.76,1.15,1.54,1.84a.16.16,0,0,1,0,.07c0,.93-1.55,1.86-3.76,2.06C337.86,453.17,334.83,451.64,335.66,450.11Z" style="fill:#263238"></path><path d="M198.54,473.66c-3,.83-7.23,0-7.5-1.68-.12-.7.56-1.38,1.8-1.79l.13,0a9.61,9.61,0,0,1,5.87-.24C201.79,470.79,201.51,472.85,198.54,473.66Z" style="fill:#455a64"></path><path d="M403.26,458.8c-1.77,1.4-6.35,1.56-8.36.18-.84-.58-1-1.33-.34-2l.07-.06c.6-.89,2.63-1.59,4.87-1.5C403,455.59,405,457.44,403.26,458.8Z" style="fill:#ECEFF1"></path><path d="M278.08,473.74c-1.77,1.39-6.35,1.56-8.36.17-.84-.58-1-1.32-.34-2l.07-.06c.6-.88,2.63-1.59,4.87-1.5C277.85,470.52,279.81,472.38,278.08,473.74Z" style="fill:#ECEFF1"></path><path d="M329.6,457.05a5.35,5.35,0,0,1,4.64-.13c.71.42.61.94,0,1.33a5.07,5.07,0,0,1-3.24.66C329.07,458.73,328.38,457.74,329.6,457.05Z" style="fill:#455a64"></path><path d="M282.36,468.69c-1.6.44-3.86.31-4.47-.59-.34-.51.15-1,1-1.25a6.35,6.35,0,0,1,3.55-.13C284.13,467.2,284,468.23,282.36,468.69Z" style="fill:#263238"></path><path d="M161.59,468.9c-.16.84-1.72,1.59-3.69,1.28-1.11-.18-1.65-.63-1.64-1.1s.7-1.16,1.87-1.37C160,467.37,161.77,468,161.59,468.9Z" style="fill:#ECEFF1"></path><path d="M229.06,479.51c-1.87.09-3.8-.46-3.5-1.39.17-.53,1.06-.86,2.08-.94a5.45,5.45,0,0,1,3.33.57C232.05,478.51,231,479.42,229.06,479.51Z" style="fill:#455a64"></path><path d="M84.37,474.91c-1.78-.26-3.05-1.12-1.93-1.92a4.27,4.27,0,0,1,2.74-.47c1.22.07,2.33.56,2.52,1.13C88,474.54,86.22,475.18,84.37,474.91Z" style="fill:#455a64"></path><path d="M392.35,452.32c-1.54.49-3.81.43-4.55-.45-.42-.5,0-1,.8-1.28a6.17,6.17,0,0,1,3.52-.23C393.88,450.78,393.94,451.82,392.35,452.32Z" style="fill:#455a64"></path><path d="M411.81,473.53c-1.53.49-3.81.43-4.54-.45-.42-.5,0-1,.8-1.28a6.16,6.16,0,0,1,3.52-.23C413.35,472,413.41,473,411.81,473.53Z" style="fill:#37474f"></path><path d="M456.45,461.37c.28-1.44-.52-2.85-2.28-4a2.25,2.25,0,0,0,.38-1.14c.08-3.37-6.39-5-12.07-6.47-.45-.11-.78.2-.35.32,3.36.93,7.06,2.15,9.13,3.7a2.88,2.88,0,0,1,1.44,2.81,15.88,15.88,0,0,0-2.63-.88c-4-1-10.48-1.13-13.4.75-3.27,2.12,2.51,3.62,6.53,3.75s8.12-.51,10.09-1.95c2.06,1.68,2.06,3.89-.44,5.65-2,1.39-5.3,2.33-8.84,2.68h0c-.19-.95-1.22-1.85-3.22-2.44-3.23-1-8.91-.16-6.74,1.91,1.4,1.34,5,1.58,8.43,1.38a3.9,3.9,0,0,1-2.14,2c-3.69,1.68-9.17,1.62-14,1.33-.72,0-.94.44-.22.5,5.43.44,11.71.34,15.64-1.66a3.81,3.81,0,0,0,2.22-2.25,35.4,35.4,0,0,0,3.87-.57C452.61,465.79,456,463.77,456.45,461.37Zm-6.72-2.49c-2.89.83-8.42.92-11.09-.17-2-.81-.81-1.91,1.21-2.44a18.92,18.92,0,0,1,6.23-.36,15.76,15.76,0,0,1,6.1,1.65A5.25,5.25,0,0,1,449.73,458.88Zm-11.52,7.78c-1.21-.13-2.64-.46-3-1.05-.61-.92,1.52-1.37,3.2-1.2,2.8.28,4.05,1.26,4.15,2.33A26,26,0,0,1,438.21,466.66Z" style="fill:#263238"></path><path d="M140.58,461.9a12.13,12.13,0,0,1-6.53-.23c2.4-.9,4.18-2.32,2.93-3.64a3.91,3.91,0,0,0-3.92-.54c-1.83.65-2.55,1.85-2.21,2.86a2.5,2.5,0,0,0,1.06,1.2c-4.75,1.22-11.18-.29-13-2.76a2.72,2.72,0,0,1-.41-.84,23.83,23.83,0,0,0,8.07-1.45c3-1.12,7.17-3.74,2.74-5.21s-9.32,1.31-11,2.91a4.36,4.36,0,0,0-1.49,3,14.85,14.85,0,0,1-5-1.27c-6.69-3.23-.79-7.8,6.15-9.67.32-.08,0-.3-.29-.22-4.63,1.12-8.56,2.91-9.69,5.3s.72,4.7,5.17,6a18.14,18.14,0,0,0,3.76.64,4.75,4.75,0,0,0,2.38,2.74c2.78,1.68,7.59,2.58,12,1.77.5-.09,1-.21,1.51-.35a14.21,14.21,0,0,0,8.35.34C141.94,462.21,141.3,461.71,140.58,461.9ZM120.35,454A11,11,0,0,1,124,452c2.72-.82,6.16-.12,5.48,1.44s-4.61,2.95-7.66,3.49a18.86,18.86,0,0,1-3.44.27A4.42,4.42,0,0,1,120.35,454Zm11.92,6.29a1.84,1.84,0,0,1,1.57-2.23,2.06,2.06,0,0,1,1.95.62c.16.25,0,.54-.15.78a3.21,3.21,0,0,1-1,1,8.29,8.29,0,0,1-1.55.77A2,2,0,0,1,132.27,460.26Z" style="fill:#ECEFF1"></path><path d="M355,481c-1.75-.78-2.24-2-1.37-2.9,2.59.79,6.1,1.16,8.55.24,1.44-.54,1.61-1.34,0-1.85a14.33,14.33,0,0,0-6.68-.15,8,8,0,0,0-2.26.8c-3.93-1.72-2.54-4.93,2.17-6.42a16.3,16.3,0,0,1,1.67-.42c.83,1.24,2.82,2.32,5.37,3.09,3.2,1,9.94,2.05,11.81-.28s-5.41-3.68-9.27-3.93a34.62,34.62,0,0,0-6.7.19,2.64,2.64,0,0,1,1.28-2.54c4.95-3.82,16.3-2.55,22.23-.06.28.11.66-.08.4-.2a31.43,31.43,0,0,0-14-2.7c-5.13.18-9.77,1.64-11.19,3.93a2.15,2.15,0,0,0-.28,1.81,15.77,15.77,0,0,0-5.14,1.81c-2.76,1.68-3.31,4-.35,5.73a9.35,9.35,0,0,0,1.18.55c-1.27,1.2-.73,2.75,1.64,3.72C354.71,481.63,355.57,481.21,355,481Zm11.07-11a22.82,22.82,0,0,1,5.14,1c2.49,1,2,2.64-1.52,2.79a20,20,0,0,1-9.55-2.34,4.27,4.27,0,0,1-1.56-1.41A31.8,31.8,0,0,1,366.05,469.93Zm-9.95,6.95c1-.21,4.43-.56,5.16.05.33.27.46.67-.76,1a6.62,6.62,0,0,1-1.68.15,14.47,14.47,0,0,1-2.39-.16,15.76,15.76,0,0,1-2.07-.45A6.15,6.15,0,0,1,356.1,476.88Z" style="fill:#ECEFF1"></path><path d="M57.59,459.12c-3,1.22-4.58,3-4.49,4.71-4.69.33-8.85,1.53-9.54,3.85-.62,2.14,3,4.13,6.29,5.44a43,43,0,0,0,14.43,2.68c.41,0,.53-.26.11-.29-6.8-.55-13.21-2.16-17.12-4.78-2.22-1.49-2.9-3.26-.06-4.69a17,17,0,0,1,6-1.45c.48,1.37,2.09,2.64,5,3.49,2.52.74,6.91,1.1,8.9-.22s-1-2.77-3.63-3.36a36.69,36.69,0,0,0-8.7-.75c-.06-1.63,1.72-3.29,4.77-4.35,6.34-2.21,14.54-1.49,21,.16.57.14,1.15-.28.61-.45C74.24,456.91,64.28,456.38,57.59,459.12Zm-.94,5.37c2.91.08,7.12.52,8.84,1.7s-1,1.85-3.24,1.75A12.85,12.85,0,0,1,58,467a5.19,5.19,0,0,1-3-2.48C55.54,464.48,56.1,464.48,56.65,464.49Z" style="fill:#263238"></path></g><g id="freepik--Sheets--inject-656"><polygon points="198.16 452.17 228.33 440.89 266.66 449.02 235.19 461.14 198.16 452.17" style="fill:#dbdbdb"></polygon><path d="M234,458c1.85-.87,3.77-1.67,5.69-2.47s3.87-1.57,5.82-2.33,3.94-1.5,5.95-2.21l3-1.06c1-.33,2-.68,3.07-1-.93.44-1.88.85-2.82,1.27l-2.87,1.21c-1.92.8-3.87,1.57-5.83,2.33s-3.94,1.5-6,2.2S236.06,457.35,234,458Z" style="fill:#263238"></path><path d="M239,453.41a64.35,64.35,0,0,1,6.75-3A72.88,72.88,0,0,1,253,448a68.81,68.81,0,0,1-6.75,3C243.9,451.87,241.51,452.72,239,453.41Z" style="fill:#263238"></path><path d="M224.9,456.16c1.85-.87,3.77-1.68,5.69-2.48s3.87-1.56,5.82-2.33,3.94-1.5,6-2.2l3-1.06c1-.33,2-.68,3.07-1-.93.44-1.88.84-2.82,1.27l-2.87,1.2c-1.92.81-3.87,1.57-5.83,2.33s-3.94,1.5-6,2.21S227,455.51,224.9,456.16Z" style="fill:#263238"></path><path d="M223.74,453.94c3.15-1.51,6.47-2.85,9.82-4.16s6.78-2.53,10.34-3.61c-3.15,1.51-6.47,2.85-9.82,4.16S227.3,452.86,223.74,453.94Z" style="fill:#263238"></path><path d="M227.68,449.75a47.27,47.27,0,0,1,5.58-2.52,54.45,54.45,0,0,1,6.1-2,44.23,44.23,0,0,1-5.58,2.52A53.1,53.1,0,0,1,227.68,449.75Z" style="fill:#263238"></path><polygon points="158.59 454.03 206.26 442.24 252.25 459.81 204.82 472.02 158.59 454.03" style="fill:#ebebeb"></polygon><path d="M204.16,468.44c3.1-.94,6.25-1.82,9.4-2.68s6.32-1.7,9.5-2.53,6.38-1.62,9.59-2.39l4.83-1.15c1.62-.36,3.23-.74,4.86-1.08-1.54.47-3.12.91-4.68,1.37l-4.72,1.31c-3.15.87-6.32,1.7-9.5,2.53s-6.38,1.62-9.59,2.39S207.42,467.74,204.16,468.44Z" style="fill:#263238"></path><path d="M216.37,462.19c3.4-1.15,6.91-2.11,10.45-3s7.13-1.76,10.83-2.44c-3.4,1.14-6.91,2.11-10.45,3S220.07,461.5,216.37,462.19Z" style="fill:#263238"></path><path d="M199.46,463.44c2.71-.84,5.47-1.62,8.23-2.39s5.54-1.49,8.32-2.22,5.6-1.42,8.42-2.09l4.24-1c1.43-.31,2.84-.64,4.28-.93-1.35.43-2.73.81-4.1,1.22l-4.13,1.16c-2.76.77-5.54,1.5-8.33,2.23s-5.59,1.42-8.42,2.08S202.33,462.84,199.46,463.44Z" style="fill:#263238"></path><path d="M197.24,460.9c2.51-.79,5-1.51,7.61-2.22s5.13-1.4,7.71-2.07,5.17-1.32,7.79-1.93l3.93-.91c1.32-.29,2.64-.59,4-.86-1.25.4-2.52.76-3.78,1.14l-3.83,1.08c-2.55.72-5.13,1.4-7.71,2.07s-5.18,1.31-7.79,1.93S199.9,460.35,197.24,460.9Z" style="fill:#263238"></path><path d="M185.36,460.85c3.11-.94,6.25-1.82,9.41-2.68s6.32-1.71,9.5-2.53,6.37-1.63,9.59-2.39l4.83-1.15c1.62-.36,3.23-.74,4.86-1.09-1.55.48-3.12.92-4.68,1.38l-4.72,1.31c-3.15.87-6.33,1.7-9.5,2.52s-6.38,1.63-9.59,2.39S188.62,460.15,185.36,460.85Z" style="fill:#263238"></path><path d="M185,457.84c2.75-.85,5.53-1.63,8.33-2.4s5.6-1.52,8.42-2.26,5.66-1.44,8.52-2.11l4.29-1c1.44-.31,2.87-.65,4.32-.95-1.36.43-2.76.83-4.14,1.24l-4.18,1.17c-2.79.78-5.61,1.52-8.43,2.25s-5.66,1.44-8.51,2.11S187.87,457.24,185,457.84Z" style="fill:#263238"></path><path d="M176,457.05c3.1-.94,6.25-1.81,9.4-2.68s6.33-1.7,9.5-2.53,6.38-1.62,9.59-2.39l4.83-1.15c1.62-.36,3.23-.74,4.87-1.08-1.55.47-3.13.91-4.68,1.37l-4.73,1.31c-3.14.87-6.32,1.7-9.5,2.53s-6.37,1.62-9.59,2.39S179.23,456.35,176,457.05Z" style="fill:#263238"></path><path d="M186.89,451.13c3.61-1.2,7.34-2.22,11.09-3.2s7.57-1.88,11.48-2.61c-3.61,1.2-7.34,2.22-11.1,3.2S190.8,450.39,186.89,451.13Z" style="fill:#263238"></path></g><g id="freepik--Plant--inject-656"><path d="M427.88,356.11c-5.16,0-15.6-4.06-13.84-7.47s7.13,1,7.36,1.1c-.16-.25-3.64-7.06-.54-8.24s6.24,2.1,7,5.88c.78-3.78,3.84-7.09,7-5.88s-.38,8-.53,8.24c.22-.13,5.63-4.44,7.35-1.1S433,356.11,427.88,356.11Z" style="fill:#455a64"></path><path d="M453.94,383.93a63.91,63.91,0,0,1-1.32,8.47c-1.22,5.54-3.24,10.92-6.12,14.52a51.3,51.3,0,0,1-37.35,0c-6.15-7.69-8.35-23.51-7.47-31.64,1.59-14.7,10.36-20.31,18-22.32h0a32.26,32.26,0,0,1,8.16-1c7.47,0,23.91,2.7,26.15,23.37A46.36,46.36,0,0,1,453.94,383.93Z" style="fill:#ECEFF1"></path><path d="M428.37,351.91c.21,4.88.33,9.76.42,14.64s.11,9.76.13,14.64-.05,9.76-.19,14.64a118.87,118.87,0,0,1-1,14.61l.19-1.82.1-1.83c.08-1.21.08-2.43.12-3.65.06-2.44.1-4.88.1-7.32,0-4.87.07-9.75,0-14.63l0-14.64C428.3,361.67,428.31,356.79,428.37,351.91Z" style="fill:#fff"></path><path d="M425.2,352a59.64,59.64,0,0,0-1.75,7.09c-.49,2.38-.84,4.79-1.15,7.2a141.26,141.26,0,0,0-1,14.54l0,3.65c0,1.21.05,2.43.06,3.65,0,2.43.22,4.85.34,7.28,0,1.22.16,2.43.27,3.64l.32,3.64.83,7.26c-.4-2.4-.79-4.81-1.15-7.22l-.41-3.64c-.14-1.21-.29-2.42-.37-3.64-.2-2.43-.38-4.87-.43-7.31,0-1.22-.1-2.44-.09-3.66v-3.66a125.25,125.25,0,0,1,1.16-14.6A71.5,71.5,0,0,1,425.2,352Z" style="fill:#fff"></path><path d="M421,352.62a30.35,30.35,0,0,0-3.71,6.44c-.24.57-.5,1.13-.73,1.71l-.62,1.75-.31.88c-.09.29-.17.59-.26.89l-.49,1.79a57.46,57.46,0,0,0-1.69,14.72l.08,3.72.36,3.7.18,1.85c.09.61.21,1.22.32,1.84l.63,3.67a16.88,16.88,0,0,0,.39,1.82l.44,1.81.88,3.62,2.21,7.13c-.86-2.33-1.68-4.69-2.52-7l-1-3.61-.48-1.81a16.08,16.08,0,0,1-.44-1.82l-.7-3.68c-.1-.62-.23-1.23-.33-1.85l-.2-1.86-.39-3.73-.11-3.75A56,56,0,0,1,414.36,366l.55-1.79c.09-.3.17-.6.27-.9l.34-.88.67-1.75c.24-.58.52-1.14.78-1.7A28.8,28.8,0,0,1,421,352.62Z" style="fill:#fff"></path><path d="M417.86,353.46a27.2,27.2,0,0,0-5.05,5.61,32.76,32.76,0,0,0-3.6,6.6,38.54,38.54,0,0,0-2.84,14.7c0,1.25.06,2.51.1,3.76s.2,2.51.42,3.75l.29,1.86.38,1.85c.12.62.25,1.24.42,1.84l.45,1.84c.33,1.22.72,2.41,1.08,3.62l1.27,3.57,1.4,3.52,1.54,3.46a74.16,74.16,0,0,1-5.77-14c-.33-1.22-.72-2.43-.95-3.69l-.4-1.86-.3-1.88c-.24-1.25-.31-2.53-.46-3.79s-.16-2.54-.12-3.82a38.2,38.2,0,0,1,3-14.88,33.31,33.31,0,0,1,3.81-6.6A29.79,29.79,0,0,1,415,356,21.25,21.25,0,0,1,417.86,353.46Z" style="fill:#fff"></path><path d="M431.34,352a71.5,71.5,0,0,1,3.4,14.22,125.25,125.25,0,0,1,1.16,14.6v3.67c0,1.22-.07,2.44-.09,3.66-.05,2.44-.23,4.87-.43,7.31-.07,1.22-.23,2.43-.37,3.64l-.41,3.63c-.36,2.42-.75,4.82-1.15,7.23l.83-7.26.32-3.64c.11-1.21.23-2.42.27-3.64.12-2.43.32-4.86.34-7.29,0-1.22.08-2.43.06-3.65l0-3.64a138.88,138.88,0,0,0-1-14.55c-.31-2.41-.66-4.82-1.15-7.2A60.13,60.13,0,0,0,431.34,352Z" style="fill:#fff"></path><path d="M435.57,352.65a28.8,28.8,0,0,1,4,6.31c.26.57.54,1.13.78,1.71l.67,1.75.34.87c.1.3.18.6.27.9l.55,1.8A55.88,55.88,0,0,1,444,380.84l-.11,3.75-.39,3.73-.2,1.87c-.1.61-.22,1.23-.33,1.84l-.7,3.68a16.08,16.08,0,0,1-.44,1.82l-.48,1.81-1,3.61c-.84,2.36-1.66,4.71-2.51,7.05l2.2-7.14.88-3.62.44-1.81a15.91,15.91,0,0,0,.39-1.82l.63-3.67c.11-.61.23-1.22.32-1.83l.18-1.86.36-3.7.08-3.71a57.46,57.46,0,0,0-1.69-14.72l-.49-1.79c-.09-.3-.17-.6-.26-.9l-.31-.87L440,360.8c-.23-.57-.49-1.13-.73-1.71A29.93,29.93,0,0,0,435.57,352.65Z" style="fill:#fff"></path><path d="M438.68,353.49a20.64,20.64,0,0,1,2.85,2.52,30.89,30.89,0,0,1,2.46,2.9,33.31,33.31,0,0,1,3.81,6.6,38.26,38.26,0,0,1,3,14.89c0,1.27-.08,2.54-.13,3.81s-.22,2.54-.46,3.79l-.3,1.88-.4,1.87c-.23,1.25-.62,2.46-1,3.69a74.71,74.71,0,0,1-5.77,14l1.54-3.47,1.4-3.52,1.27-3.56c.36-1.21.76-2.41,1.08-3.63l.45-1.83c.17-.61.3-1.22.42-1.84l.38-1.85.29-1.87c.22-1.24.28-2.49.42-3.74s.14-2.51.1-3.77a38.53,38.53,0,0,0-2.84-14.69,32.83,32.83,0,0,0-3.6-6.61A27.2,27.2,0,0,0,438.68,353.49Z" style="fill:#fff"></path><path d="M426.63,369.35a33.35,33.35,0,0,1,2.15,3.26h-.39c.37-.66.75-1.31,1.15-1.94.21-.32.41-.64.62-.95s.43-.63.67-.93c-.14.36-.31.7-.46,1s-.33.69-.5,1c-.35.67-.71,1.33-1.09,2l-.2.35-.19-.34A33.51,33.51,0,0,1,426.63,369.35Z" style="fill:#fff"></path><path d="M428.42,367.66a12.07,12.07,0,0,1,.31,2.53,12.68,12.68,0,0,1-.14,2.53,13.74,13.74,0,0,1-.17-5.06Z" style="fill:#fff"></path><path d="M443.53,352.06a31.91,31.91,0,0,1,0,3.91l-.33-.21c.67-.36,1.34-.69,2-1l1-.46c.36-.14.7-.29,1.06-.41-.31.22-.63.42-.95.62s-.64.4-1,.58c-.66.38-1.32.74-2,1.08l-.36.18,0-.39A31.87,31.87,0,0,1,443.53,352.06Z" style="fill:#fff"></path><path d="M446,351.62a12.42,12.42,0,0,1-1.11,2.29,11.89,11.89,0,0,1-1.51,2,12.42,12.42,0,0,1,1.11-2.29A13,13,0,0,1,446,351.62Z" style="fill:#fff"></path><path d="M439.49,363.74a34.4,34.4,0,0,1,1.76,3.48l-.39,0c.44-.61.9-1.21,1.37-1.8l.73-.87c.25-.28.5-.57.76-.84-.18.34-.38.66-.57,1s-.41.64-.62,1c-.42.63-.85,1.25-1.3,1.85l-.24.31-.15-.35A31.59,31.59,0,0,1,439.49,363.74Z" style="fill:#fff"></path><path d="M441.46,362.27a12.69,12.69,0,0,1,0,2.54,11.92,11.92,0,0,1-.44,2.5,14,14,0,0,1,.42-5Z" style="fill:#fff"></path><path d="M432.15,402.31a32.6,32.6,0,0,1,2.15,3.25h-.39c.37-.65.76-1.3,1.16-1.94.2-.32.41-.64.62-.95s.43-.62.66-.92c-.14.35-.3.69-.46,1s-.33.68-.5,1c-.34.68-.7,1.34-1.08,2l-.2.34-.2-.34A34.37,34.37,0,0,1,432.15,402.31Z" style="fill:#fff"></path><path d="M434,400.62a13.46,13.46,0,0,1,.31,2.52,12.79,12.79,0,0,1-.15,2.54,14.05,14.05,0,0,1-.16-5.06Z" style="fill:#fff"></path><path d="M415,357.82a32.77,32.77,0,0,1,1.12,3.74l-.38-.11c.54-.53,1.1-1,1.67-1.53.29-.25.57-.49.87-.73s.59-.47.9-.69c-.24.3-.49.57-.74.86s-.51.56-.77.83c-.53.54-1.06,1.07-1.62,1.58l-.29.27-.08-.38A30.84,30.84,0,0,1,415,357.82Z" style="fill:#fff"></path><path d="M417.18,356.72a14.23,14.23,0,0,1-1.3,4.89,14.23,14.23,0,0,1,1.3-4.89Z" style="fill:#fff"></path><path d="M455.09,371.88a33.34,33.34,0,0,1-.41,3.88l-.31-.25c.7-.27,1.41-.53,2.13-.76l1.08-.34c.37-.1.73-.21,1.1-.29-.33.18-.67.34-1,.51l-1,.47q-1,.43-2.1.84l-.37.13.07-.38A31.29,31.29,0,0,1,455.09,371.88Z" style="fill:#fff"></path><path d="M457.55,371.72a12.78,12.78,0,0,1-1.37,2.14,12.16,12.16,0,0,1-1.73,1.86,14.15,14.15,0,0,1,3.1-4Z" style="fill:#fff"></path><path d="M419.19,386.24a31.6,31.6,0,0,1,2.19,3.23H421c.36-.66.74-1.31,1.13-2,.2-.33.4-.64.61-1s.43-.63.66-.93c-.14.36-.3.7-.45,1.05s-.32.68-.49,1c-.34.67-.69,1.34-1.06,2l-.2.35-.19-.34A33.41,33.41,0,0,1,419.19,386.24Z" style="fill:#fff"></path><path d="M421,384.53a14,14,0,0,1,.22,5.05,14,14,0,0,1-.22-5.05Z" style="fill:#fff"></path><path d="M405.71,394.87a32.18,32.18,0,0,1,3.24,2.18l-.36.15c.08-.75.19-1.5.32-2.24.06-.37.13-.75.2-1.12s.16-.74.26-1.1c0,.38,0,.75,0,1.13s0,.76-.07,1.13q-.09,1.14-.24,2.25l-.06.39-.3-.23A32.62,32.62,0,0,1,405.71,394.87Z" style="fill:#fff"></path><path d="M406.72,392.62a12.06,12.06,0,0,1,1.25,2.21,11.57,11.57,0,0,1,.84,2.4,12.76,12.76,0,0,1-1.25-2.21A11.77,11.77,0,0,1,406.72,392.62Z" style="fill:#fff"></path><path d="M402.36,360.6a32.68,32.68,0,0,1,3.6,1.53l-.33.22c-.06-.76-.09-1.51-.11-2.26,0-.38,0-.76,0-1.14s0-.75.05-1.13c.08.37.13.74.19,1.12s.1.75.14,1.12c.08.75.15,1.5.19,2.26l0,.39-.34-.18A30.91,30.91,0,0,1,402.36,360.6Z" style="fill:#fff"></path><path d="M402.93,358.2a13.69,13.69,0,0,1,1.65,1.93,13,13,0,0,1,1.28,2.2,13.63,13.63,0,0,1-2.93-4.13Z" style="fill:#fff"></path><path d="M448.39,385.37a33.46,33.46,0,0,1,1.84,3.44l-.39,0c.43-.62.87-1.23,1.33-1.83.23-.3.47-.6.71-.89s.48-.58.74-.85c-.17.34-.36.66-.55,1s-.39.65-.59,1c-.41.64-.83,1.26-1.27,1.88l-.23.32-.16-.36A30.74,30.74,0,0,1,448.39,385.37Z" style="fill:#fff"></path><path d="M450.34,383.85a12.74,12.74,0,0,1,.07,2.54,12,12,0,0,1-.39,2.52,12.74,12.74,0,0,1-.07-2.54A12.11,12.11,0,0,1,450.34,383.85Z" style="fill:#fff"></path><polygon points="405.88 407.28 450.23 407.28 445.76 444.37 410.34 444.37 405.88 407.28" style="fill:#455a64"></polygon><polygon points="405.88 407.28 406.88 415.65 449.47 413.6 450.23 407.28 405.88 407.28" style="fill:#263238"></polygon><rect x="403.09" y="402.6" width="49.92" height="6.63" style="fill:#455a64"></rect></g><g id="freepik--Character--inject-656"><path d="M153.29,194.42c2.75.29,14.65-1.35,22.84,9.33,7.74,10.11,11,41.27,12.79,48s10.7,7.6,13,15.45c2,6.76-2.95,9.36-3.35,14.35-.31,3.87,3.7,9.59.29,15.38-3.09,5.27-8.76,4.29-12.13,6s-5.33,9.63-11.59,11.89-12-3.38-15.3-3.27-7.1,10.45-18,9.78-14.29-9.84-18.83-11.57-15.8,1.66-21.08-3.87-6.33-13-8.72-15.74-7.24-2.18-10.27-8.52,2.85-10.54,3.57-16.12c.5-3.88-3-7.36-.72-13.33,3.16-8.2,13.14-6.67,16.76-15.1,2.84-6.61,8.4-35.21,25.45-42.58C139.73,189.44,153.29,194.42,153.29,194.42Z" style="fill:#263238"></path><path d="M188.56,250.16a9.8,9.8,0,0,0,3,3.6l3.62,3a29.6,29.6,0,0,1,6.43,6.51,9.45,9.45,0,0,1,1.22,8.27,14.31,14.31,0,0,1-2.2,3.84,16.59,16.59,0,0,0-2.61,4.2,8,8,0,0,0,.55,5.12c.54,1.51,1.13,2.93,1.59,4.38.94,2.87,1.23,5.94-.11,8.56a6.34,6.34,0,0,1-2.92,3,11.77,11.77,0,0,1-4.34,1c-1.53.14-3.09.12-4.66.18s-3.26.15-4.53,1.13a8.3,8.3,0,0,1,4.52-.66c1.56.08,3.12.23,4.71.22a12.49,12.49,0,0,0,4.78-.88,7.69,7.69,0,0,0,3.67-3.39c1.77-3,1.36-6.67.43-9.67-.45-1.55-1-3-1.52-4.47s-.88-2.86-.47-4c.88-2.51,3.65-4.8,4.65-8.07a10.52,10.52,0,0,0-1.63-9.56,29.93,29.93,0,0,0-7-6.43l-3.85-2.67A10.57,10.57,0,0,1,188.56,250.16Z" style="fill:#263238"></path><path d="M112.37,210.92c-2.88,4.85-4.61,10.24-6.85,15.34-1.12,2.55-2.15,5.14-3.44,7.57a18.91,18.91,0,0,1-2.17,3.35,2.72,2.72,0,0,1-.64.63,3.18,3.18,0,0,1-.74.51c-.58.32-1.2.61-1.82.89a80.89,80.89,0,0,0-7.61,3.73,14.36,14.36,0,0,0-6,6.29,9,9,0,0,0-.78,4.4,11.56,11.56,0,0,0,1.37,4.14c1.35,2.46,2.64,4.93,2.78,7.77.28-2.84-.91-5.61-2-8.14a10.72,10.72,0,0,1-1-3.85,7.64,7.64,0,0,1,.9-3.73,13.94,13.94,0,0,1,5.6-5.48,83,83,0,0,1,7.54-3.51c.64-.31,1.28-.62,1.92-1a6.1,6.1,0,0,0,1.81-1.55,19.8,19.8,0,0,0,2.32-3.72,68,68,0,0,0,3.28-7.81l2.73-7.95A72.65,72.65,0,0,1,112.37,210.92Z" style="fill:#263238"></path><path d="M90.44,288.33c1.23,1.59,1.43,3.67,1.92,5.59s.93,3.91,1.49,5.86a29.5,29.5,0,0,0,2.22,5.73,13.27,13.27,0,0,0,4.1,4.87c3.88,2.37,8.39,2,12.3,1.18,2-.41,3.92-.92,5.87-1.28a12.53,12.53,0,0,1,5.87-.1,11.62,11.62,0,0,0-6-.77c-2,.2-4,.56-6,.79-3.86.5-8,.65-11.09-1.31a12,12,0,0,1-3.6-4.19,36.92,36.92,0,0,1-2.4-5.35c-.71-1.86-1.31-3.76-2-5.67-.34-.95-.7-1.9-1.09-2.83A5.76,5.76,0,0,0,90.44,288.33Z" style="fill:#263238"></path><path d="M171.41,308.79c31.24,36.69,68.4,111.76,59.42,125.77-10,15.6-53.48-35.81-53.1-38.6.3-2.1-13-47-23.23-79.74S163.69,299.71,171.41,308.79Z" style="fill:#ad6359"></path><path d="M177.42,396c-1.1-4.78-19.35-64.07-24.45-82.76s1.29-23.91,18.43-5.86,53.29,76.77,60.3,107c6.75,29.16-7.93,28.08-26.33,13.52C190.3,416,177.42,396,177.42,396Z" style="fill:#ECEFF1"></path><path d="M52.13,444.69l137.45-.35-8.31-51.76s11.89-14.44,9.64-30.12c-2.47-17.17-33.39-60.69-36-63.14-10.46-9.84-21.47-12.47-31.44-7.32C89.18,309.74,52.13,444.69,52.13,444.69Z" style="fill:#ECEFF1"></path><path d="M157.48,388.62a125.29,125.29,0,0,0-18.26,3c-3,.76-5.89,1.66-8.81,2.62-1.45.48-2.91.91-4.38,1.33a19.81,19.81,0,0,1-4.7.89.11.11,0,0,0,0,.22,34.23,34.23,0,0,0,4.53-.09,31.61,31.61,0,0,0,4.32-.81c3-.75,6-1.63,9-2.41,6.08-1.56,12.16-3.13,18.34-4.25C157.84,389.08,157.77,388.59,157.48,388.62Z" style="fill:#263238"></path><path d="M172.67,394.08a133.9,133.9,0,0,0-15.25-.74c-2.55,0-5.07.21-7.61.46-1.21.11-2.42.25-3.63.41s-2.64.52-4,.67c-.14,0-.14.23,0,.22,1.26-.11,2.54,0,3.8,0l3.81-.1c2.54-.07,5.07-.1,7.61-.19,5.09-.17,10.15-.29,15.24-.28C173,394.5,172.93,394.1,172.67,394.08Z" style="fill:#263238"></path><path d="M131.05,292.24c.54,2.6,12.44,19.67,24.25,19.4,3.84-.09,4.28-21.13,4.28-21.13L160,289l5.4-21.64-25.12-17L136.6,248s-1.09,6-2.36,13.53c-.06.34-.13.69-.19,1.07s-.16.82-.22,1.21c-.21,1.12-.41,2.27-.59,3.41-.14.87-.29,1.71-.4,2.63s-.25,1.82-.39,2.73C131.28,281.71,130.84,291.14,131.05,292.24Z" style="fill:#ad6359"></path><path d="M134.24,261.57A44.73,44.73,0,0,0,160,289l5.4-21.64-25.12-17L136.6,248S135.51,254.06,134.24,261.57Z" style="fill:#263238"></path><path d="M188,222.65c14.28,36.44-5.9,49.11-13.75,52.19-7.13,2.79-31.75,11.38-49.71-23.39S119,198.52,135,191.27,173.74,186.2,188,222.65Z" style="fill:#ad6359"></path><path d="M129.86,254c7.5-3.39.27-20.83.27-20.83s11.7-8,13.18-19c0,0-.24,9.05-3.88,14.33-.61.89,24.13-13.09,17.87-34,0,0,12.39,17.92,26,16.75.64-.05-9.55-17.08-15.19-19.6a40.82,40.82,0,0,0-10.2-3.14,40.51,40.51,0,0,0-30.24,4.88c-14.88,9.3-17.95,30.59-16.15,38C115,245.93,126.3,255.6,129.86,254Z" style="fill:#263238"></path><path d="M140.44,228.6c13.84-6.82,21.13-20.77,16-35.72a.34.34,0,0,1,.62-.28c8.33,13.81-2.78,31.49-16.62,36.31C140.09,229,140.12,228.76,140.44,228.6Z" style="fill:#263238"></path><path d="M129.54,253.17c5.93-7.29,3.77-15.52.92-23.58-.08-.24.31-.42.42-.18,3.47,7.61,6.19,17.61-.78,24.28A.38.38,0,0,1,129.54,253.17Z" style="fill:#263238"></path><path d="M156.12,191.48c0-.09.09-.14.15-.07,5.26,7.34,11.59,20.84,22.84,18.34a.24.24,0,0,1,.13.46C168.66,213.57,158.69,200.33,156.12,191.48Z" style="fill:#263238"></path><path d="M181.05,218.77a26.2,26.2,0,0,1-2.66.38,4.37,4.37,0,0,1-2.79-.13,1.39,1.39,0,0,1-.57-1.59,3.43,3.43,0,0,1,2.9-1.91,5,5,0,0,1,3.58.59A1.47,1.47,0,0,1,181.05,218.77Z" style="fill:#263238"></path><path d="M156,227.83a25.51,25.51,0,0,0,2.28-1.42c.87-.56,1.62-.91,2-1.9a1.38,1.38,0,0,0-.58-1.58,3.42,3.42,0,0,0-3.45.4,5.06,5.06,0,0,0-2.37,2.76A1.48,1.48,0,0,0,156,227.83Z" style="fill:#263238"></path><path d="M165,234.69c-.05-.09-.14.19-.1.29,1,2.43,1.83,5.4-.08,7.09-.06.05,0,.17.07.13C167.48,240.75,166.4,236.83,165,234.69Z" style="fill:#263238"></path><path d="M161.81,233c-4.08,1.25-1.28,9.33,2.51,8.17S165.24,231.92,161.81,233Z" style="fill:#263238"></path><path d="M160.38,234c-.55.7-1,1.75-1.78,2.13s-2-.15-2.92-.74c-.09-.06-.14,0-.1.14.51,1.55,1.66,2.93,3.4,2.59,1.58-.31,2.2-2.06,2-3.75C161,234,160.6,233.67,160.38,234Z" style="fill:#263238"></path><path d="M178.75,229.33c0-.1.23,0,.27.16.77,2.53,2.07,5.31,4.62,5.37.08,0,.12.13,0,.15C180.77,235.56,179.07,231.86,178.75,229.33Z" style="fill:#263238"></path><path d="M180.1,226c3.93-1.67,7,6.32,3.35,7.87S176.81,227.36,180.1,226Z" style="fill:#263238"></path><path d="M182,225.84c.79.18,1.71.72,2.48.48s1.21-1.39,1.45-2.43c0-.11.12-.07.16,0,.63,1.51.73,3.29-.62,4.14s-2.72-.15-3.67-1.53C181.6,226.28,181.65,225.77,182,225.84Z" style="fill:#263238"></path><path d="M171.86,255.32c.79.42,1.64,1.06,2.58.86a6.94,6.94,0,0,0,2.54-1.45.1.1,0,0,1,.15.1,3.56,3.56,0,0,1-2.81,2.33,2.82,2.82,0,0,1-2.67-1.65C171.57,255.38,171.75,255.26,171.86,255.32Z" style="fill:#263238"></path><path d="M180,247.79a10.83,10.83,0,0,1-2.64,4.79,4.84,4.84,0,0,1-2.64,1.34c-2.18.33-3-1.45-3.31-3.14a12,12,0,0,1-.14-2.74A14,14,0,0,0,180,247.79Z" style="fill:#263238"></path><path d="M177.4,252.58a4.84,4.84,0,0,1-2.64,1.34c-2.18.33-3-1.45-3.31-3.14C173.64,250.09,176.34,250.61,177.4,252.58Z" style="fill:#ff9cbd"></path><path d="M179,242.56s1.85,3.54,2.48,5.3c.06.16-.34.39-.92.64,0,0,0,0-.07,0a8.86,8.86,0,0,1-9.22-.2.19.19,0,0,1,.17-.34,13.31,13.31,0,0,0,8.41-.56c0-.53-3.38-6-3.11-6.07a15.85,15.85,0,0,1,4.31-.53c-3.65-7.48-8.47-14.31-12-21.81-.12-.27.25-.5.42-.28,5.55,6.8,9.94,15.31,13.91,22.94C183.93,242.63,179.85,242.61,179,242.56Z" style="fill:#263238"></path><path d="M132.15,251.61s-11.64-9.3-16.09-4.81,6.72,19.66,13.64,20.14a6.62,6.62,0,0,0,7.49-5.93Z" style="fill:#ad6359"></path><path d="M119.37,251.07a.09.09,0,0,0,0,.18c4.9.48,8.4,3.85,11.25,7.59-1.78-1.24-3.81-1.6-5.52.59-.09.11.07.26.19.2a4,4,0,0,1,4.69.09,19.06,19.06,0,0,1,3.09,2.87c.32.33,1-.09.68-.5l-.07-.09C132.15,256.39,125.52,249.86,119.37,251.07Z" style="fill:#263238"></path><path d="M113.71,223.72s4.65-22.21,22.73-30.72,30.83-1.58,30.83-1.58l.69-5a37.55,37.55,0,0,0-34.68-2C107.9,195.54,107,221.81,107,221.81Z" style="fill:#455a64"></path><polygon points="88.58 187.75 93.62 180.12 97.34 174.49 111.67 183.95 106.63 191.58 102.91 197.21 88.58 187.75" style="fill:#455a64"></polygon><polygon points="99.33 172.95 104.58 168.14 120.56 176.79 106.52 189.64 99.33 172.95" style="fill:#455a64"></polygon><path d="M106.16,166.53l6.82-3.82a6.35,6.35,0,0,1,2-.72,5.3,5.3,0,0,1,.8-.1,7,7,0,0,1,2.58.33,7.14,7.14,0,0,1,2.23,1.22,6.86,6.86,0,0,1,1.68,2,7.08,7.08,0,0,1,.82,2.42,7.16,7.16,0,0,1-.08,2.53,6.77,6.77,0,0,1-1.09,2.44,6.14,6.14,0,0,1-1.1,1.18l1.71,3.07-8,4.46Z" style="fill:#455a64"></path><path d="M116.33,160.7l7.37-2.61a6.59,6.59,0,0,1,1-.27,6.26,6.26,0,0,1,1.88-.07,7,7,0,0,1,2.49.77,7.2,7.2,0,0,1,2,1.57,7,7,0,0,1,1.32,2.23,7.19,7.19,0,0,1,.4,2.52,7,7,0,0,1-.51,2.48,6.63,6.63,0,0,1-1.49,2.22,6.12,6.12,0,0,1-1.28,1l1.17,3.31-8.62,3Z" style="fill:#455a64"></path><polygon points="132.58 173.1 131.55 167.18 124.04 157.17 144.32 153.64 140.55 165.66 141.57 171.54 132.58 173.1" style="fill:#455a64"></polygon><rect x="94.89" y="202.71" width="15.95" height="17.17" transform="translate(-126.79 261.16) rotate(-76.29)" style="fill:#455a64"></rect><polygon points="96 202.99 102.2 190.6 109.72 194.36 109.79 194.24 117.62 198.15 111.36 210.66 96 202.99" style="fill:#455a64"></polygon><polygon points="99.45 192.94 102.83 189.42 117.29 174.31 125.04 191.05 116.5 199.96 99.45 192.94" style="fill:#455a64"></polygon><polygon points="125.21 184.08 115.29 176.44 133.88 167.61 133.47 180.2 136.03 185.59 127.79 189.51 125.21 184.08" style="fill:#455a64"></polygon><polygon points="129.71 169.43 143.23 166.44 145.05 174.65 145.19 174.62 147.08 183.17 133.42 186.19 129.71 169.43" style="fill:#455a64"></polygon><polygon points="138.9 183.62 145.46 166.67 152.58 166.91 157.92 184.28 138.9 183.62" style="fill:#455a64"></polygon><path d="M150.15,183.23l5.21-16.36,7.75,2.47a6.44,6.44,0,0,1,2.5,1.48,6.84,6.84,0,0,1,1.52,2.12,7.1,7.1,0,0,1,.64,2.45,7,7,0,0,1-2,5.37l-.27.26,1.65,7.64Z" style="fill:#455a64"></path><path d="M102.51,213.15l5.28,1.29-.72,2.95-10.75-2.62.56-2.3,6.52-3-5.46-1.34.72-3,10.74,2.62-.57,2.35Z" style="fill:#fff"></path><path d="M111.15,198.33l2.37,1.19-3.52,7-9.9-4.95,3.46-6.92,2.37,1.18-2.1,4.21,1.39.7,1.8-3.6,2.2,1.1-1.8,3.6,1.57.78Z" style="fill:#fff"></path><path d="M108,188.46l1.93-2,3.13,1.67L111.25,185l1.93-2,2.56,5,2.21,1-3.83-7,2.28-2.38,5,10.78-1.75,1.82-4-1.6,1.79,3.86-1.75,1.83-11-4.53,2.28-2.37,7.14,3.51L113,190.82Z" style="fill:#fff"></path><path d="M124.07,175.65l3.84,3.47-.23-5.19,3-1.42-.28,8.33,1.58,3.3-2.73,1.3-1.59-3.34-6.55-5Z" style="fill:#fff"></path><path d="M142.87,178.26l.57,2.59-7.7,1.7-2.39-10.8,7.56-1.67.57,2.58-4.59,1,.34,1.52,3.92-.87.53,2.41-3.92.87.38,1.7Z" style="fill:#fff"></path><path d="M147.53,169.79l2.77.1,3.44,11.19-3.08-.11-.59-2.19-2.95-.1-.73,2.14-3.1-.11Zm2.12,7-.86-3.46-1.14,3.39Z" style="fill:#fff"></path><path d="M154,181.25l3.36-10.54,4.84,1.54a3.35,3.35,0,0,1,1.33.78,3.82,3.82,0,0,1,.85,1.19,4.19,4.19,0,0,1,.36,1.4,3.54,3.54,0,0,1-.16,1.42,3.9,3.9,0,0,1-.94,1.58,3.72,3.72,0,0,1-1.53.95l1,4.58-3.27-1-.82-3.83-1.08-.34-1,3.23Zm4.73-4.84,1.83.58a.65.65,0,0,0,.59-.13,1.41,1.41,0,0,0,.5-.76,1.34,1.34,0,0,0,0-.93.81.81,0,0,0-.45-.46l-1.75-.55Z" style="fill:#fff"></path><path d="M98.2,178.72l9.24,6.09-1.68,2.54L102.15,185l-2.05,3.1,3.62,2.38L102,193l-9.23-6.1,1.68-2.53,3.4,2.25,2-3.1-3.41-2.25Z" style="fill:#fff"></path><path d="M103,173.73l2-1.87,10.3,5.57-2.28,2.09-2-1.15-2.18,2,1,2-2.28,2.09Zm6.38,3.47-3-1.86,1.56,3.22Z" style="fill:#fff"></path><path d="M115.71,177.36l-5.4-9.66,4.16-2.32a3.3,3.3,0,0,1,1.47-.44,3.88,3.88,0,0,1,1.45.18,4.33,4.33,0,0,1,1.28.7,3.63,3.63,0,0,1,.92,1.08,3.91,3.91,0,0,1,.47,1.37,3.87,3.87,0,0,1,0,1.44,3.49,3.49,0,0,1-.58,1.31,3.43,3.43,0,0,1-1.15,1l-1.57.88,1.66,3Zm-.3-6.76,1.4-.79a.67.67,0,0,0,.33-.48,1.32,1.32,0,0,0-.24-.92c-.22-.4-.46-.63-.7-.68a.82.82,0,0,0-.61.06l-1.33.74Z" style="fill:#fff"></path><path d="M123.92,173l-3.69-10.43,4.49-1.59a3.49,3.49,0,0,1,1.52-.19,3.82,3.82,0,0,1,1.4.43,4,4,0,0,1,1.14.91,3.74,3.74,0,0,1,.73,1.22,4.08,4.08,0,0,1,.23,1.43,4.22,4.22,0,0,1-.29,1.41,3.62,3.62,0,0,1-.8,1.19,3.52,3.52,0,0,1-1.3.8l-1.7.6,1.13,3.2Zm.84-6.72,1.52-.53a.69.69,0,0,0,.4-.42,1.31,1.31,0,0,0-.08-.95,1.21,1.21,0,0,0-.57-.79.91.91,0,0,0-.62-.05L124,164Z" style="fill:#fff"></path><path d="M132.71,158.76l2.77,4.37,1.17-5.06,3.26-.57-2.5,7.95.63,3.61-3,.52-.63-3.64-5-6.62Z" style="fill:#fff"></path><path d="M94.62,216.76a2.92,2.92,0,1,1-3.41-2.35A2.92,2.92,0,0,1,94.62,216.76Z" style="fill:#455a64"></path><path d="M153,164.63a2.92,2.92,0,1,1-3.41-2.35A2.92,2.92,0,0,1,153,164.63Z" style="fill:#455a64"></path><path d="M168.16,181.67a2,2,0,1,1-2.28-1.56A1.94,1.94,0,0,1,168.16,181.67Z" style="fill:#455a64"></path><path d="M95.9,191.75a2,2,0,1,1-2.28-1.56A2,2,0,0,1,95.9,191.75Z" style="fill:#455a64"></path><path d="M109.23,165a2,2,0,1,1-2.28-1.56A2,2,0,0,1,109.23,165Z" style="fill:#455a64"></path><path d="M127.42,296.44s1-21.67,1.58-22.81,17.16,13.11,21.52,14,12,.09,13.33,1-1,29.75-6.7,30.65S134.34,312.9,127.42,296.44Z" style="fill:#ECEFF1"></path><path d="M131.5,279.48a60.29,60.29,0,0,1-.81,15.7,60.29,60.29,0,0,1,.81-15.7Z" style="opacity:0.1"></path><path d="M136.48,284.36a72.37,72.37,0,0,1-.89,17.27,73,73,0,0,1,.89-17.27Z" style="opacity:0.1"></path><path d="M141.39,288.1a89.11,89.11,0,0,1-1,19.1,89.14,89.14,0,0,1,1-19.1Z" style="opacity:0.1"></path><path d="M147.46,292a86.57,86.57,0,0,1-1,18.89,87.2,87.2,0,0,1,1-18.89Z" style="opacity:0.1"></path><path d="M154.62,294.1a102.23,102.23,0,0,1-1.56,20.44,102.23,102.23,0,0,1,1.56-20.44Z" style="opacity:0.1"></path><path d="M161,293.5A83.74,83.74,0,0,1,159.23,312,83.74,83.74,0,0,1,161,293.5Z" style="opacity:0.1"></path><path d="M229.69,435.92c-9.66,9.13-30.38,7-83.08,6.46-7.29-.08-20.62-51.67-12.83-52,9.81-.41,48,.14,50.76.53C208,394.23,236.24,429.72,229.69,435.92Z" style="fill:#ad6359"></path><path d="M144.38,390.17S122.26,389,110.44,392c-15.82,4-27.84,14-32.63,18.42-10,9.35-27.67,38.85-20.06,45.42,6.88,6,23.44-25.11,23.44-25.11s-22.11,28.89-12.5,34.53,26.78-31.51,26.78-31.51-22,30.19-11.22,34.45c8.18,3.21,25.63-29.57,25.63-29.57s-18.77,26.08-10.5,29.75c9.15,4.05,27.15-25.19,27.15-25.19,22.6,5.78,35.73-.71,44.52-6.44C173.18,435.32,144.38,390.17,144.38,390.17Z" style="fill:#ad6359"></path><path d="M88.2,420.21c-2.72,3.3-5.5,6.62-7.92,10.15s-4.71,7.15-6.79,10.89c-5.09,9.17-6.85,15.71-6.7,15.32,3.61-9.28,12.07-22.05,14.49-25.58s4.64-7.17,7-10.69A.08.08,0,0,0,88.2,420.21Z" style="fill:#263238"></path><path d="M101.1,428.71c-3.29,4.36-6.72,8.57-9.82,13.08s-5.61,9-8.38,13.71c-.21.36,0,.35.28,0,2.95-4.58,6-8.58,9-13.12s5.84-9.19,9-13.6C101.26,428.71,101.15,428.64,101.1,428.71Z" style="fill:#263238"></path><path d="M113.49,434c-5.37,6.41-9.55,13.8-13.48,21.15-.2.37.14.33.37,0,4.34-7.11,7.7-12.73,13.33-20.93C113.8,434.06,113.6,433.87,113.49,434Z" style="fill:#263238"></path><path d="M139.91,389.24l34.18,58.57s47-1.05,56-11.2c5.92-6.68-21.6-44.22-47.84-45.9Z" style="fill:#ECEFF1"></path><path d="M211,405.06c-3.5-3.82-13.65-13.16-28.8-14.35-.13,0-.18.2,0,.22,11.2,2,25,10.9,28.71,14.3C211,405.32,211.12,405.16,211,405.06Z" style="fill:#263238"></path><path d="M187.93,442c-3.41-6.64-7.18-13.09-11-19.53s-7.56-12.9-11.51-19.25c-2.23-3.59-4.44-7.19-6.79-10.7-.06-.1-.23,0-.18.09,3.41,6.63,7.15,13.1,10.89,19.56s7.55,12.91,11.43,19.3q3.27,5.43,6.79,10.71C187.72,442.38,188,442.23,187.93,442Z" style="fill:#263238"></path><path d="M209.94,361.59s5,11.41-3,14.21-11.18-9.27-11.18-9.27Z" style="fill:#455a64"></path><path d="M167.11,284.2h0l1.79-12.07.57-4,3,2.75,8.89,8.36h0v0l28.78,82.78L195.9,367l-28.78-82.8Z" style="fill:#455a64"></path><polygon points="168.9 272.12 169.48 268.14 172.43 270.89 168.9 272.12" style="fill:#37474f"></polygon><rect x="193.8" y="361.58" width="17.56" height="3.48" transform="translate(513.23 640) rotate(160.83)" style="fill:#37474f"></rect><rect x="192.54" y="357.95" width="17.56" height="3.48" transform="translate(509.58 633.33) rotate(160.83)" style="fill:#37474f"></rect><polygon points="209.04 355.16 203.69 357.02 196.23 326.04 198.24 325.47 209.04 355.16" style="fill:#37474f"></polygon><path d="M107.21,310.44C73.83,352.12,43.55,412.13,49.7,433.82c2.25,7.94,16.58,21.13,38.12,14C112.08,439.76,142.33,420,170.5,399c6-4.45-43-41.63-49.49-37-3,2.17-11.22,9.84-12.46,9.25-1.87-.89,8-21.42,16.38-53.61C133.75,283.77,121.72,292.31,107.21,310.44Z" style="fill:#ad6359"></path><path d="M191.24,306.74c4.52,5.52-10.05,15.52-10.05,15.52a13.17,13.17,0,0,1,8.69,2.2C194.23,327.72,191,336,191,336a16.24,16.24,0,0,1,8.79,3.78c3.85,3.53,1.81,12.31,1.81,12.31a14.25,14.25,0,0,1,5.64,8.19c1.87,9-8.22,18.63-14.57,24.84s-30.18,17.9-34.49,20.58L118,365.25s20.55-36,29.05-42.21C154.19,317.78,184.32,298.29,191.24,306.74Z" style="fill:#ad6359"></path><path d="M181,322.2c-9,3.76-17,9.67-24.69,15.45a.16.16,0,0,0,.2.26c7.59-5.84,16.92-9.79,24.72-15.31C181.4,322.45,181.19,322.1,181,322.2Z" style="fill:#263238"></path><path d="M190.38,335.56a24.89,24.89,0,0,0-5.37,3.88q-2.72,2.25-5.34,4.59c-3.51,3.13-6.95,6.33-10.3,9.64-.14.14,0,.41.21.26,3.5-3.11,7-6.16,10.69-9.12,1.81-1.48,3.65-2.95,5.49-4.4a30.09,30.09,0,0,0,5-4.34A.34.34,0,0,0,190.38,335.56Z" style="fill:#263238"></path><path d="M201.48,352.17c-1.77.73-3.26,2.47-4.65,3.75q-2.36,2.19-4.73,4.35c-3.17,2.88-6.35,5.75-9.62,8.52-.16.14,0,.4.2.26,3.34-2.79,6.72-5.54,10-8.36,1.63-1.39,3.24-2.78,4.86-4.19,1.37-1.19,3.21-2.53,4.06-4.17A.12.12,0,0,0,201.48,352.17Z" style="fill:#263238"></path><path d="M157.91,408.17a51.88,51.88,0,0,1,6-5,51,51,0,0,1,6.6-4.17,57.68,57.68,0,0,1-12.59,9.19Z" style="fill:#263238"></path><path d="M109.92,368.91s9.08-26.6,15.32-48.18,8.21-41.63-14.76-17.26S46.43,399.64,47,427.92c.17,8.23,9,24.06,31.75,23.54s84.7-38.1,84.7-38.1l-46-50Z" style="fill:#ECEFF1"></path><path d="M149.31,417.16c-4.75-5.9-9.8-11.53-14.88-17.15s-10.14-11.25-15.35-16.75c-3-3.1-5.88-6.23-8.94-9.23-.08-.08-.23,0-.15.13,4.73,5.88,9.77,11.54,14.8,17.18s10.14,11.27,15.29,16.82c2.91,3.14,5.88,6.23,8.93,9.23C149.16,417.54,149.45,417.33,149.31,417.16Z" style="fill:#263238"></path><path d="M123.55,336.36c-.89,1.32-1.71,2.69-2.47,4.09.26-.72.52-1.44.77-2.16,1-2.93,2-5.88,2.94-8.82.06-.18-.25-.31-.32-.12-1,2.54-2.12,5.06-3.12,7.61s-1.94,5.07-2.9,7.61c-2,5.11-3.9,10.22-5.7,15.38-1,2.93-2,5.87-2.82,8.85,0,.12.16.2.21.08,2.27-5,4.26-10.05,6.15-15.17,1.23-3.34,2.45-6.7,3.65-10,1.32-2.37,2.61-4.77,3.76-7.22A.09.09,0,0,0,123.55,336.36Z" style="fill:#263238"></path><path d="M118.22,364.23s-.71-.57-.74-.6c-2.27,2-4.73,3.71-7.07,5.58-1.25,1-10.49,8.34-13.66,11-7.5,6.33-14.82,12.9-22,19.64-3.58,3.36-7.09,6.8-10.56,10.27s-7,7-10.32,10.67a.08.08,0,1,1-.13-.1c3.61-4.27,7.21-8.54,11-12.66a254,254,0,0,1,21.2-20.69q5.61-4.85,11.43-9.42c2.56-2,11-8.56,12.25-9.48,2.51-1.89,5-3.92,7.55-5.6.1-.07,1.15,1.25,1.18,1.27S118.27,364.32,118.22,364.23Z" style="fill:#263238"></path></g></svg>