<svg xmlns="http://www.w3.org/2000/svg" viewBox="0 0 750 500"><g id="freepik--background-complete--inject-354"><path d="M115.21,219.4l-13.13.27-6.66.12c-2.22,0-4.46,0-6.69.05h-.45v-.45l0-11.19v-.51h.5l13.24.06c4.41,0,8.82.11,13.24.16h.27v.27c0,1.89-.09,3.78-.13,5.65Zm0,0-.14-5.66c0-1.86-.12-3.7-.14-5.53l.28.27c-4.42.05-8.83.16-13.24.16l-13.24.07.5-.5-.06,11.19-.44-.45c2.18,0,4.35,0,6.54.06l6.58.11Z" style="fill:#ebebeb"></path><path d="M100.44,233.51l-13.13.27-6.66.12c-2.23,0-4.46,0-6.69,0h-.45v-.44l-.05-11.19v-.51H74l13.24.06c4.41,0,8.82.11,13.24.16h.27v.27c0,1.89-.09,3.78-.13,5.65Zm0,0-.15-5.66c0-1.86-.11-3.7-.13-5.53l.28.27c-4.42,0-8.83.16-13.24.16L74,222.82l.49-.5,0,11.19-.44-.45c2.18,0,4.35,0,6.54.06l6.58.11Z" style="fill:#ebebeb"></path><path d="M130,233.51l-13.13.27-6.66.12c-2.22,0-4.46,0-6.69,0h-.44v-.44l0-11.19v-.51h.5l13.24.06c4.41,0,8.83.11,13.24.16h.27v.27c0,1.89-.08,3.78-.13,5.65Zm0,0-.14-5.66c-.05-1.86-.12-3.7-.13-5.53l.27.27c-4.41,0-8.83.16-13.24.16l-13.24.07.5-.5-.06,11.19-.44-.45c2.18,0,4.36,0,6.54.06l6.58.11Z" style="fill:#ebebeb"></path><path d="M661.27,233.51l-13.12.27-6.66.12c-2.23,0-4.47,0-6.7,0h-.44v-.44l-.06-11.19v-.51h.5l13.24.06c4.42,0,8.83.11,13.24.16h.28v.27c0,1.89-.09,3.78-.13,5.65Zm0,0-.14-5.66c0-1.86-.11-3.7-.13-5.53l.27.27c-4.41,0-8.82.16-13.24.16l-13.24.07.5-.5,0,11.19-.45-.45c2.18,0,4.36,0,6.55.06l6.58.11Z" style="fill:#ebebeb"></path><path d="M224,329.85l-13.12.28-6.66.11c-2.23.05-4.47,0-6.7.05h-.44v-.45L197,318.66v-.5h.5l13.24.06c4.41,0,8.83.11,13.24.16h.28v.27c0,1.9-.08,3.78-.13,5.65Zm0,0-.14-5.66c-.05-1.86-.11-3.7-.13-5.53l.27.27c-4.41.05-8.83.16-13.24.16l-13.24.07.5-.5L198,329.85l-.45-.45c2.18,0,4.36,0,6.55.06l6.58.11Z" style="fill:#ebebeb"></path><path d="M661.27,75.07l-13.12.28-6.66.11c-2.23.05-4.47,0-6.7.06h-.44v-.45l-.06-11.19v-.5h.5l13.24.07c4.42,0,8.83.11,13.24.16h.28v.27c0,1.9-.09,3.79-.13,5.66Zm0,0-.14-5.65c0-1.86-.11-3.71-.13-5.54l.27.28c-4.41,0-8.82.15-13.24.16l-13.24.06.5-.5,0,11.19-.45-.44c2.18,0,4.36,0,6.55.05l6.58.11Z" style="fill:#ebebeb"></path><path d="M676,89.18l-13.12.28-6.66.11c-2.23.05-4.46,0-6.7.06h-.44v-.45L649.06,78v-.5h.5l13.24.07c4.42,0,8.83.11,13.24.16h.28V78c0,1.9-.09,3.79-.13,5.66Zm0,0-.14-5.65c0-1.86-.11-3.71-.13-5.54l.27.28c-4.41,0-8.82.15-13.24.16l-13.24.06.5-.5,0,11.19-.45-.44c2.19,0,4.36,0,6.55.05l6.58.11Z" style="fill:#ebebeb"></path><path d="M100.44,75.09l-13.13.27-6.66.12c-2.23,0-4.46,0-6.69,0h-.45v-.45L73.46,63.9v-.51H74l13.24.06c4.41,0,8.82.11,13.24.16h.27v.27c0,1.89-.09,3.78-.13,5.65Zm0,0-.15-5.66c0-1.86-.11-3.7-.13-5.53l.28.27c-4.42,0-8.83.16-13.24.16L74,64.39l.49-.49,0,11.18L74,74.64c2.18,0,4.35,0,6.54,0l6.58.12Z" style="fill:#ebebeb"></path><path d="M433.23,154.57l13.13-.28,6.66-.11c2.22-.05,4.46,0,6.69-.06h.45v.45l0,11.19v.5h-.51l-13.24-.06c-4.41,0-8.82-.12-13.24-.17H433v-.27c0-1.9.09-3.79.13-5.65Zm0,0,.14,5.65c.05,1.87.12,3.71.14,5.54l-.28-.27c4.42-.05,8.83-.16,13.24-.17l13.24-.06-.5.5.06-11.19.44.45c-2.18,0-4.35,0-6.54-.06l-6.58-.11Z" style="fill:#ebebeb"></path><path d="M448,140.46l13.13-.28,6.66-.11c2.23,0,4.46,0,6.69-.06h.45v.45l.05,11.19v.5h-.51l-13.24-.06c-4.41,0-8.82-.12-13.24-.17h-.27v-.27c0-1.9.09-3.79.13-5.65Zm0,0,.15,5.65c0,1.87.11,3.71.13,5.54l-.28-.27c4.42,0,8.83-.16,13.24-.17l13.24-.06-.49.5.05-11.19.44.45c-2.18,0-4.35,0-6.54-.06l-6.58-.11Z" style="fill:#ebebeb"></path><polygon points="604.87 236.12 646.7 236.12 670.65 116.75 632.34 99.16 604.87 236.12" style="fill:#c7c7c7"></polygon><polygon points="485.13 236.12 604.87 236.12 632.34 99.16 512.61 99.16 485.13 236.12" style="fill:#ebebeb"></polygon><rect x="626.35" y="172.08" width="64.11" height="131.55" transform="translate(1316.81 475.71) rotate(180)" style="fill:#c7c7c7"></rect><polygon points="454.36 303.63 471.88 303.63 497.98 172.08 454.36 172.08 454.36 303.63" style="fill:#c7c7c7"></polygon><rect x="591.12" y="172.08" width="35.23" height="131.55" transform="translate(1217.47 475.71) rotate(180)" style="fill:#ebebeb"></rect><rect x="419.13" y="172.08" width="35.23" height="131.55" transform="translate(873.49 475.71) rotate(180)" style="fill:#ebebeb"></rect><rect x="454.36" y="236.12" width="136.76" height="67.51" transform="translate(1045.48 539.75) rotate(180)" style="fill:#ebebeb"></rect><rect x="454.36" y="206.94" width="136.76" height="29.46" transform="translate(1045.48 443.33) rotate(180)" style="fill:#ebebeb"></rect><path d="M617.72,172.08l-13.3-.18-13.3-.13h-.3v.31l-.11,15.39,0,15.4c0,10.26-.06,20.52,0,30.79s0,20.52.13,30.79.18,20.52.34,30.79q.24-15.4.34-30.79c.09-10.27.11-20.53.13-30.79s0-20.53,0-30.79l0-15.4-.11-15.39-.31.3,13.3-.12Z" style="fill:#c7c7c7"></path><path d="M454.36,172.08c-.21,10.3-.3,20.6-.38,30.9l-.12,30.91.11,30.9.14,15.45.25,15.46.25-15.46.14-15.45.11-30.9L454.75,203C454.67,192.68,454.57,182.38,454.36,172.08Z" style="fill:#c7c7c7"></path><path d="M454.36,236.12c11.4.21,22.79.31,34.19.39l34.19.11,34.19-.11,17.1-.14,17.09-.25L574,235.87l-17.1-.14-34.19-.11-34.19.12C477.15,235.82,465.76,235.91,454.36,236.12Z" style="fill:#c7c7c7"></path><path d="M454.36,206.94c11.4.2,22.79.3,34.19.38l34.19.12,34.19-.12,17.1-.14,17.09-.24L574,206.69l-17.1-.14-34.19-.12-34.19.12C477.15,206.63,465.76,206.73,454.36,206.94Z" style="fill:#c7c7c7"></path><polygon points="666.1 303.63 666.97 314.29 668.99 338.91 678.27 338.91 680.3 314.29 681.16 303.63 666.1 303.63" style="fill:#c7c7c7"></polygon><polygon points="681.16 303.63 666.1 303.63 666.97 314.29 680.3 314.29 681.16 303.63" style="fill:#a6a6a6"></polygon><polygon points="601.2 303.63 602.07 314.29 604.09 338.91 613.38 338.91 615.4 314.29 616.27 303.63 601.2 303.63" style="fill:#c7c7c7"></polygon><polygon points="616.27 303.63 601.2 303.63 602.07 314.29 615.4 314.29 616.27 303.63" style="fill:#a6a6a6"></polygon><polygon points="493.56 303.63 494.43 314.29 496.45 338.91 505.73 338.91 507.76 314.29 508.63 303.63 493.56 303.63" style="fill:#c7c7c7"></polygon><polygon points="508.63 303.63 493.56 303.63 494.43 314.29 507.76 314.29 508.63 303.63" style="fill:#a6a6a6"></polygon><polygon points="428.65 303.63 429.51 314.29 431.54 338.91 440.82 338.91 442.85 314.29 443.71 303.63 428.65 303.63" style="fill:#c7c7c7"></polygon><polygon points="428.65 303.63 429.51 314.29 442.85 314.29 443.71 303.63 428.65 303.63" style="fill:#a6a6a6"></polygon><polygon points="63.99 310.12 278.04 310.12 282.49 222.29 59.54 222.29 63.99 310.12" style="fill:#ebebeb"></polygon><path d="M267.89,262.49H178.41L176.73,232h93.12Zm-88.46-1.08h87.45l1.82-28.33H177.87Z" style="fill:#dbdbdb"></path><path d="M266.24,297.57H181.91l-1.37-27.52H268Zm-83.3-1.08h82.29l1.58-25.36H181.68Z" style="fill:#dbdbdb"></path><path d="M231.77,250.55h-15l-.95-7.35h16.94Zm-14.09-1.08h13.14l.67-5.19H217Z" style="fill:#dbdbdb"></path><path d="M231.77,287.49h-15l-.95-7.36h16.94Zm-14.09-1.08h13.14l.67-5.2H217Z" style="fill:#dbdbdb"></path><path d="M162.63,262.49H73.15L71.47,232h93.12Zm-88.46-1.08h87.45l1.82-28.33H72.61Z" style="fill:#dbdbdb"></path><path d="M161,297.57H76.65l-1.37-27.52H162.7Zm-83.3-1.08H160l1.58-25.36H76.42Z" style="fill:#dbdbdb"></path><path d="M126.51,250.55h-15l-1-7.35h16.94Zm-14.09-1.08h13.14l.67-5.19H111.75Z" style="fill:#dbdbdb"></path><path d="M126.51,287.49h-15l-1-7.36h16.94Zm-14.09-1.08h13.14l.67-5.2H111.75Z" style="fill:#dbdbdb"></path><polygon points="83.19 310.12 81.84 319.69 79.14 338.91 73.85 338.91 73.85 310.12 83.19 310.12" style="fill:#ebebeb"></polygon><polygon points="83.19 310.12 81.84 319.69 73.85 319.69 73.85 310.12 83.19 310.12" style="fill:#dbdbdb"></polygon><polygon points="258.84 310.12 260.19 319.69 262.89 338.91 268.18 338.91 268.18 310.12 258.84 310.12" style="fill:#ebebeb"></polygon><polygon points="258.84 310.12 260.19 319.69 268.18 319.69 268.18 310.12 258.84 310.12" style="fill:#dbdbdb"></polygon></g><g id="freepik--Floor--inject-354"><polygon points="59.54 338.91 138.4 338.67 217.27 338.58 375 338.41 532.73 338.58 611.6 338.67 690.46 338.91 611.6 339.15 532.73 339.24 375 339.41 217.27 339.24 138.4 339.15 59.54 338.91" style="fill:#263238"></polygon></g><g id="freepik--Pictures--inject-354"><rect x="292.41" y="78.64" width="71.25" height="71.25" style="fill:#fff"></rect><path d="M367.36,153.59V74.93H288.7v78.66ZM292.41,78.64h71.25v71.25H292.41Z" style="fill:#455a64"></path><rect x="312.99" y="76.99" width="24.63" height="55.53" transform="translate(220.55 430.05) rotate(-90)" style="fill:#ECEFF1"></rect><rect x="313.81" y="100.04" width="28.45" height="28.45" transform="translate(213.77 442.29) rotate(-90)" style="fill:#37474f"></rect><rect x="285.66" y="74.93" width="3.04" height="78.66" transform="translate(574.36 228.52) rotate(180)" style="fill:#37474f"></rect><rect x="191.24" y="78.64" width="71.25" height="71.25" style="fill:#fff"></rect><rect x="231.64" y="84.75" width="18.6" height="53.74" style="fill:#37474f"></rect><path d="M266.2,153.59V74.93H187.54v78.66Zm-75-74.95h71.25v71.25H191.24Z" style="fill:#455a64"></path><rect x="212.64" y="100.04" width="28.45" height="28.45" style="fill:#ebebeb"></rect><rect x="184.5" y="74.93" width="3.04" height="78.66" transform="translate(372.03 228.52) rotate(180)" style="fill:#37474f"></rect><rect x="90.08" y="78.64" width="71.25" height="71.25" style="fill:#fff"></rect><rect x="114.33" y="116.8" width="39.09" height="23.37" style="fill:#ECEFF1"></rect><path d="M165,153.59V74.93H86.37v78.66ZM90.08,78.64h71.25v71.25H90.08Z" style="fill:#455a64"></path><rect x="111.48" y="100.04" width="28.45" height="28.45" style="fill:#37474f"></rect><rect x="83.33" y="74.93" width="3.04" height="78.66" transform="translate(169.7 228.52) rotate(180)" style="fill:#37474f"></rect></g><g id="freepik--Plant--inject-354"><path d="M628.1,239c1.14,4.86,2.35,9.64,2.58,14.63-.13.24-.1,1.15,0,.9,0,.81,1.26.66,1.26-.13,0-.52,0-1-.05-1.54,2.85-3.55,7-5.8,10.36-8.88a19.37,19.37,0,0,0,5.68-9c2.79-9.6.18-19.76,3.53-29.33,2.88-8.25,8.06-15.42,12.44-22.89,4.62-7.9,8-16.21,8.37-25.47.28-7.09-.57-16.53-6-21.84-5.72-5.64-12.82-1.42-17.2,3.61-12.71,14.58-18.58,33-21,51.85-1.31,10.43-2.67,20.92-2.36,31.44A84.55,84.55,0,0,0,628.1,239Z" style="fill:#ECEFF1"></path><path d="M630.63,257.48a178.73,178.73,0,0,1,.35-29.54s-.05-.06-.05-.11c-.16-8-.8-15.94-.48-23.93A142.56,142.56,0,0,1,634,178.22c0-.09.18-.07.16,0a166.62,166.62,0,0,0-2.78,25.1q-.24,6.77.11,13.54c.08,1.46.21,2.94.31,4.42h0a158.07,158.07,0,0,1,23.76-62.87c.17-.26.63,0,.46.28a164.73,164.73,0,0,0-19.34,46.62C642.75,194,652,184.7,658.83,173.82c0-.06.13,0,.1.07-6.15,12.11-16.31,21.65-22.79,33.59-1.12,4.86-2,9.77-2.72,14.7a164.59,164.59,0,0,0-1.48,20.44c3.72-7,7.59-13.61,10.63-21,.08-.2.36-.06.3.13-2.59,7.65-6.07,15.88-11,22.4q0,7.24.4,14.5c.76,12.9,3,25.62,4,38.48a.3.3,0,0,1-.59.06A295,295,0,0,1,630.63,257.48Z" style="fill:#263238"></path><path d="M644.32,158c0-.09.18,0,.15.07-2.36,6.51-3.69,13.11-5.39,19.79a.25.25,0,0,1-.49-.08C639.28,171,641.7,164.26,644.32,158Z" style="fill:#263238"></path><path d="M584.5,185.32a100.28,100.28,0,0,0,5.42,11.13c4.24,7.7,8.67,14.76,9.47,23.73.36,4,.48,8,1.7,11.89a35.81,35.81,0,0,0,4.74,9.3c4.6,6.7,10.35,12.47,14.61,19.42a81.77,81.77,0,0,1,9.7,23.4c.11.45.82.33.71-.12l0-.1s0-.05,0-.1c.67-19.23-.86-38.62-6.73-57a198,198,0,0,0-9.32-23.73c-3.14-6.68-7.06-13.1-12.58-18.09-3.58-3.23-11.34-9.34-16.44-6.11C583.36,180.46,583.54,182.91,584.5,185.32Z" style="fill:#ECEFF1"></path><path d="M603.83,228.92A157.21,157.21,0,0,0,615,245c1.86,2.44,3.75,4.85,5.61,7.28.88,1.15,1.86,2.3,2.67,3.53-.51-2-1-4-1.52-6.07-2.48-9.71-4.87-19.52-8.56-28.86-3.62-9.13-8.42-17.71-13.36-26.18-.13-.22.23-.38.36-.17,4.07,6.68,8.19,13.36,11.61,20.41a106.45,106.45,0,0,1,4.92,12.1,187.4,187.4,0,0,0-6.55-25.87c0-.07.08-.13.11-.05A88.36,88.36,0,0,1,617.11,228a.05.05,0,0,1,0,0c.84,2.5,1.6,5,2.32,7.56,3,10.76,5.69,21.64,8.16,32.55a117.21,117.21,0,0,0-1.86-21.39.13.13,0,0,1,.25,0,67.66,67.66,0,0,1,1.86,22.54q1.39,6.23,2.73,12.46c1.89,8.87,4.21,17.89,5.31,26.89a.18.18,0,0,1-.35.06c-1.32-4.85-2.12-9.88-3.2-14.79S630.12,284,629,279.12c-1.67-7.15-3.42-14.29-5.2-21.42-1.19-2.61-3.5-4.93-5.22-7.12-1.9-2.41-3.79-4.82-5.63-7.26A108.37,108.37,0,0,1,603.66,229,.09.09,0,0,1,603.83,228.92Z" style="fill:#263238"></path><path d="M603,220.69A100.59,100.59,0,0,1,614,238.07c0,.08-.08.16-.13.09-3.68-5.77-7.3-11.59-11-17.36C602.78,220.7,602.94,220.6,603,220.69Z" style="fill:#263238"></path><path d="M684.89,203.55c-2.49,4.29-5.34,9.45-4.27,14.6.68,3.27,3.07,5.91,3.5,9.24,1,7.35-6.36,12.2-11.66,15.68-13.2,8.66-31.31,16.39-33.72,34.08-.09.63-1.17.47-1.09-.14a.5.5,0,0,1,0-.12s-.06-.05-.06-.1a67.77,67.77,0,0,1,.25-27c2-9.12,5.95-17.32,10.65-25.33,7.94-13.56,16.36-27.44,28.38-37.83,3.33-2.87,10.14-8,12.79-1.55C692.25,191.35,687.94,198.32,684.89,203.55Z" style="fill:#ECEFF1"></path><path d="M672.8,232.3c-8.76,9.48-22.68,14.79-30.21,25.41,4.46-16.27,11.85-30.91,23.22-43.62a.34.34,0,0,0-.49-.48,85.8,85.8,0,0,0-19,27.48,123,123,0,0,1,8.17-20.9.22.22,0,0,0-.39-.22,80,80,0,0,0-8.81,23.49c-9.93,24-10.85,52.24-8.77,77.58,0,.36.59.37.58,0-.57-20-.25-40.29,4.53-59.79.1-.41.22-.81.32-1.22,8.2-11.43,22.06-16.73,31-27.58C673,232.35,672.9,232.2,672.8,232.3Z" style="fill:#263238"></path><path d="M674.83,224.16c-4.6,4.21-9.12,8.53-13.73,12.74,0,0,0,.13.07.09a67.12,67.12,0,0,0,13.93-12.56A.19.19,0,0,0,674.83,224.16Z" style="fill:#263238"></path><path d="M675.56,205.89A144.91,144.91,0,0,1,661.8,224.8c-.06.08,0,.19.12.12A66.64,66.64,0,0,0,675.8,206C675.88,205.87,675.65,205.73,675.56,205.89Z" style="fill:#263238"></path><polygon points="654.86 338.91 614.6 338.91 620.02 284.74 648.66 284.74 654.86 338.91" style="fill:#455a64"></polygon><polygon points="649.67 293.55 619.14 293.55 620.02 284.74 648.66 284.74 649.67 293.55" style="fill:#263238"></polygon><rect x="615.86" y="278.74" width="37.74" height="8.65" style="fill:#455a64"></rect></g><g id="freepik--Mat--inject-354"><polygon points="676.04 430.23 73.95 430.23 134.09 372.6 615.91 372.6 676.04 430.23" style="fill:#ECEFF1"></polygon><g style="opacity:0.5"><polygon points="676.04 430.23 73.95 430.23 134.09 372.6 615.91 372.6 676.04 430.23" style="fill:#fff"></polygon></g><rect x="73.96" y="430.23" width="602.09" height="5.4" style="fill:#ECEFF1"></rect></g><g id="freepik--Character--inject-354"><ellipse cx="563.65" cy="350.2" rx="83.51" ry="75.85" style="opacity:0.1"></ellipse><path d="M480.13,350.2c0,41.89,37.39,75.86,83.52,75.86,30.63,0,57.4-15,71.93-37.3a70.33,70.33,0,0,0,11.58-38.56c0-41.89-37.39-75.85-83.51-75.85A90.21,90.21,0,0,0,527,282C499.25,294.34,480.13,320.24,480.13,350.2Z" style="fill:#ECEFF1"></path><g style="opacity:0.1"><path d="M532.34,279.87a137.73,137.73,0,0,0,33,4.06A130.09,130.09,0,0,0,587.74,282c2.92-.52,5.69-1.12,8.26-1.75-.73-.28-1.45-.56-2.19-.81h0a132,132,0,0,1-59.38-.32C533.71,279.37,533,279.62,532.34,279.87Z"></path><path d="M516.6,287.53a141.51,141.51,0,0,0,48.77,8.84,128,128,0,0,0,22.37-1.93,117.82,117.82,0,0,0,23.46-6.59c-.43-.28-.87-.55-1.32-.82-15.66,6-49.79,14.83-92-.3C517.48,287,517,287.25,516.6,287.53Z"></path><path d="M503.27,297.79a171.89,171.89,0,0,0,62,11.82,153.93,153.93,0,0,0,59.09-11.45q-.46-.46-1-.9c-17.83,7.42-62.93,21-119.18-.39C503.92,297.17,503.6,297.49,503.27,297.79Z"></path><path d="M512.33,410.05c1.17.83,2.37,1.63,3.59,2.4a169.48,169.48,0,0,0,49.39,7.46,159.05,159.05,0,0,0,43.87-6.1h0q2-1.17,3.84-2.43C592.36,418,556.1,424.43,512.33,410.05Z"></path><path d="M493,309.8a201.46,201.46,0,0,0,73.15,14,184,184,0,0,0,31.78-2.73,166.29,166.29,0,0,0,36.8-10.81l-.69-1a166.64,166.64,0,0,1-36.37,10.63c-24.06,4.22-61,5.45-104-11.11Z"></path><path d="M493.89,391.92c.44.61.89,1.22,1.36,1.81a201.23,201.23,0,0,0,70.85,13.14,183,183,0,0,0,31.78-2.73,169.84,169.84,0,0,0,33.35-9.37c.51-.63,1-1.26,1.47-1.9A167.15,167.15,0,0,1,597.62,403C573.61,407.17,536.74,408.4,493.89,391.92Z"></path><path d="M485.3,323.89c30.36,12.41,58.05,16.34,80.92,16.34a191.5,191.5,0,0,0,33.42-2.88,171.38,171.38,0,0,0,42.51-13.06c-.13-.38-.29-.75-.45-1.13a170.17,170.17,0,0,1-42.32,13c-26.1,4.58-66.63,5.8-113.62-13.41C485.61,323.15,485.45,323.51,485.3,323.89Z"></path><path d="M481.2,338.07c32,13.77,61.12,18.05,85,18.05a192.56,192.56,0,0,0,33.42-2.87c25-4.4,41.77-12.56,46.48-15.05-.07-.42-.15-.83-.22-1.25-4,2.18-21,10.63-46.52,15.12-26.9,4.71-69.13,5.87-118-15.24Z"></path><path d="M480.33,355.41q0,.69.12,1.35c32.26,13.66,61.65,17.94,85.84,17.94a200.25,200.25,0,0,0,34.31-2.95c23.46-4.13,39.89-11.5,46.21-14.68.06-.46.1-.94.13-1.41-5.67,2.9-22.34,10.64-46.61,14.9C572.92,375.36,530,376.56,480.33,355.41Z"></path><path d="M484.11,373.41l.57,1.54h0c30.6,12.61,58.51,16.59,81.54,16.59a192.47,192.47,0,0,0,33.42-2.88,171,171,0,0,0,42.77-13.19h0c.21-.54.42-1.08.61-1.62a168.37,168.37,0,0,1-43.64,13.64C573,392.12,531.8,393.32,484.11,373.41Z"></path></g><path d="M480.13,350.2c0,41.89,37.39,75.86,83.52,75.86,30.63,0,57.4-15,71.93-37.3-15.7,12.64-41.69,26.84-76.32,23C517.05,407.14,468.89,346.48,527,282,499.25,294.34,480.13,320.24,480.13,350.2Z" style="opacity:0.1"></path><path d="M212.65,363.72c39.93-12.81,106-13.78,121.6-13.33,8.09.24,12.27,37.94,6.72,37.92-7.11,0-97.9-3.5-125.45-8.37C197.67,376.78,204.57,366.31,212.65,363.72Z" style="fill:#d3766a"></path><path d="M335.71,388.31c3.12,1.63,4.19,1.75,7.7,3.21s20.65-1.08,29.32-2.17,10.09-3.56,9.6-6.35S363.58,382,363.58,382s25.11,3.51,31.35,3.82,20.74,1.89,22.18-3.13c.65-2.26-3.47-4-3.47-4s6.11.89,6.7-2c.68-3.28-4.23-4.42-4.23-4.42s3.78.24,3.54-2.33c-.52-5.75-24-5.68-24-5.68s18.7,5.89,18.69,1.15c0-6.57-49.56-13-80.11-15Z" style="fill:#d3766a"></path><path d="M382.38,384.44a2.44,2.44,0,0,0-1.1-2.08,7.82,7.82,0,0,0-2.27-1,30.07,30.07,0,0,0-5.16-.89c-3.51-.39-7.09-.53-10.68-.94a45.19,45.19,0,0,1,10.84-.21,21.06,21.06,0,0,1,5.34,1.2A7,7,0,0,1,381.7,382,2.49,2.49,0,0,1,382.38,384.44Z" style="fill:#263238"></path><path d="M413.64,378.68c-2.57-.26-5.12-.61-7.66-1s-5.08-.76-7.61-1.15l-7.59-1.24c-2.53-.42-5-.82-7.61-1.21a62.55,62.55,0,0,1,7.75.33c2.58.22,5.13.59,7.67,1s5.07.87,7.58,1.43S411.18,378,413.64,378.68Z" style="fill:#263238"></path><path d="M388.33,367.66a52.87,52.87,0,0,1,7.12,0,66.6,66.6,0,0,1,7.06.81,64.71,64.71,0,0,1,6.93,1.5,51.3,51.3,0,0,1,6.67,2.26c-2.33-.45-4.6-1-6.91-1.4s-4.6-.87-6.91-1.23-4.63-.72-7-1.06S390.68,368,388.33,367.66Z" style="fill:#263238"></path><path d="M391.22,361.77a45.59,45.59,0,0,1,11.43.82A44.59,44.59,0,0,1,413.5,366c-3.74-.75-7.39-1.59-11.1-2.26S395,362.41,391.22,361.77Z" style="fill:#263238"></path><path d="M381.93,385.74c-1,1.6-3.53,2.9-9.2,3.61-8.67,1.09-25.81,3.63-29.32,2.17s-4.58-1.58-7.7-3.21v-.13c-21.22-.69-95.69-3.91-120.18-8.24-6.69-1.18-9.91-3.4-10.88-5.84l130.58,1.6,8.16.1h1l22.3,5.9,5.18,1.37h0Z" style="opacity:0.1"></path><path d="M314.39,363.15,270,312.06l-30.4,30.05s-10.44-2.94-18.15,4c-10.32,9.27-24.5,34-25.29,36.44-3.18,9.75,3.09,21.27,10.5,23.79,17.12,5.83,41.34,3.77,57.38.5,8.46-1.73,19.85-15.57,30.26-25.81C296.6,378.74,314.39,363.15,314.39,363.15Z" style="fill:#ECEFF1"></path><path d="M267.17,315.76a1.79,1.79,0,0,1-1.79,1.79,1.65,1.65,0,0,1-.77-.18L267,315A1.72,1.72,0,0,1,267.17,315.76Zm-39.67,28a1.8,1.8,0,1,0,1.79,1.8A1.8,1.8,0,0,0,227.5,343.79Zm18.94,0a1.8,1.8,0,1,0,1.79,1.8A1.81,1.81,0,0,0,246.44,343.79Zm18.94,0a1.8,1.8,0,1,0,1.79,1.8A1.81,1.81,0,0,0,265.38,343.79Zm18.93,0a1.8,1.8,0,1,0,1.8,1.8A1.8,1.8,0,0,0,284.31,343.79ZM255.91,329a1.8,1.8,0,1,0,1.79,1.79A1.8,1.8,0,0,0,255.91,329Zm18.94,0a1.8,1.8,0,1,0,1.79,1.79A1.79,1.79,0,0,0,274.85,329Zm-66.29,44.67a1.8,1.8,0,1,0,1.79,1.8A1.8,1.8,0,0,0,208.56,373.62Zm18.94,0a1.8,1.8,0,1,0,1.79,1.8A1.8,1.8,0,0,0,227.5,373.62Zm18.94,0a1.8,1.8,0,1,0,1.79,1.8A1.81,1.81,0,0,0,246.44,373.62Zm18.94,0a1.8,1.8,0,1,0,1.79,1.8A1.81,1.81,0,0,0,265.38,373.62Zm18.93,0a1.8,1.8,0,1,0,1.8,1.8A1.8,1.8,0,0,0,284.31,373.62ZM218,358.78a1.8,1.8,0,1,0,1.79,1.79A1.79,1.79,0,0,0,218,358.78Zm18.94,0a1.8,1.8,0,1,0,1.79,1.79A1.79,1.79,0,0,0,237,358.78Zm18.94,0a1.8,1.8,0,1,0,1.79,1.79A1.8,1.8,0,0,0,255.91,358.78Zm18.94,0a1.8,1.8,0,1,0,1.79,1.79A1.79,1.79,0,0,0,274.85,358.78Zm18.93,0a1.8,1.8,0,1,0,1.8,1.79A1.79,1.79,0,0,0,293.78,358.78Zm17.48.77a1.73,1.73,0,0,0-.33,1,1.8,1.8,0,0,0,1.79,1.8,1.7,1.7,0,0,0,.81-.2Zm-102.7,43.9a1.8,1.8,0,0,0-1.23,3.1c.49.16,1,.32,1.49.46a1.78,1.78,0,0,0,1.54-1.76A1.81,1.81,0,0,0,208.56,403.45Zm18.94,0a1.8,1.8,0,1,0,1.79,1.8A1.8,1.8,0,0,0,227.5,403.45Zm18.94,0a1.8,1.8,0,1,0,1.79,1.8A1.81,1.81,0,0,0,246.44,403.45Zm18.94,0a1.81,1.81,0,0,0-1.8,1.8,1.76,1.76,0,0,0,.82,1.49,13.19,13.19,0,0,0,2.69-1,1.42,1.42,0,0,0,.08-.5A1.8,1.8,0,0,0,265.38,403.45Zm-66.29-14.84a1.8,1.8,0,1,0,1.8,1.79A1.79,1.79,0,0,0,199.09,388.61Zm18.94,0a1.8,1.8,0,1,0,1.79,1.79A1.79,1.79,0,0,0,218,388.61Zm18.94,0a1.8,1.8,0,1,0,1.79,1.79A1.79,1.79,0,0,0,237,388.61Zm18.94,0a1.8,1.8,0,1,0,1.79,1.79A1.8,1.8,0,0,0,255.91,388.61Zm18.94,0a1.8,1.8,0,1,0,1.79,1.79A1.79,1.79,0,0,0,274.85,388.61Z" style="fill:#fff"></path><path d="M246.23,362.94a41.94,41.94,0,0,1-3.5-9.28c-.37-1.65-.64-3.35-.86-5.09-.11-.86-.25-1.7-.41-2.54a6.76,6.76,0,0,0-.82-2.45c0-.06.11-.17.16-.12a10.41,10.41,0,0,1,1.33,2,10.94,10.94,0,0,1,.76,2.24c.4,1.67.7,3.4,1.08,5.07a91.09,91.09,0,0,0,2.64,10C246.66,362.85,246.3,363.08,246.23,362.94Z" style="fill:#263238"></path><path d="M254.76,366.47a42.15,42.15,0,0,1-5.21-6,27.61,27.61,0,0,1-2-3.45c-.29-.57-.56-1.15-.82-1.74s-.45-1.39-.75-2c0-.07.12-.19.16-.12a18.27,18.27,0,0,0,1.15,1.62l1.1,1.65c.73,1.11,1.49,2.19,2.21,3.31,1.45,2.23,2.92,4.43,4.49,6.57C255.15,366.37,254.86,366.56,254.76,366.47Z" style="fill:#263238"></path><path d="M204.08,399.66c1.67-.85,11.51-14.59,9.13-22.59-.78-2.6-15.62,3.47-15.62,3.47l-1.13,0-15.74.36-6.9,20.3-.86,2.9s4.3-.38,9.65-.91l.76-.07c.3,0,.59,0,.87-.08.8-.06,1.62-.14,2.43-.23.62-.06,1.22-.13,1.87-.22l1.93-.24A100.09,100.09,0,0,0,204.08,399.66Z" style="fill:#d3766a"></path><path d="M182.61,403.21a31.57,31.57,0,0,0,13.85-22.65l-15.74.36-6.9,20.3-.86,2.9S177.26,403.74,182.61,403.21Z" style="fill:#263238"></path><path d="M158.26,360.19c27.24-4.64,33.1,11.14,34.09,17,.91,5.33,3.3,23.61-23.31,31S131.66,404.49,129,392.4,131,364.83,158.26,360.19Z" style="fill:#d3766a"></path><path d="M154,364.37a17.53,17.53,0,0,1-.15,1.92,3.11,3.11,0,0,1-.54,1.93,1,1,0,0,1-1.2.16,2.47,2.47,0,0,1-.88-2.34,3.62,3.62,0,0,1,1-2.42A1.06,1.06,0,0,1,154,364.37Z" style="fill:#263238"></path><path d="M157.25,382.89a18.65,18.65,0,0,0-.64-1.82,3.13,3.13,0,0,0-1-1.74,1,1,0,0,0-1.2.16,2.47,2.47,0,0,0-.27,2.48,3.65,3.65,0,0,0,1.56,2.09A1.06,1.06,0,0,0,157.25,382.89Z" style="fill:#263238"></path><path d="M177.42,376.49c.42-.48,1-1,1-1.67a5.11,5.11,0,0,0-.61-2c0-.06,0-.13.09-.09a2.57,2.57,0,0,1,1.19,2.34,2,2,0,0,1-1.58,1.6C177.41,376.71,177.36,376.56,177.42,376.49Z" style="fill:#263238"></path><path d="M169.62,369.45s2.77-.74,4.1-.9c.13,0,.23.29.31.74,0,0,0,0,0,0a6.37,6.37,0,0,1-1.6,6.43.14.14,0,0,1-.21-.17,9.62,9.62,0,0,0,.94-6c-.38,0-4.71,1.43-4.75,1.22a12,12,0,0,1,.31-3.11c-5.81,1.37-11.36,3.67-17.17,4.95-.21,0-.31-.26-.13-.34,5.64-2.82,12.3-4.54,18.27-6.11C170.44,366,169.78,368.89,169.62,369.45Z" style="fill:#263238"></path><path d="M160.2,367.71c-.07,0,.06-.17.14-.18,1.91-.33,4-1,4.32-2.87,0-.06.11-.07.11,0C164.9,366.81,162.06,367.7,160.2,367.71Z" style="fill:#263238"></path><path d="M158.61,364.11a5,5,0,0,1,1.07-.2,3,3,0,0,0,.62-.6,1.47,1.47,0,0,0,.26-1.57c-.5-1.06-1.8-1.14-2.95-.84-.08,0-.11.09-.05.12.74.26,1.52.6,1.63,1.28s-.36,1.19-.57,1.76c0,0,0,0,0,0Z" style="fill:#263238"></path><path d="M162.27,367.34a2.94,2.94,0,0,0,1.26-.93,2.09,2.09,0,0,0,.35-1.67,1.89,1.89,0,0,0-1.1-1.32,3.43,3.43,0,0,0-1.52-.25,7.18,7.18,0,0,0-.93.13,4.22,4.22,0,0,0-1.74.81,6.74,6.74,0,0,1,1.38-.23,8.9,8.9,0,0,1,1.27,0c.86.08,1.63.4,1.73,1.05s-.28,1.3-1,1.74a13.53,13.53,0,0,1-2.47,1.07A6,6,0,0,0,162.27,367.34Z" style="fill:#263238"></path><path d="M161.86,378.31c-.07,0,.11.14.19.12,1.9-.37,4.14-.47,5,1.16,0,.05.13,0,.11,0C166.57,377.49,163.6,377.66,161.86,378.31Z" style="fill:#263238"></path><path d="M161.64,382.24a4.8,4.8,0,0,0,1.07-.19,2.82,2.82,0,0,1,.79.34,1.5,1.5,0,0,1,.8,1.37c-.09,1.17-1.28,1.71-2.46,1.83-.09,0-.14,0-.09-.09.6-.51,1.21-1.09,1.07-1.77s-.76-1-1.15-1.45c0,0,0,0,0,0Z" style="fill:#263238"></path><path d="M163.92,377.92a3,3,0,0,1,1.51.43,2.1,2.1,0,0,1,.91,1.43,1.88,1.88,0,0,1-.56,1.63,3.26,3.26,0,0,1-1.34.77,4.77,4.77,0,0,1-.91.2,4.24,4.24,0,0,1-1.91-.13A6.79,6.79,0,0,0,163,382a8.27,8.27,0,0,0,1.18-.46c.78-.38,1.38-1,1.25-1.6s-.72-1.11-1.58-1.26a13.17,13.17,0,0,0-2.69-.12A6.17,6.17,0,0,1,163.92,377.92Z" style="fill:#263238"></path><path d="M170.57,405.44c-1-6.73-22-6.21-24.63-6.12,1.62-.14,10.2-.93,10.46-1.62a6.42,6.42,0,0,0-.65-2.08h0a20.8,20.8,0,0,1-3.09.12c-.48,0,1-.3,2.82-.78-.15-.37-.33-.77-.5-1.21a24.72,24.72,0,0,1-6.57.13c-.83-.1,2.77-.75,5.86-1.9-1.82-4.52-4.27-11.05-5.24-17.32-.26-1.68-.41-3.14-.5-4.43-2.53.29-5.19.9-4.63.65a24.77,24.77,0,0,1,4.57-1.62c-.05-.7-.08-1.35-.09-1.94-3.59.25-9.07,2.63-8.27,2a25.39,25.39,0,0,1,8.37-4.5c.18-2.49.58-3.22-.06-3.21-1.16,0-11,2.61-17.36,11.25-6.94,9.4-6.93,26.49,6.46,34.53,0,0,6,7.21,14.41,7.46S171.17,409.33,170.57,405.44Z" style="fill:#263238"></path><path d="M160.57,423.26a36.91,36.91,0,0,1,14.79,1.18c4,1.16,8,2.76,12.22,2.27,7.57-.88,11.8-8.65,14.26-15.57,1.64-4.63.95-14.36-2.3-21.49-.16-.35-30.15,21.76-68.11,1.37-.17-.09-4.25,15.91,5.44,26.41C143.18,424.27,152,424.25,160.57,423.26Z" style="fill:#263238"></path><path d="M155.57,424.8a28.38,28.38,0,0,1-16.27-5.36s0-.11.06-.08a30.92,30.92,0,0,0,17,4.93c5.13,0,10.31-.49,15.24,1.25,2.81,1,5.39,2.3,8.43,2.44a17.37,17.37,0,0,0,8.29-1.74c5.59-2.68,8.92-7.79,10.91-13.47.07-.18.35-.13.3.06-2.76,10.33-13.39,18.44-24.17,14.7-3.4-1.18-6.43-2.47-10.08-2.7C162,424.62,158.81,424.87,155.57,424.8Z" style="fill:#263238"></path><path d="M140.91,419.63c-.06,0,0-.12,0-.09a28.64,28.64,0,0,0,18.93,4.14,55.54,55.54,0,0,1,9.45-.78,27.92,27.92,0,0,1,8.34,1.94c6.15,2.34,13.39,5.11,18.14-1.3,4.16-5.61,5.4-13.38,5.24-20.18a.16.16,0,0,1,.31,0c.42,6.7-1,14.23-4.81,19.87-3.17,4.7-8.15,5.58-13.37,4.09-3.71-1.06-7.13-2.93-11-3.63-4-.74-7.89-.11-11.91.38A27.81,27.81,0,0,1,140.91,419.63Z" style="fill:#263238"></path><path d="M157.88,424.72c-6.22.06-12.86-.67-17.48-5.23a.06.06,0,0,1,.09-.09c5.86,5.36,14.21,4.94,21.63,4.78a41.43,41.43,0,0,1,11,.82c3.6.91,6.82,3.09,10.55,3.46,7.82.78,14-5.28,16.37-12,2.56-7.4,1.05-14.81.43-22.38,0-.19.29-.25.33-.06,2.11,10.48,2.79,24.89-7,32A14.77,14.77,0,0,1,179.91,428c-3.7-1.33-7-2.87-11-3.24A106.78,106.78,0,0,0,157.88,424.72Z" style="fill:#263238"></path><path d="M167.43,395.84s-9.24,5-7.54,9.17,14.64,1,16.84-3.38a4.67,4.67,0,0,0-1.8-6.5Z" style="fill:#d3766a"></path><path d="M163.58,404c0,.07.08.1.12,0,1.65-3.06,4.81-4.42,8-5.26-1.29.82-2.08,2.05-1.12,3.76,0,.09.19,0,.18-.07a2.87,2.87,0,0,1,1.35-3,14,14,0,0,1,2.7-1.22c.31-.12.21-.66-.13-.58l-.08,0C170.54,397.14,164.48,399.68,163.58,404Z" style="fill:#263238"></path><path d="M622.32,299.62c-3.48,1.35-110.51,7.17-114.48,4.92-.43-.25-.33-4.71-1.86-16.24-.07-.55-2.39-2.68-6-5.68-13.56-11.28-45.37-38.46-45.37-38.46l50.23-40.56,49,47.84,12.75,12.44s47.38,18.53,51.48,21.46S625.79,298.27,622.32,299.62Z" style="fill:#d3766a"></path><path d="M543.57,239.17l-45.82,42.08s-63.92-50.37-64.95-50.74c0,0-28.85,32.77-43,55.53,0,0-20.17,81.11-75.42,77.11L270,312.06c34.48-66.43,125.06-168.8,154.81-164.91C460.19,151.79,543.57,239.17,543.57,239.17Z" style="fill:#37474f"></path><path d="M623.11,297.76c-3.47,1.36-110.51,7.17-114.47,4.92-.43-.25-.33-4.71-1.86-16.23-.08-.55-2.39-2.69-6-5.69-13.55-11.28-45.37-38.46-45.37-38.46l50.23-40.56,49,47.84L567.44,262s47.37,18.53,51.47,21.46S626.59,296.41,623.11,297.76Z" style="fill:#d3766a"></path><path d="M541.05,236l-45.81,42.08s-63.93-50.37-64.95-50.73c0,0-28.86,32.77-43,55.52,0,0-7.23,78.36-72.9,80.27L270,312.06C303.7,245.24,392.54,140.11,422.28,144,457.67,148.63,541.05,236,541.05,236Z" style="fill:#263238"></path><path d="M498.42,278.79l8.47,7.54,0,0v.06l2,16.22-.31-.28,27.59-.58,27.59-.74c9.19-.27,18.38-.63,27.57-1s18.38-.88,27.53-1.82c-9.12,1.26-18.31,1.93-27.49,2.49s-18.39,1-27.58,1.27-18.4.57-27.6.73l-13.81.21-13.8.08h-.29l0-.28-1.7-16.26.05.1Z" style="fill:#263238"></path><path d="M208.48,399.74c.65-7.06,29.06-16.28,32.61-17.31s31.84-1.18,36.65,0-15.65,18.7-26.93,20.7S208.24,402.34,208.48,399.74Z" style="fill:#d3766a"></path><path d="M216.48,392.94c39.94-9.12,106-13.78,121.61-13.32,8.08.23,12.26,37.94,6.71,37.91-7.11,0-97.89-3.5-125.44-8.37C201.5,406,208.21,394.83,216.48,392.94Z" style="fill:#d3766a"></path><path d="M342.7,416.75c-7.63-3.07-9.39-14.25-9.39-14.25l3.57-22.84c15.38-.7,33.47,5.17,41.75,6.79,2,.4,13.52,3.53,23.83,5.64,11.69,2.4,23.65,6.41,24.49,7.58,1.62,2.25-1.12,6-9.38,6.21s-24.43-2.06-25.43-1.94a6.79,6.79,0,0,0-1,.31h0c-.36.27-9,10.75-13.24,13.93-2.57,1.94-13.08,2.1-19.2,1.89C348.86,419.75,343.94,417.6,342.7,416.75Z" style="fill:#d3766a"></path><path d="M377.08,398.32s19.52-4.87,23.43-3.37,28.75,6.88,30.42,9.09-1.13,6-9.38,6.22-24.43-2.07-25.44-1.95-17.27,7.14-19,7.34S377.08,398.32,377.08,398.32Z" style="fill:#d3766a"></path><path d="M387.68,394c2.21,0,4.41,0,6.62,0,1.1,0,2.2.08,3.3.14.56,0,1.11.07,1.67.13.27,0,.56.06.84.1a7.64,7.64,0,0,1,.85.2q6.38,1.63,12.76,3.34c4.26,1.17,8.49,2.3,12.73,3.58a13.92,13.92,0,0,1,3.09,1.42,6.14,6.14,0,0,1,1.33,1.12,2.77,2.77,0,0,1,.77,1.64,2.32,2.32,0,0,1-.63,1.69,5.14,5.14,0,0,1-1.36,1,11.94,11.94,0,0,1-3.13,1.11,13.84,13.84,0,0,0,3-1.38,4.5,4.5,0,0,0,1.17-1,1.79,1.79,0,0,0,.41-1.35,3.49,3.49,0,0,0-1.92-2.19,13.88,13.88,0,0,0-3-1.19c-4.24-1.06-8.53-2.17-12.77-3.31s-8.49-2.31-12.72-3.62a15.79,15.79,0,0,0-3.16-.55c-1.09-.12-2.18-.21-3.28-.31Z" style="fill:#263238"></path><path d="M374.6,402.13s21.41-5.26,25.32-3.76,28.75,6.88,30.42,9.09-1.12,6-9.38,6.22-24.42-2.07-25.44-1.95-17.27,7.14-19,7.34S374.6,402.13,374.6,402.13Z" style="fill:#d3766a"></path><path d="M384.5,396.64c2.71.06,5.4.23,8.1.4q2,.15,4,.36c.67.08,1.35.16,2,.26a16.47,16.47,0,0,1,2,.45q7.82,2.1,15.62,4.29l7.79,2.24,1.94.58a17.71,17.71,0,0,1,2,.68,8.25,8.25,0,0,1,1.85,1.09,3.66,3.66,0,0,1,1.34,1.85,2.22,2.22,0,0,1-.06,1.25,2.71,2.71,0,0,1-.65,1,6.12,6.12,0,0,1-1.79,1.2,18,18,0,0,1-3.92,1.24,23.58,23.58,0,0,1-8.12.22,24.83,24.83,0,0,0,8-.77,18.31,18.31,0,0,0,3.74-1.35,5.32,5.32,0,0,0,1.52-1.09,1.47,1.47,0,0,0,.44-1.45,2.84,2.84,0,0,0-1.07-1.32,7.82,7.82,0,0,0-1.66-.91c-1.17-.47-2.53-.77-3.82-1.15l-7.8-2.17c-5.19-1.47-10.39-2.93-15.56-4.52a15.38,15.38,0,0,0-1.91-.5c-.65-.13-1.32-.24-2-.34-1.33-.2-2.67-.37-4-.53Z" style="fill:#263238"></path><path d="M374.59,401.42s19.66-.21,23.3,1.18,20.83,4,22.39,6.07-1,5.56-8.74,5.78-16.8.48-17.74.59l-17.39,2.16C374.84,417.38,374.59,401.42,374.59,401.42Z" style="fill:#d3766a"></path><path d="M379.81,399.74c3.48.19,6.95.42,10.42.65,1.74.11,3.47.24,5.2.38l1.31.11a9.78,9.78,0,0,1,1.32.2c.87.18,1.71.38,2.56.59,3.38.86,6.74,1.8,10.06,2.85,1.66.53,3.32,1.06,5,1.64.82.29,1.65.59,2.47.91a16.82,16.82,0,0,1,2.46,1.14,2,2,0,0,1,.64,3,6.44,6.44,0,0,1-2.09,1.92A11.28,11.28,0,0,1,414,414.8c-3.5.21-7,.32-10.44.46s-7,.24-10.4.31c-1.71.12-3.45.3-5.18.47s-3.47.29-5.21.38c3.41-.72,6.82-1.32,10.29-1.83l10.46-.41c3.46-.17,6.95-.31,10.4-.54a10.42,10.42,0,0,0,4.66-1.47,5.52,5.52,0,0,0,1.75-1.55,1,1,0,0,0-.3-1.5,17.51,17.51,0,0,0-2.26-1.05c-.8-.32-1.61-.62-2.42-.92-1.63-.58-3.28-1.13-4.92-1.67-3.31-1.05-6.62-2.12-10-3-.83-.23-1.67-.46-2.51-.65a18.72,18.72,0,0,0-2.54-.36l-5.18-.56Z" style="fill:#263238"></path><polygon points="240.29 388.43 278.23 383.51 277.74 382.43 264.99 381.64 240.29 388.43" style="opacity:0.1"></polygon></g></svg>
