<svg xmlns="http://www.w3.org/2000/svg" viewBox="0 0 500 500"><g id="freepik--background-complete--inject-1006"><polygon points="464.68 271.74 464.68 375.06 215.68 375.06 215.68 294.58 237.28 294.58 237.28 320.81 242.84 320.81 242.84 274.96 270.31 274.96 270.31 318.48 273.94 318.48 273.94 263.29 297.81 263.29 297.81 278.43 310.06 278.43 310.06 297.29 313.76 297.29 313.76 285.43 335.47 285.43 335.47 320.8 341.81 320.8 341.81 292.05 361.66 292.05 361.66 270.2 375.16 270.2 375.16 257.77 390.77 257.77 390.77 312.94 396.02 312.94 396.02 289.91 421.74 289.91 421.74 322.87 425.3 322.87 425.3 295.97 451.38 295.97 451.38 271.74 464.68 271.74" style="fill:#ebebeb"></polygon><rect x="218.32" y="297.88" width="3.65" height="5.02" style="fill:#fff"></rect><rect x="224.66" y="297.88" width="3.65" height="5.02" style="fill:#fff"></rect><rect x="230.99" y="297.88" width="3.65" height="5.02" style="fill:#fff"></rect><rect x="218.32" y="305.42" width="3.65" height="5.02" style="fill:#fff"></rect><rect x="224.66" y="305.42" width="3.65" height="5.02" style="fill:#fff"></rect><rect x="230.99" y="305.42" width="3.65" height="5.02" style="fill:#fff"></rect><rect x="218.32" y="312.97" width="3.65" height="5.02" style="fill:#fff"></rect><rect x="224.66" y="312.97" width="3.65" height="5.02" style="fill:#fff"></rect><rect x="230.99" y="312.97" width="3.65" height="5.02" style="fill:#fff"></rect><rect x="218.32" y="320.52" width="3.65" height="5.02" style="fill:#fff"></rect><rect x="224.66" y="320.52" width="3.65" height="5.02" style="fill:#fff"></rect><rect x="230.99" y="320.52" width="3.65" height="5.02" style="fill:#fff"></rect><rect x="344.86" y="295.63" width="3.65" height="4.18" style="fill:#fff"></rect><rect x="351.2" y="295.63" width="3.65" height="4.18" style="fill:#fff"></rect><rect x="357.53" y="295.63" width="3.65" height="4.18" style="fill:#fff"></rect><rect x="344.86" y="301.93" width="3.65" height="4.18" style="fill:#fff"></rect><rect x="351.2" y="301.93" width="3.65" height="4.18" style="fill:#fff"></rect><rect x="357.53" y="301.93" width="3.65" height="4.18" style="fill:#fff"></rect><rect x="344.86" y="308.22" width="3.65" height="4.18" style="fill:#fff"></rect><rect x="351.2" y="308.22" width="3.65" height="4.18" style="fill:#fff"></rect><rect x="357.53" y="308.22" width="3.65" height="4.18" style="fill:#fff"></rect><rect x="344.86" y="314.52" width="3.65" height="4.18" style="fill:#fff"></rect><rect x="351.2" y="314.52" width="3.65" height="4.18" style="fill:#fff"></rect><rect x="357.53" y="314.52" width="3.65" height="4.18" style="fill:#fff"></rect><rect x="344.86" y="320.97" width="3.65" height="4.18" style="fill:#fff"></rect><rect x="351.2" y="320.97" width="3.65" height="4.18" style="fill:#fff"></rect><rect x="357.53" y="320.97" width="3.65" height="4.18" style="fill:#fff"></rect><rect x="344.86" y="327.42" width="3.65" height="4.18" style="fill:#fff"></rect><rect x="351.2" y="327.42" width="3.65" height="4.18" style="fill:#fff"></rect><rect x="357.53" y="327.42" width="3.65" height="4.18" style="fill:#fff"></rect><rect x="344.86" y="333.87" width="3.65" height="4.18" style="fill:#fff"></rect><rect x="351.2" y="333.87" width="3.65" height="4.18" style="fill:#fff"></rect><rect x="357.53" y="333.87" width="3.65" height="4.18" style="fill:#fff"></rect><rect x="344.86" y="340.33" width="3.65" height="4.18" style="fill:#fff"></rect><rect x="351.2" y="340.33" width="3.65" height="4.18" style="fill:#fff"></rect><rect x="357.53" y="340.33" width="3.65" height="4.18" style="fill:#fff"></rect><rect x="245.96" y="278.18" width="21.04" height="3.14" style="fill:#fff"></rect><rect x="245.96" y="284.26" width="21.04" height="3.14" style="fill:#fff"></rect><rect x="245.96" y="290.35" width="21.04" height="3.14" style="fill:#fff"></rect><rect x="245.96" y="296.44" width="21.04" height="3.14" style="fill:#fff"></rect><rect x="245.96" y="302.52" width="21.04" height="3.14" style="fill:#fff"></rect><rect x="245.96" y="308.61" width="21.04" height="3.14" style="fill:#fff"></rect><rect x="245.96" y="314.7" width="21.04" height="3.14" style="fill:#fff"></rect><rect x="245.96" y="320.78" width="21.04" height="3.14" style="fill:#fff"></rect><rect x="399.13" y="292.84" width="19.34" height="3.14" style="fill:#fff"></rect><rect x="399.13" y="298.93" width="19.34" height="3.14" style="fill:#fff"></rect><rect x="399.13" y="305.01" width="19.34" height="3.14" style="fill:#fff"></rect><rect x="399.13" y="311.1" width="19.34" height="3.14" style="fill:#fff"></rect><rect x="399.13" y="317.19" width="19.34" height="3.14" style="fill:#fff"></rect><rect x="399.13" y="323.27" width="19.34" height="3.14" style="fill:#fff"></rect><rect x="399.13" y="329.36" width="19.34" height="3.14" style="fill:#fff"></rect><rect x="399.13" y="335.45" width="19.34" height="3.14" style="fill:#fff"></rect><rect x="399.13" y="341.23" width="19.34" height="3.14" style="fill:#fff"></rect><rect x="399.13" y="347.01" width="19.34" height="3.14" style="fill:#fff"></rect><rect x="399.13" y="352.8" width="19.34" height="3.14" style="fill:#fff"></rect><rect x="399.13" y="358.58" width="19.34" height="3.14" style="fill:#fff"></rect><rect x="399.13" y="364.36" width="19.34" height="3.14" style="fill:#fff"></rect><rect x="429.32" y="300.19" width="20.43" height="3.14" style="fill:#fff"></rect><rect x="429.32" y="306.28" width="20.43" height="3.14" style="fill:#fff"></rect><rect x="429.32" y="312.37" width="20.43" height="3.14" style="fill:#fff"></rect><rect x="429.32" y="318.45" width="20.43" height="3.14" style="fill:#fff"></rect><rect x="429.32" y="324.54" width="20.43" height="3.14" style="fill:#fff"></rect><rect x="429.32" y="330.62" width="20.43" height="3.14" style="fill:#fff"></rect><rect x="429.32" y="336.71" width="20.43" height="3.14" style="fill:#fff"></rect><rect x="429.32" y="342.8" width="20.43" height="3.14" style="fill:#fff"></rect><rect x="429.32" y="348.25" width="20.43" height="3.14" style="fill:#fff"></rect><rect x="429.32" y="353.69" width="20.43" height="3.14" style="fill:#fff"></rect><rect x="429.32" y="359.14" width="20.43" height="3.14" style="fill:#fff"></rect><rect x="320.11" y="288.27" width="6.5" height="3.03" style="fill:#fff"></rect><rect x="320.11" y="294.15" width="6.5" height="3.03" style="fill:#fff"></rect><rect x="320.11" y="300.03" width="6.5" height="3.03" style="fill:#fff"></rect><rect x="320.11" y="305.9" width="6.5" height="3.03" style="fill:#fff"></rect><rect x="320.11" y="311.78" width="6.5" height="3.03" style="fill:#fff"></rect><rect x="320.11" y="317.66" width="6.5" height="3.03" style="fill:#fff"></rect><rect x="320.11" y="323.54" width="6.5" height="3.03" style="fill:#fff"></rect><rect x="320.11" y="329.42" width="6.5" height="3.03" style="fill:#fff"></rect><rect x="328.95" y="288.27" width="6.5" height="3.03" style="fill:#fff"></rect><rect x="328.95" y="294.15" width="6.5" height="3.03" style="fill:#fff"></rect><rect x="328.95" y="300.03" width="6.5" height="3.03" style="fill:#fff"></rect><rect x="328.95" y="305.9" width="6.5" height="3.03" style="fill:#fff"></rect><rect x="328.95" y="311.78" width="6.5" height="3.03" style="fill:#fff"></rect><rect x="328.95" y="317.66" width="6.5" height="3.03" style="fill:#fff"></rect><rect x="328.95" y="323.54" width="6.5" height="3.03" style="fill:#fff"></rect><rect x="328.95" y="329.42" width="6.5" height="3.03" style="fill:#fff"></rect><rect x="277.56" y="266.46" width="6.77" height="4.78" style="fill:#fff"></rect><rect x="287.66" y="266.46" width="6.77" height="4.78" style="fill:#fff"></rect><rect x="277.56" y="273.48" width="6.77" height="4.78" style="fill:#fff"></rect><rect x="287.66" y="273.48" width="6.77" height="4.78" style="fill:#fff"></rect><rect x="277.56" y="280.5" width="6.77" height="4.78" style="fill:#fff"></rect><rect x="287.66" y="280.5" width="6.77" height="4.78" style="fill:#fff"></rect><rect x="277.56" y="287.52" width="6.77" height="4.78" style="fill:#fff"></rect><rect x="287.66" y="287.52" width="6.77" height="4.78" style="fill:#fff"></rect><rect x="277.56" y="294.54" width="6.77" height="4.78" style="fill:#fff"></rect><rect x="287.66" y="294.54" width="6.77" height="4.78" style="fill:#fff"></rect><rect x="277.56" y="301.55" width="6.77" height="4.78" style="fill:#fff"></rect><rect x="287.66" y="301.55" width="6.77" height="4.78" style="fill:#fff"></rect><rect x="277.56" y="308.57" width="6.77" height="4.78" style="fill:#fff"></rect><rect x="287.66" y="308.57" width="6.77" height="4.78" style="fill:#fff"></rect><rect x="277.56" y="315.59" width="6.77" height="4.78" style="fill:#fff"></rect><rect x="287.66" y="315.59" width="6.77" height="4.78" style="fill:#fff"></rect><rect x="300.16" y="280.5" width="6.77" height="4.78" style="fill:#fff"></rect><rect x="300.16" y="287.52" width="6.77" height="4.78" style="fill:#fff"></rect><rect x="300.16" y="294.54" width="6.77" height="4.78" style="fill:#fff"></rect><rect x="300.16" y="301.55" width="6.77" height="4.78" style="fill:#fff"></rect><rect x="300.16" y="308.57" width="6.77" height="4.78" style="fill:#fff"></rect><rect x="300.16" y="315.59" width="6.77" height="4.78" style="fill:#fff"></rect><rect x="277.56" y="322.52" width="6.77" height="4.78" style="fill:#fff"></rect><rect x="287.66" y="322.52" width="6.77" height="4.78" style="fill:#fff"></rect><rect x="300.16" y="322.52" width="6.77" height="4.78" style="fill:#fff"></rect><rect x="277.56" y="329.46" width="6.77" height="4.78" style="fill:#fff"></rect><rect x="287.66" y="329.46" width="6.77" height="4.78" style="fill:#fff"></rect><rect x="300.16" y="329.46" width="6.77" height="4.78" style="fill:#fff"></rect><rect x="277.56" y="336.39" width="6.77" height="4.78" style="fill:#fff"></rect><rect x="287.66" y="336.39" width="6.77" height="4.78" style="fill:#fff"></rect><rect x="300.16" y="336.39" width="6.77" height="4.78" style="fill:#fff"></rect><rect x="277.56" y="343.33" width="6.77" height="4.78" style="fill:#fff"></rect><rect x="287.66" y="343.33" width="6.77" height="4.78" style="fill:#fff"></rect><rect x="300.16" y="343.33" width="6.77" height="4.78" style="fill:#fff"></rect><rect x="277.56" y="350.26" width="6.77" height="4.78" style="fill:#fff"></rect><rect x="287.66" y="350.26" width="6.77" height="4.78" style="fill:#fff"></rect><rect x="300.16" y="350.26" width="6.77" height="4.78" style="fill:#fff"></rect><rect x="364.42" y="273.28" width="3.65" height="4.18" style="fill:#fff"></rect><rect x="370.76" y="273.28" width="3.65" height="4.18" style="fill:#fff"></rect><rect x="364.42" y="279.58" width="3.65" height="4.18" style="fill:#fff"></rect><rect x="370.76" y="279.58" width="3.65" height="4.18" style="fill:#fff"></rect><rect x="364.42" y="285.88" width="3.65" height="4.18" style="fill:#fff"></rect><rect x="370.76" y="285.88" width="3.65" height="4.18" style="fill:#fff"></rect><rect x="364.42" y="292.17" width="3.65" height="4.18" style="fill:#fff"></rect><rect x="370.76" y="292.17" width="3.65" height="4.18" style="fill:#fff"></rect><rect x="364.42" y="298.62" width="3.65" height="4.18" style="fill:#fff"></rect><rect x="370.76" y="298.62" width="3.65" height="4.18" style="fill:#fff"></rect><rect x="364.42" y="305.08" width="3.65" height="4.18" style="fill:#fff"></rect><rect x="370.76" y="305.08" width="3.65" height="4.18" style="fill:#fff"></rect><rect x="364.42" y="311.53" width="3.65" height="4.18" style="fill:#fff"></rect><rect x="370.76" y="311.53" width="3.65" height="4.18" style="fill:#fff"></rect><rect x="364.42" y="317.98" width="3.65" height="4.18" style="fill:#fff"></rect><rect x="370.76" y="317.98" width="3.65" height="4.18" style="fill:#fff"></rect><rect x="364.42" y="324.5" width="3.65" height="4.18" style="fill:#fff"></rect><rect x="370.76" y="324.5" width="3.65" height="4.18" style="fill:#fff"></rect><rect x="364.42" y="331.02" width="3.65" height="4.18" style="fill:#fff"></rect><rect x="370.76" y="331.02" width="3.65" height="4.18" style="fill:#fff"></rect><rect x="364.42" y="337.54" width="3.65" height="4.18" style="fill:#fff"></rect><rect x="370.76" y="337.54" width="3.65" height="4.18" style="fill:#fff"></rect><rect x="364.42" y="344.06" width="3.65" height="4.18" style="fill:#fff"></rect><rect x="370.76" y="344.06" width="3.65" height="4.18" style="fill:#fff"></rect><rect x="453.67" y="273.96" width="3.65" height="4.93" style="fill:#fff"></rect><rect x="460" y="273.96" width="3.65" height="4.93" style="fill:#fff"></rect><rect x="453.67" y="281.38" width="3.65" height="4.93" style="fill:#fff"></rect><rect x="460" y="281.38" width="3.65" height="4.93" style="fill:#fff"></rect><rect x="453.67" y="288.8" width="3.65" height="4.93" style="fill:#fff"></rect><rect x="460" y="288.8" width="3.65" height="4.93" style="fill:#fff"></rect><rect x="453.67" y="296.22" width="3.65" height="4.93" style="fill:#fff"></rect><rect x="460" y="296.22" width="3.65" height="4.93" style="fill:#fff"></rect><rect x="453.67" y="303.82" width="3.65" height="4.93" style="fill:#fff"></rect><rect x="460" y="303.82" width="3.65" height="4.93" style="fill:#fff"></rect><rect x="453.67" y="311.42" width="3.65" height="4.93" style="fill:#fff"></rect><rect x="460" y="311.42" width="3.65" height="4.93" style="fill:#fff"></rect><rect x="453.67" y="319.02" width="3.65" height="4.93" style="fill:#fff"></rect><rect x="460" y="319.02" width="3.65" height="4.93" style="fill:#fff"></rect><rect x="453.67" y="326.62" width="3.65" height="4.93" style="fill:#fff"></rect><rect x="460" y="326.62" width="3.65" height="4.93" style="fill:#fff"></rect><rect x="453.67" y="334.3" width="3.65" height="4.93" style="fill:#fff"></rect><rect x="460" y="334.3" width="3.65" height="4.93" style="fill:#fff"></rect><rect x="453.67" y="341.98" width="3.65" height="4.93" style="fill:#fff"></rect><rect x="460" y="341.98" width="3.65" height="4.93" style="fill:#fff"></rect><rect x="453.67" y="349.67" width="3.65" height="4.93" style="fill:#fff"></rect><rect x="460" y="349.67" width="3.65" height="4.93" style="fill:#fff"></rect><rect x="453.67" y="357.35" width="3.65" height="4.93" style="fill:#fff"></rect><rect x="460" y="357.35" width="3.65" height="4.93" style="fill:#fff"></rect><rect x="377.97" y="273.28" width="3.65" height="4.18" style="fill:#fff"></rect><rect x="384.3" y="273.28" width="3.65" height="4.18" style="fill:#fff"></rect><rect x="377.97" y="266.83" width="3.65" height="4.18" style="fill:#fff"></rect><rect x="384.3" y="266.83" width="3.65" height="4.18" style="fill:#fff"></rect><rect x="377.97" y="260.37" width="3.65" height="4.18" style="fill:#fff"></rect><rect x="384.3" y="260.37" width="3.65" height="4.18" style="fill:#fff"></rect><rect x="377.97" y="279.58" width="3.65" height="4.18" style="fill:#fff"></rect><rect x="384.3" y="279.58" width="3.65" height="4.18" style="fill:#fff"></rect><rect x="377.97" y="285.88" width="3.65" height="4.18" style="fill:#fff"></rect><rect x="384.3" y="285.88" width="3.65" height="4.18" style="fill:#fff"></rect><rect x="377.97" y="292.17" width="3.65" height="4.18" style="fill:#fff"></rect><rect x="384.3" y="292.17" width="3.65" height="4.18" style="fill:#fff"></rect><rect x="377.97" y="298.62" width="3.65" height="4.18" style="fill:#fff"></rect><rect x="384.3" y="298.62" width="3.65" height="4.18" style="fill:#fff"></rect><rect x="377.97" y="305.08" width="3.65" height="4.18" style="fill:#fff"></rect><rect x="384.3" y="305.08" width="3.65" height="4.18" style="fill:#fff"></rect><rect x="377.97" y="311.53" width="3.65" height="4.18" style="fill:#fff"></rect><rect x="384.3" y="311.53" width="3.65" height="4.18" style="fill:#fff"></rect><rect x="377.97" y="317.98" width="3.65" height="4.18" style="fill:#fff"></rect><rect x="384.3" y="317.98" width="3.65" height="4.18" style="fill:#fff"></rect><rect x="377.97" y="324.5" width="3.65" height="4.18" style="fill:#fff"></rect><rect x="384.3" y="324.5" width="3.65" height="4.18" style="fill:#fff"></rect><rect x="377.97" y="331.02" width="3.65" height="4.18" style="fill:#fff"></rect><rect x="384.3" y="331.02" width="3.65" height="4.18" style="fill:#fff"></rect><rect x="377.97" y="337.54" width="3.65" height="4.18" style="fill:#fff"></rect><rect x="384.3" y="337.54" width="3.65" height="4.18" style="fill:#fff"></rect><rect x="377.97" y="344.06" width="3.65" height="4.18" style="fill:#fff"></rect><rect x="384.3" y="344.06" width="3.65" height="4.18" style="fill:#fff"></rect><polygon points="215.68 375.06 35.32 375.06 35.32 283.58 56.92 283.58 56.92 309.81 62.48 309.81 62.48 294.96 89.95 294.96 89.95 318.48 93.59 318.48 93.59 263.29 117.46 263.29 117.46 278.43 129.7 278.43 129.7 297.29 133.41 297.29 133.41 285.43 155.11 285.43 155.11 320.8 161.46 320.8 161.46 292.05 181.31 292.05 181.31 270.2 194.8 270.2 210.41 270.28 210.41 312.94 215.67 312.94 215.68 375.06" style="fill:#ebebeb"></polygon><rect x="37.97" y="286.88" width="3.65" height="5.02" style="fill:#fff"></rect><rect x="44.3" y="286.88" width="3.65" height="5.02" style="fill:#fff"></rect><rect x="50.64" y="286.88" width="3.65" height="5.02" style="fill:#fff"></rect><rect x="37.97" y="294.42" width="3.65" height="5.02" style="fill:#fff"></rect><rect x="44.3" y="294.42" width="3.65" height="5.02" style="fill:#fff"></rect><rect x="50.64" y="294.42" width="3.65" height="5.02" style="fill:#fff"></rect><rect x="37.97" y="301.97" width="3.65" height="5.02" style="fill:#fff"></rect><rect x="44.3" y="301.97" width="3.65" height="5.02" style="fill:#fff"></rect><rect x="50.64" y="301.97" width="3.65" height="5.02" style="fill:#fff"></rect><rect x="37.97" y="309.52" width="3.65" height="5.02" style="fill:#fff"></rect><rect x="44.3" y="309.52" width="3.65" height="5.02" style="fill:#fff"></rect><rect x="50.64" y="309.52" width="3.65" height="5.02" style="fill:#fff"></rect><rect x="164.51" y="295.63" width="3.65" height="4.18" style="fill:#fff"></rect><rect x="170.84" y="295.63" width="3.65" height="4.18" style="fill:#fff"></rect><rect x="177.18" y="295.63" width="3.65" height="4.18" style="fill:#fff"></rect><rect x="164.51" y="301.93" width="3.65" height="4.18" style="fill:#fff"></rect><rect x="170.84" y="301.93" width="3.65" height="4.18" style="fill:#fff"></rect><rect x="177.18" y="301.93" width="3.65" height="4.18" style="fill:#fff"></rect><rect x="164.51" y="308.22" width="3.65" height="4.18" style="fill:#fff"></rect><rect x="170.84" y="308.22" width="3.65" height="4.18" style="fill:#fff"></rect><rect x="177.18" y="308.22" width="3.65" height="4.18" style="fill:#fff"></rect><rect x="164.51" y="314.52" width="3.65" height="4.18" style="fill:#fff"></rect><rect x="170.84" y="314.52" width="3.65" height="4.18" style="fill:#fff"></rect><rect x="177.18" y="314.52" width="3.65" height="4.18" style="fill:#fff"></rect><rect x="164.51" y="320.97" width="3.65" height="4.18" style="fill:#fff"></rect><rect x="170.84" y="320.97" width="3.65" height="4.18" style="fill:#fff"></rect><rect x="177.18" y="320.97" width="3.65" height="4.18" style="fill:#fff"></rect><rect x="164.51" y="327.42" width="3.65" height="4.18" style="fill:#fff"></rect><rect x="170.84" y="327.42" width="3.65" height="4.18" style="fill:#fff"></rect><rect x="177.18" y="327.42" width="3.65" height="4.18" style="fill:#fff"></rect><rect x="164.51" y="333.87" width="3.65" height="4.18" style="fill:#fff"></rect><rect x="170.84" y="333.87" width="3.65" height="4.18" style="fill:#fff"></rect><rect x="177.18" y="333.87" width="3.65" height="4.18" style="fill:#fff"></rect><rect x="164.51" y="340.33" width="3.65" height="4.18" style="fill:#fff"></rect><rect x="170.84" y="340.33" width="3.65" height="4.18" style="fill:#fff"></rect><rect x="177.18" y="340.33" width="3.65" height="4.18" style="fill:#fff"></rect><rect x="65.6" y="298.18" width="21.04" height="3.14" style="fill:#fff"></rect><rect x="65.6" y="304.26" width="21.04" height="3.14" style="fill:#fff"></rect><rect x="65.6" y="310.35" width="21.04" height="3.14" style="fill:#fff"></rect><rect x="65.6" y="316.44" width="21.04" height="3.14" style="fill:#fff"></rect><rect x="65.6" y="322.52" width="21.04" height="3.14" style="fill:#fff"></rect><rect x="65.6" y="328.61" width="21.04" height="3.14" style="fill:#fff"></rect><rect x="65.6" y="334.7" width="21.04" height="3.14" style="fill:#fff"></rect><rect x="65.6" y="340.78" width="21.04" height="3.14" style="fill:#fff"></rect><rect x="139.76" y="288.27" width="6.5" height="3.03" style="fill:#fff"></rect><rect x="139.76" y="294.15" width="6.5" height="3.03" style="fill:#fff"></rect><rect x="139.76" y="300.03" width="6.5" height="3.03" style="fill:#fff"></rect><rect x="139.76" y="305.9" width="6.5" height="3.03" style="fill:#fff"></rect><rect x="139.76" y="311.78" width="6.5" height="3.03" style="fill:#fff"></rect><rect x="139.76" y="317.66" width="6.5" height="3.03" style="fill:#fff"></rect><rect x="139.76" y="323.54" width="6.5" height="3.03" style="fill:#fff"></rect><rect x="139.76" y="329.42" width="6.5" height="3.03" style="fill:#fff"></rect><rect x="148.6" y="288.27" width="6.5" height="3.03" style="fill:#fff"></rect><rect x="148.6" y="294.15" width="6.5" height="3.03" style="fill:#fff"></rect><rect x="148.6" y="300.03" width="6.5" height="3.03" style="fill:#fff"></rect><rect x="148.6" y="305.9" width="6.5" height="3.03" style="fill:#fff"></rect><rect x="148.6" y="311.78" width="6.5" height="3.03" style="fill:#fff"></rect><rect x="148.6" y="317.66" width="6.5" height="3.03" style="fill:#fff"></rect><rect x="148.6" y="323.54" width="6.5" height="3.03" style="fill:#fff"></rect><rect x="148.6" y="329.42" width="6.5" height="3.03" style="fill:#fff"></rect><rect x="97.21" y="266.46" width="6.77" height="4.78" style="fill:#fff"></rect><rect x="107.3" y="266.46" width="6.77" height="4.78" style="fill:#fff"></rect><rect x="97.21" y="273.48" width="6.77" height="4.78" style="fill:#fff"></rect><rect x="107.3" y="273.48" width="6.77" height="4.78" style="fill:#fff"></rect><rect x="97.21" y="280.5" width="6.77" height="4.78" style="fill:#fff"></rect><rect x="107.3" y="280.5" width="6.77" height="4.78" style="fill:#fff"></rect><rect x="97.21" y="287.52" width="6.77" height="4.78" style="fill:#fff"></rect><rect x="107.3" y="287.52" width="6.77" height="4.78" style="fill:#fff"></rect><rect x="97.21" y="294.54" width="6.77" height="4.78" style="fill:#fff"></rect><rect x="107.3" y="294.54" width="6.77" height="4.78" style="fill:#fff"></rect><rect x="97.21" y="301.55" width="6.77" height="4.78" style="fill:#fff"></rect><rect x="107.3" y="301.55" width="6.77" height="4.78" style="fill:#fff"></rect><rect x="97.21" y="308.57" width="6.77" height="4.78" style="fill:#fff"></rect><rect x="107.3" y="308.57" width="6.77" height="4.78" style="fill:#fff"></rect><rect x="97.21" y="315.59" width="6.77" height="4.78" style="fill:#fff"></rect><rect x="107.3" y="315.59" width="6.77" height="4.78" style="fill:#fff"></rect><rect x="119.81" y="280.5" width="6.77" height="4.78" style="fill:#fff"></rect><rect x="119.81" y="287.52" width="6.77" height="4.78" style="fill:#fff"></rect><rect x="119.81" y="294.54" width="6.77" height="4.78" style="fill:#fff"></rect><rect x="119.81" y="301.55" width="6.77" height="4.78" style="fill:#fff"></rect><rect x="119.81" y="308.57" width="6.77" height="4.78" style="fill:#fff"></rect><rect x="119.81" y="315.59" width="6.77" height="4.78" style="fill:#fff"></rect><rect x="97.21" y="322.52" width="6.77" height="4.78" style="fill:#fff"></rect><rect x="107.3" y="322.52" width="6.77" height="4.78" style="fill:#fff"></rect><rect x="119.81" y="322.52" width="6.77" height="4.78" style="fill:#fff"></rect><rect x="97.21" y="329.46" width="6.77" height="4.78" style="fill:#fff"></rect><rect x="107.3" y="329.46" width="6.77" height="4.78" style="fill:#fff"></rect><rect x="119.81" y="329.46" width="6.77" height="4.78" style="fill:#fff"></rect><rect x="97.21" y="336.39" width="6.77" height="4.78" style="fill:#fff"></rect><rect x="107.3" y="336.39" width="6.77" height="4.78" style="fill:#fff"></rect><rect x="119.81" y="336.39" width="6.77" height="4.78" style="fill:#fff"></rect><rect x="97.21" y="343.33" width="6.77" height="4.78" style="fill:#fff"></rect><rect x="107.3" y="343.33" width="6.77" height="4.78" style="fill:#fff"></rect><rect x="119.81" y="343.33" width="6.77" height="4.78" style="fill:#fff"></rect><rect x="97.21" y="350.26" width="6.77" height="4.78" style="fill:#fff"></rect><rect x="107.3" y="350.26" width="6.77" height="4.78" style="fill:#fff"></rect><rect x="119.81" y="350.26" width="6.77" height="4.78" style="fill:#fff"></rect><rect x="184.06" y="273.28" width="3.65" height="4.18" style="fill:#fff"></rect><rect x="190.4" y="273.28" width="3.65" height="4.18" style="fill:#fff"></rect><rect x="184.06" y="279.58" width="3.65" height="4.18" style="fill:#fff"></rect><rect x="190.4" y="279.58" width="3.65" height="4.18" style="fill:#fff"></rect><rect x="184.06" y="285.88" width="3.65" height="4.18" style="fill:#fff"></rect><rect x="190.4" y="285.88" width="3.65" height="4.18" style="fill:#fff"></rect><rect x="184.06" y="292.17" width="3.65" height="4.18" style="fill:#fff"></rect><rect x="190.4" y="292.17" width="3.65" height="4.18" style="fill:#fff"></rect><rect x="184.06" y="298.62" width="3.65" height="4.18" style="fill:#fff"></rect><rect x="190.4" y="298.62" width="3.65" height="4.18" style="fill:#fff"></rect><rect x="184.06" y="305.08" width="3.65" height="4.18" style="fill:#fff"></rect><rect x="190.4" y="305.08" width="3.65" height="4.18" style="fill:#fff"></rect><rect x="184.06" y="311.53" width="3.65" height="4.18" style="fill:#fff"></rect><rect x="190.4" y="311.53" width="3.65" height="4.18" style="fill:#fff"></rect><rect x="184.06" y="317.98" width="3.65" height="4.18" style="fill:#fff"></rect><rect x="190.4" y="317.98" width="3.65" height="4.18" style="fill:#fff"></rect><rect x="184.06" y="324.5" width="3.65" height="4.18" style="fill:#fff"></rect><rect x="190.4" y="324.5" width="3.65" height="4.18" style="fill:#fff"></rect><rect x="184.06" y="331.02" width="3.65" height="4.18" style="fill:#fff"></rect><rect x="190.4" y="331.02" width="3.65" height="4.18" style="fill:#fff"></rect><rect x="184.06" y="337.54" width="3.65" height="4.18" style="fill:#fff"></rect><rect x="190.4" y="337.54" width="3.65" height="4.18" style="fill:#fff"></rect><rect x="184.06" y="344.06" width="3.65" height="4.18" style="fill:#fff"></rect><rect x="190.4" y="344.06" width="3.65" height="4.18" style="fill:#fff"></rect><rect x="197.61" y="273.28" width="3.65" height="4.18" style="fill:#fff"></rect><rect x="203.95" y="273.28" width="3.65" height="4.18" style="fill:#fff"></rect><rect x="197.61" y="279.58" width="3.65" height="4.18" style="fill:#fff"></rect><rect x="203.95" y="279.58" width="3.65" height="4.18" style="fill:#fff"></rect><rect x="197.61" y="285.88" width="3.65" height="4.18" style="fill:#fff"></rect><rect x="203.95" y="285.88" width="3.65" height="4.18" style="fill:#fff"></rect><rect x="197.61" y="292.17" width="3.65" height="4.18" style="fill:#fff"></rect><rect x="203.95" y="292.17" width="3.65" height="4.18" style="fill:#fff"></rect><rect x="197.61" y="298.62" width="3.65" height="4.18" style="fill:#fff"></rect><rect x="203.95" y="298.62" width="3.65" height="4.18" style="fill:#fff"></rect><rect x="197.61" y="305.08" width="3.65" height="4.18" style="fill:#fff"></rect><rect x="203.95" y="305.08" width="3.65" height="4.18" style="fill:#fff"></rect><rect x="197.61" y="311.53" width="3.65" height="4.18" style="fill:#fff"></rect><rect x="203.95" y="311.53" width="3.65" height="4.18" style="fill:#fff"></rect><rect x="197.61" y="317.98" width="3.65" height="4.18" style="fill:#fff"></rect><rect x="203.95" y="317.98" width="3.65" height="4.18" style="fill:#fff"></rect><rect x="197.61" y="324.5" width="3.65" height="4.18" style="fill:#fff"></rect><rect x="203.95" y="324.5" width="3.65" height="4.18" style="fill:#fff"></rect><rect x="197.61" y="331.02" width="3.65" height="4.18" style="fill:#fff"></rect><rect x="203.95" y="331.02" width="3.65" height="4.18" style="fill:#fff"></rect><rect x="197.61" y="337.54" width="3.65" height="4.18" style="fill:#fff"></rect><rect x="203.95" y="337.54" width="3.65" height="4.18" style="fill:#fff"></rect><rect x="197.61" y="344.06" width="3.65" height="4.18" style="fill:#fff"></rect><rect x="203.95" y="344.06" width="3.65" height="4.18" style="fill:#fff"></rect><path d="M45.51,87.37c5.25,0,93.58.58,99.13.4.4,0,.61-.6.21-.79-3.49-1.74-7.46-1.39-11.1-2.61-2.14-.73-3.45-2.12-4.94-3.73a10.2,10.2,0,0,0-4.6-3,9.75,9.75,0,0,0-5-.16c-1.79.43-3.35,1.46-5.06,2.1-4.24,1.61-8.36.08-11.39-3.06-2.5-2.58-5-5-8.36-6.42A11.05,11.05,0,0,0,85.56,70c-3.24,1.47-5.47,4.42-8.51,6.19-3.61,2.11-7.92,1.61-11.91,2.25s-7,4-10.53,5.92a7.45,7.45,0,0,1-3.81,1.18c-.78,0-1.55-.23-2.32-.32-1.21-.15-2.35-.12-3.16.88C45.13,86.33,45.17,87.37,45.51,87.37Z" style="fill:#ebebeb"></path><path d="M355.24,158.32c5.25,0,93.58.58,99.13.4.4,0,.61-.6.21-.79-3.49-1.74-7.46-1.39-11.1-2.61-2.14-.72-3.45-2.12-4.94-3.73a10.28,10.28,0,0,0-4.6-3,9.74,9.74,0,0,0-5-.15c-1.79.42-3.35,1.45-5.06,2.1-4.24,1.6-8.36.08-11.39-3.06-2.5-2.59-5-5-8.36-6.43a11.05,11.05,0,0,0-8.84-.12c-3.24,1.47-5.47,4.42-8.51,6.19-3.61,2.11-7.92,1.61-11.91,2.25s-7,4-10.53,5.92a7.36,7.36,0,0,1-3.81,1.18c-.78,0-1.55-.23-2.32-.32-1.21-.15-2.35-.12-3.16.89C354.86,157.28,354.9,158.32,355.24,158.32Z" style="fill:#ebebeb"></path><path d="M106.16,149.74c5.25,0,93.58.58,99.13.41.4,0,.61-.6.22-.8-3.5-1.73-7.47-1.38-11.11-2.61-2.14-.72-3.45-2.12-4.94-3.72a10.22,10.22,0,0,0-4.59-3,9.68,9.68,0,0,0-5-.16c-1.79.43-3.34,1.45-5.05,2.1-4.25,1.6-8.37.08-11.4-3.06-2.5-2.59-5-5-8.35-6.42a11.08,11.08,0,0,0-8.85-.12c-3.24,1.46-5.46,4.41-8.51,6.19-3.6,2.11-7.92,1.61-11.9,2.25s-7,4-10.54,5.92a7.55,7.55,0,0,1-3.81,1.18,22.72,22.72,0,0,1-2.32-.33,3.19,3.19,0,0,0-3.16.89C105.78,148.71,105.82,149.74,106.16,149.74Z" style="fill:#ebebeb"></path><path d="M189,123.54c.1.3,139.21,0,137.46,0-.8,0,1.21-1.2.43-1.58-4.53-2.25-9.48-2.31-14.41-2.77a22.26,22.26,0,0,1-8.43-2c-2.62-1.37-4.25-3.76-6.11-6a26.18,26.18,0,0,0-23.76-9c-9.89,1.55-17.69,9.09-27.59,10.47-6,.84-11.59-1.47-17.4-2.28a21.36,21.36,0,0,0-13.07,2.39c-3.14,1.56-6,2.87-9.58,3.11-2.73.19-5.46-.12-8.19-.15a18.38,18.38,0,0,0-12.05,4.82C185.88,120.94,184.48,123.54,189,123.54Z" style="fill:#ebebeb"></path><path d="M285.61,226.7c.11.29,139.22,0,137.46,0-.8,0,1.22-1.2.43-1.59-4.52-2.24-9.48-2.3-14.41-2.76a22.21,22.21,0,0,1-8.42-2c-2.62-1.38-4.26-3.76-6.12-6a26.12,26.12,0,0,0-23.75-9c-9.9,1.55-17.69,9.08-27.6,10.47-5.95.83-11.58-1.47-17.4-2.28a21.18,21.18,0,0,0-13.06,2.39c-3.14,1.55-6,2.86-9.59,3.11-2.72.19-5.46-.12-8.19-.15a18.36,18.36,0,0,0-12,4.81C282.47,224.1,281.07,226.7,285.61,226.7Z" style="fill:#ebebeb"></path></g><g id="freepik--Floor--inject-1006"><rect x="34.18" y="374.97" width="431.64" height="8.59" style="fill:#a6a6a6"></rect><path d="M56.39,375a18.21,18.21,0,0,1,0,8.59,18.08,18.08,0,0,1,0-8.59Z" style="fill:#263238"></path><path d="M82.2,375a18.08,18.08,0,0,1,0,8.59,18.21,18.21,0,0,1,0-8.59Z" style="fill:#263238"></path><path d="M108,375a18.21,18.21,0,0,1,0,8.59,18.08,18.08,0,0,1,0-8.59Z" style="fill:#263238"></path><path d="M133.83,375a18.08,18.08,0,0,1,0,8.59,18.21,18.21,0,0,1,0-8.59Z" style="fill:#263238"></path><path d="M159.65,375a18.21,18.21,0,0,1,0,8.59,18.08,18.08,0,0,1,0-8.59Z" style="fill:#263238"></path><path d="M185.46,375a18.08,18.08,0,0,1,0,8.59,18.21,18.21,0,0,1,0-8.59Z" style="fill:#263238"></path><path d="M211.28,375a18.21,18.21,0,0,1,0,8.59,18.08,18.08,0,0,1,0-8.59Z" style="fill:#263238"></path><path d="M237.09,375a18.08,18.08,0,0,1,0,8.59,18.21,18.21,0,0,1,0-8.59Z" style="fill:#263238"></path><path d="M262.91,375a18.21,18.21,0,0,1,0,8.59,18.08,18.08,0,0,1,0-8.59Z" style="fill:#263238"></path><path d="M288.72,375a18.08,18.08,0,0,1,0,8.59,18.21,18.21,0,0,1,0-8.59Z" style="fill:#263238"></path><path d="M314.54,375a18.21,18.21,0,0,1,0,8.59,18.08,18.08,0,0,1,0-8.59Z" style="fill:#263238"></path><path d="M340.35,375a18.08,18.08,0,0,1,0,8.59,18.21,18.21,0,0,1,0-8.59Z" style="fill:#263238"></path><path d="M366.17,375a18.21,18.21,0,0,1,0,8.59,18.08,18.08,0,0,1,0-8.59Z" style="fill:#263238"></path><path d="M392,375a18.08,18.08,0,0,1,0,8.59,18.21,18.21,0,0,1,0-8.59Z" style="fill:#263238"></path><path d="M417.8,375a18.21,18.21,0,0,1,0,8.59,18.08,18.08,0,0,1,0-8.59Z" style="fill:#263238"></path><path d="M443.61,375a18.08,18.08,0,0,1,0,8.59,18.21,18.21,0,0,1,0-8.59Z" style="fill:#263238"></path><path d="M33.36,383.56c138.79-.61,294.49-.62,433.28,0-138.79.62-294.49.61-433.28,0Z" style="fill:#263238"></path><path d="M104.6,407c93.15-.62,197.65-.62,290.8,0-93.15.61-197.65.61-290.8,0Z" style="fill:#263238"></path><path d="M41.6,418.58c50.45-.65,107.05-.66,157.51,0-50.46.66-107.06.65-157.51,0Z" style="fill:#263238"></path><path d="M241.23,469.09c22.81-.67,45.77-.67,68.59,0-22.82.67-45.78.67-68.59,0Z" style="fill:#263238"></path><path d="M377.4,396.93c22.81-.67,45.77-.67,68.59,0-22.82.67-45.78.67-68.59,0Z" style="fill:#263238"></path><path d="M280.79,462.22c50.45-.65,107-.66,157.51,0-50.46.65-107.06.65-157.51,0Z" style="fill:#263238"></path></g><g id="freepik--Shadow--inject-1006"><path d="M387.57,444.25c0,4-61.59,7.21-137.57,7.21s-137.57-3.23-137.57-7.21S174,437,250,437,387.57,440.26,387.57,444.25Z" style="fill:#ebebeb"></path></g><g id="freepik--Plants--inject-1006"><path d="M140.93,375.07h-57s.13-8.49,5.73-10.74a7.65,7.65,0,0,1,8.94,2.14s2.28-15.59,12.72-15.59,15.44,13.45,15.44,13.45,2.34-4.06,8.13-3.31S140.93,375.07,140.93,375.07Z" style="fill:#455a64"></path><path d="M458.4,375.07s-1.75-8.16-5.24-9.41-5.61,2.4-5.61,2.4-.82-7.79-5.77-10.12-8.66,2.44-8.66,2.44-3.8-9.88-10.58-9.88S412.34,365,412.34,365s-4-4.31-8.11-1.88-4.1,12-4.1,12Z" style="fill:#37474f"></path><path d="M94.15,375.07H41.6s1.73-7.41,5.22-7.94,5.1,2.91,5.1,2.91-.16-10.33,6.35-12.09,12,7.37,12,7.37,4.08-5.21,9.64-4.87,7,8.93,7,8.93S91.92,366.4,94.15,375.07Z" style="fill:#37474f"></path><path d="M403.9,375.07H371.61s.07-4.81,3.25-6.09a4.33,4.33,0,0,1,5.06,1.22s1.29-8.84,7.21-8.84,8.74,7.62,8.74,7.62a4.54,4.54,0,0,1,4.61-1.87C403.77,367.54,403.9,375.07,403.9,375.07Z" style="fill:#455a64"></path></g><g id="freepik--Lines--inject-1006"><path d="M157.12,181.45c23.35-.67,46.86-.67,70.21,0-23.36.67-46.86.67-70.21,0Z" style="fill:#263238"></path><path d="M157.88,198.48c17.41-.67,35-.67,52.37,0-17.42.67-35,.67-52.37,0Z" style="fill:#263238"></path><path d="M225.5,109.12c14.42-.68,29-.68,43.39,0-14.43.69-29,.69-43.39,0Z" style="fill:#263238"></path><path d="M207.53,114.12a347.4,347.4,0,0,1,37.91,0,352.5,352.5,0,0,1-37.91,0Z" style="fill:#263238"></path><path d="M102.36,188.82c34.18-.67,72.18-.65,106.38,0-34.21.65-72.19.66-106.38,0Z" style="fill:#263238"></path></g><g id="freepik--Character--inject-1006"><path d="M284.83,112.7c-26.55,6.74-49.84,17.07-52.49,25-3.57,10.7.38,37.06,3.69,50.55,1,4,31.67-4.24,30.64-8.48-1.26-5.12-8.16-31.52-8.12-32,.07-1.13,26.32-18.38,32.34-22.91C300.94,117.27,296.62,109.7,284.83,112.7Z" style="fill:#ad6359"></path><path d="M290.89,124.83c-6,4.53-32.27,21.78-32.34,22.91,0,.56,6.87,26.93,8.12,32,1,4.24-29.66,12.44-30.63,8.48a197.18,197.18,0,0,1-3.7-20.06c-1.56-11.67-2.17-24,0-30.49,2.66-7.95,25.95-18.28,52.5-25,.36-.09.71-.18,1-.24C296.87,110.17,300.64,117.5,290.89,124.83Z" style="fill:#ad6359"></path><path d="M242,208.26c-3.72-5.68-6.78-20.27-6.16-24.08s25.25-9.82,28.34-7.36,14.13,22.55,13.47,29.45S245.89,214.14,242,208.26Z" style="fill:#ad6359"></path><path d="M276.57,195.46c-3.24-1.56-3.22,3.15-3.22,3.15s-1.66-6.77-5.63-7.08-3.59,5.4-3.58,5.81c-.09-.36-1.79-6.55-5.8-6.45-4.17.11-3,5.78-2.88,6.15-.2-.31-2.81-4.38-5.84-3.61-5.21,1.32,1.18,11.9,0,16.08,0,0-7.32-1.26-7.54-1.25,0,0,5.87,10.18,11.6,11.51a3.76,3.76,0,0,0,4.27-2s1.53,3.49,4.7,3.51c1.62,0,3.08-2.58,3.08-2.58s1.34,2.75,4.16,2.59c2.24-.11,3.35-2.7,3.35-2.7s2.52,2,4.77,1.18C282.53,218.06,283.51,198.8,276.57,195.46Z" style="fill:#ad6359"></path><path d="M273.44,218.24a.05.05,0,0,0,.1,0,33.46,33.46,0,0,0-.16-19.91c-.07-.2-.43-.18-.4.06A68.23,68.23,0,0,1,273.44,218.24Z" style="fill:#263238"></path><path d="M265.72,218.83c0,.07.11.09.14,0,1.89-6.46,1.81-14.85-1.53-21.7-.11-.24-.45-.33-.34,0C265.87,201.81,266.57,212.65,265.72,218.83Z" style="fill:#263238"></path><path d="M255.06,196.64c2.95,6.7,3.46,13.66,2.95,20.9,0,.09.13.09.15,0,1.21-3.47,1.06-8.11.63-11.71a19.22,19.22,0,0,0-3.5-9.3C255.21,196.43,255,196.5,255.06,196.64Z" style="fill:#263238"></path><path d="M273.35,198.61A22.75,22.75,0,0,0,271.7,195a7.37,7.37,0,0,0-2.6-2.84,2.47,2.47,0,0,0-1.72-.25,3.53,3.53,0,0,0-1.57.84,4.29,4.29,0,0,0-1.12,3.32l.16,2.94-1.17-2.71a12,12,0,0,0-2.08-3.3,4.31,4.31,0,0,0-3.13-1.64,2.47,2.47,0,0,0-2.5,1.83,7.42,7.42,0,0,0,0,3.74l.81,3.4L255,197.34a11.55,11.55,0,0,0-1.85-2.22,4.69,4.69,0,0,0-2.37-1.29,2.24,2.24,0,0,0-2.16.91,4.88,4.88,0,0,0-.52,2.69,39.24,39.24,0,0,0,.95,6c.21,1,.41,2,.57,3a7.22,7.22,0,0,1,0,3.07,7.91,7.91,0,0,0-.28-3c-.23-1-.51-2-.79-3a33,33,0,0,1-1.29-6.06,5.73,5.73,0,0,1,.52-3.26,3.15,3.15,0,0,1,3.13-1.45,5.69,5.69,0,0,1,3,1.51,12.26,12.26,0,0,1,2.09,2.45l-1.06.47a8.58,8.58,0,0,1-.1-4.42,3.56,3.56,0,0,1,1.38-2,4,4,0,0,1,2.3-.67,5.45,5.45,0,0,1,4,2.07,13.27,13.27,0,0,1,2.23,3.67l-1,.23a5.14,5.14,0,0,1,1.59-4,4.35,4.35,0,0,1,2-.94,3.13,3.13,0,0,1,2.18.42,7.56,7.56,0,0,1,2.59,3.23A17.79,17.79,0,0,1,273.35,198.61Z" style="fill:#263238"></path><path d="M266.7,179.91s24,15.94,13.16,22.26c-3.22,1.88-18.67,5.76-19.51,2.67-1.08-4,5.07-6.81,9.21-8,0,0-8.92-4.27-7.8-11.37A7.15,7.15,0,0,1,266.7,179.91Z" style="fill:#ad6359"></path><path d="M280.73,201.59a15.08,15.08,0,0,1-3.86,2.11,34.13,34.13,0,0,1-4.19,1.36,51.41,51.41,0,0,1-8.7,1.53,8.16,8.16,0,0,1-2.34-.14,3.06,3.06,0,0,1-1.21-.55,2.39,2.39,0,0,1-.52-.53,2.43,2.43,0,0,1-.29-.67,3.69,3.69,0,0,1,.27-2.55,7,7,0,0,1,1.46-1.92,13.24,13.24,0,0,1,3.86-2.4,30.8,30.8,0,0,1,4.21-1.45l-.07,1a18.39,18.39,0,0,1-2.83-1.85,16.16,16.16,0,0,1-2.42-2.33,11.59,11.59,0,0,1-1.74-2.85,8.83,8.83,0,0,1-.69-3.23,9.66,9.66,0,0,0,1,3.07,11.52,11.52,0,0,0,1.9,2.59,16,16,0,0,0,2.42,2.08,17.41,17.41,0,0,0,2.76,1.59l1.2.53-1.27.42a32.15,32.15,0,0,0-4,1.52,13,13,0,0,0-3.5,2.24c-1,.9-1.71,2.16-1.4,3.25s1.78,1.11,3.15,1.06a41.87,41.87,0,0,0,4.28-.42c1.44-.2,2.87-.41,4.29-.7A27.8,27.8,0,0,0,280.73,201.59Z" style="fill:#263238"></path><path d="M290.89,124.83c-6,4.53-32.27,21.78-32.34,22.91,0,.56,6.87,26.93,8.12,32a.3.3,0,0,1,0,.1l0,0s22.57,15,14,21.68c1.91,6.94.47,17-2.76,18.21-2.26.86-4.76-1.17-4.76-1.17s-1.12,2.58-3.37,2.69a4.58,4.58,0,0,1-4.06-2.42s-.06,0-.06-.07v0l0-.07s-1.45,2.59-3.07,2.59c-3.17,0-4.69-3.52-4.69-3.52a3.76,3.76,0,0,1-4.28,2c-5.55-1.29-11.23-10.89-11.58-11.49l0,0c-2.92-4.45-5.43-14.4-6.09-20.31a197.7,197.7,0,0,1-3.61-19.73l53.53-55.75C296.87,110.17,300.64,117.5,290.89,124.83Z" style="opacity:0.2"></path><path d="M67,310.89c-.14-2.6,18.64-70.87,21-73,.88-.83,56.65,16.06,56.65,16.06l-11.05,42-35-9.05s-18.36,22.29-21.21,24.37S67.13,313.5,67,310.89Z" style="fill:#ad6359"></path><path d="M67,310.89c-.15-2.61,18.63-70.88,21-73,.43-.39,17.92,4.6,28.38,7.64l-11.41,43-6.34-1.64s-18.36,22.28-21.21,24.37S67.13,313.49,67,310.89Z" style="fill:#ebebeb"></path><path d="M67,311.19c-.14-2.59,18.27-71.53,20.62-73.68.88-.81,11.22,2.06,22.56,6.18l-11.4,43.76s-18.57,22-21.4,24.05S67.09,313.79,67,311.19Z" style="fill:#ECEFF1"></path><path d="M69.94,311c3.41-11.32,16.09-57.29,18.61-68.74,0-.09,0-.11-.08,0-3.62,11.14-15.93,57.22-18.72,68.71C69.69,311.16,69.87,311.21,69.94,311Z" style="fill:#263238"></path><path d="M81,307.8a9.44,9.44,0,0,0-.91-7.58A9.19,9.19,0,0,0,74.68,296c-.07,0-.1.11,0,.14a11,11,0,0,1,6.19,11.62A.07.07,0,1,0,81,307.8Z" style="fill:#263238"></path><path d="M96.6,290.71c1.32-4.54,1.16-10.27-1.79-14.13-.12-.15-.33,0-.29.17A65.36,65.36,0,0,1,96,290.64.3.3,0,0,0,96.6,290.71Z" style="fill:#263238"></path><path d="M94.26,293.85c1.32-4.54,1.16-10.27-1.79-14.13-.12-.15-.33,0-.29.17a65.43,65.43,0,0,1,1.5,13.89A.3.3,0,0,0,94.26,293.85Z" style="fill:#263238"></path><path d="M91.92,297c1.32-4.55,1.16-10.28-1.79-14.13-.12-.15-.33,0-.29.17a65.34,65.34,0,0,1,1.5,13.88A.3.3,0,0,0,91.92,297Z" style="fill:#263238"></path><path d="M89.58,300.14c1.32-4.54,1.16-10.27-1.79-14.13-.12-.15-.33,0-.29.17A65.43,65.43,0,0,1,89,300.07.3.3,0,0,0,89.58,300.14Z" style="fill:#263238"></path><path d="M98.57,248.11c1.39-5.13-6.56-7.3-8-2.17S97.18,253.24,98.57,248.11Z" style="fill:#263238"></path><path d="M107.41,299c2.56-1.79,1.48-5.22-.11-7.18a24.83,24.83,0,0,0-8-6.3c-.43-.23-.86-.43-1.29-.61l-.56-.23h0l-.16,0-.46-.18a.12.12,0,0,0-.16.12.61.61,0,0,0-.57.34.46.46,0,0,0,0,.37c.37,1.06.73,2.17,1.09,3.28a5.36,5.36,0,0,0,.17.57,25.33,25.33,0,0,0,3.57,7.66C102.3,298.73,105,300.67,107.41,299Zm-8.14-8.26c-.35-.91-.68-1.83-1-2.74s-.57-1.54-.87-2.31a2.22,2.22,0,0,0-.13-.31c0-.09-.07-.2-.11-.29l.25.16,0,0c.54.37,1.06.74,1.61,1.09a46.64,46.64,0,0,1,4.18,3.15,26.89,26.89,0,0,1,2.62,2.5c1.22,1.4,3.8,6.93-1.28,6C101.75,297.53,100.11,293,99.27,290.73Z" style="fill:#263238"></path><path d="M96.77,285.52a.13.13,0,0,0,.19.06,1.14,1.14,0,0,0,.3-.21.21.21,0,0,0,.14-.08s0,0,0,0a3,3,0,0,0,.54-.37,16.65,16.65,0,0,0,1.87-1.48,24.63,24.63,0,0,0,5.77-7.34c1.13-2.26,1.41-5.84-1.46-7a2,2,0,0,0-.32-.1c-2.58-.82-4.67,1.56-5.63,3.69a24.13,24.13,0,0,0-1.67,7.16c-.18,1.71-.29,3.43-.48,5.09v0A.57.57,0,0,0,96.77,285.52ZM98,278.93c.33-2.39.93-7.2,3.55-8.31a3.76,3.76,0,0,1,1.92-.39c2.41.27,1.38,4.61.64,6a26.35,26.35,0,0,1-2,3,27.1,27.1,0,0,1-1.73,2.12c-1,1.14-2,2.2-3,3.31h0a1.9,1.9,0,0,1-.19.21,1.17,1.17,0,0,0,0-.26c0-.24.09-.45.12-.69C97.6,282.27,97.77,280.6,98,278.93Z" style="fill:#263238"></path><path d="M299.8,182s.23,34.9-6.6,42.44c0,0-42.95,79.91-67.23,84.63-20.57,4-115.84-17.47-115.84-17.47l11.55-45.17,59.42,5.35c13.65,1.23,28.87,4.58,29.31,3.93,11.43-17,27.92-36,27.28-37.86-.78-2.26-.5-10.16.6-14.42,1.79-7,5.83-21.43,5.83-21.43Z" style="fill:#263238"></path><path d="M253.82,208.57c0-3,4.6-18.89,6.88-26.57h-1c-2.34,7.83-6.85,23.42-6.85,26.57a78.85,78.85,0,0,0,1.11,10.63c-14.36,20.13-36,50.17-37.87,51.93-.87,0-6.14-.78-11.67-1.63-8.95-1.38-21.21-3.26-27-3.53-7.43-.35-42.89-3.48-59.42-5l-.25,1c16.47,1.48,52.16,4.62,59.62,5,5.76.27,18,2.15,26.91,3.53,7.48,1.15,10.76,1.63,11.83,1.63a1.35,1.35,0,0,0,.34,0c1.13-.34,24.58-33,38.46-52.47l.12-.17,0-.21A82.92,82.92,0,0,1,253.82,208.57Z" style="fill:#ECEFF1"></path><path d="M258.2,208.68c0-3.07,4.29-19.2,6.33-26.68h-1c-2.07,7.63-6.28,23.49-6.28,26.68a79.68,79.68,0,0,0,1.17,10.78c-15.43,21.67-38.67,54-40.6,55.85-.89,0-6.14-.78-11.67-1.64-8.95-1.37-21.21-3.25-27-3.52-7.87-.37-47.16-3.86-62.14-5.21l-.26,1c14.85,1.33,54.43,4.84,62.35,5.21,5.75.27,18,2.15,26.9,3.52,7.48,1.15,10.76,1.64,11.83,1.64a1.35,1.35,0,0,0,.34,0c1.14-.34,26.3-35.48,41.2-56.4l.12-.17,0-.2A82.72,82.72,0,0,1,258.2,208.68Z" style="fill:#ECEFF1"></path><path d="M293.2,224.44a539.31,539.31,0,0,1-28.47,46.33c-5.45-15.07-16.7-46.5-25.13-72.32,2-7.26,4.52-16.45,4.52-16.45H299.8S300,216.9,293.2,224.44Z" style="opacity:0.2"></path><path d="M432.26,419.42c-2.05,1.62-68.71,25.49-71.82,24.78C359.25,444,341,388.62,341,388.62l40.69-15.08,12.7,33.83s28.79,2.21,32.14,3.34S434.31,417.81,432.26,419.42Z" style="fill:#ad6359"></path><path d="M432.26,419.42c-2.05,1.62-68.71,25.49-71.82,24.79-.57-.12-6.53-17.31-10.07-27.62l41.73-15.36,2.3,6.13s28.79,2.22,32.13,3.35S434.31,417.82,432.26,419.42Z" style="fill:#ebebeb"></path><path d="M432.53,419.28c-2,1.61-69,26.17-72.14,25.48-1.18-.25-4.77-10.37-7.91-22l42.36-15.82s28.66,2.56,32,3.68S434.57,417.67,432.53,419.28Z" style="fill:#ECEFF1"></path><path d="M430.63,417c-11.22,3.71-56.13,19.75-66.94,24.28-.09,0-.07.1,0,.07,11.2-3.44,56-19.85,67-24.17C430.93,417.06,430.87,416.89,430.63,417Z" style="fill:#263238"></path><path d="M421.7,409.75a9.47,9.47,0,0,0-5.68,5.11,9.17,9.17,0,0,0-.36,6.83c0,.06.15,0,.13-.05a11,11,0,0,1,6-11.75A.07.07,0,0,0,421.7,409.75Z" style="fill:#263238"></path><path d="M398.73,406.79c-4.48,1.54-9.07,5-10.54,9.59-.05.18.2.26.31.14a65.83,65.83,0,0,1,10.5-9.21A.3.3,0,0,0,398.73,406.79Z" style="fill:#263238"></path><path d="M402.65,406.9c-4.48,1.53-9.08,5-10.54,9.59-.05.18.2.26.31.14a65.33,65.33,0,0,1,10.5-9.21A.3.3,0,0,0,402.65,406.9Z" style="fill:#263238"></path><path d="M406.56,407c-4.47,1.53-9.07,4.95-10.53,9.59-.06.18.2.25.31.14a64.85,64.85,0,0,1,10.5-9.21A.3.3,0,0,0,406.56,407Z" style="fill:#263238"></path><path d="M410.48,407.11c-4.47,1.54-9.07,5-10.53,9.59-.06.18.2.26.3.15a65.27,65.27,0,0,1,10.5-9.21A.3.3,0,0,0,410.48,407.11Z" style="fill:#263238"></path><path d="M362.73,429.67c-5,1.8-2.19,9.56,2.81,7.75S367.73,427.86,362.73,429.67Z" style="fill:#263238"></path><path d="M399.29,393.19c-2.93-1.07-5.12,1.79-5.81,4.21a24.79,24.79,0,0,0-.53,10.21c.06.48.15,1,.24,1.41.06.2.1.4.14.59,0,0,0,0,0,0l.06.15.12.48a.12.12,0,0,0,.19.06.6.6,0,0,0,.6.27.46.46,0,0,0,.32-.18c.66-.92,1.36-1.85,2.07-2.78.13-.15.24-.31.36-.47a25.69,25.69,0,0,0,4.22-7.32C402,397.52,402.05,394.19,399.29,393.19Zm-2.08,11.41c-.54.81-1.11,1.6-1.66,2.39s-.94,1.36-1.39,2a3.31,3.31,0,0,0-.18.29l-.17.26c0-.1,0-.2,0-.3s0,0,0,0c0-.65,0-1.29,0-1.94a43.53,43.53,0,0,1,.17-5.23,26.89,26.89,0,0,1,.54-3.58c.44-1.82,3.48-7.11,5.66-2.42C401.34,398.66,398.56,402.63,397.21,404.6Z" style="fill:#263238"></path><path d="M394.38,409.64a.14.14,0,0,0-.05-.2l-.35-.12a.3.3,0,0,0-.14-.07s0,0,0,0a3,3,0,0,0-.61-.23,15.29,15.29,0,0,0-2.28-.68,24.6,24.6,0,0,0-9.32-.5c-2.51.38-5.59,2.2-4.9,5.23a1.6,1.6,0,0,0,.1.31c.81,2.58,4,2.93,6.26,2.49a24.35,24.35,0,0,0,6.82-2.75c1.49-.84,3-1.73,4.43-2.54h0A.57.57,0,0,0,394.38,409.64Zm-6.1,2.78c-2.14,1.1-6.42,3.38-8.84,1.87A3.77,3.77,0,0,1,378,413c-1.16-2.13,3-3.79,4.52-4a25.9,25.9,0,0,1,3.63-.11c.92,0,1.82.09,2.73.19,1.48.15,3,.37,4.43.55h0c.09,0,.19,0,.28,0a1.08,1.08,0,0,0-.24.12l-.64.3C391.25,410.83,389.78,411.65,388.28,412.42Z" style="fill:#263238"></path><path d="M393.48,397.4,347.06,413s-29.8-65.16-36.38-100.66c-1.94-10.48-39.44-66.88-54.33-83.09-6.75-7.35-10.2-14.82-11.59-22-1.25-6.5-.64-25.35-.64-25.35l62.56,0,.27,19.52c2.13,3.44,32.27,47.84,49.47,88.49C361.88,302.93,393.48,397.4,393.48,397.4Z" style="fill:#263238"></path><path d="M295.7,192.26A52.16,52.16,0,0,1,307,201.52a51.34,51.34,0,0,1-11.25-9.26Z" style="fill:#37474f"></path><path d="M364.72,407.08l-1,.33c-6-13.85-24.11-56-28.29-70.66-1.21-4.22-2.71-10.25-4.17-16.07-2.27-9.14-4.63-18.58-5.68-20.4-1.25-2.17-10.85-17.2-21-33.11-15.11-23.67-25-39.25-25.32-40-.13-.34-1.51-2.16-3-4.08-4.35-5.72-11.62-15.29-12.3-19.82A139,139,0,0,1,262.92,182h1a139.49,139.49,0,0,0,1.11,21.1c.64,4.28,8.1,14.09,12.1,19.37a35,35,0,0,1,3.11,4.34c.43,1,13.6,21.63,25.22,39.84,10.16,15.92,19.76,31,21,33.15,1.12,1.94,3.39,11,5.79,20.65,1.45,5.82,3,11.84,4.15,16C340.61,351.11,358.74,393.32,364.72,407.08Z" style="fill:#ECEFF1"></path><path d="M360.35,408.55l-1,.32C353.48,395.22,335.23,352.75,331,338c-1.21-4.22-2.71-10.25-4.17-16.08-2.27-9.13-4.63-18.56-5.68-20.38-1.25-2.17-10.85-17.2-21-33.12-15.11-23.67-25-39.25-25.32-40-.13-.34-1.5-2.15-3-4.07-4.35-5.72-11.62-15.3-12.3-19.83a144.56,144.56,0,0,1-1.1-22.51h1a142.29,142.29,0,0,0,1.08,22.36c.64,4.28,8.1,14.1,12.1,19.37a36.74,36.74,0,0,1,3.11,4.34c.42,1,13.6,21.63,25.22,39.84,10.16,15.93,19.76,31,21,33.15,1.12,1.95,3.38,11,5.78,20.64,1.45,5.83,2.95,11.85,4.16,16.06C336.18,352.45,354.47,395,360.35,408.55Z" style="fill:#ECEFF1"></path><path d="M303.58,110.42a5.58,5.58,0,0,0,7.63-6.65,5.11,5.11,0,0,0,6.05-1.64,4.9,4.9,0,0,0-.82-6.47s0,0,0,0a5.05,5.05,0,0,1,.52,6.2,4.54,4.54,0,0,1-4.73,1.69A6.17,6.17,0,0,0,316.4,101a4.79,4.79,0,0,0,0-5.3,7,7,0,0,0,3.35-5.36,4.78,4.78,0,0,0-2.65-4.51,5.35,5.35,0,0,0-3.5-9.18,4.49,4.49,0,0,0-2.26-7.21,3,3,0,0,0-.21-3.26,5.08,5.08,0,0,0-3.41-1.85,3.62,3.62,0,0,0-1.79-3,3.28,3.28,0,0,0-4.15.89c-1.5-1.55-3.35-3-5.58-3.17a4.67,4.67,0,0,0-4.59,2.39,6.49,6.49,0,0,0-9.56,1.7,4.58,4.58,0,0,0-4.5.7,6.78,6.78,0,0,0-2.08,2.51,3.42,3.42,0,0,0-3.77,1.29,4.53,4.53,0,0,0-.56,3.83,2.65,2.65,0,0,1-.6,1,5.93,5.93,0,0,0-1.58,5.38,4.06,4.06,0,0,0-1.29,5.94,4.54,4.54,0,0,0,.14,6.38,6.61,6.61,0,0,0-1.37,5.35,3.83,3.83,0,0,0,2.7,3.24,2.32,2.32,0,0,0,.82,3,5.37,5.37,0,0,0,1.12.63,4.82,4.82,0,0,1,1.48.71c.39.37.43,1,.61,1.46a5,5,0,0,0,.5,1,6,6,0,0,0,7.2,2.23c.71,1.84,2.72,2.59,4.59,2.68a11.07,11.07,0,0,0,1.82-.13,2.67,2.67,0,0,1,1.58.15c.33.16.61.38.93.54a4.17,4.17,0,0,0,3.32-.12C295.14,115.72,301.5,114.77,303.58,110.42ZM271.67,68.49a3.62,3.62,0,0,1,3.69-1.95l-.07.18s-.49.08-.72.15a4.36,4.36,0,0,0-1.2.55,4.73,4.73,0,0,0-1.77,2.09,4.85,4.85,0,0,0-.31,1.19l0,.15A4.44,4.44,0,0,1,271.67,68.49Zm34.27-5.9a3.49,3.49,0,0,0-4-.1l-.08-.08c1.09-1,2.37-1.62,3.87-.77a3,3,0,0,1,1.49,2.63h0A3.79,3.79,0,0,0,305.94,62.59Zm-12.66,48.22.05,0A6.26,6.26,0,0,0,302,111.9C299.25,114.26,295.52,114.72,293.28,110.81Z" style="fill:#263238"></path><path d="M235.74,194.1c.13.23,70.87,5.06,71.7,4.43,1.18-.89,2.2-62.84-6.65-81.46-2.22-4.66-11.89-9.08-20.33-1.85C256,136.18,235.26,193.27,235.74,194.1Z" style="fill:#ECEFF1"></path><path d="M296.62,126.48c-3.59.44-10.43-4.49-12.37-9.77-.13-.36.91-3.81,2-8.07.64-2.58,1.29-5.47,1.69-8.15.08-.55,16.2,6.6,16.2,6.6a43.23,43.23,0,0,0-3.16,10,6,6,0,0,0-.05,1.11v.19C300.93,120.58,300.47,126,296.62,126.48Z" style="fill:#ad6359"></path><path d="M304.11,107.09a43.23,43.23,0,0,0-3.16,10c0,.22,0,.44-.05.65-7.8-.47-11.83-7.25-13.84-12.8.33-1.51.63-3,.85-4.5C288,99.93,304.11,107.09,304.11,107.09Z" style="fill:#263238"></path><path d="M286.55,77.62c-2.76,5.76-2.23,23.69,1.48,28.23,5.37,6.59,15.48,8.68,21.41,1.92,5.75-6.55,4.64-29.91.38-34.17C303.54,67.32,290.63,69.11,286.55,77.62Z" style="fill:#ad6359"></path><path d="M301.48,91.08s-.09.06-.09.11c.12,1.21.06,2.6-1,3.08a0,0,0,0,0,0,.07C301.72,94.06,301.78,92.2,301.48,91.08Z" style="fill:#263238"></path><path d="M300.31,89.9c-1.94,0-1.83,3.88,0,3.89S302,89.91,300.31,89.9Z" style="fill:#263238"></path><path d="M308.61,90.62s.1.06.1.11c0,1.21.2,2.59,1.3,3a0,0,0,0,1,0,.07C308.66,93.61,308.42,91.77,308.61,90.62Z" style="fill:#263238"></path><path d="M309.65,89.33c1.94-.21,2.21,3.69.41,3.88S308,89.5,309.65,89.33Z" style="fill:#263238"></path><path d="M299.13,88a16,16,0,0,0,1.55-.4,2.53,2.53,0,0,0,1.51-.7.81.81,0,0,0,0-1,2,2,0,0,0-2-.4,3,3,0,0,0-1.85,1.13A.89.89,0,0,0,299.13,88Z" style="fill:#263238"></path><path d="M311,87.12c-.54-.07-1-.23-1.56-.35a2.64,2.64,0,0,1-1.52-.67.83.83,0,0,1,0-1,2,2,0,0,1,2-.44,3,3,0,0,1,1.87,1.09A.88.88,0,0,1,311,87.12Z" style="fill:#263238"></path><path d="M300.69,102.32c.3.28.6.66,1,.68a3.1,3.1,0,0,0,1.29-.34s.08,0,.05.06a1.63,1.63,0,0,1-1.51.7,1.27,1.27,0,0,1-1-1C300.56,102.31,300.65,102.28,300.69,102.32Z" style="fill:#263238"></path><path d="M301.85,98.67a4.13,4.13,0,0,0,2.8,1.75,5.24,5.24,0,0,0,1.48,0,1.35,1.35,0,0,0,.29,0,1.47,1.47,0,0,0,.26-.05.29.29,0,0,0,.23-.27h0a.57.57,0,0,0,0-.13h0v-.11c0-.93-.13-2.34-.13-2.34.34.16,2.1.89,2.06.4a61.72,61.72,0,0,0-2-12.4.11.11,0,0,0-.22,0c.2,3.87,1.07,7.68,1.32,11.57a7,7,0,0,0-1.95-.53c-.14,0,.3,2.72.27,3.14a.1.1,0,0,1,0,0,5.71,5.71,0,0,1-4.3-1.19C301.87,98.49,301.78,98.58,301.85,98.67Z" style="fill:#263238"></path><path d="M305.57,100a4.91,4.91,0,0,1-1.91,1.57,2.21,2.21,0,0,1-1.33.12c-1-.22-1-1.11-.87-1.87a5.38,5.38,0,0,1,.4-1.17A6.39,6.39,0,0,0,305.57,100Z" style="fill:#263238"></path><path d="M303.66,101.56a2.21,2.21,0,0,1-1.33.12c-1-.22-1-1.11-.87-1.87A2.27,2.27,0,0,1,303.66,101.56Z" style="fill:#ff99ba"></path><path d="M313.19,80.22c-.46-1.51-1.14-1.85-1.14-1.85a7.65,7.65,0,0,0-1.42-4.09,6.06,6.06,0,0,0-3.36-2.82,9.09,9.09,0,0,0-4.87-2.56,11.85,11.85,0,0,0-3.94-.05c-.87.31-1.76-.17-2.65-.23a6,6,0,0,0-2.43.37,6.38,6.38,0,0,0-1.81,1,12.41,12.41,0,0,0-.9.88,2.84,2.84,0,0,1-1.56.83,5.08,5.08,0,0,0-3.23,2.63,6.28,6.28,0,0,0-.71,2.58c-.09,1.13-1.29,1.61-1.78,2.56a4.24,4.24,0,0,0,.61,4.65,4.53,4.53,0,0,0-1.45,5.21,4.43,4.43,0,0,0,3.07,2.57,3.62,3.62,0,0,0,.73.14c2.62.55,5.34-2.25,4.51-5.42v0a7.17,7.17,0,0,0,3.72-2.42,7.9,7.9,0,0,0,1.54-4.71,5.64,5.64,0,0,0,8.66-3.88c.9,1.08,3.54,2.94,4.8,2.6.39,3.84,2.83,5.37,3.5,5.37A4.84,4.84,0,0,0,313.19,80.22ZM289,91.05c.79-.76,1.42-1.87,1.79-4.25A4.28,4.28,0,0,1,289,91.05ZM300,79.82a6.6,6.6,0,0,0,4.5-4.12A5.24,5.24,0,0,1,300,79.82Z" style="fill:#263238"></path><path d="M288.11,92.4s-3.21-6.18-6-5.1-.86,9.66,2,11.18a3.08,3.08,0,0,0,4.32-1.1Z" style="fill:#ad6359"></path><path d="M282.75,89.75s-.06,0,0,.08c2,1.13,2.85,3.24,3.37,5.37a1.72,1.72,0,0,0-2.48-.8c-.06,0,0,.13.05.13a1.9,1.9,0,0,1,2,.93,9.38,9.38,0,0,1,.77,1.81c.07.2.43.14.38-.09a.11.11,0,0,0,0-.05C287.21,94.45,285.61,90.4,282.75,89.75Z" style="fill:#263238"></path><path d="M282.85,118c3.92,1.65,5,7.8,3.49,14.92-1.85,8.47-12.18,17.62-17,15.38-6.66-3.06-1-15.91,2.46-22.21C275.06,120.1,280.1,116.88,282.85,118Z" style="fill:#ad6359"></path><path d="M276.64,128.93c3.27,26.14,11.8,50.63,19.2,53.29,10.61,3.81,32.13,3.67,45.82,1.35,4-.69-1.91-31.9-6.21-31.17-5.2.87-27.18,4.48-27.71,4.41-1.12-.16-15.83-25.54-19.3-32.07C282.08,112.77,275.29,118.13,276.64,128.93Z" style="fill:#ad6359"></path><path d="M375.68,148.25c1.63,2.95-.78,5.49-.78,5.49a7.21,7.21,0,0,1,3.22,3.7c.94,2.82-3.07,5.53-3.07,5.53a9,9,0,0,1,2.77,4.44c.62,2.79-3,6.1-3,6.1a7.77,7.77,0,0,1,0,5.44c-2,4.61-9.51,5.81-14.3,6.62s-19.15-1.38-21.93-1.52l-5.46-30.73s20.46-9.75,26.23-9.9C364.16,143.29,373.84,144.93,375.68,148.25Z" style="fill:#ad6359"></path><path d="M374.6,153.29c-5.2-1.11-10.45-.61-15.71-.42a.09.09,0,1,0,0,.18c5.23-.25,10.45.53,15.68.49A.13.13,0,0,0,374.6,153.29Z" style="fill:#263238"></path><path d="M374.88,162.58a14.23,14.23,0,0,0-3.63.07c-1.28.11-2.56.25-3.83.4-2.55.31-5.1.67-7.64,1.12-.11,0-.11.19,0,.18,2.55-.31,5.1-.57,7.65-.76l3.84-.27a16.7,16.7,0,0,0,3.61-.38A.19.19,0,0,0,374.88,162.58Z" style="fill:#263238"></path><path d="M374.68,173.52a9.71,9.71,0,0,0-3.26.23c-1.16.17-2.32.33-3.49.48-2.32.3-4.64.6-7,.82-.11,0-.11.2,0,.19,2.37-.22,4.75-.4,7.12-.63l3.49-.37a9.21,9.21,0,0,0,3.13-.6A.07.07,0,0,0,374.68,173.52Z" style="fill:#263238"></path><path d="M277.21,136.73c.16.36.31.72.46,1.08-.33-1.85-.59-3.7-.77-5.57a0,0,0,0,1,.07,0c.52,2.08,1,4.15,1.39,6.25.19,1,.75,4.67.88,5.88,0,.14-.24.29-.26.16-.22-1.07-.94-4.65-1.11-5.58a8.1,8.1,0,0,1-.39-.78c-.18-.44-.36-.88-.51-1.33-.3-.9-.56-1.81-.84-2.72,0,0,0,0,0,0C276.46,135,276.83,135.86,277.21,136.73Z" style="fill:#263238"></path></g></svg>