<svg xmlns="http://www.w3.org/2000/svg" viewBox="0 0 500 500"><g id="freepik--background-complete--inject-840"><rect width="500" height="500" transform="translate(500 500) rotate(180)" style="fill:#ebebeb;opacity:0.30000000000000004"></rect><g style="opacity:0.1"><polygon points="0.08 208.52 0.08 500 500 500 500 253.76 427.14 253.76 427.14 370.66 406.17 370.66 406.17 275.64 340.56 275.64 340.56 203.44 295.96 203.44 295.96 162.34 244.36 162.34 244.36 344.68 226.99 344.68 226.99 268.57 142 268.57 142 377.49 130.25 377.49 130.25 288.6 44.05 288.6 44.05 208.52 0.08 208.52"></polygon></g></g><g id="freepik--Window--inject-840"><g style="opacity:0.4"><polygon points="305.7 0 0 305.71 0 181.55 181.54 0 305.7 0" style="fill:#ebebeb"></polygon><polygon points="500 169.78 500 226.21 226.21 500 169.77 500 500 169.78" style="fill:#ebebeb"></polygon><polygon points="500 279.99 500 293.47 293.46 500 279.99 500 500 279.99" style="fill:#ebebeb"></polygon></g><rect y="380.8" width="500" height="6.1" style="fill:#37474f"></rect><rect y="28.31" width="500" height="6.1" style="fill:#37474f"></rect><rect x="-174.03" y="243.9" width="500" height="12.21" transform="translate(325.97 174.03) rotate(90)" style="fill:#37474f"></rect><rect x="174.03" y="243.9" width="500" height="12.21" transform="translate(674.03 -174.03) rotate(90)" style="fill:#37474f"></rect></g><g id="freepik--Character--inject-840"><path d="M185.74,361.44s-7.84,44.81-7.85,44.85c-2.75,9.62-5,18.1-5.75,22.6,0,0,0,0,0,.07-.28,1.7-.35,2.81-.14,3.17,0,0,0,.06,0,.08,2.31,2.76,78.55,27,81.49,27s3-8.44.83-11.75-27.26-25.64-27.26-25.64l6.55-47.19Z" style="fill:#f7a9a0"></path><path d="M253.52,459.17c-2.94.05-79.18-24.2-81.49-27,0,0,0,0,0-.07a7.15,7.15,0,0,1,.14-3.18.15.15,0,0,1,0-.07c.75-4.5,3-13,5.75-22.61l1.77-10.08,48.84,15.44-1.41,10.14s25,22.33,27.26,25.64S256.47,459.13,253.52,459.17Z" style="fill:#fff"></path><path d="M231.79,423.17c-4.87-2.32-11.35-3.21-16.24-.6-.19.1-.05.37.13.36a74.48,74.48,0,0,1,15.92.88A.34.34,0,0,0,231.79,423.17Z" style="fill:#263238"></path><path d="M234.9,426.39c-4.88-2.33-11.36-3.21-16.25-.6-.19.1,0,.37.14.36a74.39,74.39,0,0,1,15.91.88A.34.34,0,0,0,234.9,426.39Z" style="fill:#263238"></path><path d="M238,429.61c-4.87-2.33-11.35-3.21-16.24-.61-.19.11,0,.37.13.37a74.48,74.48,0,0,1,15.92.88A.34.34,0,0,0,238,429.61Z" style="fill:#263238"></path><path d="M253.52,459.17c-2.94.05-79.57-22.78-81.88-25.55-.9-1,2.38-13.76,6.26-27.33l.12-.43L227.38,421l-.29.82s25,22.34,27.26,25.65S256.47,459.13,253.52,459.17Z" style="fill:#ECEFF1"></path><path d="M253.6,455.94c-12.75-4.4-64.59-21-77.53-24.34-.1,0-.13,0,0,.08,12.54,4.64,64.51,20.77,77.48,24.47C253.81,456.23,253.87,456,253.6,455.94Z" style="fill:#263238"></path><path d="M223.42,419.91l20.3,36.78a96.82,96.82,0,0,0,9.81,2.48c2.94,0,3-8.44.82-11.74s-27.25-25.65-27.25-25.65l.28-.82-3.76-1.16Z" style="opacity:0.1"></path><path d="M175.48,403.64l52.88,12.74s29.11-99.54,29.05-131c0-24.22-55.89-21.2-55.89-21.2a68.6,68.6,0,0,1-2.61-12.11l-47.71.43s-16.19,42-2.08,57.16c8.34,9,46.95,7.7,46.95,7.7Z" style="fill:#37474f"></path><path d="M226.7,402.34c-11.17-3.32-22.57-5.92-34-8.26-3.23-.67-6.46-1.3-9.71-1.86-.11,0-.14.15,0,.18,11.18,3.25,22.56,6,34,8.3,3.23.66,6.46,1.29,9.71,1.83A.1.1,0,0,0,226.7,402.34Z" style="fill:#263238"></path><path d="M257.41,285.42c0,14.75-6.38,44.51-13.17,71.95L191.38,337.1l4.69-19.7s-38.6,1.25-46.95-7.7c-14.11-15.15,2.08-57.16,2.08-57.16l47.71-.43a68.6,68.6,0,0,0,2.61,12.11S257.36,261.19,257.41,285.42Z" style="opacity:0.1"></path><path d="M251.65,370.94s-7.83,44.81-7.84,44.84c-2.76,9.62-5,18.11-5.75,22.6a.11.11,0,0,0,0,.08c-.29,1.69-.36,2.81-.14,3.17a.2.2,0,0,0,0,.08c2.31,2.76,78.54,27,81.49,27s3-8.44.82-11.74S293,431.28,293,431.28l6.54-47.19Z" style="fill:#f7a9a0"></path><path d="M319.44,468.67c-2.95.05-79.18-24.21-81.5-27l0-.08c-.21-.36-.14-1.48.13-3.18,0,0,0-.05,0-.07.76-4.49,3-13,5.76-22.59,0,0,.66-3.82,1.61-9.21L294.28,422,293,431.28s25,22.34,27.26,25.64S322.39,468.63,319.44,468.67Z" style="fill:#fff"></path><path d="M297.71,432.67c-4.88-2.33-11.36-3.21-16.25-.6-.19.1,0,.37.14.36a74.39,74.39,0,0,1,15.91.88A.34.34,0,0,0,297.71,432.67Z" style="fill:#263238"></path><path d="M300.81,435.89c-4.87-2.33-11.35-3.21-16.24-.61-.19.1-.05.37.13.36a75.14,75.14,0,0,1,15.92.89A.34.34,0,0,0,300.81,435.89Z" style="fill:#263238"></path><path d="M303.92,439.1c-4.87-2.32-11.36-3.21-16.25-.6-.19.1,0,.37.14.36a74.39,74.39,0,0,1,15.91.89A.34.34,0,0,0,303.92,439.1Z" style="fill:#263238"></path><path d="M319.44,468.67c-2.95.05-79.57-22.78-81.88-25.55-.9-1,2.37-13.76,6.25-27.34,0-.14.08-.28.13-.42l49.35,15.09-.28.83s25,22.33,27.25,25.65S322.38,468.63,319.44,468.67Z" style="fill:#ECEFF1"></path><path d="M319.52,465.44c-12.75-4.41-64.6-21-77.53-24.34-.11,0-.13,0,0,.08,12.54,4.64,64.52,20.77,77.49,24.47C319.72,465.73,319.79,465.53,319.52,465.44Z" style="fill:#263238"></path><path d="M152.54,311.91c11.6,4.53,24,1.52,24,1.52,34.39,1.71,83.45,1.27,83.91,3.46,2.43,11.47-18.78,95.25-18.78,95.25l52.76,11.68S321.11,301.32,311,278c-1.61-3.69-8.61-9.27-15.87-10.93-21.8-5-71.32-3.68-71.32-3.68l-6.44-11.49-66.13.64S131.57,303.72,152.54,311.91Z" style="fill:#37474f"></path><path d="M292.94,410.65c-11.26-3-22.73-5.29-34.2-7.32-3.24-.57-6.49-1.11-9.75-1.59a.1.1,0,0,0,0,.19c11.27,2.94,22.72,5.33,34.19,7.35,3.24.57,6.5,1.11,9.76,1.56A.1.1,0,0,0,292.94,410.65Z" style="fill:#263238"></path><path d="M199.71,312.69a64.15,64.15,0,0,1-10.63.87,104.86,104.86,0,0,1-10.62-1c-3.38-.39-6.83.06-10.22.1a35.44,35.44,0,0,1-10.25-1.2c-.15-.05-.24.19-.08.24a62,62,0,0,0,10,2.42c3.52.47,7,0,10.57.25s7.19.79,10.85.58a38.15,38.15,0,0,0,10.42-2C199.92,312.87,199.84,312.67,199.71,312.69Z" style="fill:#263238"></path><rect x="275.12" y="126.51" width="3.8" height="186.4" transform="translate(150.6 -110.49) rotate(30.63)" style="fill:#263238"></rect><polygon points="320.94 152.22 315.08 148.76 322.67 134.2 330.05 138.57 320.94 152.22" style="fill:#ECEFF1"></polygon><polygon points="331.4 143.06 318.08 135.18 317.97 131.41 334.76 141.36 331.4 143.06" style="fill:#ECEFF1"></polygon><rect x="295.62" y="130.87" width="64.52" height="5.93" transform="translate(113.94 -148.38) rotate(30.63)" style="fill:#ECEFF1"></rect><rect x="319.12" y="50.96" width="64.52" height="86.35" transform="translate(96.99 -165.9) rotate(30.63)" style="fill:#ECEFF1"></rect><rect x="319.12" y="50.96" width="64.52" height="86.35" transform="translate(96.99 -165.9) rotate(30.63)" style="fill:#fff;opacity:0.8"></rect><rect x="297.84" y="128.69" width="64.52" height="2.79" transform="translate(112.34 -150.03) rotate(30.63)" style="fill:#263238"></rect><path d="M203.93,186.53c-3.26.25-10.24-5.63-13.05-10.69-.19-.34.32-4,.73-8.5.24-2.73.44-5.77.42-8.56l17.51,4.14a44.44,44.44,0,0,0-1.62,10.71,5.84,5.84,0,0,0,.13,1.14c0,.06,0,.12,0,.19C208.44,177.13,209,186.14,203.93,186.53Z" style="fill:#f7a9a0"></path><path d="M208.07,175a11.1,11.1,0,0,1-1.79.11c-9.71-.15-12.46-11.9-13.14-16l16.4,3.87a44.44,44.44,0,0,0-1.62,10.71,5.84,5.84,0,0,0,.13,1.14C208.05,174.83,208.07,174.89,208.07,175Z" style="fill:#263238"></path><path d="M187.34,138.29c-1.4,6.32,3.25,23.89,7.95,27.52,6.81,5.27,17.27,5,21.57-3,4.17-7.78-2.3-30.57-7.48-33.8C201.74,124.22,189.41,129,187.34,138.29Z" style="fill:#f7a9a0"></path><path d="M217.93,151.31c.52,4.64.31,8.89-1.07,11.48-4.29,8-14.76,8.29-21.56,3-2-1.53-4-5.54-5.48-10.14l3.21-7s2.45,5.33,5,6.55c3.52,1.69,10.51,1.46,12.23-2.35l2.12-.37S216.43,154.8,217.93,151.31Z" style="fill:#263238;opacity:0.30000000000000004"></path><path d="M188.71,153c2.73.38,3.9-2.06,4.35-3.79s-1.48-11.65-.53-14.29,3.5-4.36,5.75-4,5.43,2.81,7,2.45,1.49-3.88,2.6-4c2.45-.33,5.69,5.74,6.66,8.09,0,0-1.56-11.74-13.35-11.07-11.57.65-14.19,8.87-14.72,12.45C185.46,145.7,188.71,153,188.71,153Z" style="fill:#263238"></path><path d="M193,152.67s-4.59-5.36-7.06-3.67,1.38,9.74,4.56,10.58a3.14,3.14,0,0,0,4-2.09Z" style="fill:#f7a9a0"></path><path d="M187.1,151.28a0,0,0,0,0,0,.08c2.24.66,3.57,2.55,4.56,4.53a1.73,1.73,0,0,0-2.62-.21c-.05,0,0,.12.07.11a1.92,1.92,0,0,1,2.18.46,9.12,9.12,0,0,1,1.17,1.6c.12.19.46.05.37-.16l0-.05C192.58,154.89,190.07,151.27,187.1,151.28Z" style="fill:#263238"></path><path d="M205.08,147.59s-.08.08-.07.12c.29,1.2.41,2.61-.59,3.23,0,0,0,.08,0,.06C205.73,150.55,205.54,148.67,205.08,147.59Z" style="fill:#263238"></path><path d="M203.76,146.56c-2,.25-1.32,4.15.49,3.91S205.4,146.35,203.76,146.56Z" style="fill:#263238"></path><path d="M211.9,146.44c0-.05.1,0,.11.09.16,1.22.55,2.58,1.71,2.8,0,0,0,.07,0,.07C212.36,149.43,211.86,147.62,211.9,146.44Z" style="fill:#263238"></path><path d="M212.77,145c1.92-.47,2.71,3.41.94,3.84S211.16,145.39,212.77,145Z" style="fill:#263238"></path><path d="M201.92,145a15,15,0,0,0,1.42-.78,2.62,2.62,0,0,0,1.3-1.08.83.83,0,0,0-.29-1,2.06,2.06,0,0,0-2.1.13,3.08,3.08,0,0,0-1.52,1.58A.9.9,0,0,0,201.92,145Z" style="fill:#263238"></path><path d="M214,142.79a14.55,14.55,0,0,1-1.62-.15,2.63,2.63,0,0,1-1.62-.46.83.83,0,0,1-.12-1,2,2,0,0,1,2-.72,3,3,0,0,1,2,.84A.89.89,0,0,1,214,142.79Z" style="fill:#263238"></path><path d="M205.5,158.75c.34.23.69.57,1.13.54a3.36,3.36,0,0,0,1.25-.52s.08,0,.06,0a1.61,1.61,0,0,1-1.42.91,1.3,1.3,0,0,1-1.13-.91C205.36,158.75,205.45,158.71,205.5,158.75Z" style="fill:#263238"></path><path d="M206.17,154.92a4.16,4.16,0,0,0,3.05,1.38,5.38,5.38,0,0,0,1.49-.18A1.29,1.29,0,0,0,211,156l.26-.08a.32.32,0,0,0,.19-.31h0a.24.24,0,0,0,0-.12h0l0-.11c-.13-.93-.45-2.33-.45-2.33.37.11,2.23.61,2.12.12A62.47,62.47,0,0,0,209.41,141a.12.12,0,0,0-.22.07c.72,3.86,2.11,7.57,2.9,11.44a7.3,7.3,0,0,0-2-.27c-.13.06.67,2.69.69,3.12,0,0,0,0,0,0a5.75,5.75,0,0,1-4.47-.62C206.17,154.74,206.09,154.84,206.17,154.92Z" style="fill:#263238"></path><path d="M210.09,155.74a5,5,0,0,1-1.71,1.84,2.27,2.27,0,0,1-1.32.3c-1-.1-1.17-1-1.12-1.76a5.25,5.25,0,0,1,.24-1.23A6.43,6.43,0,0,0,210.09,155.74Z" style="fill:#263238"></path><path d="M208.38,157.58a2.27,2.27,0,0,1-1.32.3c-1-.1-1.17-1-1.12-1.76A2.29,2.29,0,0,1,208.38,157.58Z" style="fill:#ff98b9"></path><path d="M215.63,134.36l-5.1,2a84.83,84.83,0,0,0-9.42,2.9,75.52,75.52,0,0,0-10.38,4.93l-5.49,2.17a15.26,15.26,0,0,1-.52-1.69c-1.08-4.18-2.54-15,9.48-19.78s18.53,4.15,20.65,7.9A14.85,14.85,0,0,1,215.63,134.36Z" style="fill:#ECEFF1"></path><g style="opacity:0.1"><path d="M209.15,135.43l-2.56,1-6.78-12.87a13.62,13.62,0,0,1,2,0A30.12,30.12,0,0,1,209.15,135.43Z"></path></g><path d="M200.9,138.37l7.46-2.52s-3.37-9.09-8.89-12.92c-.47-.32-6.16,1.39-7.68,2.12a1.41,1.41,0,0,0-.66,1.37C194,124.91,200,135.71,200.9,138.37Z" style="fill:#ECEFF1"></path><path d="M202.09,138l-1.19.41c-.89-2.67-6.89-13.46-9.77-12a1.64,1.64,0,0,1,.27-1.06c.66-.43,2.92.26,5,2.88A41.15,41.15,0,0,1,202.09,138Z" style="fill:#fff;opacity:0.5"></path><path d="M184.07,147.1a.72.72,0,0,0,1.11.35c2.25-1.5,20-11,31.3-12.15.48-.05.63-1.84-.37-1.84-3.11,0-9.72,1.61-16.1,4.1a75.84,75.84,0,0,0-15.34,7.88A1.33,1.33,0,0,0,184.07,147.1Z" style="fill:#ECEFF1"></path><path d="M184.67,145.44c2.59-2.19,5.25-3.68,10.56-6.26a21.85,21.85,0,0,1,1.88-1.9c.64-.52,11.49-4.72,15.46-4.8.23,0,1.06,1.12,1.06,1.12a7.93,7.93,0,0,1,2.48-.14s-2,.07-8,1.72a117.81,117.81,0,0,0-18.82,7.61A42.05,42.05,0,0,0,184.67,145.44Z" style="fill:#ECEFF1"></path><path d="M213.11,133a.64.64,0,0,0-.45-.16,28.11,28.11,0,0,0-6,1.32,81.59,81.59,0,0,0-9.15,3.37,21.15,21.15,0,0,0-2.2,2,80,80,0,0,0-10.06,5.45c2.42-1.93,5.06-3.38,10-5.76a24.14,24.14,0,0,1,1.87-1.91c.64-.51,11.49-4.71,15.46-4.79C212.68,132.48,212.9,132.7,213.11,133Z" style="fill:#fff;opacity:0.7000000000000001"></path><path d="M185,138.08s.54-7.31,6-10.64l2.16,2.93-3,1.69-1.44-.52.2,1.53-.78.52-.63.83-.08.44A6.27,6.27,0,0,0,185,138.08Z" style="fill:#fff;opacity:0.2"></path><path d="M151.2,252.54l72.57,10.84c1.12-1-4.07-66.36-14.32-84.61-2.57-4.56-14.44-9.14-19.94-6.11C170.3,183.27,151.2,252.54,151.2,252.54Z" style="fill:#ECEFF1"></path><path d="M150.09,255.42s11.06-43.65,26-67.15l23.79,4.82s4.2,23.89,7.44,30.43c2.38,4.8,14,7.24,14,7.24,3.27,14.68,2.49,32.62,2.49,32.62Z" style="fill:#37474f"></path><path d="M204.7,198c10.52,28.57,22.61,51.33,33.11,50.73,11.69-.67,5-37.36,3.8-38.63-2.72-2.81-13.09-16.25-28.31-30.09C197.29,165.42,202.1,190.89,204.7,198Z" style="fill:#ECEFF1"></path><path d="M236.41,248.2c8.62,1.32,18.2-6.31,46.43-26.22,3.9-2.75-7.8-36.67-12.13-33.95-5.44,3.44-25.82,17.95-27.18,19.2C232.09,217.77,230.57,247.3,236.41,248.2Z" style="fill:#f7a9a0"></path><path d="M309.91,183.92a4.6,4.6,0,0,1-.82,5.18,6.84,6.84,0,0,1,3,3.55c.83,2.68-3,5.17-3,5.17a8.38,8.38,0,0,1,2.55,4.24c.54,2.65-3,5.71-3,5.71a7.38,7.38,0,0,1-.11,5.14c-1.93,4.32-8.42,4.91-13,5.59s-10.12,1.92-10.12,1.92l-6.51,4.32-14.78-32.3a44.2,44.2,0,0,1,13.25-9.74,48.28,48.28,0,0,1,17.12-3.61C299.12,179.05,308.23,180.75,309.91,183.92Z" style="fill:#455a64"></path><path d="M308.81,188.66c-4.89-1.13-9.85-.75-14.83-.65-.11,0-.1.18,0,.17,4.94-.15,9.86.68,14.8.72A.12.12,0,0,0,308.81,188.66Z" style="fill:#263238"></path><path d="M308.92,197.45a13.13,13.13,0,0,0-3.43,0c-1.21.09-2.42.19-3.62.32-2.42.25-4.83.55-7.23.92-.11,0-.11.19,0,.17,2.41-.24,4.82-.45,7.24-.59q1.81-.11,3.63-.18a15.67,15.67,0,0,0,3.42-.31A.17.17,0,0,0,308.92,197.45Z" style="fill:#263238"></path><path d="M308.55,207.78a8.9,8.9,0,0,0-3.08.16q-1.65.21-3.3.39c-2.2.25-4.4.5-6.61.67-.11,0-.11.18,0,.17,2.25-.16,4.49-.29,6.74-.48l3.3-.28a8.76,8.76,0,0,0,3-.52A.06.06,0,0,0,308.55,207.78Z" style="fill:#263238"></path><path d="M262.08,193.32l8.28,40.7s-25.56,16.6-34.19,14.47c-5.67-1.4-5.07-31.59,8.46-42.27Z" style="fill:#ECEFF1"></path><path d="M234.44,224.65a29.56,29.56,0,0,1,10.19-18.47c.06-.05.17,0,.1.11-5.3,5.24-9.43,15.2-10.15,18.4C234.56,224.77,234.43,224.74,234.44,224.65Z" style="fill:#263238"></path><path d="M262.27,235c-1.06-4.41-1.89-8.87-2.7-13.34s-1.64-8.94-2.34-13.44c-.4-2.53-.81-5.07-1.12-7.62,0-.07.1-.1.12,0,1.06,4.4,1.91,8.87,2.75,13.32s1.64,9,2.4,13.43c.42,2.53.8,5.07,1.11,7.63C262.51,235.06,262.3,235.12,262.27,235Z" style="fill:#263238"></path><path d="M269.79,231.22l.63,2.79v0l0,0a137.39,137.39,0,0,1-21.29,11.75c-3.79,1.54-7.69,3-11.87,3-10.4-1-19.18-18.48-23.33-27a185.73,185.73,0,0,1-8.75-22.69c4.26,11.34,9,22.59,15.25,33,3.54,5.55,9.8,15.2,16.86,15.82,4,0,7.87-1.42,11.55-2.83A152.34,152.34,0,0,0,270.32,234l0,.07-.5-2.81Z" style="fill:#263238"></path><path d="M204.83,201.11c.67,1.09,1.43,2,2.19,3.07a6.21,6.21,0,0,1-2.19-3.07Z" style="fill:#263238"></path><path d="M193.14,191.73l6.71,1.36a70.93,70.93,0,0,1,3.92-19.23l-4.18-1.3A62.35,62.35,0,0,0,193.14,191.73Z" style="fill:#37474f"></path><path d="M176.06,188.27l4,.81S186,176.79,191.38,172C191.38,172,186.14,171.46,176.06,188.27Z" style="fill:#37474f"></path><path d="M157.87,253.32c-.48.14-5.76-.17-6.67-1.16,0,0,13.89-18.07,27.62-40.64,7.64-12.56,16.73-27.8,23-38.89.21-.37,4.82,1.14,4.42,2C198.21,191,189.47,205,182.65,216.78,169.76,239.12,158.9,253,157.87,253.32Z" style="fill:#ECEFF1"></path><g style="opacity:0.30000000000000004"><path d="M157.87,253.32c-.48.14-5.76-.17-6.67-1.16,0,0,13.89-18.07,27.62-40.64,7.64-12.56,16.73-27.8,23-38.89.21-.37,4.82,1.14,4.42,2C198.21,191,189.47,205,182.65,216.78,169.76,239.12,158.9,253,157.87,253.32Z"></path></g><path d="M151.2,252.16c-.42-.51,7.46-11.27,7.93-11.39s7.67,2.11,7.62,2.55-7.77,9.78-8.88,10S152.33,253.55,151.2,252.16Z" style="fill:#ECEFF1"></path><path d="M197.45,256.81c.44.23,5.11,1.31,7.78.24,0,0-20.75-31.76-22.31-42.91-1.41-10,1.46-26.56,5.14-41.44.11-.42-5.64,3.17-5.82,4.07-3.15,16-6.48,24.56-5.25,36.58C178.64,229.41,196.49,256.29,197.45,256.81Z" style="fill:#ECEFF1"></path><g style="opacity:0.30000000000000004"><path d="M197.45,256.81c.44.23,5.11,1.31,7.78.24,0,0-20.75-31.76-22.31-42.91-1.41-10,1.46-26.56,5.14-41.44.11-.42-5.64,3.17-5.82,4.07-3.15,16-6.48,24.56-5.25,36.58C178.64,229.41,196.49,256.29,197.45,256.81Z"></path></g><path d="M189.61,245.82c.21.43,6.72,10.93,7.79,11.41s7.77.85,7.83-.18c0-.52-6.66-12.33-7.34-12.49S189.31,245.21,189.61,245.82Z" style="fill:#ECEFF1"></path><path d="M174.92,205.16c1.14-1.21,14.34.72,14.9,2.05,1.16,2.76-6.51,18.49-7.92,18.73s-6-.11-6.76-1.14C174.08,223.43,173.32,206.87,174.92,205.16Z" style="fill:#ECEFF1"></path><path d="M176.64,208.1c.72-.76,9,.45,9.34,1.29.73,1.73-4.08,11.59-5,11.74s-3.74-.07-4.24-.71C176.11,219.56,175.64,209.17,176.64,208.1Z" style="opacity:0.30000000000000004"></path><path d="M148.08,260.77c-.38-.26,1.28-6.91,2.65-8.88,0,0,24.47,2.51,44.12,3,14.7.37,29.65-1,29.74-.64s.95,8.47.62,9.16-20.76,1.77-33.42,1.7S149.3,261.64,148.08,260.77Z" style="fill:#ECEFF1"></path><path d="M148.08,260.77c-.38-.26,1.28-6.91,2.65-8.88,0,0,24.47,2.51,44.12,3,14.7.37,29.65-1,29.74-.64s.95,8.47.62,9.16-20.76,1.77-33.42,1.7S149.3,261.64,148.08,260.77Z" style="opacity:0.30000000000000004"></path><rect x="130.77" width="2.62" height="276.76" style="fill:#263238"></rect><path d="M139.29,316.23H124.87a4.4,4.4,0,0,1-3.51-1.86,6.27,6.27,0,0,1-.87-5.45l7.2-23.82a4.46,4.46,0,0,1,8.77,0l7.21,23.83a6.24,6.24,0,0,1-.87,5.44A4.38,4.38,0,0,1,139.29,316.23Zm-7.21-31.76c-.66,0-1.24.57-1.52,1.49l-7.2,23.83a3.26,3.26,0,0,0,.41,2.79,1.44,1.44,0,0,0,1.1.65h14.42a1.44,1.44,0,0,0,1.1-.65,3.23,3.23,0,0,0,.41-2.79L133.59,286C133.31,285,132.73,284.47,132.08,284.47Z" style="fill:#a6a6a6"></path><rect x="130.58" y="273.59" width="3" height="16.29" style="fill:#a6a6a6"></rect><rect x="366.61" width="2.62" height="276.76" style="fill:#263238"></rect><path d="M375.13,316.23H360.71a4.38,4.38,0,0,1-3.51-1.87,6.24,6.24,0,0,1-.87-5.44l7.2-23.82a4.46,4.46,0,0,1,8.77,0l7.21,23.83a6.24,6.24,0,0,1-.87,5.44A4.38,4.38,0,0,1,375.13,316.23Zm-7.21-31.76c-.66,0-1.24.57-1.52,1.49l-7.2,23.83a3.26,3.26,0,0,0,.41,2.79,1.44,1.44,0,0,0,1.1.65h14.42a1.44,1.44,0,0,0,1.1-.65,3.26,3.26,0,0,0,.41-2.79L369.43,286C369.15,285,368.57,284.47,367.92,284.47Z" style="fill:#a6a6a6"></path><rect x="366.42" y="273.59" width="3" height="16.29" style="fill:#a6a6a6"></rect><rect x="108.3" y="315.66" width="283.39" height="9.98" style="fill:#ECEFF1"></rect><rect x="108.3" y="315.66" width="283.39" height="9.98" style="opacity:0.4"></rect><path d="M369.3,312.5a32.8,32.8,0,0,1,14.41,3.16h-4.13a32.13,32.13,0,0,0-10.28-1.61c-11,0-19.48,4.73-25.23,14.08a42.48,42.48,0,0,0-4.95,12.06c-.32,1.34-.44,2.15-.44,2.18l-1.53-.22s.12-.77.4-2C339.11,333.57,345.91,312.5,369.3,312.5Z" style="fill:#263238"></path><path d="M404.09,342.08l-1.5.35c0-.05-.21-.88-.67-2.24a45.15,45.15,0,0,0-10.22-16.92v-2.15c7.19,6.64,10.61,15.3,11.84,19.07C403.91,341.34,404.08,342,404.09,342.08Z" style="fill:#263238"></path><polygon points="338.61 344.68 402.37 344.68 396.2 408.78 344.78 408.78 338.61 344.68" style="fill:#ECEFF1"></polygon><polygon points="338.61 344.68 344.78 408.78 396.21 408.78 402.38 344.68 396.38 406.71 352.67 399.17 347.34 344.68 338.61 344.68" style="opacity:0.1"></polygon><rect x="336.32" y="340.19" width="68.35" height="4.49" transform="translate(740.98 684.87) rotate(180)" style="fill:#ECEFF1"></rect><rect x="336.32" y="340.19" width="68.35" height="4.49" transform="translate(740.98 684.87) rotate(180)" style="opacity:0.1"></rect><path d="M365.39,340.19a15.08,15.08,0,0,1,7.62-3,27,27,0,0,1,8.81,1.48,60.94,60.94,0,0,1,7.65,0c2.94.29,9.4,32.18,9.21,33.16s-6.23,4.65-6.23,4.65,1.62,18.91.45,19.3-7.4,2-8.72,1.77-6.18-3.63-6.47-4.07,1.42-23.71,1.42-23.71-1.67-2.35-2-2.74-.29-21-.73-22.63-4.72-4.25-4.72-4.25Z" style="fill:#ECEFF1"></path><path d="M365.39,340.19a15.08,15.08,0,0,1,7.62-3,27,27,0,0,1,8.81,1.48,60.94,60.94,0,0,1,7.65,0c2.94.29,9.4,32.18,9.21,33.16s-6.23,4.65-6.23,4.65,1.62,18.91.45,19.3-7.4,2-8.72,1.77-6.18-3.63-6.47-4.07,1.42-23.71,1.42-23.71-1.67-2.35-2-2.74-.29-21-.73-22.63-4.72-4.25-4.72-4.25Z" style="fill:#fff;opacity:0.8"></path><g style="opacity:0.4"><path d="M392.45,376.51s-2.59-21.84-2.4-22.53,4.71,21.07,4.71,21.07Z" style="fill:#ECEFF1"></path><polygon points="379.13 369.8 379.13 359.5 378.18 368.48 379.13 369.8" style="fill:#ECEFF1"></polygon><path d="M385.66,341.07c-.41-.08-3.84-2.36-3.84-2.36l.22,0h.15c.92,0,3.38-.15,5.58-.08C388.07,338.92,386.09,341.15,385.66,341.07Z" style="fill:#ECEFF1"></path><path d="M387.81,374.59s0,15.8,0,16.33a74.61,74.61,0,0,0,1.2-9.28C388.88,380.33,387.81,374.59,387.81,374.59Z" style="fill:#ECEFF1"></path></g></g></svg>
