<svg width="15" height="15" viewBox="0 0 15 15" fill="none" xmlns="http://www.w3.org/2000/svg">
<path fill-rule="evenodd" clip-rule="evenodd" d="M7.50002 15C11.6422 15 15 11.6421 15 7.5C15 3.35786 11.6422 4.93945e-08 7.50002 0C3.35788 -4.93945e-08 1.53082e-05 3.35786 1.52588e-05 7.5C1.52094e-05 11.6421 3.35788 15 7.50002 15ZM10.207 9.50005L7.49994 6.79294L4.79283 9.50005L5.49994 10.2072L7.49994 8.20715L9.49994 10.2072L10.207 9.50005ZM10.207 6.50005L7.49994 3.79294L4.79283 6.50005L5.49994 7.20715L7.49994 5.20715L9.49994 7.20715L10.207 6.50005Z" fill="#EBEBED"/>
</svg>
