<svg width="15" height="15" viewBox="0 0 15 15" fill="none" xmlns="http://www.w3.org/2000/svg">
<path fill-rule="evenodd" clip-rule="evenodd" d="M7.50005 0C3.35792 -1.81058e-07 5.35868e-05 3.35786 5.34058e-05 7.5C5.32247e-05 11.6421 3.35792 15 7.50005 15C11.6422 15 15.0001 11.6421 15.0001 7.5C15.0001 3.35786 11.6422 1.81058e-07 7.50005 0ZM4.79302 5.49995L7.50013 8.20706L10.2072 5.49995L9.50013 4.79285L7.50013 6.79285L5.50013 4.79285L4.79302 5.49995ZM4.79302 8.49995L7.50013 11.2071L10.2072 8.49995L9.50013 7.79285L7.50013 9.79285L5.50013 7.79285L4.79302 8.49995Z" fill="#EBEBED"/>
</svg>
