<svg width="15" height="15" viewBox="0 0 15 15" fill="none" xmlns="http://www.w3.org/2000/svg">
<path fill-rule="evenodd" clip-rule="evenodd" d="M-6.4282e-07 2H2V5H3V6H-6.4282e-07V5H0.999999V3H-6.4282e-07V2ZM15 4H5V3H15V4ZM15 8H5V7H15V8ZM-6.4282e-07 11.5C-6.4282e-07 10.6716 0.671572 10 1.5 10H1.79289C2.45956 10 3 10.5404 3 11.2071C3 11.5273 2.87282 11.8343 2.64645 12.0607L1.70711 13H3V14H0.499999C0.297768 14 0.11545 13.8782 0.0380596 13.6913C-0.0393309 13.5045 0.00344697 13.2894 0.146446 13.1464L1.93934 11.3536C1.97818 11.3147 2 11.262 2 11.2071C2 11.0927 1.90727 11 1.79289 11H1.5C1.22386 11 0.999999 11.2239 0.999999 11.5H-6.4282e-07ZM15 12H5V11H15V12Z" fill="#EBEBED"/>
</svg>
