<svg width="15" height="15" viewBox="0 0 15 15" fill="none" xmlns="http://www.w3.org/2000/svg">
<path fill-rule="evenodd" clip-rule="evenodd" d="M13.8536 1.85356L10.7071 5.00001L13 5.00001V6.00001L9.00001 6.00001V2.00001H10V4.2929L13.1465 1.14645L13.8536 1.85356ZM4.2929 5.00001L1.14645 1.85356L1.85356 1.14645L5.00001 4.2929L5.00001 2.00001L6.00001 2.00001V6.00001L2.00001 6.00001L2.00001 5.00001L4.2929 5.00001ZM2.00001 9.00001L6.00001 9.00001L6.00001 13H5.00001L5.00001 10.7071L1.85356 13.8536L1.14645 13.1465L4.2929 10L2.00001 10L2.00001 9.00001ZM9 9.00001L13 9.00001V10L10.7071 10L13.8536 13.1465L13.1465 13.8536L10 10.7071L10 13L9 13L9 9.00001Z" fill="#EBEBED"/>
</svg>
