<svg width="15" height="15" viewBox="0 0 15 15" fill="none" xmlns="http://www.w3.org/2000/svg">
<path d="M7.14644 0.146447C7.3417 -0.0488155 7.65828 -0.0488155 7.85355 0.146447L8.83361 1.12651L7.0134 4.06685L4.30814 2.98475L7.14644 0.146447Z" fill="#EBEBED"/>
<path d="M3.53883 3.75406L2.42637 4.86652L4.71993 7.7717L6.479 4.93012L3.53883 3.75406Z" fill="#EBEBED"/>
<path d="M1.71438 5.5785L0.146439 7.14645C0.123135 7.16975 0.102611 7.19478 0.0848694 7.22113L3.60706 7.97589L1.71438 5.5785Z" fill="#EBEBED"/>
<path d="M0.659952 8.36707L1.66653 9.37365L2.84237 8.83473L0.659952 8.36707Z" fill="#EBEBED"/>
<path d="M2.42084 10.128L2.93994 10.6471L3.59421 9.59016L2.42084 10.128Z" fill="#EBEBED"/>
<path d="M3.66636 11.3735L7.14644 14.8536C7.3417 15.0488 7.65828 15.0488 7.85355 14.8536L8.17744 14.5297L8.29568 13.9148L4.81917 9.51124L3.66636 11.3735Z" fill="#EBEBED"/>
<path d="M9.43822 13.2689L11.9259 10.7812L9.99614 10.3677L9.43822 13.2689Z" fill="#EBEBED"/>
<path d="M12.7681 9.93897L14.549 8.15812L10.7159 6.62489L10.185 9.38545L12.7681 9.93897Z" fill="#EBEBED"/>
<path d="M14.9208 7.22983C14.9018 7.20028 14.8794 7.1723 14.8535 7.14645L12.9906 5.28349L11.6225 5.91051L14.9208 7.22983Z" fill="#EBEBED"/>
<path d="M12.2363 4.52918L11.2992 3.59205L11.0109 5.0908L12.2363 4.52918Z" fill="#EBEBED"/>
<path d="M10.4451 2.73797L9.56003 1.85293L7.95608 4.44392L9.96265 5.24655L10.4451 2.73797Z" fill="#EBEBED"/>
<path d="M5.99829 8.48829L9.66218 6.80901L9.20701 9.17588L5.99829 8.48829Z" fill="#EBEBED"/>
<path d="M6.11236 9.53544L9.01812 10.1581L8.54524 12.6171L6.11236 9.53544Z" fill="#EBEBED"/>
<path d="M6.18691 7.30181L9.08616 5.97299L7.42167 5.3072L6.18691 7.30181Z" fill="#EBEBED"/>
</svg>
